<svg xmlns="http://www.w3.org/2000/svg" viewBox="0 0 1794.72 357.75"><defs><style>.cls-1{fill:#282828;}.cls-2{fill:#377dff;}.cls-3{fill:#36f1cd;}</style></defs><g id="Capa_2" data-name="Capa 2"><g id="Capa_1-2" data-name="Capa 1"><path class="cls-1" d="M415.15,236h72.94v35.2H398.27a27.52,27.52,0,0,1-27.52-27.52V49.8h44.4Z"/><path class="cls-1" d="M678.38,196.64H549.94q1.57,19,13.32,29.81t28.86,10.79q24.74,0,35.2-21.25h47.89A80,80,0,0,1,646,257.69Q624.46,274,593.07,274q-25.38,0-45.51-11.25a79.19,79.19,0,0,1-31.4-31.88q-11.26-20.61-11.26-47.57,0-27.27,11.1-47.89a77.46,77.46,0,0,1,31.08-31.71q20-11.1,46-11.1,25,0,44.87,10.78A75.89,75.89,0,0,1,668.71,134q10.93,19.81,10.94,45.51A105.33,105.33,0,0,1,678.38,196.64Zm-44.72-29.81q-.31-17.13-12.37-27.43T591.8,129.09q-16.5,0-27.75,10t-13.8,27.75Z"/><path class="cls-1" d="M815.38,100.39a63.61,63.61,0,0,1,23.47,20.14V95.47h44.72v177q0,24.42-9.83,43.61a73,73,0,0,1-29.5,30.44q-19.66,11.26-47.57,11.26-37.42,0-61.37-17.44t-27.11-47.57h44.08q3.48,12,15.07,19.18t28.06,7.14q19.35,0,31.4-11.58t12.05-35V245.17q-8.57,12.36-23.63,20.61T780.81,274a75.45,75.45,0,0,1-40.59-11.41q-18.4-11.42-29-32.19t-10.62-47.73q0-26.64,10.62-47.26t28.86-31.71a76.84,76.84,0,0,1,40.75-11.1Q800.47,92.62,815.38,100.39Zm17.13,55.18a44.76,44.76,0,0,0-17.13-17.76,45.78,45.78,0,0,0-23.15-6.18,44.58,44.58,0,0,0-39.8,23.62q-6.51,11.58-6.5,27.44t6.5,27.75a46.7,46.7,0,0,0,17.12,18.23A43.42,43.42,0,0,0,792.23,235a45.69,45.69,0,0,0,23.15-6.19,44.69,44.69,0,0,0,17.13-17.76q6.35-11.56,6.34-27.75T832.51,155.57Z"/><path class="cls-1" d="M926.22,135.43q10.62-20.61,28.86-31.71a76.84,76.84,0,0,1,40.76-11.1q19.65,0,34.41,7.93a69.68,69.68,0,0,1,23.62,20V95.47h44.72v175.7h-44.72V245.48q-8.56,12.38-23.62,20.46T995.52,274a74.69,74.69,0,0,1-40.44-11.41q-18.24-11.42-28.86-32.19T915.6,182.69Q915.6,156.05,926.22,135.43Zm121.31,20.14a44.76,44.76,0,0,0-17.13-17.76,45.78,45.78,0,0,0-23.15-6.18,44.58,44.58,0,0,0-39.8,23.62q-6.51,11.58-6.5,27.44t6.5,27.75a46.65,46.65,0,0,0,17.13,18.23,43.36,43.36,0,0,0,22.67,6.35,45.69,45.69,0,0,0,23.15-6.19,44.69,44.69,0,0,0,17.13-17.76q6.35-11.56,6.34-27.75T1047.53,155.57Z"/><path class="cls-1" d="M1186.44,36.48V271.17h-16A28.43,28.43,0,0,1,1142,242.74V36.48Z"/><path class="cls-1" d="M1298.23,100.55q15.06-7.93,34.41-7.93a76.84,76.84,0,0,1,40.75,11.1q18.24,11.1,28.86,31.55t10.63,47.42q0,27-10.63,47.73t-28.86,32.19A75.23,75.23,0,0,1,1332.64,274q-19.67,0-34.41-7.76a66.92,66.92,0,0,1-23.63-20.14v25.05h-11.67a32.73,32.73,0,0,1-32.73-32.73v-202h44.4v84.68A63.53,63.53,0,0,1,1298.23,100.55Zm62.8,54.7a45.14,45.14,0,0,0-17.13-17.6,45.92,45.92,0,0,0-23-6,44.36,44.36,0,0,0-22.68,6.18,46,46,0,0,0-17.13,17.92q-6.49,11.73-6.5,27.59t6.5,27.59a45.91,45.91,0,0,0,17.13,17.92,44.45,44.45,0,0,0,25.77,6.09,43.6,43.6,0,0,0,14.48-3.47A46.46,46.46,0,0,0,1361,210.6q6.49-11.73,6.5-27.91Q1367.53,166.84,1361,155.25Z"/><path class="cls-1" d="M1477.58,262.77a81.05,81.05,0,0,1-31.88-31.88q-11.58-20.61-11.57-47.57T1446,135.75a82.59,82.59,0,0,1,32.51-31.87q20.61-11.26,46-11.26t46,11.26A82.65,82.65,0,0,1,1603,135.75q11.88,20.63,11.89,47.57t-12.21,47.57a84.56,84.56,0,0,1-33,31.88Q1548.94,274,1523.24,274,1497.88,274,1477.58,262.77Zm68.34-33.3a42.64,42.64,0,0,0,17-17.61q6.33-11.73,6.34-28.54,0-25-13.16-38.53a43.27,43.27,0,0,0-32.19-13.48q-19,0-31.88,13.48t-12.84,38.53q0,25.07,12.53,38.54t31.55,13.47A46.22,46.22,0,0,0,1545.92,229.47Z"/><path class="cls-1" d="M1744.61,271.17l-36.16-54.55-32,54.55h-47.57l57.4-88.17-58-87.53h50.11l35.84,54.23,32.35-54.23h47.57L1736.36,183l58.36,88.17Z"/><path class="cls-2" d="M163.36,167.87V315.46a14.79,14.79,0,0,1-21.85,13L20,262.58A38.17,38.17,0,0,1,0,229V96.16a28.22,28.22,0,0,1,2.18-11c1.06-2.49,2.38-4.93,3.71-5.6C8.83,78.09,163.36,167.87,163.36,167.87Z"/><path class="cls-3" d="M5.89,79.56,142.24,5.36A44.08,44.08,0,0,1,185.57,6L297.2,71.32a14.79,14.79,0,0,1-.54,25.83l-133.3,70.72"/></g></g></svg>