<svg xmlns="http://www.w3.org/2000/svg" viewBox="0 0 581 630.15"><defs><style>.cls-1{fill:#377dff;}.cls-2{fill:#111111;}</style></defs><g id="Capa_2" data-name="Capa 2"><g id="Capa_1-2" data-name="Capa 1"><path class="cls-1" d="M311.68,320.27V601.88A28.24,28.24,0,0,1,270,626.7L38.1,501A72.79,72.79,0,0,1,0,437V183.46a53.73,53.73,0,0,1,4.17-21c2-4.75,4.54-9.42,7.06-10.68C16.85,149,311.68,320.27,311.68,320.27Z"/><path class="cls-2" d="M11.23,151.8,271.38,10.23a84.12,84.12,0,0,1,82.68,1.28L567,136.08a28.21,28.21,0,0,1-1,49.27L311.68,320.27"/></g></g></svg>