<svg id="Capa_1" data-name="Capa 1" xmlns="http://www.w3.org/2000/svg" viewBox="0 0 1920 447"><defs><style>.cls-1{fill:#fff;}.cls-2{fill:#377dff;}.cls-3{fill:#36f1cd;}</style></defs><path class="cls-1" d="M477.79,280.59h72.95V315.8H460.91a27.52,27.52,0,0,1-27.52-27.52V94.43h44.4Z"/><path class="cls-1" d="M741,241.27H612.58q1.57,19,13.32,29.81t28.86,10.78q24.74,0,35.2-21.25h47.89a80,80,0,0,1-29.18,41.71q-21.57,16.33-53,16.33-25.38,0-45.51-11.26a79.16,79.16,0,0,1-31.4-31.87Q567.54,254.91,567.54,228q0-27.28,11.1-47.89a77.54,77.54,0,0,1,31.08-31.72q20-11.1,46-11.1,25,0,44.88,10.79a76,76,0,0,1,30.76,30.6q10.93,19.83,10.94,45.51A105.54,105.54,0,0,1,741,241.27ZM696.3,211.45Q696,194.33,683.94,184t-29.5-10.31q-16.49,0-27.75,10T612.9,211.45Z"/><path class="cls-1" d="M878,145a63.79,63.79,0,0,1,23.47,20.14V140.1h44.72v177q0,24.42-9.83,43.61a73.11,73.11,0,0,1-29.49,30.45q-19.68,11.25-47.58,11.26-37.42,0-61.36-17.45t-27.12-47.57h44.08q3.5,12,15.07,19.19T858,363.69q19.35,0,31.4-11.58t12-35.05V289.79q-8.57,12.36-23.62,20.61t-34.41,8.25a75.47,75.47,0,0,1-40.6-11.42q-18.39-11.42-29-32.19t-10.62-47.73q0-26.64,10.62-47.25t28.86-31.72a76.84,76.84,0,0,1,40.76-11.1Q863.11,137.24,878,145Zm17.13,55.19A44.69,44.69,0,0,0,878,182.44a45.69,45.69,0,0,0-23.15-6.19,44.61,44.61,0,0,0-39.8,23.63q-6.5,11.58-6.5,27.43t6.5,27.75A46.75,46.75,0,0,0,832.2,273.3a43.47,43.47,0,0,0,22.67,6.34A45.78,45.78,0,0,0,878,273.46a44.76,44.76,0,0,0,17.13-17.76q6.35-11.58,6.34-27.75T895.15,200.2Z"/><path class="cls-1" d="M988.86,180.06q10.64-20.61,28.86-31.72a76.84,76.84,0,0,1,40.76-11.1q19.66,0,34.41,7.93a69.91,69.91,0,0,1,23.62,20V140.1h44.72V315.8h-44.72V290.11q-8.55,12.36-23.62,20.45t-34.73,8.09a74.7,74.7,0,0,1-40.44-11.42Q999.48,295.82,988.86,275t-10.62-47.73Q978.24,200.67,988.86,180.06Zm121.31,20.14a44.74,44.74,0,0,0-17.12-17.76,45.73,45.73,0,0,0-23.16-6.19,44.61,44.61,0,0,0-39.8,23.63q-6.49,11.58-6.5,27.43t6.5,27.75a46.75,46.75,0,0,0,17.13,18.24,43.47,43.47,0,0,0,22.67,6.34,45.82,45.82,0,0,0,23.16-6.18,44.8,44.8,0,0,0,17.12-17.76q6.35-11.58,6.34-27.75T1110.17,200.2Z"/><path class="cls-1" d="M1249.08,81.11V315.8h-16a28.43,28.43,0,0,1-28.43-28.44V81.11Z"/><path class="cls-1" d="M1360.87,145.17q15.06-7.92,34.41-7.93a76.87,76.87,0,0,1,40.76,11.1q18.23,11.11,28.86,31.56t10.62,47.41q0,27-10.62,47.73T1436,307.23a75.27,75.27,0,0,1-40.76,11.42q-19.66,0-34.41-7.77a66.7,66.7,0,0,1-23.62-20.14V315.8h-11.68a32.73,32.73,0,0,1-32.72-32.73v-202h44.4v84.68A63.52,63.52,0,0,1,1360.87,145.17Zm62.8,54.71a45.08,45.08,0,0,0-17.13-17.6,45.78,45.78,0,0,0-23-6,44.3,44.3,0,0,0-22.68,6.19,45.85,45.85,0,0,0-17.12,17.91q-6.51,11.75-6.5,27.6t6.5,27.59a46,46,0,0,0,17.12,17.92,44.54,44.54,0,0,0,25.77,6.08,43.6,43.6,0,0,0,14.48-3.47,46.42,46.42,0,0,0,22.55-20.85q6.49-11.73,6.5-27.91Q1430.17,211.46,1423.67,199.88Z"/><path class="cls-1" d="M1540.22,307.39a81,81,0,0,1-31.88-31.87q-11.58-20.61-11.57-47.57t11.89-47.58a82.66,82.66,0,0,1,32.51-31.87q20.61-11.25,46-11.26t46,11.26a82.72,82.72,0,0,1,32.51,31.87Q1677.54,201,1677.54,228t-12.21,47.57a84.57,84.57,0,0,1-33,31.87q-20.77,11.26-46.47,11.26Q1560.52,318.65,1540.22,307.39Zm68.34-33.3a42.68,42.68,0,0,0,17-17.6q6.35-11.73,6.34-28.54,0-25-13.16-38.54a43.31,43.31,0,0,0-32.19-13.48q-19,0-31.87,13.48T1541.8,228q0,25.05,12.53,38.53T1585.88,280A46.12,46.12,0,0,0,1608.56,274.09Z"/><path class="cls-1" d="M1807.25,315.8l-36.15-54.55-32,54.55h-47.57l57.4-88.17-58-87.53H1741l35.83,54.23,32.35-54.23h47.57L1799,227.63l58.36,88.17Z"/><path class="cls-2" d="M226,212.49v147.6a14.8,14.8,0,0,1-21.85,13L82.61,307.21a38.18,38.18,0,0,1-20-33.55V140.78a28.18,28.18,0,0,1,2.19-11c1-2.49,2.38-4.94,3.7-5.6C71.47,122.72,226,212.49,226,212.49Z"/><path class="cls-3" d="M68.53,124.19,204.88,50a44.1,44.1,0,0,1,43.34.67L359.84,116a14.78,14.78,0,0,1-.54,25.82L226,212.49"/></svg>