<svg width="503" height="402" viewBox="0 0 503 402" fill="none" xmlns="http://www.w3.org/2000/svg">
<path d="M301.8 25.125H402.4C416.311 25.125 427.55 36.3527 427.55 50.25C427.55 64.1473 416.311 75.375 402.4 75.375H313.117C309.031 95.632 295.119 112.356 276.65 120.364V351.75H402.4C416.311 351.75 427.55 362.978 427.55 376.875C427.55 390.772 416.311 402 402.4 402H251.5H100.6C86.6888 402 75.4499 390.772 75.4499 376.875C75.4499 362.978 86.6888 351.75 100.6 351.75H226.35V120.364C207.88 112.277 193.969 95.5535 189.882 75.375H100.6C86.6888 75.375 75.4499 64.1473 75.4499 50.25C75.4499 36.3527 86.6888 25.125 100.6 25.125H201.2C212.675 9.89297 230.908 0 251.5 0C272.091 0 290.325 9.89297 301.8 25.125ZM345.498 251.25H459.302L402.4 153.734L345.498 251.25ZM402.4 326.625C352.964 326.625 311.86 299.93 303.372 264.676C301.328 256.039 304.158 247.167 308.638 239.473L383.459 111.335C387.388 104.583 394.619 100.5 402.4 100.5C410.181 100.5 417.411 104.661 421.341 111.335L496.162 239.473C500.642 247.167 503.471 256.039 501.428 264.676C492.94 299.93 451.835 326.625 402.4 326.625ZM99.6568 153.734L42.7549 251.25H156.637L99.6568 153.734ZM0.707251 264.676C-1.33619 256.039 1.49319 247.167 5.97303 239.473L80.7943 111.335C84.724 104.583 91.9546 100.5 99.7354 100.5C107.516 100.5 114.747 104.661 118.676 111.335L193.498 239.473C197.978 247.167 200.807 256.039 198.763 264.676C190.197 299.93 149.092 326.625 99.6568 326.625C50.2213 326.625 9.19538 299.93 0.707251 264.676Z" fill="#377DFF"/>
</svg>
