<svg width="224" height="224" viewBox="0 0 224 224" fill="none" xmlns="http://www.w3.org/2000/svg">
<path fill-rule="evenodd" clip-rule="evenodd" d="M82.0573 166.738C53.0941 174.647 52.8376 174.336 51.3679 171.932C50.5751 170.635 45.914 169.788 41.0099 170.05C35.1361 170.364 31.3613 169.508 29.9483 167.54C28.7685 165.897 27.4321 164.637 26.9786 164.74C26.525 164.843 25.6932 162.897 25.1301 160.416C24.314 156.821 24.6807 155.775 26.9376 155.263C28.4948 154.91 29.5386 153.606 29.257 152.365C28.9754 151.125 27.9924 150.281 27.0725 150.49C24.6547 151.039 22.9441 146.737 25.24 145.882C26.3011 145.487 27.4872 145.218 27.876 145.284C28.2648 145.35 28.3526 144.389 28.071 143.149C27.7895 141.908 26.5897 141.114 25.4048 141.383C24.2199 141.652 23.0201 140.857 22.7386 139.617C22.457 138.376 22.6357 137.268 23.1356 137.155C23.6154 137.046 25.2335 134.573 26.7968 131.579C25.6234 131.388 24.8469 130.962 24.7051 130.337C24.4235 129.097 25.6441 127.738 27.4176 127.318C28.3891 127.087 29.5064 126.602 30.4808 126.023C31.4842 124.881 32.625 123.802 33.9414 122.765L34.236 122.427L31.3078 121.503C29.6325 120.974 30.7246 120.036 34.4071 118.81C35.2575 118.393 35.3496 117.094 34.6455 115.272C34.5222 114.953 34.4241 114.635 34.3511 114.322C29.5759 115.724 25.0031 117.4 22.9802 118.747C18.7399 121.571 17.3435 121.549 17.7551 118.665C18.1068 116.2 23.4223 111.289 26.1209 110.936C27.5356 110.75 28.704 109.333 28.7175 107.785C28.7309 106.238 30.0494 104.776 31.6474 104.536C32.0415 104.477 32.4305 104.364 32.7968 104.209C31.9003 102.858 32.211 102.146 33.4569 99.7215C33.6961 99.256 33.9042 98.7236 34.0756 98.1605C32.5432 98.4657 30.5013 98.9913 28.171 99.7012C14.8645 103.755 18.5665 99.4274 33.0074 94.0479C33.5123 93.8598 34.0168 93.6692 34.5182 93.4774C34.5066 93.4144 34.4941 93.3529 34.4804 93.2928C34.0963 91.6004 34.8765 89.2835 36.2142 88.1443C38.2934 86.3736 38.3454 85.8783 36.5722 84.7319C35.4314 83.9943 46.3434 80.7872 60.8211 77.605C75.2989 74.4227 85.5605 72.9252 83.6247 74.2771C80.6179 76.377 80.5049 76.7514 82.8489 76.8466C83.7339 76.8826 89.1457 75.9567 96.7826 74.4982C104.301 72.5165 109.582 71.0151 110.365 70.6005C112.438 69.5026 112.174 69.2138 108.555 68.6179C106.226 68.2342 116.128 65.1545 130.561 61.7741C144.994 58.3936 156.221 56.5751 155.51 57.733C154.406 59.5326 154.667 59.957 157.307 60.6564C159.005 61.1064 160.709 62.8593 161.093 64.5518C161.107 64.6119 161.122 64.6728 161.139 64.7346C161.674 64.6911 162.211 64.6452 162.748 64.5968C178.096 63.2143 183.304 65.5192 169.551 67.608C167.143 67.9738 165.074 68.3813 163.56 68.7676C163.958 69.2016 164.375 69.5919 164.792 69.9085C166.963 71.5578 167.551 72.0659 167.325 73.6716C167.722 73.6526 168.122 73.5869 168.503 73.4701C170.048 72.9964 171.869 73.746 172.549 75.1358C173.229 76.5256 174.895 77.2998 176.251 76.8562C178.025 76.2758 181.836 77.0979 184.501 78.3401C184.838 78.4525 185.109 78.5903 185.315 78.7536C186.15 79.2165 186.802 79.718 187.134 80.2159C187.215 80.337 187.288 80.4536 187.355 80.5658C188.149 80.9617 189.028 81.1262 189.768 80.9582C191.858 80.4839 192.378 81.1663 192.855 85.0004C193.292 88.5176 193.852 89.5168 195.214 89.2076C196.197 88.9846 196.897 89.5278 196.77 90.4147C196.734 90.6699 196.763 91.0206 196.846 91.4292C200.381 91.2658 202.78 91.5779 202.779 92.546C202.778 93.6289 201.209 95.5829 199.228 97.012C199.341 97.4206 199.295 97.6272 199.062 97.5398C198.207 97.2197 196.543 100.174 195.683 102.828C195.836 103.749 195.646 105.009 195.219 106.223C195.473 107.128 196.184 107.204 196.836 106.372C197.757 105.196 197.792 105.6 196.975 107.983C196.795 108.508 196.625 109.134 196.474 109.799C197.362 109.512 198.452 109.122 199.765 108.629C204.125 106.995 206.929 106.428 205.997 107.371C204.74 108.641 204.701 109.75 205.844 111.661C207.029 113.64 206.384 115.108 203.064 117.994C198.392 122.055 195.718 125.899 195.769 128.248C196.916 128.864 197.866 129.872 198.114 130.965C198.16 131.167 197.909 131.416 197.415 131.693C197.979 134.435 195.891 138.207 192.041 140.746C189.56 142.383 188.144 143.731 188.895 143.741C190.013 143.756 190.091 144.238 189.325 146.397C188.81 147.847 185.949 149.149 182.967 149.291C179.73 149.444 177.752 150.434 178.058 151.747C178.694 154.474 164.997 158.199 153.311 158.477C136.26 158.882 132.097 159.389 135.222 160.678C137.7 161.7 137.342 162.113 133.202 163.008C130.434 163.606 127.831 163.419 127.419 162.593C127.061 161.876 126.139 161.417 124.588 161.221C122.748 162.438 121.589 163.449 121.511 163.992C121.411 164.692 120.36 165.485 119.175 165.754C116.463 166.37 116.703 164.126 119.593 161.854C119.865 161.64 120.129 161.418 120.374 161.198C115.929 161.515 109.295 162.698 100.099 164.778C89.8391 167.099 84.0787 167.732 82.0573 166.738ZM185.429 92.9028C188.038 92.4008 190.65 92.0017 193.027 91.7394C192.775 90.0233 192.114 88.8331 191.554 89.09C190.989 89.3485 188.34 90.2494 185.665 91.0914C184.498 91.4589 183.632 91.7773 183.036 92.0871C184.02 92.0654 184.9 92.3716 185.429 92.9028ZM30.7245 108.954C30.6004 108.407 30.7442 107.244 31.0442 106.37C31.3441 105.496 31.8334 105.855 32.1316 107.169C32.4298 108.482 32.286 109.645 31.8121 109.753C31.3381 109.86 30.8487 109.501 30.7245 108.954ZM152.584 60.9948C152.01 59.8209 151.95 58.7673 152.452 58.6534C152.954 58.5394 153.595 59.461 153.877 60.7014C154.158 61.9418 154.218 62.9954 154.009 63.0429C153.8 63.0903 153.158 62.1687 152.584 60.9948ZM127.428 64.9383C131.719 63.5338 138.893 61.9054 143.37 61.3195C147.847 60.7337 144.336 61.8828 135.568 63.8731C126.8 65.8634 123.137 66.3427 127.428 64.9383ZM171.243 77.0562C171.119 76.5093 170.487 75.5226 169.839 74.8636C169.191 74.2046 168.905 74.7401 169.203 76.0537C169.501 77.3672 170.133 78.354 170.607 78.2464C171.081 78.1388 171.367 77.6032 171.243 77.0562ZM40.62 86.4106C40.6314 85.1037 40.2301 84.1277 39.7281 84.2416C39.2262 84.3555 39.0459 85.4636 39.3275 86.704C39.609 87.9443 40.0104 88.9204 40.2194 88.8729C40.4284 88.8255 40.6087 87.7174 40.62 86.4106ZM65.0129 79.1065C60.536 79.6924 53.3622 81.3208 49.0712 82.7253C44.7801 84.1298 48.443 83.6504 57.211 81.6601C65.9789 79.6698 69.4898 78.5207 65.0129 79.1065ZM58.3584 167.8C57.17 167.504 55.425 167.9 54.4807 168.68C53.5363 169.46 54.5086 169.701 56.6414 169.217C58.7741 168.733 59.5468 168.095 58.3584 167.8Z" fill="#60DBFF"/>
<line x1="31.3203" y1="84.9707" x2="31.3203" y2="93.4987" stroke="black" stroke-width="2"/>
<line x1="30.3203" y1="92.498" x2="195.551" y2="92.498" stroke="black" stroke-width="2"/>
<line x1="47.375" y1="162.854" x2="177.427" y2="162.854" stroke="black" stroke-width="2"/>
<line x1="48.375" y1="163.854" x2="48.375" y2="171.317" stroke="black" stroke-width="2"/>
<line x1="176.297" y1="163.854" x2="176.297" y2="171.317" stroke="black" stroke-width="2"/>
<line x1="184.824" y1="171.316" x2="184.824" y2="178.778" stroke="black" stroke-width="2"/>
<line x1="39.8477" y1="171.316" x2="39.8477" y2="178.778" stroke="black" stroke-width="2"/>
<line x1="38.8477" y1="171.382" x2="185.956" y2="171.382" stroke="black" stroke-width="2"/>
<line x1="38.8477" y1="179.91" x2="185.956" y2="179.91" stroke="black" stroke-width="2"/>
<line x1="56.9062" y1="93.498" x2="56.9062" y2="161.722" stroke="black" stroke-width="2"/>
<line x1="65.4336" y1="93.498" x2="65.4336" y2="161.722" stroke="black" stroke-width="2"/>
<line x1="88.8828" y1="93.498" x2="88.8828" y2="161.722" stroke="black" stroke-width="2"/>
<line x1="112.336" y1="93.498" x2="112.336" y2="161.722" stroke="black" stroke-width="2"/>
<line x1="167.77" y1="93.498" x2="167.77" y2="161.722" stroke="black" stroke-width="2"/>
<line x1="159.238" y1="93.498" x2="159.238" y2="161.722" stroke="black" stroke-width="2"/>
<line x1="135.789" y1="93.498" x2="135.789" y2="161.722" stroke="black" stroke-width="2"/>
<line x1="166.77" y1="83.9707" x2="195.552" y2="83.9707" stroke="black" stroke-width="2"/>
<line x1="194.551" y1="92.4326" x2="194.551" y2="84.9706" stroke="black" stroke-width="2"/>
<line x1="31.3203" y1="82.8379" x2="31.3203" y2="93.4979" stroke="black" stroke-width="2"/>
<line x1="30.3203" y1="92.498" x2="195.551" y2="92.498" stroke="black" stroke-width="2"/>
<line x1="47.375" y1="162.854" x2="177.427" y2="162.854" stroke="black" stroke-width="2"/>
<line x1="48.375" y1="163.854" x2="48.375" y2="171.317" stroke="black" stroke-width="2"/>
<line x1="176.297" y1="163.854" x2="176.297" y2="171.317" stroke="black" stroke-width="2"/>
<line x1="184.824" y1="171.316" x2="184.824" y2="178.778" stroke="black" stroke-width="2"/>
<line x1="39.8477" y1="171.316" x2="39.8477" y2="178.778" stroke="black" stroke-width="2"/>
<line x1="38.8477" y1="171.382" x2="185.956" y2="171.382" stroke="black" stroke-width="2"/>
<line x1="38.8477" y1="179.91" x2="185.956" y2="179.91" stroke="black" stroke-width="2"/>
<line x1="56.9062" y1="93.498" x2="56.9062" y2="161.722" stroke="black" stroke-width="2"/>
<line x1="65.4336" y1="93.498" x2="65.4336" y2="161.722" stroke="black" stroke-width="2"/>
<line x1="88.8828" y1="93.498" x2="88.8828" y2="161.722" stroke="black" stroke-width="2"/>
<line x1="112.336" y1="93.498" x2="112.336" y2="161.722" stroke="black" stroke-width="2"/>
<line x1="167.77" y1="93.498" x2="167.77" y2="161.722" stroke="black" stroke-width="2"/>
<line x1="159.238" y1="93.498" x2="159.238" y2="161.722" stroke="black" stroke-width="2"/>
<line x1="135.789" y1="93.498" x2="135.789" y2="161.722" stroke="black" stroke-width="2"/>
<line x1="194.551" y1="92.4326" x2="194.551" y2="84.9706" stroke="black" stroke-width="2"/>
<rect x="160.375" y="93.498" width="6.39602" height="68.2242" fill="#FFDA00"/>
<rect x="160.375" y="93.498" width="6.39602" height="68.2242" fill="#FFDA00"/>
<rect x="58.0352" y="93.498" width="6.39602" height="68.2242" fill="#FFDA00"/>
<rect x="58.0352" y="93.498" width="6.39602" height="68.2242" fill="#FFDA00"/>
<rect x="66.5664" y="93.498" width="21.3201" height="68.2242" fill="white"/>
<rect x="66.5664" y="93.498" width="21.3201" height="68.2242" fill="white"/>
<rect x="66.5664" y="93.498" width="21.3201" height="68.2242" fill="white"/>
<rect x="90.0156" y="93.498" width="21.3201" height="68.2242" fill="white"/>
<rect x="90.0156" y="93.498" width="21.3201" height="68.2242" fill="white"/>
<rect x="90.0156" y="93.498" width="21.3201" height="68.2242" fill="white"/>
<rect x="113.469" y="93.498" width="21.3201" height="68.2242" fill="white"/>
<rect x="113.469" y="93.498" width="21.3201" height="68.2242" fill="white"/>
<rect x="113.469" y="93.498" width="21.3201" height="68.2242" fill="white"/>
<rect x="136.922" y="93.498" width="21.3201" height="68.2242" fill="white"/>
<rect x="136.922" y="93.498" width="21.3201" height="68.2242" fill="white"/>
<rect x="136.922" y="93.498" width="21.3201" height="68.2242" fill="white"/>
<rect x="49.5078" y="163.854" width="125.788" height="6.39602" fill="white"/>
<rect x="49.5078" y="163.854" width="125.788" height="6.39602" fill="white"/>
<rect x="49.5078" y="163.854" width="125.788" height="6.39602" fill="white"/>
<rect x="40.9805" y="172.382" width="142.844" height="6.39602" fill="white"/>
<rect x="40.9805" y="172.382" width="142.844" height="6.39602" fill="white"/>
<rect x="40.9805" y="172.382" width="142.844" height="6.39602" fill="white"/>
<path d="M112.687 37.1415C112.84 37.0538 113.029 37.0538 113.182 37.1415L193.923 83.2364C194.369 83.4907 194.188 84.1706 193.675 84.1706H32.1938C31.6809 84.1706 31.5005 83.4907 31.9459 83.2364L112.687 37.1415Z" fill="white"/>
<rect x="119.863" y="82.8379" width="46.9041" height="2.13201" fill="white"/>
<rect x="119.863" y="82.8379" width="46.9041" height="2.13201" fill="white"/>
<rect x="119.863" y="82.8379" width="46.9041" height="2.13201" fill="white"/>
<line x1="166.77" y1="83.9707" x2="195.552" y2="83.9707" stroke="black" stroke-width="2"/>
<line x1="112.907" y1="36.1366" x2="194.989" y2="84.1067" stroke="black" stroke-width="2"/>
<rect x="32.4492" y="84.9707" width="160.966" height="6.39602" fill="white"/>
<rect x="32.4492" y="84.9707" width="160.966" height="6.39602" fill="white"/>
<rect x="32.4492" y="84.9707" width="160.966" height="6.39602" fill="white"/>
<line x1="30.3203" y1="83.9707" x2="119.865" y2="83.9707" stroke="black" stroke-width="2"/>
<line x1="30.3203" y1="83.9707" x2="119.865" y2="83.9707" stroke="black" stroke-width="2"/>
<line x1="30.887" y1="84.1045" x2="114.035" y2="36.1344" stroke="black" stroke-width="2"/>
<circle cx="143.316" cy="61.5189" r="23.3861" fill="#36F1CD" stroke="black" stroke-width="2"/>
<path d="M156.102 62.5792C156.688 61.9934 156.688 61.0437 156.102 60.4579L146.556 50.912C145.97 50.3262 145.021 50.3262 144.435 50.912C143.849 51.4977 143.849 52.4475 144.435 53.0333L152.92 61.5186L144.435 70.0038C143.849 70.5896 143.849 71.5394 144.435 72.1252C145.021 72.7109 145.97 72.7109 146.556 72.1252L156.102 62.5792ZM130.523 63.0186H155.041V60.0186H130.523V63.0186Z" fill="black"/>
</svg>
