<svg width="1618" height="1010" viewBox="0 0 1618 1010" fill="none" xmlns="http://www.w3.org/2000/svg">
<path d="M425.706 258.639C482.684 169.387 567.822 101.707 667.625 66.327C767.428 30.9474 876.185 29.8929 976.655 63.3308" stroke="black" stroke-width="2" stroke-linecap="round"/>
<path d="M1223.86 253.338C1269.94 323.45 1296.65 404.505 1301.28 488.275C1305.9 572.046 1288.28 655.55 1250.21 730.31C1212.13 805.069 1154.95 868.423 1084.47 913.94C1013.99 959.457 932.724 985.515 848.919 989.471" stroke="black" stroke-width="2" stroke-linecap="round"/>
<path d="M498.293 858.565C450.82 813.279 413.232 758.66 387.893 698.142C362.555 637.623 350.014 572.516 351.06 506.916" stroke="black" stroke-width="2" stroke-linecap="round"/>
<path d="M458.272 438.956C471.292 373.767 501.385 313.202 545.475 263.451" stroke="black" stroke-width="2" stroke-linecap="round"/>
<path d="M781.363 139.723C860.504 130.14 940.641 145.993 1010.17 184.987C1079.7 223.98 1135.02 284.09 1168.11 356.615" stroke="black" stroke-width="2" stroke-linecap="round"/>
<path d="M1104.59 764.824C1071.45 801.343 1031.45 830.978 986.859 852.037C942.271 873.095 893.971 885.165 844.718 887.558C795.464 889.95 746.222 882.618 699.803 865.98C653.383 849.342 610.695 823.723 574.176 790.588" stroke="black" stroke-width="2" stroke-linecap="round"/>
<path d="M757.983 245.801C810.632 232.151 866.147 234.42 917.507 252.32C968.866 270.221 1013.76 302.949 1046.52 346.367C1079.28 389.785 1098.43 441.942 1101.55 496.242C1104.66 550.543 1091.61 604.548 1064.03 651.429" stroke="black" stroke-width="2" stroke-linecap="round"/>
<path d="M985.01 737.073C955.453 757.823 922.098 772.548 886.851 780.408C851.603 788.268 815.152 789.108 779.579 782.881" stroke="black" stroke-width="2" stroke-linecap="round"/>
<path d="M609.438 680.201C581.798 644.45 563.394 602.438 555.854 557.881C548.315 513.324 551.872 467.596 566.211 424.741" stroke="black" stroke-width="2" stroke-linecap="round"/>
<path d="M848.655 321.327C895.345 326.817 938.454 349.075 969.966 383.962" stroke="black" stroke-width="2" stroke-linecap="round"/>
<rect x="619.5" y="208.5" width="142" height="142" rx="23.5" fill="#AAFFEC" stroke="black" stroke-width="3" stroke-linecap="round"/>
<rect x="721.5" y="410.5" width="211" height="211" rx="23.5" fill="#D3E5FF" stroke="black" stroke-width="3" stroke-linecap="round"/>
<rect x="1033.5" y="484.5" width="133" height="133" rx="23.5" fill="white" stroke="black" stroke-width="3" stroke-linecap="round"/>
<rect x="281.5" y="544.5" width="163.025" height="161" rx="23.5" fill="#AAFFEC" stroke="black" stroke-width="3" stroke-linecap="round"/>
<circle cx="717.5" cy="762.5" r="74" fill="white" stroke="black" stroke-width="3" stroke-linecap="round"/>
<circle cx="1302.5" cy="454.5" r="77" fill="#AAFFEC" stroke="black" stroke-width="3" stroke-linecap="round"/>
<circle cx="1071.5" cy="226.5" r="63" fill="white" stroke="black" stroke-width="3" stroke-linecap="round"/>
<circle cx="504" cy="864" r="15.5" fill="white" stroke="black" stroke-width="3" stroke-linecap="round"/>
<circle cx="1265" cy="702" r="15.5" fill="#D3E5FF" stroke="black" stroke-width="3" stroke-linecap="round"/>
<circle cx="910" cy="251" r="15.5" fill="#AAFFEC"/>
<circle cx="910" cy="251" r="15.5" fill="#AAFFEC"/>
<circle cx="910" cy="251" r="15.5" fill="#AAFFEC"/>
<circle cx="910" cy="251" r="15.5" stroke="black" stroke-width="3" stroke-linecap="round"/>
<circle cx="952" cy="864" r="15.5" fill="#AAFFEC" stroke="black" stroke-width="3" stroke-linecap="round"/>
<circle cx="568" cy="416" r="15.5" fill="white" stroke="black" stroke-width="3" stroke-linecap="round"/>
<circle cx="240" cy="829" r="5.5" stroke="black" stroke-width="3" stroke-linecap="round"/>
<circle cx="179" cy="164" r="5.5" stroke="black" stroke-width="3" stroke-linecap="round"/>
<circle cx="1398" cy="134" r="6" stroke="black" stroke-width="2" stroke-linecap="round"/>
<circle cx="1250" cy="932" r="8.5" stroke="black" stroke-width="3" stroke-linecap="round"/>
<circle cx="832" cy="39" r="16.5" fill="#AAFFEC"/>
<circle cx="832" cy="39" r="16.5" fill="#AAFFEC"/>
<circle cx="832" cy="39" r="16.5" fill="#AAFFEC"/>
<circle cx="832" cy="39" r="16.5" stroke="black" stroke-width="3" stroke-linecap="round"/>
<circle cx="419" cy="264" r="16.5" fill="#AAFFEC"/>
<circle cx="419" cy="264" r="16.5" fill="#AAFFEC"/>
<circle cx="419" cy="264" r="16.5" fill="#AAFFEC"/>
<circle cx="419" cy="264" r="16.5" stroke="black" stroke-width="3" stroke-linecap="round"/>
<line x1="357" y1="91" x2="357" y2="117" stroke="black" stroke-width="2" stroke-linecap="round"/>
<line x1="344" y1="104" x2="370" y2="104" stroke="black" stroke-width="2" stroke-linecap="round"/>
<line x1="299" y1="33" x2="299" y2="43" stroke="black" stroke-width="2" stroke-linecap="round"/>
<line x1="294" y1="38" x2="304" y2="38" stroke="black" stroke-width="2" stroke-linecap="round"/>
<line x1="1224" y1="11" x2="1224" y2="21" stroke="black" stroke-width="2" stroke-linecap="round"/>
<line x1="1219" y1="16" x2="1229" y2="16" stroke="black" stroke-width="2" stroke-linecap="round"/>
<line x1="1426" y1="650" x2="1426" y2="660" stroke="black" stroke-width="2" stroke-linecap="round"/>
<line x1="1421" y1="655" x2="1431" y2="655" stroke="black" stroke-width="2" stroke-linecap="round"/>
<line x1="1325" y1="990" x2="1325" y2="1000" stroke="black" stroke-width="2" stroke-linecap="round"/>
<line x1="1320" y1="995" x2="1330" y2="995" stroke="black" stroke-width="2" stroke-linecap="round"/>
<line x1="1433" y1="50" x2="1433" y2="76" stroke="black" stroke-width="2" stroke-linecap="round"/>
<line x1="1420" y1="63" x2="1446" y2="63" stroke="black" stroke-width="2" stroke-linecap="round"/>
<line x1="198" y1="929" x2="198" y2="955" stroke="black" stroke-width="2" stroke-linecap="round"/>
<line x1="185" y1="942" x2="211" y2="942" stroke="black" stroke-width="2" stroke-linecap="round"/>
<path d="M1006.64 584.735C992.102 621.875 966.465 653.63 933.225 675.675" stroke="black" stroke-width="2" stroke-linecap="round"/>
<path d="M633.602 538.882C627.258 489.829 639.891 440.205 668.916 400.155" stroke="black" stroke-width="2" stroke-linecap="round"/>
</svg>
