<svg width="52" height="56" viewBox="0 0 52 56" fill="none" xmlns="http://www.w3.org/2000/svg">
<path d="M27.3943 28.1537V52.9035C27.3944 53.3335 27.2828 53.7561 27.0703 54.1298C26.8578 54.5036 26.5518 54.8158 26.1823 55.0356C25.8128 55.2554 25.3925 55.3754 24.9626 55.3838C24.5327 55.3922 24.1081 55.2887 23.7302 55.0835L3.3539 44.0359C2.33926 43.4867 1.49193 42.6734 0.901544 41.6822C0.311161 40.6909 -0.000322237 39.5585 4.52339e-05 38.4048V16.1285C-0.00272293 15.4954 0.121588 14.8681 0.365615 14.2839C0.54337 13.8663 0.764724 13.4571 0.987755 13.3448C1.48077 13.0983 27.3943 28.1537 27.3943 28.1537Z" fill="#377DFF"/>
<path d="M0.988281 13.3445L23.8532 0.901693C24.971 0.292321 26.2273 -0.0179966 27.5003 0.000806372C28.7734 0.0196093 30.0199 0.366895 31.1193 1.00902L49.8388 11.9627C50.22 12.1858 50.5347 12.5066 50.7504 12.892C50.9661 13.2775 51.0749 13.7135 51.0657 14.1551C51.0564 14.5966 50.9295 15.0277 50.6979 15.4038C50.4663 15.7798 50.1385 16.0872 49.7483 16.2942L27.3949 28.1534" fill="#111111"/>
</svg>
