<svg width="1275" height="991" viewBox="0 0 1275 991" fill="none" xmlns="http://www.w3.org/2000/svg">
<path d="M253.706 248.639C310.684 159.387 395.822 91.7066 495.625 56.327C595.428 20.9474 704.185 19.8929 804.655 53.3308" stroke="black" stroke-width="2" stroke-linecap="round"/>
<path d="M1051.86 243.338C1097.94 313.45 1124.65 394.505 1129.28 478.275C1133.9 562.046 1116.28 645.55 1078.21 720.31C1040.13 795.069 982.947 858.423 912.469 903.94C841.991 949.457 760.724 975.515 676.919 979.471" stroke="black" stroke-width="2" stroke-linecap="round"/>
<path d="M326.293 848.565C278.82 803.279 241.232 748.66 215.893 688.142C190.555 627.623 178.014 562.516 179.06 496.916" stroke="black" stroke-width="2" stroke-linecap="round"/>
<path d="M286.272 428.956C299.292 363.767 329.385 303.202 373.475 253.451" stroke="black" stroke-width="2" stroke-linecap="round"/>
<path d="M609.363 129.723C688.504 120.14 768.641 135.993 838.172 174.987C907.703 213.98 963.02 274.09 996.114 346.615" stroke="black" stroke-width="2" stroke-linecap="round"/>
<path d="M932.588 754.824C899.452 791.343 859.448 820.978 814.859 842.037C770.271 863.095 721.971 875.165 672.718 877.558C623.464 879.95 574.222 872.618 527.803 855.98C481.383 839.342 438.695 813.723 402.176 780.588" stroke="black" stroke-width="2" stroke-linecap="round"/>
<path d="M585.983 235.801C638.632 222.151 694.147 224.42 745.507 242.32C796.866 260.221 841.765 292.949 874.524 336.367C907.283 379.785 926.432 431.942 929.548 486.242C932.665 540.543 919.609 594.548 892.033 641.429" stroke="black" stroke-width="2" stroke-linecap="round"/>
<path d="M813.01 727.073C783.453 747.823 750.098 762.548 714.851 770.408C679.603 778.268 643.152 779.108 607.579 772.881" stroke="black" stroke-width="2" stroke-linecap="round"/>
<path d="M437.438 670.201C409.798 634.45 391.394 592.438 383.854 547.881C376.315 503.324 379.872 457.596 394.211 414.741" stroke="black" stroke-width="2" stroke-linecap="round"/>
<path d="M676.655 311.327C723.345 316.817 766.454 339.075 797.966 373.962" stroke="black" stroke-width="2" stroke-linecap="round"/>
<rect x="447.5" y="198.5" width="142" height="142" rx="23.5" fill="#AAFFEC" stroke="black" stroke-width="3" stroke-linecap="round"/>
<rect x="549.5" y="400.5" width="211" height="211" rx="23.5" fill="#3291FF" stroke="black" stroke-width="3" stroke-linecap="round"/>
<rect x="861.5" y="474.5" width="133" height="133" rx="23.5" fill="white" stroke="black" stroke-width="3" stroke-linecap="round"/>
<rect x="109.5" y="534.5" width="163.025" height="161" rx="23.5" fill="#AAFFEC" stroke="black" stroke-width="3" stroke-linecap="round"/>
<circle cx="545.5" cy="752.5" r="74" fill="white" stroke="black" stroke-width="3" stroke-linecap="round"/>
<circle cx="1130.5" cy="444.5" r="77" fill="#AAFFEC" stroke="black" stroke-width="3" stroke-linecap="round"/>
<circle cx="899.5" cy="216.5" r="63" fill="white" stroke="black" stroke-width="3" stroke-linecap="round"/>
<circle cx="332" cy="854" r="15.5" fill="white" stroke="black" stroke-width="3" stroke-linecap="round"/>
<circle cx="1093" cy="692" r="15.5" fill="#D3E5FF" stroke="black" stroke-width="3" stroke-linecap="round"/>
<circle cx="738" cy="241" r="15.5" fill="#AAFFEC"/>
<circle cx="738" cy="241" r="15.5" fill="#AAFFEC"/>
<circle cx="738" cy="241" r="15.5" fill="#AAFFEC"/>
<circle cx="738" cy="241" r="15.5" stroke="black" stroke-width="3" stroke-linecap="round"/>
<circle cx="780" cy="854" r="15.5" fill="#AAFFEC" stroke="black" stroke-width="3" stroke-linecap="round"/>
<circle cx="396" cy="406" r="15.5" fill="white" stroke="black" stroke-width="3" stroke-linecap="round"/>
<circle cx="68" cy="819" r="5.5" stroke="black" stroke-width="3" stroke-linecap="round"/>
<circle cx="7" cy="154" r="5.5" stroke="black" stroke-width="3" stroke-linecap="round"/>
<circle cx="1226" cy="124" r="6" stroke="black" stroke-width="2" stroke-linecap="round"/>
<circle cx="1078" cy="922" r="8.5" stroke="black" stroke-width="3" stroke-linecap="round"/>
<circle cx="660" cy="29" r="16.5" fill="#AAFFEC"/>
<circle cx="660" cy="29" r="16.5" fill="#AAFFEC"/>
<circle cx="660" cy="29" r="16.5" fill="#AAFFEC"/>
<circle cx="660" cy="29" r="16.5" stroke="black" stroke-width="3" stroke-linecap="round"/>
<circle cx="247" cy="254" r="16.5" fill="#AAFFEC"/>
<circle cx="247" cy="254" r="16.5" fill="#AAFFEC"/>
<circle cx="247" cy="254" r="16.5" fill="#AAFFEC"/>
<circle cx="247" cy="254" r="16.5" stroke="black" stroke-width="3" stroke-linecap="round"/>
<line x1="185" y1="81" x2="185" y2="107" stroke="black" stroke-width="2" stroke-linecap="round"/>
<line x1="172" y1="94" x2="198" y2="94" stroke="black" stroke-width="2" stroke-linecap="round"/>
<line x1="127" y1="23" x2="127" y2="33" stroke="black" stroke-width="2" stroke-linecap="round"/>
<line x1="122" y1="28" x2="132" y2="28" stroke="black" stroke-width="2" stroke-linecap="round"/>
<line x1="1052" y1="1" x2="1052" y2="11" stroke="black" stroke-width="2" stroke-linecap="round"/>
<line x1="1047" y1="6" x2="1057" y2="6" stroke="black" stroke-width="2" stroke-linecap="round"/>
<line x1="1254" y1="640" x2="1254" y2="650" stroke="black" stroke-width="2" stroke-linecap="round"/>
<line x1="1249" y1="645" x2="1259" y2="645" stroke="black" stroke-width="2" stroke-linecap="round"/>
<line x1="1153" y1="980" x2="1153" y2="990" stroke="black" stroke-width="2" stroke-linecap="round"/>
<line x1="1148" y1="985" x2="1158" y2="985" stroke="black" stroke-width="2" stroke-linecap="round"/>
<line x1="1261" y1="40" x2="1261" y2="66" stroke="black" stroke-width="2" stroke-linecap="round"/>
<line x1="1248" y1="53" x2="1274" y2="53" stroke="black" stroke-width="2" stroke-linecap="round"/>
<line x1="26" y1="919" x2="26" y2="945" stroke="black" stroke-width="2" stroke-linecap="round"/>
<line x1="13" y1="932" x2="39" y2="932" stroke="black" stroke-width="2" stroke-linecap="round"/>
<path d="M834.645 574.735C820.102 611.875 794.465 643.63 761.225 665.675" stroke="black" stroke-width="2" stroke-linecap="round"/>
<path d="M461.602 528.882C455.258 479.829 467.891 430.205 496.916 390.155" stroke="black" stroke-width="2" stroke-linecap="round"/>
</svg>
