<svg xmlns="http://www.w3.org/2000/svg" height="1200" width="1600" version="1.1" xmlns:xlink="http://www.w3.org/1999/xlink" xmlns:svgjs="http://svgjs.com/svgjs"><rect fill="#ffffff" width="1600" height="1200"></rect><g><path d="M975.8 1011.3V653.4C975.8 631.1 993.9 612.9 1016.3 612.9H1285.8C1308.1 612.9 1326.3 631 1326.3 653.4V1011.3C1326.3 1033.6 1308.2 1051.8 1285.8 1051.8H1016.3C993.9 1051.7 975.8 1033.6 975.8 1011.3Z" fill="#377dff" opacity="1" stroke-width="4" stroke="#00000000"></path></g><g><path d="M708.9 872.9H1002" stroke="#231f20" stroke-width="4" stroke-linecap="round" stroke-linejoin="round" opacity="1" fill="none"></path><path d="M977.3 909.8C997.96 909.8 1014.7 893.05 1014.7 872.4 1014.7 851.75 997.96 835 977.3 835 956.65 835 939.9 851.75 939.9 872.4 939.9 893.05 956.65 909.8 977.3 909.8Z" fill="#2c2c2c" opacity="1" stroke-width="4" stroke="#00000000"></path></g><g><path d="M792.1 872.9V951.1C792.1 966.8 804.8 979.5 820.5 979.5H975" stroke="#231f20" stroke-width="4" stroke-linecap="round" stroke-linejoin="round" opacity="1" fill="none"></path><path d="M792.6 884.5C799.28 884.5 804.7 879.08 804.7 872.4 804.7 865.72 799.28 860.3 792.6 860.3 785.92 860.3 780.5 865.72 780.5 872.4 780.5 879.08 785.92 884.5 792.6 884.5Z" fill="#377dff" opacity="1" stroke-width="4" stroke="#00000000"></path></g><g><path d="M452.4 632.2H666.1C688.4 632.2 706.6 650.3 706.6 672.7V886.4C706.6 908.7 688.5 926.9 666.1 926.9H452.4C430.1 926.9 411.9 908.8 411.9 886.4V672.6C411.9 650.3 430 632.2 452.4 632.2Z" fill="#377dff" opacity="1" stroke-width="4" stroke="#00000000"></path></g><g><path d="M1052.13 923.16H1249.79C1265.02 923.16 1277.36 935.5 1277.36 950.72 1277.36 965.95 1265.02 978.29 1249.79 978.29H1052.13C1036.9 978.29 1024.56 965.95 1024.56 950.72 1024.49 935.5 1036.83 923.16 1052.13 923.16Z" fill="#cecece" opacity="1" stroke-width="4" stroke="#00000000"></path><path d="M1138.9 923.16H1209.68L1186.56 946.71H1115.78L1138.9 923.16Z" fill="#cecece00" opacity="0" stroke="#00000000" stroke-width="4"></path><path d="M1186.56 823.48H1115.78V946.71H1186.56V823.48Z" fill="#ffffff" opacity="1" stroke-width="4" stroke="#00000000"></path><path d="M1155.26 846.11L1224.34 870.22C1235.48 874.1 1245.63 862.46 1240.28 851.96L1162.59 700.4C1159.28 693.98 1151.45 691.44 1145.04 694.76 1142.57 696.03 1140.6 698 1139.4 700.4L1061.64 851.96C1056.28 862.46 1066.44 874.1 1077.57 870.22L1146.66 846.11C1149.41 845.12 1152.44 845.12 1155.26 846.11Z" fill="#ffffff" opacity="1" stroke-width="4" stroke="#00000000"></path></g><g><path d="M619.9 766.3C618.1 766.3 616.3 766.4 614.6 766.7 607 736.1 576.1 717.5 545.5 725.1 525 730.2 509 746.2 503.9 766.7 484.5 763.8 466.3 777.1 463.4 796.5 460.5 815.9 473.8 834.1 493.2 837 495 837.3 496.7 837.4 498.5 837.4H619.9C639.6 837.4 655.5 821.4 655.5 801.8 655.4 782.3 639.5 766.4 619.9 766.3Z" fill="#ffffff" opacity="1" stroke-width="4" stroke="#00000000"></path></g><g><path d="M1293.7 685.2H1401.5C1423.8 685.2 1423.1 703.6 1423.1 726L1442 810.6V833.5C1442 855.8 1423.9 874 1401.5 874H1293.7C1271.4 874 1253.2 855.9 1253.2 833.5V810.6L1263.6 723.1C1263.7 700.8 1271.4 685.2 1293.7 685.2Z" fill="#2c2c2c" opacity="1" stroke-width="4" stroke="#00000000"></path><path d="M1293.7 662.3H1401.5C1423.8 662.3 1442 680.4 1442 702.8V810.6C1442 832.9 1423.9 851.1 1401.5 851.1H1293.7C1271.4 851.1 1253.2 833 1253.2 810.6V702.7C1253.3 680.4 1271.4 662.3 1293.7 662.3Z" fill="#36f1cd" opacity="1" stroke-width="4" stroke="#00000000"></path></g><g><path d="M1286.31 747.33C1308.45 747.33 1300.49 802.94 1319.55 802.94 1334.01 802.94 1328.87 762.43 1347.92 762.43 1384.26 762.43 1371.84 716.77 1409.54 716.77" stroke="#cecece" stroke-width="4" stroke-linecap="round" opacity="1" fill="none"></path><path d="M1286.08 754.88C1290.25 754.88 1293.63 751.5 1293.63 747.33 1293.63 743.16 1290.25 739.78 1286.08 739.78 1281.91 739.78 1278.53 743.16 1278.53 747.33 1278.53 751.5 1281.91 754.88 1286.08 754.88Z" fill="#ffffff" opacity="1" stroke-width="4" stroke="#00000000"></path><path d="M1347.88 769.93C1352.05 769.93 1355.43 766.55 1355.43 762.38 1355.43 758.21 1352.05 754.83 1347.88 754.83 1343.71 754.83 1340.33 758.21 1340.33 762.38 1340.33 766.55 1343.71 769.93 1347.88 769.93Z" fill="#ffffff" opacity="1" stroke-width="4" stroke="#00000000"></path><path d="M1409.49 724.27C1413.66 724.27 1417.04 720.9 1417.04 716.73 1417.04 712.56 1413.66 709.18 1409.49 709.18 1405.32 709.18 1401.95 712.56 1401.95 716.73 1401.95 720.9 1405.32 724.27 1409.49 724.27Z" fill="#ffffff" opacity="1" stroke-width="4" stroke="#00000000"></path></g><g><path d="M706.68 226.48L764.98 226.48C771.08 226.48 775.99 231.39 775.99 237.49L775.99 410.33C775.99 416.43 771.08 421.34 764.98 421.34L673.23 421.34" stroke="#231f20" stroke-width="4" stroke-linecap="round" stroke-linejoin="round" opacity="1" fill="none"></path><path d="M698.53 226.26C698.53 235.32 705.87 242.66 714.92 242.66 723.98 242.66 731.32 235.32 731.32 226.26 731.32 217.21 723.98 209.87 714.92 209.87 705.87 209.87 698.53 217.21 698.53 226.26Z" fill="#2c2c2c" opacity="1" stroke-width="4" stroke="#00000000"></path><path d="M770.46 373.07C770.46 376 772.84 378.38 775.77 378.38 778.7 378.38 781.07 376 781.07 373.07 781.07 370.14 778.7 367.77 775.77 367.77 772.84 367.77 770.46 370.14 770.46 373.07Z" fill="#2c2c2c" opacity="1" stroke-width="4" stroke="#00000000"></path></g><g><path d="M707 424.4H1005.6C1027.9 424.4 1016.1 443.7 1016.1 466.1L1046.1 739.2V763.5C1046.1 785.8 1028 804 1005.6 804H707C684.7 804 666.5 785.9 666.5 763.5V743.1L683.8 465.4C683.8 443 684.6 424.4 707 424.4Z" fill="#2c2c2c" opacity="1" stroke-width="4" stroke="#00000000"></path><path d="M707 400.1H1005.6C1027.9 400.1 1046.1 418.2 1046.1 440.6V739.2C1046.1 761.5 1028 779.7 1005.6 779.7H707C684.7 779.7 666.5 761.6 666.5 739.2V440.5C666.5 418.2 684.6 400.1 707 400.1Z" fill="#ffffff" opacity="1" stroke-width="4" stroke="#00000000"></path></g><g><path d="M206.7 357.5H564.6C586.9 357.5 539.6 378.7 539.6 401.1L605.1 643.2V667.5C605.1 689.8 587 708 564.6 708H206.7C184.4 708 166.2 689.9 166.2 667.5V647.6L199.7 401.1C199.7 378.8 184.4 357.5 206.7 357.5Z" fill="#2c2c2c" opacity="1" stroke-width="4" stroke="#00000000"></path><path d="M206.7 333.2H564.6C586.9 333.2 605.1 351.3 605.1 373.7V643.2C605.1 665.5 587 683.7 564.6 683.7H206.7C184.4 683.7 166.2 665.6 166.2 643.2V373.7C166.2 351.3 184.4 333.2 206.7 333.2Z" fill="#326eff" opacity="1" stroke-width="4" stroke="#00000000"></path></g><g><path d="M1139.6 218.7H1371.3C1393.6 218.7 1382.1 235.8 1382.1 258.2L1411.8 466.6V490.9C1411.8 513.2 1393.7 531.4 1371.3 531.4H1139.6C1117.3 531.4 1099.1 513.3 1099.1 490.9V466.6L1142.5 271.7C1142.5 249.3 1117.2 218.7 1139.6 218.7Z" fill="#2c2c2c" opacity="1" stroke-width="4" stroke="#00000000"></path><path d="M1139.1 194.4H1370.8C1393.1 194.4 1411.3 212.5 1411.3 234.9V466.6C1411.3 488.9 1393.2 507.1 1370.8 507.1H1139.1C1116.8 507.1 1098.6 489 1098.6 466.6V234.8C1098.7 212.5 1116.8 194.4 1139.1 194.4Z" fill="#326eff" opacity="1" stroke-width="4" stroke="#00000000"></path></g><g><path d="M494.03 424.3C427.19 424.3 449.21 505.3 384.72 505.3 350.91 505.3 363.49 564.28 334.39 564.28 300.58 564.28 314.73 478.56 275.41 478.56" stroke="#cecece" stroke-width="4" opacity="1" fill="none"></path><path d="M494.03 429.8V633.48" stroke="#cecece" stroke-width="4" opacity="1" fill="none"></path><path d="M384.57 508.44V633.48" stroke="#cecece" stroke-width="4" opacity="1" fill="none"></path><path d="M275.02 486.42V633.48" stroke="#cecece" stroke-width="4" opacity="1" fill="none"></path><path d="M266.76 632.7H501.9" stroke="#cecece" stroke-width="4" stroke-linecap="round" stroke-linejoin="round" opacity="1" fill="none"></path><path d="M275.02 491.93C282.41 491.93 288.39 485.94 288.39 478.56 288.39 471.18 282.41 465.19 275.02 465.19 267.64 465.19 261.65 471.18 261.65 478.56 261.65 485.94 267.64 491.93 275.02 491.93Z" fill="#ffffff" opacity="1" stroke-width="4" stroke="#00000000"></path><path d="M384.72 518.67C392.11 518.67 398.09 512.68 398.09 505.3 398.09 497.91 392.11 491.93 384.72 491.93 377.34 491.93 371.36 497.91 371.36 505.3 371.36 512.68 377.34 518.67 384.72 518.67Z" fill="#ffffff" opacity="1" stroke-width="4" stroke="#00000000"></path><path d="M494.03 437.67C501.42 437.67 507.4 431.68 507.4 424.3 507.4 416.91 501.42 410.93 494.03 410.93 486.65 410.93 480.67 416.91 480.67 424.3 480.67 431.68 486.65 437.67 494.03 437.67Z" fill="#ffffff" opacity="1" stroke-width="4" stroke="#00000000"></path></g><g><path d="M1317.58 379.41C1309.86 360.3 1290.85 348.2 1270.31 349.25 1269.35 349.29 1268.54 348.53 1268.5 347.58 1268.45 347.05 1268.69 346.53 1269.07 346.2 1284.56 332.62 1289.7 310.69 1281.93 291.59L1266.35 253.27 1176.62 289.68 1192.2 328.04C1199.97 347.1 1218.94 359.21 1239.48 358.21 1240.43 358.16 1241.24 358.92 1241.33 359.87 1241.38 360.4 1241.14 360.92 1240.76 361.26 1225.27 374.84 1220.13 396.76 1227.85 415.82L1243.43 454.18 1333.16 417.77 1317.58 379.41Z" fill="#ffffff" opacity="1" stroke-width="4" stroke="#00000000"></path><path d="M1311.62 399.62L1316.44 411.43 1250.96 438.03 1239.57 410.05C1238.24 406.72 1237.38 403.19 1237.09 399.62L1311.62 399.62Z" fill="#6198ff" stroke-linecap="round" stroke-linejoin="round" opacity="1" stroke-width="4" stroke="#00000000"></path><path d="M1270.31 399.62L1296.56 406.57 1301.09 417.68 1316.44 411.43 1311.62 399.62H1270.31Z" fill="#6198ff00" opacity="0" stroke="#00000000" stroke-width="4"></path><path d="M1250.72 343.48C1232.61 350.82 1212.03 342.1 1204.69 324.04L1198.44 305.67H1272.45C1274.74 321.7 1265.78 337.33 1250.72 343.48Z" fill="#6198ff" stroke-linecap="round" stroke-linejoin="round" opacity="1" stroke-width="4" stroke="#00000000"></path><path d="M1272.45 305.69H1256.68C1258.97 321.7 1250.01 337.33 1234.95 343.48 1233.18 344.2 1231.37 344.77 1229.56 345.2 1236.38 346.77 1243.72 346.34 1250.72 343.48 1265.78 337.33 1274.74 321.7 1272.45 305.69Z" fill="#6198ff00" opacity="0" stroke="#00000000" stroke-width="4"></path><path d="M1235.04 457.58L1341.31 414.45" stroke="#4c4dff00" stroke-width="4" stroke-linecap="round" stroke-linejoin="round" opacity="1" fill="none"></path><path d="M1168.61 292.82L1274.83 249.7" stroke="#4c4dff00" stroke-width="4" stroke-linecap="round" stroke-linejoin="round" opacity="1" fill="none"></path><path d="M1234.79 321.2C1257.52 321.2 1270.45 312.39 1270.31 305.69H1200.18C1202.72 316.67 1213.58 321.2 1234.79 321.2Z" fill="#ffffff" stroke-linecap="round" opacity="1" stroke-width="4" stroke="#00000000"></path><path d="M1274.74 415.25C1296.37 415.25 1311.62 399.62 1310.77 399.64H1239.02C1237.14 399.9 1252.63 415.25 1274.74 415.25Z" fill="#ffffff" stroke-linecap="round" stroke-linejoin="round" opacity="1" stroke-width="4" stroke="#00000000"></path></g><g><path d="M315.25 295.32V194.08C315.25 183.5 323.78 174.98 334.36 174.98H634.5C645.08 174.98 653.6 183.5 653.6 194.08V353.4" stroke="#231f20" stroke-width="4" stroke-linecap="round" stroke-linejoin="round" opacity="1" fill="none"></path><path d="M314.87 309.48C330.6 309.48 343.34 296.74 343.34 281.01 343.34 265.29 330.6 252.54 314.87 252.54 299.15 252.54 286.4 265.29 286.4 281.01 286.4 296.74 299.15 309.48 314.87 309.48Z" fill="#2c2c2c" opacity="1" stroke-width="4" stroke="#00000000"></path><path d="M569.8 184.57C574.88 184.57 579.01 180.44 579.01 175.36 579.01 170.27 574.88 166.15 569.8 166.15 564.71 166.15 560.59 170.27 560.59 175.36 560.59 180.44 564.71 184.57 569.8 184.57Z" fill="#2c2c2c" opacity="1" stroke-width="4" stroke="#00000000"></path></g><g><path d="M851.15 592.87V719.58C851.15 719.72 851.15 719.72 851.01 719.72 780.95 719.58 724.3 662.94 724.3 592.87 724.3 522.8 781.08 466.02 851.15 466.02V592.87Z" fill="#6198ff" opacity="1" stroke-width="4" stroke="#00000000"></path><path d="M851.28 592.87L971.69 553.81C971.82 553.81 971.82 553.81 971.82 553.94 993.3 620.52 956.92 691.93 890.48 713.68 877.86 717.84 864.71 719.99 851.42 719.85 851.28 719.85 851.28 719.85 851.28 719.72V592.87C851.15 592.87 851.15 592.87 851.28 592.87Z" fill="#377dff" opacity="1" stroke-width="4" stroke="#00000000"></path><path d="M851.82 592.33L953.7 518.37H953.84C961.76 529.11 967.66 540.92 971.69 553.4 971.69 553.54 971.69 553.54 971.56 553.54L851.82 592.33C851.69 592.47 851.82 592.6 851.82 592.33Z" fill="#cecece" opacity="1" stroke-width="4" stroke="#00000000"></path><path d="M851.15 592.6V466.15C851.15 466.02 851.15 466.02 851.28 466.02 893.16 466.02 929 484.27 953.7 518.24V518.37L851.15 592.6C851.15 592.73 851.28 592.73 851.15 592.6Z" fill="#36f1cd" opacity="1" stroke-width="4" stroke="#00000000"></path><path d="M851.28 664.01C890.57 664.01 922.43 632.16 922.43 592.87 922.43 553.58 890.57 521.73 851.28 521.73 811.99 521.73 780.14 553.58 780.14 592.87 780.14 632.16 811.99 664.01 851.28 664.01Z" fill="#ffffff" opacity="1" stroke-width="4" stroke="#00000000"></path><path d="M851.15 592.87C843.1 592.87 836.65 586.29 836.65 578.24 836.65 570.18 843.23 563.74 851.28 563.74 859.34 563.74 865.78 570.32 865.78 578.24" stroke="#000000" stroke-width="4" stroke-linecap="round" stroke-linejoin="round" opacity="1" fill="none"></path><path d="M851.15 592.87C859.2 592.87 865.78 599.31 865.78 607.37 865.78 615.42 859.34 622 851.28 622 843.23 622 836.65 615.55 836.65 607.5" stroke="#000000" stroke-width="4" stroke-linecap="round" stroke-linejoin="round" opacity="1" fill="none"></path><path d="M851.15 563.74V556.22" stroke="#000000" stroke-width="4" stroke-linecap="round" stroke-linejoin="round" opacity="1" fill="none"></path><path d="M851.01 629.51V622" stroke="#000000" stroke-width="4" stroke-linecap="round" stroke-linejoin="round" opacity="1" fill="none"></path></g><g><path d="M453.3 137.9H625.8C648.1 137.9 622 162.9 622 185.3L666 325.4C666 347.7 657.5 391.3 635.1 391.3H436.4C414.1 391.3 412.8 353.1 412.8 330.7L438.7 183.1C438.7 161 430.9 137.9 453.3 137.9Z" fill="#2c2c2c" opacity="1" stroke-width="4" stroke="#00000000"></path><path d="M453.3 113.6H625.8C648.1 113.6 666.3 131.7 666.3 154.1V326.6C666.3 348.9 648.2 367.1 625.8 367.1H453.3C431 367.1 412.8 349 412.8 326.6V154.1C412.8 131.7 430.9 113.6 453.3 113.6Z" fill="#36f1cd" opacity="1" stroke-width="4" stroke="#00000000"></path></g><g><path d="M601.87 233.3L477.35 187.27C477.19 187.27 477.03 187.27 477.19 187.43L519.75 313.21C519.75 313.37 519.91 313.37 520.06 313.21L535.98 276.8C535.98 276.64 536.14 276.64 536.3 276.8L565.14 306.12H565.3L593.83 278.38V278.22L565.14 248.74C565.14 248.59 565.14 248.59 565.14 248.43L601.71 233.61C601.87 233.61 601.87 233.3 601.87 233.3Z" fill="#ffffff" opacity="1" stroke-width="4" stroke="#00000000"></path></g><g><path d="M334.8 835.4H507.3C529.6 835.4 533.2 848.7 533.2 871.1L547.8 1024.2V1048.4C547.8 1070.7 529.7 1088.9 507.3 1088.9H334.8C312.5 1088.9 294.3 1070.8 294.3 1048.4V1024.2L319.1 876.6C319.1 854.2 312.4 835.4 334.8 835.4Z" fill="#2c2c2c" opacity="1" stroke-width="4" stroke="#00000000"></path><path d="M334.8 811.2H507.3C529.6 811.2 547.8 829.3 547.8 851.7V1024.2C547.8 1046.5 529.7 1064.7 507.3 1064.7H334.8C312.5 1064.7 294.3 1046.6 294.3 1024.2V851.6C294.3 829.3 312.4 811.2 334.8 811.2Z" fill="#36f1cd" opacity="1" stroke-width="4" stroke="#00000000"></path></g><g><path d="M378.21 1006.91H463.44C469.53 1006.91 474.5 1001.95 474.5 995.85V883.39C474.5 877.29 469.53 872.33 463.44 872.33H414.89C414.16 872.33 413.51 872.73 413.26 873.38L399.19 906.89 368.62 918.27C367.72 918.6 367.15 919.49 367.15 920.47V995.93C367.15 1002.03 372.11 1006.91 378.21 1006.91Z" fill="#ffffff" opacity="1" stroke-width="4" stroke="#00000000"></path><path d="M368.05 918.6C367.89 918.76 368.05 919.17 368.37 919.17L402.85 918.92C408.95 918.92 413.91 913.96 413.91 907.86L413.59 872.9 368.05 918.6Z" fill="#6198ff" opacity="1" stroke-width="4" stroke="#00000000"></path></g></svg>