<svg width="249" height="58" viewBox="0 0 249 58" fill="none" xmlns="http://www.w3.org/2000/svg">
<path d="M9.965 5.33691V34.5114L26.141 16.8909H38.626L21.518 34.0457L39.533 56.4741H26.935L14.916 40.7164L9.965 45.6501V56.4741H0V5.33691H9.965Z" fill="#21325B"/>
<path d="M67.7519 28.0045C66.1549 27.0837 64.3429 26.5977 62.4989 26.5949C61.4409 26.561 60.3879 26.7421 59.4029 27.1272C58.4169 27.5123 57.5199 28.0934 56.7669 28.8352C55.1439 30.4511 53.7919 32.3165 52.7609 34.3605V56.4743H42.7959V16.8659H52.7609V24.3168C54.0159 22.0969 55.6489 20.1123 57.5859 18.4517C59.3289 16.928 61.5679 16.0913 63.8849 16.0981C65.1999 16.0755 66.5059 16.3151 67.7269 16.8029L67.7519 28.0045Z" fill="#21325B"/>
<path d="M89.585 15.8464C93.112 15.7443 96.599 16.6152 99.663 18.3636C102.433 20.0067 104.669 22.4151 106.101 25.2985C107.639 28.4867 108.403 31.9925 108.33 35.531V39.7725H79.531C79.994 42.3307 81.396 44.6242 83.462 46.204C85.68 47.8795 88.405 48.7457 91.185 48.6583C93.898 48.6919 96.584 48.1019 99.033 46.934C101.055 45.9926 102.954 44.8092 104.69 43.4099L104.601 52.6607C102.901 54.0326 101.013 55.1557 98.995 55.996C96.413 57.1365 93.617 57.7115 90.794 57.6825C87.036 57.7129 83.334 56.7721 80.048 54.9513C76.886 53.2344 74.231 50.7169 72.351 47.6514C70.411 44.4657 69.419 40.7944 69.491 37.0665C69.445 33.3772 70.333 29.7361 72.073 26.4816C73.754 23.3379 76.213 20.6772 79.216 18.7538C82.312 16.789 85.918 15.7779 89.585 15.8464ZM89.345 24.556C87.062 24.4846 84.84 25.3013 83.147 26.834C81.399 28.4735 80.194 30.6079 79.695 32.9509H98.743C98.723 31.7346 98.431 30.5382 97.888 29.4493C97.346 28.3605 96.566 27.4067 95.606 26.6578C93.808 25.2873 91.607 24.5485 89.345 24.556Z" fill="#21325B"/>
<path d="M152.713 5.33691V56.4741H142.735V49.8161C141.518 52.0313 139.791 53.9252 137.696 55.3414C135.439 56.9047 132.745 57.7153 129.999 57.6572C126.892 57.6738 123.84 56.8332 121.18 55.2281C118.405 53.5235 116.162 51.0779 114.705 48.1673C112.987 44.6842 112.148 40.8343 112.261 36.9531C112.161 33.0283 113.026 29.1389 114.78 25.6256C116.295 22.6726 118.591 20.1912 121.42 18.4516C124.229 16.7646 127.452 15.893 130.73 15.9344C132.999 15.9876 135.233 16.5015 137.297 17.4449C139.361 18.3883 141.212 19.7414 142.735 21.4219V5.33691H152.713ZM132.758 25.6508C130.843 25.6023 128.962 26.1668 127.391 27.2618C125.913 28.338 124.726 29.7655 123.939 31.4152C123.093 33.1377 122.661 35.0342 122.679 36.9531C122.63 39.7161 123.593 42.4019 125.388 44.5048C126.271 45.5338 127.376 46.3501 128.619 46.8927C129.863 47.4354 131.213 47.6904 132.569 47.6387C134.348 47.6542 136.096 47.1654 137.608 46.229C139.191 45.2583 140.494 43.8918 141.387 42.2644C142.402 40.3752 142.901 38.2528 142.836 36.1098V30.5216C141.527 29.0737 139.975 27.8642 138.251 26.9472C136.558 26.0594 134.669 25.6135 132.758 25.6508Z" fill="#21325B"/>
<path d="M173.072 16.8659V56.4743H163.107V25.3363H156.808V16.8659H173.072ZM167.264 0.000471269C168.169 -0.0102287 169.068 0.161374 169.906 0.505274C170.743 0.849074 171.503 1.35797 172.139 2.00167C172.784 2.60887 173.298 3.34127 173.649 4.15397C174 4.96667 174.181 5.84257 174.181 6.72777C174.181 7.61297 174 8.48887 173.649 9.30157C173.298 10.1143 172.784 10.8467 172.139 11.4539C171.508 12.1073 170.75 12.6252 169.912 12.9758C169.074 13.3264 168.173 13.5023 167.264 13.4928C165.921 13.5163 164.602 13.137 163.477 12.404C162.353 11.6709 161.474 10.6177 160.954 9.38047C160.435 8.14327 160.299 6.77887 160.563 5.46347C160.828 4.14817 161.481 2.94227 162.439 2.00167C163.061 1.36017 163.808 0.851975 164.633 0.507975C165.458 0.163875 166.345 -0.00872873 167.239 0.000471269H167.264Z" fill="#21325B"/>
<path d="M194.173 5.33731V16.8661H205.171V25.1855H194.173V42.2774C194.095 43.7819 194.54 45.267 195.433 46.4811C195.877 47.0032 196.438 47.4133 197.071 47.6779C197.703 47.9425 198.39 48.0543 199.074 48.0041C200.308 48.0307 201.539 47.8737 202.727 47.5384C203.742 47.2286 204.708 46.7796 205.599 46.2042V54.1209C204.502 55.1805 203.221 56.0333 201.82 56.6381C200.041 57.3719 198.125 57.7194 196.201 57.6576C194.597 57.7184 192.998 57.4468 191.504 56.8598C190.01 56.2728 188.654 55.3831 187.521 54.2468C186.374 52.9838 185.489 51.5057 184.918 49.8982C184.347 48.2907 184.101 46.5858 184.195 44.8827V25.1855H177.052V20.0881C179.773 19.0493 182.171 17.3129 184.006 15.0537C186.33 12.1865 188.045 8.87611 189.046 5.32471L194.173 5.33731Z" fill="#21325B"/>
<path d="M227.52 15.7205C231.243 15.6799 234.908 16.6453 238.128 18.5146C241.294 20.3508 243.952 22.9462 245.863 26.0663C247.784 29.2725 248.799 32.9394 248.799 36.6764C248.799 40.4133 247.784 44.0803 245.863 47.2864C243.945 50.401 241.288 52.9948 238.128 54.8381C234.899 56.6613 231.254 57.6194 227.545 57.6194C223.837 57.6194 220.191 56.6613 216.963 54.8381C213.791 53.0088 211.131 50.4119 209.228 47.2864C207.331 44.0717 206.33 40.4081 206.33 36.6764C206.33 32.9446 207.331 29.281 209.228 26.0663C211.124 22.935 213.786 20.3364 216.963 18.5146C220.168 16.6564 223.814 15.6915 227.52 15.7205ZM227.52 25.3741C225.683 25.3602 223.874 25.8197 222.267 26.7082C220.646 27.5845 219.299 28.8911 218.374 30.484C217.356 32.3585 216.856 34.4696 216.925 36.6008C216.857 38.7582 217.375 40.8936 218.424 42.7806C219.339 44.3809 220.689 45.69 222.317 46.5564C223.94 47.4055 225.745 47.849 227.577 47.849C229.409 47.849 231.213 47.4055 232.836 46.5564C234.467 45.6844 235.823 44.3773 236.754 42.7806C237.803 40.9165 238.322 38.8012 238.254 36.6638C238.319 34.5267 237.8 32.4122 236.754 30.5469C235.813 28.9583 234.459 27.6536 232.836 26.7711C231.216 25.8523 229.384 25.3708 227.52 25.3741Z" fill="#21325B"/>
</svg>
