<svg width="368" height="124" viewBox="0 0 368 124" fill="none" xmlns="http://www.w3.org/2000/svg">
<g clip-path="url(#clip0_3_348)">
<path d="M129.167 38.501V67.6849L145.343 50.0587H157.828L140.72 67.219L158.735 89.6546H146.137L134.118 73.8918L129.167 78.8271V89.6546H119.202V38.501H129.167Z" fill="#063256"/>
<path d="M186.954 61.1754C185.357 60.2543 183.545 59.7681 181.701 59.7653C180.643 59.7314 179.59 59.9125 178.605 60.2977C177.619 60.683 176.723 61.2643 175.969 62.0063C174.346 63.6227 172.994 65.4888 171.963 67.5334V89.6542H161.998V50.0331H171.963V57.4865C173.218 55.2659 174.851 53.2806 176.788 51.6195C178.531 50.0953 180.77 49.2583 183.087 49.2651C184.402 49.2425 185.708 49.4822 186.929 49.9702L186.954 61.1754Z" fill="#063256"/>
<path d="M208.787 49.0129C212.314 48.9108 215.801 49.782 218.865 51.531C221.635 53.1746 223.871 55.5837 225.303 58.4681C226.841 61.6573 227.605 65.1642 227.532 68.7039V72.9467H198.733C199.196 75.5057 200.598 77.8 202.664 79.3803C204.882 81.0563 207.607 81.9227 210.387 81.8354C213.1 81.8689 215.786 81.2788 218.235 80.1105C220.256 79.1688 222.156 77.985 223.892 76.5853L223.803 85.839C222.103 87.2114 220.215 88.3348 218.197 89.1754C215.615 90.3162 212.819 90.8915 209.996 90.8625C206.238 90.8929 202.536 89.9517 199.25 88.1304C196.088 86.4129 193.433 83.8946 191.553 80.8281C189.613 77.6414 188.621 73.969 188.693 70.2399C188.647 66.5493 189.535 62.907 191.275 59.6516C192.956 56.5069 195.415 53.8453 198.418 51.9213C201.514 49.9558 205.12 48.9444 208.787 49.0129ZM208.547 57.7253C206.264 57.6539 204.042 58.4708 202.349 60.0041C200.601 61.6441 199.396 63.7792 198.897 66.1229H217.945C217.925 64.9062 217.633 63.7095 217.09 62.6202C216.548 61.531 215.768 60.5769 214.808 59.8278C213.01 58.4569 210.809 57.7178 208.547 57.7253Z" fill="#063256"/>
<path d="M271.915 38.501V89.6546H261.937V82.9944C260.72 85.2103 258.993 87.1049 256.898 88.5215C254.641 90.0854 251.947 90.8962 249.201 90.8381C246.094 90.8546 243.042 90.0138 240.382 88.4082C237.607 86.7031 235.364 84.2567 233.907 81.3451C232.189 77.8609 231.35 74.0098 231.463 70.1273C231.363 66.2013 232.228 62.3106 233.983 58.7962C235.497 55.8422 237.793 53.36 240.622 51.6199C243.431 49.9324 246.654 49.0604 249.932 49.1018C252.201 49.1551 254.435 49.6692 256.499 50.6129C258.563 51.5566 260.414 52.9101 261.937 54.5911V38.501H271.915ZM251.96 58.8214C250.045 58.7729 248.164 59.3376 246.593 60.4329C245.115 61.5094 243.928 62.9374 243.141 64.5877C242.295 66.3107 241.863 68.2078 241.882 70.1273C241.832 72.8912 242.795 75.5779 244.59 77.6814C245.473 78.7107 246.578 79.5273 247.822 80.0701C249.065 80.613 250.415 80.8681 251.771 80.8163C253.55 80.8319 255.298 80.3429 256.81 79.4062C258.394 78.4352 259.696 77.0682 260.59 75.4404C261.604 73.5505 262.103 71.4274 262.038 69.2838V63.6938C260.729 62.2454 259.177 61.0355 257.453 60.1182C255.76 59.2302 253.871 58.7841 251.96 58.8214Z" fill="#063256"/>
<path d="M292.273 50.0333V89.6544H282.308V58.5065H276.009V50.0333H292.273ZM286.466 33.1626C287.371 33.1518 288.27 33.3235 289.107 33.6675C289.945 34.0114 290.705 34.5205 291.341 35.1644C291.986 35.7718 292.5 36.5044 292.851 37.3174C293.202 38.1304 293.383 39.0065 293.383 39.892C293.383 40.7775 293.202 41.6536 292.851 42.4666C292.5 43.2796 291.986 44.0122 291.341 44.6196C290.71 45.2733 289.952 45.7913 289.114 46.142C288.276 46.4927 287.375 46.6687 286.466 46.6592C285.123 46.6827 283.804 46.3033 282.679 45.57C281.555 44.8367 280.676 43.7832 280.156 42.5456C279.637 41.308 279.501 39.9431 279.765 38.6273C280.03 37.3116 280.683 36.1053 281.641 35.1644C282.263 34.5227 283.009 34.0143 283.835 33.6702C284.66 33.326 285.546 33.1533 286.441 33.1626H286.466Z" fill="#063256"/>
<path d="M313.375 38.5009V50.0334H324.373V58.3555H313.375V75.4528C313.297 76.9578 313.742 78.4433 314.635 79.6579C315.079 80.1802 315.64 80.5904 316.273 80.8551C316.905 81.1198 317.592 81.2316 318.276 81.1813C319.51 81.208 320.741 81.051 321.929 80.7155C322.944 80.4056 323.91 79.9565 324.801 79.3809V87.3001C323.704 88.3601 322.423 89.2131 321.022 89.8181C319.243 90.5522 317.327 90.8998 315.403 90.8379C313.799 90.8988 312.2 90.6271 310.706 90.0399C309.212 89.4527 307.856 88.5627 306.723 87.426C305.576 86.1627 304.691 84.6841 304.12 83.076C303.549 81.468 303.303 79.7626 303.397 78.059V58.3555H296.254V53.2565C298.975 52.2173 301.373 50.4804 303.208 48.2204C305.532 45.3523 307.247 42.0408 308.248 38.4883L313.375 38.5009Z" fill="#063256"/>
<path d="M346.722 48.887C350.445 48.8464 354.11 49.8121 357.33 51.682C360.496 53.5187 363.154 56.1149 365.065 59.236C366.986 62.4432 368.001 66.1114 368.001 69.8495C368.001 73.5877 366.986 77.2558 365.065 80.463C363.147 83.5785 360.49 86.1732 357.33 88.017C354.101 89.8408 350.456 90.7992 346.747 90.7992C343.039 90.7992 339.393 89.8408 336.165 88.017C332.993 86.1872 330.333 83.5895 328.43 80.463C326.533 77.2472 325.532 73.5824 325.532 69.8495C325.532 66.1166 326.533 62.4518 328.43 59.236C330.326 56.1037 332.988 53.5044 336.165 51.682C339.37 49.8231 343.016 48.8579 346.722 48.887ZM346.722 58.5436C344.885 58.5297 343.076 58.9893 341.469 59.8781C339.848 60.7547 338.5 62.0618 337.576 63.6552C336.558 65.5302 336.058 67.642 336.127 69.774C336.059 71.932 336.577 74.0681 337.626 75.9557C338.541 77.5566 339.891 78.866 341.519 79.7327C343.142 80.5821 344.947 81.0257 346.779 81.0257C348.611 81.0257 350.415 80.5821 352.038 79.7327C353.669 78.8605 355.025 77.5529 355.956 75.9557C357.005 74.091 357.524 71.975 357.455 69.8369C357.521 67.6992 357.002 65.584 355.956 63.7181C355.015 62.129 353.661 60.8238 352.038 59.9411C350.418 59.0219 348.585 58.5403 346.722 58.5436Z" fill="#063256"/>
<path d="M65.2324 58.4561V76.0822C54.7257 79.6075 21.2654 90.9134 9.13354 96.0627C7.04228 97.0196 1.2598 99.4621 5.92106 104.851C4.23893 104.212 2.79263 103.074 1.77632 101.59C0.757934 100.108 0.213248 98.3517 0.214166 96.5538L0 34.2201C0 25.0923 4.61087 23.7577 7.24385 22.8135C1.07083 28.5042 12.0689 33.1374 12.0689 33.1374L59.3365 50.1088C61.0576 50.7258 62.5481 51.8551 63.6073 53.3445C64.6672 54.8382 65.2352 56.6249 65.2324 58.4561Z" fill="#063256"/>
<path d="M65.2324 76.1445V116.106C65.2324 124.667 58.2531 125.07 52.4328 122.866L5.92104 104.85C1.25978 99.4614 7.04226 97.0189 9.13353 96.125C21.278 90.9757 54.7257 79.6698 65.2324 76.1445Z" fill="#09BCCF"/>
<path d="M76.7218 6.74831V64.2096C76.7218 67.0424 74.6683 73.3878 68.4323 75.1L65.2198 76.1702V58.4433C65.231 56.6132 64.6717 54.825 63.6197 53.3269C62.5677 51.8288 61.0751 50.6952 59.3491 50.0835L12.0689 33.1372C12.0689 33.1372 1.07081 28.504 7.25642 22.8133L67.5126 0.440662C68.5307 0.0311905 69.6343 -0.120192 70.7251 7.9684e-06C72.3798 0.191845 73.9058 0.98592 75.0119 2.23065C76.118 3.47539 76.7267 5.0836 76.7218 6.74831Z" fill="#F74662"/>
</g>
<defs>
<clipPath id="clip0_3_348">
<rect width="368" height="124" fill="white"/>
</clipPath>
</defs>
</svg>
