<svg width="581" height="631" viewBox="0 0 581 631" fill="none" xmlns="http://www.w3.org/2000/svg">
<g clip-path="url(#clip0_645_375)">
<path d="M311.681 320.27V601.88C311.678 606.769 310.405 611.574 307.988 615.825C305.57 620.075 302.091 623.625 297.889 626.127C293.688 628.628 288.909 629.996 284.021 630.097C279.132 630.197 274.301 629.027 270.001 626.7L38.1006 501C26.575 494.752 16.9509 485.507 10.2447 474.242C3.53846 462.977 -0.000865897 450.11 0.000558131 437V183.46C-0.0322986 176.251 1.38585 169.109 4.17056 162.46C6.17056 157.71 8.71056 153.04 11.2306 151.78C16.8506 149 311.681 320.27 311.681 320.27Z" fill="#377DFF"/>
<path d="M11.2305 151.8L271.38 10.2296C284.106 3.30535 298.403 -0.215148 312.889 0.00910453C327.374 0.233357 341.556 4.19476 354.06 11.5096L567 136.08C571.338 138.614 574.92 142.261 577.376 146.644C579.832 151.026 581.074 155.985 580.972 161.008C580.87 166.031 579.428 170.936 576.796 175.215C574.164 179.494 570.437 182.993 566 185.35L311.68 320.27" fill="#111111"/>
</g>
<defs>
<clipPath id="clip0_645_375">
<rect width="581" height="630.15" fill="white"/>
</clipPath>
</defs>
</svg>
