<svg width="149" height="31" viewBox="0 0 149 31" fill="none" xmlns="http://www.w3.org/2000/svg">
<path d="M0 0H3.57401C3.77318 0 3.9642 0.0791309 4.10504 0.219971C4.24588 0.360811 4.32501 0.551799 4.32501 0.750977V20.074H14.063V23.695H0V0Z" fill="#21325B"/>
<path d="M21.7601 2.35592C21.7742 2.83875 21.6439 3.31486 21.3859 3.72322C21.1279 4.13159 20.754 4.45367 20.3119 4.64827C19.8697 4.84287 19.3796 4.90113 18.9042 4.81557C18.4288 4.73002 17.9898 4.50457 17.6433 4.16805C17.2967 3.83153 17.0585 3.39923 16.9591 2.92653C16.8596 2.45384 16.9035 1.96222 17.0851 1.51461C17.2667 1.067 17.5777 0.683733 17.9783 0.413899C18.379 0.144064 18.851 -3.41062e-05 19.3341 -4.1818e-05C19.6509 -0.0158966 19.9676 0.0336573 20.2645 0.145527C20.5614 0.257397 20.832 0.429149 21.0596 0.650166C21.2872 0.871183 21.4668 1.13673 21.5873 1.43019C21.7078 1.72366 21.7666 2.03874 21.7601 2.35592ZM17.1551 23.695V6.57497H21.4801V22.945C21.4801 23.1441 21.4009 23.3351 21.2601 23.476C21.1193 23.6168 20.9282 23.6959 20.7291 23.6959L17.1551 23.695Z" fill="#21325B"/>
<path d="M25.519 0H29.843V8.92999H29.913C30.5102 8.03617 31.3298 7.31323 32.2912 6.83228C33.2526 6.35132 34.3226 6.12895 35.396 6.18701C39.58 6.18701 42.5671 9.66797 42.5331 14.871C42.5331 21.023 38.633 24.081 34.763 24.081C33.676 24.137 32.5948 23.8907 31.6393 23.3694C30.6837 22.8481 29.8914 22.0723 29.3501 21.128H29.28L29.1261 23.006C29.1105 23.1937 29.025 23.3687 28.8864 23.4963C28.7479 23.624 28.5664 23.6949 28.3781 23.695H25.3781C25.4471 22.535 25.5181 20.637 25.5181 18.878L25.519 0ZM29.843 16.628C29.8413 16.9704 29.8765 17.3121 29.948 17.647C30.1556 18.5075 30.6461 19.2734 31.341 19.8218C32.0359 20.3701 32.8948 20.6692 33.78 20.671C36.487 20.671 38.138 18.527 38.138 15.047C38.138 12.023 36.697 9.56201 33.814 9.56201C32.913 9.5836 32.0453 9.90734 31.3503 10.4813C30.6554 11.0553 30.1735 11.8462 29.982 12.727C29.8946 13.0955 29.8477 13.4724 29.842 13.851L29.843 16.628Z" fill="#21325B"/>
<path d="M49.142 16.347C49.247 19.44 51.642 20.776 54.415 20.776C55.7566 20.793 57.0936 20.6152 58.384 20.248C58.4834 20.2187 58.5877 20.2101 58.6904 20.2229C58.7932 20.2357 58.8922 20.2695 58.9814 20.3222C59.0705 20.3749 59.1478 20.4454 59.2085 20.5294C59.2692 20.6133 59.3119 20.7088 59.334 20.81L59.793 22.956C57.8933 23.7129 55.8617 24.0834 53.817 24.046C48.262 24.046 44.993 20.636 44.993 15.398C44.993 10.652 47.876 6.18701 53.359 6.18701C58.914 6.18701 60.742 10.757 60.742 14.518C60.742 14.954 60.722 15.339 60.692 15.662C60.6753 15.8491 60.5891 16.0231 60.4505 16.1499C60.3119 16.2767 60.1309 16.347 59.943 16.347H49.142ZM56.663 13.321C56.699 11.739 55.995 9.13696 53.113 9.13696C50.442 9.13696 49.313 11.562 49.141 13.321H56.663Z" fill="#21325B"/>
<path d="M64.2221 12.0929C64.2221 9.7729 64.1861 8.08492 64.0811 6.57392H67.0961C67.2882 6.57365 67.4732 6.64719 67.6127 6.7793C67.7523 6.91142 67.8358 7.09204 67.8461 7.28394L67.983 9.80793H68.0891C68.4003 8.78944 69.0213 7.89334 69.8657 7.24433C70.7101 6.59532 71.7358 6.22573 72.8001 6.18696C73.1426 6.18385 73.4844 6.21905 73.819 6.29194V9.49195C73.8196 9.59345 73.7994 9.69399 73.7598 9.78742C73.7201 9.88085 73.6618 9.96517 73.5884 10.0353C73.515 10.1054 73.4281 10.1598 73.3329 10.1952C73.2378 10.2306 73.1364 10.2461 73.035 10.2409C72.877 10.2319 72.7061 10.2279 72.5191 10.2279C71.5856 10.2041 70.6759 10.524 69.9628 11.1269C69.2497 11.7297 68.7829 12.5735 68.651 13.4979C68.5788 13.9274 68.5437 14.3624 68.5461 14.7979V23.6919H64.2221V12.0929Z" fill="#21325B"/>
<path d="M89.0051 23.1668C87.4621 23.7776 85.8132 24.076 84.1541 24.0448C78.8111 24.0448 75.3301 20.5998 75.3301 15.2918C75.3301 10.1588 78.8461 6.1868 84.8571 6.1868C86.2876 6.18321 87.7064 6.44566 89.0411 6.96079L88.4691 9.37778C88.4461 9.47814 88.4026 9.57265 88.3412 9.65537C88.2799 9.73809 88.2022 9.80718 88.1128 9.85837C88.0235 9.90957 87.9245 9.94172 87.8222 9.9528C87.7198 9.96387 87.6163 9.95366 87.5181 9.92277C86.7025 9.66825 85.8513 9.54641 84.9971 9.5618C81.6971 9.5618 79.7241 11.9878 79.7601 15.1158C79.7601 18.6318 82.0441 20.6358 84.9971 20.6358C85.8819 20.6427 86.7627 20.5149 87.6091 20.2568C87.7101 20.2253 87.8167 20.2156 87.9218 20.2283C88.0269 20.241 88.1281 20.2758 88.2188 20.3304C88.3094 20.385 88.3875 20.4581 88.4479 20.5451C88.5083 20.632 88.5496 20.7307 88.5691 20.8348L89.0051 23.1668Z" fill="#21325B"/>
<path d="M108.163 14.9759C108.163 21.2679 103.733 24.0759 99.374 24.0759C94.558 24.0759 90.797 20.7759 90.797 15.2519C90.797 9.62789 94.488 6.18188 99.656 6.18188C104.754 6.18688 108.163 9.77289 108.163 14.9759ZM95.263 15.1519C95.263 18.4519 96.915 20.9518 99.517 20.9518C101.978 20.9518 103.701 18.5608 103.701 15.0798C103.701 12.4088 102.501 9.31488 99.553 9.31488C96.492 9.31588 95.261 12.3039 95.261 15.1519H95.263Z" fill="#21325B"/>
<path d="M127.988 14.9759C127.988 21.2679 123.558 24.0759 119.199 24.0759C114.382 24.0759 110.621 20.7759 110.621 15.2519C110.621 9.62789 114.312 6.18188 119.48 6.18188C124.581 6.18688 127.988 9.77289 127.988 14.9759ZM115.088 15.1519C115.088 18.4519 116.74 20.9518 119.342 20.9518C121.802 20.9518 123.526 18.5608 123.526 15.0798C123.526 12.4088 122.326 9.31488 119.377 9.31488C116.319 9.31588 115.088 12.3039 115.088 15.1519Z" fill="#21325B"/>
<path d="M131.535 12.2688C131.535 10.0188 131.465 8.19183 131.394 6.57383H134.494C134.683 6.57398 134.864 6.64513 135.003 6.77317C135.142 6.90121 135.227 7.07672 135.242 7.26481L135.398 9.21085H135.467C136.099 8.24055 136.973 7.45146 138.002 6.92124C139.031 6.39102 140.181 6.13794 141.338 6.18687C145.275 6.18687 148.544 9.56182 148.544 14.9048C148.544 21.0918 144.644 24.0798 140.744 24.0798C139.815 24.1274 138.888 23.9437 138.048 23.5451C137.207 23.1465 136.478 22.5454 135.927 21.7958H135.857V30.6538H131.535V12.2688ZM135.859 16.5229C135.857 16.9236 135.893 17.3235 135.964 17.7178C136.172 18.5783 136.662 19.3442 137.357 19.8926C138.052 20.441 138.911 20.7401 139.796 20.7419C142.538 20.7419 144.155 18.4568 144.155 15.0818C144.155 12.0588 142.678 9.59885 139.901 9.59885C138.987 9.62121 138.107 9.94821 137.401 10.528C136.694 11.1078 136.201 11.9071 136.001 12.7989C135.919 13.1569 135.872 13.5218 135.86 13.8888L135.859 16.5229Z" fill="#21325B"/>
</svg>
