<svg width="270" height="71" viewBox="0 0 270 71" fill="none" xmlns="http://www.w3.org/2000/svg">
<path d="M0 2.2085H9.8V59.4085H47V69.2085H0V2.2085Z" fill="#21325B"/>
<path d="M117 53.4085C113.8 58.7085 109.2 63.0085 103.8 66.0085C92.4999 72.2085 78.8999 72.2085 67.5999 65.9085C62.1999 62.8085 57.6999 58.3085 54.5999 52.9085C51.3999 47.4085 49.7999 41.1085 49.7999 34.7085C49.6999 28.5085 51.4999 22.4085 54.7999 17.2085C58.0999 12.0085 62.6999 7.7085 68.0999 4.8085C73.5999 1.8085 79.6999 0.208496 85.8999 0.208496C92.1999 0.208496 98.3999 1.8085 103.9 4.9085C109.3 8.0085 113.9 12.4085 117 17.8085C120.2 23.2085 121.9 29.5085 121.9 35.8085C122 42.0085 120.3 48.1085 117 53.4085ZM108.7 22.3085C106.3 18.5085 103 15.4085 98.9999 13.3085C90.6999 9.0085 80.6999 9.0085 72.3999 13.4085C68.3999 15.5085 65.0999 18.7085 62.8999 22.6085C60.5999 26.6085 59.3999 31.2085 59.3999 35.8085C59.3999 40.3085 60.5999 44.8085 63.0999 48.6085C65.4999 52.4085 68.8999 55.5085 72.8999 57.6085C76.8999 59.8085 81.3999 61.0085 85.9999 60.9085C90.5999 60.9085 95.0999 59.8085 99.1999 57.5085C103.2 55.3085 106.5 52.1085 108.8 48.2085C111.2 44.3085 112.4 39.8085 112.3 35.2085C112.3 30.6085 111.1 26.2085 108.7 22.3085Z" fill="#21325B"/>
<path d="M177.7 12.2084C169.9 9.00845 161 9.40844 153.5 13.4084C149.5 15.5084 146.2 18.7084 144 22.6084C141.7 26.6084 140.5 31.2084 140.5 35.8084C140.5 40.3084 141.7 44.8084 144.2 48.6084C146.6 52.4084 150 55.5084 154 57.6084C158 59.8084 162.5 60.9084 167.1 60.9084C170.3 60.9084 173.5 60.3084 176.6 59.2084C179.6 58.1084 182.3 56.5084 184.7 54.4084V42.2084H176.1L171.9 32.5084H194.4V58.5084C191 62.3084 186.8 65.4084 182.1 67.4084C177.3 69.5084 172.2 70.7084 166.9 70.6084C160.5 70.7084 154.2 69.0084 148.7 65.8084C143.3 62.7084 138.8 58.2084 135.7 52.8084C132.5 47.2084 130.9 40.9084 130.9 34.5084C130.8 28.3084 132.6 22.2084 135.9 17.0084C139.2 11.8084 143.8 7.50845 149.2 4.60845C163.5 -3.29155 181.3 -0.891555 192.8 10.7084L186.5 18.1084C184.1 15.6084 181.1 13.6084 177.7 12.2084Z" fill="#21325B"/>
<path d="M269.9 69.2084L237.7 1.1084H226.9L230.6 9.4084L201.6 69.2084H212.1L235.5 21.3084L259.1 69.2084H269.9Z" fill="#21325B"/>
</svg>
