<?xml version="1.0" encoding="utf-8"?>
<!-- Generator: Adobe Illustrator 22.0.1, SVG Export Plug-In . SVG Version: 6.00 Build 0)  -->
<svg version="1.1" id="Capa_1" xmlns="http://www.w3.org/2000/svg" xmlns:xlink="http://www.w3.org/1999/xlink" x="0px" y="0px"
	 viewBox="0 0 310.5 97.8" style="enable-background:new 0 0 310.5 97.8;" xml:space="preserve">
<style type="text/css">
	.st0{fill:#FFFFFF;}
</style>
<title>logo</title>
<g>
	<polygon class="st0" points="20.3,15.7 30.1,15.7 30.1,72.9 67.3,72.9 67.3,82.7 20.3,82.7 	"/>
	<path class="st0" d="M137.3,66.9c-3.2,5.3-7.8,9.6-13.2,12.6c-11.3,6.2-24.9,6.2-36.2-0.1c-5.4-3.1-9.9-7.6-13-13
		c-3.2-5.5-4.8-11.8-4.8-18.2c-0.1-6.2,1.7-12.3,5-17.5c3.3-5.2,7.9-9.5,13.3-12.4c5.5-3,11.6-4.6,17.8-4.6c6.3,0,12.5,1.6,18,4.7
		c5.4,3.1,10,7.5,13.1,12.9c3.2,5.4,4.9,11.7,4.9,18C142.3,55.5,140.6,61.6,137.3,66.9 M129,35.8c-2.4-3.8-5.7-6.9-9.7-9
		c-8.3-4.3-18.3-4.3-26.6,0.1c-4,2.1-7.3,5.3-9.5,9.2c-2.3,4-3.5,8.6-3.5,13.2c0,4.5,1.2,9,3.7,12.8c2.4,3.8,5.8,6.9,9.8,9
		c4,2.2,8.5,3.4,13.1,3.3c4.6,0,9.1-1.1,13.2-3.4c4-2.2,7.3-5.4,9.6-9.3c2.4-3.9,3.6-8.4,3.5-13C132.6,44.1,131.4,39.7,129,35.8"/>
	<path class="st0" d="M198,25.7c-7.8-3.2-16.7-2.8-24.2,1.2c-4,2.1-7.3,5.3-9.5,9.2c-2.3,4-3.5,8.6-3.5,13.2c0,4.5,1.2,9,3.7,12.8
		c2.4,3.8,5.8,6.9,9.8,9c4,2.2,8.5,3.3,13.1,3.3c3.2,0,6.4-0.6,9.5-1.7c3-1.1,5.7-2.7,8.1-4.8V55.7h-8.6l-4.2-9.7h22.5v26
		c-3.4,3.8-7.6,6.9-12.3,8.9c-4.8,2.1-9.9,3.3-15.2,3.2c-6.4,0.1-12.7-1.6-18.2-4.8c-5.4-3.1-9.9-7.6-13-13
		c-3.2-5.6-4.8-11.9-4.8-18.3c-0.1-6.2,1.7-12.3,5-17.5c3.3-5.2,7.9-9.5,13.3-12.4c14.3-7.9,32.1-5.5,43.6,6.1l-6.3,7.4
		C204.4,29.1,201.4,27.1,198,25.7"/>
	<polygon class="st0" points="290.2,82.7 258,14.6 247.2,14.6 250.9,22.9 221.9,82.7 232.4,82.7 255.8,34.8 279.4,82.7 	"/>
</g>
</svg>
