<svg width="91" height="41" viewBox="0 0 91 41" fill="none" xmlns="http://www.w3.org/2000/svg">
<path d="M90.4281 14.249C88.7922 14.2511 87.2235 14.9018 86.0669 16.0586C84.9098 17.2154 84.2591 18.7839 84.2573 20.4198V40.2408H84.8286C86.4645 40.239 88.0333 39.5883 89.1904 38.4315C90.3469 37.2746 90.9976 35.7061 91 34.07V14.249H90.4281Z" fill="#21325B"/>
<path d="M51.5131 13.9566C48.8764 13.951 46.2974 14.7282 44.1029 16.1899C41.9085 17.6515 40.1973 19.7317 39.1863 22.1668C38.1753 24.602 37.9099 27.2824 38.4239 29.8685C38.9378 32.4546 40.208 34.8299 42.0732 36.6934C44.589 39.1542 47.9685 40.5317 51.4877 40.5309C55.0068 40.53 58.3857 39.1508 60.9002 36.6887C62.7607 34.8281 64.0278 32.458 64.5423 29.8777C65.0568 27.2974 64.7955 24.6225 63.7915 22.1906C62.787 19.7587 61.085 17.6788 58.8994 16.2133C56.7145 14.7479 54.1442 13.9626 51.5131 13.9566ZM58.116 27.2437C58.1487 28.1502 57.9939 29.0537 57.6614 29.8977C57.3289 30.7417 56.8258 31.508 56.1836 32.1486C55.573 32.7614 54.844 33.2434 54.041 33.5651C53.2379 33.8868 52.3778 34.0414 51.5131 34.0196C50.6398 34.0392 49.7716 33.8837 48.9594 33.5623C48.1472 33.2411 47.4075 32.7603 46.7841 32.1486C46.1606 31.4973 45.6737 30.7279 45.3519 29.8857C45.0301 29.0434 44.8799 28.1454 44.9101 27.2442C44.8772 26.3519 45.0261 25.4623 45.3477 24.6293C45.6694 23.7964 46.1571 23.0375 46.7812 22.3989C47.3939 21.7689 48.1303 21.2722 48.9441 20.9402C49.7579 20.6082 50.6315 20.4479 51.5101 20.4694C52.3792 20.4413 53.2442 20.5982 54.0479 20.9298C54.8516 21.2615 55.5757 21.7603 56.1719 22.3931L56.1888 22.41C56.8336 23.0337 57.3387 23.7869 57.6708 24.6202C58.0028 25.4533 58.1544 26.3476 58.1154 27.2437H58.116Z" fill="#21325B"/>
<path d="M29.0544 16.7334C27.1524 18.5529 26.1895 21.2852 26.1895 24.853V40.2397H26.7607C28.3812 40.2378 29.9349 39.5932 31.0807 38.4474C32.2266 37.3015 32.8712 35.7478 32.873 34.1273V24.853C32.873 22.0593 34.0261 20.7601 36.4981 20.7601H38.1171V14.249H36.204C33.1823 14.249 30.7758 15.0845 29.0544 16.7334Z" fill="#21325B"/>
<path d="M74.6093 10.5624C74.6093 7.80854 75.7068 6.52807 78.0549 6.52807L79.5623 6.54678V0L78.0619 0.0163802C71.4877 0.0163802 67.8667 3.78236 67.8667 10.6203V40.2401H68.4379C70.0739 40.2383 71.6426 39.5876 72.7991 38.4307C73.9562 37.2738 74.607 35.7053 74.6088 34.0693V20.7583H80.0019V14.2489H74.6093V10.5624Z" fill="#21325B"/>
<path d="M18.8147 2.18439C16.7961 1.13802 14.5457 0.618899 12.2726 0.675293H0V40.1782C1.74024 40.1782 3.40924 39.4869 4.63984 38.2564C5.87041 37.0259 6.56186 35.357 6.56198 33.6168V25.3504H12.2744C14.5446 25.4067 16.7931 24.8962 18.8165 23.8653C20.6409 22.9024 22.131 21.4097 23.0906 19.5836C24.0768 17.5377 24.589 15.2957 24.589 13.0245C24.589 10.7533 24.0768 8.5114 23.0906 6.46551C22.1208 4.64649 20.6325 3.15648 18.8147 2.18439ZM16.4046 17.3934C15.3779 18.415 13.8792 18.926 11.9084 18.9264H6.56198V7.0999H11.909C13.8802 7.0999 15.3789 7.61092 16.4052 8.63295C17.4316 9.65499 17.9447 11.1231 17.9447 13.0374C17.9455 14.9201 17.4324 16.3721 16.4052 17.3934H16.4046Z" fill="#21325B"/>
</svg>
