<svg width="156" height="70" viewBox="0 0 156 70" fill="none" xmlns="http://www.w3.org/2000/svg">
<path d="M154.66 24.3701C151.862 24.3736 149.179 25.4866 147.201 27.4651C145.222 29.4436 144.109 32.1261 144.106 34.9241V68.8241H145.083C147.881 68.8209 150.564 67.708 152.543 65.7295C154.521 63.7509 155.634 61.0683 155.638 58.2701V24.3701H154.66Z" fill="#21325B"/>
<path d="M88.1031 23.8699C83.5936 23.8604 79.1827 25.1897 75.4295 27.6895C71.6763 30.1894 68.7498 33.7472 67.0207 37.912C65.2915 42.0768 64.8376 46.6612 65.7166 51.0842C66.5956 55.5072 68.768 59.5697 71.9582 62.7569C76.2609 66.9656 82.041 69.3216 88.0598 69.3201C94.0786 69.3186 99.8574 66.9597 104.158 62.7489C107.34 59.5666 109.507 55.513 110.387 51.0999C111.267 46.6868 110.82 42.1119 109.103 37.9526C107.385 33.7933 104.474 30.236 100.736 27.7296C96.9992 25.2233 92.6031 23.8802 88.1031 23.8699ZM99.3962 46.5949C99.4522 48.1454 99.1874 49.6907 98.6187 51.1342C98.05 52.5777 97.1896 53.8883 96.0912 54.9839C95.0469 56.032 93.8 56.8563 92.4266 57.4065C91.0532 57.9567 89.5821 58.2212 88.1031 58.1839C86.6096 58.2174 85.1246 57.9514 83.7355 57.4018C82.3464 56.8523 81.0815 56.0301 80.0152 54.9839C78.9489 53.87 78.116 52.5541 77.5656 51.1136C77.0152 49.6731 76.7583 48.1371 76.8101 46.5959C76.7537 45.0698 77.0085 43.5482 77.5586 42.1236C78.1087 40.699 78.9428 39.4011 80.0102 38.3089C81.0582 37.2313 82.3176 36.3819 83.7094 35.814C85.1012 35.2462 86.5954 34.9721 88.0982 35.0089C89.5845 34.9607 91.064 35.2291 92.4386 35.7963C93.8132 36.3635 95.0514 37.2166 96.0711 38.2989L96.1001 38.3279C97.2028 39.3945 98.0667 40.6828 98.6347 42.1079C99.2026 43.5329 99.4618 45.0623 99.3951 46.5949H99.3962Z" fill="#21325B"/>
<path d="M49.692 28.6191C46.439 31.7311 44.792 36.4041 44.792 42.5061V68.8221H45.769C48.5406 68.8189 51.1978 67.7165 53.1576 65.7567C55.1174 63.7969 56.2198 61.1397 56.223 58.3681V42.5061C56.223 37.7281 58.195 35.5061 62.423 35.5061H65.192V24.3701H61.92C56.752 24.3701 52.636 25.7991 49.692 28.6191Z" fill="#21325B"/>
<path d="M127.605 18.065C127.605 13.355 129.482 11.165 133.498 11.165L136.076 11.197V0L133.51 0.0280151C122.266 0.0280151 116.073 6.469 116.073 18.164V68.823H117.05C119.848 68.8198 122.531 67.7069 124.509 65.7283C126.488 63.7497 127.601 61.0671 127.604 58.269V35.503H136.828V24.37H127.605V18.065Z" fill="#21325B"/>
<path d="M32.179 3.73607C28.7265 1.94645 24.8776 1.0586 20.99 1.15505H0V68.7171C2.97635 68.7171 5.83085 67.5348 7.93555 65.4303C10.0402 63.3258 11.2228 60.4714 11.223 57.4951V43.3571H20.993C24.8758 43.4533 28.7213 42.5803 32.182 40.8171C35.3023 39.1703 37.8508 36.6173 39.492 33.4941C41.1788 29.995 42.0547 26.1605 42.0547 22.276C42.0547 18.3916 41.1788 14.5572 39.492 11.0581C37.8333 7.94702 35.288 5.39864 32.179 3.73607ZM28.057 29.7481C26.301 31.4954 23.7377 32.3694 20.367 32.3701H11.223V12.1431H20.368C23.7394 12.1431 26.3027 13.0171 28.058 14.7651C29.8134 16.5131 30.691 19.0241 30.691 22.2981C30.6924 25.5181 29.8147 28.0014 28.058 29.7481H28.057Z" fill="#21325B"/>
</svg>
