<svg width="512" height="512" viewBox="0 0 512 512" fill="none" xmlns="http://www.w3.org/2000/svg">
<path d="M0 256C0 188.105 26.9714 122.99 74.9807 74.9807C122.99 26.9714 188.105 0 256 0C323.895 0 389.01 26.9714 437.019 74.9807C485.029 122.99 512 188.105 512 256C512 323.895 485.029 389.01 437.019 437.019C389.01 485.029 323.895 512 256 512C188.105 512 122.99 485.029 74.9807 437.019C26.9714 389.01 0 323.895 0 256ZM288 96C288 87.5131 284.629 79.3737 278.627 73.3726C272.626 67.3714 264.487 64 256 64C247.513 64 239.374 67.3714 233.373 73.3726C227.371 79.3737 224 87.5131 224 96C224 104.487 227.371 112.626 233.373 118.627C239.374 124.629 247.513 128 256 128C264.487 128 272.626 124.629 278.627 118.627C284.629 112.626 288 104.487 288 96ZM256 416C291.3 416 320 387.3 320 352C320 334.6 313.1 318.9 301.9 307.4L366 161.7C371.3 149.6 365.8 135.4 353.7 130.1C341.6 124.8 327.4 130.3 322.1 142.4L257.9 288C257.3 288 256.6 288 256 288C220.7 288 192 316.7 192 352C192 387.3 220.7 416 256 416ZM176 144C176 135.513 172.629 127.374 166.627 121.373C160.626 115.371 152.487 112 144 112C135.513 112 127.374 115.371 121.373 121.373C115.371 127.374 112 135.513 112 144C112 152.487 115.371 160.626 121.373 166.627C127.374 172.629 135.513 176 144 176C152.487 176 160.626 172.629 166.627 166.627C172.629 160.626 176 152.487 176 144ZM96 288C104.487 288 112.626 284.629 118.627 278.627C124.629 272.626 128 264.487 128 256C128 247.513 124.629 239.374 118.627 233.373C112.626 227.371 104.487 224 96 224C87.5131 224 79.3737 227.371 73.3726 233.373C67.3714 239.374 64 247.513 64 256C64 264.487 67.3714 272.626 73.3726 278.627C79.3737 284.629 87.5131 288 96 288ZM448 256C448 247.513 444.629 239.374 438.627 233.373C432.626 227.371 424.487 224 416 224C407.513 224 399.374 227.371 393.373 233.373C387.371 239.374 384 247.513 384 256C384 264.487 387.371 272.626 393.373 278.627C399.374 284.629 407.513 288 416 288C424.487 288 432.626 284.629 438.627 278.627C444.629 272.626 448 264.487 448 256Z" fill="#00C9A7"/>
</svg>
