<?xml version="1.0" encoding="UTF-8"?><svg xmlns="http://www.w3.org/2000/svg" xmlns:xlink="http://www.w3.org/1999/xlink" width="375" zoomAndPan="magnify" viewBox="0 0 375 209.999996" height="209.999996" preserveAspectRatio="xMidYMid meet" version="1.0"><defs><clipPath id="clip-0"><path d="M 222 93.890625 L 314.25 93.890625 L 314.25 195 L 222 195 Z M 222 93.890625 " clip-rule="nonzero"/></clipPath><clipPath id="clip-1"><path d="M 271 93.890625 L 303 93.890625 L 303 119 L 271 119 Z M 271 93.890625 " clip-rule="nonzero"/></clipPath><clipPath id="clip-2"><path d="M 187.546875 184.085938 L 235.976562 184.085938 L 235.976562 210 L 187.546875 210 Z M 187.546875 184.085938 " clip-rule="nonzero"/></clipPath><clipPath id="clip-3"><path d="M 187.5 183.75 L 236.3125 183.75 L 236.3125 210 L 187.5 210 Z M 187.5 183.75 " clip-rule="nonzero"/></clipPath><clipPath id="clip-4"><path d="M 284.074219 194 L 308.792969 194 L 308.792969 210 L 284.074219 210 Z M 284.074219 194 " clip-rule="nonzero"/></clipPath><clipPath id="clip-5"><path d="M 283.742188 193.476562 L 309.128906 193.476562 L 309.128906 210 L 283.742188 210 Z M 283.742188 193.476562 " clip-rule="nonzero"/></clipPath></defs><rect x="-37.5" width="450" fill="rgb(100%, 100%, 100%)" y="-21" height="251.999995" fill-opacity="1"/><rect x="-37.5" width="450" fill="rgb(100%, 87.059021%, 34.899902%)" y="-21" height="251.999995" fill-opacity="1"/><path fill="rgb(90.979004%, 23.919678%, 46.269226%)" d="M 189.761719 123.949219 C 188.363281 123.300781 186.835938 123.316406 185.519531 123.878906 C 184.765625 124.203125 183.921875 124.242188 183.183594 123.859375 C 180.402344 122.421875 176.914062 120.207031 173.828125 118.027344 L 173.828125 118.011719 L 170.832031 125.449219 C 174.355469 126.378906 178.117188 127.546875 180.90625 128.691406 C 181.691406 129.015625 182.230469 129.691406 182.503906 130.496094 C 182.898438 131.679688 183.722656 132.710938 184.867188 133.371094 C 187.480469 134.878906 191.078125 133.75 192.355469 131.019531 C 193.597656 128.347656 192.425781 125.191406 189.761719 123.949219 " fill-opacity="1" fill-rule="nonzero"/><path fill="rgb(90.979004%, 23.919678%, 46.269226%)" d="M 167.953125 37.121094 C 164.824219 34.960938 160.207031 36.019531 158.320312 39.332031 C 157.441406 40.878906 157.246094 42.640625 157.664062 44.265625 C 157.878906 45.089844 157.730469 45.960938 157.214844 46.640625 C 155.0625 49.503906 151.914062 52.992188 148.792969 56.171875 L 156.804688 61.46875 C 158.671875 57.511719 160.796875 53.457031 162.691406 50.492188 C 163.171875 49.746094 163.976562 49.316406 164.855469 49.230469 C 166.714844 49.046875 168.476562 48.101562 169.636719 46.441406 C 171.734375 43.402344 170.996094 39.234375 167.953125 37.121094 " fill-opacity="1" fill-rule="nonzero"/><path fill="rgb(90.979004%, 23.919678%, 46.269226%)" d="M 76.710938 57.425781 C 76.035156 56.914062 75.695312 56.125 75.640625 55.289062 C 75.554688 54.042969 75.027344 52.828125 74.089844 51.898438 C 71.957031 49.757812 68.175781 49.933594 66.238281 52.257812 C 64.367188 54.523438 64.667969 57.882812 66.941406 59.75 C 68.117188 60.726562 69.589844 61.097656 70.992188 60.90625 C 71.832031 60.785156 72.6875 60.984375 73.320312 61.558594 C 76.023438 64.019531 79.363281 67.707031 82.003906 70.96875 L 87.847656 64.367188 C 84.089844 62.347656 79.683594 59.667969 76.710938 57.425781 " fill-opacity="1" fill-rule="nonzero"/><path fill="rgb(100%, 34.118652%, 52.938843%)" d="M 123.632812 48.214844 C 94.28125 48.214844 70.484375 72.011719 70.484375 101.363281 C 70.484375 130.71875 94.28125 154.511719 123.632812 154.511719 C 152.988281 154.511719 176.785156 130.71875 176.785156 101.363281 C 176.785156 72.011719 152.988281 48.214844 123.632812 48.214844 " fill-opacity="1" fill-rule="nonzero"/><path fill="rgb(90.979004%, 23.919678%, 46.269226%)" d="M 160.3125 159.980469 C 159.179688 157.644531 157.101562 156.113281 154.753906 155.597656 C 153.894531 155.410156 153.175781 154.839844 152.820312 154.035156 C 150.796875 149.46875 148.660156 142.949219 147.023438 136.980469 C 145.964844 133.121094 141.679688 131.171875 138.074219 132.90625 C 134.476562 134.648438 133.339844 139.21875 135.703125 142.445312 C 139.363281 147.449219 143.140625 153.191406 145.453125 157.617188 C 145.855469 158.382812 145.867188 159.28125 145.503906 160.058594 C 144.273438 162.660156 144.433594 165.875 146.386719 168.511719 C 148.289062 171.085938 151.660156 172.304688 154.769531 171.546875 C 160.0625 170.257812 162.542969 164.597656 160.3125 159.980469 " fill-opacity="1" fill-rule="nonzero"/><path fill="rgb(90.979004%, 23.919678%, 46.269226%)" d="M 121.710938 53.457031 C 119.820312 48.683594 117.996094 43.300781 117.035156 39.21875 C 116.832031 38.367188 117.066406 37.496094 117.621094 36.820312 C 119.03125 35.085938 119.585938 32.699219 118.789062 30.308594 C 118.121094 28.28125 116.449219 26.683594 114.425781 26.003906 C 108.753906 24.082031 104.167969 29.644531 105.589844 34.492188 C 106.113281 36.261719 107.289062 37.6875 108.800781 38.542969 C 109.554688 38.972656 110.089844 39.679688 110.230469 40.535156 C 110.886719 44.679688 111.234375 50.355469 111.300781 55.503906 C 111.34375 58.878906 114.425781 61.386719 117.738281 60.738281 C 121.046875 60.082031 122.953125 56.59375 121.710938 53.457031 " fill-opacity="1" fill-rule="nonzero"/><path fill="rgb(90.979004%, 23.919678%, 46.269226%)" d="M 187.609375 78.753906 C 186.179688 79.261719 185.058594 80.28125 184.394531 81.542969 C 184.007812 82.273438 183.378906 82.832031 182.574219 83.003906 C 179.09375 83.738281 174.351562 84.292969 170.039062 84.585938 C 167.191406 84.773438 165.230469 87.523438 165.9375 90.285156 C 166.640625 93.050781 169.679688 94.523438 172.265625 93.324219 C 176.160156 91.53125 180.558594 89.753906 183.957031 88.734375 C 184.785156 88.484375 185.648438 88.691406 186.371094 89.171875 C 187.976562 90.257812 190.097656 90.542969 192.117188 89.609375 C 193.550781 88.941406 194.640625 87.652344 195.132812 86.148438 C 196.789062 81.101562 191.734375 77.289062 187.609375 78.753906 " fill-opacity="1" fill-rule="nonzero"/><path fill="rgb(90.979004%, 23.919678%, 46.269226%)" d="M 74.765625 93.597656 C 69.90625 94.652344 64.480469 95.558594 60.425781 95.84375 C 59.5625 95.902344 58.757812 95.53125 58.167969 94.898438 C 56.625 93.234375 54.242188 92.375 51.710938 92.9375 C 49.15625 93.511719 47.125 95.628906 46.65625 98.207031 C 45.863281 102.59375 49.277344 106.324219 53.472656 106.191406 C 55.507812 106.125 57.269531 105.164062 58.441406 103.695312 C 58.992188 103 59.789062 102.554688 60.679688 102.5625 C 64.738281 102.589844 70.195312 103.140625 75.097656 103.882812 C 78.332031 104.371094 81.214844 101.816406 81.113281 98.539062 C 81.007812 95.269531 77.960938 92.898438 74.765625 93.597656 " fill-opacity="1" fill-rule="nonzero"/><path fill="rgb(90.979004%, 23.919678%, 46.269226%)" d="M 80.011719 128.671875 C 77.546875 131.855469 74.664062 135.238281 72.273438 137.582031 C 71.667969 138.171875 70.828125 138.40625 69.988281 138.3125 C 68.171875 138.113281 66.28125 138.804688 64.996094 140.464844 C 64.085938 141.644531 63.734375 143.207031 63.976562 144.679688 C 64.796875 149.636719 70.695312 150.625 73.515625 147.59375 C 74.464844 146.570312 74.964844 145.265625 74.996094 143.949219 C 75.011719 143.09375 75.328125 142.285156 75.992188 141.746094 C 78.578125 139.625 82.261719 137.128906 85.699219 135.03125 C 88.003906 133.621094 88.449219 130.464844 86.648438 128.457031 C 84.851562 126.449219 81.660156 126.542969 80.011719 128.671875 " fill-opacity="1" fill-rule="nonzero"/><path fill="rgb(90.979004%, 23.919678%, 46.269226%)" d="M 106.417969 161.847656 C 107.46875 159.183594 109.03125 155.960938 110.726562 152.792969 L 102.4375 149.851562 C 101.761719 153.40625 100.945312 156.898438 100.097656 159.644531 C 99.839844 160.472656 99.195312 161.089844 98.390625 161.414062 C 96.261719 162.257812 94.59375 164.183594 94.242188 166.765625 C 93.890625 169.34375 95.140625 171.972656 97.363281 173.320312 C 101.128906 175.589844 105.789062 173.769531 107.179688 169.839844 C 107.847656 167.9375 107.59375 165.949219 106.660156 164.335938 C 106.214844 163.566406 106.089844 162.667969 106.417969 161.847656 " fill-opacity="1" fill-rule="nonzero"/><path fill="rgb(90.979004%, 23.919678%, 46.269226%)" d="M 156.398438 108.613281 C 158.617188 108.613281 160.410156 110.40625 160.410156 112.621094 C 160.410156 114.835938 158.617188 116.632812 156.398438 116.632812 C 154.1875 116.632812 152.390625 114.835938 152.390625 112.621094 C 152.390625 110.40625 154.1875 108.613281 156.398438 108.613281 " fill-opacity="1" fill-rule="nonzero"/><path fill="rgb(90.979004%, 23.919678%, 46.269226%)" d="M 118.429688 122.382812 C 121.648438 122.382812 124.261719 124.992188 124.261719 128.214844 C 124.261719 131.429688 121.648438 134.046875 118.429688 134.046875 C 115.207031 134.046875 112.597656 131.429688 112.597656 128.214844 C 112.597656 124.992188 115.207031 122.382812 118.429688 122.382812 " fill-opacity="1" fill-rule="nonzero"/><path fill="rgb(90.979004%, 23.919678%, 46.269226%)" d="M 143.101562 64.0625 C 145.511719 64.0625 147.460938 66.015625 147.460938 68.429688 C 147.460938 70.832031 145.511719 72.789062 143.101562 72.789062 C 140.691406 72.789062 138.742188 70.832031 138.742188 68.429688 C 138.742188 66.015625 140.691406 64.0625 143.101562 64.0625 " fill-opacity="1" fill-rule="nonzero"/><path fill="rgb(90.979004%, 23.919678%, 46.269226%)" d="M 96.117188 105.042969 C 98.269531 105.042969 100.015625 106.789062 100.015625 108.941406 C 100.015625 111.09375 98.269531 112.839844 96.117188 112.839844 C 93.964844 112.839844 92.21875 111.09375 92.21875 108.941406 C 92.21875 106.789062 93.964844 105.042969 96.117188 105.042969 " fill-opacity="1" fill-rule="nonzero"/><path fill="rgb(90.979004%, 23.919678%, 46.269226%)" d="M 100.476562 74.84375 C 102.882812 74.84375 104.839844 76.792969 104.839844 79.207031 C 104.839844 81.613281 102.882812 83.566406 100.476562 83.566406 C 98.066406 83.566406 96.117188 81.613281 96.117188 79.207031 C 96.117188 76.792969 98.066406 74.84375 100.476562 74.84375 " fill-opacity="1" fill-rule="nonzero"/><path fill="rgb(90.979004%, 23.919678%, 46.269226%)" d="M 131.566406 88.453125 C 135.597656 88.453125 138.863281 91.722656 138.863281 95.757812 C 138.863281 99.789062 135.597656 103.0625 131.566406 103.0625 C 127.535156 103.0625 124.261719 99.789062 124.261719 95.757812 C 124.261719 91.722656 127.535156 88.453125 131.566406 88.453125 " fill-opacity="1" fill-rule="nonzero"/><path fill="rgb(100%, 100%, 100%)" d="M 226.609375 204.972656 C 226.542969 204.972656 226.476562 204.953125 226.417969 204.914062 C 224.140625 203.292969 222.136719 201.746094 220.203125 200.253906 C 218.269531 198.761719 216.269531 197.21875 214 195.605469 C 213.851562 195.496094 213.8125 195.292969 213.914062 195.144531 C 215.261719 193.128906 216.527344 191.511719 217.75 189.949219 C 219.507812 187.703125 221.171875 185.578125 222.988281 182.421875 C 224.207031 180.308594 223.636719 176.617188 223.082031 173.046875 C 222.660156 170.324219 222.261719 167.746094 222.628906 165.84375 C 223.277344 162.476562 224.785156 159.375 226.242188 156.375 L 229.4375 149.796875 C 230.894531 146.800781 232.949219 145.28125 235.539062 145.28125 C 241.960938 145.28125 249.566406 154.820312 250.753906 160.585938 C 251.605469 164.691406 249.410156 167.257812 247.292969 169.738281 C 245.359375 172 243.363281 174.335938 243.488281 177.929688 C 243.667969 182.992188 238.25 189.917969 233.007812 196.621094 C 230.855469 199.371094 228.632812 202.214844 226.886719 204.824219 C 226.839844 204.902344 226.761719 204.953125 226.671875 204.96875 L 226.609375 204.972656 " fill-opacity="1" fill-rule="nonzero"/><path fill="rgb(13.729858%, 12.159729%, 12.548828%)" d="M 235.539062 144.945312 C 233.660156 144.945312 231.027344 145.761719 229.136719 149.652344 C 228.082031 151.820312 227.027344 153.992188 225.972656 156.164062 L 225.941406 156.226562 C 224.476562 159.25 222.957031 162.371094 222.300781 165.777344 C 221.921875 167.742188 222.324219 170.34375 222.75 173.101562 C 223.296875 176.609375 223.859375 180.242188 222.699219 182.253906 C 220.894531 185.390625 219.238281 187.503906 217.488281 189.742188 C 216.261719 191.308594 214.992188 192.929688 213.636719 194.957031 C 213.4375 195.257812 213.511719 195.667969 213.804688 195.878906 C 216.074219 197.488281 218.070312 199.027344 220 200.519531 C 221.9375 202.015625 223.941406 203.5625 226.226562 205.183594 C 226.339844 205.265625 226.472656 205.308594 226.609375 205.308594 C 226.652344 205.308594 226.691406 205.304688 226.730469 205.296875 C 226.910156 205.265625 227.066406 205.164062 227.164062 205.011719 C 228.902344 202.414062 231.121094 199.574219 233.269531 196.828125 C 238.546875 190.078125 244.003906 183.101562 243.820312 177.917969 C 243.703125 174.457031 245.570312 172.269531 247.546875 169.957031 C 249.71875 167.414062 251.964844 164.785156 251.082031 160.515625 C 249.871094 154.648438 242.105469 144.945312 235.539062 144.945312 M 235.539062 145.613281 C 241.707031 145.613281 249.257812 154.988281 250.429688 160.652344 C 251.996094 168.246094 242.882812 170.191406 243.15625 177.941406 C 243.402344 184.957031 232.527344 195.78125 226.609375 204.640625 C 222.0625 201.40625 218.742188 198.5625 214.191406 195.332031 C 217.433594 190.476562 220.160156 188.007812 223.277344 182.589844 C 225.492188 178.742188 222.113281 170.265625 222.957031 165.90625 C 223.59375 162.605469 225.074219 159.542969 226.542969 156.523438 C 227.605469 154.332031 228.671875 152.136719 229.738281 149.945312 C 231.242188 146.847656 233.300781 145.613281 235.539062 145.613281 " fill-opacity="1" fill-rule="nonzero"/><path fill="rgb(100%, 100%, 100%)" d="M 237.335938 180.914062 C 236.445312 180.914062 235.625 180.5625 234.902344 179.867188 C 233.535156 178.546875 233.261719 176.394531 233.042969 174.660156 L 232.984375 174.199219 C 232.867188 173.300781 232.71875 172.394531 232.574219 171.511719 C 232.324219 169.96875 232.066406 168.371094 231.953125 166.773438 L 231.949219 166.652344 C 231.941406 166.539062 231.988281 166.433594 232.074219 166.363281 C 232.132812 166.320312 232.207031 166.292969 232.28125 166.292969 C 232.316406 166.292969 232.351562 166.300781 232.382812 166.3125 L 232.4375 166.320312 C 232.511719 166.320312 232.59375 166.28125 232.640625 166.222656 C 232.675781 166.179688 232.6875 166.125 232.675781 166.058594 C 231.863281 161.933594 231.960938 157.664062 232.160156 154.035156 C 232.332031 150.945312 232.753906 147.765625 234.683594 145.4375 C 234.738281 145.371094 234.820312 145.328125 234.90625 145.320312 C 235.113281 145.296875 235.328125 145.285156 235.539062 145.285156 C 240.113281 145.285156 244.957031 150.023438 247.714844 154.078125 C 247.777344 154.167969 247.792969 154.28125 247.757812 154.378906 L 247.742188 154.453125 C 247.65625 159.445312 247.421875 165.222656 245.671875 170.625 C 245.394531 171.488281 245.058594 172.359375 244.675781 173.226562 C 244.410156 173.699219 244.210938 174.125 244.042969 174.5625 L 244.027344 174.59375 C 243.367188 175.878906 242.601562 177.097656 241.75 178.210938 C 240.457031 179.90625 238.808594 180.914062 237.335938 180.914062 " fill-opacity="1" fill-rule="nonzero"/><path fill="rgb(13.729858%, 12.159729%, 12.548828%)" d="M 235.539062 144.949219 C 235.316406 144.949219 235.09375 144.960938 234.871094 144.984375 C 234.699219 145.003906 234.539062 145.089844 234.425781 145.222656 C 232.429688 147.632812 231.992188 151.019531 231.828125 154.015625 C 231.628906 157.621094 231.53125 161.851562 232.3125 165.960938 L 232.28125 165.957031 C 232.132812 165.957031 231.988281 166.007812 231.871094 166.101562 C 231.695312 166.234375 231.597656 166.449219 231.613281 166.671875 L 231.613281 166.714844 L 231.617188 166.792969 C 231.734375 168.410156 231.996094 170.015625 232.246094 171.566406 C 232.386719 172.445312 232.535156 173.351562 232.652344 174.242188 C 232.671875 174.394531 232.691406 174.546875 232.710938 174.703125 C 232.9375 176.488281 233.21875 178.710938 234.671875 180.109375 C 235.457031 180.867188 236.355469 181.25 237.335938 181.25 C 238.914062 181.25 240.660156 180.191406 242.015625 178.417969 C 242.878906 177.285156 243.65625 176.050781 244.324219 174.75 L 244.351562 174.683594 C 244.515625 174.261719 244.710938 173.847656 244.949219 173.421875 L 244.980469 173.363281 C 245.367188 172.488281 245.707031 171.601562 245.988281 170.730469 C 247.753906 165.289062 247.992188 159.492188 248.074219 154.480469 C 248.140625 154.28125 248.109375 154.0625 247.992188 153.890625 C 245.1875 149.765625 240.242188 144.949219 235.539062 144.949219 M 235.539062 145.621094 C 239.664062 145.621094 244.402344 149.800781 247.441406 154.269531 C 247.421875 154.320312 247.410156 154.378906 247.40625 154.445312 C 247.316406 159.851562 247.03125 165.34375 245.355469 170.523438 C 245.070312 171.394531 244.738281 172.253906 244.367188 173.089844 C 244.128906 173.519531 243.910156 173.96875 243.730469 174.441406 C 243.089844 175.691406 242.34375 176.886719 241.484375 178.007812 C 240.476562 179.332031 238.921875 180.578125 237.335938 180.578125 C 236.589844 180.578125 235.839844 180.300781 235.136719 179.625 C 233.734375 178.277344 233.554688 175.972656 233.316406 174.15625 C 232.988281 171.683594 232.464844 169.242188 232.285156 166.75 C 232.28125 166.710938 232.28125 166.667969 232.28125 166.628906 C 232.328125 166.644531 232.382812 166.652344 232.4375 166.652344 C 232.746094 166.652344 233.078125 166.394531 233 165.992188 C 232.234375 162.085938 232.273438 158.015625 232.492188 154.050781 C 232.65625 151.128906 233.0625 147.921875 234.941406 145.652344 C 235.140625 145.632812 235.339844 145.621094 235.539062 145.621094 " fill-opacity="1" fill-rule="nonzero"/><path fill="rgb(100%, 100%, 100%)" d="M 246.613281 170.355469 C 246.558594 170.355469 246.503906 170.34375 246.453125 170.316406 C 246.3125 170.238281 246.246094 170.078125 246.292969 169.925781 C 247.695312 165.1875 247.992188 160.140625 248.097656 155.832031 C 248.101562 155.679688 248.203125 155.550781 248.347656 155.515625 L 248.433594 155.503906 C 248.550781 155.503906 248.660156 155.566406 248.722656 155.671875 C 249.753906 157.441406 250.457031 159.140625 250.753906 160.585938 C 251.605469 164.691406 249.410156 167.257812 247.292969 169.738281 L 246.867188 170.238281 C 246.800781 170.3125 246.707031 170.355469 246.613281 170.355469 " fill-opacity="1" fill-rule="nonzero"/><path fill="rgb(13.729858%, 12.159729%, 12.548828%)" d="M 248.433594 155.167969 C 248.375 155.167969 248.320312 155.175781 248.265625 155.191406 C 247.976562 155.265625 247.773438 155.523438 247.765625 155.820312 C 247.660156 160.109375 247.363281 165.125 245.972656 169.828125 C 245.882812 170.132812 246.015625 170.460938 246.292969 170.609375 C 246.394531 170.664062 246.503906 170.691406 246.613281 170.691406 C 246.804688 170.691406 246.992188 170.609375 247.121094 170.453125 C 247.261719 170.289062 247.40625 170.121094 247.546875 169.957031 C 249.71875 167.414062 251.964844 164.785156 251.082031 160.515625 C 250.777344 159.039062 250.0625 157.304688 249.007812 155.5 C 248.886719 155.292969 248.664062 155.167969 248.433594 155.167969 M 248.433594 155.839844 C 249.425781 157.539062 250.132812 159.214844 250.429688 160.652344 C 251.296875 164.859375 248.886719 167.332031 246.613281 170.019531 C 247.964844 165.457031 248.316406 160.597656 248.433594 155.839844 " fill-opacity="1" fill-rule="nonzero"/><path fill="rgb(100%, 100%, 100%)" d="M 240.421875 194.167969 C 240.355469 194.167969 240.289062 194.148438 240.234375 194.109375 C 240.160156 194.058594 240.109375 193.984375 240.09375 193.894531 L 222.976562 104.066406 C 222.945312 103.882812 223.0625 103.707031 223.242188 103.675781 L 272.425781 94.230469 L 272.488281 94.226562 C 272.558594 94.226562 272.628906 94.246094 272.6875 94.289062 L 301.539062 115.476562 C 301.609375 115.527344 301.65625 115.601562 301.671875 115.683594 L 313.875 179.726562 C 313.890625 179.816406 313.871094 179.90625 313.820312 179.980469 C 313.773438 180.054688 313.695312 180.105469 313.609375 180.121094 L 240.484375 194.160156 L 240.421875 194.167969 " fill-opacity="1" fill-rule="nonzero"/><g clip-path="url(#clip-0)"><path fill="rgb(13.729858%, 12.159729%, 12.548828%)" d="M 272.488281 93.890625 C 272.445312 93.890625 272.402344 93.894531 272.363281 93.902344 L 223.179688 103.34375 C 222.816406 103.414062 222.582031 103.765625 222.648438 104.128906 L 239.765625 193.957031 C 239.796875 194.132812 239.898438 194.285156 240.046875 194.386719 C 240.160156 194.464844 240.289062 194.503906 240.421875 194.503906 C 240.464844 194.503906 240.503906 194.5 240.546875 194.492188 L 313.671875 180.449219 C 313.84375 180.417969 314 180.316406 314.097656 180.167969 C 314.199219 180.019531 314.234375 179.839844 314.203125 179.664062 L 302 115.621094 C 301.96875 115.457031 301.875 115.308594 301.738281 115.207031 L 272.882812 94.019531 C 272.769531 93.933594 272.628906 93.890625 272.488281 93.890625 Z M 272.488281 94.558594 L 301.34375 115.75 L 313.546875 179.792969 L 240.421875 193.832031 L 223.304688 104.003906 L 272.488281 94.558594 " fill-opacity="1" fill-rule="nonzero"/></g><path fill="rgb(100%, 100%, 100%)" d="M 285.894531 118.449219 C 280.539062 118.449219 275.921875 114.613281 274.914062 109.324219 L 272.113281 94.632812 C 272.089844 94.496094 272.148438 94.359375 272.265625 94.285156 C 272.320312 94.25 272.378906 94.234375 272.441406 94.234375 C 272.511719 94.234375 272.582031 94.253906 272.640625 94.296875 L 301.539062 115.476562 C 301.648438 115.558594 301.699219 115.695312 301.667969 115.828125 C 301.636719 115.957031 301.53125 116.058594 301.398438 116.078125 L 287.703125 118.300781 C 287.105469 118.398438 286.496094 118.449219 285.894531 118.449219 " fill-opacity="1" fill-rule="nonzero"/><g clip-path="url(#clip-1)"><path fill="rgb(13.729858%, 12.159729%, 12.548828%)" d="M 272.441406 93.898438 C 272.320312 93.898438 272.195312 93.933594 272.085938 94.003906 C 271.851562 94.148438 271.734375 94.421875 271.785156 94.695312 L 274.585938 109.386719 C 275.625 114.832031 280.378906 118.78125 285.894531 118.78125 C 286.511719 118.78125 287.140625 118.734375 287.757812 118.632812 L 301.449219 116.410156 C 301.714844 116.367188 301.929688 116.167969 301.992188 115.902344 C 302.054688 115.640625 301.953125 115.367188 301.738281 115.207031 L 272.835938 94.027344 C 272.71875 93.941406 272.582031 93.898438 272.441406 93.898438 Z M 272.441406 94.570312 L 301.34375 115.75 L 287.648438 117.96875 C 287.058594 118.066406 286.472656 118.113281 285.894531 118.113281 C 280.773438 118.113281 276.234375 114.46875 275.242188 109.257812 L 272.441406 94.570312 " fill-opacity="1" fill-rule="nonzero"/></g><path fill="rgb(100%, 100%, 100%)" d="M 235.824219 117.988281 L 235.015625 113.75 L 255.230469 109.867188 L 256.039062 114.109375 L 235.824219 117.988281 " fill-opacity="1" fill-rule="nonzero"/><path fill="rgb(13.729858%, 12.159729%, 12.548828%)" d="M 235.824219 118.660156 C 235.691406 118.660156 235.558594 118.621094 235.445312 118.542969 C 235.300781 118.445312 235.199219 118.289062 235.167969 118.113281 L 234.359375 113.875 C 234.289062 113.511719 234.527344 113.160156 234.890625 113.089844 L 255.105469 109.207031 C 255.148438 109.199219 255.1875 109.195312 255.230469 109.195312 C 255.546875 109.195312 255.824219 109.417969 255.886719 109.742188 L 256.695312 113.980469 C 256.726562 114.15625 256.691406 114.335938 256.589844 114.484375 C 256.492188 114.632812 256.335938 114.734375 256.164062 114.765625 L 235.949219 118.648438 C 235.90625 118.65625 235.863281 118.660156 235.824219 118.660156 M 255.230469 109.867188 L 235.015625 113.75 L 235.824219 117.988281 L 256.039062 114.109375 L 255.230469 109.867188 " fill-opacity="1" fill-rule="nonzero"/><path fill="rgb(100%, 100%, 100%)" d="M 248.097656 182.410156 L 247.289062 178.171875 L 267.503906 174.289062 L 268.3125 178.53125 L 248.097656 182.410156 " fill-opacity="1" fill-rule="nonzero"/><path fill="rgb(13.729858%, 12.159729%, 12.548828%)" d="M 248.097656 183.082031 C 247.964844 183.082031 247.835938 183.042969 247.722656 182.964844 C 247.574219 182.867188 247.476562 182.710938 247.441406 182.539062 L 246.632812 178.296875 C 246.566406 177.933594 246.800781 177.582031 247.164062 177.511719 L 267.378906 173.628906 C 267.421875 173.621094 267.464844 173.617188 267.503906 173.617188 C 267.820312 173.617188 268.101562 173.84375 268.164062 174.164062 L 268.96875 178.402344 C 269.003906 178.578125 268.964844 178.757812 268.867188 178.90625 C 268.765625 179.054688 268.613281 179.15625 268.4375 179.1875 L 248.222656 183.070312 C 248.179688 183.078125 248.140625 183.082031 248.097656 183.082031 M 267.503906 174.289062 L 247.289062 178.171875 L 248.097656 182.410156 L 268.3125 178.53125 L 267.503906 174.289062 " fill-opacity="1" fill-rule="nonzero"/><path fill="rgb(100%, 100%, 100%)" d="M 239.34375 136.464844 L 238.707031 133.132812 L 290.335938 123.222656 L 290.96875 126.550781 L 239.34375 136.464844 " fill-opacity="1" fill-rule="nonzero"/><path fill="rgb(13.729858%, 12.159729%, 12.548828%)" d="M 239.34375 137.136719 C 239.210938 137.136719 239.078125 137.097656 238.96875 137.019531 C 238.820312 136.921875 238.71875 136.765625 238.6875 136.59375 L 238.050781 133.261719 C 237.984375 132.894531 238.222656 132.542969 238.582031 132.476562 L 290.210938 122.5625 C 290.25 122.554688 290.292969 122.550781 290.335938 122.550781 C 290.652344 122.550781 290.929688 122.773438 290.992188 123.09375 L 291.625 126.425781 C 291.695312 126.789062 291.457031 127.140625 291.09375 127.210938 L 239.46875 137.125 C 239.425781 137.132812 239.382812 137.136719 239.34375 137.136719 M 290.335938 123.222656 L 238.707031 133.132812 L 239.34375 136.464844 L 290.96875 126.550781 L 290.335938 123.222656 " fill-opacity="1" fill-rule="nonzero"/><path fill="rgb(100%, 100%, 100%)" d="M 240.753906 143.867188 L 240.121094 140.535156 L 291.746094 130.625 L 292.378906 133.957031 L 240.753906 143.867188 " fill-opacity="1" fill-rule="nonzero"/><path fill="rgb(13.729858%, 12.159729%, 12.548828%)" d="M 240.753906 144.539062 C 240.4375 144.539062 240.160156 144.316406 240.097656 143.996094 L 239.460938 140.660156 C 239.429688 140.488281 239.464844 140.304688 239.566406 140.160156 C 239.664062 140.011719 239.820312 139.910156 239.992188 139.878906 L 291.621094 129.964844 C 291.660156 129.957031 291.703125 129.953125 291.746094 129.953125 C 291.878906 129.953125 292.007812 129.992188 292.121094 130.066406 C 292.265625 130.167969 292.367188 130.320312 292.402344 130.496094 L 293.035156 133.828125 C 293.105469 134.191406 292.867188 134.542969 292.507812 134.613281 L 240.878906 144.527344 C 240.835938 144.535156 240.796875 144.539062 240.753906 144.539062 M 291.746094 130.625 L 240.121094 140.535156 L 240.753906 143.867188 L 292.378906 133.957031 L 291.746094 130.625 " fill-opacity="1" fill-rule="nonzero"/><path fill="rgb(100%, 100%, 100%)" d="M 242.164062 151.269531 L 241.53125 147.9375 L 293.15625 138.027344 L 293.792969 141.355469 L 242.164062 151.269531 " fill-opacity="1" fill-rule="nonzero"/><path fill="rgb(13.729858%, 12.159729%, 12.548828%)" d="M 242.164062 151.941406 C 242.03125 151.941406 241.898438 151.902344 241.789062 151.824219 C 241.640625 151.726562 241.539062 151.570312 241.507812 151.398438 L 240.875 148.0625 C 240.804688 147.699219 241.042969 147.347656 241.40625 147.28125 L 293.03125 137.367188 C 293.074219 137.359375 293.113281 137.355469 293.15625 137.355469 C 293.46875 137.355469 293.75 137.578125 293.8125 137.902344 L 294.449219 141.230469 C 294.480469 141.40625 294.441406 141.585938 294.34375 141.734375 C 294.242188 141.882812 294.089844 141.984375 293.917969 142.015625 L 242.289062 151.929688 C 242.246094 151.9375 242.207031 151.941406 242.164062 151.941406 M 293.15625 138.027344 L 241.53125 147.9375 L 242.164062 151.269531 L 293.792969 141.355469 L 293.15625 138.027344 " fill-opacity="1" fill-rule="nonzero"/><path fill="rgb(100%, 100%, 100%)" d="M 243.574219 158.671875 L 242.941406 155.339844 L 294.566406 145.429688 L 295.203125 148.761719 L 243.574219 158.671875 " fill-opacity="1" fill-rule="nonzero"/><path fill="rgb(13.729858%, 12.159729%, 12.548828%)" d="M 243.574219 159.34375 C 243.441406 159.34375 243.3125 159.304688 243.199219 159.226562 C 243.050781 159.125 242.953125 158.972656 242.917969 158.796875 L 242.285156 155.464844 C 242.214844 155.101562 242.453125 154.75 242.816406 154.679688 L 294.441406 144.769531 C 294.484375 144.761719 294.523438 144.757812 294.566406 144.757812 C 294.699219 144.757812 294.828125 144.796875 294.941406 144.871094 C 295.089844 144.972656 295.1875 145.125 295.222656 145.300781 L 295.859375 148.632812 C 295.925781 148.996094 295.691406 149.347656 295.328125 149.417969 L 243.699219 159.332031 C 243.65625 159.339844 243.617188 159.34375 243.574219 159.34375 M 294.566406 145.429688 L 242.941406 155.339844 L 243.574219 158.671875 L 295.203125 148.761719 L 294.566406 145.429688 " fill-opacity="1" fill-rule="nonzero"/><path fill="rgb(100%, 100%, 100%)" d="M 289.089844 175.585938 C 284.523438 175.585938 280.582031 172.3125 279.722656 167.800781 C 279.242188 165.28125 279.769531 162.730469 281.199219 160.613281 C 282.632812 158.492188 284.804688 157.0625 287.308594 156.582031 C 287.902344 156.464844 288.507812 156.40625 289.109375 156.40625 C 293.683594 156.40625 297.621094 159.683594 298.484375 164.195312 C 299.472656 169.386719 296.066406 174.417969 290.894531 175.414062 C 290.300781 175.527344 289.691406 175.585938 289.089844 175.585938 " fill-opacity="1" fill-rule="nonzero"/><path fill="rgb(13.729858%, 12.159729%, 12.548828%)" d="M 289.113281 156.074219 L 289.109375 156.074219 C 288.488281 156.074219 287.859375 156.132812 287.246094 156.25 C 284.652344 156.75 282.40625 158.230469 280.925781 160.421875 C 279.441406 162.617188 278.898438 165.257812 279.394531 167.863281 C 280.285156 172.53125 284.363281 175.921875 289.089844 175.921875 C 289.714844 175.921875 290.34375 175.863281 290.957031 175.742188 C 296.3125 174.714844 299.835938 169.507812 298.8125 164.132812 C 297.921875 159.464844 293.84375 156.074219 289.113281 156.074219 Z M 289.109375 156.742188 C 293.445312 156.742188 297.308594 159.828125 298.15625 164.257812 C 299.109375 169.277344 295.832031 174.125 290.832031 175.082031 C 290.25 175.195312 289.664062 175.25 289.089844 175.25 C 284.757812 175.25 280.894531 172.167969 280.050781 167.734375 C 279.09375 162.71875 282.371094 157.871094 287.371094 156.910156 C 287.957031 156.796875 288.535156 156.742188 289.109375 156.742188 " fill-opacity="1" fill-rule="nonzero"/><path fill="rgb(100%, 100%, 100%)" d="M 289.09375 172.789062 C 285.855469 172.789062 283.066406 170.472656 282.457031 167.273438 C 282.117188 165.492188 282.488281 163.683594 283.503906 162.183594 C 284.519531 160.679688 286.054688 159.667969 287.832031 159.324219 C 288.253906 159.246094 288.683594 159.203125 289.109375 159.203125 C 292.347656 159.203125 295.140625 161.523438 295.75 164.722656 C 296.085938 166.503906 295.714844 168.3125 294.699219 169.8125 C 293.6875 171.3125 292.148438 172.328125 290.371094 172.667969 C 289.953125 172.75 289.519531 172.789062 289.09375 172.789062 " fill-opacity="1" fill-rule="nonzero"/><path fill="rgb(13.729858%, 12.159729%, 12.548828%)" d="M 289.109375 158.867188 C 288.664062 158.867188 288.210938 158.910156 287.769531 158.996094 C 285.90625 159.351562 284.292969 160.417969 283.226562 161.992188 C 282.160156 163.570312 281.773438 165.464844 282.128906 167.335938 C 282.765625 170.691406 285.699219 173.125 289.09375 173.125 C 289.542969 173.125 289.992188 173.082031 290.433594 172.996094 C 292.296875 172.640625 293.910156 171.578125 294.976562 170 C 296.042969 168.425781 296.433594 166.527344 296.078125 164.65625 C 295.4375 161.304688 292.507812 158.867188 289.109375 158.867188 Z M 289.109375 159.539062 C 292.132812 159.539062 294.832031 161.691406 295.421875 164.785156 C 296.085938 168.289062 293.800781 171.667969 290.308594 172.339844 C 289.902344 172.417969 289.496094 172.457031 289.09375 172.457031 C 286.070312 172.457031 283.371094 170.304688 282.785156 167.210938 C 282.117188 163.707031 284.402344 160.324219 287.894531 159.65625 C 288.300781 159.574219 288.707031 159.539062 289.109375 159.539062 " fill-opacity="1" fill-rule="nonzero"/><path fill="rgb(13.729858%, 12.159729%, 12.548828%)" d="M 254.703125 166.660156 L 254.65625 166.691406 C 254.488281 166.824219 254.359375 167.167969 254.335938 167.527344 C 254.265625 168.636719 254.3125 169.757812 254.472656 170.863281 C 254.539062 171.316406 254.632812 171.808594 254.832031 172.246094 C 255.027344 170.386719 254.984375 168.515625 254.703125 166.660156 Z M 250.40625 165.140625 C 249.40625 167.839844 248.9375 170.710938 249.03125 173.585938 C 249.898438 170.863281 250.367188 167.992188 250.40625 165.140625 Z M 249.105469 175.984375 C 249.050781 175.984375 248.996094 175.980469 248.941406 175.972656 C 248.839844 175.957031 248.757812 175.878906 248.746094 175.773438 L 248.738281 175.722656 C 248.675781 175.796875 248.570312 175.828125 248.476562 175.789062 C 248.359375 175.742188 248.300781 175.605469 248.347656 175.488281 C 248.449219 175.238281 248.542969 174.992188 248.636719 174.742188 C 248.328125 171.03125 248.941406 167.296875 250.417969 163.875 C 250.460938 163.773438 250.566406 163.71875 250.671875 163.738281 C 250.777344 163.757812 250.855469 163.851562 250.859375 163.957031 C 250.960938 167.625 250.355469 171.351562 249.105469 174.804688 C 249.125 175.042969 249.148438 175.28125 249.179688 175.519531 C 249.308594 175.503906 249.4375 175.449219 249.558594 175.355469 C 249.878906 175.101562 250.132812 174.570312 250.183594 174.039062 C 250.203125 173.867188 250.210938 173.691406 250.222656 173.515625 C 250.261719 172.808594 250.300781 172.078125 250.792969 171.53125 C 250.855469 171.460938 250.960938 171.4375 251.050781 171.472656 C 251.140625 171.507812 251.199219 171.601562 251.195312 171.699219 C 251.164062 172.351562 251.199219 173.003906 251.304688 173.644531 C 251.382812 173.589844 251.464844 173.539062 251.550781 173.496094 C 251.621094 173.464844 251.703125 173.464844 251.769531 173.503906 C 251.835938 173.542969 251.878906 173.613281 251.882812 173.6875 C 251.902344 173.984375 252.183594 174.648438 252.472656 174.753906 C 252.511719 174.765625 252.613281 174.800781 252.785156 174.621094 C 253.019531 174.375 253.042969 173.90625 252.945312 173.53125 C 252.933594 173.492188 252.921875 173.449219 252.910156 173.40625 C 252.878906 173.285156 252.945312 173.164062 253.066406 173.125 C 253.183594 173.089844 253.308594 173.15625 253.351562 173.273438 C 253.363281 173.316406 253.375 173.359375 253.386719 173.402344 C 253.535156 173.84375 253.789062 174.113281 254.082031 174.097656 C 254.382812 174.078125 254.628906 173.734375 254.707031 173.21875 C 254.71875 173.148438 254.726562 173.074219 254.738281 173 C 254.28125 172.390625 254.117188 171.613281 254.015625 170.929688 C 253.851562 169.792969 253.804688 168.640625 253.875 167.496094 C 253.898438 167.101562 254.042969 166.585938 254.371094 166.328125 C 254.539062 166.195312 254.734375 166.148438 254.941406 166.183594 C 255.039062 166.203125 255.109375 166.28125 255.125 166.375 C 255.472656 168.527344 255.503906 170.707031 255.222656 172.863281 C 255.589844 173.257812 256.203125 173.515625 256.714844 173.332031 L 256.742188 172.648438 C 256.722656 172.476562 256.730469 172.300781 256.769531 172.136719 C 256.792969 172.023438 256.902344 171.941406 257.023438 171.960938 C 257.140625 171.976562 257.226562 172.078125 257.222656 172.199219 L 257.203125 172.628906 C 257.234375 172.835938 257.335938 173.027344 257.507812 173.109375 C 257.632812 173.167969 257.808594 173.101562 257.902344 173.003906 C 257.921875 172.988281 257.945312 172.960938 257.960938 172.929688 C 257.941406 172.839844 257.933594 172.75 257.945312 172.664062 C 257.957031 172.5625 258.035156 172.480469 258.136719 172.460938 C 258.234375 172.441406 258.335938 172.496094 258.382812 172.585938 C 258.433594 172.691406 258.449219 172.804688 258.4375 172.914062 C 258.453125 172.945312 258.476562 172.976562 258.5 173.007812 C 258.535156 173.054688 258.582031 173.089844 258.628906 173.117188 L 258.847656 172.722656 C 258.871094 172.65625 258.90625 172.59375 258.953125 172.539062 C 259.03125 172.449219 259.164062 172.433594 259.261719 172.503906 C 259.359375 172.570312 259.386719 172.703125 259.328125 172.804688 L 259.273438 172.902344 C 259.269531 172.929688 259.273438 172.957031 259.28125 172.992188 C 259.308594 173.097656 259.398438 173.207031 259.5 173.246094 C 259.722656 173.328125 259.992188 173.265625 260.296875 173.179688 L 265.035156 171.847656 C 265.160156 171.8125 265.285156 171.886719 265.320312 172.007812 C 265.355469 172.132812 265.28125 172.261719 265.160156 172.292969 L 260.421875 173.625 C 260.125 173.710938 259.714844 173.824219 259.335938 173.675781 C 259.199219 173.625 259.082031 173.53125 258.988281 173.417969 L 258.945312 173.5 C 258.898438 173.582031 258.816406 173.625 258.722656 173.617188 C 258.527344 173.601562 258.339844 173.507812 258.199219 173.363281 C 257.945312 173.59375 257.585938 173.660156 257.308594 173.527344 C 257.257812 173.503906 257.210938 173.476562 257.167969 173.445312 L 257.167969 173.496094 C 257.164062 173.578125 257.117188 173.652344 257.042969 173.691406 C 256.402344 174.027344 255.664062 173.820312 255.140625 173.410156 C 255.003906 174.085938 254.605469 174.53125 254.105469 174.558594 C 253.859375 174.570312 253.625 174.484375 253.425781 174.308594 C 253.378906 174.546875 253.28125 174.769531 253.117188 174.941406 C 252.804688 175.269531 252.511719 175.257812 252.320312 175.1875 C 251.902344 175.039062 251.625 174.484375 251.5 174.078125 C 251.4375 174.128906 251.382812 174.183594 251.332031 174.246094 C 251.277344 174.316406 251.1875 174.34375 251.101562 174.324219 C 251.015625 174.304688 250.949219 174.234375 250.929688 174.148438 C 250.835938 173.707031 250.773438 173.257812 250.746094 172.804688 C 250.710938 173.039062 250.695312 173.289062 250.683594 173.542969 C 250.671875 173.726562 250.660156 173.90625 250.644531 174.085938 C 250.578125 174.746094 250.261719 175.386719 249.84375 175.71875 C 249.617188 175.894531 249.367188 175.984375 249.105469 175.984375 " fill-opacity="1" fill-rule="nonzero"/><path fill="rgb(100%, 100%, 100%)" d="M 228.082031 204.972656 C 228.019531 204.972656 227.953125 204.953125 227.898438 204.917969 L 214.988281 196.429688 C 214.839844 196.332031 214.792969 196.132812 214.886719 195.976562 L 223.628906 181.347656 L 225.195312 168.554688 C 225.199219 168.507812 225.214844 168.460938 225.238281 168.417969 L 229.992188 160.566406 C 230.148438 160.199219 232.261719 155.25 233.402344 151.785156 C 233.722656 150.808594 234.214844 150.605469 234.570312 150.605469 C 235.074219 150.605469 235.597656 151.019531 236.078125 151.800781 C 237.1875 153.601562 238.152344 157.613281 236.714844 160.5 C 234.671875 164.597656 235.015625 172.78125 235.058594 173.613281 C 235.492188 174.5 239.722656 183.691406 233.90625 193.371094 L 228.382812 204.785156 C 228.339844 204.871094 228.261719 204.9375 228.171875 204.960938 L 228.082031 204.972656 " fill-opacity="1" fill-rule="nonzero"/><path fill="rgb(13.729858%, 12.159729%, 12.548828%)" d="M 234.570312 150.269531 C 234.105469 150.269531 233.46875 150.515625 233.082031 151.679688 C 231.96875 155.074219 229.90625 159.910156 229.691406 160.410156 L 224.953125 168.246094 C 224.90625 168.328125 224.875 168.417969 224.863281 168.511719 L 223.308594 181.238281 L 214.601562 195.804688 C 214.414062 196.113281 214.507812 196.511719 214.808594 196.710938 L 227.714844 205.199219 C 227.824219 205.273438 227.953125 205.308594 228.082031 205.308594 C 228.140625 205.308594 228.203125 205.300781 228.257812 205.285156 C 228.445312 205.234375 228.597656 205.105469 228.683594 204.933594 L 234.207031 193.519531 C 237.421875 188.152344 237.5625 182.976562 237.109375 179.578125 C 236.679688 176.339844 235.664062 174.09375 235.386719 173.527344 C 235.335938 172.398438 235.054688 164.578125 237.011719 160.652344 C 238.507812 157.648438 237.511719 153.488281 236.363281 151.625 C 235.808594 150.722656 235.207031 150.269531 234.570312 150.269531 Z M 234.570312 150.9375 C 236.070312 150.9375 238.222656 156.730469 236.414062 160.351562 C 234.207031 164.78125 234.726562 173.699219 234.726562 173.699219 C 234.726562 173.699219 239.683594 183.113281 233.621094 193.199219 L 228.082031 204.640625 L 215.171875 196.148438 L 223.953125 181.460938 L 225.523438 168.59375 L 230.289062 160.71875 C 230.289062 160.71875 232.523438 155.527344 233.71875 151.890625 C 233.9375 151.226562 234.238281 150.9375 234.570312 150.9375 " fill-opacity="1" fill-rule="nonzero"/><path fill="rgb(100%, 100%, 100%)" d="M 233.71875 157.808594 C 233.671875 157.808594 233.628906 157.796875 233.585938 157.78125 L 231.808594 157.003906 C 231.648438 156.933594 231.566406 156.75 231.628906 156.582031 L 233.40625 151.773438 C 233.457031 151.636719 233.582031 151.554688 233.71875 151.554688 C 233.757812 151.554688 233.792969 151.558594 233.832031 151.574219 C 233.875 151.589844 234.945312 151.980469 235.0625 153.046875 C 235.160156 153.960938 234.152344 157.207031 234.039062 157.574219 C 234.007812 157.664062 233.945312 157.738281 233.859375 157.777344 C 233.8125 157.796875 233.765625 157.808594 233.71875 157.808594 " fill-opacity="1" fill-rule="nonzero"/><path fill="rgb(13.729858%, 12.159729%, 12.548828%)" d="M 233.71875 151.21875 C 233.445312 151.21875 233.191406 151.386719 233.09375 151.65625 L 231.316406 156.464844 C 231.195312 156.800781 231.351562 157.171875 231.675781 157.3125 L 233.453125 158.089844 C 233.535156 158.125 233.628906 158.144531 233.71875 158.144531 C 233.8125 158.144531 233.910156 158.125 233.996094 158.082031 C 234.167969 158.003906 234.300781 157.855469 234.355469 157.675781 C 234.625 156.816406 235.492188 153.949219 235.390625 153.011719 C 235.28125 151.996094 234.429688 151.429688 233.941406 151.257812 C 233.867188 151.230469 233.792969 151.21875 233.71875 151.21875 Z M 233.71875 151.890625 C 233.71875 151.890625 234.636719 152.214844 234.730469 153.085938 C 234.820312 153.953125 233.71875 157.472656 233.71875 157.472656 L 231.945312 156.699219 L 233.71875 151.890625 " fill-opacity="1" fill-rule="nonzero"/><path fill="rgb(100%, 100%, 100%)" d="M 232.988281 199.335938 C 232.917969 199.335938 232.847656 199.3125 232.789062 199.269531 L 217.050781 187.5625 C 216.980469 187.507812 216.933594 187.429688 216.917969 187.339844 C 216.90625 187.25 216.929688 187.160156 216.984375 187.089844 L 220.507812 182.386719 C 220.570312 182.300781 220.671875 182.253906 220.773438 182.253906 C 220.839844 182.253906 220.90625 182.273438 220.964844 182.316406 L 236.824219 193.71875 C 236.894531 193.773438 236.945312 193.851562 236.960938 193.941406 C 236.972656 194.027344 236.953125 194.117188 236.898438 194.191406 L 233.257812 199.199219 C 233.207031 199.273438 233.128906 199.320312 233.039062 199.332031 L 232.988281 199.335938 " fill-opacity="1" fill-rule="nonzero"/><path fill="rgb(13.729858%, 12.159729%, 12.548828%)" d="M 220.773438 181.917969 C 220.570312 181.917969 220.371094 182.011719 220.238281 182.183594 L 216.714844 186.890625 C 216.609375 187.03125 216.5625 187.210938 216.589844 187.386719 C 216.613281 187.566406 216.710938 187.722656 216.851562 187.832031 L 232.589844 199.539062 C 232.707031 199.625 232.84375 199.671875 232.988281 199.671875 C 233.019531 199.671875 233.054688 199.667969 233.089844 199.664062 C 233.265625 199.636719 233.421875 199.542969 233.527344 199.398438 L 237.167969 194.386719 C 237.273438 194.246094 237.316406 194.0625 237.289062 193.886719 C 237.261719 193.710938 237.164062 193.554688 237.019531 193.449219 L 221.160156 182.042969 C 221.042969 181.957031 220.90625 181.917969 220.773438 181.917969 Z M 220.773438 182.589844 L 236.628906 193.992188 L 232.988281 199 L 217.25 187.292969 L 220.773438 182.589844 " fill-opacity="1" fill-rule="nonzero"/><g clip-path="url(#clip-2)"><path fill="rgb(100%, 100%, 100%)" d="M 188.203125 224.726562 C 188.078125 224.726562 187.964844 224.65625 187.90625 224.546875 C 187.851562 224.433594 187.859375 224.296875 187.933594 224.195312 L 216.03125 184.445312 C 216.082031 184.371094 216.160156 184.320312 216.246094 184.304688 L 216.304688 184.300781 C 216.371094 184.300781 216.441406 184.324219 216.496094 184.363281 L 235.804688 198.117188 C 235.878906 198.167969 235.925781 198.246094 235.941406 198.335938 C 235.957031 198.421875 235.9375 198.511719 235.886719 198.585938 L 217.507812 224.585938 C 217.445312 224.671875 217.34375 224.726562 217.234375 224.726562 L 188.203125 224.726562 " fill-opacity="1" fill-rule="nonzero"/></g><g clip-path="url(#clip-3)"><path fill="rgb(13.729858%, 12.159729%, 12.548828%)" d="M 216.304688 183.964844 C 216.265625 183.964844 216.230469 183.96875 216.191406 183.976562 C 216.015625 184.007812 215.859375 184.105469 215.757812 184.25 L 187.660156 224.003906 C 187.515625 224.207031 187.496094 224.476562 187.609375 224.699219 C 187.722656 224.921875 187.953125 225.0625 188.203125 225.0625 L 217.234375 225.0625 C 217.449219 225.0625 217.652344 224.957031 217.777344 224.777344 L 236.15625 198.777344 C 236.257812 198.632812 236.300781 198.453125 236.269531 198.277344 C 236.242188 198.101562 236.144531 197.949219 236 197.84375 L 216.691406 184.089844 C 216.578125 184.007812 216.441406 183.964844 216.304688 183.964844 Z M 216.304688 184.636719 L 235.613281 198.390625 L 217.234375 224.390625 L 188.203125 224.390625 L 216.304688 184.636719 " fill-opacity="1" fill-rule="nonzero"/></g><path fill="rgb(100%, 100%, 100%)" d="M 288.511719 183.0625 C 288.289062 182.148438 286.105469 178.695312 284.890625 176.074219 C 283.4375 172.941406 282.214844 168.734375 282.949219 166.933594 L 285.644531 156.433594 C 285.644531 156.433594 293.101562 179.21875 288.714844 183.804688 " fill-opacity="1" fill-rule="nonzero"/><path fill="rgb(13.729858%, 12.159729%, 12.548828%)" d="M 288.839844 182.984375 C 288.800781 182.832031 288.734375 182.667969 288.648438 182.472656 C 288.34375 181.789062 287.746094 180.730469 287.085938 179.546875 C 286.429688 178.367188 285.71875 177.0625 285.195312 175.933594 C 284.625 174.703125 284.089844 173.304688 283.699219 171.960938 C 283.308594 170.617188 283.0625 169.320312 283.0625 168.324219 C 283.0625 167.804688 283.128906 167.371094 283.257812 167.058594 L 283.273438 167.015625 L 285.96875 156.519531 L 285.644531 156.433594 L 285.328125 156.539062 C 285.328125 156.539062 285.34375 156.589844 285.375 156.691406 C 285.621094 157.449219 286.71875 160.933594 287.753906 165.195312 C 288.792969 169.457031 289.761719 174.5 289.761719 178.335938 C 289.761719 179.539062 289.667969 180.621094 289.453125 181.515625 C 289.242188 182.410156 288.914062 183.113281 288.472656 183.570312 C 288.34375 183.703125 288.351562 183.917969 288.484375 184.046875 C 288.617188 184.171875 288.828125 184.167969 288.957031 184.035156 C 289.511719 183.449219 289.875 182.636719 290.105469 181.671875 C 290.332031 180.703125 290.429688 179.574219 290.429688 178.335938 C 290.429688 174.128906 289.3125 168.640625 288.195312 164.191406 C 287.078125 159.742188 285.964844 156.335938 285.960938 156.328125 C 285.914062 156.1875 285.78125 156.09375 285.632812 156.097656 C 285.488281 156.101562 285.359375 156.207031 285.320312 156.351562 L 282.625 166.847656 L 282.949219 166.933594 L 282.640625 166.804688 C 282.464844 167.238281 282.394531 167.75 282.394531 168.324219 C 282.394531 169.425781 282.65625 170.765625 283.058594 172.148438 C 283.457031 173.53125 284.003906 174.957031 284.585938 176.214844 C 285.203125 177.542969 286.054688 179.066406 286.78125 180.371094 C 287.144531 181.023438 287.476562 181.621094 287.726562 182.109375 C 287.851562 182.351562 287.960938 182.566406 288.039062 182.746094 C 288.117188 182.921875 288.171875 183.066406 288.191406 183.144531 C 288.234375 183.324219 288.414062 183.433594 288.59375 183.390625 C 288.773438 183.34375 288.882812 183.164062 288.839844 182.984375 " fill-opacity="1" fill-rule="nonzero"/><path fill="rgb(100%, 100%, 100%)" d="M 288.097656 181.097656 C 288.453125 182.425781 288.769531 183.761719 288.945312 185.125 C 289.109375 186.394531 289.15625 187.675781 289.199219 188.953125 C 289.285156 191.371094 289.339844 200.203125 289.3125 202.617188 L 303.832031 202.617188 C 303.847656 198.941406 303.945312 185.21875 303.945312 185.21875 C 304.546875 184.160156 307.6875 180.0625 307.574219 177.242188 C 307.46875 174.511719 307.464844 171.578125 307.449219 169.359375 C 307.480469 169.160156 307.5 168.980469 307.503906 168.835938 L 307.417969 167.121094 C 307.40625 166.722656 307.390625 166.402344 307.371094 166.171875 L 307.195312 162.617188 C 307.21875 161.171875 306.058594 159.964844 304.621094 159.941406 C 303.210938 159.914062 302.035156 161.027344 301.960938 162.429688 C 301.871094 162.414062 301.785156 162.398438 301.699219 162.378906 L 301.554688 160.363281 C 301.546875 158.917969 300.363281 157.738281 298.921875 157.746094 C 297.480469 157.75 296.308594 158.941406 296.3125 160.386719 L 296.316406 160.800781 C 296.175781 160.75 296.039062 160.695312 295.898438 160.640625 L 295.703125 158.289062 C 295.601562 156.847656 294.339844 155.75 292.902344 155.851562 C 291.464844 155.953125 290.371094 157.21875 290.472656 158.660156 L 290.515625 159.21875 C 290.339844 159.214844 290.171875 159.214844 290.003906 159.222656 C 289.085938 159.261719 289.128906 159.167969 289.242188 159.109375 C 289.132812 159.144531 288.933594 159.207031 288.585938 159.300781 C 287.789062 159.519531 287.007812 159.808594 286.285156 160.195312 C 285.351562 160.695312 285.246094 160.878906 285.222656 161.886719 C 285.207031 162.65625 285.203125 163.429688 285.214844 164.195312 " fill-opacity="1" fill-rule="nonzero"/><path fill="rgb(13.729858%, 12.159729%, 12.548828%)" d="M 287.773438 181.183594 C 288.128906 182.507812 288.441406 183.828125 288.617188 185.167969 C 288.777344 186.417969 288.824219 187.6875 288.867188 188.964844 C 288.9375 190.953125 288.984375 197.351562 288.984375 200.859375 C 288.984375 201.59375 288.980469 202.199219 288.980469 202.617188 C 288.976562 202.703125 289.011719 202.789062 289.074219 202.855469 C 289.136719 202.917969 289.222656 202.953125 289.3125 202.953125 L 303.832031 202.953125 C 304.015625 202.953125 304.164062 202.804688 304.164062 202.621094 C 304.171875 200.78125 304.203125 196.433594 304.230469 192.542969 C 304.242188 190.597656 304.253906 188.769531 304.265625 187.425781 C 304.269531 186.753906 304.273438 186.203125 304.277344 185.820312 C 304.277344 185.4375 304.28125 185.222656 304.28125 185.222656 L 303.945312 185.21875 L 304.234375 185.386719 C 304.371094 185.152344 304.671875 184.703125 305.039062 184.136719 C 305.597656 183.289062 306.308594 182.164062 306.882812 180.976562 C 307.460938 179.785156 307.910156 178.535156 307.910156 177.390625 C 307.910156 177.335938 307.910156 177.28125 307.910156 177.230469 L 307.910156 177.226562 C 307.800781 174.507812 307.796875 171.578125 307.78125 169.359375 L 307.449219 169.359375 L 307.777344 169.414062 C 307.8125 169.203125 307.835938 169.011719 307.835938 168.84375 L 307.835938 168.820312 L 307.75 167.101562 L 307.417969 167.121094 L 307.753906 167.109375 C 307.742188 166.710938 307.726562 166.382812 307.703125 166.140625 L 307.371094 166.171875 L 307.703125 166.15625 L 307.527344 162.601562 L 307.195312 162.617188 L 307.527344 162.621094 L 307.527344 162.570312 C 307.527344 160.960938 306.234375 159.636719 304.625 159.605469 L 304.574219 159.605469 C 303.003906 159.605469 301.710938 160.847656 301.625 162.414062 L 301.960938 162.429688 L 302.027344 162.101562 C 301.9375 162.085938 301.851562 162.066406 301.761719 162.050781 L 301.699219 162.378906 L 302.03125 162.355469 L 301.886719 160.339844 L 301.554688 160.363281 L 301.886719 160.363281 C 301.878906 158.734375 300.554688 157.410156 298.933594 157.410156 L 298.90625 157.410156 L 298.921875 157.746094 L 298.921875 157.410156 C 297.296875 157.417969 295.980469 158.75 295.976562 160.378906 L 296.066406 160.378906 L 295.976562 160.375 L 295.976562 160.378906 L 296.066406 160.378906 L 295.976562 160.375 C 295.976562 160.382812 295.976562 160.402344 295.980469 160.4375 L 296.3125 160.386719 L 295.980469 160.386719 L 295.980469 160.800781 L 296.316406 160.800781 L 296.433594 160.488281 C 296.296875 160.433594 296.15625 160.382812 296.019531 160.328125 L 295.898438 160.640625 L 296.234375 160.613281 L 296.035156 158.261719 L 295.703125 158.289062 L 296.035156 158.265625 C 295.921875 156.707031 294.621094 155.511719 293.085938 155.507812 C 293.015625 155.511719 292.949219 155.511719 292.878906 155.515625 C 291.328125 155.628906 290.136719 156.933594 290.132812 158.472656 C 290.132812 158.542969 290.136719 158.613281 290.140625 158.6875 L 290.140625 158.683594 L 290.179688 159.242188 L 290.515625 159.21875 L 290.527344 158.882812 C 290.4375 158.882812 290.347656 158.878906 290.257812 158.878906 C 290.167969 158.878906 290.078125 158.878906 289.988281 158.886719 C 289.832031 158.890625 289.707031 158.894531 289.609375 158.894531 C 289.453125 158.894531 289.359375 158.886719 289.332031 158.878906 L 289.328125 158.878906 L 289.308594 158.960938 L 289.335938 158.882812 L 289.328125 158.878906 L 289.308594 158.960938 L 289.335938 158.882812 L 289.246094 159.121094 L 289.417969 158.9375 C 289.375 158.898438 289.347656 158.886719 289.335938 158.882812 L 289.246094 159.121094 L 289.417969 158.9375 L 289.210938 159.160156 L 289.484375 159.027344 C 289.464844 158.984375 289.441406 158.957031 289.417969 158.9375 L 289.210938 159.160156 L 289.484375 159.027344 L 289.199219 159.164062 L 289.515625 159.164062 C 289.515625 159.117188 289.503906 159.066406 289.484375 159.027344 L 289.199219 159.164062 L 289.515625 159.164062 L 289.210938 159.164062 L 289.46875 159.332031 C 289.488281 159.300781 289.515625 159.242188 289.515625 159.164062 L 289.210938 159.164062 L 289.46875 159.332031 L 289.257812 159.195312 L 289.402344 159.402344 C 289.414062 159.394531 289.433594 159.382812 289.46875 159.332031 L 289.257812 159.195312 L 289.402344 159.402344 L 289.351562 159.332031 L 289.390625 159.410156 L 289.402344 159.402344 L 289.351562 159.332031 L 289.390625 159.410156 C 289.546875 159.332031 289.617188 159.144531 289.550781 158.984375 C 289.484375 158.820312 289.308594 158.738281 289.140625 158.789062 C 289.039062 158.824219 288.839844 158.882812 288.496094 158.980469 C 287.683594 159.203125 286.878906 159.496094 286.128906 159.898438 C 285.890625 160.027344 285.699219 160.136719 285.535156 160.257812 C 285.410156 160.347656 285.304688 160.441406 285.214844 160.554688 C 285.078125 160.726562 284.996094 160.925781 284.953125 161.140625 C 284.910156 161.355469 284.898438 161.589844 284.890625 161.878906 C 284.878906 162.347656 284.875 162.816406 284.875 163.28125 C 284.875 163.589844 284.875 163.894531 284.882812 164.203125 C 284.886719 164.386719 285.035156 164.535156 285.222656 164.53125 C 285.40625 164.53125 285.554688 164.375 285.550781 164.191406 C 285.542969 163.890625 285.542969 163.585938 285.542969 163.28125 C 285.542969 162.820312 285.546875 162.359375 285.558594 161.894531 C 285.5625 161.648438 285.574219 161.460938 285.597656 161.324219 C 285.617188 161.21875 285.636719 161.144531 285.667969 161.085938 C 285.710938 160.996094 285.765625 160.929688 285.882812 160.832031 C 286.003906 160.738281 286.1875 160.628906 286.445312 160.492188 C 287.140625 160.117188 287.894531 159.839844 288.671875 159.625 L 288.675781 159.625 C 289.023438 159.527344 289.226562 159.46875 289.34375 159.429688 L 289.242188 159.109375 L 289.09375 158.808594 C 289.0625 158.828125 289.027344 158.84375 288.984375 158.882812 C 288.960938 158.902344 288.933594 158.925781 288.90625 158.96875 C 288.878906 159.011719 288.847656 159.078125 288.847656 159.164062 C 288.847656 159.246094 288.882812 159.332031 288.921875 159.382812 C 289 159.476562 289.0625 159.496094 289.109375 159.515625 C 289.183594 159.539062 289.246094 159.546875 289.324219 159.554688 C 289.402344 159.5625 289.492188 159.566406 289.609375 159.566406 C 289.71875 159.566406 289.855469 159.5625 290.019531 159.554688 C 290.097656 159.550781 290.175781 159.550781 290.257812 159.550781 C 290.339844 159.550781 290.417969 159.550781 290.503906 159.554688 C 290.597656 159.558594 290.6875 159.519531 290.753906 159.453125 C 290.820312 159.386719 290.851562 159.289062 290.847656 159.195312 L 290.808594 158.636719 C 290.804688 158.582031 290.800781 158.53125 290.800781 158.472656 C 290.800781 157.289062 291.726562 156.269531 292.925781 156.1875 C 292.980469 156.183594 293.035156 156.179688 293.085938 156.179688 C 294.269531 156.179688 295.285156 157.109375 295.367188 158.3125 L 295.367188 158.320312 L 295.566406 160.667969 C 295.578125 160.796875 295.660156 160.910156 295.78125 160.957031 C 295.917969 161.007812 296.058594 161.0625 296.195312 161.113281 C 296.296875 161.152344 296.414062 161.140625 296.503906 161.078125 C 296.59375 161.015625 296.648438 160.910156 296.648438 160.800781 L 296.644531 160.386719 L 296.644531 160.339844 L 296.347656 160.382812 L 296.644531 160.378906 L 296.644531 160.339844 L 296.347656 160.382812 L 296.644531 160.378906 C 296.644531 159.121094 297.671875 158.085938 298.921875 158.082031 L 298.9375 158.082031 L 298.925781 157.863281 L 298.929688 158.082031 L 298.9375 158.082031 L 298.925781 157.863281 L 298.929688 158.082031 L 298.933594 158.082031 C 300.183594 158.078125 301.214844 159.109375 301.21875 160.367188 L 301.21875 160.386719 L 301.367188 162.402344 C 301.375 162.554688 301.488281 162.679688 301.632812 162.707031 C 301.71875 162.726562 301.808594 162.742188 301.894531 162.761719 C 301.988281 162.78125 302.089844 162.757812 302.164062 162.695312 C 302.242188 162.636719 302.289062 162.546875 302.292969 162.449219 C 302.355469 161.242188 303.363281 160.273438 304.574219 160.277344 L 304.613281 160.277344 C 305.855469 160.296875 306.859375 161.328125 306.859375 162.570312 L 306.859375 162.632812 L 307.035156 166.1875 L 307.035156 166.203125 C 307.058594 166.417969 307.074219 166.734375 307.085938 167.128906 L 307.085938 167.136719 L 307.171875 168.851562 L 307.503906 168.835938 L 307.171875 168.828125 C 307.167969 168.949219 307.152344 169.113281 307.121094 169.304688 L 307.113281 169.363281 C 307.128906 171.578125 307.132812 174.515625 307.242188 177.253906 L 307.242188 177.25 C 307.242188 177.296875 307.242188 177.34375 307.242188 177.390625 C 307.246094 178.03125 307.066406 178.773438 306.78125 179.535156 C 306.351562 180.679688 305.683594 181.859375 305.070312 182.847656 C 304.761719 183.347656 304.46875 183.792969 304.222656 184.167969 C 303.972656 184.542969 303.777344 184.839844 303.65625 185.054688 C 303.628906 185.105469 303.613281 185.160156 303.613281 185.21875 C 303.613281 185.21875 303.511719 198.941406 303.496094 202.617188 L 303.832031 202.617188 L 303.832031 202.28125 L 289.3125 202.28125 L 289.3125 202.617188 L 289.644531 202.621094 C 289.652344 202.203125 289.652344 201.59375 289.652344 200.859375 C 289.652344 197.339844 289.605469 190.953125 289.535156 188.941406 C 289.492188 187.664062 289.445312 186.371094 289.277344 185.082031 C 289.097656 183.695312 288.777344 182.34375 288.417969 181.007812 C 288.371094 180.832031 288.1875 180.726562 288.007812 180.773438 C 287.832031 180.820312 287.726562 181.003906 287.773438 181.183594 " fill-opacity="1" fill-rule="nonzero"/><path fill="rgb(100%, 100%, 100%)" d="M 285.179688 163.429688 C 285.144531 157.785156 285.207031 153.984375 285.089844 147.421875 C 285.066406 146.042969 284.929688 143.699219 285.089844 141.757812 C 285.40625 138.023438 288.894531 138.617188 289.339844 143.078125 C 289.75 147.230469 290.84375 157.425781 290.679688 161.597656 " fill-opacity="1" fill-rule="nonzero"/><path fill="rgb(13.729858%, 12.159729%, 12.548828%)" d="M 285.511719 163.429688 C 285.480469 157.789062 285.542969 153.984375 285.425781 147.417969 C 285.410156 146.527344 285.34375 145.253906 285.34375 143.949219 C 285.34375 143.214844 285.363281 142.472656 285.425781 141.785156 C 285.488281 141.007812 285.703125 140.453125 285.960938 140.117188 C 286.226562 139.777344 286.519531 139.640625 286.832031 139.636719 C 287.027344 139.636719 287.242188 139.699219 287.464844 139.828125 C 287.796875 140.027344 288.136719 140.394531 288.417969 140.941406 C 288.699219 141.488281 288.914062 142.210938 289.003906 143.109375 C 289.199219 145.046875 289.539062 148.292969 289.828125 151.628906 C 290.121094 154.964844 290.363281 158.390625 290.363281 160.667969 C 290.363281 161 290.359375 161.304688 290.347656 161.585938 C 290.339844 161.769531 290.484375 161.925781 290.667969 161.933594 C 290.851562 161.9375 291.007812 161.792969 291.015625 161.609375 C 291.023438 161.320312 291.03125 161.007812 291.03125 160.667969 C 291.03125 158.347656 290.785156 154.914062 290.496094 151.570312 C 290.203125 148.226562 289.863281 144.976562 289.667969 143.042969 C 289.539062 141.75 289.164062 140.75 288.660156 140.058594 C 288.40625 139.710938 288.117188 139.441406 287.808594 139.253906 C 287.496094 139.070312 287.164062 138.964844 286.832031 138.964844 C 286.300781 138.964844 285.792969 139.230469 285.433594 139.707031 C 285.070312 140.183594 284.832031 140.859375 284.757812 141.730469 C 284.695312 142.441406 284.675781 143.203125 284.675781 143.949219 C 284.675781 145.273438 284.738281 146.554688 284.757812 147.429688 C 284.875 153.984375 284.8125 157.785156 284.847656 163.433594 C 284.847656 163.617188 284.996094 163.765625 285.179688 163.765625 C 285.363281 163.761719 285.515625 163.613281 285.515625 163.429688 " fill-opacity="1" fill-rule="nonzero"/><path fill="rgb(100%, 100%, 100%)" d="M 288.003906 144.035156 C 286.863281 144.035156 286.417969 143.1875 286.386719 142.464844 C 286.378906 142.273438 286.367188 142.082031 286.351562 141.894531 C 286.332031 141.582031 286.308594 141.261719 286.308594 140.941406 C 286.308594 140.316406 286.773438 139.808594 287.339844 139.808594 L 287.382812 139.808594 C 288.070312 139.824219 288.671875 140.359375 288.84375 141.113281 L 288.914062 141.4375 C 289.082031 142.238281 289.277344 143.144531 288.855469 143.675781 C 288.667969 143.910156 288.382812 144.03125 288.019531 144.035156 L 288.003906 144.035156 " fill-opacity="1" fill-rule="nonzero"/><path fill="rgb(13.729858%, 12.159729%, 12.548828%)" d="M 287.339844 139.472656 C 286.585938 139.472656 285.972656 140.132812 285.972656 140.941406 C 285.972656 141.273438 285.996094 141.597656 286.019531 141.917969 C 286.03125 142.105469 286.046875 142.289062 286.054688 142.476562 C 286.097656 143.421875 286.714844 144.371094 288.003906 144.371094 L 288.023438 144.371094 C 288.609375 144.367188 288.941406 144.105469 289.117188 143.882812 C 289.636719 143.230469 289.425781 142.242188 289.238281 141.367188 L 289.214844 141.242188 L 289.207031 141.21875 C 289.195312 141.160156 289.179688 141.097656 289.167969 141.035156 C 288.964844 140.136719 288.234375 139.496094 287.390625 139.472656 Z M 287.339844 140.144531 L 287.371094 140.144531 C 287.910156 140.15625 288.378906 140.585938 288.515625 141.1875 C 288.53125 141.253906 288.546875 141.316406 288.558594 141.382812 C 288.769531 142.367188 289.097656 143.695312 288.019531 143.699219 L 288.003906 143.699219 C 286.90625 143.699219 286.738281 142.800781 286.722656 142.449219 C 286.699219 141.945312 286.640625 141.441406 286.640625 140.941406 C 286.640625 140.5 286.957031 140.144531 287.339844 140.144531 " fill-opacity="1" fill-rule="nonzero"/><path fill="rgb(100%, 100%, 100%)" d="M 286.871094 196.441406 C 286.785156 196.441406 286.699219 196.402344 286.636719 196.335938 C 286.574219 196.273438 286.542969 196.1875 286.542969 196.097656 L 286.6875 190.214844 C 286.691406 190.035156 286.839844 189.886719 287.019531 189.886719 L 306.527344 189.914062 C 306.617188 189.914062 306.703125 189.949219 306.765625 190.015625 C 306.828125 190.078125 306.863281 190.164062 306.863281 190.253906 L 306.796875 196.453125 C 306.796875 196.542969 306.761719 196.628906 306.699219 196.691406 C 306.636719 196.75 306.550781 196.785156 306.464844 196.785156 L 286.871094 196.441406 " fill-opacity="1" fill-rule="nonzero"/><path fill="rgb(13.729858%, 12.159729%, 12.548828%)" d="M 287.019531 189.554688 C 286.660156 189.554688 286.363281 189.84375 286.351562 190.207031 L 286.210938 196.089844 C 286.207031 196.269531 286.273438 196.441406 286.394531 196.570312 C 286.519531 196.699219 286.6875 196.773438 286.867188 196.777344 L 306.453125 197.121094 L 306.464844 197.121094 C 306.640625 197.121094 306.804688 197.050781 306.929688 196.929688 C 307.058594 196.804688 307.132812 196.636719 307.132812 196.457031 L 307.195312 190.257812 C 307.199219 190.078125 307.128906 189.90625 307.003906 189.78125 C 306.878906 189.652344 306.707031 189.582031 306.53125 189.582031 L 287.023438 189.554688 Z M 287.019531 190.222656 L 306.527344 190.25 L 306.464844 196.449219 L 286.878906 196.105469 L 287.019531 190.222656 " fill-opacity="1" fill-rule="nonzero"/><g clip-path="url(#clip-4)"><path fill="rgb(100%, 100%, 100%)" d="M 284.664062 224.726562 C 284.480469 224.726562 284.332031 224.578125 284.332031 224.390625 L 284.238281 194.5 C 284.238281 194.3125 284.386719 194.164062 284.570312 194.160156 L 308.246094 194.085938 C 308.335938 194.085938 308.421875 194.121094 308.484375 194.183594 C 308.546875 194.246094 308.582031 194.332031 308.582031 194.421875 L 308.675781 224.390625 C 308.675781 224.480469 308.640625 224.566406 308.578125 224.628906 C 308.515625 224.691406 308.429688 224.726562 308.34375 224.726562 L 284.664062 224.726562 " fill-opacity="1" fill-rule="nonzero"/></g><g clip-path="url(#clip-5)"><path fill="rgb(13.729858%, 12.159729%, 12.548828%)" d="M 308.246094 193.753906 L 284.570312 193.828125 C 284.199219 193.828125 283.902344 194.128906 283.902344 194.5 L 283.996094 224.394531 C 284 224.761719 284.296875 225.0625 284.664062 225.0625 L 308.34375 225.0625 C 308.519531 225.0625 308.6875 224.992188 308.8125 224.863281 C 308.9375 224.738281 309.011719 224.566406 309.011719 224.390625 L 308.914062 194.421875 C 308.914062 194.242188 308.84375 194.070312 308.71875 193.945312 C 308.59375 193.820312 308.425781 193.753906 308.246094 193.753906 Z M 308.246094 194.421875 L 308.34375 224.390625 L 284.664062 224.390625 L 284.570312 194.496094 L 308.246094 194.421875 " fill-opacity="1" fill-rule="nonzero"/></g></svg>