<?xml version="1.0" encoding="UTF-8"?><svg xmlns="http://www.w3.org/2000/svg" xmlns:xlink="http://www.w3.org/1999/xlink" width="375" zoomAndPan="magnify" viewBox="0 0 375 209.999996" height="209.999996" preserveAspectRatio="xMidYMid meet" version="1.0"><defs><clipPath id="clip-0"><path d="M 273.171875 21 L 354.171875 21 L 354.171875 89.25 L 273.171875 89.25 Z M 273.171875 21 " clip-rule="nonzero"/></clipPath><clipPath id="clip-1"><path d="M 151.417969 82.917969 L 237.242188 82.917969 L 237.242188 132.671875 L 151.417969 132.671875 Z M 151.417969 82.917969 " clip-rule="nonzero"/></clipPath><clipPath id="clip-2"><path d="M 21.523438 128 L 97.652344 128 L 97.652344 188.644531 L 21.523438 188.644531 Z M 21.523438 128 " clip-rule="nonzero"/></clipPath><clipPath id="clip-3"><path d="M 31.84375 186.714844 L 45.609375 186.714844 L 45.609375 188.644531 L 31.84375 188.644531 Z M 31.84375 186.714844 " clip-rule="nonzero"/></clipPath><clipPath id="clip-4"><path d="M 31.414062 159.695312 L 69.265625 159.695312 L 69.265625 188.644531 L 31.414062 188.644531 Z M 31.414062 159.695312 " clip-rule="nonzero"/></clipPath></defs><rect x="-37.5" width="450" fill="rgb(100%, 100%, 100%)" y="-21" height="251.999995" fill-opacity="1"/><rect x="-37.5" width="450" fill="rgb(98.039246%, 95.289612%, 87.838745%)" y="-21" height="251.999995" fill-opacity="1"/><path fill="rgb(97.648621%, 65.489197%, 16.859436%)" d="M 313.566406 69.296875 C 311.308594 69.296875 309.59375 50.492188 309.59375 48.238281 C 309.59375 45.980469 311.425781 44.152344 313.683594 44.152344 C 315.941406 44.152344 317.773438 45.980469 317.773438 48.238281 C 317.773438 50.492188 315.824219 69.296875 313.566406 69.296875 M 313.683594 79.386719 C 311.476562 79.386719 309.683594 77.597656 309.683594 75.394531 C 309.683594 73.1875 311.476562 71.398438 313.683594 71.398438 C 315.894531 71.398438 317.683594 73.1875 317.683594 75.394531 C 317.683594 77.597656 315.894531 79.386719 313.683594 79.386719 M 352.613281 84.066406 L 315.9375 23.109375 C 315.117188 22.054688 314.351562 21.742188 313.683594 21.78125 C 313.015625 21.742188 312.25 22.054688 311.429688 23.109375 L 274.757812 84.066406 C 273.386719 85.863281 274.007812 88.351562 275.863281 88.496094 L 351.503906 88.496094 C 353.359375 88.351562 353.984375 85.863281 352.613281 84.066406 " fill-opacity="1" fill-rule="nonzero"/><path fill="rgb(100%, 100%, 100%)" d="M 313.683594 44.152344 C 311.425781 44.152344 309.59375 45.980469 309.59375 48.238281 C 309.59375 50.492188 311.308594 69.296875 313.566406 69.296875 C 315.824219 69.296875 317.773438 50.492188 317.773438 48.238281 C 317.773438 45.980469 315.941406 44.152344 313.683594 44.152344 " fill-opacity="1" fill-rule="nonzero"/><path fill="rgb(100%, 100%, 100%)" d="M 313.683594 71.398438 C 311.476562 71.398438 309.683594 73.1875 309.683594 75.394531 C 309.683594 77.597656 311.476562 79.386719 313.683594 79.386719 C 315.894531 79.386719 317.683594 77.597656 317.683594 75.394531 C 317.683594 73.1875 315.894531 71.398438 313.683594 71.398438 " fill-opacity="1" fill-rule="nonzero"/><path fill="rgb(97.648621%, 65.489197%, 16.859436%)" d="M 351.46875 87.722656 L 275.898438 87.722656 C 275.722656 87.707031 275.582031 87.660156 275.457031 87.589844 C 275.261719 87.480469 275.101562 87.3125 274.980469 87.074219 C 274.859375 86.835938 274.785156 86.53125 274.785156 86.191406 C 274.785156 85.664062 274.964844 85.0625 275.371094 84.535156 C 275.390625 84.507812 275.402344 84.492188 275.417969 84.464844 L 312.070312 23.546875 C 312.398438 23.128906 312.695312 22.878906 312.941406 22.734375 C 313.191406 22.589844 313.386719 22.550781 313.574219 22.546875 C 313.59375 22.546875 313.613281 22.546875 313.636719 22.550781 C 313.652344 22.550781 313.667969 22.550781 313.683594 22.550781 C 313.703125 22.550781 313.722656 22.550781 313.738281 22.550781 C 313.753906 22.546875 313.769531 22.546875 313.796875 22.546875 C 313.980469 22.550781 314.171875 22.589844 314.429688 22.734375 C 314.671875 22.878906 314.96875 23.128906 315.300781 23.546875 L 351.949219 84.464844 C 351.964844 84.492188 351.976562 84.507812 351.996094 84.535156 L 352.609375 84.066406 L 352.613281 84.066406 L 351.996094 84.535156 C 352.402344 85.0625 352.582031 85.664062 352.582031 86.191406 C 352.582031 86.644531 352.449219 87.035156 352.253906 87.289062 C 352.152344 87.417969 352.039062 87.519531 351.910156 87.589844 C 351.785156 87.660156 351.644531 87.707031 351.46875 87.722656 M 309.683594 75.394531 C 309.683594 77.597656 311.476562 79.386719 313.683594 79.386719 C 315.023438 79.386719 316.210938 78.730469 316.9375 77.71875 C 317.40625 77.066406 317.683594 76.261719 317.683594 75.394531 C 317.683594 73.1875 315.894531 71.398438 313.683594 71.398438 C 311.476562 71.398438 309.683594 73.1875 309.683594 75.394531 M 313.566406 69.296875 C 315.824219 69.296875 317.773438 50.492188 317.773438 48.238281 C 317.773438 45.980469 315.941406 44.152344 313.683594 44.152344 C 312.554688 44.152344 311.53125 44.609375 310.792969 45.347656 C 310.792969 45.347656 310.792969 45.347656 310.792969 45.351562 C 310.050781 46.089844 309.59375 47.109375 309.59375 48.238281 C 309.59375 50.492188 311.308594 69.296875 313.566406 69.296875 " fill-opacity="1" fill-rule="nonzero"/><path fill="rgb(100%, 100%, 100%)" d="M 313.566406 69.296875 C 311.308594 69.296875 309.59375 50.492188 309.59375 48.238281 C 309.59375 50.492188 311.308594 69.296875 313.566406 69.296875 M 310.792969 45.351562 C 310.792969 45.347656 310.792969 45.347656 310.792969 45.347656 C 310.792969 45.347656 310.792969 45.347656 310.792969 45.351562 M 310.792969 45.347656 C 311.53125 44.609375 312.554688 44.152344 313.683594 44.152344 C 312.554688 44.152344 311.53125 44.609375 310.792969 45.347656 " fill-opacity="1" fill-rule="nonzero"/><path fill="rgb(100%, 100%, 100%)" d="M 313.683594 79.386719 C 311.476562 79.386719 309.683594 77.597656 309.683594 75.394531 C 309.683594 77.597656 311.476562 79.386719 313.683594 79.386719 C 315.023438 79.386719 316.210938 78.730469 316.9375 77.71875 C 316.210938 78.730469 315.023438 79.386719 313.683594 79.386719 " fill-opacity="1" fill-rule="nonzero"/><g clip-path="url(#clip-0)"><path fill="rgb(13.729858%, 12.159729%, 12.548828%)" d="M 351.503906 89.265625 L 275.863281 89.265625 L 275.804688 89.261719 C 275.40625 89.234375 275.03125 89.121094 274.703125 88.9375 C 274.378906 88.757812 274.101562 88.507812 273.886719 88.222656 C 273.449219 87.648438 273.242188 86.933594 273.242188 86.191406 C 273.242188 85.332031 273.523438 84.425781 274.113281 83.632812 L 310.769531 22.714844 C 310.785156 22.683594 310.800781 22.664062 310.820312 22.636719 C 311.253906 22.082031 311.695312 21.675781 312.164062 21.402344 C 312.625 21.132812 313.109375 21.007812 313.5625 21.007812 C 313.566406 21.007812 313.570312 21.007812 313.574219 21.007812 C 313.609375 21.007812 313.648438 21.007812 313.683594 21.007812 C 313.722656 21.007812 313.761719 21.007812 313.796875 21.007812 C 313.796875 21.007812 313.800781 21.007812 313.804688 21.007812 C 314.257812 21.007812 314.742188 21.132812 315.203125 21.402344 C 315.671875 21.671875 316.113281 22.078125 316.550781 22.636719 C 316.570312 22.664062 316.585938 22.683594 316.601562 22.714844 L 353.25 83.632812 C 353.84375 84.425781 354.125 85.335938 354.125 86.191406 C 354.125 86.75 354.007812 87.289062 353.765625 87.769531 C 353.527344 88.246094 353.152344 88.667969 352.664062 88.9375 C 352.335938 89.121094 351.960938 89.234375 351.5625 89.261719 L 351.503906 89.265625 M 313.574219 21.777344 C 312.933594 21.777344 312.203125 22.109375 311.429688 23.109375 L 274.757812 84.066406 C 273.386719 85.863281 274.007812 88.351562 275.863281 88.496094 L 351.503906 88.496094 C 353.359375 88.351562 353.984375 85.863281 352.613281 84.066406 L 353.273438 83.667969 L 352.613281 84.066406 L 352.609375 84.066406 L 315.9375 23.109375 C 315.164062 22.113281 314.433594 21.777344 313.796875 21.777344 C 313.757812 21.777344 313.722656 21.777344 313.683594 21.78125 C 313.648438 21.777344 313.609375 21.777344 313.574219 21.777344 " fill-opacity="1" fill-rule="nonzero"/></g><path fill="rgb(12.159729%, 6.669617%, 1.179504%)" d="M 351.503906 88.496094 L 275.863281 88.496094 C 274.007812 88.351562 273.386719 85.863281 274.757812 84.066406 L 311.429688 23.109375 C 312.203125 22.109375 312.933594 21.777344 313.574219 21.777344 C 313.609375 21.777344 313.648438 21.777344 313.683594 21.78125 C 313.722656 21.777344 313.757812 21.777344 313.796875 21.777344 C 314.433594 21.777344 315.164062 22.113281 315.9375 23.109375 L 352.613281 84.066406 L 351.996094 84.535156 C 351.976562 84.507812 351.964844 84.492188 351.949219 84.464844 L 315.300781 23.546875 C 314.96875 23.128906 314.671875 22.878906 314.429688 22.734375 C 314.171875 22.589844 313.980469 22.550781 313.796875 22.546875 C 313.769531 22.546875 313.753906 22.546875 313.738281 22.550781 C 313.722656 22.550781 313.703125 22.550781 313.683594 22.550781 C 313.667969 22.550781 313.652344 22.550781 313.636719 22.550781 C 313.613281 22.546875 313.59375 22.546875 313.574219 22.546875 C 313.386719 22.550781 313.191406 22.589844 312.941406 22.734375 C 312.695312 22.878906 312.398438 23.128906 312.070312 23.546875 L 275.417969 84.464844 C 275.402344 84.492188 275.390625 84.507812 275.371094 84.535156 C 274.964844 85.0625 274.785156 85.664062 274.785156 86.191406 C 274.785156 86.53125 274.859375 86.835938 274.980469 87.074219 C 275.101562 87.3125 275.261719 87.480469 275.457031 87.589844 C 275.582031 87.660156 275.722656 87.707031 275.898438 87.722656 L 351.46875 87.722656 C 351.644531 87.707031 351.785156 87.660156 351.910156 87.589844 C 352.039062 87.519531 352.152344 87.417969 352.253906 87.289062 C 352.449219 87.035156 352.582031 86.644531 352.582031 86.191406 C 352.582031 85.664062 352.402344 85.0625 351.996094 84.535156 L 352.609375 84.066406 L 352.613281 84.066406 C 353.984375 85.863281 353.359375 88.351562 351.503906 88.496094 " fill-opacity="1" fill-rule="nonzero"/><path fill="rgb(12.159729%, 6.669617%, 1.179504%)" d="M 313.566406 69.296875 C 315.824219 69.296875 317.773438 50.492188 317.773438 48.238281 C 317.773438 45.980469 315.941406 44.152344 313.683594 44.152344 C 315.941406 44.152344 317.773438 45.980469 317.773438 48.238281 C 317.773438 50.492188 315.824219 69.296875 313.566406 69.296875 " fill-opacity="1" fill-rule="nonzero"/><path fill="rgb(12.159729%, 6.669617%, 1.179504%)" d="M 309.59375 48.238281 C 309.59375 47.109375 310.050781 46.089844 310.792969 45.351562 C 310.050781 46.089844 309.59375 47.109375 309.59375 48.238281 " fill-opacity="1" fill-rule="nonzero"/><path fill="rgb(13.729858%, 12.159729%, 12.548828%)" d="M 313.566406 69.296875 C 311.308594 69.296875 309.59375 50.492188 309.59375 48.238281 C 309.59375 47.109375 310.050781 46.089844 310.792969 45.351562 C 310.792969 45.347656 310.792969 45.347656 310.792969 45.347656 C 311.53125 44.609375 312.554688 44.152344 313.683594 44.152344 C 315.941406 44.152344 317.773438 45.980469 317.773438 48.238281 C 317.773438 50.492188 315.824219 69.296875 313.566406 69.296875 " fill-opacity="1" fill-rule="nonzero"/><path fill="rgb(12.159729%, 6.669617%, 1.179504%)" d="M 316.9375 77.71875 C 317.40625 77.066406 317.683594 76.261719 317.683594 75.394531 C 317.683594 73.1875 315.894531 71.398438 313.683594 71.398438 C 311.476562 71.398438 309.683594 73.1875 309.683594 75.394531 C 309.683594 73.1875 311.476562 71.398438 313.683594 71.398438 C 315.894531 71.398438 317.683594 73.1875 317.683594 75.394531 C 317.683594 76.261719 317.40625 77.066406 316.9375 77.71875 " fill-opacity="1" fill-rule="nonzero"/><path fill="rgb(13.729858%, 12.159729%, 12.548828%)" d="M 313.683594 79.386719 C 311.476562 79.386719 309.683594 77.597656 309.683594 75.394531 C 309.683594 73.1875 311.476562 71.398438 313.683594 71.398438 C 315.894531 71.398438 317.683594 73.1875 317.683594 75.394531 C 317.683594 76.261719 317.40625 77.066406 316.9375 77.71875 C 316.210938 78.730469 315.023438 79.386719 313.683594 79.386719 " fill-opacity="1" fill-rule="nonzero"/><g clip-path="url(#clip-1)"><path fill="rgb(98.039246%, 98.429871%, 98.429871%)" d="M 151.550781 92.363281 C 151.464844 89.019531 154.691406 86.402344 157.960938 85.632812 C 161.230469 84.816406 164.671875 85.246094 167.980469 84.773438 C 171.636719 84.304688 175.167969 82.757812 178.824219 82.929688 C 185.746094 83.230469 190.867188 89.105469 196.714844 92.835938 C 199.253906 94.46875 213.574219 95.453125 223.640625 102.273438 C 225.402344 103.476562 227.210938 104.546875 229.148438 105.40625 C 231.726562 106.5625 234.09375 106.21875 235.46875 109.007812 C 236.976562 112.09375 237.621094 115.527344 237.015625 118.917969 C 235.296875 128.78125 226.4375 132.597656 217.320312 132.253906 C 216.585938 132.210938 215.855469 132.167969 215.167969 131.914062 C 213.53125 131.269531 212.113281 128.652344 210.953125 127.367188 C 209.230469 125.433594 207.46875 123.546875 205.960938 121.488281 C 205.230469 120.503906 204.414062 119.472656 203.339844 118.871094 C 201.445312 117.84375 199.164062 118.359375 197.015625 118.527344 C 189.617188 119.171875 182.347656 115.742188 176.542969 111.109375 C 170.691406 106.476562 165.960938 100.6875 160.542969 95.582031 C 158.433594 93.695312 154.304688 91.59375 151.550781 92.363281 " fill-opacity="1" fill-rule="nonzero"/></g><path fill="rgb(18.818665%, 30.589294%, 62.348938%)" d="M 214.996094 131.867188 C 214.910156 131.867188 214.78125 131.824219 214.695312 131.785156 C 213.015625 130.453125 211.46875 128.953125 210.09375 127.320312 C 209.359375 126.464844 208.628906 125.390625 207.941406 124.320312 C 206.046875 121.488281 204.070312 118.574219 201.273438 119 C 199.253906 119.300781 196.628906 119.214844 194.476562 119.128906 L 193.917969 119.128906 C 190.777344 119 188.027344 118.359375 185.703125 117.15625 C 182.996094 115.742188 180.886719 113.597656 179.855469 111.066406 C 179.769531 110.808594 179.855469 110.550781 180.113281 110.46875 C 180.371094 110.378906 180.628906 110.46875 180.714844 110.722656 C 181.660156 113.039062 183.597656 115.011719 186.132812 116.34375 C 188.328125 117.457031 190.953125 118.101562 193.960938 118.230469 L 194.523438 118.230469 C 196.628906 118.316406 199.210938 118.402344 201.144531 118.101562 C 204.542969 117.585938 206.691406 120.761719 208.714844 123.804688 C 209.445312 124.878906 210.09375 125.863281 210.824219 126.722656 C 212.199219 128.308594 213.703125 129.769531 215.339844 131.097656 C 215.554688 131.269531 215.554688 131.570312 215.425781 131.738281 C 215.253906 131.824219 215.125 131.867188 214.996094 131.867188 " fill-opacity="1" fill-rule="nonzero"/><path fill="rgb(18.818665%, 30.589294%, 62.348938%)" d="M 232.542969 107.589844 C 232.457031 107.589844 232.414062 107.589844 232.328125 107.550781 C 229.878906 106.304688 227.425781 104.890625 225.015625 103.5625 C 218.910156 100.085938 212.628906 96.527344 205.789062 95.152344 C 198.480469 93.652344 191.46875 90.648438 185.359375 86.402344 C 182.003906 84.089844 177.703125 83.914062 173.746094 84.214844 C 170.390625 84.472656 167.078125 84.859375 163.722656 85.289062 C 160.886719 85.675781 157.703125 85.847656 155.464844 87.863281 C 154.132812 89.0625 153.316406 90.863281 151.722656 91.722656 C 151.59375 91.765625 151.464844 91.851562 151.378906 91.765625 C 151.25 91.679688 151.292969 91.464844 151.378906 91.335938 C 153.703125 87.089844 157.960938 84.902344 162.691406 84.644531 C 164.371094 84.558594 166.046875 84.257812 167.679688 84 C 174.132812 83.101562 180.84375 82.160156 185.917969 85.675781 C 191.898438 89.835938 198.824219 92.792969 205.960938 94.253906 C 212.972656 95.667969 219.339844 99.269531 225.492188 102.789062 C 227.855469 104.117188 230.308594 105.535156 232.757812 106.777344 C 232.972656 106.90625 233.105469 107.164062 232.972656 107.421875 C 232.84375 107.507812 232.714844 107.589844 232.542969 107.589844 " fill-opacity="1" fill-rule="nonzero"/><path fill="rgb(84.709167%, 87.449646%, 93.328857%)" d="M 220.046875 132.230469 C 222.101562 132.113281 224.101562 131.773438 225.976562 131.179688 C 225.753906 131.277344 225.542969 131.363281 225.492188 131.398438 C 223.640625 132.003906 221.855469 132.222656 220.046875 132.230469 M 215.089844 131.878906 C 215.058594 131.875 215.027344 131.871094 214.996094 131.867188 C 215.015625 131.867188 215.035156 131.867188 215.058594 131.867188 C 215.070312 131.871094 215.078125 131.875 215.089844 131.878906 M 188.933594 118.398438 C 188.363281 118.351562 187.792969 118.285156 187.214844 118.199219 C 187.195312 118.070312 187.179688 117.941406 187.160156 117.816406 C 187.726562 118.039062 188.320312 118.234375 188.933594 118.398438 " fill-opacity="1" fill-rule="nonzero"/><path fill="rgb(81.959534%, 85.099792%, 91.369629%)" d="M 219.929688 132.230469 C 218.351562 132.230469 216.757812 132.074219 215.089844 131.878906 C 215.078125 131.875 215.070312 131.871094 215.058594 131.867188 C 215.167969 131.855469 215.28125 131.8125 215.425781 131.738281 C 215.554688 131.570312 215.554688 131.269531 215.339844 131.097656 C 213.703125 129.769531 212.199219 128.308594 210.824219 126.722656 C 210.09375 125.863281 209.445312 124.878906 208.714844 123.804688 C 206.839844 120.980469 204.855469 118.042969 201.863281 118.042969 C 201.628906 118.042969 201.390625 118.0625 201.144531 118.101562 C 200.121094 118.257812 198.917969 118.308594 197.699219 118.308594 C 196.613281 118.308594 195.515625 118.269531 194.523438 118.230469 L 193.960938 118.230469 C 191.339844 118.117188 189.015625 117.617188 187.011719 116.753906 C 186.925781 116.132812 186.84375 115.511719 186.765625 114.886719 C 186.6875 114.285156 186.613281 113.679688 186.542969 113.070312 C 187.550781 112.917969 188.5625 112.753906 189.570312 112.574219 C 190.363281 112.554688 191.25 112.382812 192.0625 112.066406 C 194.464844 111.511719 196.804688 110.753906 198.949219 109.566406 C 201.660156 110.550781 203.683594 112.613281 205.703125 114.628906 C 208.714844 117.671875 211.855469 120.589844 215.082031 123.375 C 216.671875 124.75 224.5 130.539062 226.566406 130.796875 C 226.640625 130.871094 226.296875 131.039062 225.976562 131.179688 C 224.101562 131.773438 222.101562 132.113281 220.046875 132.230469 C 220.007812 132.230469 219.96875 132.230469 219.929688 132.230469 " fill-opacity="1" fill-rule="nonzero"/><path fill="rgb(18.818665%, 30.589294%, 62.348938%)" d="M 214.996094 131.867188 C 211.8125 129.253906 209.273438 125.519531 207.082031 122.046875 C 206.390625 120.933594 204.5 119.515625 203.339844 118.917969 C 202.707031 118.574219 201.882812 118.535156 201.089844 118.535156 C 200.976562 118.535156 200.859375 118.535156 200.75 118.535156 C 200.636719 118.539062 200.527344 118.539062 200.417969 118.539062 C 200.253906 118.539062 200.09375 118.535156 199.941406 118.527344 C 199.117188 118.492188 198.304688 118.476562 197.496094 118.476562 C 196.660156 118.476562 195.832031 118.492188 195.003906 118.503906 C 194.179688 118.519531 193.359375 118.535156 192.535156 118.535156 C 191.339844 118.535156 190.140625 118.503906 188.933594 118.398438 C 188.320312 118.234375 187.726562 118.039062 187.160156 117.816406 C 187.109375 117.460938 187.058594 117.109375 187.011719 116.753906 C 189.015625 117.617188 191.339844 118.117188 193.960938 118.230469 L 194.523438 118.230469 C 195.515625 118.269531 196.613281 118.308594 197.699219 118.308594 C 198.917969 118.308594 200.121094 118.257812 201.144531 118.101562 C 201.390625 118.0625 201.628906 118.042969 201.863281 118.042969 C 204.855469 118.042969 206.839844 120.980469 208.714844 123.804688 C 209.445312 124.878906 210.09375 125.863281 210.824219 126.722656 C 212.199219 128.308594 213.703125 129.769531 215.339844 131.097656 C 215.554688 131.269531 215.554688 131.570312 215.425781 131.738281 C 215.28125 131.8125 215.167969 131.855469 215.058594 131.867188 C 215.035156 131.867188 215.015625 131.867188 214.996094 131.867188 " fill-opacity="1" fill-rule="nonzero"/><path fill="rgb(98.81897%, 82.749939%, 47.44873%)" d="M 184.027344 85.375 C 185.273438 98.414062 185.960938 113.855469 188.714844 126.679688 C 155.421875 130.023438 124.066406 135.644531 90.257812 140.53125 C 88.753906 126.421875 86.347656 112.351562 82.992188 98.542969 C 115.25 94.125 151.980469 90.949219 184.027344 85.375 " fill-opacity="1" fill-rule="nonzero"/><path fill="rgb(84.709167%, 87.449646%, 93.328857%)" d="M 165.507812 129.375 C 173.171875 128.378906 180.890625 127.464844 188.714844 126.679688 C 180.890625 127.464844 173.171875 128.378906 165.507812 129.375 " fill-opacity="1" fill-rule="nonzero"/><path fill="rgb(81.959534%, 85.099792%, 91.369629%)" d="M 186.542969 113.070312 C 186.503906 112.765625 186.46875 112.457031 186.433594 112.152344 C 186.433594 112.152344 186.4375 112.152344 186.441406 112.152344 C 186.476562 112.460938 186.511719 112.765625 186.542969 113.070312 " fill-opacity="1" fill-rule="nonzero"/><path fill="rgb(68.629456%, 74.119568%, 85.879517%)" d="M 186.765625 114.886719 C 186.6875 114.28125 186.613281 113.679688 186.542969 113.070312 C 186.613281 113.679688 186.6875 114.285156 186.765625 114.886719 " fill-opacity="1" fill-rule="nonzero"/><path fill="rgb(81.959534%, 85.099792%, 91.369629%)" d="M 185.171875 98.851562 C 184.820312 94.625 184.496094 90.460938 184.132812 86.503906 C 184.140625 86.5 184.148438 86.496094 184.15625 86.488281 C 184.539062 90.453125 184.863281 94.613281 185.207031 98.84375 C 185.195312 98.847656 185.183594 98.847656 185.171875 98.851562 " fill-opacity="1" fill-rule="nonzero"/><path fill="rgb(81.959534%, 72.938538%, 50.588989%)" d="M 165.507812 129.375 C 165.417969 126.933594 165.351562 124.492188 165.316406 122.046875 C 158.386719 122.835938 151.273438 123.734375 144.050781 124.679688 C 148.179688 123.160156 152.0625 121.441406 155.507812 119.429688 C 163.089844 115.019531 168.53125 109.160156 172.609375 103.589844 C 173.757812 104.296875 174.949219 104.941406 176.242188 105.320312 C 176.796875 105.492188 177.371094 105.609375 177.898438 105.828125 C 178.902344 107.125 179.445312 108.894531 180.714844 109.996094 C 181.53125 110.679688 182.648438 111.023438 183.679688 111.367188 C 184.59375 111.648438 185.507812 111.929688 186.433594 112.152344 C 186.46875 112.457031 186.503906 112.765625 186.542969 113.070312 C 186.613281 113.679688 186.6875 114.28125 186.765625 114.886719 C 187.273438 118.957031 187.898438 122.933594 188.714844 126.679688 C 180.890625 127.464844 173.171875 128.378906 165.507812 129.375 M 179.675781 99.925781 C 178.28125 99.925781 176.882812 99.714844 175.550781 99.304688 C 179.601562 93.027344 182.03125 87.796875 184.132812 86.503906 C 184.496094 90.460938 184.820312 94.625 185.171875 98.851562 C 184.632812 99 184.101562 99.191406 183.554688 99.355469 C 182.296875 99.738281 180.988281 99.925781 179.675781 99.925781 " fill-opacity="1" fill-rule="nonzero"/><path fill="rgb(98.039246%, 98.429871%, 98.429871%)" d="M 194.390625 110.722656 C 189.617188 113.425781 182.910156 111.96875 179.683594 107.507812 C 179.339844 107.035156 179.039062 106.5625 178.605469 106.21875 C 177.917969 105.707031 177.058594 105.574219 176.242188 105.320312 C 174.347656 104.761719 172.671875 103.644531 171.035156 102.574219 C 169.917969 101.84375 168.800781 101.03125 168.109375 99.871094 C 167.425781 98.714844 167.894531 96.914062 168.886719 96.011719 C 170.304688 96.484375 171.511719 97.425781 172.84375 98.15625 C 176.070312 99.957031 180.023438 100.429688 183.554688 99.355469 C 184.542969 99.058594 185.488281 98.671875 186.476562 98.628906 C 190.347656 98.457031 194.863281 97.125 198.347656 98.84375 L 194.390625 110.722656 " fill-opacity="1" fill-rule="nonzero"/><path fill="rgb(81.959534%, 85.099792%, 91.369629%)" d="M 189.4375 112.574219 C 189.355469 112.574219 189.269531 112.570312 189.1875 112.566406 C 188.253906 112.527344 187.34375 112.367188 186.441406 112.152344 C 186.425781 112.03125 186.414062 111.910156 186.398438 111.789062 C 187.269531 111.984375 188.160156 112.082031 189.046875 112.082031 C 190.675781 112.082031 192.292969 111.75 193.761719 111.050781 C 193.296875 111.476562 192.703125 111.8125 192.0625 112.066406 C 191.238281 112.253906 190.40625 112.421875 189.570312 112.574219 C 189.527344 112.574219 189.484375 112.574219 189.4375 112.574219 " fill-opacity="1" fill-rule="nonzero"/><path fill="rgb(68.629456%, 74.119568%, 85.879517%)" d="M 189.570312 112.574219 C 190.40625 112.421875 191.238281 112.253906 192.0625 112.066406 C 191.25 112.382812 190.363281 112.554688 189.570312 112.574219 " fill-opacity="1" fill-rule="nonzero"/><path fill="rgb(68.629456%, 74.119568%, 85.879517%)" d="M 186.441406 112.152344 C 186.4375 112.152344 186.433594 112.152344 186.433594 112.152344 C 186.421875 112.03125 186.40625 111.910156 186.390625 111.785156 C 186.394531 111.785156 186.398438 111.789062 186.398438 111.789062 C 186.414062 111.910156 186.425781 112.03125 186.441406 112.152344 " fill-opacity="1" fill-rule="nonzero"/><path fill="rgb(67.83905%, 65.098572%, 54.508972%)" d="M 186.433594 112.152344 C 185.507812 111.929688 184.59375 111.648438 183.679688 111.367188 C 182.648438 111.023438 181.53125 110.679688 180.714844 109.996094 C 179.445312 108.894531 178.902344 107.125 177.898438 105.828125 C 178.148438 105.929688 178.386719 106.054688 178.605469 106.21875 C 179.039062 106.5625 179.339844 107.035156 179.683594 107.507812 C 181.28125 109.71875 183.738281 111.195312 186.390625 111.785156 C 186.40625 111.910156 186.421875 112.03125 186.433594 112.152344 " fill-opacity="1" fill-rule="nonzero"/><path fill="rgb(81.959534%, 85.099792%, 91.369629%)" d="M 194.945312 109.0625 L 195.34375 107.863281 C 195.25 108.265625 195.105469 108.671875 194.945312 109.0625 " fill-opacity="1" fill-rule="nonzero"/><path fill="rgb(81.959534%, 85.099792%, 91.369629%)" d="M 189.046875 112.082031 C 188.160156 112.082031 187.269531 111.984375 186.398438 111.789062 C 186.398438 111.789062 186.394531 111.785156 186.390625 111.785156 C 183.738281 111.195312 181.28125 109.71875 179.683594 107.507812 C 179.339844 107.035156 179.039062 106.5625 178.605469 106.21875 C 178.386719 106.054688 178.148438 105.929688 177.898438 105.828125 C 177.609375 105.453125 177.28125 105.117188 176.886719 104.847656 C 176.070312 104.289062 175.035156 104.117188 174.089844 103.820312 C 172.84375 103.476562 171.679688 102.917969 170.605469 102.1875 C 169.832031 101.675781 168.714844 100.730469 168.285156 99.871094 C 167.855469 99.101562 168.410156 97.171875 168.972656 96.398438 C 170.519531 99.742188 173.445312 102.359375 176.929688 103.515625 C 177.832031 103.820312 178.777344 104.03125 179.722656 104.246094 C 182.347656 104.933594 184.84375 105.917969 187.46875 106.5625 C 188.871094 106.90625 190.324219 107.128906 191.761719 107.128906 C 193.007812 107.128906 194.246094 106.960938 195.425781 106.5625 C 195.488281 106.988281 195.445312 107.425781 195.34375 107.863281 L 194.945312 109.0625 C 194.808594 109.398438 194.65625 109.722656 194.523438 110.039062 C 194.351562 110.414062 194.089844 110.753906 193.761719 111.050781 C 192.292969 111.75 190.675781 112.082031 189.046875 112.082031 " fill-opacity="1" fill-rule="nonzero"/><path fill="rgb(18.818665%, 30.589294%, 62.348938%)" d="M 171.335938 96.613281 C 171.421875 96.699219 171.511719 96.742188 171.636719 96.828125 C 173.789062 98.371094 176.371094 99.402344 178.992188 99.441406 C 181.359375 99.484375 183.640625 98.84375 185.960938 98.371094 C 188.5 97.855469 191.039062 97.597656 193.617188 97.597656 C 195.210938 97.597656 196.800781 97.683594 198.261719 98.285156 C 198.609375 98.414062 198.996094 98.800781 198.734375 99.101562 C 198.648438 99.226562 198.480469 99.226562 198.304688 99.269531 C 197.875 99.269531 197.445312 99.140625 197.015625 99.011719 C 194.390625 98.285156 191.640625 98.457031 188.972656 98.929688 C 186.304688 99.402344 183.679688 100.042969 180.972656 100.257812 C 178.261719 100.472656 175.46875 100.214844 173.101562 98.886719 C 172.113281 98.328125 171.25 97.640625 170.261719 97.125 C 170.046875 96.996094 169.789062 96.867188 169.53125 96.867188 C 168.929688 96.867188 168.457031 97.425781 168.328125 98.027344 C 168.242188 98.542969 168.371094 99.058594 168.5 99.53125 C 168.628906 99.914062 168.972656 100.257812 169.230469 100.515625 C 169.875 101.15625 170.605469 101.675781 171.335938 102.1875 C 172.929688 103.261719 174.5625 104.375 176.414062 104.890625 C 176.585938 104.933594 176.757812 104.976562 176.886719 105.019531 C 177.574219 105.191406 178.304688 105.40625 178.949219 105.875 C 179.378906 106.21875 179.683594 106.648438 179.941406 107.035156 L 180.113281 107.292969 C 183.164062 111.539062 189.617188 112.953125 194.21875 110.378906 C 194.433594 110.253906 194.738281 110.335938 194.863281 110.550781 C 194.992188 110.765625 194.910156 111.066406 194.691406 111.195312 C 192.929688 112.140625 190.992188 112.566406 189.058594 112.566406 C 185.316406 112.566406 181.488281 110.851562 179.292969 107.804688 L 179.125 107.550781 C 178.863281 107.164062 178.605469 106.820312 178.304688 106.5625 C 177.832031 106.21875 177.230469 106.046875 176.585938 105.875 C 176.414062 105.835938 176.242188 105.789062 176.070312 105.75 C 174.089844 105.191406 172.371094 104.03125 170.734375 102.917969 C 169.53125 102.101562 168.285156 101.246094 167.59375 99.914062 C 166.992188 98.800781 167.035156 97.210938 168.070312 96.355469 C 168.628906 95.882812 169.445312 95.710938 170.175781 95.96875 C 170.605469 96.054688 170.992188 96.3125 171.335938 96.613281 " fill-opacity="1" fill-rule="nonzero"/><path fill="rgb(18.818665%, 30.589294%, 62.348938%)" d="M 97.140625 136.242188 C 97.054688 136.242188 97.011719 136.242188 96.925781 136.203125 C 96.796875 136.160156 96.710938 136.027344 96.667969 135.898438 C 96.28125 134.570312 95.464844 133.96875 94 133.882812 C 93.785156 133.882812 93.613281 133.714844 93.570312 133.5 C 92.238281 125.863281 90.601562 118.230469 88.753906 110.679688 C 88.710938 110.46875 88.667969 110.253906 88.582031 110.039062 C 88.367188 109.179688 88.109375 108.234375 88.109375 107.335938 C 88.109375 107.164062 88.238281 106.992188 88.367188 106.90625 C 90.601562 105.875 91.980469 103.300781 91.59375 100.902344 C 91.550781 100.644531 91.722656 100.386719 91.980469 100.34375 C 92.238281 100.300781 92.496094 100.472656 92.539062 100.730469 C 92.96875 103.429688 91.464844 106.347656 89.054688 107.589844 C 89.097656 108.277344 89.3125 109.007812 89.484375 109.734375 C 89.527344 109.949219 89.613281 110.164062 89.65625 110.378906 C 91.507812 117.800781 93.097656 125.351562 94.429688 132.898438 C 95.894531 133.070312 96.882812 133.800781 97.398438 135.085938 C 103.894531 132.726562 110.90625 132.210938 117.746094 131.699219 C 119.164062 131.570312 120.625 131.484375 122.046875 131.355469 C 142.433594 129.554688 162.046875 126.722656 180.242188 122.992188 C 180.242188 120.417969 181.359375 118.101562 183.210938 116.773438 C 183.210938 116.429688 183.164062 115.957031 183.125 115.441406 C 183.035156 114.453125 182.949219 113.425781 183.035156 112.824219 C 183.078125 112.566406 183.296875 112.351562 183.554688 112.398438 C 183.8125 112.4375 183.984375 112.652344 183.984375 112.910156 C 183.941406 113.425781 184.027344 114.453125 184.070312 115.355469 C 184.113281 116 184.15625 116.597656 184.15625 116.984375 C 184.15625 117.15625 184.070312 117.285156 183.941406 117.371094 C 182.132812 118.574219 181.058594 120.847656 181.1875 123.335938 C 181.1875 123.546875 181.058594 123.761719 180.800781 123.804688 C 162.433594 127.578125 142.691406 130.453125 122.089844 132.296875 C 120.667969 132.425781 119.207031 132.554688 117.785156 132.640625 C 110.90625 133.15625 103.765625 133.714844 97.269531 136.160156 C 97.269531 136.242188 97.226562 136.242188 97.140625 136.242188 " fill-opacity="1" fill-rule="nonzero"/><path fill="rgb(18.818665%, 30.589294%, 62.348938%)" d="M 92.625 101.203125 C 92.410156 101.203125 92.195312 101.074219 92.152344 100.816406 C 92.109375 100.558594 92.238281 100.300781 92.496094 100.257812 C 100.839844 98.457031 109.441406 97.726562 117.785156 97.042969 C 118.777344 96.957031 119.722656 96.867188 120.710938 96.785156 C 128.839844 96.097656 137.011719 95.28125 145.144531 94.339844 L 148.539062 93.953125 C 154.261719 93.308594 160.199219 92.625 165.960938 91.851562 C 169.488281 91.378906 173.101562 90.609375 176.285156 89.921875 C 176.457031 89.878906 176.628906 89.964844 176.757812 90.09375 C 178.175781 91.808594 179.46875 92.921875 181.445312 93.136719 C 181.660156 93.136719 181.832031 93.308594 181.875 93.523438 C 181.917969 93.910156 182.003906 94.296875 182.046875 94.683594 C 182.132812 95.066406 182.175781 95.496094 182.21875 95.882812 C 182.261719 96.140625 182.089844 96.398438 181.832031 96.398438 C 181.574219 96.441406 181.316406 96.269531 181.316406 96.011719 C 181.273438 95.625 181.1875 95.242188 181.144531 94.851562 C 181.101562 94.597656 181.058594 94.296875 181.015625 94.039062 C 179.039062 93.738281 177.617188 92.578125 176.242188 90.949219 C 173.101562 91.636719 169.574219 92.363281 166.132812 92.835938 C 160.367188 93.609375 154.433594 94.296875 148.714844 94.9375 L 145.316406 95.324219 C 137.226562 96.269531 129.015625 97.082031 120.882812 97.769531 C 119.894531 97.855469 118.949219 97.941406 117.960938 98.027344 C 109.660156 98.714844 101.054688 99.441406 92.796875 101.246094 C 92.710938 101.203125 92.667969 101.203125 92.625 101.203125 " fill-opacity="1" fill-rule="nonzero"/><path fill="rgb(18.818665%, 30.589294%, 62.348938%)" d="M 146.734375 112.996094 C 147.078125 115.65625 145.488281 117.414062 142.90625 118.144531 L 143.121094 119.816406 C 143.164062 120.203125 143.078125 120.460938 142.5625 120.546875 L 140.84375 120.761719 C 140.328125 120.847656 140.152344 120.589844 140.109375 120.203125 L 139.894531 118.488281 C 137.53125 118.316406 135.164062 117.027344 134.820312 114.496094 C 134.734375 113.984375 134.863281 113.855469 135.378906 113.769531 L 137.53125 113.46875 C 138.046875 113.382812 138.304688 113.425781 138.433594 113.984375 C 138.476562 114.285156 138.648438 114.542969 138.992188 114.839844 C 139.507812 115.3125 140.453125 115.398438 141.273438 115.269531 C 142.476562 115.097656 143.421875 114.710938 143.25 113.46875 C 143.078125 112.222656 141.097656 112.4375 139.121094 112.09375 C 136.757812 111.667969 134.5625 111.066406 134.21875 108.234375 C 133.875 105.75 135.636719 104.117188 137.917969 103.390625 L 137.703125 101.675781 C 137.660156 101.285156 137.746094 101.03125 138.261719 100.945312 L 139.980469 100.730469 C 140.496094 100.644531 140.667969 100.902344 140.710938 101.285156 L 140.929688 103.089844 C 143.164062 103.261719 145.230469 104.289062 145.53125 106.605469 C 145.617188 107.121094 145.488281 107.25 144.96875 107.335938 L 142.777344 107.636719 C 142.347656 107.679688 142.261719 107.378906 142.089844 107.121094 C 141.960938 106.90625 141.832031 106.734375 141.53125 106.519531 C 141.058594 106.175781 140.238281 106.089844 139.550781 106.175781 C 138.820312 106.261719 137.617188 106.734375 137.746094 107.722656 C 137.917969 109.09375 141.273438 109.136719 142.21875 109.394531 C 143.894531 109.609375 146.304688 109.949219 146.734375 112.996094 " fill-opacity="1" fill-rule="nonzero"/><g clip-path="url(#clip-2)"><path fill="rgb(98.039246%, 98.429871%, 98.429871%)" d="M 47.074219 184.625 C 48.882812 181.453125 50.601562 177.976562 51.933594 174.71875 C 52.40625 173.558594 52.925781 172.359375 53.828125 171.542969 C 55.417969 170.085938 57.742188 170 59.851562 169.65625 C 67.207031 168.457031 73.355469 163.308594 77.871094 157.390625 C 82.386719 151.46875 85.570312 144.691406 89.527344 138.386719 C 91.035156 136.027344 94.558594 132.984375 97.398438 133.027344 C 96.667969 129.769531 92.882812 128.050781 89.484375 128.050781 C 86.128906 128.09375 82.90625 129.339844 79.550781 129.722656 C 75.894531 130.152344 72.109375 129.554688 68.582031 130.625 C 61.957031 132.640625 58.429688 139.589844 53.699219 144.652344 C 51.632812 146.835938 38 151.339844 29.957031 160.4375 C 28.191406 162.449219 26.34375 164.207031 24.277344 165.667969 C 21.054688 167.941406 21.355469 172.316406 21.785156 175.832031 C 22.039062 177.933594 22.472656 180.121094 23.71875 181.882812 C 24.878906 183.597656 26.6875 184.796875 28.578125 185.65625 C 33.957031 188.226562 43.246094 191.316406 47.074219 184.625 " fill-opacity="1" fill-rule="nonzero"/></g><path fill="rgb(18.818665%, 30.589294%, 62.348938%)" d="M 45.613281 187.027344 C 45.527344 187.027344 45.398438 186.984375 45.3125 186.941406 C 45.097656 186.769531 45.054688 186.511719 45.226562 186.296875 C 46.472656 184.625 47.589844 182.824219 48.496094 180.980469 C 48.96875 179.992188 49.398438 178.878906 49.785156 177.632812 C 51.03125 174.160156 52.277344 170.558594 55.71875 170.214844 C 57.65625 170.042969 60.148438 169.269531 62.171875 168.671875 L 62.6875 168.496094 C 65.570312 167.640625 67.9375 166.398438 69.785156 164.765625 C 71.894531 162.878906 73.269531 160.476562 73.613281 157.988281 C 73.65625 157.734375 73.871094 157.558594 74.128906 157.605469 C 74.386719 157.648438 74.558594 157.863281 74.515625 158.117188 C 74.128906 160.820312 72.667969 163.4375 70.34375 165.453125 C 68.410156 167.167969 65.914062 168.496094 62.902344 169.398438 L 62.386719 169.570312 C 60.324219 170.171875 57.785156 170.945312 55.761719 171.113281 C 52.925781 171.371094 51.761719 174.675781 50.644531 177.890625 C 50.214844 179.050781 49.785156 180.292969 49.3125 181.324219 C 48.367188 183.253906 47.246094 185.097656 45.957031 186.8125 C 45.914062 186.941406 45.742188 187.027344 45.613281 187.027344 " fill-opacity="1" fill-rule="nonzero"/><path fill="rgb(18.818665%, 30.589294%, 62.348938%)" d="M 22.601562 167.8125 C 22.472656 167.8125 22.34375 167.769531 22.253906 167.640625 C 22.085938 167.425781 22.085938 167.167969 22.300781 166.996094 C 24.363281 165.195312 26.386719 163.222656 28.363281 161.335938 C 33.484375 156.402344 38.730469 151.339844 45.140625 148.253906 C 51.675781 145.078125 57.65625 140.492188 62.386719 135 C 66.429688 130.324219 73.140625 129.59375 79.636719 128.867188 C 82.730469 128.566406 85.914062 127.535156 89.011719 127.839844 C 92.109375 128.136719 94.992188 129.769531 97.183594 131.824219 C 97.3125 131.953125 97.441406 132.082031 97.398438 132.253906 C 97.355469 132.597656 96.796875 132.511719 96.539062 132.296875 C 94.390625 130.796875 92.582031 129.425781 90.042969 128.824219 C 86.863281 128.09375 82.945312 129.511719 79.765625 129.851562 C 73.441406 130.539062 66.945312 131.269531 63.160156 135.6875 C 58.34375 141.304688 52.238281 145.9375 45.570312 149.15625 C 39.289062 152.199219 34.085938 157.21875 29.011719 162.0625 C 27.03125 163.953125 25.007812 165.925781 22.945312 167.726562 C 22.816406 167.769531 22.6875 167.8125 22.601562 167.8125 " fill-opacity="1" fill-rule="nonzero"/><g clip-path="url(#clip-3)"><path fill="rgb(84.709167%, 87.449646%, 93.328857%)" d="M 39.078125 188.671875 C 36.226562 188.671875 33.375 188.011719 32.0625 187.242188 C 31.996094 187.199219 31.917969 187.128906 31.871094 187.058594 C 34.269531 187.949219 36.96875 188.65625 39.496094 188.65625 C 39.691406 188.65625 39.890625 188.652344 40.085938 188.640625 C 39.753906 188.660156 39.414062 188.671875 39.078125 188.671875 M 41.136719 188.546875 C 42.644531 188.339844 44.039062 187.8125 45.21875 186.851562 C 45.246094 186.882812 45.277344 186.914062 45.3125 186.941406 C 45.328125 186.953125 45.347656 186.960938 45.367188 186.96875 C 45.363281 186.972656 45.359375 186.976562 45.355469 186.984375 C 44.285156 187.855469 42.777344 188.339844 41.136719 188.546875 " fill-opacity="1" fill-rule="nonzero"/></g><g clip-path="url(#clip-4)"><path fill="rgb(81.959534%, 85.099792%, 91.369629%)" d="M 39.496094 188.65625 C 36.96875 188.65625 34.269531 187.949219 31.871094 187.058594 C 31.824219 186.988281 31.808594 186.917969 31.847656 186.855469 C 33.785156 186.128906 41.09375 178.964844 42.300781 177.25 C 44.75 173.730469 47.074219 170.128906 49.226562 166.441406 C 50.6875 163.953125 52.152344 161.464844 54.515625 159.835938 C 56.261719 160.292969 58.109375 160.601562 59.988281 160.773438 L 60.410156 161.421875 C 60.605469 161.472656 60.804688 161.519531 61.003906 161.5625 C 61.8125 162.015625 62.871094 162.21875 63.898438 162.21875 C 64.617188 162.21875 65.320312 162.121094 65.914062 161.9375 C 66.796875 161.683594 67.632812 161.3125 68.449219 160.882812 C 68.660156 162.390625 68.855469 163.894531 69.035156 165.386719 C 67.308594 166.714844 65.191406 167.753906 62.6875 168.496094 L 62.171875 168.671875 C 60.148438 169.269531 57.65625 170.042969 55.71875 170.214844 C 52.277344 170.558594 51.03125 174.160156 49.785156 177.632812 C 49.398438 178.878906 48.96875 179.992188 48.496094 180.980469 C 47.589844 182.824219 46.472656 184.625 45.226562 186.296875 C 45.082031 186.476562 45.085938 186.6875 45.21875 186.851562 C 44.039062 187.8125 42.644531 188.339844 41.136719 188.546875 C 40.792969 188.589844 40.441406 188.621094 40.085938 188.640625 C 39.890625 188.652344 39.691406 188.65625 39.496094 188.65625 " fill-opacity="1" fill-rule="nonzero"/></g><path fill="rgb(18.818665%, 30.589294%, 62.348938%)" d="M 45.367188 186.96875 C 45.347656 186.960938 45.328125 186.953125 45.3125 186.941406 C 45.277344 186.914062 45.246094 186.882812 45.21875 186.851562 C 45.085938 186.6875 45.082031 186.476562 45.226562 186.296875 C 46.472656 184.625 47.589844 182.824219 48.496094 180.980469 C 48.96875 179.992188 49.398438 178.878906 49.785156 177.632812 C 51.03125 174.160156 52.277344 170.558594 55.71875 170.214844 C 57.65625 170.042969 60.148438 169.269531 62.171875 168.671875 L 62.6875 168.496094 C 65.191406 167.753906 67.308594 166.714844 69.035156 165.386719 C 69.058594 165.589844 69.082031 165.792969 69.105469 165.996094 C 69.101562 166 69.097656 166.003906 69.097656 166.011719 C 68.925781 166.441406 68.453125 166.65625 68.023438 166.871094 C 63.9375 168.671875 61.054688 169.484375 56.753906 170.816406 C 55.71875 171.160156 54.601562 170.855469 53.828125 171.585938 C 52.839844 172.488281 51.460938 173.515625 51.074219 174.804688 C 49.828125 178.699219 47.8125 183.621094 45.367188 186.96875 " fill-opacity="1" fill-rule="nonzero"/><path fill="rgb(76.078796%, 85.879517%, 95.289612%)" d="M 64.152344 134.273438 C 66.171875 147.226562 69.398438 162.367188 69.871094 175.449219 C 102.949219 170.429688 134.691406 168.113281 168.714844 164.511719 C 166.648438 150.441406 165.53125 136.242188 165.316406 122.046875 C 132.96875 125.734375 96.582031 131.738281 64.152344 134.273438 " fill-opacity="1" fill-rule="nonzero"/><path fill="rgb(84.709167%, 87.449646%, 93.328857%)" d="M 69.871094 175.449219 C 69.753906 172.519531 69.496094 169.492188 69.152344 166.410156 C 69.164062 166.402344 69.171875 166.394531 69.183594 166.386719 C 69.519531 169.476562 69.765625 172.515625 69.871094 175.449219 C 96.035156 171.476562 121.367188 169.199219 147.648438 166.636719 C 121.367188 169.238281 96.035156 171.511719 69.871094 175.449219 " fill-opacity="1" fill-rule="nonzero"/><path fill="rgb(18.818665%, 30.589294%, 62.348938%)" d="M 69.152344 166.410156 C 69.136719 166.269531 69.117188 166.132812 69.105469 165.996094 C 69.113281 165.96875 69.121094 165.945312 69.132812 165.921875 C 69.148438 166.078125 69.167969 166.234375 69.183594 166.386719 C 69.171875 166.394531 69.164062 166.402344 69.152344 166.410156 " fill-opacity="1" fill-rule="nonzero"/><path fill="rgb(68.629456%, 74.119568%, 85.879517%)" d="M 69.035156 165.386719 C 68.855469 163.894531 68.660156 162.390625 68.449219 160.882812 C 68.464844 160.871094 68.480469 160.863281 68.492188 160.855469 C 68.703125 162.367188 68.894531 163.871094 69.066406 165.359375 C 69.054688 165.367188 69.046875 165.378906 69.035156 165.386719 " fill-opacity="1" fill-rule="nonzero"/><path fill="rgb(18.818665%, 30.589294%, 62.348938%)" d="M 69.105469 165.996094 C 69.082031 165.792969 69.058594 165.589844 69.035156 165.386719 C 69.046875 165.378906 69.054688 165.367188 69.066406 165.359375 C 69.089844 165.546875 69.109375 165.734375 69.132812 165.921875 C 69.121094 165.945312 69.113281 165.96875 69.105469 165.996094 " fill-opacity="1" fill-rule="nonzero"/><path fill="rgb(84.709167%, 87.449646%, 93.328857%)" d="M 168.707031 164.464844 C 168.707031 164.464844 168.707031 164.460938 168.707031 164.457031 C 168.707031 164.460938 168.710938 164.464844 168.714844 164.464844 C 168.710938 164.464844 168.710938 164.464844 168.707031 164.464844 " fill-opacity="1" fill-rule="nonzero"/><path fill="rgb(81.959534%, 85.099792%, 91.369629%)" d="M 66.410156 147.695312 C 66.390625 147.695312 66.367188 147.695312 66.34375 147.695312 C 65.621094 143.472656 64.898438 139.316406 64.28125 135.34375 C 64.292969 135.347656 64.308594 135.351562 64.320312 135.355469 C 64.953125 139.320312 65.6875 143.472656 66.410156 147.695312 " fill-opacity="1" fill-rule="nonzero"/><path fill="rgb(63.919067%, 74.508667%, 89.019775%)" d="M 69.871094 175.449219 C 69.765625 172.515625 69.519531 169.476562 69.183594 166.386719 C 69.167969 166.234375 69.148438 166.078125 69.132812 165.921875 C 69.109375 165.734375 69.089844 165.546875 69.066406 165.359375 C 68.894531 163.871094 68.703125 162.367188 68.492188 160.855469 C 69.332031 160.410156 70.144531 159.902344 70.945312 159.40625 C 71.894531 158.847656 72.839844 158.203125 73.484375 157.304688 C 74.453125 155.9375 74.515625 154.082031 75.179688 152.574219 C 75.632812 152.230469 76.167969 151.976562 76.667969 151.683594 C 77.851562 151.007812 78.847656 150.085938 79.777344 149.101562 C 85.109375 153.476562 91.824219 157.789062 100.238281 160.175781 C 108.886719 162.652344 119.292969 163.160156 129.664062 163.160156 C 133.273438 163.160156 136.878906 163.097656 140.40625 163.039062 C 143.933594 162.976562 147.378906 162.914062 150.671875 162.914062 C 157.585938 162.914062 163.816406 163.183594 168.671875 164.296875 C 168.671875 164.335938 168.671875 164.414062 168.707031 164.457031 C 168.707031 164.460938 168.707031 164.464844 168.707031 164.464844 C 161.597656 165.238281 154.59375 165.949219 147.648438 166.636719 C 121.367188 169.199219 96.035156 171.476562 69.871094 175.449219 M 68.574219 147.789062 C 68.417969 147.789062 68.265625 147.789062 68.109375 147.78125 C 67.550781 147.757812 66.980469 147.707031 66.410156 147.695312 C 65.6875 143.472656 64.953125 139.320312 64.320312 135.355469 C 66.691406 136.109375 70.371094 140.609375 75.894531 145.710938 C 73.707031 147.046875 71.152344 147.789062 68.574219 147.789062 " fill-opacity="1" fill-rule="nonzero"/><path fill="rgb(98.039246%, 98.429871%, 98.429871%)" d="M 60.410156 161.421875 C 65.699219 162.835938 71.847656 159.792969 73.871094 154.6875 C 74.085938 154.171875 74.257812 153.613281 74.601562 153.144531 C 75.117188 152.457031 75.933594 152.113281 76.667969 151.683594 C 78.386719 150.699219 79.722656 149.195312 81.011719 147.738281 C 81.914062 146.753906 82.816406 145.679688 83.160156 144.4375 C 83.507812 143.148438 82.601562 141.519531 81.441406 140.875 C 80.152344 141.691406 79.25 142.890625 78.171875 143.964844 C 75.503906 146.496094 71.808594 147.910156 68.109375 147.78125 C 67.117188 147.738281 66.085938 147.609375 65.097656 147.78125 C 61.269531 148.597656 56.578125 148.425781 53.613281 150.914062 L 60.410156 161.421875 " fill-opacity="1" fill-rule="nonzero"/><path fill="rgb(81.959534%, 85.099792%, 91.369629%)" d="M 67.71875 160.800781 C 67.945312 160.703125 68.167969 160.597656 68.390625 160.484375 C 68.402344 160.570312 68.417969 160.652344 68.429688 160.738281 C 68.191406 160.757812 67.957031 160.78125 67.71875 160.800781 " fill-opacity="1" fill-rule="nonzero"/><path fill="rgb(68.629456%, 74.119568%, 85.879517%)" d="M 63.898438 162.21875 C 62.871094 162.21875 61.8125 162.015625 61.003906 161.5625 C 61.691406 161.699219 62.390625 161.769531 63.09375 161.769531 C 64.671875 161.769531 66.253906 161.425781 67.71875 160.800781 C 67.957031 160.78125 68.191406 160.757812 68.429688 160.738281 C 68.433594 160.785156 68.441406 160.835938 68.449219 160.882812 C 67.632812 161.3125 66.796875 161.683594 65.914062 161.9375 C 65.320312 162.121094 64.617188 162.21875 63.898438 162.21875 " fill-opacity="1" fill-rule="nonzero"/><path fill="rgb(68.629456%, 74.119568%, 85.879517%)" d="M 68.492188 160.835938 C 68.480469 160.800781 68.464844 160.765625 68.453125 160.734375 C 68.445312 160.734375 68.433594 160.738281 68.429688 160.738281 C 68.417969 160.652344 68.402344 160.570312 68.390625 160.484375 C 68.410156 160.476562 68.421875 160.472656 68.4375 160.460938 C 68.457031 160.585938 68.472656 160.710938 68.492188 160.835938 " fill-opacity="1" fill-rule="nonzero"/><path fill="rgb(57.249451%, 64.709473%, 81.17981%)" d="M 68.449219 160.882812 C 68.441406 160.835938 68.433594 160.785156 68.429688 160.738281 C 68.433594 160.738281 68.445312 160.734375 68.453125 160.734375 C 68.464844 160.765625 68.480469 160.800781 68.492188 160.835938 C 68.492188 160.84375 68.492188 160.847656 68.492188 160.855469 C 68.480469 160.863281 68.464844 160.871094 68.449219 160.882812 " fill-opacity="1" fill-rule="nonzero"/><path fill="rgb(54.119873%, 65.489197%, 83.918762%)" d="M 68.492188 160.855469 C 68.492188 160.847656 68.492188 160.84375 68.492188 160.835938 C 68.472656 160.710938 68.457031 160.585938 68.4375 160.460938 C 70.859375 159.234375 72.871094 157.214844 73.871094 154.6875 C 74.085938 154.171875 74.257812 153.613281 74.601562 153.144531 C 74.769531 152.925781 74.960938 152.738281 75.179688 152.574219 C 74.515625 154.082031 74.453125 155.9375 73.484375 157.304688 C 72.839844 158.203125 71.894531 158.847656 70.945312 159.40625 C 70.144531 159.902344 69.332031 160.410156 68.492188 160.855469 " fill-opacity="1" fill-rule="nonzero"/><path fill="rgb(81.959534%, 85.099792%, 91.369629%)" d="M 59.644531 160.242188 C 59.308594 159.804688 58.980469 159.335938 58.742188 158.84375 L 59.644531 160.242188 " fill-opacity="1" fill-rule="nonzero"/><path fill="rgb(81.959534%, 85.099792%, 91.369629%)" d="M 63.09375 161.769531 C 62.390625 161.769531 61.691406 161.699219 61.003906 161.5625 C 60.648438 161.363281 60.34375 161.117188 60.105469 160.820312 C 59.957031 160.636719 59.800781 160.441406 59.644531 160.242188 L 58.742188 158.84375 C 58.558594 158.46875 58.429688 158.085938 58.386719 157.691406 C 58.644531 157.710938 58.898438 157.71875 59.152344 157.71875 C 61.5625 157.71875 63.949219 156.839844 66.085938 155.71875 C 68.453125 154.429688 70.644531 152.84375 73.011719 151.554688 C 73.871094 151.085938 74.734375 150.65625 75.550781 150.140625 C 78.605469 148.167969 80.839844 144.867188 81.484375 141.261719 C 82.214844 141.863281 83.03125 143.921875 82.816406 144.820312 C 82.601562 145.765625 82.042969 146.582031 81.398438 147.265625 C 80.496094 148.210938 79.507812 149.070312 78.386719 149.710938 C 77.527344 150.226562 76.625 150.65625 75.933594 151.386719 C 75.609375 151.738281 75.367188 152.144531 75.179688 152.574219 C 74.960938 152.738281 74.769531 152.925781 74.601562 153.144531 C 74.257812 153.613281 74.085938 154.171875 73.871094 154.6875 C 72.871094 157.214844 70.859375 159.234375 68.4375 160.460938 C 68.421875 160.472656 68.410156 160.476562 68.390625 160.484375 C 68.167969 160.597656 67.945312 160.703125 67.71875 160.800781 C 66.253906 161.425781 64.671875 161.769531 63.09375 161.769531 " fill-opacity="1" fill-rule="nonzero"/><path fill="rgb(18.818665%, 30.589294%, 62.348938%)" d="M 81.226562 140.960938 C 82.042969 140.707031 82.945312 141.089844 83.378906 141.820312 C 83.851562 142.636719 83.808594 143.75 83.550781 144.609375 C 83.160156 146.023438 82.171875 147.140625 81.269531 148.125 C 79.9375 149.625 78.605469 151.125 76.796875 152.199219 C 76.625 152.285156 76.496094 152.371094 76.324219 152.457031 C 75.765625 152.757812 75.203125 153.058594 74.859375 153.53125 C 74.601562 153.828125 74.472656 154.257812 74.300781 154.6875 L 74.171875 154.988281 C 72.582031 159.234375 67.851562 162.238281 63.121094 162.238281 C 62.171875 162.238281 61.226562 162.109375 60.324219 161.894531 C 60.066406 161.808594 59.933594 161.550781 59.980469 161.335938 C 60.066406 161.078125 60.324219 160.949219 60.539062 160.992188 C 65.613281 162.367188 71.507812 159.40625 73.441406 154.515625 L 73.527344 154.257812 C 73.699219 153.789062 73.871094 153.316406 74.214844 152.886719 C 74.6875 152.285156 75.335938 151.898438 75.980469 151.554688 C 76.109375 151.46875 76.28125 151.386719 76.410156 151.300781 C 78.085938 150.355469 79.375 148.855469 80.667969 147.4375 C 81.484375 146.539062 82.386719 145.507812 82.730469 144.308594 C 82.859375 143.921875 82.816406 143.492188 82.691406 143.105469 C 82.34375 142.078125 81.011719 141.734375 80.238281 142.507812 C 79.980469 142.761719 79.765625 143.019531 79.507812 143.277344 C 79.207031 143.621094 78.859375 143.964844 78.515625 144.308594 C 75.894531 146.925781 72.152344 147.867188 68.539062 148.210938 C 66.214844 148.425781 63.890625 148.425781 61.613281 148.683594 C 59.03125 148.980469 56.410156 149.625 54.257812 151.042969 C 54.085938 151.171875 53.914062 151.253906 53.742188 151.300781 C 53.570312 151.339844 53.3125 151.253906 53.226562 151.085938 C 53.097656 150.828125 53.355469 150.527344 53.613281 150.355469 C 55.632812 148.941406 58.128906 148.339844 60.539062 147.996094 C 61.398438 147.867188 62.257812 147.78125 63.121094 147.695312 C 64.496094 147.566406 65.914062 147.355469 67.292969 147.308594 C 68.109375 147.308594 68.925781 147.355469 69.742188 147.308594 C 70.644531 147.265625 71.507812 147.09375 72.367188 146.882812 C 74.128906 146.367188 75.679688 145.378906 77.140625 144.265625 C 77.871094 143.707031 78.515625 143.105469 79.207031 142.507812 C 79.765625 141.949219 80.367188 141.175781 81.226562 140.960938 " fill-opacity="1" fill-rule="nonzero"/><path fill="rgb(18.818665%, 30.589294%, 62.348938%)" d="M 76.796875 170.769531 C 76.582031 170.769531 76.367188 170.601562 76.324219 170.386719 C 75.808594 167.941406 74.214844 166.011719 72.152344 165.324219 C 72.023438 165.28125 71.894531 165.152344 71.847656 164.980469 C 71.765625 164.597656 71.632812 163.996094 71.546875 163.394531 C 71.378906 162.492188 71.203125 161.464844 71.03125 160.992188 C 70.945312 160.734375 71.078125 160.476562 71.332031 160.390625 C 71.59375 160.304688 71.847656 160.4375 71.9375 160.691406 C 72.152344 161.25 72.324219 162.277344 72.496094 163.265625 C 72.582031 163.738281 72.667969 164.207031 72.753906 164.550781 C 74.859375 165.367188 76.539062 167.382812 77.183594 169.828125 C 95.765625 168.96875 115.421875 166.824219 135.636719 163.523438 C 137.058594 163.308594 138.476562 163.050781 139.894531 162.792969 C 146.605469 161.636719 153.53125 160.390625 160.414062 161.078125 C 160.585938 159.707031 161.359375 158.761719 162.734375 158.203125 C 162.132812 150.570312 161.832031 142.851562 161.746094 135.214844 C 161.746094 135 161.746094 134.785156 161.746094 134.527344 C 161.746094 133.800781 161.746094 133.027344 161.617188 132.339844 C 158.949219 131.738281 156.796875 129.296875 156.542969 126.550781 C 156.496094 126.292969 156.714844 126.078125 156.972656 126.035156 C 157.230469 125.992188 157.445312 126.207031 157.488281 126.464844 C 157.703125 128.910156 159.722656 131.054688 162.132812 131.484375 C 162.304688 131.527344 162.476562 131.65625 162.519531 131.824219 C 162.734375 132.683594 162.734375 133.671875 162.734375 134.527344 C 162.734375 134.742188 162.734375 134.957031 162.734375 135.171875 C 162.820312 142.890625 163.121094 150.742188 163.722656 158.460938 C 163.722656 158.675781 163.59375 158.890625 163.378906 158.933594 C 162.003906 159.363281 161.359375 160.175781 161.316406 161.550781 C 161.316406 161.679688 161.273438 161.808594 161.144531 161.894531 C 161.058594 161.980469 160.929688 162.023438 160.800781 162.023438 C 153.875 161.292969 146.863281 162.492188 140.023438 163.695312 C 138.605469 163.953125 137.1875 164.207031 135.765625 164.421875 C 115.378906 167.8125 95.550781 169.914062 76.796875 170.769531 " fill-opacity="1" fill-rule="nonzero"/><path fill="rgb(18.818665%, 30.589294%, 62.348938%)" d="M 69.011719 144.523438 C 68.753906 144.523438 68.582031 144.351562 68.539062 144.09375 C 68.496094 143.707031 68.453125 143.277344 68.410156 142.890625 C 68.367188 142.507812 68.324219 142.121094 68.28125 141.691406 C 68.238281 141.476562 68.367188 141.261719 68.582031 141.21875 C 70.429688 140.53125 71.417969 139.160156 72.367188 137.101562 C 72.453125 136.929688 72.582031 136.84375 72.753906 136.84375 C 75.980469 136.714844 79.679688 136.542969 83.207031 136.160156 C 88.96875 135.472656 94.859375 134.65625 100.582031 133.882812 L 103.9375 133.414062 C 111.980469 132.296875 120.152344 131.054688 128.195312 129.722656 C 129.144531 129.554688 130.132812 129.382812 131.078125 129.253906 C 139.335938 127.839844 147.894531 126.421875 156.414062 126.121094 C 156.671875 126.121094 156.886719 126.292969 156.886719 126.59375 C 156.886719 126.851562 156.671875 127.066406 156.414062 127.066406 C 147.9375 127.367188 139.464844 128.824219 131.207031 130.195312 C 130.261719 130.367188 129.269531 130.539062 128.324219 130.667969 C 120.28125 132 112.109375 133.242188 104.066406 134.355469 L 100.710938 134.828125 C 94.992188 135.601562 89.097656 136.417969 83.292969 137.101562 C 79.808594 137.53125 76.238281 137.660156 73.054688 137.789062 C 72.109375 139.71875 71.03125 141.175781 69.183594 141.992188 C 69.226562 142.292969 69.226562 142.546875 69.269531 142.851562 C 69.3125 143.234375 69.355469 143.621094 69.398438 144.050781 C 69.441406 144.308594 69.226562 144.523438 69.011719 144.523438 " fill-opacity="1" fill-rule="nonzero"/><path fill="rgb(18.818665%, 30.589294%, 62.348938%)" d="M 117.570312 140.105469 C 123.035156 140.105469 127.464844 144.523438 127.464844 149.96875 C 127.464844 155.417969 123.035156 159.835938 117.570312 159.835938 C 112.109375 159.835938 107.679688 155.417969 107.679688 149.96875 C 107.679688 144.523438 112.109375 140.105469 117.570312 140.105469 " fill-opacity="1" fill-rule="nonzero"/></svg>