<?xml version="1.0" standalone="no"?>
<svg version="1.1" id="Layer_1" xmlns:cc="http://creativecommons.org/ns#" xmlns:dc="http://purl.org/dc/elements/1.1/" xmlns:rdf="http://www.w3.org/1999/02/22-rdf-syntax-ns#" xmlns:svg="http://www.w3.org/2000/svg" xmlns="http://www.w3.org/2000/svg" xmlns:xlink="http://www.w3.org/1999/xlink" x="0px" y="0px" viewBox="0 0 595.2 595.2" enable-background="new 0 0 595.2 595.2" xml:space="preserve">
<path id="color_x5F_1" fill="#377dff" d="M253.9,287.7c1.2,0.6,2.3,0.8,3.3,0.8c4.6,0,7.8-4.6,7.9-4.7c0.1-0.2,0.1-0.5,0-0.7
	s-0.4-0.3-0.6-0.3c-0.1,0-7.7,1.6-11.6,0.9c-2.5-0.4-3.4-0.4-3.7,0.3C249,284.9,249.4,285.4,253.9,287.7z M252.7,285.1
	c3,0.5,7.8-0.2,10.4-0.6c-1.6,1.7-4.9,4.2-8.6,2.2c-1.7-0.9-2.7-1.4-3.3-1.8C251.5,284.9,252,285,252.7,285.1z M127.3,511.3v-1l0,0
	c0-1.7-1.1-3.2-3.2-4.5v-7.9c2-1.2,3.2-2.8,3.2-4.5v-7.1c0-3.9-6.2-7-14.1-7s-14.1,3.1-14.1,7v7.1c0,0.4,0.1,0.9,0.2,1.3l-0.5-0.3
	c0,0,0,0-0.1,0l-3.1-1.6l0,0l-21.2-10.6c-1.9-0.9-6.1-1.7-8,1.8c-1,1.8-1.2,3.3-0.7,4.7c0.2,0.5,0.4,0.8,0.7,1.2
	c0.8,1,1.9,1.4,2.2,1.5l10.5,3.8l13.5,4.8l0,0l3.9,1.4l0,0l6.1,2.2v2.2c-2.2,1.3-3.4,2.9-3.4,4.6l0,0v1.4c-3.2,0.6-6,1.5-8.4,2.4
	c-1.9,0.8-3.4,1.6-4.6,2.6c-2,1.5-3.1,3.3-3.1,5.1v7.4c0,6.5,13.7,11.5,31.1,11.5s31.1-5.1,31.1-11.5v-7.4
	C145.3,517.1,138.4,513.1,127.3,511.3z M113.3,480.5c7,0,12.9,2.7,12.9,5.8c0,3.1-5.9,5.8-12.9,5.8c-6.9,0-12.6-2.5-12.9-5.6
	c0-0.1,0-0.1,0-0.2C100.4,483.1,106.3,480.5,113.3,480.5z M100.4,489.1c2.2,2.5,7.1,4.1,12.9,4.1s10.7-1.7,12.9-4.1v4.3
	c0,3.1-5.9,5.8-12.9,5.8c-5,0-9.5-1.4-11.6-3.3l-0.1-0.1c-0.8-0.7-1.2-1.5-1.2-2.4C100.4,493.4,100.4,489.1,100.4,489.1z
	 M122.9,498.5v12.3c-4.9,3.3-14.5,3.3-19.2,0V503l0,0v-4.5c2.5,1.1,5.8,1.8,9.5,1.8C117,500.4,120.4,499.7,122.9,498.5z M92.2,498.5
	L69,490.2c-0.3-0.1-1.7-0.7-2.2-2c-0.4-1-0.2-2.2,0.6-3.7c0.8-1.5,2.2-1.9,3.4-1.9c1.5,0,2.9,0.6,3,0.7l20.5,10.3
	C93.1,494.8,92.4,496.4,92.2,498.5z M96.1,499.9l-2.7-1c0.1-2.2,0.7-3.6,2.1-4.8l2.2,1.1C96.7,496.8,96.3,498,96.1,499.9z
	 M97.3,500.3c0.1-1.9,0.5-3.1,1.5-4.6l1.9,1l1.6,5.4L97.3,500.3z M102.3,497.8c0.1,0.1,0.2,0.1,0.3,0.2v0.8L102.3,497.8z
	 M102.6,507.1v4.1c0,0.2,0.1,0.4,0.2,0.5c5,3.9,15.7,3.9,21.1,0c0.2-0.1,0.2-0.3,0.2-0.5v-3.9c1.3,0.9,2,2,2,3.1
	c0,3.1-5.9,5.8-12.9,5.8s-12.9-2.7-12.9-5.8C100.4,509.1,101.2,508,102.6,507.1z M100.4,513.1c2.2,2.5,7,4.1,12.9,4.1
	s10.7-1.7,12.9-4.1v4.3c0,3.1-5.9,5.8-12.9,5.8s-12.9-2.7-12.9-5.8V513.1z M144.1,529.2c0,5.6-13.7,10.3-29.9,10.3
	s-29.9-4.7-29.9-10.3V525c3.7,4.8,15.5,8.3,29.9,8.3s26.2-3.5,29.9-8.3V529.2z M114.2,532.1c-16.2,0-29.9-4.7-29.9-10.3
	c0-3.6,5.8-7,14.9-8.9v4.6c0,3.9,6.2,7,14.1,7s14.1-3.1,14.1-7v-4.9c10.1,1.7,16.8,5.4,16.8,9.3
	C144.1,527.3,130.4,532.1,114.2,532.1z M253.4,259.6c0,1.4-0.8,2.4-1.7,2.4s-1.7-1.1-1.7-2.4s0.8-2.4,1.7-2.4
	S253.4,258.3,253.4,259.6z M549.9,328h-9.8h-206v-12.9h210.2h5.6c0.3,0,0.6-0.3,0.6-0.6s-0.3-0.6-0.6-0.6h-5.3H334.1V292
	c0-9-7.3-16.3-16.3-16.3h-44.5c0.4-2,0.7-4.2,1-6.4h1.8c1.4,0,2.5-0.5,3.4-1.3c2.4-2.4,2.4-7.4,2.4-11.9v-0.8c0-3.2-2-5.5-3.9-5.5
	h-2.6c-0.2-12-2.5-16.5-3.6-18.1c1.3-0.6,4-2.3,5.2-5.3c1.2-2.8,0.9-6-0.8-9.6c-2.2-4.8-4.6-7.5-7.2-8.1c-2-0.5-3.2,0.5-3.3,0.6
	c-0.1,0.1-0.2,0.2-0.2,0.3c0,0-0.9,3.2-4.2,4.8c-3,1.5-7,1.2-11.9-0.8c-14-5.8-32.9-4.9-37.4,0c-3.8,4.2-1.4,13.2-0.7,15.5
	c-2,1-9.6,5.5-11.3,15.8c-1.8,11.4,12.2,24.1,13.7,25.5c0.7,1.8,2.2,3.9,4.1,5.5h-70.2c-9,0-16.3,7.3-16.3,16.3v21.9H65.9h-19
	c-0.3,0-0.6,0.3-0.6,0.6s0.3,0.6,0.6,0.6h18.6h65.7V328H61.9h-15c-0.3,0-0.6,0.3-0.6,0.6s0.3,0.6,0.6,0.6h14.7h69.5v84.4
	c0,0,0,0,0,0.1c-5.7,14.4-15.3,37.6-15.4,37.9c-0.1,0.2,0,0.4,0.1,0.6c2,2.3,4,4.5,6.2,6.6H92.5H79.2c-0.5-0.7-2.3-3.3-2.9-9.2
	c-0.3-3.2-0.4-7.8,0.5-13.9s2.6-13.7,5.9-23.2c12.7-37.1-0.6-63-0.7-63.3c-0.1-0.1-0.2-0.2-0.3-0.3c-0.1,0.2-0.2,0.3-0.3,0.5
	c0,0-0.1-0.2-0.2-0.5l0,0c-0.3,0.2-0.4,0.5-0.2,0.8c0.1,0.3,13.2,25.7,0.7,62.3c-3,8.7-4.7,15.9-5.7,21.8
	c-2.5,15.5,0.4,22.5,1.9,24.9h-31c-0.3,0-0.6,0.3-0.6,0.6s0.3,0.6,0.6,0.6h76.3l0,0c17.5,16.8,40.6,27.8,62.5,35.6
	c0,0.1,0.1,0.2,0.1,0.2l30.7,33.4c0.1,0.1,0.3,0.2,0.4,0.2h87.4c0.2,0,0.5-0.1,0.5-0.4c0.1-0.2,0.1-0.5-0.1-0.6l-42.3-46.1
	c-0.1-0.1-0.3-0.2-0.4-0.2h-32.6c-0.1,0-0.3,0.1-0.4,0.1c-5.4-1.3-10-3.5-10.3-3.7c-0.7-0.4-14.2-9.3-27.8-18.6h53.8l0,0H299h34.5
	h196c0.3,0,0.6-0.3,0.6-0.6s-0.3-0.6-0.6-0.6h-45.7H334.1v-40.4l43.2,22.5c0.2,0.1,0.4,0.1,0.5,0l81.1-42.4c0.1-0.1,0.2-0.2,0.3-0.3
	l0,0l0,0l0,0c0.7-1.8,0.6-5.4,0.3-8.2l0.9-0.3c3.6,1.9,5.1,1.7,7.9,1.3c1.1-0.2,2.4-0.3,4.1-0.4c2.8-0.1,4.9-0.5,6.9-0.9
	c2.5-0.5,4.9-0.9,8.2-0.8c3.5,0.1,5.7-2.4,6.6-4.7c0.9-2.4,0.5-4.9-0.8-6.1c0-0.3,0-0.6,0-0.9c-0.5-3.7-2.8-5.7-3.5-6.2
	c-0.2-0.7-0.4-1.2-0.6-1.7c3.9,1.4,7,2.3,9.4,2.7c2,0.3,5.1-0.1,5.6-1.6c0.4-1.2-0.8-2.5-3.8-3.9c-6.9-3.3-13.1-5.2-18.6-5.6h-0.5
	c-4.9-0.4-9.6-0.7-13.9,2.1c-4.1,2.7-7.5,5.3-12.5,9.3c-0.2,0.1-1.8,0.6-2.9,0.9c-1.3,0.4-2.1,0.6-2.5,0.8l0,0
	c-0.2-0.1-0.3-0.1-0.5-0.1l-68.8,23.1c-3.5-3-40.4-35.5-46.1-40.3v-27.3h205.6h10.2c0.3,0,0.6-0.3,0.6-0.6S550.2,328,549.9,328z
	 M275.3,251.6h2.6c0.5,0,1.4,0.9,1.8,2.4c-1.8,0.1-4,0.3-4.2,0.3c-0.1,0-0.1,0-0.2,0C275.3,253.4,275.3,252.5,275.3,251.6z
	 M275,259.7c0.1-1.2,0.1-2.4,0.2-3.6c0.1,0,0.1,0,0.2,0.1l0,0c0.3,0,2.3-0.2,4.4-0.3v0.1c0,3.9,0,8.7-1.8,10.5
	c-0.5,0.5-1.2,0.8-2,0.8h-1.6C274.6,264.9,274.9,262.3,275,259.7z M273.8,259.6c-0.2,2.7-0.4,5.2-0.6,7.7h-3.9
	c-3.2,0-5.3-6.3-5.3-12.2c0-1.5,0.3-2.6,0.8-3.1c0.4-0.4,1-0.5,1.7-0.5l0,0h7.6C274.1,254,274,256.7,273.8,259.6z M234,247.6
	c0,0-2.5-4.7-3.5-8.6c-0.4-1.6,0-3.3,1.2-4.9c1.4-1.9,5.2-5.1,14.5-5.5c12.6-0.5,23.1,3,24.2,3.4c0.4,0.4,3.4,3.8,3.7,17.7h-7.6
	c-0.7,0-2.1,0-3.1,1c-0.5,0.5-0.9,1.2-1.1,2c-0.2,0-0.4,0-0.6,0c-0.4,0-0.9,0.1-1.3,0.1c-0.2-0.8-0.6-1.5-1.1-2
	c-1.2-1.2-2.8-1.2-3.7-1.2h-13.5c-1.8,0-3.9,1.9-4.3,4.6l-4.5-0.1c-0.1,0-0.2,0-0.3,0.1l-3.3,1.2c2.1-5.4,4.1-6.9,4.1-7
	C234.1,248.2,234.1,247.8,234,247.6z M258.8,255.1c-0.1,5.9-2.5,12.2-6.5,12.2h-7.8c-1.2,0-2.1-0.3-2.8-1c-2-2-1.9-6.6-1.9-10.3
	v-0.8l0,0c0-2.1,1.6-3.6,2.5-3.6h13.5c0.7,0,1.7,0,2.3,0.6c0.4,0.4,0.6,1,0.7,1.8c0,0,0,0,0,0.1
	C258.8,254.4,258.8,254.8,258.8,255.1z M214.7,269.6L214.7,269.6L214.7,269.6c-1.4-3.5-2.3-9.5-0.3-11.9c0.9-1,2.2-1.4,4.1-1
	c6.6,1.4,7.9,12.5,7.9,12.6c0,0.2,0.2,0.4,0.4,0.5l3.8,1.6c0.1,0,0.2,0,0.2,0c0.2,0,0.3-0.1,0.4-0.2c0.2-0.2,0.2-0.4,0.1-0.7
	c0-0.1-3-6.8-2.4-12.4l8.8-1.8c0,4.2,0,8.8,2.5,11.3c1.1,1.1,2.5,1.6,4.2,1.6h7.8c5.4,0,8.3-7.3,8.4-14.1c0-0.1,0-0.3,0-0.4
	c0.4-0.1,0.8-0.1,1-0.1c0.1,0,0.2,0,0.3,0c0,0.2,0,0.3,0,0.5c0,1.5,0.2,3.1,0.4,4.5c-0.3,0.1-0.4,0.4-0.4,0.7
	c0,0.1,2.4,10.3,2.9,15.8c0.1,1.2-0.1,2.1-0.7,2.5c-1.1,0.8-3.5,0-4.3-0.3c-0.3-0.1-0.7,0-0.8,0.3c-0.1,0.3,0,0.7,0.3,0.8
	c0.2,0.1,1.8,0.8,3.4,0.8c0.7,0,1.5-0.1,2.1-0.6c0.9-0.7,1.3-1.9,1.2-3.6c-0.3-2.9-1-7-1.7-10.3c1.2,2.1,2.8,3.5,4.8,3.5h3.7
	c-1.8,14.2-5.4,24.9-10.1,28.9c-1.4,1.2-2.8,1.8-4.3,1.6c-0.6-0.1-1.1-0.1-1.7-0.2h-0.1c-12.4-1.8-27.1-10.7-30.5-22
	c-0.1-0.3-0.4-0.5-0.7-0.4s-0.5,0.4-0.4,0.7c0.8,2.5,2.1,5,3.8,7.3c2.4,3.2,5.7,6.1,9.7,8.7c5.4,3.4,11.8,5.9,17.6,6.8l0.3,5.4
	l0.1,1.6l0,0l0.1,3c-1.6,5.5-7.9,11.7-13.7,13.4c-8.4-4.1-14.9-10.9-17.8-18.8l-0.3-3.9l0,0l-1.8-24c0-0.3-0.2-0.5-0.5-0.5
	C219.5,276.4,215.7,272.4,214.7,269.6z M265.2,344.2l8.6,8.2c-0.1,1.4-1.2,9.1-8.9,23.3c-5.8,10.5-13,20.5-17.2,26
	c2.2-4.6,5.3-12,7.8-20.6c0.1-0.3,0.2-0.5,0.2-0.5v-0.1c1.8-6.5,3.3-13.7,3.8-21c0.7-11.1,0.4-22.3-0.1-31.2c0-0.1,0-0.1,0-0.2
	c-0.6-10-1.4-17-1.5-17.5l-0.1-1.6l6.1,5.7c2.2,2,5.8,11.9,9,20.6c1.2,3.3,2.3,6.4,3.4,9l-10.5-1.1c-0.2,0-0.5,0.1-0.6,0.3
	C264.9,343.8,265,344.1,265.2,344.2z M266.6,375l26.6,0.4l0.2,6.3l-30.9,0.4c1.2-1.9,2.3-3.9,3.4-5.9
	C266.2,375.9,266.4,375.5,266.6,375z M246.9,338.6l2.7-6.2l4.7,4.8c0.1,0.1,0.3,0.2,0.5,0.2s0.4-0.2,0.4-0.3l2.9-6.3
	c0.4,8.4,0.6,18.6,0,28.8c-0.4,6.4-1.6,12.6-3.1,18.4L246.9,338.6z M233,337l-9-13.5c-0.1-7.3,0.4-12.9,0.8-15.8
	c3.3,7.2,9.4,13.4,17.2,17.3L233,337z M239.2,338.6l-4.6,38.9c-1.7-5.1-3.5-10.8-5.3-17c-3.8-12.7-5.1-25-5.3-34.7l8.4,12.6
	c0.1,0.2,0.3,0.3,0.5,0.3c0.2,0.1,0.4-0.1,0.5-0.2l3.7-5L239.2,338.6z M223.7,303l0.2,2.5c-0.1,0.8-1.2,7.8-1.1,18.1
	c0,0.1,0,0.2,0,0.3c0.1,10.1,1.3,23.3,5.4,36.9c2.2,7.3,4.3,13.9,6.2,19.6l0,0l0.1,0.2c3.5,10.6,6.4,18.3,8,22.6l-32.8-41.5
	l6.7-11.3c0.1-0.2,0.1-0.4,0-0.6s-0.3-0.3-0.6-0.3l-10.2,1.2l7.5-35.3L223.7,303z M261.7,483.3l41.3,44.9h-85.8L195.9,505l-7.9-8.6
	c6.7,2.3,13.4,4.4,19.7,6.3c0.1,0,0.1,0,0.2,0c0.1,0,0.2,0,0.3-0.1s0.2-0.3,0.3-0.5c0,0,0-0.4,0.1-1c2.4,1.1,9.9,4.5,14.9,4.7
	c3.6,0.2,5.8,2.4,8.3,5.1c1.4,1.4,2.8,2.9,4.6,4.3c1.7,1.3,3,2,4,2.4c0.3,0.1,0.6,0.2,0.9,0.2c0.4,0,0.6-0.1,0.9-0.3
	c0.7-0.5,0.7-1.5,0.2-3c-0.7-1.7-5-6.3-7.9-9.2c0.2,0.1,0.3,0.2,0.5,0.2c1.6,0.8,4,3,6.3,5.1c2.4,2.1,4.6,4.2,6.2,5
	c1.6,0.9,2.7,0.9,3.3,0.3c0.8-0.9,0.2-2.8-1.8-5.7c-2.1-3.1-6.6-7.6-9.4-10.4c1.9,1,4.6,2.6,7.3,5c2.2,1.9,4.1,3.8,5.6,5.4
	c2.6,2.7,4.3,4.4,5.6,4.1c0.7-0.1,1.3-0.6,1.5-1.3c0.7-1.9-0.6-5-3.5-8.3c-1.8-2-4.3-4.5-6.5-6.7c-1.7-1.7-3.6-3.6-4.6-4.7
	c2.6,0.8,8.4,3.4,12.5,6.9c3.3,2.8,5.1,3.7,6.2,3.2c0.9-0.4,0.9-1.6,0.8-2.4c-0.3-3.4-14.5-14.3-15.1-14.7
	c-3.2-2.4-6.2-2.6-10.9-2.9c-0.6,0-1.2-0.1-1.8-0.1L261.7,483.3L261.7,483.3z M233.8,484.3c1.7,0.2,3.2,0.2,4.5,0.3
	c4.6,0.3,7.3,0.4,10.2,2.6c5.8,4.4,14.4,11.9,14.6,13.9c0.1,1.1-0.1,1.2-0.1,1.2c-0.1,0.1-1,0.2-4.9-3c-4.9-4.1-12.4-7.2-14.2-7.5
	c-0.5-0.1-0.8,0.3-0.8,0.4c-0.3,0.7,0.3,1.5,5.5,6.6c2.2,2.2,4.7,4.6,6.5,6.6c3.1,3.4,3.7,6,3.3,7.1c-0.1,0.3-0.3,0.5-0.6,0.6
	c-0.7,0.1-2.6-1.9-4.5-3.8c-1.5-1.6-3.5-3.5-5.7-5.5c-5.6-4.8-10.6-6.5-10.8-6.6c-0.3-0.1-0.6,0-0.7,0.3c-0.1,0.2-0.1,0.5,0.1,0.7
	c0.1,0.1,8.7,8.1,11.8,12.6c2.1,3,2,4.1,1.9,4.3c-0.1,0.1-0.6,0.2-1.8-0.5c-1.5-0.8-3.8-2.9-6-4.9c-2.4-2.1-4.9-4.4-6.6-5.3
	c-3.1-1.7-3.8-1.9-3.8-1.9c-0.3-0.1-0.6,0-0.7,0.3c-0.1,0.2-0.1,0.5,0.1,0.7c2.6,2.5,9.4,9.5,10.2,11.4c0.4,1.1,0.3,1.6,0.2,1.6
	c0,0-0.1,0-0.2,0c-0.4,0-1.6-0.3-4.1-2.3c-1.7-1.3-3.1-2.7-4.5-4.1c-2.6-2.7-5.1-5.2-9.1-5.4c-5-0.2-13-3.9-14.8-4.8
	c0.4-2.4,1.3-6.3,3.2-9.8c0.9-1.6,1.8-3.1,2.7-4.5c1.8-2.7,3.3-4.8,4-5.6C220.3,480.6,227.3,483.7,233.8,484.3z M217.5,479.2
	c-1.1,1.4-4.1,5.5-6.7,10.2c-0.2,0.4-0.4,0.7-0.6,1.1c-2.2,4.5-2.8,9-3,10.8c-30.1-8.9-67.2-22.5-90.3-49.6
	c0.9-2.1,5.7-13.8,10.3-25.2c3.8-9.3,7.4-18.5,8.7-22.1c2.9-8.3,6-17.9,6.6-26.7c0.3-4.3,1.4-6.1,2.3-6.9c0.8-0.6,1.5-0.6,1.5-0.6
	c0.3,0,0.5-0.1,0.6-0.3l23.1-44.6c-0.1,4-0.3,12.1-0.4,22.2c-0.1,21.9,0.5,52.8,4.1,70.2l-10.4,23.2c-0.1,0.2,0,0.5,0.1,0.7
	c1.3,1.2,3.3,2.8,5.8,4.6c0.1,0.1,0.3,0.2,0.4,0.3c0.1,0.1,0.3,0.2,0.5,0.3c2.5,1.8,5.4,3.9,8.5,6.1l0,0
	C193.8,463.7,214,476.9,217.5,479.2z M189.5,458.8h-0.4c-3.2-2.2-6.4-4.4-9.4-6.5c0.2-1.8,0.6-9.6-4.7-34.6
	c-3.5-16.3-4.2-44.8-4.1-66.3c0-14.4,0.4-25.7,0.5-28.2l40.5-7.2l-7.5,35.4c0,0.2,0,0.4,0.1,0.5s0.3,0.2,0.5,0.2l9.9-1.2l-6.3,10.6
	c-0.1,0.2-0.1,0.5,0,0.7L244,407l0.1,51.8H189.5L189.5,458.8z M244,325c5.1-1.8,10.5-6.8,12.9-11.8c0.3,2.9,0.8,8.2,1.2,14.9
	l-3.5,7.5L244,325z M307.2,404c-2.8,26.5-7.9,51.2-8.7,54.8h-6.2h-47.1l-0.1-51.8c1.1-1.4,9.3-11.5,16.7-23.6L294,383
	c0.2,0,0.3-0.1,0.4-0.2s0.2-0.3,0.2-0.4l-0.2-7.5c0-0.3-0.3-0.6-0.6-0.6l-26.6-0.4c7.5-14.4,7.7-21.3,7.7-21.6
	c0-0.2-0.1-0.3-0.2-0.4l-7.6-7.2l9.8,1c0.2,0,0.4-0.1,0.5-0.2c0.1-0.2,0.2-0.4,0.1-0.6c-1.1-2.8-2.4-6.2-3.7-9.8
	c-2.7-7.4-5.5-15-7.7-18.9l42.7,10.9c0.1,2.4,0.3,14.5,0.2,29.3C309.1,371.8,308.6,390.2,307.2,404L307.2,404z M458.4,396.7
	c-1.7-1.9-3.1-3.7-4.2-5.3l4.1-1.2C458.7,393.7,458.6,395.6,458.4,396.7z M490,372.7c0.8,0.9,1.8,2.3,2.1,4.5
	c0.2,1.8-0.8,4.2-2.7,6.2c-1.6,1.8-3.5,2.9-5,2.9c-1.9,0-3.2-1.1-4-2c1.2,0,2.6-0.3,4.2-1.3C489.7,380,490.3,376,490,372.7z
	 M478.1,382.1c1.4-0.4,2.3-1.1,2.8-1.5c1.3,0.3,2.4,0.3,3.1-0.2c0.6-0.3,1-0.9,1.2-1.6c0-0.2,0.1-0.5,0-0.8
	c-0.1-0.8-0.5-1.5-1.3-2.2c1.1-2.4,1.3-4.8,0.7-7.9c0.9,0,1.8,0.2,2.5,0.5c0.2,0.2,1.3,1.1,1.6,3.6c0.4,3.3,0.2,7.1-4.7,10
	c-3.2,1.9-5.3,1-6.4,0.1C477.8,382.1,478,382.1,478.1,382.1z M476.5,381.1C476.4,381.1,476.4,381.1,476.5,381.1c-0.1,0-0.1,0-0.1,0
	c-0.9,0-1.8-0.1-2.4-0.2c0-0.3,0-0.6,0-1c1.2-0.6,2.9-0.9,5.2,0.1c0.1,0.1,0.2,0.1,0.3,0.1c-0.4,0.3-1,0.6-1.7,0.8
	C477.4,381,476.9,381.1,476.5,381.1z M452.3,374.1c2.5-0.8,3-0.9,3.2-1.1c5.1-4.1,8.4-6.7,12.5-9.3c4-2.6,8.2-2.3,13.2-1.9h0.5
	c5.3,0.4,11.4,2.3,18.2,5.5c3.4,1.6,3.2,2.5,3.2,2.5c-0.2,0.6-2.3,1.1-4.2,0.8c-2.7-0.4-6.3-1.5-11.1-3.3l0,0
	c-1.1-0.4-2.5-0.6-3.8-0.6l0,0c-2,0-4,0.3-5.7,0.6l-0.4,0.1c-0.5-0.2-2.4-0.8-3.8-1.2c-1.4-0.4-3.2-0.8-4-0.8l0,0
	c-0.3,0-0.6,0.3-0.6,0.6c0,0.3,0.3,0.6,0.6,0.6l0,0c0.5,0,1.8,0.3,3.7,0.7c1.2,0.3,2.9,0.9,3.6,1.1c0,0.1,0.1,0.2,0.1,0.4
	c0.1,0.4,0.1,0.9,0,1.4s-0.2,1.2-0.5,1.9c-0.1,0.2-0.1,0.3-0.2,0.4c-0.4-0.1-0.8-0.2-1.2-0.3c-4.5-1.2-11.4,0.3-13.4,0.7l0.1,0.6
	l0.2,0.6c1.4-0.3,8.5-1.9,12.8-0.8c1.5,0.4,2.8,0.8,3.9,1.2c1.8,0.7,2.9,1.3,3.6,1.8l0.1,0.1c0.9,0.7,1.1,1.2,1.2,1.6
	c0,0.2,0,0.3,0,0.5c-0.1,0.4-0.2,0.6-0.6,0.8c-0.8,0.4-2.2,0.2-3.8-0.5c-3.5-1.5-5.8-0.5-7.2,0.5c-1,0.6-2.9,0.4-3.5,0.3
	c-0.3-0.1-0.6,0.1-0.7,0.5c-0.1,0.3,0.1,0.6,0.5,0.7c0.1,0,2.6,0.6,4.2-0.3c0,0.2,0,0.5,0,0.7l0,0c-0.1,1.3-0.5,2.7-1.6,4.9
	c-1.5,2.9-6,2.1-6,2c-0.3-0.1-0.6,0.1-0.7,0.5c-0.1,0.3,0.1,0.6,0.5,0.7c0.2,0,5.4,1,7.3-2.7c1.1-2,1.5-3.5,1.7-4.7
	c0.6,0.1,1.4,0.2,2.2,0.2c0.4,0.4,1.2,1.3,2.6,1.8c0.5,0.8,2.4,3.4,5.7,3.5c1.8,0,4-1.2,5.9-3.3c1.3-1.5,2.3-3.1,2.7-4.6
	c0.5,1.1,0.5,2.6-0.1,4.1c-0.3,0.9-1.7,3.9-5.2,3.9c-0.1,0-0.1,0-0.2,0c-3.4-0.1-5.9,0.3-8.4,0.8c-2,0.4-4.1,0.8-6.7,0.9
	c-1.8,0.1-3.1,0.3-4.2,0.4c-2.7,0.4-3.9,0.6-7.4-1.3c-0.1-0.1-0.3-0.1-0.4,0l-1.5,0.4l0,0l0,0l-4.9,1.4c-0.1,0-0.2,0.1-0.3,0.2
	c-3.4-5.4-3.5-9.3-3.7-13.2c0-0.8-0.1-1.6-0.1-2.3C450.3,374.7,451.4,374.4,452.3,374.1z M478.5,368.7c0-0.1,0-0.1,0-0.2
	c1.5-0.2,3.3-0.5,5-0.6c0.5,2.8,0.4,5-0.5,7.1c-0.9-0.6-2-1.1-3.4-1.6c-0.5-0.2-1.1-0.4-1.7-0.6c0-0.1,0.1-0.2,0.1-0.4
	c0.3-0.8,0.5-1.5,0.6-2.1C478.6,369.8,478.6,369.3,478.5,368.7z M379.6,397.9c0.2,0.1,0.4,0.2,0.6,0.1l68.4-22.9
	c0.1,0.7,0.1,1.5,0.1,2.2c0.2,5.5,0.5,11.1,9.1,20.4L425,414.9l-47.4,24.8l-69.2-35.9c0.4-3.9,0.7-8.2,1-12.7
	c0.7-1.1,5.8-9.2,9.6-16c4-7.4,6.4-13.7,6.4-13.7c0.1-0.3,0-0.7-0.4-0.8c-0.3-0.1-0.7,0-0.8,0.4c0,0.1-2.3,6.3-6.3,13.6
	c-2.4,4.4-5.4,9.3-7.4,12.5l7.6-26.5c0.1-0.3-0.1-0.6-0.4-0.7s-0.6,0.1-0.7,0.4l-7.3,25.5c0.5-9.9,0.6-20.3,0.7-29.7
	c0.1-12.6-0.1-23.2-0.2-27.4l13.1,19.4c0.1,0.2,0.3,0.3,0.5,0.3c0.9-0.1,3.3,0,4.1,0.9c0.3,0.3,0.4,0.7,0.3,1.2
	c-0.6,2.9,0.5,3.7,2.5,5.2c0.6,0.4,1.3,0.9,2,1.5C336.3,359.8,379.2,397.5,379.6,397.9z M79,250h31.3h60.2c0.3,0,0.6-0.3,0.6-0.6
	v-25V115.9c0-0.3-0.3-0.6-0.6-0.6H79c-0.3,0-0.6,0.3-0.6,0.6v133.5C78.4,249.7,78.7,250,79,250z M86.8,123.7h75.9v103.7v14.2h-39.5
	H86.8V123.7z M292.7,238.6L292.7,238.6c5.9,6.2,16.2,10,27.5,10s21.6-3.7,27.4-9.9l0,0c0.1-0.1,0.1-0.1,0.1-0.2c0,0,0,0,0-0.1
	s0-0.2,0-0.3L321,151.5c8.8,1.6,33,4.9,47.4-4.2c8.8-5.6,17.8-8.6,26.8-9v133.2h-6c-0.3,0-0.6,0.3-0.6,0.6v2.9h-6.2
	c-0.3,0-0.6,0.3-0.6,0.6v2.9H370c-0.3,0-0.6,0.3-0.6,0.6v3.5c0,0.3,0.3,0.6,0.6,0.6h54.8c0.3,0,0.6-0.3,0.6-0.6v-3.5
	c0-0.3-0.3-0.6-0.6-0.6H413v-2.9c0-0.3-0.3-0.6-0.6-0.6h-6.2v-2.9c0-0.3-0.3-0.6-0.6-0.6h-6V138.1c9,0.4,18,3.4,26.8,9
	c14.4,9.1,38.6,5.8,47.4,4.2L447.1,238c0,0.1,0,0.2,0,0.3c0,0,0,0,0,0.1s0.1,0.2,0.1,0.2l0,0c5.9,6.2,16.2,9.9,27.4,9.9
	c11.3,0,21.6-3.7,27.4-9.9l0,0c0.1-0.1,0.1-0.1,0.1-0.2c0,0,0,0,0-0.1s0-0.2,0-0.3l-26.8-86.9c0.9-0.2,1.5-0.3,1.6-0.3
	c0.3-0.1,0.5-0.4,0.4-0.7l-0.3-1.2c-0.1-0.3-0.4-0.5-0.7-0.5c-0.3,0.1-32,6-48.2-4.3c-20.2-12.8-41.6-12.8-61.8,0
	c-16.3,10.3-47.9,4.3-48.2,4.3c-0.2,0-0.3,0-0.4,0.1s-0.2,0.2-0.3,0.4l-0.3,1.2c-0.1,0.3,0.1,0.6,0.5,0.7c0.2,0,0.7,0.2,1.6,0.3
	L292.6,238c0,0.1,0,0.2,0,0.3c0,0,0,0,0,0.1C292.6,238.4,292.7,238.5,292.7,238.6z M500.9,237.6h-52.4l26.2-85.1L500.9,237.6z
	 M320.2,152.5l26.2,85.1H294L320.2,152.5z M238.5,249.1c-0.1-0.3,0-0.7,0.3-0.8c0.1,0,0.3-0.1,0.4-0.2c1.2-0.7,3.3-2,9-0.7
	c6.1,1.4,8.5,0.2,8.5,0.2c0.3-0.1,0.6,0,0.8,0.3c0.2,0.3,0,0.6-0.2,0.8c-0.1,0.1-2.7,1.4-9.3-0.1c-5.2-1.2-7.1,0-8.1,0.6
	c-0.2,0.1-0.4,0.3-0.6,0.3c-0.1,0-0.1,0-0.2,0C238.9,249.5,238.6,249.4,238.5,249.1z M487,516.3l-45.4-38.1
	c-0.2-0.1-0.4-0.2-0.6-0.1s-15.3,5.1-36.9-1.4c-11.6-3.5-20.1-1.4-25.1,1c-4.4,2.1-7,4.7-8,5.7c-2.6-1.8-15.9-10.2-30.9-5.6
	c-16.1,5-47.5,1.2-48,1.2l0,0c-0.1,0-0.2,0-0.3,0c-0.1,0-0.1,0.1-0.2,0.1l-5.4,4.7c-0.1,0.1-0.2,0.3-0.2,0.4c0,0.2,0.1,0.3,0.2,0.4
	l48.5,49c0.1,0.1,0.2,0.2,0.4,0.2l0,0l0,0l34.5-0.3l0,0l0,0c0,0,0.2,0,0.6,0l47.2-0.4c0.1,0,0.1,0,0.2,0l11-1.8l47.7-7.5
	c0,0,0,0,0.1,0l15-2.3c0.2,0,0.4-0.2,0.5-0.4s0-0.5-0.2-0.6L487,516.3z M379.5,478.7c4.9-2.3,13-4.3,24.3-0.9
	c20.3,6.1,35,2.2,37.4,1.5l43.9,36.9c-4.7,0.1-19.4,0-33.7-2.6c-16-2.9-26.8,8.3-29,10.7L372,484C372.9,483,375.4,480.6,379.5,478.7
	z M340.5,478.8c16-4.9,30.1,5.7,30.2,5.8l47.7,38.2c-7.1-2.8-21.9-7-36.4-1.1c-18.6,7.6-38.1,3.9-40,3.5l-48.2-45
	C300.7,480.9,326.3,483.2,340.5,478.8z M335.1,532.3l-47.6-48.1l4.5-3.9l48.9,45.5L335.1,532.3z M476.4,522.6
	c-4.7,0.5-8,0.1-12.1-0.4c-3.6-0.4-7.7-0.9-13.9-0.9c-0.1,0-0.1,0-0.2,0c-12.5,0-20.6,7.5-21.8,8.7l-10.7,1.7
	c-1.5-0.4-15-4-25.7-1.8c-10.9,2.2-22.2,2.2-22.3,2.2l0,0l-33.2,0.3l5.4-6.2c2.8,0.6,22.1,3.9,40.5-3.6c19.4-7.9,39.5,2.9,39.7,3
	s0.5,0.1,0.7-0.1l0,0c0.1-0.1,11.1-13.8,28.2-10.7c16.4,3,33.2,2.6,35.3,2.6l3.7,3.1L476.4,522.6z M267.4,259.6
	c0-0.6,0.1-1.2,0.4-1.6c0.3-0.5,0.8-0.8,1.3-0.8c1,0,1.7,1.1,1.7,2.4c0,1.4-0.8,2.4-1.7,2.4S267.4,261,267.4,259.6z M263.3,245.7
	c0.2-0.3,0.5-0.4,0.8-0.2c0,0,2,1.1,4.8,0.9c3.3-0.3,4.9,1.7,5,2s0,0.7-0.3,0.8c-0.1,0-0.1,0-0.2,0c-0.2,0-0.4-0.1-0.5-0.3
	c-0.1-0.1-1.3-1.6-3.8-1.4c-3.2,0.3-5.4-1-5.5-1C263.2,246.3,263.1,245.9,263.3,245.7z"></path>
<path id="color_x5F_w" fill="#FFFFFF" d="M258,252.2c-0.6-0.6-1.6-0.7-2.3-0.6h-13.5c-0.9,0-2.5,1.5-2.5,3.6l0,0v0.8
	c0,3.7,0,8.3,1.9,10.3c0.7,0.7,1.6,1,2.8,1h7.8c3.9,0,6.4-6.3,6.5-12.2c0-0.4,0-0.7,0-1c0,0,0,0,0-0.1
	C258.6,253.2,258.4,252.6,258,252.2z M251.7,262.1c-1,0-1.7-1.1-1.7-2.4s0.8-2.4,1.7-2.4s1.7,1.1,1.7,2.4S252.6,262.1,251.7,262.1z
	 M422.4,524.4L372,484c0.9-1,3.4-3.4,7.5-5.3c4.9-2.3,13-4.3,24.3-0.9c20.3,6.1,35,2.2,37.4,1.5l43.9,36.9c-4.7,0.1-19.4,0-33.7-2.6
	C435.4,510.8,424.5,521.9,422.4,524.4z M266.2,316.1l42.7,10.9c0.1,2.4,0.3,14.5,0.2,29.3c-1.4,8.7-5.1,30-7,34.9
	c-2.4,6.3-3.1,6.5-2.5,13.8c0.6,6.9-6.4,48.3-7.3,53.7h-47.1l-0.1-51.8c1.1-1.4,9.3-11.5,16.7-23.6L294,383c0.2,0,0.3-0.1,0.4-0.2
	s0.2-0.3,0.2-0.4l-0.2-7.5c0-0.3-0.3-0.6-0.6-0.6l-26.6-0.4c7.5-14.4,7.7-21.3,7.7-21.6c0-0.2-0.1-0.3-0.2-0.4l-7.6-7.2l9.8,1
	c0.2,0,0.4-0.1,0.5-0.2c0.1-0.2,0.2-0.4,0.1-0.6c-1.1-2.8-2.4-6.2-3.7-9.8C271.2,327.6,268.5,320,266.2,316.1z M310.2,328.5
	l13.1,19.4c0.1,0.2,0.3,0.3,0.5,0.3c0.9-0.1,3.3,0,4.1,0.9c0.3,0.3,0.4,0.7,0.3,1.2c-0.6,2.9,0.5,3.7,2.5,5.2c0.6,0.4,1.3,0.9,2,1.5
	c3.5,2.8,46.4,40.5,46.8,40.9c0.2,0.1,0.4,0.2,0.6,0.1l68.4-22.9c0.1,0.7,0.1,1.5,0.1,2.2c0.2,5.5,0.5,11.1,9.1,20.4L425,414.9
	l-47.1,11.6c0,0-16.2-7.8-33.3-19.2c-17.1-11.4-22.3-33.1-20.2-36.5c2.1-3.4,2.3-12.9,0.9-11.6s-6,7.3-6.2,5.8
	c-0.1-1.5-0.1-6.8-2.3-5.1c-2.3,1.7-4.1,8.3-4.6,6.3c-0.3-1.3-1.2-6.6-1.8-10.1C310.4,343.4,310.2,332.8,310.2,328.5z M229.7,255.3
	l3.3-1.2c0.1,0,0.2-0.1,0.3-0.1l4.5,0.1c0.4-2.6,2.5-4.6,4.3-4.6h13.5c1,0,2.5,0,3.7,1.2c0.5,0.5,0.9,1.2,1.1,2
	c0.4-0.1,0.9-0.1,1.3-0.1c0.2,0,0.4,0,0.6,0c0.2-0.9,0.6-1.5,1.1-2c1-1,2.4-1.1,3.1-1h7.6c-0.3-14-3.3-17.3-3.7-17.7
	c-1.1-0.4-11.6-3.9-24.2-3.4c-9.3,0.4-13.1,3.6-14.5,5.5c-1.2,1.6-1.6,3.4-1.2,4.9c1,3.9,3.5,8.5,3.5,8.6c0.1,0.3,0.1,0.6-0.2,0.8
	C233.8,248.4,231.8,249.9,229.7,255.3z M263.3,245.7c0.2-0.3,0.5-0.4,0.8-0.2c0,0,2,1.1,4.8,0.9c3.3-0.3,4.9,1.7,5,2s0,0.7-0.3,0.8
	c-0.1,0-0.1,0-0.2,0c-0.2,0-0.4-0.1-0.5-0.3c-0.1-0.1-1.3-1.6-3.8-1.4c-3.2,0.3-5.4-1-5.5-1C263.2,246.3,263.1,245.9,263.3,245.7z
	 M238.9,248.4c0.1,0,0.3-0.1,0.4-0.2c1.2-0.7,3.3-2,9-0.7c6.1,1.4,8.5,0.2,8.5,0.2c0.3-0.1,0.6,0,0.8,0.3c0.2,0.3,0,0.6-0.2,0.8
	c-0.1,0.1-2.7,1.4-9.3-0.1c-5.2-1.2-7.1,0-8.1,0.6c-0.2,0.1-0.4,0.3-0.6,0.3c-0.1,0-0.1,0-0.2,0c-0.2,0-0.5-0.1-0.6-0.4
	C238.4,248.8,238.6,248.5,238.9,248.4z M266.5,251.6c-0.7,0-1.3,0-1.7,0.5c-0.5,0.5-0.8,1.6-0.8,3.1c0,5.9,2.1,12.2,5.3,12.2h3.9
	c0.3-2.5,0.5-5,0.6-7.7c0.2-3,0.2-5.7,0.2-8h-7.5C266.5,251.6,266.5,251.6,266.5,251.6z M267.8,258c0.3-0.5,0.8-0.8,1.3-0.8
	c1,0,1.7,1.1,1.7,2.4c0,1.4-0.8,2.4-1.7,2.4s-1.7-1.1-1.7-2.4C267.4,259,267.5,258.5,267.8,258z M265.1,343.5
	c-0.1,0.2-0.1,0.5,0.1,0.7l8.6,8.2c-0.1,1.4-1.2,9.1-8.9,23.3c-5.8,10.5-13,20.5-17.2,26c2.2-4.6,5.3-12,7.8-20.6
	c0.1-0.3,0.2-0.5,0.2-0.5v-0.1c1.8-6.5,3.3-13.7,3.8-21c0.7-11.1,0.4-22.3-0.1-31.2c0-0.1,0-0.1,0-0.2c-0.6-10-1.4-17-1.5-17.5
	l-0.1-1.6l6.1,5.7c2.2,2,5.8,11.9,9,20.6c1.2,3.3,2.3,6.4,3.4,9l-10.5-1.1C265.4,343.2,265.2,343.3,265.1,343.5z M262.6,382.2
	c1.2-1.9,2.3-3.9,3.4-5.9c0.2-0.5,0.5-0.9,0.7-1.3l26.6,0.4l0.2,6.3L262.6,382.2z M458.4,390.2c0.4,3.4,0.3,5.4,0.1,6.5
	c-1.7-1.9-3.1-3.7-4.2-5.3L458.4,390.2z M258.2,359.5c-0.4,6.4-1.6,12.6-3.1,18.4l-8.2-39.3l2.7-6.2l4.7,4.8
	c0.1,0.1,0.3,0.2,0.5,0.2s0.4-0.2,0.4-0.3l2.9-6.3C258.6,339.1,258.8,349.3,258.2,359.5z M370.7,484.6l47.7,38.2
	c-7.1-2.8-21.9-7-36.4-1.1c-18.6,7.6-38.1,3.9-40,3.5l-48.2-45c7,0.7,32.6,3,46.8-1.4C356.5,473.9,370.6,484.5,370.7,484.6z
	 M256.9,313.3c0.3,2.9,0.8,8.2,1.2,14.9l-3.5,7.5L244,325C249.1,323.2,254.5,318.2,256.9,313.3z M486.4,517.4l3.7,3.1l-13.8,2.1
	c-4.7,0.5-8,0.1-12.1-0.4c-3.6-0.4-7.7-0.9-13.9-0.9c-0.1,0-0.1,0-0.2,0c-12.5,0-20.6,7.5-21.8,8.7l-10.7,1.7
	c-1.5-0.4-15-4-25.7-1.8c-10.9,2.2-22.2,2.2-22.3,2.2l0,0l-33.2,0.3l5.4-6.2c2.8,0.6,22.1,3.9,40.5-3.6c19.4-7.9,39.5,2.9,39.7,3
	s0.5,0.1,0.7-0.1l0,0c0.1-0.1,11.1-13.8,28.2-10.7C467.5,517.8,484.3,517.5,486.4,517.4z M261.7,483.3l41.3,44.9h-85.8L195.9,505
	c3.6,0.5,16.8,2.3,22.5,3.1c6.6,0.9,13.8,5.3,17.9,8c1.9,1.2,3.2,1.5,4.1,1.4c0.3,0.1,0.6,0.2,0.9,0.2c0.4,0,0.6-0.1,0.9-0.3
	c0.7-0.5,0.7-1.5,0.2-3c-0.7-1.7-5-6.3-7.9-9.2c0.2,0.1,0.3,0.2,0.5,0.2c1.6,0.8,4,3,6.3,5.1c2.4,2.1,4.6,4.2,6.2,5
	c1.6,0.9,2.7,0.9,3.3,0.3c0.8-0.9,0.2-2.8-1.8-5.7c-2.1-3.1-6.6-7.6-9.4-10.4c1.9,1,4.6,2.6,7.3,5c2.2,1.9,4.1,3.8,5.6,5.4
	c2.6,2.7,4.3,4.4,5.6,4.1c0.7-0.1,1.3-0.6,1.5-1.3c0.7-1.9-0.6-5-3.5-8.3c-1.8-2-4.3-4.5-6.5-6.7c-1.7-1.7-3.6-3.6-4.6-4.7
	c2.6,0.8,8.4,3.4,12.5,6.9c3.3,2.8,5.1,3.7,6.2,3.2c0.9-0.4,0.9-1.6,0.8-2.4c-0.3-3.4-14.5-14.3-15.1-14.7
	c-3.2-2.4-6.2-2.6-10.9-2.9c-0.6,0-1.2-0.1-1.8-0.1h25V483.3z M503,369.9c-0.2,0.6-2.3,1.1-4.2,0.8c-2.7-0.4-6.3-1.5-11.1-3.3l0,0
	c-1.1-0.4-2.5-0.6-3.8-0.6l0,0c-2,0-4,0.3-5.7,0.6l-0.4,0.1c-0.5-0.2-2.4-0.8-3.8-1.2c-1.4-0.4-3.2-0.8-4-0.8l0,0
	c-0.3,0-0.6,0.3-0.6,0.6c0,0.3,0.3,0.6,0.6,0.6l0,0c0.5,0,1.8,0.3,3.7,0.7c1.2,0.3,2.9,0.9,3.6,1.1c0,0.1,0.1,0.2,0.1,0.4
	c0.1,0.4,0.1,0.9,0,1.4s-0.2,1.2-0.5,1.9c-0.1,0.2-0.1,0.3-0.2,0.4c-0.4-0.1-0.8-0.2-1.2-0.3c-4.5-1.2-11.4,0.3-13.4,0.7l0.1,0.6
	l0.2,0.6c1.4-0.3,8.5-1.9,12.8-0.8c1.5,0.4,2.8,0.8,3.9,1.2c1.8,0.7,2.9,1.3,3.6,1.8l0.1,0.1c0.9,0.7,1.1,1.2,1.2,1.6
	c0,0.2,0,0.3,0,0.5c-0.1,0.4-0.2,0.6-0.6,0.8c-0.8,0.4-2.2,0.2-3.8-0.5c-3.5-1.5-5.8-0.5-7.2,0.5c-1,0.6-2.9,0.4-3.5,0.3
	c-0.3-0.1-0.6,0.1-0.7,0.5c-0.1,0.3,0.1,0.6,0.5,0.7c0.1,0,2.6,0.6,4.2-0.3c0,0.2,0,0.5,0,0.7l0,0c-0.1,1.3-0.5,2.7-1.6,4.9
	c-1.5,2.9-6,2.1-6,2c-0.3-0.1-0.6,0.1-0.7,0.5c-0.1,0.3,0.1,0.6,0.5,0.7c0.2,0,5.4,1,7.3-2.7c1.1-2,1.5-3.5,1.7-4.7
	c0.6,0.1,1.4,0.2,2.2,0.2c0.4,0.4,1.2,1.3,2.6,1.8c0.5,0.8,2.4,3.4,5.7,3.5c1.8,0,4-1.2,5.9-3.3c1.3-1.5,2.3-3.1,2.7-4.6
	c0.5,1.1,0.5,2.6-0.1,4.1c-0.3,0.9-1.7,3.9-5.2,3.9c-0.1,0-0.1,0-0.2,0c-3.4-0.1-5.9,0.3-8.4,0.8c-2,0.4-4.1,0.8-6.7,0.9
	c-1.8,0.1-3.1,0.3-4.2,0.4c-2.7,0.4-3.9,0.6-7.4-1.3c-0.1-0.1-0.3-0.1-0.4,0l-1.5,0.4l0,0l0,0l-4.9,1.4c-0.1,0-0.2,0.1-0.3,0.2
	c-3.4-5.4-3.5-9.3-3.7-13.2c0-0.8-0.1-1.6-0.1-2.3c0.6-0.2,1.7-0.5,2.6-0.8c2.5-0.8,3-0.9,3.2-1.1c5.1-4.1,8.4-6.7,12.5-9.3
	c4-2.6,8.2-2.3,13.2-1.9h0.5c5.3,0.4,11.4,2.3,18.2,5.5C503.2,369,503,369.9,503,369.9z M393.9,530.9c0.8-0.1,1.7-0.2,2.5-0.3
	c-0.3,0-0.6,0.1-0.8,0.1C395,530.8,394.4,530.8,393.9,530.9z M340.9,525.8l-5.8,6.5l-47.6-48.1l4.5-3.9L340.9,525.8z M477.7,382.2
	c0.1,0,0.3-0.1,0.4-0.1c1.4-0.4,2.3-1.1,2.8-1.5c1.3,0.3,2.4,0.3,3.1-0.2c0.6-0.3,1-0.9,1.2-1.6c0-0.2,0.1-0.5,0-0.8
	c-0.1-0.8-0.5-1.5-1.3-2.2c1.1-2.4,1.3-4.8,0.7-7.9c0.9,0,1.8,0.2,2.5,0.5c0.2,0.2,1.3,1.1,1.6,3.6c0.4,3.3,0.2,7.1-4.7,10
	C480.8,384,478.7,383,477.7,382.2z M478.5,370.4c0.1-0.6,0.1-1.1,0-1.7c0-0.1,0-0.1,0-0.2c1.5-0.2,3.3-0.5,5-0.6
	c0.5,2.8,0.4,5-0.5,7.1c-0.9-0.6-2-1.1-3.4-1.6c-0.5-0.2-1.1-0.4-1.7-0.6c0-0.1,0.1-0.2,0.1-0.4C478.2,371.7,478.4,371,478.5,370.4z
	 M480.5,384.4c1.2,0,2.6-0.3,4.2-1.3c5.1-3,5.6-7.1,5.3-10.4c0.8,0.9,1.8,2.3,2.1,4.5c0.2,1.8-0.8,4.2-2.7,6.2
	c-1.6,1.8-3.5,2.9-5,2.9C482.6,386.3,481.3,385.2,480.5,384.4z M479.5,380.2c-0.4,0.3-1,0.6-1.7,0.8c-0.4,0.1-0.8,0.2-1.3,0.2h-0.1
	l0,0c-0.9,0-1.8-0.1-2.4-0.2c0-0.3,0-0.6,0-1c1.2-0.6,2.9-0.9,5.2,0.1C479.2,380.1,479.4,380.1,479.5,380.2z M242,325l-9,12l-9-13.5
	c-0.1-7.3,0.4-12.9,0.8-15.8C228.1,314.9,234.3,321.1,242,325z M254.5,286.7c-1.7-0.9-2.7-1.4-3.3-1.8c0.4,0,0.9,0.1,1.5,0.2
	c3,0.5,7.8-0.2,10.4-0.6C261.5,286.1,258.2,288.6,254.5,286.7z M233.5,338.4l3.7-5l2.1,5.2l-4.6,38.9c-1.7-5.1-3.5-10.8-5.3-17
	c-3.8-12.7-5.1-25-5.3-34.7l8.4,12.6c0.1,0.2,0.3,0.3,0.5,0.3C233.2,338.7,233.4,338.6,233.5,338.4z M207.7,494.1
	c0,0-50.4-19.9-64.9-30.3s-17.5-15.6-17.1-22.2c0.3-4.7,1.2-11.6,1.6-15.2c3.8-9.3,7.4-18.5,8.7-22.1c2.9-8.3,6-17.9,6.6-26.7
	c0.3-4.3,1.4-6.1,2.3-6.9c0.8-0.6,1.5-0.6,1.5-0.6c0.3,0,0.5-0.1,0.6-0.3l23.1-44.6c-0.1,4-0.3,12.1-0.4,22.2
	c-1,1.8-2.9,10.4-3,22.8c-0.1,15.6-6.6,13.7-6.2,15.2c0.5,1.5,7.8,15.5,7.3,23.6s-8.3,30.9-8,31.7c0.2,0.6,6.9,4,9.4,5.7
	c0.1,0.1,0.3,0.2,0.4,0.3l0.5,0.5c0,0,0-0.1-0.1-0.1c2.5,1.8,5.4,3.9,8.5,6.1l0,0c15.1,10.6,35.3,23.8,38.8,26.2
	c-1.1,1.4-4.1,5.5-6.7,10.2c-0.2,0.4-0.4,0.7-0.6,1.1L207.7,494.1z M214.7,269.6L214.7,269.6c1,2.8,4.8,6.8,7.8,7.3
	c0.3,0,0.5,0.3,0.5,0.5l1.8,24l0,0l0.3,3.9c3,7.9,9.5,14.7,17.8,18.8c5.8-1.7,12.1-7.9,13.7-13.4l-0.1-3l0,0l-0.1-1.6
	c-2.3-0.3-10.6-1.6-17.7-7.4c-6-4.9-8.7-10.6-9.8-13.4c-1.8-2.3-3.1-4.8-3.8-7.3c-0.1-0.3,0.1-0.6,0.4-0.7c0.3-0.1,0.6,0.1,0.7,0.4
	c3.4,11.3,18.1,20.2,30.5,22h0.1c0.6,0.1,1.2,0.1,1.7,0.2c1.5,0.1,2.9-0.4,4.3-1.6c4.6-4,8.3-14.7,10.1-28.9h-3.7
	c-2,0-3.6-1.4-4.8-3.5c0.7,3.3,1.4,7.4,1.7,10.3c0.2,1.7-0.2,2.9-1.2,3.6c-0.6,0.4-1.3,0.6-2.1,0.6c-1.6,0-3.2-0.7-3.4-0.8
	c-0.3-0.1-0.4-0.5-0.3-0.8s0.5-0.4,0.8-0.3c0.8,0.4,3.2,1.2,4.3,0.3c0.6-0.4,0.8-1.2,0.7-2.5c-0.6-5.5-2.9-15.7-2.9-15.8
	c-0.1-0.3,0.1-0.6,0.4-0.7c-0.3-1.5-0.4-3-0.4-4.5c0-0.2,0-0.3,0-0.5c-0.1,0-0.2,0-0.3,0c-0.2,0-0.6,0-1,0.1c0,0.1,0,0.3,0,0.4
	c-0.1,6.8-3,14.1-8.4,14.1h-7.8c-1.7,0-3.1-0.5-4.2-1.6c-2.5-2.5-2.5-7.1-2.5-11.3l-8.8,1.8c-0.5,5.5,2.4,12.3,2.4,12.4
	c0.1,0.2,0.1,0.5-0.1,0.7c-0.1,0.1-0.3,0.2-0.4,0.2c-0.1,0-0.2,0-0.2,0l-3.8-1.6c-0.2-0.1-0.3-0.3-0.4-0.5c0-0.1-1.3-11.2-7.9-12.6
	c-1.9-0.4-3.3-0.1-4.1,1C212.4,260,213.3,266.1,214.7,269.6L214.7,269.6z M249.2,284.2c0.2-0.7,1.1-0.7,3.7-0.3
	c3.9,0.6,11.5-0.9,11.6-0.9c0.2-0.1,0.5,0.1,0.6,0.3c0.1,0.2,0.1,0.5,0,0.7c0,0.1-3.3,4.7-7.9,4.7c-1,0-2.2-0.2-3.3-0.8
	C249.4,285.4,249,284.9,249.2,284.2z M243.2,492.2c-0.3,0.7,0.3,1.5,5.5,6.6c2.2,2.2,4.7,4.6,6.5,6.6c3.1,3.4,3.7,6,3.3,7.1
	c-0.1,0.3-0.3,0.5-0.6,0.6c-0.7,0.1-2.6-1.9-4.5-3.8c-1.5-1.6-3.5-3.5-5.7-5.5c-5.6-4.8-10.6-6.5-10.8-6.6c-0.3-0.1-0.6,0-0.7,0.3
	c-0.1,0.2-0.1,0.5,0.1,0.7c0.1,0.1,8.7,8.1,11.8,12.6c2.1,3,2,4.1,1.9,4.3c-0.1,0.1-0.6,0.2-1.8-0.5c-1.5-0.8-3.8-2.9-6-4.9
	c-2.4-2.1-4.9-4.4-6.6-5.3c-3.1-1.7-3.8-1.9-3.8-1.9c-0.3-0.1-0.6,0-0.7,0.3c-0.1,0.2-0.1,0.5,0.1,0.7c2.6,2.5,9.4,9.5,10.2,11.4
	c0.4,1.1,0.3,1.6,0.2,1.6c0,0-0.1,0-0.2,0c-1.2-0.7-3.7-2.3-5.6-4.8c-2.6-3.5-6.3-7.4-14.5-10.4s-8.6-7.6-7.6-10.5
	c0.7-1.9,0.9-4,1.1-5.3c1.8-2.7,3.3-4.8,4-5.6c1.8,0.8,8.7,3.9,15.3,4.5c1.7,0.2,3.2,0.2,4.5,0.3c4.6,0.3,7.3,0.4,10.2,2.6
	c5.8,4.4,14.4,11.9,14.6,13.9c0.1,1.1-0.1,1.2-0.1,1.2c-0.1,0.1-1,0.2-4.9-3c-4.9-4.1-12.4-7.2-14.2-7.5
	C243.4,491.7,243.2,492.1,243.2,492.2z M205.6,350.8l7.5-35.3l10.6-12.5l0.2,2.5c-0.1,0.8-1.2,7.8-1.1,18.1c0,0.1,0,0.2,0,0.3
	c0.1,10.1,1.3,23.3,5.4,36.9c2.2,7.3,4.3,13.9,6.2,19.6l0,0l0.1,0.2c3.5,10.6,6.4,18.3,8,22.6l-32.8-41.5l6.7-11.3
	c0.1-0.2,0.1-0.4,0-0.6s-0.3-0.3-0.6-0.3L205.6,350.8z M181.1,411.7c-2.2-4.9-8.2-47.2-10.2-60.4c0-14.4,0.4-25.7,0.5-28.2l40.5-7.2
	l-7.5,35.4c0,0.2,0,0.4,0.1,0.5s0.3,0.2,0.5,0.2l9.9-1.2l-6.3,10.6c-0.1,0.2-0.1,0.5,0,0.7l35.4,44.8l0.1,51.8h-54.5
	c-0.5-3.3-2-12.8-2.6-23.1C186.2,423,183.6,417.4,181.1,411.7z"></path>
<path id="color_x5F_3" fill="#93e5ab" d="M74.9,436.4L74.9,436.4c-2.2-6.4-8.6-11-17.1-8.4c-5.2,1.6-7,6.6-7.6,10.1l0.1-0.1
	c-1.9,1.2-3.6,2.6-5,4.1c0,0-1.4-13.8,12.9-18C72.5,420.1,74.9,436.4,74.9,436.4z M54,413.9c2.1-3,5.8-7,11.4-6.2
	c9,1.1,13.1,8.2,12.4,15.2c0,0,4.8-16.3-10.3-18.5c-1.4-0.2-2.7-0.3-3.9-0.2c-12.1,0.3-15.9,11.5-15.9,11.5c2.5-1,5.2-1.6,8-1.9
	C55.1,413.7,54.5,413.8,54,413.9z M68,415.2c-0.4-0.2-0.8-0.3-1.3-0.4c0.1,0,0.3,0.1,0.4,0.1C67.4,415,67.7,415.1,68,415.2z
	 M70.2,390.8c-4.1,0.4-7,1.8-8.9,3.7c-4.2,3.9-4.4,9.5-4.4,9.5c1.7-1.3,3.7-2.3,5.9-3.1c0,0,0.1,0,0.1-0.1c-0.5,0.2-0.9,0.3-1.3,0.5
	c0.9-2.9,3.1-6.9,7.8-7.4c7.6-0.8,12.6,4.2,13.7,10.1C83,404.1,83,389.7,70.2,390.8z M73.4,369.9C60.6,371,60,383.1,60,383.1
	c1.8-1.3,3.8-2.4,6.1-3.1c-0.4,0.2-0.9,0.3-1.3,0.5c0.9-2.9,3.1-6.9,7.8-7.4c7.6-0.8,12.6,4.2,13.7,10.1
	C86.3,383.2,86.3,368.8,73.4,369.9z M56.7,365l-0.1,0.1c-0.4-4,0.1-9.8,5.4-12.9c8.6-4.9,17.2-1.5,21.6,5c0,0-7.5-17.2-22.2-9.2
	c-1.1,0.6-2.1,1.2-3,1.9c-10.9,8.2-6.2,20.8-6.2,20.8C53.5,368.7,55,366.8,56.7,365z M82,348.1c-0.2,0.4-0.5,0.8-0.6,1.3
	c0.1-0.2,0.2-0.3,0.3-0.5C81.8,348.6,81.9,348.4,82,348.1z M81.4,349.4c-1.1-5.2,1.2-11,7.6-13c4-1.2,7.1,1.2,8.9,3.3
	c-0.4,0-0.8,0-1.3,0.1c2.1-0.2,4.1,0,6,0.4c0,0-4.6-9.6-15.5-6c-9.5,3.1-6.8,12.5-6,14.7C81.3,349.2,81.4,349.4,81.4,349.4z
	 M96.2,353.6c-12.7,4.2-6.8,17.9-6.8,17.9c-1.3-6.1,1.4-12.9,8.9-15.2c4.7-1.4,8.3,1.5,10.4,3.9c-0.5,0-1,0-1.5,0.1
	c2.4-0.2,4.9,0,7.1,0.5C114.3,360.7,108.9,349.4,96.2,353.6z M104.6,378c-12.5-4.8-16.6,9.6-16.6,9.6c2.8-5.5,9.2-9.2,16.5-6.2
	c4.6,1.9,5.6,6.4,5.7,9.6c-0.4-0.3-0.8-0.6-1.2-0.9c2,1.4,3.8,3,5.2,4.9C114.2,395,117.1,382.8,104.6,378z M88.1,387.6
	c0.5-0.3,1-0.5,1.5-0.7C89.1,387.1,88.6,387.3,88.1,387.6z M101.4,399.4c-11.8-5.3-16.5,8.3-16.5,8.3c3-5.2,9.4-8.3,16.3-5
	c4.3,2,5,6.5,4.9,9.5c-0.4-0.3-0.7-0.6-1.1-0.9c1.9,1.5,3.5,3.1,4.7,5C109.7,416.2,113.1,404.7,101.4,399.4z M95.6,415.2
	C81.4,411.1,79,427.4,79,427.4c2.2-6.4,8.6-11,17.1-8.4c5.2,1.6,7,6.6,7.6,10.1l-0.1-0.1c1.9,1.2,3.6,2.6,5,4.1
	C108.5,433.2,109.9,419.4,95.6,415.2z M88.4,437.2c-4.6-2.1-7.6-0.1-9.5,2.1c-1.5,1.8-2.2,3.7-2.2,3.7c2.1-3.7,6.6-5.9,11.5-3.6
	c3,1.4,3.5,4.6,3.5,6.7c-0.2-0.2-0.5-0.4-0.8-0.6c1.3,1,2.5,2.2,3.3,3.5C94.3,449.1,96.7,440.9,88.4,437.2z M80.7,442.1
	c0.3,0,0.6,0,0.9,0c-0.4,0-0.7,0-1.1,0C80.6,442.1,80.6,442.1,80.7,442.1z"></path>
<path id="color_x5F_4" fill="#b5ffe1" d="M131.2,413.6C131.1,413.6,131.1,413.6,131.2,413.6v-84.4H61.6c-1.5,6.7-2.5,13.6-3.1,20.7
	c0.9-0.7,1.9-1.3,3-1.9c14.8-8,22.2,9.2,22.2,9.2c-0.5-0.2-1.1-0.4-1.6-0.5c-0.1,0-0.2-0.1-0.3-0.1c-0.5-0.1-1-0.2-1.6-0.3
	c-0.1,0-0.2,0-0.3,0c-0.5-0.1-1-0.1-1.5-0.2c-0.1,0-0.2,0-0.3,0c-0.5,0-1.1-0.1-1.6,0c-0.1,0-0.2,0-0.3,0c-0.5,0-1.1,0-1.6,0.1l0,0
	c-0.5,0.1-1.1,0.1-1.6,0.2c-0.1,0-0.2,0-0.3,0.1c-0.5,0.1-1.1,0.2-1.6,0.3c-0.1,0-0.2,0-0.3,0.1c-0.5,0.1-1,0.3-1.5,0.4
	c-0.1,0-0.1,0-0.2,0.1c-0.5,0.2-1,0.4-1.6,0.6c-0.1,0-0.2,0.1-0.3,0.1c-1,0.4-2.1,0.9-3.1,1.5c-0.1,0-0.2,0.1-0.3,0.1
	c-0.5,0.3-1,0.6-1.4,0.9c-0.1,0-0.1,0.1-0.2,0.1c-0.4,0.3-0.9,0.6-1.3,0.9c-0.1,0-0.1,0.1-0.2,0.1c-0.5,0.3-0.9,0.7-1.3,1
	c-0.1,0.1-0.2,0.1-0.2,0.2c-0.4,0.3-0.8,0.7-1.3,1.1c0.1,8.8,0.9,17.8,2.5,27c0.2,1.3,0.5,2.5,0.7,3.7c2-1.8,4.8-3.3,8.9-3.7
	c13-1.3,13,13.1,13,13.1c-0.4-0.4-0.8-0.7-1.2-1.1c-0.1-0.1-0.3-0.2-0.4-0.3c-0.3-0.2-0.6-0.4-0.9-0.6c-0.2-0.1-0.3-0.2-0.5-0.3
	c-0.3-0.2-0.7-0.4-1-0.5c-0.2-0.1-0.3-0.1-0.5-0.2c-0.5-0.2-1-0.4-1.5-0.6l0,0c-0.5-0.2-1-0.3-1.6-0.4c-0.2,0-0.3-0.1-0.5-0.1
	c-0.4-0.1-0.7-0.1-1.1-0.2c-0.2,0-0.4-0.1-0.6-0.1c-0.4,0-0.7-0.1-1.1-0.1c-0.2,0-0.4,0-0.5,0c-0.5,0-1,0-1.5,0H70
	c-0.5,0-1.1,0.1-1.6,0.1c-0.2,0-0.4,0-0.5,0.1c-0.4,0-0.7,0.1-1.1,0.2c-0.2,0-0.4,0.1-0.6,0.1c-0.4,0.1-0.7,0.2-1.1,0.2
	c-0.2,0-0.4,0.1-0.5,0.1c-0.5,0.1-0.9,0.3-1.4,0.4c-0.1,0-0.1,0-0.2,0.1c0,0-0.1,0-0.1,0.1c0.3,1.1,0.6,2.1,0.9,3.2
	c1.2,0,2.5,0,3.9,0.2c15.2,2.3,10.3,18.5,10.3,18.5c-0.3-0.5-0.7-1.1-1.1-1.5c-0.1-0.2-0.3-0.3-0.4-0.5c-0.3-0.3-0.6-0.7-0.9-1
	c-0.2-0.2-0.3-0.3-0.5-0.5c-0.3-0.3-0.6-0.6-1-0.9c-0.2-0.1-0.3-0.3-0.5-0.4c-0.5-0.4-1-0.7-1.5-1l0,0c-0.5-0.3-1.1-0.6-1.6-0.9
	c-0.2-0.1-0.4-0.2-0.5-0.3c-0.4-0.2-0.8-0.4-1.2-0.5c-0.2-0.1-0.4-0.2-0.6-0.2c-0.3-0.1-0.5-0.2-0.8-0.3c2.4,6.5,5.4,12.8,8.7,18.9
	c1-6,2.7-13.1,5.7-21.8c12.5-36.6-0.5-62.1-0.7-62.3c-0.2-0.3,0-0.7,0.2-0.8l0,0c-0.8-2.3-3.5-11.6,6-14.7c10.8-3.6,15.5,6,15.5,6
	c-1.9-0.5-3.9-0.6-6-0.4c-0.1,0-0.1,0-0.2,0c-0.4,0-0.8,0.1-1.3,0.1c-0.2,0-0.3,0.1-0.5,0.1c-0.3,0.1-0.6,0.1-1,0.2
	c-0.2,0-0.3,0.1-0.5,0.1c-0.3,0.1-0.6,0.2-1,0.3c-0.2,0-0.3,0.1-0.5,0.1c-0.5,0.1-0.9,0.3-1.4,0.5h-0.1c-0.4,0.2-0.8,0.3-1.2,0.5
	c-0.1,0.1-0.3,0.1-0.4,0.2c-0.3,0.2-0.6,0.3-0.9,0.5c-0.1,0.1-0.3,0.2-0.4,0.3c-0.3,0.2-0.6,0.4-0.8,0.5c-0.1,0.1-0.3,0.2-0.4,0.3
	c-0.4,0.3-0.8,0.6-1.1,0.9l0,0c-0.3,0.3-0.7,0.6-1,1c-0.1,0.1-0.2,0.2-0.3,0.3c-0.2,0.2-0.4,0.5-0.6,0.8c-0.1,0.1-0.2,0.3-0.3,0.4
	c-0.2,0.3-0.4,0.6-0.5,0.8c-0.1,0.1-0.2,0.3-0.2,0.4c-0.1,0.2-0.3,0.5-0.4,0.8c0.1,0.1,0.2,0.1,0.3,0.3c0.1,0.3,13.4,26.1,0.7,63.3
	c-3.2,9.5-5,17.1-5.9,23.2c0.7,1.2,1.4,2.5,2.1,3.7c1.8-2.2,4.9-4.2,9.5-2.1c8.3,3.7,5.9,11.9,5.9,11.9c-0.9-1.3-2-2.5-3.3-3.5
	l-0.1-0.1c-0.3-0.2-0.5-0.4-0.8-0.6c-0.1-0.1-0.2-0.1-0.3-0.2c-0.2-0.1-0.4-0.3-0.7-0.4c-0.1-0.1-0.2-0.1-0.4-0.2
	c-0.2-0.1-0.5-0.2-0.7-0.4c-0.1-0.1-0.2-0.1-0.3-0.2c-0.3-0.2-0.7-0.3-1.1-0.5h-0.1c-0.3-0.1-0.7-0.2-1-0.3c-0.1,0-0.2-0.1-0.4-0.1
	c-0.3-0.1-0.5-0.1-0.8-0.2c-0.1,0-0.3-0.1-0.4-0.1c-0.3-0.1-0.5-0.1-0.8-0.1c-0.1,0-0.2,0-0.4,0c-0.4,0-0.8-0.1-1.1-0.1l0,0
	c-0.3,0-0.6,0-0.9,0c3.6,5.7,7.6,11.3,11.9,16.7H122c-2.1-2.1-4.2-4.3-6.2-6.6c-0.1-0.2-0.2-0.4-0.1-0.6
	C115.9,451.3,125.4,428.1,131.2,413.6z M85,382.1c-0.1-0.1-0.3-0.2-0.4-0.3c-0.3-0.2-0.6-0.4-0.9-0.6c-0.2-0.1-0.3-0.2-0.5-0.3
	c-0.3-0.2-0.7-0.4-1-0.5c-0.2-0.1-0.3-0.1-0.5-0.2c-0.5-0.2-1-0.4-1.5-0.6l0,0c-0.5-0.2-1-0.3-1.6-0.4c-0.2,0-0.3-0.1-0.5-0.1
	c-0.4-0.1-0.7-0.1-1.1-0.2c-0.2,0-0.4-0.1-0.6-0.1c-0.4,0-0.7-0.1-1.1-0.1c-0.2,0-0.4,0-0.5,0c-0.5,0-1,0-1.5,0h-0.1
	c-0.5,0-1.1,0.1-1.6,0.1c-0.2,0-0.4,0-0.5,0.1c-0.4,0-0.7,0.1-1.1,0.2c-0.2,0-0.4,0.1-0.6,0.1c-0.4,0.1-0.7,0.2-1.1,0.2
	c-0.2,0-0.4,0.1-0.5,0.1c-0.5,0.1-0.9,0.3-1.4,0.4c-0.1,0-0.1,0-0.2,0.1c-2.2,0.8-4.3,1.8-6.1,3.1c0,0,0.5-12.1,13.4-13.2
	c12.8-1.1,12.8,13.3,12.8,13.3C85.9,382.8,85.4,382.5,85,382.1z M96.2,353.6c12.7-4.2,18.1,7.1,18.1,7.1c-2.2-0.5-4.6-0.7-7.1-0.5
	c-0.1,0-0.1,0-0.2,0c-0.5,0-1,0.1-1.5,0.2c-0.2,0-0.4,0.1-0.6,0.1c-0.4,0.1-0.7,0.1-1.1,0.2c-0.2,0-0.4,0.1-0.6,0.1
	c-0.4,0.1-0.8,0.2-1.1,0.3c-0.2,0.1-0.4,0.1-0.5,0.2c-0.5,0.2-1.1,0.4-1.6,0.6h-0.1c-0.5,0.2-1,0.4-1.4,0.6
	c-0.2,0.1-0.3,0.2-0.5,0.2c-0.3,0.2-0.7,0.4-1,0.6c-0.2,0.1-0.3,0.2-0.5,0.3c-0.3,0.2-0.7,0.4-1,0.6c-0.1,0.1-0.3,0.2-0.4,0.3
	c-0.5,0.3-0.9,0.7-1.3,1l0,0c-0.4,0.4-0.8,0.7-1.2,1.1c-0.1,0.1-0.2,0.3-0.3,0.4c-0.3,0.3-0.5,0.6-0.7,0.9c-0.1,0.2-0.2,0.3-0.3,0.5
	c-0.2,0.3-0.4,0.6-0.6,1c-0.1,0.2-0.2,0.3-0.3,0.5c-0.3,0.5-0.5,1-0.8,1.5C89.3,371.4,83.5,357.8,96.2,353.6z M108.5,433.2
	c-1.4-1.5-3.1-2.9-5-4.1c-0.8-0.5-1.7-1-2.6-1.5c-0.1,0-0.2-0.1-0.2-0.1c-0.4-0.2-0.9-0.4-1.4-0.6c-0.1,0-0.1,0-0.2-0.1
	c-0.4-0.2-0.9-0.4-1.3-0.5c-0.1,0-0.1-0.1-0.2-0.1c-0.5-0.2-0.9-0.3-1.4-0.5c-0.1,0-0.2-0.1-0.3-0.1c-1-0.3-1.9-0.5-2.9-0.7
	c-0.1,0-0.2,0-0.3,0c-0.5-0.1-1-0.1-1.4-0.2c-0.1,0-0.1,0-0.2,0c-0.4,0-0.9-0.1-1.3-0.1c-0.1,0-0.2,0-0.2,0c-0.5,0-0.9,0-1.4,0
	c-0.1,0-0.2,0-0.3,0c-0.5,0-1,0.1-1.4,0.1l0,0c-0.5,0.1-0.9,0.1-1.4,0.2c-0.1,0-0.2,0-0.3,0.1c-0.5,0.1-0.9,0.2-1.3,0.3
	c-0.1,0-0.1,0-0.2,0.1c-0.4,0.1-0.8,0.3-1.2,0.4c-0.1,0-0.1,0.1-0.2,0.1c-0.4,0.2-0.8,0.4-1.2,0.6c-0.1,0-0.2,0.1-0.3,0.1
	c-0.4,0.2-0.8,0.5-1.2,0.7c0,0,2.3-16.3,16.6-12.1C109.9,419.4,108.5,433.2,108.5,433.2z M109.7,416.2c-1.2-1.8-2.8-3.5-4.7-5
	c0,0-0.1-0.1-0.2-0.1c-0.4-0.3-0.8-0.6-1.2-0.8c-0.2-0.1-0.3-0.2-0.5-0.3c-0.3-0.2-0.6-0.4-0.9-0.6c-0.2-0.1-0.4-0.2-0.5-0.3
	c-0.3-0.2-0.7-0.4-1-0.5c-0.2-0.1-0.3-0.2-0.5-0.2c-0.5-0.2-1-0.4-1.5-0.6h-0.1c-0.5-0.2-1-0.3-1.4-0.5c-0.2-0.1-0.3-0.1-0.5-0.1
	c-0.4-0.1-0.7-0.2-1.1-0.3c-0.2,0-0.4-0.1-0.6-0.1c-0.4-0.1-0.7-0.1-1.1-0.2c-0.2,0-0.3-0.1-0.5-0.1c-0.5-0.1-1.1-0.1-1.6-0.1l0,0
	c-0.5,0-1,0-1.6,0.1c-0.2,0-0.3,0-0.5,0.1c-0.4,0-0.7,0.1-1.1,0.2c-0.2,0-0.4,0.1-0.6,0.1c-0.4,0.1-0.7,0.2-1.1,0.3
	c-0.2,0-0.3,0.1-0.5,0.1c-0.5,0.2-1,0.4-1.5,0.6c0,0,4.7-13.6,16.5-8.3C113.1,404.7,109.7,416.2,109.7,416.2z M114.2,395
	c-1.4-1.8-3.1-3.5-5.2-4.9c-0.1,0-0.1-0.1-0.2-0.1c-0.4-0.3-0.8-0.5-1.3-0.8c-0.2-0.1-0.3-0.2-0.5-0.3c-0.3-0.2-0.7-0.4-1-0.5
	c-0.2-0.1-0.4-0.2-0.6-0.3c-0.3-0.2-0.7-0.3-1.1-0.5c-0.2-0.1-0.3-0.2-0.5-0.2c-0.5-0.2-1.1-0.4-1.6-0.6h-0.1
	c-0.5-0.2-1-0.3-1.5-0.4c-0.2,0-0.4-0.1-0.5-0.1c-0.4-0.1-0.8-0.2-1.1-0.2c-0.2,0-0.4-0.1-0.6-0.1c-0.4-0.1-0.8-0.1-1.2-0.1
	c-0.2,0-0.4,0-0.5,0c-0.6,0-1.1,0-1.7,0c0,0,0,0-0.1,0c-0.5,0-1.1,0.1-1.6,0.1c-0.2,0-0.3,0.1-0.5,0.1c-0.4,0.1-0.8,0.1-1.1,0.2
	c-0.2,0-0.4,0.1-0.6,0.1c-0.4,0.1-0.7,0.2-1.1,0.4c-0.2,0.1-0.3,0.1-0.5,0.2c-0.5,0.2-1,0.4-1.5,0.7c0,0,4.1-14.3,16.6-9.6
	C117.1,382.8,114.2,395,114.2,395z M334.1,329.2h205.6c-9.4,24.4-25.7,47-50.6,66.1c-16.9,12.9-6.7,37.2-5.2,63.5H334.1v-40.4
	l43.2,22.5c0.2,0.1,0.4,0.1,0.5,0l81.1-42.4c0.1-0.1,0.2-0.2,0.3-0.3l0,0l0,0l0,0c0.7-1.8,0.6-5.4,0.3-8.2l0.9-0.3
	c3.6,1.9,5.1,1.7,7.9,1.3c1.1-0.2,2.4-0.3,4.1-0.4c2.8-0.1,4.9-0.5,6.9-0.9c2.5-0.5,4.9-0.9,8.2-0.8c3.5,0.1,5.7-2.4,6.6-4.7
	c0.9-2.4,0.5-4.9-0.8-6.1c0-0.3,0-0.6,0-0.9c-0.5-3.7-2.8-5.7-3.5-6.2c-0.2-0.7-0.4-1.2-0.6-1.7c3.9,1.4,7,2.3,9.4,2.7
	c2,0.3,5.1-0.1,5.6-1.6c0.4-1.2-0.8-2.5-3.8-3.9c-6.9-3.3-13.1-5.2-18.6-5.6h-0.5c-4.9-0.4-9.6-0.7-13.9,2.1
	c-4.1,2.7-7.5,5.3-12.5,9.3c-0.2,0.1-1.8,0.6-2.9,0.9c-1.3,0.4-2.1,0.6-2.5,0.8l0,0c-0.2-0.1-0.3-0.1-0.5-0.1L380.2,397
	c-3.5-3-40.4-35.5-46.1-40.3V329.2z M474.7,152.5l26.2,85.1h-52.4L474.7,152.5z M162.7,241.6h-39.5c5.3-2.9,10.7-5.2,16.3-7
	c8.5-2.7,16.3-4.9,23.2-7.2V241.6z M275.2,256.2c0.1,0,0.1,0,0.2,0.1l0,0c0.3,0,2.3-0.2,4.4-0.3v0.1c0,3.9,0,8.7-1.8,10.5
	c-0.5,0.5-1.2,0.8-2,0.8h-1.6c0.3-2.5,0.5-5,0.6-7.6C275.1,258.5,275.1,257.3,275.2,256.2z M489.8,121.8
	c-95.4-104.7-271-74.7-274.3,10.8c-2.5,64.6-16.3,81-44.3,91.9v25c0,0.3-0.3,0.6-0.6,0.6h-60.2c-19.3,14.6-35.4,37-44.5,63.9h65.3
	v-22c0-9,7.3-16.3,16.3-16.3h70.2c-1.9-1.6-3.4-3.7-4.1-5.5c-1.5-1.3-15.5-14-13.7-25.5c1.7-10.3,9.3-14.8,11.3-15.8
	c-0.7-2.3-3.2-11.3,0.7-15.5c4.5-4.9,23.4-5.7,37.4,0c4.9,2,8.9,2.3,11.9,0.8c3.3-1.6,4.2-4.7,4.2-4.8s0.1-0.2,0.2-0.3
	c0.1,0,1.3-1,3.3-0.6c2.6,0.6,5,3.3,7.2,8.1c1.7,3.6,1.9,6.8,0.8,9.6c-1.3,3-3.9,4.6-5.2,5.3c1.1,1.5,3.4,6.1,3.6,18.1h2.6
	c1.8,0,3.9,2.4,3.9,5.5v0.8c0,4.4,0,9.5-2.4,11.9c-0.9,0.9-2,1.3-3.4,1.3h-1.8c-0.3,2.2-0.6,4.3-1,6.4h44.5c9,0,16.3,7.3,16.3,16.3
	v21.9h210.5C562.6,245.8,532.2,168.3,489.8,121.8z M502.3,238.3c0,0.1-0.1,0.2-0.1,0.2l0,0c-5.9,6.2-16.2,9.9-27.4,9.9
	c-11.3,0-21.6-3.7-27.4-9.9l0,0c-0.1-0.1-0.1-0.1-0.1-0.2c0,0,0,0,0-0.1s0-0.2,0-0.3l26.7-86.6c-8.8,1.6-33,4.9-47.4-4.2
	c-8.8-5.6-17.8-8.6-26.8-9v133.2h6c0.3,0,0.6,0.3,0.6,0.6v2.9h6.2c0.3,0,0.6,0.3,0.6,0.6v2.9h11.9c0.3,0,0.6,0.3,0.6,0.6v3.5
	c0,0.3-0.3,0.6-0.6,0.6H370c-0.3,0-0.6-0.3-0.6-0.6v-3.5c0-0.3,0.3-0.6,0.6-0.6h11.9v-2.9c0-0.3,0.3-0.6,0.6-0.6h6.2v-2.9
	c0-0.3,0.3-0.6,0.6-0.6h6V138.1c-9,0.4-18,3.4-26.8,9c-14.3,9.1-38.6,5.8-47.4,4.2l26.7,86.6c0,0.1,0,0.2,0,0.3c0,0,0,0,0,0.1
	s-0.1,0.2-0.1,0.2l0,0c-5.9,6.2-16.2,9.9-27.4,9.9s-21.6-3.7-27.4-9.9l0,0c-0.1-0.1-0.1-0.1-0.1-0.2c0,0,0,0,0-0.1s0-0.2,0-0.3
	l26.8-86.9c-0.9-0.2-1.5-0.3-1.6-0.3c-0.3-0.1-0.5-0.4-0.5-0.7l0.3-1.2c0-0.2,0.1-0.3,0.3-0.4c0.1-0.1,0.3-0.1,0.4-0.1
	c0.3,0.1,32,6,48.2-4.3c20.2-12.8,41.6-12.8,61.8,0c16.2,10.3,47.9,4.3,48.2,4.3c0.3-0.1,0.6,0.1,0.7,0.5l0.3,1.2
	c0.1,0.3-0.1,0.6-0.4,0.7c-0.2,0-0.7,0.2-1.6,0.3l26.8,86.9C502.3,238.1,502.3,238.2,502.3,238.3L502.3,238.3z M334.1,315.1h210.2
	c-1.2,4.3-2.6,8.7-4.2,12.9h-206L334.1,315.1L334.1,315.1z M275.5,254.3c-0.1,0-0.1,0-0.2,0c0-0.9,0-1.9,0-2.7h2.6
	c0.5,0,1.4,0.9,1.8,2.4C277.8,254.1,275.7,254.3,275.5,254.3z M320.2,152.5l26.2,85.1H294L320.2,152.5z M131.1,328H61.9
	c1-4.4,2.2-8.7,3.6-12.9h65.7L131.1,328L131.1,328z"></path>
<path id="color_x5F_5" fill="#93e5b3" d="M126.1,510.3c0,3.1-5.9,5.8-12.9,5.8s-12.9-2.7-12.9-5.8c0-1.1,0.8-2.2,2.2-3.2v4.1
	c0,0.2,0.1,0.4,0.2,0.5c5,3.9,15.7,3.9,21.1,0c0.2-0.1,0.2-0.3,0.2-0.5v-3.9C125.4,508.1,126.1,509.2,126.1,510.3z M100.7,496.7
	l-1.9-1c-1,1.5-1.4,2.7-1.5,4.6l5,1.8L100.7,496.7z M102.6,498c-0.1-0.1-0.2-0.1-0.3-0.2l0.3,1V498z M100.4,486.3c0,0.1,0,0.1,0,0.2
	c0.2,3.1,6,5.6,12.9,5.6c7,0,12.9-2.7,12.9-5.8c0-3.1-5.9-5.8-12.9-5.8S100.4,483.1,100.4,486.3z M113.3,523.2
	c7,0,12.9-2.7,12.9-5.8v-4.3c-2.2,2.5-7,4.1-12.9,4.1s-10.7-1.7-12.9-4.1v4.3C100.4,520.5,106.3,523.2,113.3,523.2z M96.1,499.9
	c0.1-1.9,0.6-3.1,1.6-4.7l-2.2-1.1c-1.4,1.2-2,2.7-2.1,4.8L96.1,499.9z M122.9,510.8v-12.3c-2.5,1.2-5.9,1.9-9.7,1.9
	c-3.7,0-7-0.7-9.5-1.8v4.5l0,0v7.8C108.4,514.2,118,514.2,122.9,510.8z M113.3,524.4c-7.9,0-14.1-3.1-14.1-7v-4.6
	c-9.1,1.9-14.9,5.3-14.9,8.9c0,5.6,13.7,10.3,29.9,10.3s29.9-4.7,29.9-10.3c0-3.8-6.7-7.5-16.8-9.3v4.9
	C127.3,521.3,121.1,524.4,113.3,524.4z M94.4,493.5l-20.5-10.3c-0.1,0-1.5-0.7-3-0.7c-1.3,0-2.6,0.4-3.4,1.9c-0.8,1.4-1,2.7-0.6,3.7
	c0.5,1.3,1.9,1.9,2.2,2l23.2,8.3C92.4,496.4,93.1,494.8,94.4,493.5z M126.1,489.1c-2.2,2.5-7,4.1-12.9,4.1c-5.8,0-10.7-1.7-12.9-4.1
	v4.3c0,0.8,0.4,1.7,1.2,2.4l0.1,0.1c2.1,1.9,6.6,3.3,11.6,3.3c7,0,12.9-2.7,12.9-5.8C126.1,493.4,126.1,489.1,126.1,489.1z
	 M114.2,533.3c-14.4,0-26.2-3.5-29.9-8.3v4.2c0,5.6,13.7,10.3,29.9,10.3s29.9-4.7,29.9-10.3V525
	C140.5,529.8,128.6,533.3,114.2,533.3z M67.5,433.7c0.5,0.1,0.9,0.1,1.4,0.2c0.1,0,0.2,0,0.3,0.1c0.5,0.1,0.9,0.2,1.3,0.3
	c0.1,0,0.1,0,0.2,0.1c0.4,0.1,0.8,0.3,1.2,0.4c0.1,0,0.1,0.1,0.2,0.1c0.4,0.2,0.8,0.4,1.2,0.6c0.1,0,0.2,0.1,0.3,0.1
	c0.4,0.2,0.8,0.5,1.2,0.7c-2.2-6.4-8.6-11-17.1-8.4c-5.2,1.6-7,6.6-7.6,10.1l0.1-0.1c0.8-0.5,1.7-1,2.6-1.5c0.1,0,0.2-0.1,0.2-0.1
	c0.4-0.2,0.9-0.4,1.4-0.6c0.1,0,0.1,0,0.2-0.1c0.4-0.2,0.9-0.4,1.3-0.5c0.1,0,0.1-0.1,0.2-0.1c0.5-0.2,0.9-0.3,1.4-0.5
	c0.1,0,0.2-0.1,0.3-0.1c1-0.3,1.9-0.5,2.9-0.7c0.1,0,0.2,0,0.3,0c0.5-0.1,1-0.1,1.4-0.2c0.1,0,0.1,0,0.2,0c0.4,0,0.9-0.1,1.3-0.1
	c0.1,0,0.2,0,0.2,0c0.5,0,0.9,0,1.4,0c0.1,0,0.2,0,0.3,0C66.5,433.6,67,433.7,67.5,433.7L67.5,433.7z M55.9,413.7
	c0.6,0,1.1-0.1,1.7-0.1c0.2,0,0.4,0,0.7,0c0.4,0,0.9,0,1.3,0c0.2,0,0.5,0,0.7,0c0.4,0,0.9,0.1,1.3,0.1c0.2,0,0.4,0,0.6,0.1
	c0.6,0.1,1.3,0.2,1.9,0.3h0.1c0.6,0.1,1.2,0.3,1.7,0.4c0.2,0.1,0.4,0.1,0.6,0.2c0.4,0.1,0.8,0.3,1.3,0.4c0.2,0.1,0.4,0.2,0.6,0.2
	c0.4,0.2,0.8,0.3,1.2,0.5c0.2,0.1,0.4,0.2,0.5,0.3c0.6,0.3,1.1,0.6,1.6,0.9l0,0c0.5,0.3,1,0.7,1.5,1c0.2,0.1,0.3,0.2,0.5,0.4
	c0.3,0.3,0.7,0.6,1,0.9c0.2,0.1,0.3,0.3,0.5,0.5c0.3,0.3,0.6,0.6,0.9,1c0.1,0.2,0.3,0.3,0.4,0.5c0.4,0.5,0.8,1,1.1,1.5
	c0.7-7-3.3-14.1-12.4-15.2c-5.6-0.7-9.4,3.2-11.4,6.2c0.6-0.1,1.1-0.1,1.7-0.2C55.7,413.7,55.8,413.7,55.9,413.7z M61.5,401.3
	c0.4-0.2,0.9-0.3,1.3-0.5c0.1,0,0.1,0,0.2-0.1c0.5-0.1,0.9-0.3,1.4-0.4c0.2,0,0.4-0.1,0.5-0.1c0.4-0.1,0.7-0.2,1.1-0.2
	c0.2,0,0.4-0.1,0.6-0.1c0.4-0.1,0.7-0.1,1.1-0.2c0.2,0,0.4,0,0.5-0.1c0.5-0.1,1.1-0.1,1.6-0.1h0.1c0.5,0,1,0,1.5,0
	c0.2,0,0.4,0,0.5,0c0.4,0,0.7,0.1,1.1,0.1c0.2,0,0.4,0,0.6,0.1c0.4,0.1,0.7,0.1,1.1,0.2c0.2,0,0.3,0.1,0.5,0.1
	c0.5,0.1,1,0.3,1.6,0.4l0,0c0.5,0.2,1,0.4,1.5,0.6c0.2,0.1,0.3,0.1,0.5,0.2c0.3,0.2,0.7,0.3,1,0.5c0.2,0.1,0.3,0.2,0.5,0.3
	c0.3,0.2,0.6,0.4,0.9,0.6c0.1,0.1,0.3,0.2,0.4,0.3c0.4,0.3,0.9,0.7,1.2,1.1c-1.1-5.9-6.1-10.9-13.7-10.1
	C64.6,394.5,62.4,398.4,61.5,401.3z M72.6,373.1c-4.7,0.5-6.8,4.5-7.8,7.4c0.4-0.2,0.9-0.3,1.3-0.5c0.1,0,0.1,0,0.2-0.1
	c0.5-0.1,0.9-0.3,1.4-0.4c0.2,0,0.4-0.1,0.5-0.1c0.4-0.1,0.7-0.2,1.1-0.2c0.2,0,0.4-0.1,0.6-0.1c0.4-0.1,0.7-0.1,1.1-0.2
	c0.2,0,0.4,0,0.5-0.1c0.5-0.1,1.1-0.1,1.6-0.1h0.1c0.5,0,1,0,1.5,0c0.2,0,0.4,0,0.5,0c0.4,0,0.7,0.1,1.1,0.1c0.2,0,0.4,0,0.6,0.1
	c0.4,0.1,0.7,0.1,1.1,0.2c0.2,0,0.3,0.1,0.5,0.1c0.5,0.1,1,0.3,1.6,0.4l0,0c0.5,0.2,1,0.4,1.5,0.6c0.2,0.1,0.3,0.1,0.5,0.2
	c0.3,0.2,0.7,0.3,1,0.5c0.2,0.1,0.3,0.2,0.5,0.3c0.3,0.2,0.6,0.4,0.9,0.6c0.1,0.1,0.3,0.2,0.4,0.3c0.4,0.3,0.9,0.7,1.2,1.1
	C85.1,377.3,80.2,372.3,72.6,373.1z M56.7,365c0.4-0.4,0.8-0.8,1.2-1.2c0.4-0.4,0.8-0.7,1.3-1.1c0.1-0.1,0.2-0.1,0.2-0.2
	c0.4-0.3,0.9-0.7,1.3-1c0.1,0,0.1-0.1,0.2-0.1c0.4-0.3,0.9-0.6,1.3-0.9c0.1,0,0.1-0.1,0.2-0.1c0.5-0.3,1-0.6,1.4-0.9
	c0.1-0.1,0.2-0.1,0.3-0.1c1-0.5,2-1,3.1-1.5c0.1,0,0.2-0.1,0.3-0.1c0.5-0.2,1-0.4,1.6-0.6c0.1,0,0.1,0,0.2-0.1
	c0.5-0.2,1-0.3,1.5-0.4c0.1,0,0.2,0,0.3-0.1c0.5-0.1,1.1-0.2,1.6-0.3c0.1,0,0.2,0,0.3-0.1c0.5-0.1,1.1-0.2,1.6-0.2l0,0
	c0.5-0.1,1.1-0.1,1.6-0.1c0.1,0,0.2,0,0.3,0c0.5,0,1.1,0,1.6,0c0.1,0,0.2,0,0.3,0c0.5,0,1,0.1,1.5,0.2c0.1,0,0.2,0,0.3,0
	c0.5,0.1,1.1,0.2,1.6,0.3c0.1,0,0.2,0.1,0.3,0.1c0.5,0.1,1.1,0.3,1.6,0.5c-4.4-6.4-13-9.9-21.6-5c-5.4,3.1-5.9,8.9-5.4,12.9
	C56.7,365.1,56.7,365,56.7,365z M82,348.1c0.1-0.1,0.2-0.3,0.2-0.4c0.2-0.3,0.4-0.6,0.5-0.8c0.1-0.1,0.2-0.3,0.3-0.4
	c0.2-0.3,0.4-0.5,0.6-0.8c0.1-0.1,0.2-0.2,0.3-0.3c0.3-0.3,0.6-0.7,1-1l0,0c0.4-0.3,0.7-0.6,1.1-0.9c0.1-0.1,0.2-0.2,0.4-0.3
	c0.3-0.2,0.6-0.4,0.8-0.5c0.1-0.1,0.3-0.2,0.4-0.3c0.3-0.2,0.6-0.3,0.9-0.5c0.1-0.1,0.3-0.1,0.4-0.2c0.4-0.2,0.8-0.4,1.2-0.5h0.1
	c0.4-0.2,0.9-0.3,1.4-0.5c0.2,0,0.3-0.1,0.5-0.1c0.3-0.1,0.6-0.2,1-0.3c0.2,0,0.3-0.1,0.5-0.1c0.3-0.1,0.6-0.1,1-0.2
	c0.2,0,0.3-0.1,0.5-0.1c0.4-0.1,0.8-0.1,1.3-0.1c0.1,0,0.1,0,0.2,0c0.4,0,0.8-0.1,1.3-0.1c-1.8-2-4.9-4.5-8.9-3.3
	c-6.5,2-8.8,7.8-7.6,13C81.6,349,81.8,348.5,82,348.1z M89.3,371.4c0.2-0.5,0.5-1,0.8-1.5c0.1-0.2,0.2-0.3,0.3-0.5
	c0.2-0.3,0.4-0.7,0.6-1c0.1-0.2,0.2-0.3,0.3-0.5c0.2-0.3,0.5-0.6,0.7-0.9c0.1-0.1,0.2-0.3,0.3-0.4c0.4-0.4,0.8-0.8,1.2-1.1l0,0
	c0.4-0.4,0.9-0.7,1.3-1c0.1-0.1,0.3-0.2,0.4-0.3c0.3-0.2,0.6-0.4,1-0.6c0.2-0.1,0.3-0.2,0.5-0.3c0.3-0.2,0.7-0.4,1-0.6
	c0.2-0.1,0.3-0.2,0.5-0.2c0.5-0.2,1-0.4,1.4-0.6h0.1c0.5-0.2,1.1-0.4,1.6-0.6c0.2-0.1,0.4-0.1,0.5-0.2c0.4-0.1,0.7-0.2,1.1-0.3
	c0.2,0,0.4-0.1,0.6-0.1c0.4-0.1,0.7-0.1,1.1-0.2c0.2,0,0.4-0.1,0.6-0.1c0.5-0.1,1-0.1,1.5-0.2c0.1,0,0.1,0,0.2,0
	c0.5,0,1-0.1,1.5-0.1c-2.1-2.4-5.7-5.3-10.4-3.9C90.7,358.5,88,365.4,89.3,371.4z M104.6,381.4c-7.3-3-13.7,0.6-16.5,6.2
	c0.5-0.3,1-0.5,1.5-0.7c0.2-0.1,0.3-0.1,0.5-0.2c0.4-0.1,0.7-0.3,1.1-0.4c0.2-0.1,0.4-0.1,0.6-0.1c0.4-0.1,0.8-0.2,1.1-0.2
	c0.2,0,0.3-0.1,0.5-0.1c0.5-0.1,1.1-0.1,1.6-0.1c0,0,0,0,0.1,0c0.6,0,1.1,0,1.7,0c0.2,0,0.4,0,0.5,0c0.4,0,0.8,0.1,1.2,0.1
	c0.2,0,0.4,0.1,0.6,0.1c0.4,0.1,0.8,0.1,1.1,0.2c0.2,0,0.4,0.1,0.5,0.1c0.5,0.1,1,0.3,1.5,0.4h0.1c0.5,0.2,1.1,0.4,1.6,0.6
	c0.2,0.1,0.3,0.1,0.5,0.2c0.4,0.2,0.7,0.3,1.1,0.5c0.2,0.1,0.4,0.2,0.6,0.3c0.3,0.2,0.7,0.4,1,0.5c0.2,0.1,0.3,0.2,0.5,0.3
	c0.4,0.3,0.8,0.5,1.3,0.8c0.1,0,0.1,0.1,0.2,0.1c0.4,0.3,0.8,0.6,1.2,0.9C110.2,387.8,109.2,383.3,104.6,381.4z M86.4,407.1
	c0.2-0.1,0.3-0.1,0.5-0.1c0.4-0.1,0.7-0.2,1.1-0.3c0.2,0,0.4-0.1,0.6-0.1c0.4-0.1,0.7-0.1,1.1-0.2c0.2,0,0.3,0,0.5-0.1
	c0.5,0,1-0.1,1.6-0.1l0,0c0.5,0,1.1,0.1,1.6,0.1c0.2,0,0.3,0,0.5,0.1c0.4,0,0.7,0.1,1.1,0.2c0.2,0,0.4,0.1,0.6,0.1
	c0.4,0.1,0.7,0.2,1.1,0.3c0.2,0,0.3,0.1,0.5,0.1c0.5,0.1,1,0.3,1.4,0.5h0.1c0.5,0.2,1,0.4,1.5,0.6c0.2,0.1,0.3,0.2,0.5,0.2
	c0.3,0.2,0.7,0.3,1,0.5c0.2,0.1,0.4,0.2,0.5,0.3c0.3,0.2,0.6,0.4,0.9,0.6c0.2,0.1,0.3,0.2,0.5,0.3c0.4,0.3,0.8,0.6,1.2,0.8
	c0,0,0.1,0.1,0.2,0.1c0.4,0.3,0.7,0.6,1.1,0.9c0.1-3.1-0.6-7.5-4.9-9.5c-6.9-3.3-13.3-0.1-16.3,5C85.4,407.5,85.9,407.3,86.4,407.1z
	 M93,424.9c1,0.2,2,0.4,2.9,0.7c0.1,0,0.2,0.1,0.3,0.1c0.5,0.1,0.9,0.3,1.4,0.5c0.1,0,0.1,0,0.2,0.1c0.4,0.2,0.9,0.3,1.3,0.5
	c0.1,0,0.1,0,0.2,0.1c0.5,0.2,0.9,0.4,1.4,0.6c0.1,0,0.2,0.1,0.2,0.1c0.9,0.5,1.8,1,2.6,1.5l0.1,0.1c-0.6-3.5-2.3-8.5-7.6-10.1
	c-8.4-2.6-14.8,2-17.1,8.4c0.4-0.3,0.8-0.5,1.2-0.7c0.1,0,0.2-0.1,0.3-0.1c0.4-0.2,0.8-0.4,1.2-0.6c0.1,0,0.1-0.1,0.2-0.1
	c0.4-0.2,0.8-0.3,1.2-0.4c0.1,0,0.1,0,0.2-0.1c0.4-0.1,0.9-0.2,1.3-0.3c0.1,0,0.2,0,0.3-0.1c0.5-0.1,0.9-0.2,1.4-0.2l0,0
	c0.5-0.1,0.9-0.1,1.4-0.1c0.1,0,0.2,0,0.3,0c0.5,0,0.9,0,1.4,0c0.1,0,0.2,0,0.2,0c0.4,0,0.9,0,1.3,0.1c0.1,0,0.1,0,0.2,0
	c0.5,0,1,0.1,1.4,0.2C92.8,424.9,92.9,424.9,93,424.9z M77.9,442.6c0.1,0,0.2-0.1,0.3-0.1c0.3-0.1,0.5-0.1,0.8-0.2
	c0.1,0,0.3-0.1,0.4-0.1c0.3,0,0.5-0.1,0.8-0.1c0.1,0,0.2,0,0.4,0c0.4,0,0.7,0,1.1,0l0,0c0.4,0,0.8,0,1.1,0.1c0.1,0,0.2,0,0.4,0
	c0.3,0,0.5,0.1,0.8,0.1c0.1,0,0.3,0.1,0.4,0.1c0.3,0.1,0.5,0.1,0.8,0.2c0.1,0,0.2,0.1,0.4,0.1c0.3,0.1,0.7,0.2,1,0.3h0.1
	c0.4,0.1,0.7,0.3,1.1,0.5c0.1,0.1,0.2,0.1,0.3,0.2c0.2,0.1,0.5,0.2,0.7,0.4c0.1,0.1,0.3,0.1,0.4,0.2c0.2,0.1,0.4,0.3,0.7,0.4
	c0.1,0.1,0.2,0.1,0.3,0.2c0.3,0.2,0.6,0.4,0.8,0.6l0.1,0.1c0.3,0.2,0.5,0.4,0.8,0.6c0.1-2.2-0.4-5.3-3.5-6.7
	c-4.9-2.3-9.4-0.1-11.5,3.6C77.1,442.9,77.5,442.7,77.9,442.6z"></path>
<path id="color_x5F_6" fill="#CCCCCC" d="M79.1,495l11.7,19c-1.9,0.8-3.4,1.6-4.6,2.6c-2.3-2.9-16.5-21.3-18-22.8
	c-1.3-1.4-1.7-3.4-1.8-4c0.8,1,1.9,1.4,2.2,1.5L79.1,495z M235.6,511.6c-2.6-3.5-6.3-7.4-14.5-10.4s-8.6-7.6-7.6-10.5
	c0.7-1.9,0.9-4,1.1-5.3c-0.9,1.4-1.8,2.9-2.7,4.5c-2,3.6-2.8,7.5-3.2,9.8c1.8,0.9,9.8,4.5,14.8,4.8c4.1,0.2,6.5,2.7,9.1,5.4
	c1.3,1.4,2.7,2.8,4.5,4.1c2.6,1.9,3.7,2.3,4.1,2.3C240,515.8,237.5,514.2,235.6,511.6z M231.7,510.8c-2.5-2.6-4.7-4.9-8.3-5.1
	c-5-0.2-12.5-3.6-14.9-4.7c-0.1,0.6-0.1,1-0.1,1c0,0.2-0.1,0.3-0.3,0.5c-0.1,0.1-0.2,0.1-0.3,0.1s-0.1,0-0.2,0
	c-6.3-1.8-12.9-3.9-19.7-6.3l7.9,8.6c3.6,0.5,16.8,2.3,22.5,3.1c6.6,0.9,13.8,5.3,17.9,8c1.9,1.2,3.2,1.5,4.1,1.4
	c-1-0.3-2.3-1.1-4-2.4C234.5,513.7,233.1,512.3,231.7,510.8z M210.3,490.5l-2.6,3.7c0,0-50.4-19.9-64.9-30.3s-17.5-15.6-17.1-22.2
	c0.3-4.7,1.2-11.6,1.6-15.2c-4.6,11.4-9.4,23.1-10.3,25.2c23,27.1,60.2,40.7,90.3,49.6C207.4,499.5,208.1,494.9,210.3,490.5z
	 M159.9,440.6c0.2,0.6,6.9,4,9.4,5.7c-2.5-1.9-4.5-3.4-5.8-4.6c-0.2-0.2-0.2-0.5-0.1-0.7l10.4-23.2c-3.6-17.4-4.2-48.4-4.1-70.2
	c-1,1.8-2.9,10.4-3,22.8c-0.1,15.6-6.6,13.7-6.2,15.2c0.5,1.5,7.8,15.5,7.3,23.6C167.4,417,159.6,439.8,159.9,440.6z M238.6,293.9
	c-4-2.5-7.3-5.5-9.7-8.7c1,2.8,3.7,8.5,9.8,13.4c7.2,5.8,15.5,7.2,17.7,7.4l-0.3-5.4C250.4,299.8,244,297.3,238.6,293.9z
	 M179.7,452.3c3,2.1,6.2,4.3,9.4,6.5h0.4c-0.5-3.3-2-12.8-2.6-23.1c-0.7-12.8-3.3-18.3-5.9-24c-2.2-4.9-8.2-47.2-10.2-60.4
	c0,21.5,0.7,50,4.1,66.3C180.3,442.7,179.9,450.5,179.7,452.3z M302.2,391.3c-2.4,6.3-3.1,6.5-2.5,13.8c0.6,6.9-6.4,48.3-7.3,53.7
	h6.2c0.8-3.6,5.9-28.3,8.7-54.8l0,0c1.5-13.8,1.9-32.2,2-47.7C307.7,365,304.1,386.3,302.2,391.3z M170.2,447.1c0,0,0-0.1-0.1-0.1
	c-0.2-0.1-0.3-0.2-0.5-0.3L170.2,447.1z M377.9,426.4c0,0-16.2-7.8-33.3-19.2c-17.1-11.4-22.3-33.1-20.2-36.5
	c2.1-3.4,2.3-12.9,0.9-11.6s-6,7.3-6.2,5.8c-0.1-1.5-0.1-6.8-2.3-5.1c-2.3,1.7-4.1,8.3-4.6,6.3c-0.3-1.3-1.2-6.6-1.8-10.1
	c0,9.3-0.2,19.8-0.7,29.7l7.3-25.5c0.1-0.3,0.4-0.5,0.7-0.4c0.3,0.1,0.5,0.4,0.4,0.7l-7.6,26.5c2-3.2,5-8.1,7.4-12.5
	c4-7.3,6.3-13.5,6.3-13.6c0.1-0.3,0.5-0.5,0.8-0.4s0.5,0.5,0.4,0.8c0,0.1-2.4,6.4-6.4,13.7c-3.7,6.9-8.9,14.9-9.6,16
	c-0.3,4.5-0.6,8.8-1,12.7l69.2,35.9l47.4-24.8L377.9,426.4z"></path>
</svg>