<svg width="906" height="582" viewBox="0 0 906 582" fill="none" xmlns="http://www.w3.org/2000/svg">
<path d="M0 8.00001C0 3.58173 3.58172 0 8 0H205V582H8C3.58173 582 0 578.418 0 574V8.00001Z" fill="#F9FAFC"/>
<circle cx="59.5" cy="26.5" r="5.5" fill="#61C453"/>
<circle cx="41.5" cy="26.5" r="5.5" fill="#F6BE4B"/>
<circle cx="23.5" cy="26.5" r="5.5" fill="#EF6A5F"/>
<path d="M205 0H898C902.418 0 906 3.58172 906 8V574C906 578.418 902.418 582 898 582H205V0Z" fill="white"/>
<rect x="249" y="208" width="600" height="312" rx="8" fill="#F2F2F2" fill-opacity="0.4"/>
<rect x="249" y="84" width="232" height="96" rx="8" fill="#F2F2F2" fill-opacity="0.4"/>
<rect x="529" y="84" width="135" height="96" rx="8" fill="#F2F2F2" fill-opacity="0.4"/>
<rect x="625" y="254" width="58" height="33" rx="8" fill="#80ACFF" fill-opacity="0.55"/>
<rect x="725" y="254" width="58" height="33" rx="8" fill="#CCDEFF"/>
<rect x="624" y="312" width="59" height="35" rx="8" fill="#80ACFF" fill-opacity="0.55"/>
<rect x="624" y="370" width="59" height="35" rx="8" fill="#80ACFF" fill-opacity="0.35"/>
<rect x="624" y="426" width="59" height="35" rx="8" fill="#80ACFF" fill-opacity="0.2"/>
<rect x="316" y="254" width="250" height="18" rx="8" fill="#80ACFF" fill-opacity="0.8"/>
<rect x="316" y="279" width="250" height="8" rx="4" fill="#80ACFF" fill-opacity="0.6"/>
<rect x="316" y="337" width="250" height="8" rx="4" fill="#80ACFF" fill-opacity="0.4"/>
<rect x="315" y="395" width="250" height="8" rx="4" fill="#80ACFF" fill-opacity="0.4"/>
<rect x="316" y="453" width="250" height="8" rx="4" fill="#80ACFF" fill-opacity="0.15"/>
<rect x="542" y="132" width="110" height="30" rx="8" fill="#80ACFF" fill-opacity="0.5"/>
<rect x="315" y="312" width="250" height="18" rx="8" fill="#80ACFF" fill-opacity="0.55"/>
<rect x="315" y="370" width="250" height="18" rx="8" fill="#80ACFF" fill-opacity="0.45"/>
<rect x="316" y="428" width="250" height="18" rx="8" fill="#80ACFF" fill-opacity="0.35"/>
<path d="M725 320C725 315.582 728.582 312 733 312H776C780.418 312 784 315.582 784 320V339C784 343.418 780.418 347 776 347H733C728.582 347 725 343.418 725 339V320Z" fill="#CCDEFF"/>
<path d="M725 378C725 373.582 728.582 370 733 370H776C780.418 370 784 373.582 784 378V397C784 401.418 780.418 405 776 405H733C728.582 405 725 401.418 725 397V378Z" fill="#CCDEFF" fill-opacity="0.7"/>
<path d="M545 110.5C545 106.358 548.358 103 552.5 103H607.5C611.642 103 615 106.358 615 110.5V110.5C615 114.642 611.642 118 607.5 118H552.5C548.358 118 545 114.642 545 110.5V110.5Z" fill="#CCDEFF" fill-opacity="0.7"/>
<rect x="712" y="84" width="135" height="96" rx="8" fill="#F2F2F2" fill-opacity="0.4"/>
<rect x="725" y="133" width="110" height="30" rx="8" fill="#80ACFF" fill-opacity="0.15"/>
<path d="M726 112.5C726 108.358 729.358 105 733.5 105H788.5C792.642 105 796 108.358 796 112.5V112.5C796 116.642 792.642 120 788.5 120H733.5C729.358 120 726 116.642 726 112.5V112.5Z" fill="#CCDEFF" fill-opacity="0.35"/>
<path d="M725 436C725 431.582 728.582 428 733 428H776C780.418 428 784 431.582 784 436V455C784 459.418 780.418 463 776 463H733C728.582 463 725 459.418 725 455V436Z" fill="#CCDEFF" fill-opacity="0.45"/>
<path d="M287.282 151.627C287.282 153.067 286.778 154.282 285.77 155.272C284.78 156.262 283.439 156.883 281.747 157.135V158.836C281.747 159.25 281.621 159.583 281.369 159.835C281.117 160.105 280.784 160.24 280.37 160.24C279.956 160.24 279.623 160.105 279.371 159.835C279.119 159.583 278.993 159.25 278.993 158.836V157.189C277.967 157.099 276.968 156.883 275.996 156.541C275.024 156.199 274.187 155.749 273.485 155.191C273.251 155.029 273.089 154.849 272.999 154.651C272.909 154.453 272.864 154.21 272.864 153.922C272.864 153.544 272.972 153.211 273.188 152.923C273.422 152.635 273.683 152.491 273.971 152.491C274.151 152.491 274.313 152.527 274.457 152.599C274.619 152.653 274.826 152.752 275.078 152.896C275.906 153.436 276.716 153.832 277.508 154.084C278.318 154.336 279.164 154.462 280.046 154.462C281.252 154.462 282.179 154.228 282.827 153.76C283.493 153.292 283.826 152.617 283.826 151.735C283.826 151.213 283.646 150.79 283.286 150.466C282.926 150.142 282.476 149.89 281.936 149.71C281.396 149.512 280.64 149.287 279.668 149.035C278.318 148.693 277.22 148.351 276.374 148.009C275.528 147.649 274.799 147.109 274.187 146.389C273.575 145.669 273.269 144.697 273.269 143.473C273.269 142.015 273.791 140.773 274.835 139.747C275.879 138.721 277.247 138.082 278.939 137.83V136.129C278.939 135.715 279.065 135.382 279.317 135.13C279.569 134.86 279.902 134.725 280.316 134.725C280.73 134.725 281.063 134.86 281.315 135.13C281.567 135.382 281.693 135.715 281.693 136.129V137.803C283.511 138.037 285.077 138.694 286.391 139.774C286.823 140.098 287.039 140.521 287.039 141.043C287.039 141.421 286.922 141.754 286.688 142.042C286.472 142.33 286.211 142.474 285.905 142.474C285.743 142.474 285.581 142.447 285.419 142.393C285.275 142.339 285.077 142.231 284.825 142.069C284.087 141.547 283.385 141.16 282.719 140.908C282.071 140.638 281.297 140.503 280.397 140.503C279.281 140.503 278.39 140.755 277.724 141.259C277.058 141.745 276.725 142.42 276.725 143.284C276.725 143.878 276.914 144.364 277.292 144.742C277.67 145.102 278.147 145.381 278.723 145.579C279.299 145.777 280.082 146.002 281.072 146.254C282.386 146.578 283.457 146.911 284.285 147.253C285.113 147.595 285.815 148.117 286.391 148.819C286.985 149.503 287.282 150.439 287.282 151.627ZM299.205 147.226C300.339 147.514 301.203 148.063 301.797 148.873C302.409 149.665 302.715 150.655 302.715 151.843C302.715 153.481 302.112 154.786 300.906 155.758C299.7 156.73 298.071 157.216 296.019 157.216C294.849 157.216 293.724 157.036 292.644 156.676C291.564 156.316 290.646 155.812 289.89 155.164C289.476 154.804 289.269 154.381 289.269 153.895C289.269 153.499 289.377 153.166 289.593 152.896C289.827 152.608 290.097 152.464 290.403 152.464C290.583 152.464 290.745 152.5 290.889 152.572C291.033 152.626 291.231 152.725 291.483 152.869C292.239 153.373 292.959 153.76 293.643 154.03C294.327 154.3 295.074 154.435 295.884 154.435C297.072 154.435 297.954 154.201 298.53 153.733C299.106 153.247 299.394 152.518 299.394 151.546C299.394 150.592 299.088 149.89 298.476 149.44C297.882 148.972 296.955 148.738 295.695 148.738H294.156C293.742 148.738 293.418 148.603 293.184 148.333C292.968 148.045 292.86 147.721 292.86 147.361C292.86 146.983 292.968 146.659 293.184 146.389C293.418 146.119 293.742 145.984 294.156 145.984H295.236C297.702 145.984 298.935 145.057 298.935 143.203C298.935 142.339 298.674 141.673 298.152 141.205C297.63 140.737 296.91 140.503 295.992 140.503C294.678 140.503 293.274 141.025 291.78 142.069C291.528 142.213 291.33 142.321 291.186 142.393C291.042 142.447 290.88 142.474 290.7 142.474C290.394 142.474 290.124 142.339 289.89 142.069C289.674 141.781 289.566 141.439 289.566 141.043C289.566 140.773 289.611 140.548 289.701 140.368C289.809 140.17 289.971 139.972 290.187 139.774C290.943 139.144 291.843 138.649 292.887 138.289C293.949 137.911 295.029 137.722 296.127 137.722C297.999 137.722 299.484 138.181 300.582 139.099C301.698 140.017 302.256 141.241 302.256 142.771C302.238 143.815 301.959 144.733 301.419 145.525C300.897 146.299 300.159 146.866 299.205 147.226ZM317.825 154.192C318.905 154.192 319.445 154.651 319.445 155.569C319.445 156.523 318.905 157 317.825 157H307.565C307.097 157 306.728 156.865 306.458 156.595C306.188 156.307 306.053 155.956 306.053 155.542C306.053 155.002 306.26 154.516 306.674 154.084L312.83 147.469C313.586 146.641 314.135 145.885 314.477 145.201C314.837 144.499 315.017 143.806 315.017 143.122C315.017 142.276 314.774 141.628 314.288 141.178C313.802 140.728 313.109 140.503 312.209 140.503C311.471 140.503 310.751 140.647 310.049 140.935C309.365 141.205 308.672 141.583 307.97 142.069C307.79 142.195 307.61 142.303 307.43 142.393C307.25 142.465 307.07 142.501 306.89 142.501C306.584 142.501 306.314 142.357 306.08 142.069C305.864 141.781 305.756 141.439 305.756 141.043C305.756 140.773 305.801 140.539 305.891 140.341C305.999 140.143 306.161 139.954 306.377 139.774C307.169 139.144 308.096 138.649 309.158 138.289C310.22 137.911 311.282 137.722 312.344 137.722C314.198 137.722 315.674 138.19 316.772 139.126C317.888 140.062 318.446 141.322 318.446 142.906C318.446 144.004 318.212 145.039 317.744 146.011C317.276 146.965 316.484 148.036 315.368 149.224L310.697 154.192H317.825ZM334.041 154.192C335.121 154.192 335.661 154.651 335.661 155.569C335.661 156.523 335.121 157 334.041 157H323.781C323.313 157 322.944 156.865 322.674 156.595C322.404 156.307 322.269 155.956 322.269 155.542C322.269 155.002 322.476 154.516 322.89 154.084L329.046 147.469C329.802 146.641 330.351 145.885 330.693 145.201C331.053 144.499 331.233 143.806 331.233 143.122C331.233 142.276 330.99 141.628 330.504 141.178C330.018 140.728 329.325 140.503 328.425 140.503C327.687 140.503 326.967 140.647 326.265 140.935C325.581 141.205 324.888 141.583 324.186 142.069C324.006 142.195 323.826 142.303 323.646 142.393C323.466 142.465 323.286 142.501 323.106 142.501C322.8 142.501 322.53 142.357 322.296 142.069C322.08 141.781 321.972 141.439 321.972 141.043C321.972 140.773 322.017 140.539 322.107 140.341C322.215 140.143 322.377 139.954 322.593 139.774C323.385 139.144 324.312 138.649 325.374 138.289C326.436 137.911 327.498 137.722 328.56 137.722C330.414 137.722 331.89 138.19 332.988 139.126C334.104 140.062 334.662 141.322 334.662 142.906C334.662 144.004 334.428 145.039 333.96 146.011C333.492 146.965 332.7 148.036 331.584 149.224L326.913 154.192H334.041ZM340.159 157.162C339.583 157.162 339.106 156.973 338.728 156.595C338.35 156.199 338.161 155.713 338.161 155.137C338.161 154.561 338.35 154.084 338.728 153.706C339.106 153.31 339.583 153.112 340.159 153.112C340.735 153.112 341.212 153.31 341.59 153.706C341.968 154.084 342.157 154.561 342.157 155.137C342.157 155.713 341.968 156.199 341.59 156.595C341.212 156.973 340.735 157.162 340.159 157.162ZM350.987 137.722C353.399 137.722 355.253 138.541 356.549 140.179C357.863 141.799 358.52 144.121 358.52 147.145C358.52 149.215 358.214 151.015 357.602 152.545C356.99 154.057 356.108 155.218 354.956 156.028C353.822 156.838 352.481 157.243 350.933 157.243C349.907 157.243 348.872 157.063 347.828 156.703C346.802 156.325 345.929 155.821 345.209 155.191C344.975 154.993 344.804 154.804 344.696 154.624C344.606 154.426 344.561 154.192 344.561 153.922C344.561 153.526 344.669 153.193 344.885 152.923C345.119 152.635 345.389 152.491 345.695 152.491C345.875 152.491 346.046 152.527 346.208 152.599C346.37 152.653 346.568 152.752 346.802 152.896C348.296 153.94 349.628 154.462 350.798 154.462C352.112 154.462 353.147 153.859 353.903 152.653C354.659 151.429 355.055 149.719 355.091 147.523C354.677 148.333 354.056 148.981 353.228 149.467C352.4 149.935 351.473 150.169 350.447 150.169C349.313 150.169 348.305 149.917 347.423 149.413C346.541 148.891 345.848 148.171 345.344 147.253C344.858 146.317 344.615 145.255 344.615 144.067C344.615 142.843 344.885 141.754 345.425 140.8C345.983 139.828 346.739 139.072 347.693 138.532C348.665 137.992 349.763 137.722 350.987 137.722ZM351.176 147.415C352.184 147.415 352.994 147.1 353.606 146.47C354.236 145.822 354.551 144.985 354.551 143.959C354.551 142.915 354.236 142.078 353.606 141.448C352.994 140.8 352.184 140.476 351.176 140.476C350.186 140.476 349.394 140.8 348.8 141.448C348.206 142.078 347.909 142.915 347.909 143.959C347.909 145.003 348.206 145.84 348.8 146.47C349.394 147.1 350.186 147.415 351.176 147.415ZM373.224 154.192C374.304 154.192 374.844 154.651 374.844 155.569C374.844 156.523 374.304 157 373.224 157H364.098C363 157 362.451 156.523 362.451 155.569C362.451 154.651 363 154.192 364.098 154.192H366.906V141.88L364.314 143.473C364.062 143.617 363.837 143.689 363.639 143.689C363.261 143.689 362.937 143.527 362.667 143.203C362.415 142.879 362.289 142.519 362.289 142.123C362.289 141.601 362.523 141.196 362.991 140.908L367.176 138.316C367.716 137.992 368.229 137.83 368.715 137.83C369.219 137.83 369.624 137.983 369.93 138.289C370.236 138.595 370.389 139.018 370.389 139.558V154.192H373.224ZM384.986 144.823C386.174 144.823 387.218 145.084 388.118 145.606C389.036 146.11 389.747 146.821 390.251 147.739C390.755 148.657 391.007 149.71 391.007 150.898C391.007 152.14 390.719 153.238 390.143 154.192C389.585 155.146 388.784 155.893 387.74 156.433C386.714 156.955 385.526 157.216 384.176 157.216C383.06 157.216 381.962 157.036 380.882 156.676C379.82 156.298 378.911 155.794 378.155 155.164C377.741 154.804 377.534 154.381 377.534 153.895C377.534 153.499 377.642 153.166 377.858 152.896C378.092 152.608 378.362 152.464 378.668 152.464C378.848 152.464 379.019 152.5 379.181 152.572C379.343 152.626 379.532 152.725 379.748 152.869C380.468 153.373 381.17 153.76 381.854 154.03C382.538 154.3 383.267 154.435 384.041 154.435C385.229 154.435 386.138 154.138 386.768 153.544C387.398 152.95 387.713 152.104 387.713 151.006C387.713 149.944 387.389 149.107 386.741 148.495C386.111 147.865 385.238 147.55 384.122 147.55C383.42 147.55 382.79 147.649 382.232 147.847C381.692 148.045 381.134 148.378 380.558 148.846C380.216 149.08 379.865 149.197 379.505 149.197C379.145 149.197 378.839 149.089 378.587 148.873C378.335 148.657 378.209 148.369 378.209 148.009V139.585C378.209 139.081 378.353 138.685 378.641 138.397C378.929 138.109 379.334 137.965 379.856 137.965H388.847C389.927 137.965 390.467 138.415 390.467 139.315C390.467 140.215 389.927 140.665 388.847 140.665H381.611V145.795C382.529 145.147 383.654 144.823 384.986 144.823ZM395.424 157.162C394.848 157.162 394.371 156.973 393.993 156.595C393.615 156.199 393.426 155.713 393.426 155.137C393.426 154.561 393.615 154.084 393.993 153.706C394.371 153.31 394.848 153.112 395.424 153.112C396 153.112 396.477 153.31 396.855 153.706C397.233 154.084 397.422 154.561 397.422 155.137C397.422 155.713 397.233 156.199 396.855 156.595C396.477 156.973 396 157.162 395.424 157.162ZM412.3 154.192C413.38 154.192 413.92 154.651 413.92 155.569C413.92 156.523 413.38 157 412.3 157H403.174C402.076 157 401.527 156.523 401.527 155.569C401.527 154.651 402.076 154.192 403.174 154.192H405.982V141.88L403.39 143.473C403.138 143.617 402.913 143.689 402.715 143.689C402.337 143.689 402.013 143.527 401.743 143.203C401.491 142.879 401.365 142.519 401.365 142.123C401.365 141.601 401.599 141.196 402.067 140.908L406.252 138.316C406.792 137.992 407.305 137.83 407.791 137.83C408.295 137.83 408.7 137.983 409.006 138.289C409.312 138.595 409.465 139.018 409.465 139.558V154.192H412.3ZM423.063 157.243C420.813 157.243 419.094 156.415 417.906 154.759C416.718 153.085 416.124 150.655 416.124 147.469C416.124 144.301 416.718 141.889 417.906 140.233C419.094 138.559 420.813 137.722 423.063 137.722C425.313 137.722 427.032 138.559 428.22 140.233C429.408 141.889 430.002 144.301 430.002 147.469C430.002 150.637 429.408 153.058 428.22 154.732C427.032 156.406 425.313 157.243 423.063 157.243ZM423.063 154.516C424.287 154.516 425.178 153.958 425.736 152.842C426.294 151.708 426.573 149.917 426.573 147.469C426.573 145.003 426.294 143.221 425.736 142.123C425.178 141.007 424.287 140.449 423.063 140.449C421.839 140.449 420.948 141.007 420.39 142.123C419.832 143.239 419.553 145.021 419.553 147.469C419.553 149.917 419.832 151.708 420.39 152.842C420.948 153.958 421.839 154.516 423.063 154.516ZM440.413 144.796C441.547 144.796 442.555 145.057 443.437 145.579C444.319 146.083 445.003 146.803 445.489 147.739C445.993 148.657 446.245 149.71 446.245 150.898C446.245 152.122 445.966 153.22 445.408 154.192C444.868 155.146 444.112 155.893 443.14 156.433C442.186 156.973 441.097 157.243 439.873 157.243C437.461 157.243 435.598 156.433 434.284 154.813C432.988 153.175 432.34 150.844 432.34 147.82C432.34 145.75 432.646 143.959 433.258 142.447C433.87 140.917 434.743 139.747 435.877 138.937C437.029 138.127 438.379 137.722 439.927 137.722C440.953 137.722 441.979 137.911 443.005 138.289C444.049 138.649 444.931 139.144 445.651 139.774C445.885 139.972 446.047 140.17 446.137 140.368C446.245 140.548 446.299 140.773 446.299 141.043C446.299 141.439 446.182 141.781 445.948 142.069C445.732 142.339 445.471 142.474 445.165 142.474C444.985 142.474 444.814 142.447 444.652 142.393C444.49 142.321 444.292 142.213 444.058 142.069C442.564 141.025 441.232 140.503 440.062 140.503C438.748 140.503 437.713 141.115 436.957 142.339C436.201 143.545 435.805 145.246 435.769 147.442C436.183 146.632 436.804 145.993 437.632 145.525C438.46 145.039 439.387 144.796 440.413 144.796ZM439.684 154.489C440.674 154.489 441.466 154.174 442.06 153.544C442.654 152.896 442.951 152.05 442.951 151.006C442.951 149.962 442.654 149.125 442.06 148.495C441.466 147.865 440.674 147.55 439.684 147.55C438.676 147.55 437.857 147.874 437.227 148.522C436.615 149.152 436.309 149.98 436.309 151.006C436.309 152.05 436.615 152.896 437.227 153.544C437.857 154.174 438.676 154.489 439.684 154.489Z" fill="#132144"/>
<path d="M273.995 119.075C273.765 119.075 273.58 119.005 273.44 118.865C273.3 118.725 273.23 118.535 273.23 118.295V109.175C273.23 108.945 273.295 108.765 273.425 108.635C273.565 108.495 273.755 108.425 273.995 108.425H277.61C278.73 108.425 279.6 108.7 280.22 109.25C280.84 109.8 281.15 110.58 281.15 111.59C281.15 112.59 280.84 113.37 280.22 113.93C279.6 114.49 278.73 114.77 277.61 114.77H274.775V118.295C274.775 118.535 274.705 118.725 274.565 118.865C274.435 119.005 274.245 119.075 273.995 119.075ZM277.445 113.525C278.925 113.525 279.665 112.88 279.665 111.59C279.665 110.31 278.925 109.67 277.445 109.67H274.775V113.525H277.445ZM285.766 119.105C285.046 119.105 284.411 118.95 283.861 118.64C283.321 118.33 282.901 117.89 282.601 117.32C282.311 116.74 282.166 116.07 282.166 115.31C282.166 114.54 282.311 113.87 282.601 113.3C282.901 112.72 283.321 112.275 283.861 111.965C284.411 111.655 285.046 111.5 285.766 111.5C286.486 111.5 287.116 111.655 287.656 111.965C288.206 112.275 288.626 112.72 288.916 113.3C289.216 113.87 289.366 114.54 289.366 115.31C289.366 116.07 289.216 116.74 288.916 117.32C288.626 117.89 288.206 118.33 287.656 118.64C287.116 118.95 286.486 119.105 285.766 119.105ZM285.766 117.905C286.436 117.905 286.946 117.685 287.296 117.245C287.656 116.805 287.836 116.16 287.836 115.31C287.836 114.47 287.656 113.83 287.296 113.39C286.936 112.94 286.426 112.715 285.766 112.715C285.106 112.715 284.596 112.94 284.236 113.39C283.876 113.83 283.696 114.47 283.696 115.31C283.696 116.16 283.871 116.805 284.221 117.245C284.581 117.685 285.096 117.905 285.766 117.905ZM294.893 111.53C295.373 111.5 295.613 111.705 295.613 112.145C295.613 112.365 295.558 112.53 295.448 112.64C295.338 112.75 295.148 112.815 294.878 112.835L294.428 112.88C293.798 112.94 293.328 113.16 293.018 113.54C292.718 113.92 292.568 114.38 292.568 114.92V118.355C292.568 118.595 292.498 118.775 292.358 118.895C292.218 119.015 292.038 119.075 291.818 119.075C291.598 119.075 291.413 119.015 291.263 118.895C291.123 118.775 291.053 118.595 291.053 118.355V112.25C291.053 112.02 291.123 111.845 291.263 111.725C291.413 111.595 291.598 111.53 291.818 111.53C292.018 111.53 292.183 111.595 292.313 111.725C292.453 111.845 292.523 112.015 292.523 112.235V112.955C292.723 112.515 293.013 112.18 293.393 111.95C293.773 111.72 294.203 111.585 294.683 111.545L294.893 111.53ZM303.636 119.105C302.926 119.105 302.301 118.95 301.761 118.64C301.231 118.33 300.816 117.89 300.516 117.32C300.226 116.75 300.081 116.09 300.081 115.34C300.081 114.58 300.231 113.91 300.531 113.33C300.841 112.75 301.271 112.3 301.821 111.98C302.371 111.66 303.001 111.5 303.711 111.5C304.091 111.5 304.471 111.555 304.851 111.665C305.241 111.775 305.586 111.925 305.886 112.115C306.206 112.335 306.366 112.59 306.366 112.88C306.366 113.05 306.321 113.195 306.231 113.315C306.141 113.425 306.026 113.48 305.886 113.48C305.796 113.48 305.706 113.46 305.616 113.42C305.526 113.37 305.411 113.3 305.271 113.21C305.021 113.05 304.786 112.93 304.566 112.85C304.356 112.76 304.101 112.715 303.801 112.715C303.121 112.715 302.591 112.945 302.211 113.405C301.841 113.865 301.656 114.505 301.656 115.325C301.656 116.145 301.841 116.78 302.211 117.23C302.581 117.67 303.106 117.89 303.786 117.89C304.086 117.89 304.351 117.845 304.581 117.755C304.811 117.665 305.046 117.545 305.286 117.395C305.396 117.325 305.506 117.265 305.616 117.215C305.726 117.165 305.826 117.14 305.916 117.14C306.056 117.14 306.171 117.2 306.261 117.32C306.351 117.43 306.396 117.57 306.396 117.74C306.396 117.88 306.356 118.01 306.276 118.13C306.206 118.24 306.081 118.355 305.901 118.475C305.601 118.675 305.251 118.83 304.851 118.94C304.451 119.05 304.046 119.105 303.636 119.105ZM310.932 119.105C310.212 119.105 309.577 118.95 309.027 118.64C308.487 118.33 308.067 117.89 307.767 117.32C307.477 116.74 307.332 116.07 307.332 115.31C307.332 114.54 307.477 113.87 307.767 113.3C308.067 112.72 308.487 112.275 309.027 111.965C309.577 111.655 310.212 111.5 310.932 111.5C311.652 111.5 312.282 111.655 312.822 111.965C313.372 112.275 313.792 112.72 314.082 113.3C314.382 113.87 314.532 114.54 314.532 115.31C314.532 116.07 314.382 116.74 314.082 117.32C313.792 117.89 313.372 118.33 312.822 118.64C312.282 118.95 311.652 119.105 310.932 119.105ZM310.932 117.905C311.602 117.905 312.112 117.685 312.462 117.245C312.822 116.805 313.002 116.16 313.002 115.31C313.002 114.47 312.822 113.83 312.462 113.39C312.102 112.94 311.592 112.715 310.932 112.715C310.272 112.715 309.762 112.94 309.402 113.39C309.042 113.83 308.862 114.47 308.862 115.31C308.862 116.16 309.037 116.805 309.387 117.245C309.747 117.685 310.262 117.905 310.932 117.905ZM320.149 111.5C320.789 111.5 321.354 111.655 321.844 111.965C322.334 112.275 322.714 112.715 322.984 113.285C323.264 113.855 323.404 114.52 323.404 115.28C323.404 116.03 323.264 116.695 322.984 117.275C322.714 117.855 322.329 118.305 321.829 118.625C321.339 118.945 320.779 119.105 320.149 119.105C319.599 119.105 319.114 118.99 318.694 118.76C318.274 118.52 317.954 118.18 317.734 117.74V118.34C317.734 118.56 317.664 118.74 317.524 118.88C317.394 119.01 317.214 119.075 316.984 119.075C316.754 119.075 316.569 119.01 316.429 118.88C316.289 118.74 316.219 118.56 316.219 118.34V109.07C316.219 108.85 316.289 108.675 316.429 108.545C316.579 108.415 316.769 108.35 316.999 108.35C317.219 108.35 317.394 108.415 317.524 108.545C317.664 108.665 317.734 108.83 317.734 109.04V112.88C317.954 112.44 318.274 112.1 318.694 111.86C319.114 111.62 319.599 111.5 320.149 111.5ZM319.789 117.905C320.439 117.905 320.944 117.675 321.304 117.215C321.674 116.755 321.859 116.11 321.859 115.28C321.859 114.46 321.679 113.83 321.319 113.39C320.959 112.94 320.449 112.715 319.789 112.715C319.129 112.715 318.619 112.94 318.259 113.39C317.909 113.84 317.734 114.48 317.734 115.31C317.734 116.14 317.909 116.78 318.259 117.23C318.619 117.68 319.129 117.905 319.789 117.905ZM328.921 111.53C329.401 111.5 329.641 111.705 329.641 112.145C329.641 112.365 329.586 112.53 329.476 112.64C329.366 112.75 329.176 112.815 328.906 112.835L328.456 112.88C327.826 112.94 327.356 113.16 327.046 113.54C326.746 113.92 326.596 114.38 326.596 114.92V118.355C326.596 118.595 326.526 118.775 326.386 118.895C326.246 119.015 326.066 119.075 325.846 119.075C325.626 119.075 325.441 119.015 325.291 118.895C325.151 118.775 325.081 118.595 325.081 118.355V112.25C325.081 112.02 325.151 111.845 325.291 111.725C325.441 111.595 325.626 111.53 325.846 111.53C326.046 111.53 326.211 111.595 326.341 111.725C326.481 111.845 326.551 112.015 326.551 112.235V112.955C326.751 112.515 327.041 112.18 327.421 111.95C327.801 111.72 328.231 111.585 328.711 111.545L328.921 111.53ZM333.605 111.5C334.575 111.5 335.295 111.745 335.765 112.235C336.245 112.725 336.485 113.47 336.485 114.47V118.355C336.485 118.585 336.42 118.765 336.29 118.895C336.16 119.015 335.98 119.075 335.75 119.075C335.53 119.075 335.355 119.01 335.225 118.88C335.095 118.75 335.03 118.575 335.03 118.355V117.8C334.84 118.22 334.555 118.545 334.175 118.775C333.805 118.995 333.37 119.105 332.87 119.105C332.39 119.105 331.95 119.01 331.55 118.82C331.16 118.62 330.85 118.35 330.62 118.01C330.39 117.67 330.275 117.285 330.275 116.855C330.265 116.315 330.4 115.895 330.68 115.595C330.96 115.285 331.415 115.065 332.045 114.935C332.675 114.795 333.55 114.725 334.67 114.725H335.015V114.29C335.015 113.73 334.9 113.325 334.67 113.075C334.44 112.825 334.07 112.7 333.56 112.7C333.21 112.7 332.88 112.745 332.57 112.835C332.26 112.925 331.92 113.055 331.55 113.225C331.28 113.375 331.09 113.45 330.98 113.45C330.83 113.45 330.705 113.395 330.605 113.285C330.515 113.175 330.47 113.035 330.47 112.865C330.47 112.715 330.51 112.585 330.59 112.475C330.68 112.355 330.82 112.24 331.01 112.13C331.36 111.94 331.77 111.79 332.24 111.68C332.71 111.56 333.165 111.5 333.605 111.5ZM333.14 117.98C333.69 117.98 334.14 117.795 334.49 117.425C334.84 117.045 335.015 116.56 335.015 115.97V115.58H334.745C333.965 115.58 333.365 115.615 332.945 115.685C332.525 115.755 332.225 115.875 332.045 116.045C331.865 116.205 331.775 116.44 331.775 116.75C331.775 117.11 331.905 117.405 332.165 117.635C332.425 117.865 332.75 117.98 333.14 117.98ZM342.398 111.53C342.878 111.5 343.118 111.705 343.118 112.145C343.118 112.365 343.063 112.53 342.953 112.64C342.843 112.75 342.653 112.815 342.383 112.835L341.933 112.88C341.303 112.94 340.833 113.16 340.523 113.54C340.223 113.92 340.073 114.38 340.073 114.92V118.355C340.073 118.595 340.003 118.775 339.863 118.895C339.723 119.015 339.543 119.075 339.323 119.075C339.103 119.075 338.918 119.015 338.768 118.895C338.628 118.775 338.558 118.595 338.558 118.355V112.25C338.558 112.02 338.628 111.845 338.768 111.725C338.918 111.595 339.103 111.53 339.323 111.53C339.523 111.53 339.688 111.595 339.818 111.725C339.958 111.845 340.028 112.015 340.028 112.235V112.955C340.228 112.515 340.518 112.18 340.898 111.95C341.278 111.72 341.708 111.585 342.188 111.545L342.398 111.53Z" fill="#7E8C9A"/>
<path d="M34.264 126.04C34.3173 126.168 34.344 126.275 34.344 126.36C34.344 126.563 34.2587 126.733 34.088 126.872C33.928 127.011 33.7467 127.08 33.544 127.08C33.4053 127.08 33.272 127.043 33.144 126.968C33.0267 126.883 32.936 126.765 32.872 126.616L31.816 124.216H25.96L24.904 126.616C24.84 126.765 24.744 126.883 24.616 126.968C24.488 127.043 24.3547 127.08 24.216 127.08C24.0027 127.08 23.8107 127.011 23.64 126.872C23.48 126.733 23.4 126.563 23.4 126.36C23.4 126.275 23.4267 126.168 23.48 126.04L27.992 116.168C28.0667 115.997 28.184 115.864 28.344 115.768C28.5147 115.672 28.6907 115.624 28.872 115.624C29.0533 115.624 29.224 115.672 29.384 115.768C29.5547 115.864 29.6773 115.997 29.752 116.168L34.264 126.04ZM26.552 122.904H31.24L28.888 117.608L26.552 122.904ZM39.214 127.112C38.4567 127.112 37.79 126.947 37.214 126.616C36.6487 126.285 36.206 125.816 35.886 125.208C35.5767 124.6 35.422 123.896 35.422 123.096C35.422 122.285 35.582 121.571 35.902 120.952C36.2327 120.333 36.6913 119.853 37.278 119.512C37.8647 119.171 38.5367 119 39.294 119C39.6993 119 40.1047 119.059 40.51 119.176C40.926 119.293 41.294 119.453 41.614 119.656C41.9553 119.891 42.126 120.163 42.126 120.472C42.126 120.653 42.078 120.808 41.982 120.936C41.886 121.053 41.7633 121.112 41.614 121.112C41.518 121.112 41.422 121.091 41.326 121.048C41.23 120.995 41.1073 120.92 40.958 120.824C40.6913 120.653 40.4407 120.525 40.206 120.44C39.982 120.344 39.71 120.296 39.39 120.296C38.6647 120.296 38.0993 120.541 37.694 121.032C37.2993 121.523 37.102 122.205 37.102 123.08C37.102 123.955 37.2993 124.632 37.694 125.112C38.0887 125.581 38.6487 125.816 39.374 125.816C39.694 125.816 39.9767 125.768 40.222 125.672C40.4673 125.576 40.718 125.448 40.974 125.288C41.0913 125.213 41.2087 125.149 41.326 125.096C41.4433 125.043 41.55 125.016 41.646 125.016C41.7953 125.016 41.918 125.08 42.014 125.208C42.11 125.325 42.158 125.475 42.158 125.656C42.158 125.805 42.1153 125.944 42.03 126.072C41.9553 126.189 41.822 126.312 41.63 126.44C41.31 126.653 40.9367 126.819 40.51 126.936C40.0833 127.053 39.6513 127.112 39.214 127.112ZM47.4596 125.848C47.6943 125.869 47.8596 125.933 47.9556 126.04C48.0623 126.136 48.1156 126.275 48.1156 126.456C48.1156 126.669 48.0303 126.835 47.8596 126.952C47.6996 127.059 47.4596 127.101 47.1396 127.08L46.7076 127.048C45.8436 126.984 45.1983 126.723 44.7716 126.264C44.345 125.795 44.1316 125.107 44.1316 124.2V120.44H43.1716C42.7023 120.44 42.4676 120.232 42.4676 119.816C42.4676 119.624 42.5263 119.475 42.6436 119.368C42.7716 119.251 42.9476 119.192 43.1716 119.192H44.1316V117.544C44.1316 117.299 44.201 117.107 44.3396 116.968C44.489 116.829 44.6863 116.76 44.9316 116.76C45.177 116.76 45.3743 116.829 45.5236 116.968C45.673 117.107 45.7476 117.299 45.7476 117.544V119.192H47.3316C47.5556 119.192 47.7263 119.251 47.8436 119.368C47.9716 119.475 48.0356 119.624 48.0356 119.816C48.0356 120.019 47.9716 120.173 47.8436 120.28C47.7263 120.387 47.5556 120.44 47.3316 120.44H45.7476V124.312C45.7476 124.813 45.849 125.181 46.0516 125.416C46.265 125.651 46.585 125.784 47.0116 125.816L47.4596 125.848ZM50.0923 127.08C49.8576 127.08 49.6603 127.016 49.5003 126.888C49.3509 126.76 49.2763 126.568 49.2763 126.312V119.816C49.2763 119.56 49.3509 119.368 49.5003 119.24C49.6603 119.101 49.8576 119.032 50.0923 119.032C50.3269 119.032 50.5189 119.101 50.6683 119.24C50.8176 119.368 50.8923 119.56 50.8923 119.816V126.312C50.8923 126.568 50.8176 126.76 50.6683 126.888C50.5189 127.016 50.3269 127.08 50.0923 127.08ZM50.0923 117.464C49.7829 117.464 49.5376 117.379 49.3563 117.208C49.1749 117.037 49.0843 116.813 49.0843 116.536C49.0843 116.259 49.1749 116.04 49.3563 115.88C49.5376 115.709 49.7829 115.624 50.0923 115.624C50.3909 115.624 50.6309 115.709 50.8123 115.88C51.0043 116.04 51.1003 116.259 51.1003 116.536C51.1003 116.813 51.0096 117.037 50.8283 117.208C50.6469 117.379 50.4016 117.464 50.0923 117.464ZM58.7033 119.512C58.7673 119.352 58.8579 119.235 58.9753 119.16C59.1033 119.085 59.2366 119.048 59.3753 119.048C59.5779 119.048 59.7539 119.117 59.9033 119.256C60.0633 119.395 60.1433 119.56 60.1433 119.752C60.1433 119.859 60.1219 119.96 60.0793 120.056L57.0233 126.536C56.9486 126.707 56.8313 126.84 56.6713 126.936C56.5219 127.021 56.3619 127.064 56.1913 127.064C56.0206 127.064 55.8553 127.021 55.6953 126.936C55.5459 126.84 55.4339 126.707 55.3593 126.536L52.3033 120.056C52.2606 119.971 52.2393 119.869 52.2393 119.752C52.2393 119.56 52.3246 119.395 52.4953 119.256C52.6659 119.117 52.8579 119.048 53.0713 119.048C53.3806 119.048 53.6099 119.197 53.7593 119.496L56.2393 125L58.7033 119.512ZM64.6188 119C65.6534 119 66.4214 119.261 66.9228 119.784C67.4348 120.307 67.6908 121.101 67.6908 122.168V126.312C67.6908 126.557 67.6214 126.749 67.4828 126.888C67.3441 127.016 67.1521 127.08 66.9068 127.08C66.6721 127.08 66.4854 127.011 66.3468 126.872C66.2081 126.733 66.1388 126.547 66.1388 126.312V125.72C65.9361 126.168 65.6321 126.515 65.2268 126.76C64.8321 126.995 64.3681 127.112 63.8348 127.112C63.3228 127.112 62.8534 127.011 62.4268 126.808C62.0108 126.595 61.6801 126.307 61.4348 125.944C61.1894 125.581 61.0668 125.171 61.0668 124.712C61.0561 124.136 61.2001 123.688 61.4988 123.368C61.7974 123.037 62.2828 122.803 62.9548 122.664C63.6268 122.515 64.5601 122.44 65.7548 122.44H66.1228V121.976C66.1228 121.379 66.0001 120.947 65.7548 120.68C65.5094 120.413 65.1148 120.28 64.5708 120.28C64.1974 120.28 63.8454 120.328 63.5148 120.424C63.1841 120.52 62.8214 120.659 62.4268 120.84C62.1388 121 61.9361 121.08 61.8188 121.08C61.6588 121.08 61.5254 121.021 61.4188 120.904C61.3228 120.787 61.2747 120.637 61.2747 120.456C61.2747 120.296 61.3174 120.157 61.4028 120.04C61.4988 119.912 61.6481 119.789 61.8508 119.672C62.2241 119.469 62.6614 119.309 63.1628 119.192C63.6641 119.064 64.1494 119 64.6188 119ZM64.1228 125.912C64.7094 125.912 65.1894 125.715 65.5628 125.32C65.9361 124.915 66.1228 124.397 66.1228 123.768V123.352H65.8348C65.0028 123.352 64.3628 123.389 63.9148 123.464C63.4668 123.539 63.1468 123.667 62.9548 123.848C62.7628 124.019 62.6668 124.269 62.6668 124.6C62.6668 124.984 62.8054 125.299 63.0828 125.544C63.3601 125.789 63.7068 125.912 64.1228 125.912ZM72.6213 127.112C71.5333 127.112 70.6426 126.888 69.9493 126.44C69.7573 126.323 69.6186 126.2 69.5333 126.072C69.4586 125.944 69.4213 125.8 69.4213 125.64C69.4213 125.469 69.4693 125.325 69.5653 125.208C69.6613 125.091 69.7839 125.032 69.9333 125.032C70.0719 125.032 70.2906 125.117 70.5893 125.288C70.9093 125.459 71.2186 125.597 71.5173 125.704C71.8266 125.811 72.2106 125.864 72.6693 125.864C73.1813 125.864 73.5813 125.773 73.8693 125.592C74.1573 125.411 74.3013 125.155 74.3013 124.824C74.3013 124.611 74.2426 124.44 74.1253 124.312C74.0186 124.184 73.8266 124.072 73.5493 123.976C73.2719 123.869 72.8613 123.757 72.3173 123.64C71.3786 123.437 70.7013 123.165 70.2853 122.824C69.8799 122.472 69.6773 121.997 69.6773 121.4C69.6773 120.941 69.8106 120.531 70.0773 120.168C70.3439 119.795 70.7119 119.507 71.1813 119.304C71.6506 119.101 72.1839 119 72.7812 119C73.2079 119 73.6239 119.059 74.0293 119.176C74.4346 119.283 74.7919 119.443 75.1013 119.656C75.4533 119.891 75.6293 120.163 75.6293 120.472C75.6293 120.643 75.5759 120.787 75.4693 120.904C75.3733 121.021 75.2559 121.08 75.1173 121.08C75.0213 121.08 74.9253 121.059 74.8293 121.016C74.7333 120.973 74.6053 120.904 74.4453 120.808C74.1573 120.637 73.8853 120.504 73.6293 120.408C73.3839 120.312 73.0746 120.264 72.7013 120.264C72.2533 120.264 71.8906 120.36 71.6133 120.552C71.3466 120.744 71.2133 121.005 71.2133 121.336C71.2133 121.635 71.3359 121.869 71.5813 122.04C71.8373 122.2 72.3119 122.355 73.0052 122.504C73.7199 122.653 74.2799 122.824 74.6853 123.016C75.0906 123.208 75.3786 123.448 75.5493 123.736C75.7306 124.013 75.8213 124.371 75.8213 124.808C75.8213 125.501 75.5279 126.061 74.9413 126.488C74.3653 126.904 73.5919 127.112 72.6213 127.112Z" fill="#377DFF"/>
<path d="M25.128 165C24.872 165 24.6693 164.931 24.52 164.792C24.3813 164.643 24.312 164.445 24.312 164.2V154.52C24.312 154.275 24.3813 154.083 24.52 153.944C24.6693 153.795 24.872 153.72 25.128 153.72H31.016C31.2613 153.72 31.448 153.779 31.576 153.896C31.7147 154.013 31.784 154.179 31.784 154.392C31.784 154.605 31.7147 154.771 31.576 154.888C31.448 154.995 31.2613 155.048 31.016 155.048H25.928V158.6H30.696C30.9413 158.6 31.128 158.659 31.256 158.776C31.3947 158.893 31.464 159.059 31.464 159.272C31.464 159.485 31.3947 159.651 31.256 159.768C31.128 159.885 30.9413 159.944 30.696 159.944H25.928V163.672H31.016C31.528 163.672 31.784 163.891 31.784 164.328C31.784 164.541 31.7147 164.707 31.576 164.824C31.448 164.941 31.2613 165 31.016 165H25.128ZM37.6874 157C39.554 157 40.4874 158.051 40.4874 160.152V164.312C40.4874 164.557 40.4127 164.749 40.2634 164.888C40.1247 165.016 39.9274 165.08 39.6714 165.08C39.426 165.08 39.2287 165.011 39.0794 164.872C38.9407 164.733 38.8714 164.547 38.8714 164.312V160.232C38.8714 159.571 38.738 159.085 38.4714 158.776C38.2154 158.467 37.81 158.312 37.2554 158.312C36.6047 158.312 36.082 158.515 35.6874 158.92C35.2927 159.325 35.0954 159.869 35.0954 160.552V164.312C35.0954 164.547 35.0207 164.733 34.8714 164.872C34.7327 165.011 34.5407 165.08 34.2954 165.08C34.05 165.08 33.8527 165.011 33.7034 164.872C33.554 164.733 33.4794 164.547 33.4794 164.312V157.8C33.4794 157.576 33.554 157.395 33.7034 157.256C33.8634 157.107 34.0607 157.032 34.2954 157.032C34.53 157.032 34.7167 157.101 34.8554 157.24C34.994 157.379 35.0634 157.56 35.0634 157.784V158.44C35.3194 157.971 35.6767 157.613 36.1354 157.368C36.594 157.123 37.1114 157 37.6874 157ZM51.0129 157.032C51.5249 157 51.7809 157.219 51.7809 157.688C51.7809 157.923 51.7222 158.099 51.6049 158.216C51.4875 158.333 51.2849 158.403 50.9969 158.424L50.5169 158.472C49.8449 158.536 49.3435 158.771 49.0129 159.176C48.6929 159.581 48.5329 160.072 48.5329 160.648V164.312C48.5329 164.568 48.4582 164.76 48.3089 164.888C48.1595 165.016 47.9675 165.08 47.7329 165.08C47.4982 165.08 47.3009 165.016 47.1409 164.888C46.9915 164.76 46.9169 164.568 46.9169 164.312V157.8C46.9169 157.555 46.9915 157.368 47.1409 157.24C47.3009 157.101 47.4982 157.032 47.7329 157.032C47.9462 157.032 48.1222 157.101 48.2609 157.24C48.4102 157.368 48.4849 157.549 48.4849 157.784V158.552C48.6982 158.083 49.0075 157.725 49.4129 157.48C49.8182 157.235 50.2769 157.091 50.7889 157.048L51.0129 157.032ZM58.732 163.032C58.8813 163.032 59.004 163.091 59.1 163.208C59.196 163.325 59.244 163.475 59.244 163.656C59.244 163.965 59.052 164.227 58.668 164.44C58.2947 164.653 57.884 164.819 57.436 164.936C56.9987 165.053 56.5773 165.112 56.172 165.112C54.9347 165.112 53.9587 164.755 53.244 164.04C52.5293 163.315 52.172 162.328 52.172 161.08C52.172 160.28 52.3267 159.571 52.636 158.952C52.956 158.333 53.3987 157.853 53.964 157.512C54.54 157.171 55.1907 157 55.916 157C56.9613 157 57.788 157.336 58.396 158.008C59.004 158.68 59.308 159.587 59.308 160.728C59.308 161.155 59.116 161.368 58.732 161.368H53.788C53.8947 163.021 54.6893 163.848 56.172 163.848C56.5667 163.848 56.908 163.795 57.196 163.688C57.484 163.581 57.788 163.443 58.108 163.272C58.14 163.251 58.2253 163.208 58.364 163.144C58.5133 163.069 58.636 163.032 58.732 163.032ZM55.948 158.184C55.3293 158.184 54.8333 158.381 54.46 158.776C54.0867 159.171 53.8627 159.725 53.788 160.44H57.916C57.884 159.715 57.6973 159.16 57.356 158.776C57.0253 158.381 56.556 158.184 55.948 158.184ZM66.5314 157.512C66.5954 157.352 66.686 157.235 66.8034 157.16C66.9314 157.085 67.0647 157.048 67.2034 157.048C67.406 157.048 67.582 157.117 67.7314 157.256C67.8914 157.395 67.9714 157.56 67.9714 157.752C67.9714 157.859 67.95 157.96 67.9074 158.056L64.8514 164.536C64.7767 164.707 64.6594 164.84 64.4994 164.936C64.35 165.021 64.19 165.064 64.0194 165.064C63.8487 165.064 63.6834 165.021 63.5234 164.936C63.374 164.84 63.262 164.707 63.1874 164.536L60.1314 158.056C60.0887 157.971 60.0674 157.869 60.0674 157.752C60.0674 157.56 60.1527 157.395 60.3234 157.256C60.494 157.117 60.686 157.048 60.8994 157.048C61.2087 157.048 61.438 157.197 61.5874 157.496L64.0674 163L66.5314 157.512ZM70.3423 165.08C70.1076 165.08 69.9103 165.016 69.7503 164.888C69.6009 164.76 69.5263 164.568 69.5263 164.312V157.816C69.5263 157.56 69.6009 157.368 69.7503 157.24C69.9103 157.101 70.1076 157.032 70.3423 157.032C70.5769 157.032 70.7689 157.101 70.9183 157.24C71.0676 157.368 71.1423 157.56 71.1423 157.816V164.312C71.1423 164.568 71.0676 164.76 70.9183 164.888C70.7689 165.016 70.5769 165.08 70.3423 165.08ZM70.3423 155.464C70.0329 155.464 69.7876 155.379 69.6063 155.208C69.4249 155.037 69.3343 154.813 69.3343 154.536C69.3343 154.259 69.4249 154.04 69.6063 153.88C69.7876 153.709 70.0329 153.624 70.3423 153.624C70.6409 153.624 70.8809 153.709 71.0623 153.88C71.2543 154.04 71.3503 154.259 71.3503 154.536C71.3503 154.813 71.2596 155.037 71.0783 155.208C70.8969 155.379 70.6516 155.464 70.3423 155.464ZM76.1213 165.112C75.0333 165.112 74.1426 164.888 73.4493 164.44C73.2573 164.323 73.1186 164.2 73.0333 164.072C72.9586 163.944 72.9213 163.8 72.9213 163.64C72.9213 163.469 72.9693 163.325 73.0653 163.208C73.1613 163.091 73.2839 163.032 73.4333 163.032C73.5719 163.032 73.7906 163.117 74.0893 163.288C74.4093 163.459 74.7186 163.597 75.0173 163.704C75.3266 163.811 75.7106 163.864 76.1693 163.864C76.6813 163.864 77.0813 163.773 77.3693 163.592C77.6573 163.411 77.8013 163.155 77.8013 162.824C77.8013 162.611 77.7426 162.44 77.6253 162.312C77.5186 162.184 77.3266 162.072 77.0493 161.976C76.7719 161.869 76.3613 161.757 75.8173 161.64C74.8786 161.437 74.2013 161.165 73.7853 160.824C73.3799 160.472 73.1773 159.997 73.1773 159.4C73.1773 158.941 73.3106 158.531 73.5773 158.168C73.8439 157.795 74.2119 157.507 74.6813 157.304C75.1506 157.101 75.6839 157 76.2812 157C76.7079 157 77.1239 157.059 77.5293 157.176C77.9346 157.283 78.2919 157.443 78.6013 157.656C78.9533 157.891 79.1293 158.163 79.1293 158.472C79.1293 158.643 79.0759 158.787 78.9693 158.904C78.8733 159.021 78.7559 159.08 78.6173 159.08C78.5213 159.08 78.4253 159.059 78.3293 159.016C78.2333 158.973 78.1053 158.904 77.9453 158.808C77.6573 158.637 77.3853 158.504 77.1293 158.408C76.8839 158.312 76.5746 158.264 76.2013 158.264C75.7533 158.264 75.3906 158.36 75.1133 158.552C74.8466 158.744 74.7133 159.005 74.7133 159.336C74.7133 159.635 74.8359 159.869 75.0813 160.04C75.3373 160.2 75.8119 160.355 76.5052 160.504C77.2199 160.653 77.7799 160.824 78.1853 161.016C78.5906 161.208 78.8786 161.448 79.0493 161.736C79.2306 162.013 79.3213 162.371 79.3213 162.808C79.3213 163.501 79.0279 164.061 78.4413 164.488C77.8653 164.904 77.0919 165.112 76.1213 165.112ZM81.936 165.08C81.7013 165.08 81.504 165.016 81.344 164.888C81.1947 164.76 81.12 164.568 81.12 164.312V157.816C81.12 157.56 81.1947 157.368 81.344 157.24C81.504 157.101 81.7013 157.032 81.936 157.032C82.1707 157.032 82.3627 157.101 82.512 157.24C82.6613 157.368 82.736 157.56 82.736 157.816V164.312C82.736 164.568 82.6613 164.76 82.512 164.888C82.3627 165.016 82.1707 165.08 81.936 165.08ZM81.936 155.464C81.6267 155.464 81.3813 155.379 81.2 155.208C81.0187 155.037 80.928 154.813 80.928 154.536C80.928 154.259 81.0187 154.04 81.2 153.88C81.3813 153.709 81.6267 153.624 81.936 153.624C82.2347 153.624 82.4747 153.709 82.656 153.88C82.848 154.04 82.944 154.259 82.944 154.536C82.944 154.813 82.8533 155.037 82.672 155.208C82.4907 155.379 82.2453 155.464 81.936 155.464ZM88.387 165.112C87.619 165.112 86.9417 164.947 86.355 164.616C85.779 164.285 85.331 163.816 85.011 163.208C84.7017 162.589 84.547 161.875 84.547 161.064C84.547 160.243 84.7017 159.528 85.011 158.92C85.331 158.301 85.779 157.827 86.355 157.496C86.9417 157.165 87.619 157 88.387 157C89.155 157 89.827 157.165 90.403 157.496C90.9897 157.827 91.4377 158.301 91.747 158.92C92.067 159.528 92.227 160.243 92.227 161.064C92.227 161.875 92.067 162.589 91.747 163.208C91.4377 163.816 90.9897 164.285 90.403 164.616C89.827 164.947 89.155 165.112 88.387 165.112ZM88.387 163.832C89.1017 163.832 89.6457 163.597 90.019 163.128C90.403 162.659 90.595 161.971 90.595 161.064C90.595 160.168 90.403 159.485 90.019 159.016C89.635 158.536 89.091 158.296 88.387 158.296C87.683 158.296 87.139 158.536 86.755 159.016C86.371 159.485 86.179 160.168 86.179 161.064C86.179 161.971 86.3657 162.659 86.739 163.128C87.123 163.597 87.6723 163.832 88.387 163.832ZM88.723 156.136C88.6377 156.211 88.5363 156.248 88.419 156.248C88.3017 156.248 88.195 156.205 88.099 156.12C88.0137 156.035 87.971 155.933 87.971 155.816C87.971 155.709 88.0083 155.613 88.083 155.528L89.811 153.272C90.0243 152.984 90.2697 152.84 90.547 152.84C90.7497 152.84 90.9203 152.909 91.059 153.048C91.1977 153.187 91.267 153.352 91.267 153.544C91.267 153.789 91.139 154.019 90.883 154.232L88.723 156.136ZM98.2343 157C100.101 157 101.034 158.051 101.034 160.152V164.312C101.034 164.557 100.96 164.749 100.81 164.888C100.672 165.016 100.474 165.08 100.218 165.08C99.9729 165.08 99.7756 165.011 99.6263 164.872C99.4876 164.733 99.4183 164.547 99.4183 164.312V160.232C99.4183 159.571 99.2849 159.085 99.0183 158.776C98.7623 158.467 98.3569 158.312 97.8023 158.312C97.1516 158.312 96.6289 158.515 96.2343 158.92C95.8396 159.325 95.6423 159.869 95.6423 160.552V164.312C95.6423 164.547 95.5676 164.733 95.4183 164.872C95.2796 165.011 95.0876 165.08 94.8423 165.08C94.5969 165.08 94.3996 165.011 94.2503 164.872C94.1009 164.733 94.0263 164.547 94.0263 164.312V157.8C94.0263 157.576 94.1009 157.395 94.2503 157.256C94.4103 157.107 94.6076 157.032 94.8423 157.032C95.0769 157.032 95.2636 157.101 95.4023 157.24C95.5409 157.379 95.6103 157.56 95.6103 157.784V158.44C95.8663 157.971 96.2236 157.613 96.6823 157.368C97.1409 157.123 97.6583 157 98.2343 157Z" fill="#132144"/>
<path d="M30.952 263.192C31.6027 263.373 32.104 263.699 32.456 264.168C32.8187 264.637 33 265.224 33 265.928C33 266.899 32.664 267.656 31.992 268.2C31.3307 268.733 30.4027 269 29.208 269H25.128C24.872 269 24.6693 268.931 24.52 268.792C24.3813 268.643 24.312 268.445 24.312 268.2V258.52C24.312 258.275 24.3813 258.083 24.52 257.944C24.6693 257.795 24.872 257.72 25.128 257.72H29.032C30.1947 257.72 31.1013 257.981 31.752 258.504C32.4133 259.016 32.744 259.736 32.744 260.664C32.744 261.261 32.584 261.779 32.264 262.216C31.9547 262.653 31.5173 262.979 30.952 263.192ZM25.928 262.6H28.776C30.3547 262.6 31.144 262.003 31.144 260.808C31.144 260.211 30.9467 259.768 30.552 259.48C30.168 259.192 29.576 259.048 28.776 259.048H25.928V262.6ZM29.032 267.672C29.8533 267.672 30.456 267.523 30.84 267.224C31.224 266.925 31.416 266.461 31.416 265.832C31.416 265.192 31.2187 264.717 30.824 264.408C30.44 264.088 29.8427 263.928 29.032 263.928H25.928V267.672H29.032ZM35.7798 269.08C35.5451 269.08 35.3478 269.016 35.1878 268.888C35.0384 268.76 34.9638 268.568 34.9638 268.312V258.424C34.9638 258.168 35.0384 257.976 35.1878 257.848C35.3478 257.709 35.5451 257.64 35.7798 257.64C36.0144 257.64 36.2064 257.709 36.3558 257.848C36.5051 257.976 36.5798 258.168 36.5798 258.424V268.312C36.5798 268.568 36.5051 268.76 36.3558 268.888C36.2064 269.016 36.0144 269.08 35.7798 269.08ZM42.2308 269.112C41.4628 269.112 40.7854 268.947 40.1988 268.616C39.6228 268.285 39.1748 267.816 38.8548 267.208C38.5454 266.589 38.3908 265.875 38.3908 265.064C38.3908 264.243 38.5454 263.528 38.8548 262.92C39.1748 262.301 39.6228 261.827 40.1988 261.496C40.7854 261.165 41.4628 261 42.2308 261C42.9988 261 43.6708 261.165 44.2468 261.496C44.8334 261.827 45.2814 262.301 45.5908 262.92C45.9108 263.528 46.0708 264.243 46.0708 265.064C46.0708 265.875 45.9108 266.589 45.5908 267.208C45.2814 267.816 44.8334 268.285 44.2468 268.616C43.6708 268.947 42.9988 269.112 42.2308 269.112ZM42.2308 267.832C42.9454 267.832 43.4894 267.597 43.8628 267.128C44.2468 266.659 44.4388 265.971 44.4388 265.064C44.4388 264.168 44.2468 263.485 43.8628 263.016C43.4788 262.536 42.9348 262.296 42.2308 262.296C41.5268 262.296 40.9828 262.536 40.5988 263.016C40.2148 263.485 40.0228 264.168 40.0228 265.064C40.0228 265.971 40.2094 266.659 40.5828 267.128C40.9668 267.597 41.5161 267.832 42.2308 267.832ZM54.334 261.032C54.5793 261.032 54.7713 261.107 54.91 261.256C55.0593 261.395 55.134 261.581 55.134 261.816V268.376C55.134 269.571 54.814 270.472 54.174 271.08C53.5447 271.688 52.6113 271.992 51.374 271.992C50.222 271.992 49.262 271.773 48.494 271.336C48.0993 271.112 47.902 270.845 47.902 270.536C47.902 270.355 47.95 270.205 48.046 270.088C48.1527 269.971 48.2807 269.912 48.43 269.912C48.5687 269.912 48.7873 269.992 49.086 270.152C49.47 270.333 49.8273 270.472 50.158 270.568C50.4887 270.675 50.8833 270.728 51.342 270.728C52.814 270.728 53.55 269.987 53.55 268.504V267.272C53.326 267.741 52.9847 268.109 52.526 268.376C52.0673 268.632 51.534 268.76 50.926 268.76C50.2433 268.76 49.6353 268.6 49.102 268.28C48.5687 267.96 48.1527 267.507 47.854 266.92C47.566 266.333 47.422 265.656 47.422 264.888C47.422 264.12 47.5713 263.443 47.87 262.856C48.1687 262.269 48.5793 261.816 49.102 261.496C49.6353 261.165 50.2433 261 50.926 261C51.5233 261 52.046 261.128 52.494 261.384C52.9527 261.64 53.2993 262.003 53.534 262.472V261.8C53.534 261.565 53.6033 261.379 53.742 261.24C53.8913 261.101 54.0887 261.032 54.334 261.032ZM51.31 267.48C52.0033 267.48 52.5473 267.251 52.942 266.792C53.3367 266.333 53.534 265.699 53.534 264.888C53.534 264.088 53.3367 263.459 52.942 263C52.558 262.531 52.014 262.296 51.31 262.296C50.606 262.296 50.0513 262.525 49.646 262.984C49.2513 263.443 49.054 264.077 49.054 264.888C49.054 265.699 49.2567 266.333 49.662 266.792C50.0673 267.251 50.6167 267.48 51.31 267.48Z" fill="#132144"/>
<path d="M30.584 232.232C30.656 232.336 30.692 232.448 30.692 232.568C30.692 232.712 30.632 232.836 30.512 232.94C30.4 233.036 30.268 233.084 30.116 233.084C29.892 233.084 29.712 232.984 29.576 232.784L27.968 230.288C27.784 230 27.588 229.8 27.38 229.688C27.172 229.568 26.9 229.508 26.564 229.508H25.208V232.436C25.208 232.628 25.152 232.78 25.04 232.892C24.936 233.004 24.788 233.06 24.596 233.06C24.412 233.06 24.264 233.004 24.152 232.892C24.04 232.78 23.984 232.628 23.984 232.436V225.14C23.984 224.956 24.036 224.812 24.14 224.708C24.252 224.596 24.404 224.54 24.596 224.54H27.584C28.52 224.54 29.232 224.748 29.72 225.164C30.216 225.58 30.464 226.188 30.464 226.988C30.464 227.652 30.276 228.192 29.9 228.608C29.524 229.016 28.988 229.276 28.292 229.388C28.5 229.444 28.688 229.544 28.856 229.688C29.024 229.832 29.188 230.032 29.348 230.288L30.584 232.232ZM27.44 228.512C28.064 228.512 28.524 228.392 28.82 228.152C29.124 227.904 29.276 227.524 29.276 227.012C29.276 226.5 29.128 226.128 28.832 225.896C28.536 225.656 28.072 225.536 27.44 225.536H25.196V228.512H27.44ZM32.8812 233C32.6892 233 32.5372 232.948 32.4252 232.844C32.3212 232.732 32.2692 232.584 32.2692 232.4V225.14C32.2692 224.956 32.3212 224.812 32.4252 224.708C32.5372 224.596 32.6892 224.54 32.8812 224.54H37.2972C37.4812 224.54 37.6212 224.584 37.7172 224.672C37.8212 224.76 37.8732 224.884 37.8732 225.044C37.8732 225.204 37.8212 225.328 37.7172 225.416C37.6212 225.496 37.4812 225.536 37.2972 225.536H33.4812V228.2H37.0572C37.2412 228.2 37.3812 228.244 37.4772 228.332C37.5812 228.42 37.6332 228.544 37.6332 228.704C37.6332 228.864 37.5812 228.988 37.4772 229.076C37.3812 229.164 37.2412 229.208 37.0572 229.208H33.4812V232.004H37.2972C37.6812 232.004 37.8732 232.168 37.8732 232.496C37.8732 232.656 37.8212 232.78 37.7172 232.868C37.6212 232.956 37.4812 233 37.2972 233H32.8812ZM42.9375 233.096C42.1295 233.096 41.4255 232.924 40.8255 232.58C40.2255 232.228 39.7655 231.728 39.4455 231.08C39.1255 230.424 38.9655 229.652 38.9655 228.764C38.9655 227.884 39.1255 227.12 39.4455 226.472C39.7655 225.816 40.2255 225.316 40.8255 224.972C41.4255 224.62 42.1295 224.444 42.9375 224.444C43.4655 224.444 43.9655 224.528 44.4375 224.696C44.9095 224.856 45.3215 225.092 45.6735 225.404C45.8255 225.524 45.9015 225.684 45.9015 225.884C45.9015 226.028 45.8615 226.152 45.7815 226.256C45.7015 226.352 45.6055 226.4 45.4935 226.4C45.3575 226.4 45.2255 226.348 45.0975 226.244C44.7135 225.956 44.3615 225.756 44.0415 225.644C43.7295 225.524 43.3735 225.464 42.9735 225.464C42.0935 225.464 41.4175 225.748 40.9455 226.316C40.4735 226.884 40.2375 227.7 40.2375 228.764C40.2375 229.836 40.4735 230.656 40.9455 231.224C41.4175 231.792 42.0935 232.076 42.9735 232.076C43.3575 232.076 43.7055 232.016 44.0175 231.896C44.3375 231.776 44.6975 231.576 45.0975 231.296C45.2575 231.192 45.3895 231.14 45.4935 231.14C45.6055 231.14 45.7015 231.192 45.7815 231.296C45.8615 231.392 45.9015 231.512 45.9015 231.656C45.9015 231.856 45.8255 232.016 45.6735 232.136C45.3215 232.448 44.9095 232.688 44.4375 232.856C43.9655 233.016 43.4655 233.096 42.9375 233.096ZM50.7586 233.096C49.6306 233.096 48.7746 232.804 48.1906 232.22C47.6066 231.636 47.3146 230.776 47.3146 229.64V225.104C47.3146 224.912 47.3706 224.76 47.4826 224.648C47.5946 224.536 47.7426 224.48 47.9266 224.48C48.1106 224.48 48.2586 224.536 48.3706 224.648C48.4826 224.76 48.5386 224.912 48.5386 225.104V229.724C48.5386 230.5 48.7226 231.088 49.0906 231.488C49.4666 231.888 50.0226 232.088 50.7586 232.088C51.4866 232.088 52.0386 231.888 52.4146 231.488C52.7906 231.088 52.9786 230.5 52.9786 229.724V225.104C52.9786 224.92 53.0346 224.772 53.1466 224.66C53.2586 224.54 53.4066 224.48 53.5906 224.48C53.7746 224.48 53.9226 224.536 54.0346 224.648C54.1466 224.76 54.2026 224.912 54.2026 225.104V229.64C54.2026 230.768 53.9066 231.628 53.3146 232.22C52.7306 232.804 51.8786 233.096 50.7586 233.096ZM62.7051 232.232C62.7771 232.336 62.8131 232.448 62.8131 232.568C62.8131 232.712 62.7531 232.836 62.6331 232.94C62.5211 233.036 62.3891 233.084 62.2371 233.084C62.0131 233.084 61.8331 232.984 61.6971 232.784L60.0891 230.288C59.9051 230 59.7091 229.8 59.5011 229.688C59.2931 229.568 59.0211 229.508 58.6851 229.508H57.3291V232.436C57.3291 232.628 57.2731 232.78 57.1611 232.892C57.0571 233.004 56.9091 233.06 56.7171 233.06C56.5331 233.06 56.3851 233.004 56.2731 232.892C56.1611 232.78 56.1051 232.628 56.1051 232.436V225.14C56.1051 224.956 56.1571 224.812 56.2611 224.708C56.3731 224.596 56.5251 224.54 56.7171 224.54H59.7051C60.6411 224.54 61.3531 224.748 61.8411 225.164C62.3371 225.58 62.5851 226.188 62.5851 226.988C62.5851 227.652 62.3971 228.192 62.0211 228.608C61.6451 229.016 61.1091 229.276 60.4131 229.388C60.6211 229.444 60.8091 229.544 60.9771 229.688C61.1451 229.832 61.3091 230.032 61.4691 230.288L62.7051 232.232ZM59.5611 228.512C60.1851 228.512 60.6451 228.392 60.9411 228.152C61.2451 227.904 61.3971 227.524 61.3971 227.012C61.3971 226.5 61.2491 226.128 60.9531 225.896C60.6571 225.656 60.1931 225.536 59.5611 225.536H57.3171V228.512H59.5611ZM67.1628 233.096C66.5548 233.096 65.9748 233.012 65.4228 232.844C64.8788 232.676 64.4428 232.444 64.1148 232.148C63.9628 232.02 63.8868 231.856 63.8868 231.656C63.8868 231.512 63.9268 231.392 64.0068 231.296C64.0868 231.192 64.1828 231.14 64.2948 231.14C64.4068 231.14 64.5428 231.192 64.7028 231.296C65.4148 231.824 66.2268 232.088 67.1388 232.088C67.7788 232.088 68.2708 231.968 68.6148 231.728C68.9588 231.488 69.1308 231.144 69.1308 230.696C69.1308 230.344 68.9708 230.08 68.6508 229.904C68.3308 229.728 67.8188 229.56 67.1148 229.4C66.4428 229.256 65.8908 229.092 65.4588 228.908C65.0268 228.724 64.6868 228.476 64.4388 228.164C64.1988 227.844 64.0788 227.44 64.0788 226.952C64.0788 226.464 64.2108 226.032 64.4748 225.656C64.7468 225.272 65.1228 224.976 65.6028 224.768C66.0828 224.552 66.6308 224.444 67.2468 224.444C67.8148 224.444 68.3388 224.524 68.8188 224.684C69.2988 224.844 69.7068 225.08 70.0428 225.392C70.2028 225.528 70.2828 225.692 70.2828 225.884C70.2828 226.02 70.2388 226.14 70.1508 226.244C70.0708 226.348 69.9748 226.4 69.8628 226.4C69.7588 226.4 69.6268 226.348 69.4668 226.244C69.0988 225.964 68.7508 225.764 68.4228 225.644C68.1028 225.516 67.7148 225.452 67.2588 225.452C66.6428 225.452 66.1628 225.58 65.8188 225.836C65.4748 226.084 65.3028 226.432 65.3028 226.88C65.3028 227.264 65.4548 227.556 65.7588 227.756C66.0628 227.948 66.5508 228.124 67.2228 228.284C67.9268 228.444 68.4948 228.612 68.9268 228.788C69.3668 228.956 69.7148 229.192 69.9708 229.496C70.2348 229.792 70.3668 230.176 70.3668 230.648C70.3668 231.128 70.2308 231.556 69.9588 231.932C69.6948 232.3 69.3188 232.588 68.8308 232.796C68.3508 232.996 67.7948 233.096 67.1628 233.096ZM75.5263 233.096C74.7263 233.096 74.0303 232.92 73.4383 232.568C72.8543 232.216 72.4023 231.716 72.0823 231.068C71.7623 230.42 71.6023 229.656 71.6023 228.776C71.6023 227.888 71.7583 227.12 72.0703 226.472C72.3903 225.816 72.8463 225.316 73.4383 224.972C74.0303 224.62 74.7263 224.444 75.5263 224.444C76.3343 224.444 77.0343 224.62 77.6263 224.972C78.2183 225.316 78.6703 225.816 78.9823 226.472C79.3023 227.12 79.4623 227.884 79.4623 228.764C79.4623 229.644 79.3023 230.412 78.9823 231.068C78.6703 231.716 78.2183 232.216 77.6263 232.568C77.0343 232.92 76.3343 233.096 75.5263 233.096ZM75.5263 232.088C76.3743 232.088 77.0343 231.8 77.5063 231.224C77.9783 230.648 78.2143 229.828 78.2143 228.764C78.2143 227.7 77.9783 226.884 77.5063 226.316C77.0423 225.74 76.3823 225.452 75.5263 225.452C74.6863 225.452 74.0303 225.74 73.5583 226.316C73.0943 226.884 72.8623 227.7 72.8623 228.764C72.8623 229.828 73.0943 230.648 73.5583 231.224C74.0303 231.8 74.6863 232.088 75.5263 232.088ZM83.9441 233.096C83.3361 233.096 82.7561 233.012 82.2041 232.844C81.6601 232.676 81.2241 232.444 80.8961 232.148C80.7441 232.02 80.6681 231.856 80.6681 231.656C80.6681 231.512 80.7081 231.392 80.7881 231.296C80.8681 231.192 80.9641 231.14 81.0761 231.14C81.1881 231.14 81.3241 231.192 81.4841 231.296C82.1961 231.824 83.0081 232.088 83.9201 232.088C84.5601 232.088 85.0521 231.968 85.3961 231.728C85.7401 231.488 85.9121 231.144 85.9121 230.696C85.9121 230.344 85.7521 230.08 85.4321 229.904C85.1121 229.728 84.6001 229.56 83.8961 229.4C83.2241 229.256 82.6721 229.092 82.2401 228.908C81.8081 228.724 81.4681 228.476 81.2201 228.164C80.9801 227.844 80.8601 227.44 80.8601 226.952C80.8601 226.464 80.9921 226.032 81.2561 225.656C81.5281 225.272 81.9041 224.976 82.3841 224.768C82.8641 224.552 83.4121 224.444 84.0281 224.444C84.5961 224.444 85.1201 224.524 85.6001 224.684C86.0801 224.844 86.4881 225.08 86.8241 225.392C86.9841 225.528 87.0641 225.692 87.0641 225.884C87.0641 226.02 87.0201 226.14 86.9321 226.244C86.8521 226.348 86.7561 226.4 86.6441 226.4C86.5401 226.4 86.4081 226.348 86.2481 226.244C85.8801 225.964 85.5321 225.764 85.2041 225.644C84.8841 225.516 84.4961 225.452 84.0401 225.452C83.4241 225.452 82.9441 225.58 82.6001 225.836C82.2561 226.084 82.0841 226.432 82.0841 226.88C82.0841 227.264 82.2361 227.556 82.5401 227.756C82.8441 227.948 83.3321 228.124 84.0041 228.284C84.7081 228.444 85.2761 228.612 85.7081 228.788C86.1481 228.956 86.4961 229.192 86.7521 229.496C87.0161 229.792 87.1481 230.176 87.1481 230.648C87.1481 231.128 87.0121 231.556 86.7401 231.932C86.4761 232.3 86.1001 232.588 85.6121 232.796C85.1321 232.996 84.5761 233.096 83.9441 233.096Z" fill="#132144" fill-opacity="0.3"/>
<path d="M27.668 84.096C26.86 84.096 26.156 83.924 25.556 83.58C24.956 83.228 24.496 82.728 24.176 82.08C23.856 81.424 23.696 80.652 23.696 79.764C23.696 78.884 23.856 78.12 24.176 77.472C24.496 76.816 24.956 76.316 25.556 75.972C26.156 75.62 26.86 75.444 27.668 75.444C28.196 75.444 28.696 75.528 29.168 75.696C29.64 75.856 30.052 76.092 30.404 76.404C30.556 76.524 30.632 76.684 30.632 76.884C30.632 77.028 30.592 77.152 30.512 77.256C30.432 77.352 30.336 77.4 30.224 77.4C30.088 77.4 29.956 77.348 29.828 77.244C29.444 76.956 29.092 76.756 28.772 76.644C28.46 76.524 28.104 76.464 27.704 76.464C26.824 76.464 26.148 76.748 25.676 77.316C25.204 77.884 24.968 78.7 24.968 79.764C24.968 80.836 25.204 81.656 25.676 82.224C26.148 82.792 26.824 83.076 27.704 83.076C28.088 83.076 28.436 83.016 28.748 82.896C29.068 82.776 29.428 82.576 29.828 82.296C29.988 82.192 30.12 82.14 30.224 82.14C30.336 82.14 30.432 82.192 30.512 82.296C30.592 82.392 30.632 82.512 30.632 82.656C30.632 82.856 30.556 83.016 30.404 83.136C30.052 83.448 29.64 83.688 29.168 83.856C28.696 84.016 28.196 84.096 27.668 84.096ZM35.6005 84.096C34.8005 84.096 34.1045 83.92 33.5125 83.568C32.9285 83.216 32.4765 82.716 32.1565 82.068C31.8365 81.42 31.6765 80.656 31.6765 79.776C31.6765 78.888 31.8325 78.12 32.1445 77.472C32.4645 76.816 32.9205 76.316 33.5125 75.972C34.1045 75.62 34.8005 75.444 35.6005 75.444C36.4085 75.444 37.1085 75.62 37.7005 75.972C38.2925 76.316 38.7445 76.816 39.0565 77.472C39.3765 78.12 39.5365 78.884 39.5365 79.764C39.5365 80.644 39.3765 81.412 39.0565 82.068C38.7445 82.716 38.2925 83.216 37.7005 83.568C37.1085 83.92 36.4085 84.096 35.6005 84.096ZM35.6005 83.088C36.4485 83.088 37.1085 82.8 37.5805 82.224C38.0525 81.648 38.2885 80.828 38.2885 79.764C38.2885 78.7 38.0525 77.884 37.5805 77.316C37.1165 76.74 36.4565 76.452 35.6005 76.452C34.7605 76.452 34.1045 76.74 33.6325 77.316C33.1685 77.884 32.9365 78.7 32.9365 79.764C32.9365 80.828 33.1685 81.648 33.6325 82.224C34.1045 82.8 34.7605 83.088 35.6005 83.088ZM46.2023 79.644C46.6903 79.78 47.0663 80.024 47.3303 80.376C47.6023 80.728 47.7383 81.168 47.7383 81.696C47.7383 82.424 47.4863 82.992 46.9823 83.4C46.4863 83.8 45.7903 84 44.8943 84H41.8343C41.6423 84 41.4903 83.948 41.3783 83.844C41.2743 83.732 41.2223 83.584 41.2223 83.4V76.14C41.2223 75.956 41.2743 75.812 41.3783 75.708C41.4903 75.596 41.6423 75.54 41.8343 75.54H44.7623C45.6343 75.54 46.3143 75.736 46.8023 76.128C47.2983 76.512 47.5463 77.052 47.5463 77.748C47.5463 78.196 47.4263 78.584 47.1863 78.912C46.9543 79.24 46.6263 79.484 46.2023 79.644ZM42.4343 79.2H44.5703C45.7543 79.2 46.3463 78.752 46.3463 77.856C46.3463 77.408 46.1983 77.076 45.9023 76.86C45.6143 76.644 45.1703 76.536 44.5703 76.536H42.4343V79.2ZM44.7623 83.004C45.3783 83.004 45.8303 82.892 46.1183 82.668C46.4063 82.444 46.5503 82.096 46.5503 81.624C46.5503 81.144 46.4023 80.788 46.1063 80.556C45.8183 80.316 45.3703 80.196 44.7623 80.196H42.4343V83.004H44.7623ZM55.9551 83.232C56.0271 83.336 56.0631 83.448 56.0631 83.568C56.0631 83.712 56.0031 83.836 55.8831 83.94C55.7711 84.036 55.6391 84.084 55.4871 84.084C55.2631 84.084 55.0831 83.984 54.9471 83.784L53.3391 81.288C53.1551 81 52.9591 80.8 52.7511 80.688C52.5431 80.568 52.2711 80.508 51.9351 80.508H50.5791V83.436C50.5791 83.628 50.5231 83.78 50.4111 83.892C50.3071 84.004 50.1591 84.06 49.9671 84.06C49.7831 84.06 49.6351 84.004 49.5231 83.892C49.4111 83.78 49.3551 83.628 49.3551 83.436V76.14C49.3551 75.956 49.4071 75.812 49.5111 75.708C49.6231 75.596 49.7751 75.54 49.9671 75.54H52.9551C53.8911 75.54 54.6031 75.748 55.0911 76.164C55.5871 76.58 55.8351 77.188 55.8351 77.988C55.8351 78.652 55.6471 79.192 55.2711 79.608C54.8951 80.016 54.3591 80.276 53.6631 80.388C53.8711 80.444 54.0591 80.544 54.2271 80.688C54.3951 80.832 54.5591 81.032 54.7191 81.288L55.9551 83.232ZM52.8111 79.512C53.4351 79.512 53.8951 79.392 54.1911 79.152C54.4951 78.904 54.6471 78.524 54.6471 78.012C54.6471 77.5 54.4991 77.128 54.2031 76.896C53.9071 76.656 53.4431 76.536 52.8111 76.536H50.5671V79.512H52.8111ZM65.0222 83.28C65.0622 83.376 65.0822 83.456 65.0822 83.52C65.0822 83.672 65.0182 83.8 64.8902 83.904C64.7702 84.008 64.6342 84.06 64.4822 84.06C64.3782 84.06 64.2782 84.032 64.1822 83.976C64.0942 83.912 64.0262 83.824 63.9782 83.712L63.1862 81.912H58.7942L58.0022 83.712C57.9542 83.824 57.8822 83.912 57.7862 83.976C57.6902 84.032 57.5902 84.06 57.4862 84.06C57.3262 84.06 57.1822 84.008 57.0542 83.904C56.9342 83.8 56.8742 83.672 56.8742 83.52C56.8742 83.456 56.8942 83.376 56.9342 83.28L60.3182 75.876C60.3742 75.748 60.4622 75.648 60.5822 75.576C60.7102 75.504 60.8422 75.468 60.9782 75.468C61.1142 75.468 61.2422 75.504 61.3622 75.576C61.4902 75.648 61.5822 75.748 61.6382 75.876L65.0222 83.28ZM59.2382 80.928H62.7542L60.9902 76.956L59.2382 80.928ZM72.7307 75.48C72.9067 75.48 73.0467 75.54 73.1507 75.66C73.2627 75.772 73.3187 75.92 73.3187 76.104V83.436C73.3187 83.62 73.2627 83.772 73.1507 83.892C73.0387 84.004 72.8947 84.06 72.7187 84.06C72.5107 84.06 72.3507 83.98 72.2387 83.82L67.5347 77.616V83.436C67.5347 83.62 67.4787 83.772 67.3667 83.892C67.2627 84.004 67.1227 84.06 66.9467 84.06C66.7707 84.06 66.6307 84.004 66.5267 83.892C66.4227 83.78 66.3707 83.628 66.3707 83.436V76.104C66.3707 75.92 66.4267 75.772 66.5387 75.66C66.6507 75.54 66.7947 75.48 66.9707 75.48C67.1787 75.48 67.3387 75.56 67.4507 75.72L72.1547 81.936V76.104C72.1547 75.92 72.2067 75.772 72.3107 75.66C72.4147 75.54 72.5547 75.48 72.7307 75.48ZM80.5567 82.992C80.9407 82.992 81.1327 83.16 81.1327 83.496C81.1327 83.832 80.9407 84 80.5567 84H75.3007C75.1327 84 74.9967 83.952 74.8927 83.856C74.7967 83.76 74.7487 83.636 74.7487 83.484C74.7487 83.324 74.8007 83.168 74.9047 83.016L79.4767 76.548H75.3367C74.9527 76.548 74.7607 76.38 74.7607 76.044C74.7607 75.708 74.9527 75.54 75.3367 75.54H80.4367C80.6127 75.54 80.7487 75.592 80.8447 75.696C80.9487 75.792 81.0007 75.916 81.0007 76.068C81.0007 76.228 80.9487 76.376 80.8447 76.512L76.2607 82.992H80.5567ZM89.7722 83.28C89.8122 83.376 89.8322 83.456 89.8322 83.52C89.8322 83.672 89.7682 83.8 89.6402 83.904C89.5202 84.008 89.3842 84.06 89.2322 84.06C89.1282 84.06 89.0282 84.032 88.9322 83.976C88.8442 83.912 88.7762 83.824 88.7282 83.712L87.9362 81.912H83.5442L82.7522 83.712C82.7042 83.824 82.6322 83.912 82.5362 83.976C82.4402 84.032 82.3402 84.06 82.2362 84.06C82.0762 84.06 81.9322 84.008 81.8042 83.904C81.6842 83.8 81.6242 83.672 81.6242 83.52C81.6242 83.456 81.6442 83.376 81.6842 83.28L85.0682 75.876C85.1242 75.748 85.2122 75.648 85.3322 75.576C85.4602 75.504 85.5922 75.468 85.7282 75.468C85.8642 75.468 85.9922 75.504 86.1122 75.576C86.2402 75.648 86.3322 75.748 86.3882 75.876L89.7722 83.28ZM83.9882 80.928H87.5042L85.7402 76.956L83.9882 80.928ZM93.8347 84.096C93.2267 84.096 92.6467 84.012 92.0947 83.844C91.5507 83.676 91.1147 83.444 90.7867 83.148C90.6347 83.02 90.5587 82.856 90.5587 82.656C90.5587 82.512 90.5987 82.392 90.6787 82.296C90.7587 82.192 90.8547 82.14 90.9667 82.14C91.0787 82.14 91.2147 82.192 91.3747 82.296C92.0867 82.824 92.8987 83.088 93.8107 83.088C94.4507 83.088 94.9427 82.968 95.2867 82.728C95.6307 82.488 95.8027 82.144 95.8027 81.696C95.8027 81.344 95.6427 81.08 95.3227 80.904C95.0027 80.728 94.4907 80.56 93.7867 80.4C93.1147 80.256 92.5627 80.092 92.1307 79.908C91.6987 79.724 91.3587 79.476 91.1107 79.164C90.8707 78.844 90.7507 78.44 90.7507 77.952C90.7507 77.464 90.8827 77.032 91.1467 76.656C91.4187 76.272 91.7947 75.976 92.2747 75.768C92.7547 75.552 93.3027 75.444 93.9187 75.444C94.4867 75.444 95.0107 75.524 95.4907 75.684C95.9707 75.844 96.3787 76.08 96.7147 76.392C96.8747 76.528 96.9547 76.692 96.9547 76.884C96.9547 77.02 96.9107 77.14 96.8227 77.244C96.7427 77.348 96.6467 77.4 96.5347 77.4C96.4307 77.4 96.2987 77.348 96.1387 77.244C95.7707 76.964 95.4227 76.764 95.0947 76.644C94.7747 76.516 94.3867 76.452 93.9307 76.452C93.3147 76.452 92.8347 76.58 92.4907 76.836C92.1467 77.084 91.9747 77.432 91.9747 77.88C91.9747 78.264 92.1267 78.556 92.4307 78.756C92.7347 78.948 93.2227 79.124 93.8947 79.284C94.5987 79.444 95.1667 79.612 95.5987 79.788C96.0387 79.956 96.3867 80.192 96.6427 80.496C96.9067 80.792 97.0387 81.176 97.0387 81.648C97.0387 82.128 96.9027 82.556 96.6307 82.932C96.3667 83.3 95.9907 83.588 95.5027 83.796C95.0227 83.996 94.4667 84.096 93.8347 84.096Z" fill="#132144" fill-opacity="0.3"/>
<path d="M25.128 307.08C24.8827 307.08 24.6853 307.005 24.536 306.856C24.3867 306.696 24.312 306.493 24.312 306.248V296.52C24.312 296.275 24.3813 296.083 24.52 295.944C24.6693 295.795 24.872 295.72 25.128 295.72H30.856C31.368 295.72 31.624 295.944 31.624 296.392C31.624 296.84 31.368 297.064 30.856 297.064H25.944V300.6H30.536C31.048 300.6 31.304 300.824 31.304 301.272C31.304 301.72 31.048 301.944 30.536 301.944H25.944V306.248C25.944 306.504 25.8693 306.707 25.72 306.856C25.5813 307.005 25.384 307.08 25.128 307.08ZM42.2796 306.04C42.333 306.168 42.3596 306.275 42.3596 306.36C42.3596 306.563 42.2743 306.733 42.1036 306.872C41.9436 307.011 41.7623 307.08 41.5596 307.08C41.421 307.08 41.2876 307.043 41.1596 306.968C41.0423 306.883 40.9516 306.765 40.8876 306.616L39.8316 304.216H33.9756L32.9196 306.616C32.8556 306.765 32.7596 306.883 32.6316 306.968C32.5036 307.043 32.3703 307.08 32.2316 307.08C32.0183 307.08 31.8263 307.011 31.6556 306.872C31.4956 306.733 31.4156 306.563 31.4156 306.36C31.4156 306.275 31.4423 306.168 31.4956 306.04L36.0076 296.168C36.0823 295.997 36.1996 295.864 36.3596 295.768C36.5303 295.672 36.7063 295.624 36.8876 295.624C37.069 295.624 37.2396 295.672 37.3996 295.768C37.5703 295.864 37.693 295.997 37.7676 296.168L42.2796 306.04ZM34.5676 302.904H39.2556L36.9036 297.608L34.5676 302.904ZM52.5826 308.84C52.6786 309 52.7266 309.155 52.7266 309.304C52.7266 309.496 52.652 309.651 52.5026 309.768C52.3533 309.896 52.1773 309.96 51.9746 309.96C51.6333 309.96 51.3613 309.8 51.1586 309.48L50.2306 307.944C49.8893 307.4 49.3293 307.128 48.5506 307.128C47.484 307.128 46.556 306.893 45.7666 306.424C44.988 305.955 44.3853 305.288 43.9586 304.424C43.532 303.56 43.3186 302.541 43.3186 301.368C43.3186 300.184 43.5266 299.16 43.9426 298.296C44.3693 297.421 44.9773 296.755 45.7666 296.296C46.556 295.827 47.484 295.592 48.5506 295.592C49.628 295.592 50.5613 295.827 51.3506 296.296C52.14 296.755 52.7426 297.421 53.1586 298.296C53.5853 299.16 53.7986 300.179 53.7986 301.352C53.7986 302.664 53.532 303.789 52.9986 304.728C52.4653 305.656 51.7133 306.317 50.7426 306.712C51.2013 306.861 51.6013 307.219 51.9426 307.784L52.5826 308.84ZM44.9986 301.352C44.9986 302.771 45.308 303.864 45.9266 304.632C46.556 305.4 47.4306 305.784 48.5506 305.784C49.6813 305.784 50.5613 305.4 51.1906 304.632C51.82 303.864 52.1346 302.771 52.1346 301.352C52.1346 299.933 51.82 298.845 51.1906 298.088C50.572 297.32 49.692 296.936 48.5506 296.936C47.4306 296.936 46.556 297.32 45.9266 298.088C45.308 298.845 44.9986 299.933 44.9986 301.352Z" fill="#132144"/>
<path d="M833.163 40.144C832.251 40.144 831.381 40.018 830.553 39.766C829.737 39.514 829.083 39.166 828.591 38.722C828.363 38.53 828.249 38.284 828.249 37.984C828.249 37.768 828.309 37.588 828.429 37.444C828.549 37.288 828.693 37.21 828.861 37.21C829.029 37.21 829.233 37.288 829.473 37.444C830.541 38.236 831.759 38.632 833.127 38.632C834.087 38.632 834.825 38.452 835.341 38.092C835.857 37.732 836.115 37.216 836.115 36.544C836.115 36.016 835.875 35.62 835.395 35.356C834.915 35.092 834.147 34.84 833.091 34.6C832.083 34.384 831.255 34.138 830.607 33.862C829.959 33.586 829.449 33.214 829.077 32.746C828.717 32.266 828.537 31.66 828.537 30.928C828.537 30.196 828.735 29.548 829.131 28.984C829.539 28.408 830.103 27.964 830.823 27.652C831.543 27.328 832.365 27.166 833.289 27.166C834.141 27.166 834.927 27.286 835.647 27.526C836.367 27.766 836.979 28.12 837.483 28.588C837.723 28.792 837.843 29.038 837.843 29.326C837.843 29.53 837.777 29.71 837.645 29.866C837.525 30.022 837.381 30.1 837.213 30.1C837.057 30.1 836.859 30.022 836.619 29.866C836.067 29.446 835.545 29.146 835.053 28.966C834.573 28.774 833.991 28.678 833.307 28.678C832.383 28.678 831.663 28.87 831.147 29.254C830.631 29.626 830.373 30.148 830.373 30.82C830.373 31.396 830.601 31.834 831.057 32.134C831.513 32.422 832.245 32.686 833.253 32.926C834.309 33.166 835.161 33.418 835.809 33.682C836.469 33.934 836.991 34.288 837.375 34.744C837.771 35.188 837.969 35.764 837.969 36.472C837.969 37.192 837.765 37.834 837.357 38.398C836.961 38.95 836.397 39.382 835.665 39.694C834.945 39.994 834.111 40.144 833.163 40.144ZM843.854 40.126C842.99 40.126 842.228 39.94 841.568 39.568C840.92 39.196 840.416 38.668 840.056 37.984C839.708 37.288 839.534 36.484 839.534 35.572C839.534 34.648 839.708 33.844 840.056 33.16C840.416 32.464 840.92 31.93 841.568 31.558C842.228 31.186 842.99 31 843.854 31C844.718 31 845.474 31.186 846.122 31.558C846.782 31.93 847.286 32.464 847.634 33.16C847.994 33.844 848.174 34.648 848.174 35.572C848.174 36.484 847.994 37.288 847.634 37.984C847.286 38.668 846.782 39.196 846.122 39.568C845.474 39.94 844.718 40.126 843.854 40.126ZM843.854 38.686C844.658 38.686 845.27 38.422 845.69 37.894C846.122 37.366 846.338 36.592 846.338 35.572C846.338 34.564 846.122 33.796 845.69 33.268C845.258 32.728 844.646 32.458 843.854 32.458C843.062 32.458 842.45 32.728 842.018 33.268C841.586 33.796 841.37 34.564 841.37 35.572C841.37 36.592 841.58 37.366 842 37.894C842.432 38.422 843.05 38.686 843.854 38.686ZM854.303 28.696C853.703 28.744 853.259 28.936 852.971 29.272C852.683 29.596 852.539 30.076 852.539 30.712V31.216H854.321C854.573 31.216 854.765 31.282 854.897 31.414C855.041 31.534 855.113 31.702 855.113 31.918C855.113 32.134 855.041 32.308 854.897 32.44C854.765 32.56 854.573 32.62 854.321 32.62H852.539V39.208C852.539 39.496 852.449 39.718 852.269 39.874C852.101 40.018 851.885 40.09 851.621 40.09C851.357 40.09 851.141 40.018 850.973 39.874C850.805 39.718 850.721 39.496 850.721 39.208V32.62H849.641C849.389 32.62 849.191 32.56 849.047 32.44C848.915 32.308 848.849 32.134 848.849 31.918C848.849 31.702 848.915 31.534 849.047 31.414C849.191 31.282 849.389 31.216 849.641 31.216H850.721V30.982C850.721 29.878 851.003 29.014 851.567 28.39C852.131 27.754 852.929 27.4 853.961 27.328L854.429 27.292C854.813 27.268 855.089 27.31 855.257 27.418C855.437 27.526 855.527 27.7 855.527 27.94C855.527 28.36 855.275 28.6 854.771 28.66L854.303 28.696ZM858.693 40.09C858.429 40.09 858.207 40.018 858.027 39.874C857.859 39.73 857.775 39.514 857.775 39.226V31.918C857.775 31.63 857.859 31.414 858.027 31.27C858.207 31.114 858.429 31.036 858.693 31.036C858.957 31.036 859.173 31.114 859.341 31.27C859.509 31.414 859.593 31.63 859.593 31.918V39.226C859.593 39.514 859.509 39.73 859.341 39.874C859.173 40.018 858.957 40.09 858.693 40.09ZM859.071 30.028C858.975 30.112 858.861 30.154 858.729 30.154C858.597 30.154 858.477 30.106 858.369 30.01C858.273 29.914 858.225 29.8 858.225 29.668C858.225 29.548 858.267 29.44 858.351 29.344L860.295 26.806C860.535 26.482 860.811 26.32 861.123 26.32C861.351 26.32 861.543 26.398 861.699 26.554C861.855 26.71 861.933 26.896 861.933 27.112C861.933 27.388 861.789 27.646 861.501 27.886L859.071 30.028ZM865.824 31C866.988 31 867.852 31.294 868.416 31.882C868.992 32.47 869.28 33.364 869.28 34.564V39.226C869.28 39.502 869.202 39.718 869.046 39.874C868.89 40.018 868.674 40.09 868.398 40.09C868.134 40.09 867.924 40.012 867.768 39.856C867.612 39.7 867.534 39.49 867.534 39.226V38.56C867.306 39.064 866.964 39.454 866.508 39.73C866.064 39.994 865.542 40.126 864.942 40.126C864.366 40.126 863.838 40.012 863.358 39.784C862.89 39.544 862.518 39.22 862.242 38.812C861.966 38.404 861.828 37.942 861.828 37.426C861.816 36.778 861.978 36.274 862.314 35.914C862.65 35.542 863.196 35.278 863.952 35.122C864.708 34.954 865.758 34.87 867.102 34.87H867.516V34.348C867.516 33.676 867.378 33.19 867.102 32.89C866.826 32.59 866.382 32.44 865.77 32.44C865.35 32.44 864.954 32.494 864.582 32.602C864.21 32.71 863.802 32.866 863.358 33.07C863.034 33.25 862.806 33.34 862.674 33.34C862.494 33.34 862.344 33.274 862.224 33.142C862.116 33.01 862.062 32.842 862.062 32.638C862.062 32.458 862.11 32.302 862.206 32.17C862.314 32.026 862.482 31.888 862.71 31.756C863.13 31.528 863.622 31.348 864.186 31.216C864.75 31.072 865.296 31 865.824 31ZM865.266 38.776C865.926 38.776 866.466 38.554 866.886 38.11C867.306 37.654 867.516 37.072 867.516 36.364V35.896H867.192C866.256 35.896 865.536 35.938 865.032 36.022C864.528 36.106 864.168 36.25 863.952 36.454C863.736 36.646 863.628 36.928 863.628 37.3C863.628 37.732 863.784 38.086 864.096 38.362C864.408 38.638 864.798 38.776 865.266 38.776Z" fill="#7E8C9A"/>
<line y1="195.6" x2="205" y2="195.6" stroke="#E7EAF3" stroke-width="0.8"/>
<path d="M806 34C807.193 34 808.338 33.5259 809.182 32.682C810.026 31.8381 810.5 30.6935 810.5 29.5C810.5 28.3065 810.026 27.1619 809.182 26.318C808.338 25.4741 807.193 25 806 25C804.807 25 803.662 25.4741 802.818 26.318C801.974 27.1619 801.5 28.3065 801.5 29.5C801.5 30.6935 801.974 31.8381 802.818 32.682C803.662 33.5259 804.807 34 806 34V34ZM809 29.5C809 30.2956 808.684 31.0587 808.121 31.6213C807.559 32.1839 806.796 32.5 806 32.5C805.204 32.5 804.441 32.1839 803.879 31.6213C803.316 31.0587 803 30.2956 803 29.5C803 28.7044 803.316 27.9413 803.879 27.3787C804.441 26.8161 805.204 26.5 806 26.5C806.796 26.5 807.559 26.8161 808.121 27.3787C808.684 27.9413 809 28.7044 809 29.5V29.5ZM815 41.5C815 43 813.5 43 813.5 43H798.5C798.5 43 797 43 797 41.5C797 40 798.5 35.5 806 35.5C813.5 35.5 815 40 815 41.5ZM813.5 41.494C813.498 41.125 813.269 40.015 812.252 38.998C811.274 38.02 809.434 37 806 37C802.565 37 800.726 38.02 799.748 38.998C798.731 40.015 798.503 41.125 798.5 41.494H813.5Z" fill="#7E8C9A"/>
<path fill-rule="evenodd" clip-rule="evenodd" d="M75 260.375C75 260.276 74.9605 260.18 74.8902 260.11C74.8198 260.04 74.7245 260 74.625 260H70.1253C70.0258 260 69.9304 260.04 69.8601 260.11C69.7898 260.18 69.7503 260.276 69.7503 260.375C69.7503 260.474 69.7898 260.57 69.8601 260.64C69.9304 260.71 70.0258 260.75 70.1253 260.75H73.7198L66.11 268.359C66.0751 268.394 66.0474 268.435 66.0286 268.481C66.0097 268.526 66 268.575 66 268.625C66 268.674 66.0097 268.723 66.0286 268.768C66.0474 268.814 66.0751 268.855 66.11 268.89C66.1448 268.925 66.1862 268.953 66.2318 268.971C66.2773 268.99 66.3261 269 66.3755 269C66.4248 269 66.4736 268.99 66.5191 268.971C66.5647 268.953 66.6061 268.925 66.6409 268.89L74.25 261.28V264.875C74.25 264.974 74.2895 265.07 74.3599 265.14C74.4302 265.21 74.5256 265.25 74.625 265.25C74.7245 265.25 74.8198 265.21 74.8902 265.14C74.9605 265.07 75 264.974 75 264.875V260.375Z" fill="black"/>
<path fill-rule="evenodd" clip-rule="evenodd" d="M75 299.375C75 299.276 74.9605 299.18 74.8902 299.11C74.8198 299.04 74.7245 299 74.625 299H70.1253C70.0258 299 69.9304 299.04 69.8601 299.11C69.7898 299.18 69.7503 299.276 69.7503 299.375C69.7503 299.474 69.7898 299.57 69.8601 299.64C69.9304 299.71 70.0258 299.75 70.1253 299.75H73.7198L66.11 307.359C66.0751 307.394 66.0474 307.435 66.0286 307.481C66.0097 307.526 66 307.575 66 307.625C66 307.674 66.0097 307.723 66.0286 307.768C66.0474 307.814 66.0751 307.855 66.11 307.89C66.1448 307.925 66.1862 307.953 66.2318 307.971C66.2773 307.99 66.3261 308 66.3755 308C66.4248 308 66.4736 307.99 66.5191 307.971C66.5647 307.953 66.6061 307.925 66.6409 307.89L74.25 300.28V303.875C74.25 303.974 74.2895 304.07 74.3599 304.14C74.4302 304.21 74.5256 304.25 74.625 304.25C74.7245 304.25 74.8198 304.21 74.8902 304.14C74.9605 304.07 75 303.974 75 303.875V299.375Z" fill="black"/>
<path fill-rule="evenodd" clip-rule="evenodd" d="M170.168 118.09C170.221 118.062 170.284 118.039 170.353 118.023C170.423 118.008 170.497 118 170.572 118C170.647 118 170.722 118.008 170.791 118.023C170.861 118.039 170.924 118.062 170.977 118.09L177.832 121.782C177.885 121.811 177.928 121.845 177.956 121.882C177.985 121.92 178 121.96 178 122C178 122.041 177.985 122.081 177.956 122.118C177.928 122.155 177.885 122.189 177.832 122.218L170.977 125.91C170.87 125.968 170.724 126 170.572 126C170.421 126 170.275 125.968 170.168 125.91C170.061 125.852 170 125.774 170 125.692C170 125.61 170.061 125.532 170.168 125.474L176.62 122L170.168 118.526C170.115 118.497 170.072 118.463 170.044 118.426C170.015 118.389 170 118.349 170 118.308C170 118.268 170.015 118.228 170.044 118.19C170.072 118.153 170.115 118.119 170.168 118.09V118.09Z" fill="#377DFF"/>
<path fill-rule="evenodd" clip-rule="evenodd" d="M170.168 156.09C170.221 156.062 170.284 156.039 170.353 156.023C170.423 156.008 170.497 156 170.572 156C170.647 156 170.722 156.008 170.791 156.023C170.861 156.039 170.924 156.062 170.977 156.09L177.832 159.782C177.885 159.811 177.928 159.845 177.956 159.882C177.985 159.92 178 159.96 178 160C178 160.041 177.985 160.081 177.956 160.118C177.928 160.155 177.885 160.189 177.832 160.218L170.977 163.91C170.87 163.968 170.724 164 170.572 164C170.421 164 170.275 163.968 170.168 163.91C170.061 163.852 170 163.774 170 163.692C170 163.61 170.061 163.532 170.168 163.474L176.62 160L170.168 156.526C170.115 156.497 170.072 156.463 170.044 156.426C170.015 156.389 170 156.349 170 156.308C170 156.268 170.015 156.228 170.044 156.19C170.072 156.153 170.115 156.119 170.168 156.09V156.09Z" fill="#132144"/>
</svg>
