<svg width="906" height="583" viewBox="0 0 906 583" fill="none" xmlns="http://www.w3.org/2000/svg">
<path d="M0 8.00001C0 3.58173 3.58172 0 8 0H898C902.418 0 906 3.58172 906 8V574C906 578.418 902.418 582 898 582H7.99999C3.58171 582 0 578.418 0 574V8.00001Z" fill="white"/>
<path d="M0 9.00001C0 4.58173 3.58172 1 8 1H205V583H8C3.58173 583 0 579.418 0 575V9.00001Z" fill="#F9FAFC"/>
<circle cx="54.5" cy="23.5" r="5.5" fill="#61C453"/>
<circle cx="36.5" cy="23.5" r="5.5" fill="#F6BE4B"/>
<circle cx="18.5" cy="23.5" r="5.5" fill="#EF6A5F"/>
<path d="M830.178 28.5078H832.46C832.415 26.2962 830.53 24.7301 827.743 24.7301C824.994 24.7301 822.929 26.277 822.936 28.5909C822.936 30.4702 824.272 31.5504 826.426 32.1065L827.915 32.4901C829.328 32.848 830.261 33.2891 830.267 34.3054C830.261 35.424 829.2 36.1719 827.653 36.1719C826.17 36.1719 825.02 35.5071 824.924 34.1328H822.591C822.687 36.7344 824.623 38.1982 827.672 38.1982C830.811 38.1982 832.633 36.6321 832.639 34.3246C832.633 32.0554 830.76 31.0199 828.791 30.5533L827.564 30.2464C826.49 29.9908 825.326 29.5369 825.339 28.4439C825.346 27.4595 826.228 26.7372 827.711 26.7372C829.123 26.7372 830.057 27.3956 830.178 28.5078ZM838.934 38.1918C841.81 38.1918 843.638 36.1655 843.638 33.1293C843.638 30.0866 841.81 28.054 838.934 28.054C836.057 28.054 834.229 30.0866 834.229 33.1293C834.229 36.1655 836.057 38.1918 838.934 38.1918ZM838.946 36.3381C837.355 36.3381 836.575 34.919 836.575 33.1229C836.575 31.3267 837.355 29.8885 838.946 29.8885C840.512 29.8885 841.292 31.3267 841.292 33.1229C841.292 34.919 840.512 36.3381 838.946 36.3381ZM850.575 28.1818H848.536V27.4084C848.536 26.6413 848.856 26.2131 849.718 26.2131C850.083 26.2131 850.39 26.2962 850.581 26.3537L851.048 24.5639C850.748 24.4616 850.089 24.2955 849.29 24.2955C847.584 24.2955 846.222 25.2734 846.222 27.255V28.1818H844.771V29.9716H846.222V38H848.536V29.9716H850.575V28.1818ZM852.387 38H854.701V28.1818H852.387V38ZM852.662 26.8906H854.394L856.357 23.9695H854.094L852.662 26.8906ZM859.906 38.1982C861.446 38.1982 862.367 37.4759 862.789 36.6513H862.865V38H865.09V31.429C865.09 28.8338 862.974 28.054 861.101 28.054C859.036 28.054 857.451 28.9744 856.94 30.7642L859.1 31.071C859.331 30.3999 859.983 29.8246 861.114 29.8246C862.188 29.8246 862.776 30.3743 862.776 31.3395V31.3778C862.776 32.0426 862.079 32.0746 860.347 32.2599C858.442 32.4645 856.62 33.0334 856.62 35.245C856.62 37.1754 858.033 38.1982 859.906 38.1982ZM860.507 36.4979C859.541 36.4979 858.851 36.0568 858.851 35.2067C858.851 34.3182 859.625 33.9474 860.66 33.8004C861.267 33.7173 862.482 33.5639 862.782 33.321V34.478C862.782 35.571 861.9 36.4979 860.507 36.4979Z" fill="#7E8C9A"/>
<path d="M801 31C802.193 31 803.338 30.5259 804.182 29.682C805.026 28.8381 805.5 27.6935 805.5 26.5C805.5 25.3065 805.026 24.1619 804.182 23.318C803.338 22.4741 802.193 22 801 22C799.807 22 798.662 22.4741 797.818 23.318C796.974 24.1619 796.5 25.3065 796.5 26.5C796.5 27.6935 796.974 28.8381 797.818 29.682C798.662 30.5259 799.807 31 801 31V31ZM804 26.5C804 27.2956 803.684 28.0587 803.121 28.6213C802.559 29.1839 801.796 29.5 801 29.5C800.204 29.5 799.441 29.1839 798.879 28.6213C798.316 28.0587 798 27.2956 798 26.5C798 25.7044 798.316 24.9413 798.879 24.3787C799.441 23.8161 800.204 23.5 801 23.5C801.796 23.5 802.559 23.8161 803.121 24.3787C803.684 24.9413 804 25.7044 804 26.5V26.5ZM810 38.5C810 40 808.5 40 808.5 40H793.5C793.5 40 792 40 792 38.5C792 37 793.5 32.5 801 32.5C808.5 32.5 810 37 810 38.5ZM808.5 38.494C808.498 38.125 808.269 37.015 807.252 35.998C806.274 35.02 804.434 34 801 34C797.565 34 795.726 35.02 794.748 35.998C793.731 37.015 793.503 38.125 793.5 38.494H808.5Z" fill="#7E8C9A"/>
<rect x="300" y="509" width="85" height="10" rx="5" fill="#80ACFF" fill-opacity="0.3"/>
<rect x="407" y="509" width="100" height="10" rx="5" fill="#CCDEFF" fill-opacity="0.3"/>
<rect x="481" y="115" width="100" height="13" rx="6.5" fill="#CCDEFF" fill-opacity="0.2"/>
<rect x="300" y="484" width="380" height="15" rx="7.5" fill="#80ACFF" fill-opacity="0.4"/>
<circle cx="268.5" cy="506.5" r="17.5" fill="#C4C4C4" fill-opacity="0.2"/>
<rect x="300" y="414" width="85" height="10" rx="5" fill="#80ACFF" fill-opacity="0.55"/>
<rect x="407" y="414" width="100" height="10" rx="5" fill="#CCDEFF"/>
<rect x="300" y="253" width="241" height="8" rx="4" fill="#CCDEFF"/>
<rect x="300" y="389" width="330" height="15" rx="7.5" fill="#80ACFF" fill-opacity="0.6"/>
<circle cx="268.5" cy="410.5" r="17.5" fill="#C4C4C4" fill-opacity="0.6"/>
<rect x="445" y="344" width="85" height="10" rx="5" fill="#80ACFF" fill-opacity="0.4"/>
<rect x="247" y="115" width="85" height="13" rx="6.5" fill="#80ACFF" fill-opacity="0.2"/>
<rect x="355" y="115" width="100" height="13" rx="6.5" fill="#CCDEFF" fill-opacity="0.3"/>
<rect x="247" y="85" width="445" height="20" rx="8" fill="#80ACFF" fill-opacity="0.3"/>
<circle cx="268.5" cy="252.5" r="17.5" fill="#C4C4C4"/>
<line x1="268.5" y1="284" x2="268.5" y2="376" stroke="#C4C4C4" stroke-opacity="0.8"/>
<line x1="268.5" y1="439" x2="268.5" y2="484" stroke="#C4C4C4" stroke-opacity="0.8"/>
<line x1="353.999" y1="186.386" x2="833.998" y2="185.5" stroke="#C4C4C4" stroke-opacity="0.8"/>
<line x1="233.999" y1="186.685" x2="353.999" y2="186.463" stroke="#377DFF"/>
<path d="M249.323 163.364V175H250.641V166.159H250.755L254.391 175H255.664L259.3 166.159H259.414V175H260.732V163.364H259.05L255.096 173.023H254.96L251.005 163.364H249.323ZM266.921 175.182C269.285 175.182 270.876 173.386 270.876 170.682C270.876 167.955 269.285 166.159 266.921 166.159C264.558 166.159 262.967 167.955 262.967 170.682C262.967 173.386 264.558 175.182 266.921 175.182ZM266.921 173.977C265.126 173.977 264.308 172.432 264.308 170.682C264.308 168.932 265.126 167.364 266.921 167.364C268.717 167.364 269.535 168.932 269.535 170.682C269.535 172.432 268.717 173.977 266.921 173.977ZM279.746 166.273H278.292L275.883 173.227H275.792L273.383 166.273H271.928L275.156 175H276.519L279.746 166.273ZM281.516 175H282.857V166.273H281.516V175ZM282.198 164.818C282.721 164.818 283.153 164.409 283.153 163.909C283.153 163.409 282.721 163 282.198 163C281.675 163 281.244 163.409 281.244 163.909C281.244 164.409 281.675 164.818 282.198 164.818ZM285.313 175H286.654V169.545C286.654 168.267 287.586 167.364 288.631 167.364C289.648 167.364 290.359 168.028 290.359 169.023V175H291.722V169.318C291.722 168.193 292.427 167.364 293.654 167.364C294.609 167.364 295.427 167.869 295.427 169.159V175H296.768V169.159C296.768 167.108 295.665 166.159 294.109 166.159C292.859 166.159 291.944 166.733 291.495 167.636H291.404C290.972 166.705 290.211 166.159 289.063 166.159C287.927 166.159 287.086 166.705 286.722 167.636H286.609V166.273H285.313V175ZM299.219 175H300.56V166.273H299.219V175ZM299.901 164.818C300.424 164.818 300.856 164.409 300.856 163.909C300.856 163.409 300.424 163 299.901 163C299.379 163 298.947 163.409 298.947 163.909C298.947 164.409 299.379 164.818 299.901 164.818ZM306.675 175.182C308.448 175.182 309.744 174.295 310.153 172.977L308.857 172.614C308.516 173.523 307.727 173.977 306.675 173.977C305.102 173.977 304.016 172.96 303.954 171.091H310.289V170.523C310.289 167.273 308.357 166.159 306.539 166.159C304.175 166.159 302.607 168.023 302.607 170.705C302.607 173.386 304.153 175.182 306.675 175.182ZM303.954 169.932C304.045 168.574 305.005 167.364 306.539 167.364C307.994 167.364 308.925 168.455 308.925 169.932H303.954ZM313.67 169.75C313.67 168.227 314.613 167.364 315.897 167.364C317.141 167.364 317.897 168.176 317.897 169.545V175H319.238V169.455C319.238 167.227 318.05 166.159 316.283 166.159C314.965 166.159 314.147 166.75 313.738 167.636H313.624V166.273H312.329V175H313.67V169.75ZM325.484 166.273H323.62V164.182H322.279V166.273H320.961V167.409H322.279V172.864C322.279 174.386 323.506 175.114 324.643 175.114C325.143 175.114 325.461 175.023 325.643 174.955L325.37 173.75C325.256 173.773 325.075 173.818 324.779 173.818C324.188 173.818 323.62 173.636 323.62 172.5V167.409H325.484V166.273ZM330.952 175.182C333.316 175.182 334.907 173.386 334.907 170.682C334.907 167.955 333.316 166.159 330.952 166.159C328.589 166.159 326.998 167.955 326.998 170.682C326.998 173.386 328.589 175.182 330.952 175.182ZM330.952 173.977C329.157 173.977 328.339 172.432 328.339 170.682C328.339 168.932 329.157 167.364 330.952 167.364C332.748 167.364 333.566 168.932 333.566 170.682C333.566 172.432 332.748 173.977 330.952 173.977ZM343.136 168.227C342.715 166.989 341.772 166.159 340.045 166.159C338.204 166.159 336.84 167.205 336.84 168.682C336.84 169.886 337.556 170.693 339.158 171.068L340.613 171.409C341.494 171.614 341.908 172.034 341.908 172.636C341.908 173.386 341.113 174 339.863 174C338.766 174 338.079 173.528 337.84 172.591L336.567 172.909C336.88 174.392 338.102 175.182 339.886 175.182C341.914 175.182 343.295 174.074 343.295 172.568C343.295 171.352 342.533 170.585 340.977 170.205L339.681 169.886C338.647 169.631 338.181 169.284 338.181 168.614C338.181 167.864 338.977 167.318 340.045 167.318C341.215 167.318 341.698 167.966 341.931 168.568L343.136 168.227Z" fill="#377DFF"/>
<path d="M540.995 175H542.404V170.75H544.95C547.66 170.75 548.881 169.102 548.881 167.045C548.881 164.989 547.66 163.364 544.927 163.364H540.995V175ZM542.404 169.5V164.614H544.881C546.773 164.614 547.495 165.648 547.495 167.045C547.495 168.443 546.773 169.5 544.904 169.5H542.404ZM553.538 175.205C555.06 175.205 555.856 174.386 556.129 173.818H556.197V175H557.538V169.25C557.538 166.477 555.424 166.159 554.31 166.159C552.992 166.159 551.492 166.614 550.81 168.205L552.083 168.659C552.379 168.023 553.077 167.341 554.356 167.341C555.589 167.341 556.197 167.994 556.197 169.114V169.159C556.197 169.807 555.538 169.75 553.947 169.955C552.327 170.165 550.56 170.523 550.56 172.523C550.56 174.227 551.879 175.205 553.538 175.205ZM553.742 174C552.674 174 551.901 173.523 551.901 172.591C551.901 171.568 552.833 171.25 553.879 171.114C554.447 171.045 555.969 170.886 556.197 170.614V171.841C556.197 172.932 555.333 174 553.742 174ZM563.508 178.455C565.599 178.455 567.281 177.5 567.281 175.25V166.273H565.985V167.659H565.849C565.553 167.205 565.008 166.159 563.303 166.159C561.099 166.159 559.576 167.909 559.576 170.591C559.576 173.318 561.167 174.864 563.281 174.864C564.985 174.864 565.531 173.864 565.826 173.386H565.94V175.159C565.94 176.614 564.917 177.273 563.508 177.273C561.923 177.273 561.366 176.438 561.008 175.955L559.94 176.705C560.485 177.619 561.559 178.455 563.508 178.455ZM563.462 173.659C561.781 173.659 560.917 172.386 560.917 170.568C560.917 168.795 561.758 167.364 563.462 167.364C565.099 167.364 565.962 168.682 565.962 170.568C565.962 172.5 565.076 173.659 563.462 173.659ZM573.281 175.182C575.644 175.182 577.235 173.386 577.235 170.682C577.235 167.955 575.644 166.159 573.281 166.159C570.917 166.159 569.326 167.955 569.326 170.682C569.326 173.386 570.917 175.182 573.281 175.182ZM573.281 173.977C571.485 173.977 570.667 172.432 570.667 170.682C570.667 168.932 571.485 167.364 573.281 167.364C575.076 167.364 575.894 168.932 575.894 170.682C575.894 172.432 575.076 173.977 573.281 173.977ZM585.464 168.227C585.043 166.989 584.1 166.159 582.373 166.159C580.532 166.159 579.168 167.205 579.168 168.682C579.168 169.886 579.884 170.693 581.487 171.068L582.941 171.409C583.822 171.614 584.237 172.034 584.237 172.636C584.237 173.386 583.441 174 582.191 174C581.094 174 580.407 173.528 580.168 172.591L578.896 172.909C579.208 174.392 580.43 175.182 582.214 175.182C584.242 175.182 585.623 174.074 585.623 172.568C585.623 171.352 584.862 170.585 583.305 170.205L582.009 169.886C580.975 169.631 580.509 169.284 580.509 168.614C580.509 167.864 581.305 167.318 582.373 167.318C583.543 167.318 584.026 167.966 584.259 168.568L585.464 168.227Z" fill="#132144"/>
<path d="M401.621 163.364H400.234V172.523H400.121L393.757 163.364H392.393V175H393.803V165.864H393.916L400.257 175H401.621V163.364ZM407.804 175.182C410.168 175.182 411.759 173.386 411.759 170.682C411.759 167.955 410.168 166.159 407.804 166.159C405.44 166.159 403.849 167.955 403.849 170.682C403.849 173.386 405.44 175.182 407.804 175.182ZM407.804 173.977C406.009 173.977 405.19 172.432 405.19 170.682C405.19 168.932 406.009 167.364 407.804 167.364C409.599 167.364 410.418 168.932 410.418 170.682C410.418 172.432 409.599 173.977 407.804 173.977ZM417.601 166.273H415.737V164.182H414.396V166.273H413.078V167.409H414.396V172.864C414.396 174.386 415.624 175.114 416.76 175.114C417.26 175.114 417.578 175.023 417.76 174.955L417.487 173.75C417.374 173.773 417.192 173.818 416.896 173.818C416.305 173.818 415.737 173.636 415.737 172.5V167.409H417.601V166.273ZM419.618 175H420.959V166.273H419.618V175ZM420.3 164.818C420.822 164.818 421.254 164.409 421.254 163.909C421.254 163.409 420.822 163 420.3 163C419.777 163 419.345 163.409 419.345 163.909C419.345 164.409 419.777 164.818 420.3 164.818ZM427.301 166.273H425.347V165.386C425.347 164.523 425.71 164.068 426.597 164.068C426.983 164.068 427.21 164.159 427.347 164.205L427.733 163.045C427.528 162.955 427.119 162.818 426.46 162.818C425.21 162.818 424.006 163.568 424.006 165.068V166.273H422.597V167.409H424.006V175H425.347V167.409H427.301V166.273ZM429.18 175H430.521V166.273H429.18V175ZM429.862 164.818C430.385 164.818 430.817 164.409 430.817 163.909C430.817 163.409 430.385 163 429.862 163C429.339 163 428.908 163.409 428.908 163.909C428.908 164.409 429.339 164.818 429.862 164.818ZM436.523 175.182C438.455 175.182 439.727 174 439.955 172.455H438.614C438.364 173.409 437.568 173.977 436.523 173.977C434.932 173.977 433.909 172.659 433.909 170.636C433.909 168.659 434.955 167.364 436.523 167.364C437.705 167.364 438.409 168.091 438.614 168.886H439.955C439.727 167.25 438.341 166.159 436.5 166.159C434.136 166.159 432.568 168.023 432.568 170.682C432.568 173.295 434.068 175.182 436.523 175.182ZM444.483 175.205C446.006 175.205 446.801 174.386 447.074 173.818H447.142V175H448.483V169.25C448.483 166.477 446.369 166.159 445.256 166.159C443.938 166.159 442.438 166.614 441.756 168.205L443.028 168.659C443.324 168.023 444.023 167.341 445.301 167.341C446.534 167.341 447.142 167.994 447.142 169.114V169.159C447.142 169.807 446.483 169.75 444.892 169.955C443.273 170.165 441.506 170.523 441.506 172.523C441.506 174.227 442.824 175.205 444.483 175.205ZM444.688 174C443.619 174 442.847 173.523 442.847 172.591C442.847 171.568 443.778 171.25 444.824 171.114C445.392 171.045 446.915 170.886 447.142 170.614V171.841C447.142 172.932 446.278 174 444.688 174ZM454.476 175.182C456.408 175.182 457.68 174 457.908 172.455H456.567C456.317 173.409 455.521 173.977 454.476 173.977C452.885 173.977 451.862 172.659 451.862 170.636C451.862 168.659 452.908 167.364 454.476 167.364C455.658 167.364 456.362 168.091 456.567 168.886H457.908C457.68 167.25 456.294 166.159 454.453 166.159C452.089 166.159 450.521 168.023 450.521 170.682C450.521 173.295 452.021 175.182 454.476 175.182ZM459.868 175H461.209V166.273H459.868V175ZM460.55 164.818C461.072 164.818 461.504 164.409 461.504 163.909C461.504 163.409 461.072 163 460.55 163C460.027 163 459.595 163.409 459.595 163.909C459.595 164.409 460.027 164.818 460.55 164.818ZM467.21 175.182C469.574 175.182 471.165 173.386 471.165 170.682C471.165 167.955 469.574 166.159 467.21 166.159C464.847 166.159 463.256 167.955 463.256 170.682C463.256 173.386 464.847 175.182 467.21 175.182ZM467.21 173.977C465.415 173.977 464.597 172.432 464.597 170.682C464.597 168.932 465.415 167.364 467.21 167.364C469.006 167.364 469.824 168.932 469.824 170.682C469.824 172.432 469.006 173.977 467.21 173.977ZM474.553 169.75C474.553 168.227 475.496 167.364 476.78 167.364C478.024 167.364 478.78 168.176 478.78 169.545V175H480.121V169.455C480.121 167.227 478.933 166.159 477.166 166.159C475.848 166.159 475.03 166.75 474.621 167.636H474.507V166.273H473.212V175H474.553V169.75ZM486.23 175.182C488.003 175.182 489.298 174.295 489.707 172.977L488.412 172.614C488.071 173.523 487.281 173.977 486.23 173.977C484.656 173.977 483.571 172.96 483.509 171.091H489.844V170.523C489.844 167.273 487.912 166.159 486.094 166.159C483.73 166.159 482.162 168.023 482.162 170.705C482.162 173.386 483.707 175.182 486.23 175.182ZM483.509 169.932C483.599 168.574 484.56 167.364 486.094 167.364C487.548 167.364 488.48 168.455 488.48 169.932H483.509ZM498.065 168.227C497.645 166.989 496.702 166.159 494.974 166.159C493.134 166.159 491.77 167.205 491.77 168.682C491.77 169.886 492.486 170.693 494.088 171.068L495.543 171.409C496.423 171.614 496.838 172.034 496.838 172.636C496.838 173.386 496.043 174 494.793 174C493.696 174 493.009 173.528 492.77 172.591L491.497 172.909C491.81 174.392 493.031 175.182 494.815 175.182C496.844 175.182 498.224 174.074 498.224 172.568C498.224 171.352 497.463 170.585 495.906 170.205L494.611 169.886C493.577 169.631 493.111 169.284 493.111 168.614C493.111 167.864 493.906 167.318 494.974 167.318C496.145 167.318 496.628 167.966 496.861 168.568L498.065 168.227Z" fill="#132144"/>
<path d="M313.388 228.455H310.767V238.369H310.639L303.793 228.455H301.435V243H304.07V233.092H304.19L311.044 243H313.388V228.455ZM323.098 238.412C323.098 240.074 321.912 240.898 320.776 240.898C319.54 240.898 318.716 240.024 318.716 238.639V232.091H316.145V239.037C316.145 241.658 317.637 243.142 319.782 243.142C321.415 243.142 322.566 242.283 323.063 241.061H323.176V243H325.669V232.091H323.098V238.412ZM333.143 243.213C335.685 243.213 337.433 241.97 337.887 240.074L335.487 239.804C335.138 240.727 334.286 241.21 333.178 241.21C331.516 241.21 330.415 240.116 330.394 238.249H337.994V237.46C337.994 233.632 335.692 231.949 333.008 231.949C329.883 231.949 327.844 234.243 327.844 237.609C327.844 241.033 329.854 243.213 333.143 243.213ZM330.401 236.516C330.479 235.124 331.509 233.952 333.043 233.952C334.521 233.952 335.515 235.031 335.529 236.516H330.401ZM349.6 232.091H346.866L344.352 240.195H344.238L341.731 232.091H338.99L342.875 243H345.716L349.6 232.091ZM354.206 243.22C355.918 243.22 356.941 242.418 357.409 241.501H357.495V243H359.966V235.699C359.966 232.815 357.615 231.949 355.534 231.949C353.24 231.949 351.479 232.972 350.911 234.96L353.311 235.301C353.567 234.555 354.292 233.916 355.549 233.916C356.742 233.916 357.395 234.527 357.395 235.599V235.642C357.395 236.381 356.621 236.416 354.696 236.622C352.58 236.849 350.556 237.482 350.556 239.939C350.556 242.084 352.125 243.22 354.206 243.22ZM354.874 241.331C353.801 241.331 353.034 240.841 353.034 239.896C353.034 238.909 353.894 238.497 355.044 238.334C355.719 238.241 357.069 238.071 357.402 237.801V239.087C357.402 240.301 356.422 241.331 354.874 241.331ZM367.512 243H370.083V236.587C370.083 235.202 371.127 234.222 372.541 234.222C372.974 234.222 373.514 234.3 373.734 234.371V232.006C373.5 231.963 373.095 231.935 372.811 231.935C371.561 231.935 370.517 232.645 370.119 233.909H370.005V232.091H367.512V243ZM379.822 243.213C382.365 243.213 384.112 241.97 384.567 240.074L382.166 239.804C381.818 240.727 380.966 241.21 379.858 241.21C378.196 241.21 377.095 240.116 377.074 238.249H384.673V237.46C384.673 233.632 382.372 231.949 379.688 231.949C376.562 231.949 374.524 234.243 374.524 237.609C374.524 241.033 376.534 243.213 379.822 243.213ZM377.081 236.516C377.159 235.124 378.189 233.952 379.723 233.952C381.2 233.952 382.195 235.031 382.209 236.516H377.081ZM395.471 234.974C395.115 233.128 393.638 231.949 391.081 231.949C388.453 231.949 386.664 233.241 386.671 235.259C386.664 236.849 387.644 237.901 389.739 238.334L391.6 238.724C392.601 238.945 393.07 239.349 393.07 239.967C393.07 240.713 392.26 241.274 391.039 241.274C389.86 241.274 389.093 240.763 388.873 239.783L386.365 240.024C386.685 242.027 388.368 243.213 391.046 243.213C393.773 243.213 395.698 241.8 395.705 239.733C395.698 238.178 394.696 237.226 392.637 236.778L390.776 236.381C389.668 236.132 389.228 235.749 389.235 235.116C389.228 234.378 390.044 233.866 391.117 233.866C392.303 233.866 392.928 234.513 393.127 235.23L395.471 234.974ZM402.583 243.213C405.779 243.213 407.811 240.962 407.811 237.588C407.811 234.207 405.779 231.949 402.583 231.949C399.387 231.949 397.356 234.207 397.356 237.588C397.356 240.962 399.387 243.213 402.583 243.213ZM402.598 241.153C400.829 241.153 399.963 239.577 399.963 237.581C399.963 235.585 400.829 233.987 402.598 233.987C404.338 233.987 405.204 235.585 405.204 237.581C405.204 239.577 404.338 241.153 402.598 241.153ZM412.564 228.455H409.993V243H412.564V228.455ZM422.161 238.412C422.161 240.074 420.975 240.898 419.838 240.898C418.603 240.898 417.779 240.024 417.779 238.639V232.091H415.208V239.037C415.208 241.658 416.699 243.142 418.844 243.142C420.478 243.142 421.628 242.283 422.125 241.061H422.239V243H424.732V232.091H422.161V238.412ZM432.134 243.213C434.876 243.213 436.623 241.587 436.808 239.271H434.35C434.13 240.443 433.285 241.118 432.156 241.118C430.55 241.118 429.513 239.776 429.513 237.545C429.513 235.344 430.572 234.023 432.156 234.023C433.391 234.023 434.151 234.818 434.35 235.869H436.808C436.63 233.504 434.783 231.949 432.12 231.949C428.924 231.949 426.907 234.257 426.907 237.588C426.907 240.891 428.874 243.213 432.134 243.213ZM438.919 243H441.49V232.091H438.919V243ZM440.211 230.543C441.028 230.543 441.696 229.918 441.696 229.151C441.696 228.376 441.028 227.751 440.211 227.751C439.387 227.751 438.72 228.376 438.72 229.151C438.72 229.918 439.387 230.543 440.211 230.543ZM448.892 243.213C452.088 243.213 454.119 240.962 454.119 237.588C454.119 234.207 452.088 231.949 448.892 231.949C445.696 231.949 443.665 234.207 443.665 237.588C443.665 240.962 445.696 243.213 448.892 243.213ZM448.906 241.153C447.138 241.153 446.271 239.577 446.271 237.581C446.271 235.585 447.138 233.987 448.906 233.987C450.646 233.987 451.513 235.585 451.513 237.581C451.513 239.577 450.646 241.153 448.906 241.153ZM447.905 230.656H449.83L452.01 227.411H449.496L447.905 230.656ZM458.873 236.608C458.873 235.031 459.824 234.122 461.181 234.122C462.509 234.122 463.304 234.996 463.304 236.452V243H465.875V236.054C465.882 233.44 464.391 231.949 462.14 231.949C460.506 231.949 459.384 232.73 458.887 233.945H458.759V232.091H456.301V243H458.873V236.608ZM477.498 243.192C479.373 243.192 480.218 242.077 480.623 241.281H480.779V243H483.308V228.455H480.73V233.895H480.623C480.233 233.107 479.43 231.949 477.505 231.949C474.984 231.949 473.002 233.923 473.002 237.56C473.002 241.153 474.927 243.192 477.498 243.192ZM478.216 241.082C476.518 241.082 475.623 239.591 475.623 237.545C475.623 235.514 476.504 234.058 478.216 234.058C479.87 234.058 480.779 235.429 480.779 237.545C480.779 239.662 479.856 241.082 478.216 241.082ZM490.877 243.213C493.42 243.213 495.167 241.97 495.621 240.074L493.221 239.804C492.873 240.727 492.021 241.21 490.913 241.21C489.251 241.21 488.15 240.116 488.129 238.249H495.728V237.46C495.728 233.632 493.427 231.949 490.742 231.949C487.617 231.949 485.579 234.243 485.579 237.609C485.579 241.033 487.589 243.213 490.877 243.213ZM488.136 236.516C488.214 235.124 489.244 233.952 490.778 233.952C492.255 233.952 493.249 235.031 493.263 236.516H488.136ZM500.474 228.455H497.903V243H500.474V228.455ZM513.931 228.455V238.682C513.924 240.216 513.214 241.033 511.95 241.033C510.771 241.033 509.982 240.315 509.961 239.136H507.34C507.34 241.821 509.3 243.199 511.85 243.199C514.656 243.199 516.538 241.494 516.545 238.682V228.455H513.931ZM526.243 238.412C526.243 240.074 525.057 240.898 523.92 240.898C522.685 240.898 521.861 240.024 521.861 238.639V232.091H519.29V239.037C519.29 241.658 520.781 243.142 522.926 243.142C524.56 243.142 525.71 242.283 526.207 241.061H526.321V243H528.814V232.091H526.243V238.412ZM531.316 243H540.272V240.869H534.732V240.777L540.087 233.845V232.091H531.5V234.222H536.941V234.314L531.316 241.366V243ZM547.12 247.318C550.067 247.318 552.241 245.969 552.241 243.178V232.091H549.705V233.895H549.563C549.173 233.107 548.356 231.949 546.431 231.949C543.91 231.949 541.928 233.923 541.928 237.51C541.928 241.068 543.91 242.844 546.424 242.844C548.292 242.844 549.165 241.842 549.563 241.04H549.691V243.107C549.691 244.712 548.626 245.372 547.163 245.372C545.614 245.372 544.933 244.641 544.62 244.001L542.305 244.562C542.773 246.089 544.343 247.318 547.12 247.318ZM547.141 240.827C545.444 240.827 544.549 239.506 544.549 237.496C544.549 235.514 545.43 234.058 547.141 234.058C548.796 234.058 549.705 235.429 549.705 237.496C549.705 239.577 548.782 240.827 547.141 240.827ZM558.015 243.22C559.727 243.22 560.749 242.418 561.218 241.501H561.303V243H563.775V235.699C563.775 232.815 561.424 231.949 559.343 231.949C557.049 231.949 555.288 232.972 554.719 234.96L557.12 235.301C557.376 234.555 558.1 233.916 559.357 233.916C560.55 233.916 561.204 234.527 561.204 235.599V235.642C561.204 236.381 560.43 236.416 558.505 236.622C556.388 236.849 554.364 237.482 554.364 239.939C554.364 242.084 555.934 243.22 558.015 243.22ZM558.683 241.331C557.61 241.331 556.843 240.841 556.843 239.896C556.843 238.909 557.702 238.497 558.853 238.334C559.528 238.241 560.877 238.071 561.211 237.801V239.087C561.211 240.301 560.231 241.331 558.683 241.331ZM570.408 243.192C572.283 243.192 573.129 242.077 573.533 241.281H573.69V243H576.218V228.455H573.64V233.895H573.533C573.143 233.107 572.34 231.949 570.415 231.949C567.894 231.949 565.913 233.923 565.913 237.56C565.913 241.153 567.837 243.192 570.408 243.192ZM571.126 241.082C569.428 241.082 568.533 239.591 568.533 237.545C568.533 235.514 569.414 234.058 571.126 234.058C572.781 234.058 573.69 235.429 573.69 237.545C573.69 239.662 572.766 241.082 571.126 241.082ZM583.716 243.213C586.912 243.213 588.944 240.962 588.944 237.588C588.944 234.207 586.912 231.949 583.716 231.949C580.52 231.949 578.489 234.207 578.489 237.588C578.489 240.962 580.52 243.213 583.716 243.213ZM583.73 241.153C581.962 241.153 581.096 239.577 581.096 237.581C581.096 235.585 581.962 233.987 583.73 233.987C585.471 233.987 586.337 235.585 586.337 237.581C586.337 239.577 585.471 241.153 583.73 241.153Z" fill="black"/>
<path d="M301.905 354H308.885V352.459H304.45V352.389L306.205 350.604C308.184 348.705 308.731 347.781 308.731 346.632C308.731 344.927 307.344 343.679 305.295 343.679C303.277 343.679 301.845 344.932 301.845 346.866H303.6C303.6 345.827 304.256 345.175 305.271 345.175C306.24 345.175 306.961 345.767 306.961 346.727C306.961 347.577 306.444 348.183 305.44 349.202L301.905 352.668V354ZM314.364 354.194C316.82 354.199 318.286 352.26 318.286 348.919C318.286 345.598 316.81 343.679 314.364 343.679C311.918 343.679 310.446 345.593 310.441 348.919C310.441 352.255 311.908 354.194 314.364 354.194ZM314.364 352.638C313.096 352.638 312.3 351.365 312.305 348.919C312.31 346.493 313.101 345.215 314.364 345.215C315.631 345.215 316.422 346.493 316.427 348.919C316.427 351.365 315.636 352.638 314.364 352.638ZM326.96 354C330.063 354 331.902 352.081 331.902 348.899C331.902 345.727 330.063 343.818 327.03 343.818H323.51V354H326.96ZM325.355 352.404V345.414H326.926C328.994 345.414 330.073 346.567 330.073 348.899C330.073 351.241 328.994 352.404 326.871 352.404H325.355ZM333.575 354H335.375V346.364H333.575V354ZM334.48 345.28C335.052 345.28 335.519 344.842 335.519 344.305C335.519 343.763 335.052 343.326 334.48 343.326C333.903 343.326 333.436 343.763 333.436 344.305C333.436 344.842 333.903 345.28 334.48 345.28ZM340.556 354.149C342.475 354.149 343.699 353.011 343.828 351.39H342.108C341.953 352.21 341.362 352.683 340.571 352.683C339.448 352.683 338.722 351.743 338.722 350.182C338.722 348.641 339.463 347.716 340.571 347.716C341.436 347.716 341.968 348.273 342.108 349.009H343.828C343.703 347.353 342.411 346.264 340.547 346.264C338.309 346.264 336.897 347.88 336.897 350.212C336.897 352.523 338.275 354.149 340.556 354.149ZM345.306 354H347.105V346.364H345.306V354ZM346.21 345.28C346.782 345.28 347.249 344.842 347.249 344.305C347.249 343.763 346.782 343.326 346.21 343.326C345.634 343.326 345.166 343.763 345.166 344.305C345.166 344.842 345.634 345.28 346.21 345.28ZM352.337 354.149C354.116 354.149 355.339 353.279 355.658 351.952L353.977 351.763C353.734 352.409 353.137 352.747 352.362 352.747C351.198 352.747 350.428 351.982 350.413 350.674H355.732V350.122C355.732 347.442 354.121 346.264 352.242 346.264C350.055 346.264 348.628 347.87 348.628 350.227C348.628 352.623 350.035 354.149 352.337 354.149ZM350.418 349.461C350.472 348.487 351.193 347.666 352.267 347.666C353.301 347.666 353.997 348.422 354.007 349.461H350.418ZM357.255 354H359.055V349.357C359.055 348.417 359.681 347.781 360.456 347.781C361.217 347.781 361.739 348.293 361.739 349.078V354H363.504V349.237C363.504 348.377 364.016 347.781 364.886 347.781C365.612 347.781 366.189 348.208 366.189 349.153V354H367.993V348.874C367.993 347.169 367.009 346.264 365.607 346.264C364.498 346.264 363.653 346.811 363.315 347.661H363.236C362.942 346.796 362.202 346.264 361.172 346.264C360.148 346.264 359.383 346.791 359.064 347.661H358.975V346.364H357.255V354ZM369.899 354H371.669V352.797H371.773C372.056 353.354 372.648 354.134 373.961 354.134C375.76 354.134 377.108 352.707 377.108 350.192C377.108 347.646 375.721 346.264 373.956 346.264C372.608 346.264 372.047 347.075 371.773 347.626H371.699V343.818H369.899V354ZM371.664 350.182C371.664 348.7 372.3 347.741 373.458 347.741C374.657 347.741 375.273 348.76 375.273 350.182C375.273 351.614 374.647 352.658 373.458 352.658C372.31 352.658 371.664 351.663 371.664 350.182ZM378.638 354H380.437V349.511C380.437 348.541 381.168 347.855 382.157 347.855C382.461 347.855 382.839 347.91 382.993 347.96V346.304C382.829 346.274 382.545 346.254 382.346 346.254C381.471 346.254 380.741 346.751 380.462 347.636H380.383V346.364H378.638V354ZM387.255 354.149C389.034 354.149 390.257 353.279 390.576 351.952L388.895 351.763C388.652 352.409 388.055 352.747 387.279 352.747C386.116 352.747 385.346 351.982 385.331 350.674H390.65V350.122C390.65 347.442 389.039 346.264 387.16 346.264C384.973 346.264 383.546 347.87 383.546 350.227C383.546 352.623 384.953 354.149 387.255 354.149ZM385.336 349.461C385.39 348.487 386.111 347.666 387.185 347.666C388.219 347.666 388.915 348.422 388.925 349.461H385.336ZM395.626 354H402.606V352.459H398.171V352.389L399.926 350.604C401.905 348.705 402.452 347.781 402.452 346.632C402.452 344.927 401.064 343.679 399.016 343.679C396.998 343.679 395.566 344.932 395.566 346.866H397.321C397.321 345.827 397.977 345.175 398.991 345.175C399.961 345.175 400.682 345.767 400.682 346.727C400.682 347.577 400.165 348.183 399.16 349.202L395.626 352.668V354ZM408.084 354.194C410.54 354.199 412.007 352.26 412.007 348.919C412.007 345.598 410.53 343.679 408.084 343.679C405.638 343.679 404.167 345.593 404.162 348.919C404.162 352.255 405.628 354.194 408.084 354.194ZM408.084 352.638C406.817 352.638 406.021 351.365 406.026 348.919C406.031 346.493 406.822 345.215 408.084 345.215C409.352 345.215 410.143 346.493 410.148 348.919C410.148 351.365 409.357 352.638 408.084 352.638ZM413.659 354H420.639V352.459H416.204V352.389L417.959 350.604C419.938 348.705 420.485 347.781 420.485 346.632C420.485 344.927 419.098 343.679 417.049 343.679C415.031 343.679 413.599 344.932 413.599 346.866H415.354C415.354 345.827 416.01 345.175 417.025 345.175C417.994 345.175 418.715 345.767 418.715 346.727C418.715 347.577 418.198 348.183 417.194 349.202L413.659 352.668V354ZM422.354 354H429.334V352.459H424.9V352.389L426.654 350.604C428.633 348.705 429.18 347.781 429.18 346.632C429.18 344.927 427.793 343.679 425.745 343.679C423.726 343.679 422.294 344.932 422.294 346.866H424.049C424.049 345.827 424.706 345.175 425.72 345.175C426.689 345.175 427.41 345.767 427.41 346.727C427.41 347.577 426.893 348.183 425.889 349.202L422.354 352.668V354Z" fill="black" fill-opacity="0.5"/>
<path d="M319.067 282.003C316.841 282.003 315 283.752 315 285.932V316.069C315 318.22 316.811 319.997 319.067 319.997H342.935C345.161 319.997 347.002 318.248 347.002 316.069V291.265C347.002 291.265 347.061 290.548 346.734 289.831C346.438 289.172 345.933 288.713 345.933 288.713L340.025 283.093C340.025 283.093 339.521 282.634 338.779 282.319C337.888 281.946 336.997 282.003 336.997 282.003H319.067Z" fill="#FF2116"/>
<path d="M319.067 283.294H336.968C336.968 283.294 337.68 283.294 338.214 283.523C338.719 283.724 339.075 284.039 339.075 284.039L344.983 289.631C344.983 289.631 345.339 290.003 345.517 290.376C345.666 290.692 345.666 291.236 345.666 291.236V291.265V316.098C345.666 317.56 344.449 318.736 342.935 318.736H319.067C317.553 318.736 316.336 317.56 316.336 316.098V285.932C316.336 284.469 317.553 283.294 319.067 283.294Z" fill="#F5F5F5"/>
<path d="M322.986 304.656C322.065 303.767 323.075 302.563 325.746 301.244L327.439 300.441L328.092 299.036C328.448 298.262 329.012 297 329.309 296.255L329.843 294.878L329.457 293.846C328.982 292.584 328.834 290.692 329.131 290.003C329.517 289.086 330.823 289.172 331.327 290.176C331.743 290.95 331.684 292.355 331.209 294.133L330.823 295.595L331.179 296.169C331.357 296.484 331.921 297.23 332.396 297.803L333.316 298.893L334.444 298.749C338.066 298.291 339.283 299.065 339.283 300.183C339.283 301.588 336.433 301.703 334.059 300.097C333.524 299.724 333.168 299.38 333.168 299.38C333.168 299.38 331.684 299.667 330.941 299.868C330.17 300.068 329.813 300.183 328.685 300.556C328.685 300.556 328.299 301.101 328.032 301.502C327.082 302.993 325.984 304.198 325.182 304.656C324.381 305.058 323.461 305.086 322.986 304.656ZM324.44 304.14C324.945 303.825 326.014 302.649 326.726 301.531L327.023 301.072L325.687 301.732C323.639 302.735 322.689 303.681 323.164 304.255C323.431 304.57 323.787 304.542 324.44 304.14ZM337.829 300.527C338.333 300.183 338.274 299.495 337.68 299.208C337.235 298.979 336.879 298.95 335.721 298.95C335.008 299.007 333.88 299.122 333.673 299.179C333.673 299.179 334.296 299.61 334.563 299.753C334.919 299.954 335.84 300.326 336.493 300.527C337.146 300.728 337.532 300.728 337.829 300.527ZM332.426 298.348C332.129 298.032 331.595 297.402 331.268 296.914C330.823 296.369 330.615 295.997 330.615 295.997C330.615 295.997 330.288 296.971 330.051 297.574L329.249 299.495L329.012 299.925C329.012 299.925 330.259 299.524 330.882 299.38C331.565 299.208 332.901 298.95 332.901 298.95L332.426 298.348ZM330.704 291.638C330.793 291.007 330.823 290.376 330.615 290.061C330.021 289.459 329.338 289.946 329.457 291.409C329.487 291.896 329.635 292.756 329.784 293.272L330.081 294.219L330.288 293.502C330.407 293.129 330.585 292.269 330.704 291.638Z" fill="#FF2116"/>
<path d="M324.559 308.757H326.043C326.518 308.757 326.904 308.814 327.201 308.9C327.498 308.986 327.735 309.187 327.943 309.474C328.151 309.761 328.24 310.133 328.24 310.535C328.24 310.908 328.151 311.252 328.003 311.51C327.824 311.796 327.617 311.997 327.349 312.112C327.082 312.227 326.637 312.284 326.073 312.284H325.568V314.549H324.559V308.757ZM325.568 309.502V311.538H326.073C326.518 311.538 326.815 311.452 326.993 311.309C327.171 311.137 327.26 310.879 327.26 310.535C327.26 310.277 327.201 310.047 327.082 309.875C326.964 309.703 326.845 309.617 326.726 309.56C326.607 309.531 326.37 309.502 326.103 309.502H325.568Z" fill="#2C2C2C"/>
<path d="M329.042 308.757H330.407C331.06 308.757 331.595 308.872 331.98 309.101C332.366 309.33 332.663 309.646 332.871 310.105C333.079 310.535 333.168 311.051 333.168 311.567C333.168 312.141 333.079 312.657 332.901 313.087C332.723 313.517 332.455 313.89 332.069 314.148C331.713 314.435 331.179 314.549 330.466 314.549H329.042V308.757ZM330.021 309.531V313.804H330.437C331.03 313.804 331.446 313.603 331.713 313.23C331.98 312.829 332.099 312.313 332.099 311.682C332.099 310.248 331.535 309.531 330.437 309.531H330.021Z" fill="#2C2C2C"/>
<path d="M334.118 308.757H337.472V309.531H335.127V311.28H336.997V312.055H335.127V314.578H334.118V308.757Z" fill="#2C2C2C"/>
<path d="M371.067 282.003C368.841 282.003 367 283.752 367 285.932V316.069C367 318.22 368.811 319.997 371.067 319.997H394.935C397.161 319.997 399.002 318.248 399.002 316.069V291.265C399.002 291.265 399.061 290.548 398.734 289.831C398.438 289.172 397.933 288.713 397.933 288.713L392.025 283.093C392.025 283.093 391.521 282.634 390.779 282.319C389.888 281.946 388.997 282.003 388.997 282.003H371.067Z" fill="#FF2116"/>
<path d="M371.067 283.294H388.968C388.968 283.294 389.68 283.294 390.214 283.523C390.719 283.724 391.075 284.039 391.075 284.039L396.983 289.631C396.983 289.631 397.339 290.003 397.517 290.376C397.666 290.692 397.666 291.236 397.666 291.236V291.265V316.098C397.666 317.56 396.449 318.736 394.935 318.736H371.067C369.553 318.736 368.336 317.56 368.336 316.098V285.932C368.336 284.469 369.553 283.294 371.067 283.294Z" fill="#F5F5F5"/>
<path d="M374.986 304.656C374.065 303.767 375.075 302.563 377.746 301.244L379.439 300.441L380.092 299.036C380.448 298.262 381.012 297 381.309 296.255L381.843 294.878L381.457 293.846C380.982 292.584 380.834 290.692 381.131 290.003C381.517 289.086 382.823 289.172 383.327 290.176C383.743 290.95 383.684 292.355 383.209 294.133L382.823 295.595L383.179 296.169C383.357 296.484 383.921 297.23 384.396 297.803L385.316 298.893L386.444 298.749C390.066 298.291 391.283 299.065 391.283 300.183C391.283 301.588 388.433 301.703 386.059 300.097C385.524 299.724 385.168 299.38 385.168 299.38C385.168 299.38 383.684 299.667 382.941 299.868C382.17 300.068 381.813 300.183 380.685 300.556C380.685 300.556 380.299 301.101 380.032 301.502C379.082 302.993 377.984 304.198 377.182 304.656C376.381 305.058 375.461 305.086 374.986 304.656ZM376.44 304.14C376.945 303.825 378.014 302.649 378.726 301.531L379.023 301.072L377.687 301.732C375.639 302.735 374.689 303.681 375.164 304.255C375.431 304.57 375.787 304.542 376.44 304.14ZM389.829 300.527C390.333 300.183 390.274 299.495 389.68 299.208C389.235 298.979 388.879 298.95 387.721 298.95C387.008 299.007 385.88 299.122 385.673 299.179C385.673 299.179 386.296 299.61 386.563 299.753C386.919 299.954 387.84 300.326 388.493 300.527C389.146 300.728 389.532 300.728 389.829 300.527ZM384.426 298.348C384.129 298.032 383.595 297.402 383.268 296.914C382.823 296.369 382.615 295.997 382.615 295.997C382.615 295.997 382.288 296.971 382.051 297.574L381.249 299.495L381.012 299.925C381.012 299.925 382.259 299.524 382.882 299.38C383.565 299.208 384.901 298.95 384.901 298.95L384.426 298.348ZM382.704 291.638C382.793 291.007 382.823 290.376 382.615 290.061C382.021 289.459 381.338 289.946 381.457 291.409C381.487 291.896 381.635 292.756 381.784 293.272L382.081 294.219L382.288 293.502C382.407 293.129 382.585 292.269 382.704 291.638Z" fill="#FF2116"/>
<path d="M376.559 308.757H378.043C378.518 308.757 378.904 308.814 379.201 308.9C379.498 308.986 379.735 309.187 379.943 309.474C380.151 309.761 380.24 310.133 380.24 310.535C380.24 310.908 380.151 311.252 380.003 311.51C379.824 311.796 379.617 311.997 379.349 312.112C379.082 312.227 378.637 312.284 378.073 312.284H377.568V314.549H376.559V308.757ZM377.568 309.502V311.538H378.073C378.518 311.538 378.815 311.452 378.993 311.309C379.171 311.137 379.26 310.879 379.26 310.535C379.26 310.277 379.201 310.047 379.082 309.875C378.964 309.703 378.845 309.617 378.726 309.56C378.607 309.531 378.37 309.502 378.103 309.502H377.568Z" fill="#2C2C2C"/>
<path d="M381.042 308.757H382.407C383.06 308.757 383.595 308.872 383.98 309.101C384.366 309.33 384.663 309.646 384.871 310.105C385.079 310.535 385.168 311.051 385.168 311.567C385.168 312.141 385.079 312.657 384.901 313.087C384.723 313.517 384.455 313.89 384.069 314.148C383.713 314.435 383.179 314.549 382.466 314.549H381.042V308.757ZM382.021 309.531V313.804H382.437C383.03 313.804 383.446 313.603 383.713 313.23C383.98 312.829 384.099 312.313 384.099 311.682C384.099 310.248 383.535 309.531 382.437 309.531H382.021Z" fill="#2C2C2C"/>
<path d="M386.118 308.757H389.472V309.531H387.127V311.28H388.997V312.055H387.127V314.578H386.118V308.757Z" fill="#2C2C2C"/>
<path d="M25.642 129L26.6023 126.131H30.9773L31.9432 129H34.1932L30.0909 117.364H27.4886L23.392 129H25.642ZM27.1705 124.438L28.7443 119.75H28.8352L30.4091 124.438H27.1705ZM39.1761 129.17C41.3693 129.17 42.767 127.869 42.9148 126.017H40.9489C40.7727 126.955 40.0966 127.494 39.1932 127.494C37.9091 127.494 37.0795 126.42 37.0795 124.636C37.0795 122.875 37.9261 121.818 39.1932 121.818C40.1818 121.818 40.7898 122.455 40.9489 123.295H42.9148C42.7727 121.403 41.2955 120.159 39.1648 120.159C36.608 120.159 34.9943 122.006 34.9943 124.67C34.9943 127.312 36.5682 129.17 39.1761 129.17ZM48.9616 120.273H47.2401V118.182H45.1832V120.273H43.9446V121.864H45.1832V126.716C45.1719 128.358 46.3651 129.165 47.9105 129.119C48.4957 129.102 48.8991 128.989 49.1207 128.915L48.7741 127.307C48.6605 127.335 48.4276 127.386 48.1719 127.386C47.6548 127.386 47.2401 127.205 47.2401 126.375V121.864H48.9616V120.273ZM50.6818 129H52.7386V120.273H50.6818V129ZM51.7159 119.034C52.3693 119.034 52.9034 118.534 52.9034 117.92C52.9034 117.301 52.3693 116.801 51.7159 116.801C51.0568 116.801 50.5227 117.301 50.5227 117.92C50.5227 118.534 51.0568 119.034 51.7159 119.034ZM62.6491 120.273H60.4616L58.4503 126.756H58.3594L56.3537 120.273H54.1605L57.2685 129H59.5412L62.6491 120.273ZM66.3338 129.176C67.7031 129.176 68.5213 128.534 68.8963 127.801H68.9645V129H70.9418V123.159C70.9418 120.852 69.0611 120.159 67.3963 120.159C65.5611 120.159 64.152 120.977 63.6974 122.568L65.6179 122.841C65.8224 122.244 66.402 121.733 67.4077 121.733C68.3622 121.733 68.8849 122.222 68.8849 123.08V123.114C68.8849 123.705 68.2656 123.733 66.7259 123.898C65.0327 124.08 63.4134 124.585 63.4134 126.551C63.4134 128.267 64.669 129.176 66.3338 129.176ZM66.8679 127.665C66.0099 127.665 65.3963 127.273 65.3963 126.517C65.3963 125.727 66.0838 125.398 67.0043 125.267C67.544 125.193 68.6236 125.057 68.8906 124.841V125.869C68.8906 126.841 68.1065 127.665 66.8679 127.665ZM79.9077 122.58C79.6236 121.102 78.4418 120.159 76.3963 120.159C74.294 120.159 72.8622 121.193 72.8679 122.807C72.8622 124.08 73.6463 124.92 75.3224 125.267L76.8111 125.58C77.6122 125.756 77.9872 126.08 77.9872 126.574C77.9872 127.17 77.3395 127.619 76.3622 127.619C75.419 127.619 74.8054 127.21 74.6293 126.426L72.6236 126.619C72.8793 128.222 74.2259 129.17 76.3679 129.17C78.5497 129.17 80.0895 128.04 80.0952 126.386C80.0895 125.142 79.2884 124.381 77.6406 124.023L76.152 123.705C75.2656 123.506 74.9134 123.199 74.919 122.693C74.9134 122.102 75.5668 121.693 76.4247 121.693C77.3736 121.693 77.8736 122.21 78.0327 122.784L79.9077 122.58Z" fill="#377DFF"/>
<path d="M24.1477 167H31.7614V165.233H26.2557V162.057H31.3239V160.29H26.2557V157.131H31.7159V155.364H24.1477V167ZM35.8324 161.886C35.8324 160.625 36.5938 159.898 37.679 159.898C38.7415 159.898 39.3778 160.597 39.3778 161.761V167H41.4347V161.443C41.4403 159.352 40.2472 158.159 38.446 158.159C37.1392 158.159 36.2415 158.784 35.8438 159.756H35.7415V158.273H33.7756V167H35.8324V161.886ZM47.4943 167H49.5511V161.869C49.5511 160.761 50.3864 159.977 51.517 159.977C51.8636 159.977 52.2955 160.04 52.4716 160.097V158.205C52.2841 158.17 51.9602 158.148 51.733 158.148C50.733 158.148 49.8977 158.716 49.5795 159.727H49.4886V158.273H47.4943V167ZM57.3423 167.17C59.3764 167.17 60.7741 166.176 61.1378 164.659L59.2173 164.443C58.9389 165.182 58.2571 165.568 57.3707 165.568C56.0412 165.568 55.1605 164.693 55.1435 163.199H61.223V162.568C61.223 159.506 59.3821 158.159 57.2344 158.159C54.7344 158.159 53.1037 159.994 53.1037 162.688C53.1037 165.426 54.7116 167.17 57.3423 167.17ZM55.1491 161.812C55.2116 160.699 56.0355 159.761 57.2628 159.761C58.4446 159.761 59.2401 160.625 59.2514 161.812H55.1491ZM70.5085 158.273H68.321L66.3097 164.756H66.2188L64.2131 158.273H62.0199L65.1278 167H67.4006L70.5085 158.273ZM71.9318 167H73.9886V158.273H71.9318V167ZM72.9659 157.034C73.6193 157.034 74.1534 156.534 74.1534 155.92C74.1534 155.301 73.6193 154.801 72.9659 154.801C72.3068 154.801 71.7727 155.301 71.7727 155.92C71.7727 156.534 72.3068 157.034 72.9659 157.034ZM83.0014 160.58C82.7173 159.102 81.5355 158.159 79.4901 158.159C77.3878 158.159 75.956 159.193 75.9616 160.807C75.956 162.08 76.7401 162.92 78.4162 163.267L79.9048 163.58C80.706 163.756 81.081 164.08 81.081 164.574C81.081 165.17 80.4332 165.619 79.456 165.619C78.5128 165.619 77.8991 165.21 77.723 164.426L75.7173 164.619C75.973 166.222 77.3196 167.17 79.4616 167.17C81.6435 167.17 83.1832 166.04 83.1889 164.386C83.1832 163.142 82.3821 162.381 80.7344 162.023L79.2457 161.705C78.3594 161.506 78.0071 161.199 78.0128 160.693C78.0071 160.102 78.6605 159.693 79.5185 159.693C80.4673 159.693 80.9673 160.21 81.1264 160.784L83.0014 160.58ZM84.8849 167H86.9418V158.273H84.8849V167ZM85.919 157.034C86.5724 157.034 87.1065 156.534 87.1065 155.92C87.1065 155.301 86.5724 154.801 85.919 154.801C85.2599 154.801 84.7259 155.301 84.7259 155.92C84.7259 156.534 85.2599 157.034 85.919 157.034ZM92.8636 167.17C95.4205 167.17 97.0455 165.369 97.0455 162.67C97.0455 159.966 95.4205 158.159 92.8636 158.159C90.3068 158.159 88.6818 159.966 88.6818 162.67C88.6818 165.369 90.3068 167.17 92.8636 167.17ZM92.875 165.523C91.4602 165.523 90.767 164.261 90.767 162.665C90.767 161.068 91.4602 159.79 92.875 159.79C94.267 159.79 94.9602 161.068 94.9602 162.665C94.9602 164.261 94.267 165.523 92.875 165.523ZM92.0739 157.125H93.6136L95.358 154.528H93.3466L92.0739 157.125ZM100.848 161.886C100.848 160.625 101.609 159.898 102.695 159.898C103.757 159.898 104.393 160.597 104.393 161.761V167H106.45V161.443C106.456 159.352 105.263 158.159 103.462 158.159C102.155 158.159 101.257 158.784 100.859 159.756H100.757V158.273H98.7912V167H100.848V161.886Z" fill="#132144"/>
<path d="M24.1477 271H28.858C31.5227 271 32.8295 269.642 32.8295 267.83C32.8295 266.068 31.5795 265.034 30.3409 264.972V264.858C31.4773 264.591 32.375 263.795 32.375 262.381C32.375 260.648 31.125 259.364 28.6023 259.364H24.1477V271ZM26.2557 269.239V265.83H28.5795C29.8807 265.83 30.6875 266.625 30.6875 267.665C30.6875 268.591 30.0511 269.239 28.5227 269.239H26.2557ZM26.2557 264.312V261.102H28.3864C29.625 261.102 30.267 261.756 30.267 262.653C30.267 263.676 29.4375 264.312 28.3409 264.312H26.2557ZM36.6293 259.364H34.5724V271H36.6293V259.364ZM42.5511 271.17C45.108 271.17 46.733 269.369 46.733 266.67C46.733 263.966 45.108 262.159 42.5511 262.159C39.9943 262.159 38.3693 263.966 38.3693 266.67C38.3693 269.369 39.9943 271.17 42.5511 271.17ZM42.5625 269.523C41.1477 269.523 40.4545 268.261 40.4545 266.665C40.4545 265.068 41.1477 263.79 42.5625 263.79C43.9545 263.79 44.6477 265.068 44.6477 266.665C44.6477 268.261 43.9545 269.523 42.5625 269.523ZM52.2741 274.455C54.6321 274.455 56.3707 273.375 56.3707 271.142V262.273H54.3423V263.716H54.2287C53.9162 263.085 53.2628 262.159 51.723 262.159C49.706 262.159 48.1207 263.739 48.1207 266.608C48.1207 269.455 49.706 270.875 51.7173 270.875C53.2116 270.875 53.9105 270.074 54.2287 269.432H54.331V271.085C54.331 272.369 53.4787 272.898 52.3082 272.898C51.0696 272.898 50.5241 272.312 50.2741 271.801L48.4219 272.25C48.7969 273.472 50.0526 274.455 52.2741 274.455ZM52.2912 269.261C50.9332 269.261 50.2173 268.205 50.2173 266.597C50.2173 265.011 50.9219 263.847 52.2912 263.847C53.6151 263.847 54.3423 264.943 54.3423 266.597C54.3423 268.261 53.6037 269.261 52.2912 269.261Z" fill="#132144"/>
<path d="M23.8608 234H25.4418V230.804H27.0526L28.7656 234H30.5298L28.642 230.54C29.669 230.126 30.2102 229.249 30.2102 228.064C30.2102 226.398 29.1364 225.273 27.1335 225.273H23.8608V234ZM25.4418 229.491V226.594H26.8906C28.071 226.594 28.5994 227.135 28.5994 228.064C28.5994 228.993 28.071 229.491 26.8991 229.491H25.4418ZM31.6655 234H37.3757V232.675H33.2464V230.293H37.0476V228.967H33.2464V226.598H37.3416V225.273H31.6655V234ZM46.4247 228.217C46.1562 226.278 44.6648 225.153 42.7301 225.153C40.4503 225.153 38.733 226.815 38.733 229.636C38.733 232.453 40.429 234.119 42.7301 234.119C44.8054 234.119 46.1818 232.777 46.4247 231.111L44.831 231.102C44.6307 232.125 43.7955 232.7 42.7514 232.7C41.3366 232.7 40.3224 231.639 40.3224 229.636C40.3224 227.668 41.3281 226.572 42.7557 226.572C43.8168 226.572 44.6477 227.173 44.831 228.217H46.4247ZM53.3739 225.273V230.842C53.3739 231.938 52.6112 232.722 51.4137 232.722C50.212 232.722 49.4535 231.938 49.4535 230.842V225.273H47.8725V230.974C47.8725 232.849 49.2788 234.132 51.4137 234.132C53.5401 234.132 54.9549 232.849 54.9549 230.974V225.273H53.3739ZM56.6733 234H58.2543V230.804H59.8651L61.5781 234H63.3423L61.4545 230.54C62.4815 230.126 63.0227 229.249 63.0227 228.064C63.0227 226.398 61.9489 225.273 59.946 225.273H56.6733V234ZM58.2543 229.491V226.594H59.7031C60.8835 226.594 61.4119 227.135 61.4119 228.064C61.4119 228.993 60.8835 229.491 59.7116 229.491H58.2543ZM69.2209 227.672H70.7422C70.7124 226.197 69.4553 225.153 67.5973 225.153C65.7649 225.153 64.3885 226.185 64.3928 227.727C64.3928 228.98 65.2834 229.7 66.7195 230.071L67.7124 230.327C68.6541 230.565 69.2763 230.859 69.2805 231.537C69.2763 232.283 68.5689 232.781 67.5376 232.781C66.549 232.781 65.782 232.338 65.718 231.422H64.1626C64.2266 233.156 65.5178 234.132 67.5504 234.132C69.6428 234.132 70.8572 233.088 70.8615 231.55C70.8572 230.037 69.6087 229.347 68.2962 229.036L67.478 228.831C66.7621 228.661 65.9865 228.358 65.995 227.629C65.9993 226.973 66.5874 226.491 67.576 226.491C68.5178 226.491 69.1399 226.93 69.2209 227.672ZM80.0692 229.636C80.0692 226.815 78.3477 225.153 76.0593 225.153C73.7667 225.153 72.0494 226.815 72.0494 229.636C72.0494 232.453 73.7667 234.119 76.0593 234.119C78.3477 234.119 80.0692 232.457 80.0692 229.636ZM78.4798 229.636C78.4798 231.622 77.4826 232.7 76.0593 232.7C74.6403 232.7 73.6388 231.622 73.6388 229.636C73.6388 227.651 74.6403 226.572 76.0593 226.572C77.4826 226.572 78.4798 227.651 78.4798 229.636ZM86.3068 227.672H87.8281C87.7983 226.197 86.5412 225.153 84.6832 225.153C82.8509 225.153 81.4744 226.185 81.4787 227.727C81.4787 228.98 82.3693 229.7 83.8054 230.071L84.7983 230.327C85.7401 230.565 86.3622 230.859 86.3665 231.537C86.3622 232.283 85.6548 232.781 84.6236 232.781C83.6349 232.781 82.8679 232.338 82.804 231.422H81.2486C81.3125 233.156 82.6037 234.132 84.6364 234.132C86.7287 234.132 87.9432 233.088 87.9474 231.55C87.9432 230.037 86.6946 229.347 85.3821 229.036L84.5639 228.831C83.848 228.661 83.0724 228.358 83.081 227.629C83.0852 226.973 83.6733 226.491 84.6619 226.491C85.6037 226.491 86.2259 226.93 86.3068 227.672Z" fill="#132144" fill-opacity="0.3"/>
<path d="M31.331 79.2173C31.0625 77.2784 29.571 76.1534 27.6364 76.1534C25.3565 76.1534 23.6392 77.8153 23.6392 80.6364C23.6392 83.4531 25.3352 85.1193 27.6364 85.1193C29.7116 85.1193 31.0881 83.777 31.331 82.1108L29.7372 82.1023C29.5369 83.125 28.7017 83.7003 27.6577 83.7003C26.2429 83.7003 25.2287 82.6392 25.2287 80.6364C25.2287 78.6676 26.2344 77.5724 27.6619 77.5724C28.723 77.5724 29.554 78.1733 29.7372 79.2173H31.331ZM40.5771 80.6364C40.5771 77.8153 38.8555 76.1534 36.5671 76.1534C34.2745 76.1534 32.5572 77.8153 32.5572 80.6364C32.5572 83.4531 34.2745 85.1193 36.5671 85.1193C38.8555 85.1193 40.5771 83.4574 40.5771 80.6364ZM38.9876 80.6364C38.9876 82.6222 37.9904 83.7003 36.5671 83.7003C35.1481 83.7003 34.1467 82.6222 34.1467 80.6364C34.1467 78.6506 35.1481 77.5724 36.5671 77.5724C37.9904 77.5724 38.9876 78.6506 38.9876 80.6364ZM42.0717 85H45.6044C47.603 85 48.5831 83.9815 48.5831 82.6222C48.5831 81.3011 47.6456 80.5256 46.7166 80.4787V80.3935C47.5689 80.1932 48.2422 79.5966 48.2422 78.5355C48.2422 77.2358 47.3047 76.2727 45.4126 76.2727H42.0717V85ZM43.6527 83.679V81.1222H45.3956C46.3714 81.1222 46.9766 81.7188 46.9766 82.4986C46.9766 83.1932 46.4993 83.679 45.353 83.679H43.6527ZM43.6527 79.9844V77.5767H45.2507C46.1797 77.5767 46.6612 78.0668 46.6612 78.7401C46.6612 79.5071 46.0391 79.9844 45.2166 79.9844H43.6527ZM49.9585 85H51.5394V81.804H53.1502L54.8633 85H56.6275L54.7397 81.5398C55.7667 81.1264 56.3079 80.2486 56.3079 79.0639C56.3079 77.3977 55.234 76.2727 53.2312 76.2727H49.9585V85ZM51.5394 80.4915V77.5938H52.9883C54.1687 77.5938 54.6971 78.1349 54.6971 79.0639C54.6971 79.9929 54.1687 80.4915 52.9968 80.4915H51.5394ZM58.8839 85L59.604 82.848H62.8853L63.6097 85H65.2972L62.2205 76.2727H60.2688L57.1964 85H58.8839ZM60.0302 81.5781L61.2106 78.0625H61.2788L62.4592 81.5781H60.0302ZM73.6186 76.2727H72.0462V82.2216H71.9695L67.8615 76.2727H66.4467V85H68.0277V79.0554H68.1001L72.2124 85H73.6186V76.2727ZM75.1793 85H81.6396V83.6747H77.1438L81.614 77.2571V76.2727H75.1538V77.598H79.6538L75.1793 84.0156V85ZM84.2901 85L85.0103 82.848H88.2915L89.016 85H90.7035L87.6268 76.2727H85.6751L82.6026 85H84.2901ZM85.4364 81.5781L86.6168 78.0625H86.685L87.8654 81.5781H85.4364ZM96.4553 78.6719H97.9766C97.9467 77.1974 96.6896 76.1534 94.8317 76.1534C92.9993 76.1534 91.6229 77.1847 91.6271 78.7273C91.6271 79.9801 92.5178 80.7003 93.9538 81.071L94.9467 81.3267C95.8885 81.5653 96.5107 81.8594 96.5149 82.5369C96.5107 83.2827 95.8033 83.7812 94.772 83.7812C93.7834 83.7812 93.0163 83.3381 92.9524 82.4219H91.397C91.4609 84.1562 92.7521 85.1321 94.7848 85.1321C96.8771 85.1321 98.0916 84.0881 98.0959 82.5497C98.0916 81.0369 96.843 80.3466 95.5305 80.0355L94.7124 79.831C93.9964 79.6605 93.2209 79.358 93.2294 78.6293C93.2337 77.973 93.8217 77.4915 94.8104 77.4915C95.7521 77.4915 96.3743 77.9304 96.4553 78.6719Z" fill="#132144" fill-opacity="0.3"/>
<path d="M24.1477 309H26.2557V304.057H31.0909V302.29H26.2557V299.131H31.6023V297.364H24.1477V309ZM33.5639 309L34.5241 306.131H38.8991L39.8651 309H42.1151L38.0128 297.364H35.4105L31.3139 309H33.5639ZM35.0923 304.438L36.6662 299.75H36.7571L38.331 304.438H35.0923ZM53.4986 303.182C53.4986 299.42 51.2031 297.205 48.152 297.205C45.0952 297.205 42.8054 299.42 42.8054 303.182C42.8054 306.938 45.0952 309.159 48.152 309.159C48.8906 309.159 49.5838 309.028 50.2145 308.778L51.1747 310H53.2202L51.6065 307.932C52.777 306.909 53.4986 305.29 53.4986 303.182ZM47.4361 305.091L49.0099 307.159C48.7372 307.233 48.4531 307.267 48.152 307.267C46.2599 307.267 44.9247 305.83 44.9247 303.182C44.9247 300.534 46.2599 299.097 48.152 299.097C50.0497 299.097 51.3793 300.534 51.3793 303.182C51.3793 304.614 50.9929 305.688 50.3338 306.375L49.3452 305.091H47.4361Z" fill="#132144"/>
<line y1="196.6" x2="205" y2="196.6" stroke="#E7EAF3" stroke-width="0.8"/>
<path fill-rule="evenodd" clip-rule="evenodd" d="M75 261.375C75 261.276 74.9605 261.18 74.8902 261.11C74.8198 261.04 74.7245 261 74.625 261H70.1253C70.0258 261 69.9304 261.04 69.8601 261.11C69.7898 261.18 69.7503 261.276 69.7503 261.375C69.7503 261.474 69.7898 261.57 69.8601 261.64C69.9304 261.71 70.0258 261.75 70.1253 261.75H73.7198L66.11 269.359C66.0751 269.394 66.0474 269.435 66.0286 269.481C66.0097 269.526 66 269.575 66 269.625C66 269.674 66.0097 269.723 66.0286 269.768C66.0474 269.814 66.0751 269.855 66.11 269.89C66.1448 269.925 66.1862 269.953 66.2318 269.971C66.2773 269.99 66.3261 270 66.3755 270C66.4248 270 66.4736 269.99 66.5191 269.971C66.5647 269.953 66.6061 269.925 66.6409 269.89L74.25 262.28V265.875C74.25 265.974 74.2895 266.07 74.3599 266.14C74.4302 266.21 74.5256 266.25 74.625 266.25C74.7245 266.25 74.8198 266.21 74.8902 266.14C74.9605 266.07 75 265.974 75 265.875V261.375Z" fill="black"/>
<path fill-rule="evenodd" clip-rule="evenodd" d="M75 300.375C75 300.276 74.9605 300.18 74.8902 300.11C74.8198 300.04 74.7245 300 74.625 300H70.1253C70.0258 300 69.9304 300.04 69.8601 300.11C69.7898 300.18 69.7503 300.276 69.7503 300.375C69.7503 300.474 69.7898 300.57 69.8601 300.64C69.9304 300.71 70.0258 300.75 70.1253 300.75H73.7198L66.11 308.359C66.0751 308.394 66.0474 308.435 66.0286 308.481C66.0097 308.526 66 308.575 66 308.625C66 308.674 66.0097 308.723 66.0286 308.768C66.0474 308.814 66.0751 308.855 66.11 308.89C66.1448 308.925 66.1862 308.953 66.2318 308.971C66.2773 308.99 66.3261 309 66.3755 309C66.4248 309 66.4736 308.99 66.5191 308.971C66.5647 308.953 66.6061 308.925 66.6409 308.89L74.25 301.28V304.875C74.25 304.974 74.2895 305.07 74.3599 305.14C74.4302 305.21 74.5256 305.25 74.625 305.25C74.7245 305.25 74.8198 305.21 74.8902 305.14C74.9605 305.07 75 304.974 75 304.875V300.375Z" fill="black"/>
<path fill-rule="evenodd" clip-rule="evenodd" d="M170.168 119.09C170.221 119.062 170.284 119.039 170.353 119.023C170.423 119.008 170.497 119 170.572 119C170.647 119 170.722 119.008 170.791 119.023C170.861 119.039 170.924 119.062 170.977 119.09L177.832 122.782C177.885 122.811 177.928 122.845 177.956 122.882C177.985 122.92 178 122.96 178 123C178 123.041 177.985 123.081 177.956 123.118C177.928 123.155 177.885 123.189 177.832 123.218L170.977 126.91C170.87 126.968 170.724 127 170.572 127C170.421 127 170.275 126.968 170.168 126.91C170.061 126.852 170 126.774 170 126.692C170 126.61 170.061 126.532 170.168 126.474L176.62 123L170.168 119.526C170.115 119.497 170.072 119.463 170.044 119.426C170.015 119.389 170 119.349 170 119.308C170 119.268 170.015 119.228 170.044 119.19C170.072 119.153 170.115 119.119 170.168 119.09V119.09Z" fill="#377DFF"/>
<path fill-rule="evenodd" clip-rule="evenodd" d="M170.168 157.09C170.221 157.062 170.284 157.039 170.353 157.023C170.423 157.008 170.497 157 170.572 157C170.647 157 170.722 157.008 170.791 157.023C170.861 157.039 170.924 157.062 170.977 157.09L177.832 160.782C177.885 160.811 177.928 160.845 177.956 160.882C177.985 160.92 178 160.96 178 161C178 161.041 177.985 161.081 177.956 161.118C177.928 161.155 177.885 161.189 177.832 161.218L170.977 164.91C170.87 164.968 170.724 165 170.572 165C170.421 165 170.275 164.968 170.168 164.91C170.061 164.852 170 164.774 170 164.692C170 164.61 170.061 164.532 170.168 164.474L176.62 161L170.168 157.526C170.115 157.497 170.072 157.463 170.044 157.426C170.015 157.389 170 157.349 170 157.308C170 157.268 170.015 157.228 170.044 157.19C170.072 157.153 170.115 157.119 170.168 157.09V157.09Z" fill="#132144"/>
</svg>
