<svg width="906" height="582" viewBox="0 0 906 582" fill="none" xmlns="http://www.w3.org/2000/svg">
<path d="M0 8.00001C0 3.58173 3.58172 0 8 0H898C902.418 0 906 3.58172 906 8V574C906 578.418 902.418 582 898 582H7.99999C3.58171 582 0 578.418 0 574V8.00001Z" fill="white"/>
<rect x="112" y="148" width="682" height="385" rx="7" fill="white" fill-opacity="0.4" stroke="#F2F2F2" stroke-width="2"/>
<rect x="428" y="506" width="50" height="5" rx="2.5" fill="#80ACFF" fill-opacity="0.15"/>
<rect x="405" y="489" width="96" height="12" rx="6" fill="#80ACFF" fill-opacity="0.35"/>
<circle cx="54.5" cy="23.5" r="5.5" fill="#61C453"/>
<circle cx="36.5" cy="23.5" r="5.5" fill="#F6BE4B"/>
<circle cx="18.5" cy="23.5" r="5.5" fill="#EF6A5F"/>
<path d="M830.178 28.5078H832.46C832.415 26.2962 830.53 24.7301 827.743 24.7301C824.994 24.7301 822.929 26.277 822.936 28.5909C822.936 30.4702 824.272 31.5504 826.426 32.1065L827.915 32.4901C829.328 32.848 830.261 33.2891 830.267 34.3054C830.261 35.424 829.2 36.1719 827.653 36.1719C826.17 36.1719 825.02 35.5071 824.924 34.1328H822.591C822.687 36.7344 824.623 38.1982 827.672 38.1982C830.811 38.1982 832.633 36.6321 832.639 34.3246C832.633 32.0554 830.76 31.0199 828.791 30.5533L827.564 30.2464C826.49 29.9908 825.326 29.5369 825.339 28.4439C825.346 27.4595 826.228 26.7372 827.711 26.7372C829.123 26.7372 830.057 27.3956 830.178 28.5078ZM838.934 38.1918C841.81 38.1918 843.638 36.1655 843.638 33.1293C843.638 30.0866 841.81 28.054 838.934 28.054C836.057 28.054 834.229 30.0866 834.229 33.1293C834.229 36.1655 836.057 38.1918 838.934 38.1918ZM838.946 36.3381C837.355 36.3381 836.575 34.919 836.575 33.1229C836.575 31.3267 837.355 29.8885 838.946 29.8885C840.512 29.8885 841.292 31.3267 841.292 33.1229C841.292 34.919 840.512 36.3381 838.946 36.3381ZM850.575 28.1818H848.536V27.4084C848.536 26.6413 848.856 26.2131 849.718 26.2131C850.083 26.2131 850.39 26.2962 850.581 26.3537L851.048 24.5639C850.748 24.4616 850.089 24.2955 849.29 24.2955C847.584 24.2955 846.222 25.2734 846.222 27.255V28.1818H844.771V29.9716H846.222V38H848.536V29.9716H850.575V28.1818ZM852.387 38H854.701V28.1818H852.387V38ZM852.662 26.8906H854.394L856.357 23.9695H854.094L852.662 26.8906ZM859.906 38.1982C861.446 38.1982 862.367 37.4759 862.789 36.6513H862.865V38H865.09V31.429C865.09 28.8338 862.974 28.054 861.101 28.054C859.036 28.054 857.451 28.9744 856.94 30.7642L859.1 31.071C859.331 30.3999 859.983 29.8246 861.114 29.8246C862.188 29.8246 862.776 30.3743 862.776 31.3395V31.3778C862.776 32.0426 862.079 32.0746 860.347 32.2599C858.442 32.4645 856.62 33.0334 856.62 35.245C856.62 37.1754 858.033 38.1982 859.906 38.1982ZM860.507 36.4979C859.541 36.4979 858.851 36.0568 858.851 35.2067C858.851 34.3182 859.625 33.9474 860.66 33.8004C861.267 33.7173 862.482 33.5639 862.782 33.321V34.478C862.782 35.571 861.9 36.4979 860.507 36.4979Z" fill="#7E8C9A"/>
<path d="M801 31C802.193 31 803.338 30.5259 804.182 29.682C805.026 28.8381 805.5 27.6935 805.5 26.5C805.5 25.3065 805.026 24.1619 804.182 23.318C803.338 22.4741 802.193 22 801 22C799.807 22 798.662 22.4741 797.818 23.318C796.974 24.1619 796.5 25.3065 796.5 26.5C796.5 27.6935 796.974 28.8381 797.818 29.682C798.662 30.5259 799.807 31 801 31V31ZM804 26.5C804 27.2956 803.684 28.0587 803.121 28.6213C802.559 29.1839 801.796 29.5 801 29.5C800.204 29.5 799.441 29.1839 798.879 28.6213C798.316 28.0587 798 27.2956 798 26.5C798 25.7044 798.316 24.9413 798.879 24.3787C799.441 23.8161 800.204 23.5 801 23.5C801.796 23.5 802.559 23.8161 803.121 24.3787C803.684 24.9413 804 25.7044 804 26.5V26.5ZM810 38.5C810 40 808.5 40 808.5 40H793.5C793.5 40 792 40 792 38.5C792 37 793.5 32.5 801 32.5C808.5 32.5 810 37 810 38.5ZM808.5 38.494C808.498 38.125 808.269 37.015 807.252 35.998C806.274 35.02 804.434 34 801 34C797.565 34 795.726 35.02 794.748 35.998C793.731 37.015 793.503 38.125 793.5 38.494H808.5Z" fill="#7E8C9A"/>
<ellipse cx="313.567" cy="79.5045" rx="26.2892" ry="25.5045" fill="#F2F2F2" fill-opacity="0.7"/>
<rect x="281" y="111.287" width="65.9193" height="10.2018" rx="5.1009" fill="#F2F2F2" fill-opacity="0.7"/>
<path d="M316.96 70.7472H313.048L308.744 73.4234V77.0711L312.648 74.6847H312.75V88.2018H316.96V70.7472Z" fill="black"/>
<ellipse cx="597.648" cy="79.5045" rx="26.2892" ry="25.5045" fill="#80ACFF" fill-opacity="0.7"/>
<rect x="565.081" y="111.287" width="65.9193" height="10.2018" rx="5.1009" fill="#80ACFF" fill-opacity="0.7"/>
<path d="M597.57 88.4404C601.661 88.4404 604.568 86.2756 604.559 83.2416C604.568 81.0938 603.161 79.5597 600.468 79.2444V79.108C602.488 78.8183 603.92 77.4631 603.911 75.5029C603.92 72.6563 601.346 70.5086 597.604 70.5086C593.837 70.5086 591.093 72.6904 591.059 75.7927H595.09C595.124 74.5995 596.198 73.7984 597.604 73.7984C598.943 73.7984 599.854 74.608 599.846 75.7756C599.854 76.9859 598.781 77.8211 597.229 77.8211H595.533V80.8211H597.229C598.994 80.8211 600.144 81.6904 600.127 82.9177C600.144 84.1535 599.087 85.0143 597.587 85.0143C596.096 85.0143 594.997 84.2217 594.954 83.0711H590.71C590.744 86.2245 593.582 88.4404 597.57 88.4404Z" fill="black" fill-opacity="0.6"/>
<circle cx="455.5" cy="79.5" r="25.5" fill="#F2F2F2" fill-opacity="0.5"/>
<rect x="422" y="111" width="67" height="10" rx="5" fill="#F2F2F2" fill-opacity="0.5"/>
<path d="M449.635 89H462.555V85.5994H455.481V85.4886L457.569 83.5625C461.353 80.2642 462.342 78.5852 462.342 76.5824C462.342 73.4375 459.777 71.3068 455.814 71.3068C451.953 71.3068 449.37 73.5312 449.379 77.0852H453.376C453.376 75.5085 454.348 74.5966 455.797 74.5966C457.22 74.5966 458.251 75.4744 458.251 76.9148C458.251 78.2188 457.433 79.1051 456.001 80.392L449.635 85.9659V89Z" fill="black" fill-opacity="0.65"/>
<rect x="136.5" y="176.5" width="632" height="80" rx="9.5" fill="white" fill-opacity="0.4" stroke="#F2F2F2" stroke-width="3"/>
<rect x="664" y="200" width="58" height="33" rx="8" fill="#80ACFF" fill-opacity="0.55"/>
<rect x="161" y="220" width="135" height="18" rx="8" fill="#80ACFF" fill-opacity="0.65"/>
<path d="M161 209.5C161 207.015 163.015 205 165.5 205H242.5C244.985 205 247 207.015 247 209.5V209.5C247 211.985 244.985 214 242.5 214H165.5C163.015 214 161 211.985 161 209.5V209.5Z" fill="#CCDEFF" fill-opacity="0.8"/>
<rect x="136.5" y="281.5" width="632" height="80" rx="9.5" fill="white" fill-opacity="0.4" stroke="#F2F2F2" stroke-width="3"/>
<rect x="664" y="305" width="58" height="33" rx="8" fill="#80ACFF" fill-opacity="0.45"/>
<rect x="161" y="325" width="135" height="18" rx="8" fill="#80ACFF" fill-opacity="0.56"/>
<path d="M161 314.5C161 312.015 163.015 310 165.5 310H242.5C244.985 310 247 312.015 247 314.5V314.5C247 316.985 244.985 319 242.5 319H165.5C163.015 319 161 316.985 161 314.5V314.5Z" fill="#CCDEFF" fill-opacity="0.6"/>
<rect x="136.5" y="386.5" width="632" height="80" rx="9.5" fill="white" fill-opacity="0.4" stroke="#F2F2F2" stroke-width="3"/>
<rect x="664" y="410" width="58" height="33" rx="8" fill="#80ACFF" fill-opacity="0.3"/>
<rect x="161" y="430" width="135" height="18" rx="8" fill="#80ACFF" fill-opacity="0.46"/>
<path d="M161 419.5C161 417.015 163.015 415 165.5 415H242.5C244.985 415 247 417.015 247 419.5V419.5C247 421.985 244.985 424 242.5 424H165.5C163.015 424 161 421.985 161 419.5V419.5Z" fill="#CCDEFF" fill-opacity="0.5"/>
</svg>
