<svg width="655" height="510" viewBox="0 0 655 510" fill="none" xmlns="http://www.w3.org/2000/svg">
<rect width="655" height="510" rx="8" fill="white"/>
<rect x="50" y="133" width="556.205" height="338" rx="8" fill="#F2F2F2" fill-opacity="0.4"/>
<rect x="49.5" y="132.5" width="557.205" height="339" rx="8.5" stroke="#E1E1E3" stroke-opacity="0.5"/>
<rect x="163" y="89" width="80" height="8" rx="4" fill="#C4C4C4" fill-opacity="0.35"/>
<rect x="289" y="89" width="80" height="8" rx="4" fill="#C4C4C4" fill-opacity="0.35"/>
<rect x="258" y="431" width="140" height="8" rx="4" fill="#C4C4C4" fill-opacity="0.25"/>
<rect x="138" y="197" width="90" height="12" rx="6" fill="#C4C4C4" fill-opacity="0.7"/>
<rect x="138" y="217" width="120" height="8" rx="4" fill="#C4C4C4" fill-opacity="0.3"/>
<rect x="124.5" y="185.5" width="409" height="49" rx="7.5" fill="#C4C4C4" fill-opacity="0.14" stroke="#E1E1E3"/>
<rect x="449" y="198" width="70" height="25" rx="8" fill="#80ACFF" fill-opacity="0.55"/>
<rect x="138" y="280" width="155" height="12" rx="6" fill="#C4C4C4" fill-opacity="0.7"/>
<rect x="138" y="300" width="180" height="8" rx="4" fill="#C4C4C4" fill-opacity="0.3"/>
<path d="M124.5 277C124.5 272.858 127.858 269.5 132 269.5H526C530.142 269.5 533.5 272.858 533.5 277V311C533.5 315.142 530.142 318.5 526 318.5H132C127.858 318.5 124.5 315.142 124.5 311V277Z" fill="#C4C4C4" fill-opacity="0.14" stroke="#E1E1E3"/>
<rect x="449" y="281" width="70" height="25" rx="8" fill="#80ACFF" fill-opacity="0.55"/>
<rect x="138" y="364" width="130" height="12" rx="6" fill="#C4C4C4" fill-opacity="0.7"/>
<rect x="138" y="384" width="160" height="8" rx="4" fill="#C4C4C4" fill-opacity="0.3"/>
<rect x="124.5" y="352.5" width="409" height="49" rx="7.5" fill="#C4C4C4" fill-opacity="0.14" stroke="#E1E1E3"/>
<rect x="449" y="365" width="70" height="25" rx="8" fill="#80ACFF" fill-opacity="0.55"/>
<rect x="415" y="89" width="80" height="8" rx="4" fill="#80ACFF" fill-opacity="0.55"/>
<circle cx="329" cy="54" r="25" fill="#C4C4C4" fill-opacity="0.3"/>
<circle cx="455" cy="54" r="25" fill="#80ACFF"/>
<circle cx="203" cy="54" r="25" fill="#C4C4C4" fill-opacity="0.3"/>
<path d="M204.972 47.9091V61H202.99V49.8906H202.914L199.782 51.9361V50.044L203.048 47.9091H204.972Z" fill="black" fill-opacity="0.6"/>
<path d="M455.016 61.179C454.138 61.179 453.354 61.0277 452.664 60.7251C451.978 60.4226 451.434 60.0028 451.034 59.4659C450.637 58.9247 450.424 58.2983 450.395 57.5866H452.402C452.427 57.9744 452.557 58.3111 452.792 58.5966C453.03 58.8778 453.341 59.0952 453.725 59.2486C454.108 59.402 454.534 59.4787 455.003 59.4787C455.519 59.4787 455.975 59.3892 456.371 59.2102C456.772 59.0312 457.085 58.782 457.311 58.4624C457.537 58.1385 457.65 57.7656 457.65 57.3438C457.65 56.9048 457.537 56.5192 457.311 56.1868C457.089 55.8501 456.763 55.5859 456.333 55.3942C455.907 55.2024 455.391 55.1065 454.786 55.1065H453.68V53.4957H454.786C455.272 53.4957 455.698 53.4084 456.064 53.2337C456.435 53.0589 456.725 52.8161 456.934 52.505C457.142 52.1896 457.247 51.821 457.247 51.3991C457.247 50.9943 457.155 50.6428 456.972 50.3445C456.793 50.0419 456.537 49.8054 456.205 49.6349C455.877 49.4645 455.489 49.3793 455.042 49.3793C454.615 49.3793 454.217 49.4581 453.846 49.6158C453.48 49.7692 453.181 49.9908 452.951 50.2805C452.721 50.5661 452.598 50.9091 452.581 51.3097H450.669C450.691 50.6023 450.9 49.9801 451.296 49.4432C451.696 48.9062 452.225 48.4865 452.881 48.1839C453.537 47.8814 454.266 47.7301 455.067 47.7301C455.907 47.7301 456.631 47.8942 457.24 48.2223C457.854 48.5462 458.327 48.9787 458.659 49.5199C458.996 50.0611 459.162 50.6534 459.158 51.2969C459.162 52.0298 458.958 52.652 458.544 53.1634C458.135 53.6747 457.59 54.0178 456.908 54.1925V54.2947C457.777 54.4268 458.451 54.772 458.928 55.3303C459.409 55.8885 459.648 56.581 459.644 57.4077C459.648 58.1278 459.448 58.7734 459.043 59.3445C458.642 59.9155 458.095 60.3651 457.4 60.6932C456.706 61.017 455.911 61.179 455.016 61.179Z" fill="white"/>
<path d="M324.74 61V59.5682L329.169 54.9787C329.642 54.4801 330.032 54.0433 330.339 53.6683C330.65 53.2891 330.882 52.929 331.036 52.5881C331.189 52.2472 331.266 51.8849 331.266 51.5014C331.266 51.0668 331.164 50.6918 330.959 50.3764C330.755 50.0568 330.475 49.8118 330.122 49.6413C329.768 49.4666 329.37 49.3793 328.926 49.3793C328.458 49.3793 328.049 49.4751 327.699 49.6669C327.35 49.8587 327.081 50.1293 326.894 50.4787C326.706 50.8281 326.613 51.2372 326.613 51.706H324.727C324.727 50.9091 324.91 50.2124 325.277 49.6158C325.643 49.0192 326.146 48.5568 326.785 48.2287C327.424 47.8963 328.151 47.7301 328.965 47.7301C329.787 47.7301 330.512 47.8942 331.138 48.2223C331.769 48.5462 332.261 48.9893 332.615 49.5518C332.968 50.1101 333.145 50.7408 333.145 51.4439C333.145 51.9297 333.054 52.4048 332.87 52.8693C332.691 53.3338 332.378 53.8516 331.931 54.4226C331.483 54.9893 330.861 55.6776 330.064 56.4872L327.463 59.2102V59.3061H333.356V61H324.74Z" fill="black" fill-opacity="0.6"/>
</svg>
