<svg width="534" height="480" viewBox="0 0 534 480" fill="none" xmlns="http://www.w3.org/2000/svg">
<g filter="url(#filter0_d_1092_381)">
<rect x="3" y="3" width="407" height="472" rx="4" fill="white"/>
</g>
<path d="M26.9176 29.5455H30.1136L35.6705 43.1136H35.875L41.4318 29.5455H44.6278V47H42.1222V34.3693H41.9602L36.8125 46.9744H34.733L29.5852 34.3608H29.4233V47H26.9176V29.5455ZM53.7663 47.2642C52.5391 47.2642 51.468 46.983 50.5533 46.4205C49.6385 45.858 48.9283 45.071 48.4226 44.0597C47.9169 43.0483 47.6641 41.8665 47.6641 40.5142C47.6641 39.1562 47.9169 37.9687 48.4226 36.9517C48.9283 35.9347 49.6385 35.1449 50.5533 34.5824C51.468 34.0199 52.5391 33.7386 53.7663 33.7386C54.9936 33.7386 56.0646 34.0199 56.9794 34.5824C57.8942 35.1449 58.6044 35.9347 59.1101 36.9517C59.6158 37.9687 59.8686 39.1562 59.8686 40.5142C59.8686 41.8665 59.6158 43.0483 59.1101 44.0597C58.6044 45.071 57.8942 45.858 56.9794 46.4205C56.0646 46.983 54.9936 47.2642 53.7663 47.2642ZM53.7749 45.125C54.5703 45.125 55.2294 44.9148 55.7521 44.4943C56.2749 44.0739 56.6612 43.5142 56.9112 42.8153C57.1669 42.1165 57.2947 41.3466 57.2947 40.5057C57.2947 39.6705 57.1669 38.9034 56.9112 38.2045C56.6612 37.5 56.2749 36.9347 55.7521 36.5085C55.2294 36.0824 54.5703 35.8693 53.7749 35.8693C52.9737 35.8693 52.3089 36.0824 51.7805 36.5085C51.2578 36.9347 50.8686 37.5 50.6129 38.2045C50.3629 38.9034 50.2379 39.6705 50.2379 40.5057C50.2379 41.3466 50.3629 42.1165 50.6129 42.8153C50.8686 43.5142 51.2578 44.0739 51.7805 44.4943C52.3089 44.9148 52.9737 45.125 53.7749 45.125ZM65.2614 39.2273V47H62.7131V33.9091H65.1591V36.0398H65.321C65.6222 35.3466 66.0938 34.7898 66.7358 34.3693C67.3835 33.9489 68.1989 33.7386 69.1818 33.7386C70.0739 33.7386 70.8551 33.9261 71.5256 34.3011C72.196 34.6705 72.7159 35.2216 73.0852 35.9545C73.4545 36.6875 73.6392 37.5937 73.6392 38.6733V47H71.0909V38.9801C71.0909 38.0312 70.8438 37.2898 70.3494 36.7557C69.8551 36.2159 69.1761 35.946 68.3125 35.946C67.7216 35.946 67.196 36.0739 66.7358 36.3295C66.2813 36.5852 65.9205 36.9602 65.6534 37.4545C65.392 37.9432 65.2614 38.5341 65.2614 39.2273ZM83.1676 33.9091V35.9545H76.017V33.9091H83.1676ZM77.9347 30.7727H80.483V43.1562C80.483 43.6506 80.5568 44.0227 80.7045 44.2727C80.8523 44.517 81.0426 44.6847 81.2756 44.7756C81.5142 44.8608 81.7727 44.9034 82.0511 44.9034C82.2557 44.9034 82.4347 44.8892 82.5881 44.8608C82.7415 44.8324 82.8608 44.8097 82.946 44.7926L83.4062 46.8977C83.2585 46.9545 83.0483 47.0114 82.7756 47.0682C82.5028 47.1307 82.1619 47.1648 81.7528 47.1705C81.0824 47.1818 80.4574 47.0625 79.8778 46.8125C79.2983 46.5625 78.8295 46.1761 78.4716 45.6534C78.1136 45.1307 77.9347 44.4744 77.9347 43.6847V30.7727ZM91.3601 47.2642C90.1328 47.2642 89.0618 46.983 88.147 46.4205C87.2322 45.858 86.522 45.071 86.0163 44.0597C85.5107 43.0483 85.2578 41.8665 85.2578 40.5142C85.2578 39.1562 85.5107 37.9687 86.0163 36.9517C86.522 35.9347 87.2322 35.1449 88.147 34.5824C89.0618 34.0199 90.1328 33.7386 91.3601 33.7386C92.5874 33.7386 93.6584 34.0199 94.5732 34.5824C95.4879 35.1449 96.1982 35.9347 96.7038 36.9517C97.2095 37.9687 97.4624 39.1562 97.4624 40.5142C97.4624 41.8665 97.2095 43.0483 96.7038 44.0597C96.1982 45.071 95.4879 45.858 94.5732 46.4205C93.6584 46.983 92.5874 47.2642 91.3601 47.2642ZM91.3686 45.125C92.1641 45.125 92.8232 44.9148 93.3459 44.4943C93.8686 44.0739 94.255 43.5142 94.505 42.8153C94.7607 42.1165 94.8885 41.3466 94.8885 40.5057C94.8885 39.6705 94.7607 38.9034 94.505 38.2045C94.255 37.5 93.8686 36.9347 93.3459 36.5085C92.8232 36.0824 92.1641 35.8693 91.3686 35.8693C90.5675 35.8693 89.9027 36.0824 89.3743 36.5085C88.8516 36.9347 88.4624 37.5 88.2067 38.2045C87.9567 38.9034 87.8317 39.6705 87.8317 40.5057C87.8317 41.3466 87.9567 42.1165 88.2067 42.8153C88.4624 43.5142 88.8516 44.0739 89.3743 44.4943C89.9027 44.9148 90.5675 45.125 91.3686 45.125ZM110.116 37.1051L107.807 37.5142C107.71 37.2187 107.557 36.9375 107.347 36.6705C107.142 36.4034 106.864 36.1847 106.511 36.0142C106.159 35.8437 105.719 35.7585 105.19 35.7585C104.469 35.7585 103.866 35.9205 103.384 36.2443C102.901 36.5625 102.659 36.9744 102.659 37.4801C102.659 37.9176 102.821 38.2699 103.145 38.5369C103.469 38.804 103.991 39.0227 104.713 39.1932L106.793 39.6705C107.997 39.9489 108.895 40.3778 109.486 40.9574C110.077 41.5369 110.372 42.2898 110.372 43.2159C110.372 44 110.145 44.6989 109.69 45.3125C109.241 45.9205 108.614 46.3977 107.807 46.7443C107.006 47.0909 106.077 47.2642 105.02 47.2642C103.554 47.2642 102.358 46.9517 101.432 46.3267C100.506 45.696 99.9375 44.8011 99.7273 43.642L102.19 43.267C102.344 43.9091 102.659 44.3949 103.136 44.7244C103.614 45.0483 104.236 45.2102 105.003 45.2102C105.838 45.2102 106.506 45.0369 107.006 44.6903C107.506 44.3381 107.756 43.9091 107.756 43.4034C107.756 42.9943 107.602 42.6506 107.295 42.3722C106.994 42.0937 106.531 41.8835 105.906 41.7415L103.69 41.2557C102.469 40.9773 101.565 40.5341 100.98 39.9261C100.401 39.3182 100.111 38.5483 100.111 37.6165C100.111 36.8437 100.327 36.1676 100.759 35.5881C101.19 35.0085 101.787 34.5568 102.548 34.233C103.31 33.9034 104.182 33.7386 105.165 33.7386C106.58 33.7386 107.693 34.0455 108.506 34.6591C109.318 35.267 109.855 36.0824 110.116 37.1051ZM119.526 51.9091V33.9091H122.014V36.0312H122.227C122.375 35.7585 122.588 35.4432 122.866 35.0852C123.145 34.7273 123.531 34.4148 124.026 34.1477C124.52 33.875 125.173 33.7386 125.986 33.7386C127.043 33.7386 127.986 34.0057 128.815 34.5398C129.645 35.0739 130.295 35.8437 130.767 36.8494C131.244 37.8551 131.483 39.0653 131.483 40.4801C131.483 41.8949 131.247 43.108 130.776 44.1193C130.304 45.125 129.656 45.9006 128.832 46.446C128.009 46.9858 127.068 47.2557 126.011 47.2557C125.216 47.2557 124.565 47.1222 124.06 46.8551C123.56 46.5881 123.168 46.2756 122.884 45.9176C122.599 45.5597 122.381 45.2415 122.227 44.9631H122.074V51.9091H119.526ZM122.023 40.4545C122.023 41.375 122.156 42.1818 122.423 42.875C122.69 43.5682 123.077 44.1108 123.582 44.5028C124.088 44.8892 124.707 45.0824 125.44 45.0824C126.202 45.0824 126.838 44.8807 127.349 44.4773C127.861 44.0682 128.247 43.5142 128.509 42.8153C128.776 42.1165 128.909 41.3295 128.909 40.4545C128.909 39.5909 128.778 38.8153 128.517 38.1278C128.261 37.4403 127.875 36.8977 127.358 36.5C126.847 36.1023 126.207 35.9034 125.44 35.9034C124.702 35.9034 124.077 36.0937 123.565 36.4744C123.06 36.8551 122.676 37.3864 122.415 38.0682C122.153 38.75 122.023 39.5455 122.023 40.4545ZM139.852 47.2642C138.625 47.2642 137.554 46.983 136.639 46.4205C135.724 45.858 135.014 45.071 134.509 44.0597C134.003 43.0483 133.75 41.8665 133.75 40.5142C133.75 39.1562 134.003 37.9687 134.509 36.9517C135.014 35.9347 135.724 35.1449 136.639 34.5824C137.554 34.0199 138.625 33.7386 139.852 33.7386C141.08 33.7386 142.151 34.0199 143.065 34.5824C143.98 35.1449 144.69 35.9347 145.196 36.9517C145.702 37.9687 145.955 39.1562 145.955 40.5142C145.955 41.8665 145.702 43.0483 145.196 44.0597C144.69 45.071 143.98 45.858 143.065 46.4205C142.151 46.983 141.08 47.2642 139.852 47.2642ZM139.861 45.125C140.656 45.125 141.315 44.9148 141.838 44.4943C142.361 44.0739 142.747 43.5142 142.997 42.8153C143.253 42.1165 143.381 41.3466 143.381 40.5057C143.381 39.6705 143.253 38.9034 142.997 38.2045C142.747 37.5 142.361 36.9347 141.838 36.5085C141.315 36.0824 140.656 35.8693 139.861 35.8693C139.06 35.8693 138.395 36.0824 137.866 36.5085C137.344 36.9347 136.955 37.5 136.699 38.2045C136.449 38.9034 136.324 39.6705 136.324 40.5057C136.324 41.3466 136.449 42.1165 136.699 42.8153C136.955 43.5142 137.344 44.0739 137.866 44.4943C138.395 44.9148 139.06 45.125 139.861 45.125ZM148.799 47V33.9091H151.262V35.9886H151.398C151.637 35.2841 152.058 34.7301 152.66 34.3267C153.268 33.9176 153.955 33.7131 154.722 33.7131C154.881 33.7131 155.069 33.7187 155.285 33.7301C155.506 33.7415 155.68 33.7557 155.805 33.7727V36.2102C155.702 36.1818 155.521 36.1506 155.259 36.1165C154.998 36.0767 154.737 36.0568 154.475 36.0568C153.873 36.0568 153.336 36.1847 152.864 36.4403C152.398 36.6903 152.029 37.0398 151.756 37.4886C151.484 37.9318 151.347 38.4375 151.347 39.0057V47H148.799ZM164.566 47V29.5455H175.509V31.8125H167.2V37.1307H174.938V39.3892H167.2V44.733H175.612V47H164.566ZM184.933 33.9091V35.9545H177.783V33.9091H184.933ZM179.7 30.7727H182.249V43.1562C182.249 43.6506 182.322 44.0227 182.47 44.2727C182.618 44.517 182.808 44.6847 183.041 44.7756C183.28 44.8608 183.538 44.9034 183.817 44.9034C184.021 44.9034 184.2 44.8892 184.354 44.8608C184.507 44.8324 184.626 44.8097 184.712 44.7926L185.172 46.8977C185.024 46.9545 184.814 47.0114 184.541 47.0682C184.268 47.1307 183.928 47.1648 183.518 47.1705C182.848 47.1818 182.223 47.0625 181.643 46.8125C181.064 46.5625 180.595 46.1761 180.237 45.6534C179.879 45.1307 179.7 44.4744 179.7 43.6847V30.7727ZM191.562 47.2898C190.732 47.2898 189.982 47.1364 189.312 46.8295C188.641 46.517 188.11 46.0653 187.718 45.4744C187.332 44.8835 187.138 44.1591 187.138 43.3011C187.138 42.5625 187.281 41.9545 187.565 41.4773C187.849 41 188.232 40.6222 188.715 40.3438C189.198 40.0653 189.738 39.8551 190.335 39.7131C190.931 39.571 191.539 39.4631 192.158 39.3892C192.942 39.2983 193.579 39.2244 194.067 39.1676C194.556 39.1051 194.911 39.0057 195.133 38.8693C195.354 38.733 195.465 38.5114 195.465 38.2045V38.1449C195.465 37.4006 195.255 36.8239 194.835 36.4148C194.42 36.0057 193.8 35.8011 192.977 35.8011C192.119 35.8011 191.442 35.9915 190.948 36.3722C190.46 36.7472 190.121 37.1648 189.934 37.625L187.539 37.0795C187.823 36.2841 188.238 35.642 188.783 35.1534C189.335 34.6591 189.968 34.3011 190.684 34.0795C191.4 33.8523 192.153 33.7386 192.942 33.7386C193.465 33.7386 194.019 33.8011 194.604 33.9261C195.195 34.0455 195.746 34.267 196.258 34.5909C196.775 34.9148 197.198 35.3778 197.528 35.9801C197.857 36.5767 198.022 37.3523 198.022 38.3068V47H195.533V45.2102H195.431C195.266 45.5398 195.019 45.8636 194.69 46.1818C194.36 46.5 193.937 46.7642 193.42 46.9744C192.903 47.1847 192.283 47.2898 191.562 47.2898ZM192.116 45.2443C192.82 45.2443 193.423 45.1051 193.923 44.8267C194.428 44.5483 194.812 44.1847 195.073 43.7358C195.34 43.2812 195.474 42.7955 195.474 42.2784V40.5909C195.383 40.6818 195.207 40.767 194.945 40.8466C194.69 40.9205 194.397 40.9858 194.067 41.0426C193.738 41.0937 193.417 41.142 193.104 41.1875C192.792 41.2273 192.531 41.2614 192.32 41.2898C191.826 41.3523 191.374 41.4574 190.965 41.6051C190.562 41.7528 190.238 41.9659 189.994 42.2443C189.755 42.517 189.636 42.8807 189.636 43.3352C189.636 43.9659 189.869 44.4432 190.335 44.767C190.8 45.0852 191.394 45.2443 192.116 45.2443ZM201.416 51.9091V33.9091H203.905V36.0312H204.118C204.266 35.7585 204.479 35.4432 204.757 35.0852C205.036 34.7273 205.422 34.4148 205.916 34.1477C206.411 33.875 207.064 33.7386 207.876 33.7386C208.933 33.7386 209.876 34.0057 210.706 34.5398C211.536 35.0739 212.186 35.8437 212.658 36.8494C213.135 37.8551 213.374 39.0653 213.374 40.4801C213.374 41.8949 213.138 43.108 212.666 44.1193C212.195 45.125 211.547 45.9006 210.723 46.446C209.899 46.9858 208.959 47.2557 207.902 47.2557C207.107 47.2557 206.456 47.1222 205.95 46.8551C205.45 46.5881 205.058 46.2756 204.774 45.9176C204.49 45.5597 204.271 45.2415 204.118 44.9631H203.964V51.9091H201.416ZM203.913 40.4545C203.913 41.375 204.047 42.1818 204.314 42.875C204.581 43.5682 204.967 44.1108 205.473 44.5028C205.979 44.8892 206.598 45.0824 207.331 45.0824C208.092 45.0824 208.729 44.8807 209.24 44.4773C209.751 44.0682 210.138 43.5142 210.399 42.8153C210.666 42.1165 210.8 41.3295 210.8 40.4545C210.8 39.5909 210.669 38.8153 210.408 38.1278C210.152 37.4403 209.766 36.8977 209.249 36.5C208.737 36.1023 208.098 35.9034 207.331 35.9034C206.592 35.9034 205.967 36.0937 205.456 36.4744C204.95 36.8551 204.567 37.3864 204.305 38.0682C204.044 38.75 203.913 39.5455 203.913 40.4545ZM220.038 47.2898C219.209 47.2898 218.459 47.1364 217.788 46.8295C217.118 46.517 216.587 46.0653 216.195 45.4744C215.808 44.8835 215.615 44.1591 215.615 43.3011C215.615 42.5625 215.757 41.9545 216.041 41.4773C216.325 41 216.709 40.6222 217.192 40.3438C217.675 40.0653 218.214 39.8551 218.811 39.7131C219.408 39.571 220.016 39.4631 220.635 39.3892C221.419 39.2983 222.055 39.2244 222.544 39.1676C223.033 39.1051 223.388 39.0057 223.609 38.8693C223.831 38.733 223.942 38.5114 223.942 38.2045V38.1449C223.942 37.4006 223.732 36.8239 223.311 36.4148C222.896 36.0057 222.277 35.8011 221.453 35.8011C220.595 35.8011 219.919 35.9915 219.425 36.3722C218.936 36.7472 218.598 37.1648 218.411 37.625L216.016 37.0795C216.3 36.2841 216.714 35.642 217.26 35.1534C217.811 34.6591 218.445 34.3011 219.161 34.0795C219.876 33.8523 220.629 33.7386 221.419 33.7386C221.942 33.7386 222.496 33.8011 223.081 33.9261C223.672 34.0455 224.223 34.267 224.734 34.5909C225.251 34.9148 225.675 35.3778 226.004 35.9801C226.334 36.5767 226.499 37.3523 226.499 38.3068V47H224.01V45.2102H223.908C223.743 45.5398 223.496 45.8636 223.166 46.1818C222.837 46.5 222.413 46.7642 221.896 46.9744C221.379 47.1847 220.76 47.2898 220.038 47.2898ZM220.592 45.2443C221.297 45.2443 221.899 45.1051 222.399 44.8267C222.905 44.5483 223.288 44.1847 223.55 43.7358C223.817 43.2812 223.95 42.7955 223.95 42.2784V40.5909C223.859 40.6818 223.683 40.767 223.422 40.8466C223.166 40.9205 222.874 40.9858 222.544 41.0426C222.214 41.0937 221.893 41.142 221.581 41.1875C221.268 41.2273 221.007 41.2614 220.797 41.2898C220.303 41.3523 219.851 41.4574 219.442 41.6051C219.038 41.7528 218.714 41.9659 218.47 42.2443C218.232 42.517 218.112 42.8807 218.112 43.3352C218.112 43.9659 218.345 44.4432 218.811 44.767C219.277 45.0852 219.871 45.2443 220.592 45.2443Z" fill="#7E8C9A"/>
<path d="M366.065 50.1818V28.3636H367.463V50.1818H366.065ZM370.438 35.1307C370.347 34.3239 369.972 33.6989 369.312 33.2557C368.653 32.8068 367.824 32.5824 366.824 32.5824C366.108 32.5824 365.489 32.696 364.966 32.9233C364.443 33.1449 364.037 33.4517 363.747 33.8438C363.463 34.2301 363.321 34.6705 363.321 35.1648C363.321 35.5795 363.418 35.9375 363.611 36.2386C363.81 36.5398 364.068 36.7926 364.386 36.9972C364.71 37.196 365.057 37.3636 365.426 37.5C365.795 37.6307 366.151 37.7386 366.491 37.8239L368.196 38.267C368.753 38.4034 369.324 38.5881 369.909 38.821C370.494 39.054 371.037 39.3608 371.537 39.7415C372.037 40.1222 372.44 40.5938 372.747 41.1562C373.06 41.7188 373.216 42.392 373.216 43.1761C373.216 44.1648 372.96 45.0426 372.449 45.8097C371.943 46.5767 371.207 47.1818 370.241 47.625C369.281 48.0682 368.119 48.2898 366.756 48.2898C365.449 48.2898 364.318 48.0824 363.364 47.6676C362.409 47.2528 361.662 46.6648 361.122 45.9034C360.582 45.1364 360.284 44.2273 360.227 43.1761H362.869C362.92 43.8068 363.125 44.3324 363.483 44.7528C363.847 45.1676 364.31 45.4773 364.872 45.6818C365.44 45.8807 366.062 45.9801 366.739 45.9801C367.483 45.9801 368.145 45.8636 368.724 45.6307C369.31 45.392 369.77 45.0625 370.105 44.642C370.44 44.2159 370.608 43.7187 370.608 43.1506C370.608 42.6335 370.46 42.2102 370.165 41.8807C369.875 41.5511 369.48 41.2784 368.98 41.0625C368.486 40.8466 367.926 40.6562 367.301 40.4915L365.239 39.929C363.841 39.5483 362.733 38.9886 361.915 38.25C361.102 37.5114 360.696 36.5341 360.696 35.3182C360.696 34.3125 360.969 33.4347 361.514 32.6847C362.06 31.9347 362.798 31.3523 363.73 30.9375C364.662 30.517 365.713 30.3068 366.884 30.3068C368.065 30.3068 369.108 30.5142 370.011 30.929C370.92 31.3438 371.636 31.9148 372.159 32.642C372.682 33.3636 372.955 34.1932 372.977 35.1307H370.438Z" fill="#7E8C9A"/>
<line x1="3" y1="69.5001" x2="410" y2="69.5001" stroke="#B8B5B5" stroke-opacity="0.4"/>
<path d="M25 89H364C366.761 89 369 91.2386 369 94V136C369 138.761 366.761 141 364 141H25V89Z" fill="#F5F6F8"/>
<path d="M25 162H287C289.761 162 292 164.239 292 167V210C292 212.761 289.761 215 287 215H25V162Z" fill="#F5F6F8"/>
<path d="M25 235H166C168.761 235 171 237.239 171 240V283C171 285.761 168.761 288 166 288H25V235Z" fill="#F5F6F8"/>
<path d="M25 313H383C385.761 313 388 315.239 388 318V360C388 362.761 385.761 365 383 365H25V313Z" fill="#F5F6F8"/>
<path d="M25 389H324C326.761 389 329 391.239 329 394V436C329 438.761 326.761 441 324 441H25V389Z" fill="#F5F6F8"/>
<path d="M54.7216 424V406.545H65.9034V409.196H57.8835V413.935H65.1364V416.585H57.8835V424H54.7216ZM68.6477 424V410.909H71.733V424H68.6477ZM70.1989 409.051C69.7102 409.051 69.2898 408.889 68.9375 408.565C68.5852 408.236 68.4091 407.841 68.4091 407.381C68.4091 406.915 68.5852 406.52 68.9375 406.196C69.2898 405.866 69.7102 405.702 70.1989 405.702C70.6932 405.702 71.1136 405.866 71.4602 406.196C71.8125 406.52 71.9886 406.915 71.9886 407.381C71.9886 407.841 71.8125 408.236 71.4602 408.565C71.1136 408.889 70.6932 409.051 70.1989 409.051ZM77.9908 416.33V424H74.9055V410.909H77.8544V413.134H78.0078C78.3089 412.401 78.7891 411.818 79.4482 411.386C80.1129 410.955 80.9339 410.739 81.9112 410.739C82.8146 410.739 83.6016 410.932 84.272 411.318C84.9482 411.705 85.4709 412.264 85.8402 412.997C86.2152 413.73 86.3999 414.619 86.3942 415.665V424H83.3089V416.142C83.3089 415.267 83.0817 414.582 82.6271 414.088C82.1783 413.594 81.5561 413.347 80.7607 413.347C80.2209 413.347 79.7408 413.466 79.3203 413.705C78.9055 413.937 78.5788 414.276 78.3402 414.719C78.1072 415.162 77.9908 415.699 77.9908 416.33ZM93.2976 424.264C92.468 424.264 91.7209 424.116 91.0561 423.821C90.397 423.52 89.8743 423.077 89.4879 422.491C89.1072 421.906 88.9169 421.185 88.9169 420.327C88.9169 419.588 89.0533 418.977 89.326 418.494C89.5987 418.011 89.9709 417.625 90.4425 417.335C90.9141 417.045 91.4453 416.827 92.0362 416.679C92.6328 416.526 93.2493 416.415 93.8857 416.347C94.6527 416.267 95.2749 416.196 95.7521 416.134C96.2294 416.065 96.576 415.963 96.7919 415.827C97.0135 415.685 97.1243 415.466 97.1243 415.17V415.119C97.1243 414.477 96.9339 413.98 96.5533 413.628C96.1726 413.276 95.6243 413.099 94.9084 413.099C94.1527 413.099 93.5533 413.264 93.1101 413.594C92.6726 413.923 92.3771 414.312 92.2237 414.761L89.343 414.352C89.5703 413.557 89.9453 412.892 90.468 412.358C90.9908 411.818 91.63 411.415 92.3857 411.148C93.1413 410.875 93.9766 410.739 94.8913 410.739C95.522 410.739 96.1499 410.812 96.7749 410.96C97.3999 411.108 97.9709 411.352 98.4879 411.693C99.005 412.028 99.4197 412.486 99.7322 413.065C100.05 413.645 100.21 414.369 100.21 415.239V424H97.2436V422.202H97.1413C96.9538 422.565 96.6896 422.906 96.3487 423.224C96.0135 423.537 95.5902 423.79 95.0788 423.983C94.5732 424.17 93.9794 424.264 93.2976 424.264ZM94.0987 421.997C94.718 421.997 95.255 421.875 95.7095 421.631C96.1641 421.381 96.5135 421.051 96.7578 420.642C97.0078 420.233 97.1328 419.787 97.1328 419.304V417.761C97.0362 417.841 96.8714 417.915 96.6385 417.983C96.4112 418.051 96.1555 418.111 95.8714 418.162C95.5874 418.213 95.3061 418.259 95.0277 418.298C94.7493 418.338 94.5078 418.372 94.3033 418.401C93.843 418.463 93.4311 418.565 93.0675 418.707C92.7038 418.849 92.4169 419.048 92.2067 419.304C91.9964 419.554 91.8913 419.878 91.8913 420.276C91.8913 420.844 92.0987 421.273 92.5135 421.562C92.9283 421.852 93.4567 421.997 94.0987 421.997ZM106.397 406.545V424H103.312V406.545H106.397ZM109.57 424V410.909H112.655V424H109.57ZM111.121 409.051C110.632 409.051 110.212 408.889 109.859 408.565C109.507 408.236 109.331 407.841 109.331 407.381C109.331 406.915 109.507 406.52 109.859 406.196C110.212 405.866 110.632 405.702 111.121 405.702C111.615 405.702 112.036 405.866 112.382 406.196C112.734 406.52 112.911 406.915 112.911 407.381C112.911 407.841 112.734 408.236 112.382 408.565C112.036 408.889 111.615 409.051 111.121 409.051ZM115.657 424V422.04L122.407 413.577V413.466H115.879V410.909H126.183V413.014L119.756 421.332V421.443H126.404V424H115.657ZM133.071 424.264C132.241 424.264 131.494 424.116 130.83 423.821C130.17 423.52 129.648 423.077 129.261 422.491C128.881 421.906 128.69 421.185 128.69 420.327C128.69 419.588 128.827 418.977 129.099 418.494C129.372 418.011 129.744 417.625 130.216 417.335C130.688 417.045 131.219 416.827 131.81 416.679C132.406 416.526 133.023 416.415 133.659 416.347C134.426 416.267 135.048 416.196 135.526 416.134C136.003 416.065 136.349 415.963 136.565 415.827C136.787 415.685 136.898 415.466 136.898 415.17V415.119C136.898 414.477 136.707 413.98 136.327 413.628C135.946 413.276 135.398 413.099 134.682 413.099C133.926 413.099 133.327 413.264 132.884 413.594C132.446 413.923 132.151 414.312 131.997 414.761L129.116 414.352C129.344 413.557 129.719 412.892 130.241 412.358C130.764 411.818 131.403 411.415 132.159 411.148C132.915 410.875 133.75 410.739 134.665 410.739C135.295 410.739 135.923 410.812 136.548 410.96C137.173 411.108 137.744 411.352 138.261 411.693C138.778 412.028 139.193 412.486 139.506 413.065C139.824 413.645 139.983 414.369 139.983 415.239V424H137.017V422.202H136.915C136.727 422.565 136.463 422.906 136.122 423.224C135.787 423.537 135.364 423.79 134.852 423.983C134.347 424.17 133.753 424.264 133.071 424.264ZM133.872 421.997C134.491 421.997 135.028 421.875 135.483 421.631C135.938 421.381 136.287 421.051 136.531 420.642C136.781 420.233 136.906 419.787 136.906 419.304V417.761C136.81 417.841 136.645 417.915 136.412 417.983C136.185 418.051 135.929 418.111 135.645 418.162C135.361 418.213 135.08 418.259 134.801 418.298C134.523 418.338 134.281 418.372 134.077 418.401C133.616 418.463 133.205 418.565 132.841 418.707C132.477 418.849 132.19 419.048 131.98 419.304C131.77 419.554 131.665 419.878 131.665 420.276C131.665 420.844 131.872 421.273 132.287 421.562C132.702 421.852 133.23 421.997 133.872 421.997ZM147.943 424.23C146.915 424.23 145.994 423.966 145.182 423.438C144.369 422.909 143.727 422.142 143.256 421.136C142.784 420.131 142.548 418.909 142.548 417.472C142.548 416.017 142.787 414.79 143.264 413.79C143.747 412.784 144.398 412.026 145.216 411.514C146.034 410.997 146.946 410.739 147.952 410.739C148.719 410.739 149.349 410.869 149.844 411.131C150.338 411.386 150.73 411.696 151.02 412.06C151.31 412.418 151.534 412.756 151.693 413.074H151.821V406.545H154.915V424H151.881V421.938H151.693C151.534 422.256 151.304 422.594 151.003 422.952C150.702 423.304 150.304 423.605 149.81 423.855C149.315 424.105 148.693 424.23 147.943 424.23ZM148.804 421.699C149.457 421.699 150.014 421.523 150.474 421.17C150.935 420.812 151.284 420.315 151.523 419.679C151.761 419.043 151.881 418.301 151.881 417.455C151.881 416.608 151.761 415.872 151.523 415.247C151.29 414.622 150.943 414.136 150.483 413.79C150.028 413.443 149.469 413.27 148.804 413.27C148.116 413.27 147.543 413.449 147.082 413.807C146.622 414.165 146.276 414.659 146.043 415.29C145.81 415.92 145.693 416.642 145.693 417.455C145.693 418.273 145.81 419.003 146.043 419.645C146.281 420.281 146.631 420.784 147.091 421.153C147.557 421.517 148.128 421.699 148.804 421.699ZM161.969 424.264C161.14 424.264 160.393 424.116 159.728 423.821C159.069 423.52 158.546 423.077 158.16 422.491C157.779 421.906 157.589 421.185 157.589 420.327C157.589 419.588 157.725 418.977 157.998 418.494C158.271 418.011 158.643 417.625 159.114 417.335C159.586 417.045 160.117 416.827 160.708 416.679C161.305 416.526 161.921 416.415 162.558 416.347C163.325 416.267 163.947 416.196 164.424 416.134C164.901 416.065 165.248 415.963 165.464 415.827C165.685 415.685 165.796 415.466 165.796 415.17V415.119C165.796 414.477 165.606 413.98 165.225 413.628C164.844 413.276 164.296 413.099 163.58 413.099C162.825 413.099 162.225 413.264 161.782 413.594C161.344 413.923 161.049 414.312 160.896 414.761L158.015 414.352C158.242 413.557 158.617 412.892 159.14 412.358C159.663 411.818 160.302 411.415 161.058 411.148C161.813 410.875 162.648 410.739 163.563 410.739C164.194 410.739 164.822 410.812 165.447 410.96C166.072 411.108 166.643 411.352 167.16 411.693C167.677 412.028 168.092 412.486 168.404 413.065C168.722 413.645 168.881 414.369 168.881 415.239V424H165.915V422.202H165.813C165.626 422.565 165.362 422.906 165.021 423.224C164.685 423.537 164.262 423.79 163.751 423.983C163.245 424.17 162.651 424.264 161.969 424.264ZM162.771 421.997C163.39 421.997 163.927 421.875 164.381 421.631C164.836 421.381 165.185 421.051 165.43 420.642C165.68 420.233 165.805 419.787 165.805 419.304V417.761C165.708 417.841 165.543 417.915 165.31 417.983C165.083 418.051 164.827 418.111 164.543 418.162C164.259 418.213 163.978 418.259 163.7 418.298C163.421 418.338 163.18 418.372 162.975 418.401C162.515 418.463 162.103 418.565 161.739 418.707C161.376 418.849 161.089 419.048 160.879 419.304C160.668 419.554 160.563 419.878 160.563 420.276C160.563 420.844 160.771 421.273 161.185 421.562C161.6 421.852 162.129 421.997 162.771 421.997Z" fill="black"/>
<path d="M54.7216 347V329.545H66.0739V332.196H57.8835V336.935H65.4858V339.585H57.8835V344.349H66.142V347H54.7216ZM69.1634 347V333.909H72.1122V336.134H72.2656C72.5384 335.384 72.9901 334.798 73.6207 334.378C74.2514 333.952 75.0043 333.739 75.8793 333.739C76.7656 333.739 77.5128 333.955 78.1207 334.386C78.7344 334.812 79.1662 335.395 79.4162 336.134H79.5526C79.8423 335.406 80.331 334.827 81.0185 334.395C81.7116 333.957 82.5327 333.739 83.4815 333.739C84.6861 333.739 85.669 334.119 86.4304 334.881C87.1918 335.642 87.5724 336.753 87.5724 338.213V347H84.4787V338.69C84.4787 337.878 84.2628 337.284 83.831 336.909C83.3991 336.528 82.8707 336.338 82.2457 336.338C81.5014 336.338 80.919 336.571 80.4986 337.037C80.0838 337.497 79.8764 338.097 79.8764 338.835V347H76.8509V338.562C76.8509 337.886 76.6463 337.347 76.2372 336.943C75.8338 336.54 75.3054 336.338 74.652 336.338C74.2088 336.338 73.8054 336.452 73.4418 336.679C73.0781 336.901 72.7884 337.216 72.5724 337.625C72.3565 338.028 72.2486 338.5 72.2486 339.04V347H69.1634ZM90.8388 347V329.545H93.924V336.074H94.0518C94.2109 335.756 94.4354 335.418 94.7251 335.06C95.0149 334.696 95.407 334.386 95.9013 334.131C96.3956 333.869 97.0263 333.739 97.7933 333.739C98.8047 333.739 99.7166 333.997 100.529 334.514C101.347 335.026 101.995 335.784 102.472 336.79C102.955 337.79 103.197 339.017 103.197 340.472C103.197 341.909 102.961 343.131 102.489 344.136C102.018 345.142 101.376 345.909 100.563 346.438C99.7507 346.966 98.8303 347.23 97.8018 347.23C97.0518 347.23 96.4297 347.105 95.9354 346.855C95.4411 346.605 95.0433 346.304 94.7422 345.952C94.4467 345.594 94.2166 345.256 94.0518 344.938H93.8729V347H90.8388ZM93.8643 340.455C93.8643 341.301 93.9837 342.043 94.2223 342.679C94.4666 343.315 94.8161 343.812 95.2706 344.17C95.7308 344.523 96.2876 344.699 96.9411 344.699C97.6229 344.699 98.1939 344.517 98.6541 344.153C99.1143 343.784 99.4609 343.281 99.6939 342.645C99.9325 342.003 100.052 341.273 100.052 340.455C100.052 339.642 99.9354 338.92 99.7024 338.29C99.4695 337.659 99.1229 337.165 98.6626 336.807C98.2024 336.449 97.6286 336.27 96.9411 336.27C96.282 336.27 95.7223 336.443 95.2621 336.79C94.8018 337.136 94.4524 337.622 94.2138 338.247C93.9808 338.872 93.8643 339.608 93.8643 340.455ZM109.587 347.264C108.757 347.264 108.01 347.116 107.345 346.821C106.686 346.52 106.163 346.077 105.777 345.491C105.396 344.906 105.206 344.185 105.206 343.327C105.206 342.588 105.342 341.977 105.615 341.494C105.888 341.011 106.26 340.625 106.732 340.335C107.203 340.045 107.734 339.827 108.325 339.679C108.922 339.526 109.538 339.415 110.175 339.347C110.942 339.267 111.564 339.196 112.041 339.134C112.518 339.065 112.865 338.963 113.081 338.827C113.303 338.685 113.413 338.466 113.413 338.17V338.119C113.413 337.477 113.223 336.98 112.842 336.628C112.462 336.276 111.913 336.099 111.197 336.099C110.442 336.099 109.842 336.264 109.399 336.594C108.962 336.923 108.666 337.312 108.513 337.761L105.632 337.352C105.859 336.557 106.234 335.892 106.757 335.358C107.28 334.818 107.919 334.415 108.675 334.148C109.43 333.875 110.266 333.739 111.18 333.739C111.811 333.739 112.439 333.812 113.064 333.96C113.689 334.108 114.26 334.352 114.777 334.693C115.294 335.028 115.709 335.486 116.021 336.065C116.339 336.645 116.499 337.369 116.499 338.239V347H113.533V345.202H113.43C113.243 345.565 112.979 345.906 112.638 346.224C112.303 346.537 111.879 346.79 111.368 346.983C110.862 347.17 110.268 347.264 109.587 347.264ZM110.388 344.997C111.007 344.997 111.544 344.875 111.999 344.631C112.453 344.381 112.803 344.051 113.047 343.642C113.297 343.233 113.422 342.787 113.422 342.304V340.761C113.325 340.841 113.161 340.915 112.928 340.983C112.7 341.051 112.445 341.111 112.161 341.162C111.876 341.213 111.595 341.259 111.317 341.298C111.038 341.338 110.797 341.372 110.592 341.401C110.132 341.463 109.72 341.565 109.357 341.707C108.993 341.849 108.706 342.048 108.496 342.304C108.286 342.554 108.18 342.878 108.18 343.276C108.18 343.844 108.388 344.273 108.803 344.562C109.217 344.852 109.746 344.997 110.388 344.997ZM119.601 347V333.909H122.592V336.091H122.729C122.967 335.335 123.376 334.753 123.956 334.344C124.541 333.929 125.209 333.722 125.959 333.722C126.129 333.722 126.32 333.73 126.53 333.747C126.746 333.759 126.925 333.778 127.067 333.807V336.645C126.936 336.599 126.729 336.56 126.445 336.526C126.166 336.486 125.896 336.466 125.635 336.466C125.072 336.466 124.567 336.588 124.118 336.832C123.675 337.071 123.325 337.403 123.07 337.83C122.814 338.256 122.686 338.747 122.686 339.304V347H119.601ZM134.271 352.182C133.163 352.182 132.211 352.031 131.415 351.73C130.62 351.435 129.981 351.037 129.498 350.537C129.015 350.037 128.68 349.483 128.492 348.875L131.271 348.202C131.396 348.457 131.577 348.71 131.816 348.96C132.055 349.216 132.376 349.426 132.779 349.591C133.188 349.761 133.702 349.847 134.322 349.847C135.197 349.847 135.921 349.634 136.495 349.207C137.069 348.787 137.356 348.094 137.356 347.128V344.648H137.202C137.043 344.966 136.81 345.293 136.504 345.628C136.202 345.963 135.802 346.244 135.302 346.472C134.808 346.699 134.185 346.812 133.435 346.812C132.43 346.812 131.518 346.577 130.7 346.105C129.887 345.628 129.239 344.918 128.756 343.974C128.279 343.026 128.04 341.838 128.04 340.412C128.04 338.974 128.279 337.761 128.756 336.773C129.239 335.778 129.89 335.026 130.708 334.514C131.526 333.997 132.438 333.739 133.444 333.739C134.211 333.739 134.842 333.869 135.336 334.131C135.836 334.386 136.234 334.696 136.529 335.06C136.825 335.418 137.049 335.756 137.202 336.074H137.373V333.909H140.415V347.213C140.415 348.332 140.148 349.259 139.614 349.991C139.08 350.724 138.35 351.273 137.424 351.636C136.498 352 135.447 352.182 134.271 352.182ZM134.296 344.392C134.95 344.392 135.506 344.233 135.967 343.915C136.427 343.597 136.776 343.139 137.015 342.543C137.254 341.946 137.373 341.23 137.373 340.395C137.373 339.571 137.254 338.849 137.015 338.23C136.782 337.611 136.435 337.131 135.975 336.79C135.521 336.443 134.961 336.27 134.296 336.27C133.609 336.27 133.035 336.449 132.575 336.807C132.114 337.165 131.768 337.656 131.535 338.281C131.302 338.901 131.185 339.605 131.185 340.395C131.185 341.196 131.302 341.898 131.535 342.5C131.773 343.097 132.123 343.562 132.583 343.898C133.049 344.227 133.62 344.392 134.296 344.392ZM149.288 347.256C148.009 347.256 146.901 346.974 145.964 346.412C145.026 345.849 144.299 345.062 143.782 344.051C143.271 343.04 143.015 341.858 143.015 340.506C143.015 339.153 143.271 337.969 143.782 336.952C144.299 335.935 145.026 335.145 145.964 334.582C146.901 334.02 148.009 333.739 149.288 333.739C150.566 333.739 151.674 334.02 152.612 334.582C153.549 335.145 154.273 335.935 154.785 336.952C155.302 337.969 155.56 339.153 155.56 340.506C155.56 341.858 155.302 343.04 154.785 344.051C154.273 345.062 153.549 345.849 152.612 346.412C151.674 346.974 150.566 347.256 149.288 347.256ZM149.305 344.784C149.998 344.784 150.577 344.594 151.043 344.213C151.509 343.827 151.856 343.31 152.083 342.662C152.316 342.014 152.433 341.293 152.433 340.497C152.433 339.696 152.316 338.972 152.083 338.324C151.856 337.67 151.509 337.151 151.043 336.764C150.577 336.378 149.998 336.185 149.305 336.185C148.594 336.185 148.004 336.378 147.532 336.764C147.066 337.151 146.717 337.67 146.484 338.324C146.256 338.972 146.143 339.696 146.143 340.497C146.143 341.293 146.256 342.014 146.484 342.662C146.717 343.31 147.066 343.827 147.532 344.213C148.004 344.594 148.594 344.784 149.305 344.784Z" fill="black"/>
<path d="M57.8835 105.545V123H54.7216V105.545H57.8835ZM64.2564 115.33V123H61.1712V109.909H64.12V112.134H64.2734C64.5746 111.401 65.0547 110.818 65.7138 110.386C66.3786 109.955 67.1996 109.739 68.1768 109.739C69.0803 109.739 69.8672 109.932 70.5376 110.318C71.2138 110.705 71.7365 111.264 72.1058 111.997C72.4808 112.73 72.6655 113.619 72.6598 114.665V123H69.5746V115.142C69.5746 114.267 69.3473 113.582 68.8928 113.088C68.4439 112.594 67.8217 112.347 67.0263 112.347C66.4865 112.347 66.0064 112.466 65.5859 112.705C65.1712 112.937 64.8445 113.276 64.6058 113.719C64.3729 114.162 64.2564 114.699 64.2564 115.33ZM81.4893 128.182C80.3814 128.182 79.4297 128.031 78.6342 127.73C77.8388 127.435 77.1996 127.037 76.7166 126.537C76.2337 126.037 75.8984 125.483 75.7109 124.875L78.4893 124.202C78.6143 124.457 78.7962 124.71 79.0348 124.96C79.2734 125.216 79.5945 125.426 79.9979 125.591C80.407 125.761 80.9212 125.847 81.5405 125.847C82.4155 125.847 83.1399 125.634 83.7138 125.207C84.2876 124.787 84.5746 124.094 84.5746 123.128V120.648H84.4212C84.2621 120.966 84.0291 121.293 83.7223 121.628C83.4212 121.963 83.0206 122.244 82.5206 122.472C82.0263 122.699 81.4041 122.812 80.6541 122.812C79.6484 122.812 78.7365 122.577 77.9183 122.105C77.1058 121.628 76.4581 120.918 75.9751 119.974C75.4979 119.026 75.2592 117.838 75.2592 116.412C75.2592 114.974 75.4979 113.761 75.9751 112.773C76.4581 111.778 77.1087 111.026 77.9268 110.514C78.745 109.997 79.657 109.739 80.6626 109.739C81.4297 109.739 82.0604 109.869 82.5547 110.131C83.0547 110.386 83.4524 110.696 83.7479 111.06C84.0433 111.418 84.2678 111.756 84.4212 112.074H84.5916V109.909H87.6342V123.213C87.6342 124.332 87.3672 125.259 86.8331 125.991C86.299 126.724 85.5689 127.273 84.6428 127.636C83.7166 128 82.6655 128.182 81.4893 128.182ZM81.5149 120.392C82.1683 120.392 82.7251 120.233 83.1854 119.915C83.6456 119.597 83.995 119.139 84.2337 118.543C84.4723 117.946 84.5916 117.23 84.5916 116.395C84.5916 115.571 84.4723 114.849 84.2337 114.23C84.0007 113.611 83.6541 113.131 83.1939 112.79C82.7393 112.443 82.1797 112.27 81.5149 112.27C80.8274 112.27 80.2536 112.449 79.7933 112.807C79.3331 113.165 78.9865 113.656 78.7536 114.281C78.5206 114.901 78.4041 115.605 78.4041 116.395C78.4041 117.196 78.5206 117.898 78.7536 118.5C78.9922 119.097 79.3416 119.562 79.8018 119.898C80.2678 120.227 80.8388 120.392 81.5149 120.392ZM90.7962 123V109.909H93.7876V112.091H93.924C94.1626 111.335 94.5717 110.753 95.1513 110.344C95.7365 109.929 96.4041 109.722 97.1541 109.722C97.3246 109.722 97.5149 109.73 97.7251 109.747C97.9411 109.759 98.12 109.778 98.2621 109.807V112.645C98.1314 112.599 97.924 112.56 97.6399 112.526C97.3615 112.486 97.0916 112.466 96.8303 112.466C96.2678 112.466 95.7621 112.588 95.3132 112.832C94.87 113.071 94.5206 113.403 94.2649 113.83C94.0092 114.256 93.8814 114.747 93.8814 115.304V123H90.7962ZM105.568 123.256C104.256 123.256 103.122 122.983 102.168 122.438C101.219 121.886 100.489 121.108 99.9773 120.102C99.4659 119.091 99.2102 117.901 99.2102 116.531C99.2102 115.185 99.4659 114.003 99.9773 112.986C100.494 111.963 101.216 111.168 102.142 110.599C103.068 110.026 104.156 109.739 105.406 109.739C106.213 109.739 106.974 109.869 107.69 110.131C108.412 110.386 109.048 110.784 109.599 111.324C110.156 111.864 110.594 112.551 110.912 113.386C111.23 114.216 111.389 115.205 111.389 116.352V117.298H100.659V115.219H108.432C108.426 114.628 108.298 114.102 108.048 113.642C107.798 113.176 107.449 112.81 107 112.543C106.557 112.276 106.04 112.142 105.449 112.142C104.818 112.142 104.264 112.295 103.787 112.602C103.31 112.903 102.938 113.301 102.67 113.795C102.409 114.284 102.276 114.821 102.27 115.406V117.222C102.27 117.983 102.409 118.636 102.688 119.182C102.966 119.722 103.355 120.136 103.855 120.426C104.355 120.71 104.94 120.852 105.611 120.852C106.06 120.852 106.466 120.79 106.83 120.665C107.193 120.534 107.509 120.344 107.776 120.094C108.043 119.844 108.244 119.534 108.381 119.165L111.261 119.489C111.08 120.25 110.733 120.915 110.222 121.483C109.716 122.045 109.068 122.483 108.278 122.795C107.489 123.102 106.585 123.256 105.568 123.256ZM124.346 113.369L121.533 113.676C121.454 113.392 121.315 113.125 121.116 112.875C120.923 112.625 120.661 112.423 120.332 112.27C120.002 112.116 119.599 112.04 119.121 112.04C118.479 112.04 117.94 112.179 117.502 112.457C117.07 112.736 116.857 113.097 116.863 113.54C116.857 113.92 116.996 114.23 117.281 114.469C117.57 114.707 118.048 114.903 118.712 115.057L120.945 115.534C122.184 115.801 123.104 116.224 123.707 116.804C124.315 117.384 124.621 118.142 124.627 119.08C124.621 119.903 124.38 120.631 123.903 121.261C123.431 121.886 122.775 122.375 121.934 122.727C121.093 123.08 120.127 123.256 119.036 123.256C117.434 123.256 116.144 122.92 115.167 122.25C114.19 121.574 113.607 120.634 113.42 119.429L116.428 119.139C116.565 119.73 116.854 120.176 117.298 120.477C117.741 120.778 118.317 120.929 119.028 120.929C119.761 120.929 120.349 120.778 120.792 120.477C121.241 120.176 121.465 119.804 121.465 119.361C121.465 118.986 121.32 118.676 121.031 118.432C120.746 118.187 120.303 118 119.701 117.869L117.468 117.401C116.212 117.139 115.283 116.699 114.681 116.08C114.079 115.455 113.781 114.665 113.786 113.71C113.781 112.903 113.999 112.205 114.442 111.614C114.891 111.017 115.513 110.557 116.309 110.233C117.11 109.903 118.033 109.739 119.079 109.739C120.613 109.739 121.82 110.065 122.701 110.719C123.587 111.372 124.136 112.256 124.346 113.369ZM132.881 123.256C131.603 123.256 130.495 122.974 129.558 122.412C128.62 121.849 127.893 121.062 127.376 120.051C126.864 119.04 126.609 117.858 126.609 116.506C126.609 115.153 126.864 113.969 127.376 112.952C127.893 111.935 128.62 111.145 129.558 110.582C130.495 110.02 131.603 109.739 132.881 109.739C134.16 109.739 135.268 110.02 136.205 110.582C137.143 111.145 137.867 111.935 138.379 112.952C138.896 113.969 139.154 115.153 139.154 116.506C139.154 117.858 138.896 119.04 138.379 120.051C137.867 121.062 137.143 121.849 136.205 122.412C135.268 122.974 134.16 123.256 132.881 123.256ZM132.898 120.784C133.592 120.784 134.171 120.594 134.637 120.213C135.103 119.827 135.45 119.31 135.677 118.662C135.91 118.014 136.026 117.293 136.026 116.497C136.026 115.696 135.91 114.972 135.677 114.324C135.45 113.67 135.103 113.151 134.637 112.764C134.171 112.378 133.592 112.185 132.898 112.185C132.188 112.185 131.597 112.378 131.126 112.764C130.66 113.151 130.31 113.67 130.077 114.324C129.85 114.972 129.737 115.696 129.737 116.497C129.737 117.293 129.85 118.014 130.077 118.662C130.31 119.31 130.66 119.827 131.126 120.213C131.597 120.594 132.188 120.784 132.898 120.784Z" fill="black"/>
<path d="M69.0653 179.545V197H66.2528L58.0284 185.111H57.8835V197H54.7216V179.545H57.5511L65.767 191.443H65.9205V179.545H69.0653ZM78.0845 197.256C76.8061 197.256 75.6982 196.974 74.7607 196.412C73.8232 195.849 73.0959 195.062 72.5788 194.051C72.0675 193.04 71.8118 191.858 71.8118 190.506C71.8118 189.153 72.0675 187.969 72.5788 186.952C73.0959 185.935 73.8232 185.145 74.7607 184.582C75.6982 184.02 76.8061 183.739 78.0845 183.739C79.3629 183.739 80.4709 184.02 81.4084 184.582C82.3459 185.145 83.0703 185.935 83.5817 186.952C84.0987 187.969 84.3572 189.153 84.3572 190.506C84.3572 191.858 84.0987 193.04 83.5817 194.051C83.0703 195.062 82.3459 195.849 81.4084 196.412C80.4709 196.974 79.3629 197.256 78.0845 197.256ZM78.1016 194.784C78.7947 194.784 79.3743 194.594 79.8402 194.213C80.3061 193.827 80.6527 193.31 80.88 192.662C81.1129 192.014 81.2294 191.293 81.2294 190.497C81.2294 189.696 81.1129 188.972 80.88 188.324C80.6527 187.67 80.3061 187.151 79.8402 186.764C79.3743 186.378 78.7947 186.185 78.1016 186.185C77.3913 186.185 76.8004 186.378 76.3288 186.764C75.8629 187.151 75.5135 187.67 75.2805 188.324C75.0533 188.972 74.9396 189.696 74.9396 190.497C74.9396 191.293 75.0533 192.014 75.2805 192.662C75.5135 193.31 75.8629 193.827 76.3288 194.213C76.8004 194.594 77.3913 194.784 78.1016 194.784ZM93.5128 183.909V186.295H85.9872V183.909H93.5128ZM87.8452 180.773H90.9304V193.062C90.9304 193.477 90.9929 193.795 91.1179 194.017C91.2486 194.233 91.419 194.381 91.6293 194.46C91.8395 194.54 92.0724 194.58 92.3281 194.58C92.5213 194.58 92.6974 194.565 92.8565 194.537C93.0213 194.509 93.1463 194.483 93.2315 194.46L93.7514 196.872C93.5866 196.929 93.3509 196.991 93.044 197.06C92.7429 197.128 92.3736 197.168 91.9361 197.179C91.1634 197.202 90.4673 197.085 89.848 196.83C89.2287 196.568 88.7372 196.165 88.3736 195.619C88.0156 195.074 87.8395 194.392 87.8452 193.574V180.773ZM96.093 197V183.909H99.1783V197H96.093ZM97.6442 182.051C97.1555 182.051 96.7351 181.889 96.3828 181.565C96.0305 181.236 95.8544 180.841 95.8544 180.381C95.8544 179.915 96.0305 179.52 96.3828 179.196C96.7351 178.866 97.1555 178.702 97.6442 178.702C98.1385 178.702 98.5589 178.866 98.9055 179.196C99.2578 179.52 99.4339 179.915 99.4339 180.381C99.4339 180.841 99.2578 181.236 98.9055 181.565C98.5589 181.889 98.1385 182.051 97.6442 182.051ZM108.982 183.909V186.295H101.243V183.909H108.982ZM103.178 197V182.673C103.178 181.793 103.359 181.06 103.723 180.474C104.092 179.889 104.587 179.452 105.206 179.162C105.825 178.872 106.513 178.727 107.268 178.727C107.803 178.727 108.277 178.77 108.692 178.855C109.107 178.94 109.413 179.017 109.612 179.085L108.999 181.472C108.868 181.432 108.703 181.392 108.504 181.352C108.305 181.307 108.084 181.284 107.839 181.284C107.266 181.284 106.859 181.423 106.621 181.702C106.388 181.974 106.271 182.366 106.271 182.878V197H103.178ZM111.398 197V183.909H114.483V197H111.398ZM112.949 182.051C112.46 182.051 112.04 181.889 111.688 181.565C111.335 181.236 111.159 180.841 111.159 180.381C111.159 179.915 111.335 179.52 111.688 179.196C112.04 178.866 112.46 178.702 112.949 178.702C113.443 178.702 113.864 178.866 114.21 179.196C114.563 179.52 114.739 179.915 114.739 180.381C114.739 180.841 114.563 181.236 114.21 181.565C113.864 181.889 113.443 182.051 112.949 182.051ZM123.366 197.256C122.059 197.256 120.937 196.969 119.999 196.395C119.067 195.821 118.349 195.028 117.843 194.017C117.343 193 117.093 191.83 117.093 190.506C117.093 189.176 117.349 188.003 117.86 186.986C118.371 185.963 119.093 185.168 120.025 184.599C120.962 184.026 122.07 183.739 123.349 183.739C124.411 183.739 125.352 183.935 126.17 184.327C126.994 184.713 127.65 185.261 128.138 185.972C128.627 186.676 128.906 187.5 128.974 188.443H126.025C125.906 187.812 125.621 187.287 125.173 186.866C124.729 186.44 124.136 186.227 123.391 186.227C122.761 186.227 122.207 186.398 121.729 186.739C121.252 187.074 120.88 187.557 120.613 188.188C120.352 188.818 120.221 189.574 120.221 190.455C120.221 191.347 120.352 192.114 120.613 192.756C120.874 193.392 121.241 193.884 121.712 194.23C122.19 194.571 122.749 194.741 123.391 194.741C123.846 194.741 124.252 194.656 124.61 194.486C124.974 194.31 125.278 194.057 125.522 193.727C125.766 193.398 125.934 192.997 126.025 192.526H128.974C128.9 193.452 128.627 194.273 128.156 194.989C127.684 195.699 127.042 196.256 126.229 196.659C125.417 197.057 124.462 197.256 123.366 197.256ZM135.274 197.264C134.445 197.264 133.697 197.116 133.033 196.821C132.374 196.52 131.851 196.077 131.464 195.491C131.084 194.906 130.893 194.185 130.893 193.327C130.893 192.588 131.03 191.977 131.303 191.494C131.575 191.011 131.947 190.625 132.419 190.335C132.891 190.045 133.422 189.827 134.013 189.679C134.609 189.526 135.226 189.415 135.862 189.347C136.629 189.267 137.251 189.196 137.729 189.134C138.206 189.065 138.553 188.963 138.768 188.827C138.99 188.685 139.101 188.466 139.101 188.17V188.119C139.101 187.477 138.911 186.98 138.53 186.628C138.149 186.276 137.601 186.099 136.885 186.099C136.129 186.099 135.53 186.264 135.087 186.594C134.649 186.923 134.354 187.312 134.2 187.761L131.32 187.352C131.547 186.557 131.922 185.892 132.445 185.358C132.967 184.818 133.607 184.415 134.362 184.148C135.118 183.875 135.953 183.739 136.868 183.739C137.499 183.739 138.126 183.812 138.751 183.96C139.376 184.108 139.947 184.352 140.464 184.693C140.982 185.028 141.396 185.486 141.709 186.065C142.027 186.645 142.186 187.369 142.186 188.239V197H139.22V195.202H139.118C138.93 195.565 138.666 195.906 138.325 196.224C137.99 196.537 137.567 196.79 137.055 196.983C136.55 197.17 135.956 197.264 135.274 197.264ZM136.075 194.997C136.695 194.997 137.232 194.875 137.686 194.631C138.141 194.381 138.49 194.051 138.734 193.642C138.984 193.233 139.109 192.787 139.109 192.304V190.761C139.013 190.841 138.848 190.915 138.615 190.983C138.388 191.051 138.132 191.111 137.848 191.162C137.564 191.213 137.283 191.259 137.004 191.298C136.726 191.338 136.484 191.372 136.28 191.401C135.82 191.463 135.408 191.565 135.044 191.707C134.68 191.849 134.393 192.048 134.183 192.304C133.973 192.554 133.868 192.878 133.868 193.276C133.868 193.844 134.075 194.273 134.49 194.562C134.905 194.852 135.433 194.997 136.075 194.997ZM150.999 197.256C149.692 197.256 148.57 196.969 147.632 196.395C146.7 195.821 145.982 195.028 145.476 194.017C144.976 193 144.726 191.83 144.726 190.506C144.726 189.176 144.982 188.003 145.493 186.986C146.004 185.963 146.726 185.168 147.658 184.599C148.595 184.026 149.703 183.739 150.982 183.739C152.044 183.739 152.984 183.935 153.803 184.327C154.626 184.713 155.283 185.261 155.771 185.972C156.26 186.676 156.538 187.5 156.607 188.443H153.658C153.538 187.812 153.254 187.287 152.805 186.866C152.362 186.44 151.768 186.227 151.024 186.227C150.393 186.227 149.839 186.398 149.362 186.739C148.885 187.074 148.513 187.557 148.246 188.188C147.984 188.818 147.854 189.574 147.854 190.455C147.854 191.347 147.984 192.114 148.246 192.756C148.507 193.392 148.874 193.884 149.345 194.23C149.822 194.571 150.382 194.741 151.024 194.741C151.479 194.741 151.885 194.656 152.243 194.486C152.607 194.31 152.911 194.057 153.155 193.727C153.399 193.398 153.567 192.997 153.658 192.526H156.607C156.533 193.452 156.26 194.273 155.788 194.989C155.317 195.699 154.675 196.256 153.862 196.659C153.05 197.057 152.095 197.256 150.999 197.256ZM159.14 197V183.909H162.225V197H159.14ZM160.691 182.051C160.202 182.051 159.782 181.889 159.43 181.565C159.077 181.236 158.901 180.841 158.901 180.381C158.901 179.915 159.077 179.52 159.43 179.196C159.782 178.866 160.202 178.702 160.691 178.702C161.185 178.702 161.606 178.866 161.952 179.196C162.305 179.52 162.481 179.915 162.481 180.381C162.481 180.841 162.305 181.236 161.952 181.565C161.606 181.889 161.185 182.051 160.691 182.051ZM171.108 197.256C169.83 197.256 168.722 196.974 167.784 196.412C166.847 195.849 166.119 195.062 165.602 194.051C165.091 193.04 164.835 191.858 164.835 190.506C164.835 189.153 165.091 187.969 165.602 186.952C166.119 185.935 166.847 185.145 167.784 184.582C168.722 184.02 169.83 183.739 171.108 183.739C172.386 183.739 173.494 184.02 174.432 184.582C175.369 185.145 176.094 185.935 176.605 186.952C177.122 187.969 177.381 189.153 177.381 190.506C177.381 191.858 177.122 193.04 176.605 194.051C176.094 195.062 175.369 195.849 174.432 196.412C173.494 196.974 172.386 197.256 171.108 197.256ZM171.125 194.784C171.818 194.784 172.398 194.594 172.864 194.213C173.33 193.827 173.676 193.31 173.903 192.662C174.136 192.014 174.253 191.293 174.253 190.497C174.253 189.696 174.136 188.972 173.903 188.324C173.676 187.67 173.33 187.151 172.864 186.764C172.398 186.378 171.818 186.185 171.125 186.185C170.415 186.185 169.824 186.378 169.352 186.764C168.886 187.151 168.537 187.67 168.304 188.324C168.077 188.972 167.963 189.696 167.963 190.497C167.963 191.293 168.077 192.014 168.304 192.662C168.537 193.31 168.886 193.827 169.352 194.213C169.824 194.594 170.415 194.784 171.125 194.784ZM169.923 182.188L171.832 178.293H174.849L172.233 182.188H169.923ZM183.085 189.33V197H179.999V183.909H182.948V186.134H183.102C183.403 185.401 183.883 184.818 184.542 184.386C185.207 183.955 186.028 183.739 187.005 183.739C187.908 183.739 188.695 183.932 189.366 184.318C190.042 184.705 190.565 185.264 190.934 185.997C191.309 186.73 191.494 187.619 191.488 188.665V197H188.403V189.142C188.403 188.267 188.175 187.582 187.721 187.088C187.272 186.594 186.65 186.347 185.854 186.347C185.315 186.347 184.835 186.466 184.414 186.705C183.999 186.937 183.673 187.276 183.434 187.719C183.201 188.162 183.085 188.699 183.085 189.33Z" fill="black"/>
<path d="M69.0653 253.545V271H66.2528L58.0284 259.111H57.8835V271H54.7216V253.545H57.5511L65.767 265.443H65.9205V253.545H69.0653ZM78.1697 271.256C76.8572 271.256 75.7237 270.983 74.7692 270.438C73.8203 269.886 73.0902 269.108 72.5788 268.102C72.0675 267.091 71.8118 265.901 71.8118 264.531C71.8118 263.185 72.0675 262.003 72.5788 260.986C73.0959 259.963 73.8175 259.168 74.7436 258.599C75.6697 258.026 76.7578 257.739 78.0078 257.739C78.8146 257.739 79.576 257.869 80.2919 258.131C81.0135 258.386 81.6499 258.784 82.201 259.324C82.7578 259.864 83.1953 260.551 83.5135 261.386C83.8317 262.216 83.9908 263.205 83.9908 264.352V265.298H73.2607V263.219H81.0334C81.0277 262.628 80.8999 262.102 80.6499 261.642C80.3999 261.176 80.0504 260.81 79.6016 260.543C79.1584 260.276 78.6413 260.142 78.0504 260.142C77.4197 260.142 76.8658 260.295 76.3885 260.602C75.9112 260.903 75.5391 261.301 75.272 261.795C75.0107 262.284 74.8771 262.821 74.8714 263.406V265.222C74.8714 265.983 75.0107 266.636 75.2891 267.182C75.5675 267.722 75.9567 268.136 76.4567 268.426C76.9567 268.71 77.5419 268.852 78.2124 268.852C78.6612 268.852 79.0675 268.79 79.4311 268.665C79.7947 268.534 80.1101 268.344 80.3771 268.094C80.6442 267.844 80.8459 267.534 80.9822 267.165L83.8629 267.489C83.6811 268.25 83.3345 268.915 82.8232 269.483C82.3175 270.045 81.6697 270.483 80.88 270.795C80.0902 271.102 79.1868 271.256 78.1697 271.256ZM92.294 276.182C91.1861 276.182 90.2344 276.031 89.4389 275.73C88.6435 275.435 88.0043 275.037 87.5213 274.537C87.0384 274.037 86.7031 273.483 86.5156 272.875L89.294 272.202C89.419 272.457 89.6009 272.71 89.8395 272.96C90.0781 273.216 90.3991 273.426 90.8026 273.591C91.2116 273.761 91.7259 273.847 92.3452 273.847C93.2202 273.847 93.9446 273.634 94.5185 273.207C95.0923 272.787 95.3793 272.094 95.3793 271.128V268.648H95.2259C95.0668 268.966 94.8338 269.293 94.527 269.628C94.2259 269.963 93.8253 270.244 93.3253 270.472C92.831 270.699 92.2088 270.812 91.4588 270.812C90.4531 270.812 89.5412 270.577 88.723 270.105C87.9105 269.628 87.2628 268.918 86.7798 267.974C86.3026 267.026 86.0639 265.838 86.0639 264.412C86.0639 262.974 86.3026 261.761 86.7798 260.773C87.2628 259.778 87.9134 259.026 88.7315 258.514C89.5497 257.997 90.4616 257.739 91.4673 257.739C92.2344 257.739 92.8651 257.869 93.3594 258.131C93.8594 258.386 94.2571 258.696 94.5526 259.06C94.848 259.418 95.0724 259.756 95.2259 260.074H95.3963V257.909H98.4389V271.213C98.4389 272.332 98.1719 273.259 97.6378 273.991C97.1037 274.724 96.3736 275.273 95.4474 275.636C94.5213 276 93.4702 276.182 92.294 276.182ZM92.3196 268.392C92.973 268.392 93.5298 268.233 93.9901 267.915C94.4503 267.597 94.7997 267.139 95.0384 266.543C95.277 265.946 95.3963 265.23 95.3963 264.395C95.3963 263.571 95.277 262.849 95.0384 262.23C94.8054 261.611 94.4588 261.131 93.9986 260.79C93.544 260.443 92.9844 260.27 92.3196 260.27C91.6321 260.27 91.0582 260.449 90.598 260.807C90.1378 261.165 89.7912 261.656 89.5582 262.281C89.3253 262.901 89.2088 263.605 89.2088 264.395C89.2088 265.196 89.3253 265.898 89.5582 266.5C89.7969 267.097 90.1463 267.562 90.6065 267.898C91.0724 268.227 91.6435 268.392 92.3196 268.392ZM105.368 271.264C104.538 271.264 103.791 271.116 103.126 270.821C102.467 270.52 101.945 270.077 101.558 269.491C101.178 268.906 100.987 268.185 100.987 267.327C100.987 266.588 101.124 265.977 101.396 265.494C101.669 265.011 102.041 264.625 102.513 264.335C102.984 264.045 103.516 263.827 104.107 263.679C104.703 263.526 105.32 263.415 105.956 263.347C106.723 263.267 107.345 263.196 107.822 263.134C108.3 263.065 108.646 262.963 108.862 262.827C109.084 262.685 109.195 262.466 109.195 262.17V262.119C109.195 261.477 109.004 260.98 108.624 260.628C108.243 260.276 107.695 260.099 106.979 260.099C106.223 260.099 105.624 260.264 105.18 260.594C104.743 260.923 104.447 261.312 104.294 261.761L101.413 261.352C101.641 260.557 102.016 259.892 102.538 259.358C103.061 258.818 103.7 258.415 104.456 258.148C105.212 257.875 106.047 257.739 106.962 257.739C107.592 257.739 108.22 257.812 108.845 257.96C109.47 258.108 110.041 258.352 110.558 258.693C111.075 259.028 111.49 259.486 111.803 260.065C112.121 260.645 112.28 261.369 112.28 262.239V271H109.314V269.202H109.212C109.024 269.565 108.76 269.906 108.419 270.224C108.084 270.537 107.661 270.79 107.149 270.983C106.643 271.17 106.05 271.264 105.368 271.264ZM106.169 268.997C106.788 268.997 107.325 268.875 107.78 268.631C108.234 268.381 108.584 268.051 108.828 267.642C109.078 267.233 109.203 266.787 109.203 266.304V264.761C109.107 264.841 108.942 264.915 108.709 264.983C108.482 265.051 108.226 265.111 107.942 265.162C107.658 265.213 107.376 265.259 107.098 265.298C106.82 265.338 106.578 265.372 106.374 265.401C105.913 265.463 105.501 265.565 105.138 265.707C104.774 265.849 104.487 266.048 104.277 266.304C104.067 266.554 103.962 266.878 103.962 267.276C103.962 267.844 104.169 268.273 104.584 268.562C104.999 268.852 105.527 268.997 106.169 268.997ZM121.919 257.909V260.295H114.393V257.909H121.919ZM116.251 254.773H119.337V267.062C119.337 267.477 119.399 267.795 119.524 268.017C119.655 268.233 119.825 268.381 120.036 268.46C120.246 268.54 120.479 268.58 120.734 268.58C120.928 268.58 121.104 268.565 121.263 268.537C121.428 268.509 121.553 268.483 121.638 268.46L122.158 270.872C121.993 270.929 121.757 270.991 121.45 271.06C121.149 271.128 120.78 271.168 120.342 271.179C119.57 271.202 118.874 271.085 118.254 270.83C117.635 270.568 117.143 270.165 116.78 269.619C116.422 269.074 116.246 268.392 116.251 267.574V254.773ZM124.499 271V257.909H127.585V271H124.499ZM126.05 256.051C125.562 256.051 125.141 255.889 124.789 255.565C124.437 255.236 124.261 254.841 124.261 254.381C124.261 253.915 124.437 253.52 124.789 253.196C125.141 252.866 125.562 252.702 126.05 252.702C126.545 252.702 126.965 252.866 127.312 253.196C127.664 253.52 127.84 253.915 127.84 254.381C127.84 254.841 127.664 255.236 127.312 255.565C126.965 255.889 126.545 256.051 126.05 256.051ZM142.45 257.909L137.788 271H134.379L129.717 257.909H133.007L136.016 267.634H136.152L139.169 257.909H142.45ZM147.977 271.264C147.148 271.264 146.401 271.116 145.736 270.821C145.077 270.52 144.554 270.077 144.168 269.491C143.787 268.906 143.597 268.185 143.597 267.327C143.597 266.588 143.733 265.977 144.006 265.494C144.278 265.011 144.651 264.625 145.122 264.335C145.594 264.045 146.125 263.827 146.716 263.679C147.313 263.526 147.929 263.415 148.565 263.347C149.332 263.267 149.955 263.196 150.432 263.134C150.909 263.065 151.256 262.963 151.472 262.827C151.693 262.685 151.804 262.466 151.804 262.17V262.119C151.804 261.477 151.614 260.98 151.233 260.628C150.852 260.276 150.304 260.099 149.588 260.099C148.832 260.099 148.233 260.264 147.79 260.594C147.352 260.923 147.057 261.312 146.903 261.761L144.023 261.352C144.25 260.557 144.625 259.892 145.148 259.358C145.67 258.818 146.31 258.415 147.065 258.148C147.821 257.875 148.656 257.739 149.571 257.739C150.202 257.739 150.83 257.812 151.455 257.96C152.08 258.108 152.651 258.352 153.168 258.693C153.685 259.028 154.099 259.486 154.412 260.065C154.73 260.645 154.889 261.369 154.889 262.239V271H151.923V269.202H151.821C151.634 269.565 151.369 269.906 151.028 270.224C150.693 270.537 150.27 270.79 149.759 270.983C149.253 271.17 148.659 271.264 147.977 271.264ZM148.778 268.997C149.398 268.997 149.935 268.875 150.389 268.631C150.844 268.381 151.193 268.051 151.438 267.642C151.688 267.233 151.812 266.787 151.812 266.304V264.761C151.716 264.841 151.551 264.915 151.318 264.983C151.091 265.051 150.835 265.111 150.551 265.162C150.267 265.213 149.986 265.259 149.707 265.298C149.429 265.338 149.188 265.372 148.983 265.401C148.523 265.463 148.111 265.565 147.747 265.707C147.384 265.849 147.097 266.048 146.886 266.304C146.676 266.554 146.571 266.878 146.571 267.276C146.571 267.844 146.778 268.273 147.193 268.562C147.608 268.852 148.136 268.997 148.778 268.997Z" fill="black"/>
<defs>
<filter id="filter0_d_1092_381" x="0" y="0" width="415" height="480" filterUnits="userSpaceOnUse" color-interpolation-filters="sRGB">
<feFlood flood-opacity="0" result="BackgroundImageFix"/>
<feColorMatrix in="SourceAlpha" type="matrix" values="0 0 0 0 0 0 0 0 0 0 0 0 0 0 0 0 0 0 127 0" result="hardAlpha"/>
<feOffset dx="1" dy="1"/>
<feGaussianBlur stdDeviation="2"/>
<feComposite in2="hardAlpha" operator="out"/>
<feColorMatrix type="matrix" values="0 0 0 0 0 0 0 0 0 0 0 0 0 0 0 0 0 0 0.25 0"/>
<feBlend mode="normal" in2="BackgroundImageFix" result="effect1_dropShadow_1092_381"/>
<feBlend mode="normal" in="SourceGraphic" in2="effect1_dropShadow_1092_381" result="shape"/>
</filter>
</defs>
</svg>
