<svg width="415" height="123" viewBox="0 0 415 123" fill="none" xmlns="http://www.w3.org/2000/svg">
<g filter="url(#filter0_d_1092_406)">
<rect x="3" y="3" width="407" height="115" rx="4" fill="white"/>
</g>
<path d="M26.7216 42V24.5455H33.267C34.608 24.5455 35.733 24.7784 36.642 25.2443C37.5568 25.7102 38.2472 26.3636 38.7131 27.2045C39.1847 28.0398 39.4205 29.0142 39.4205 30.1278C39.4205 31.2472 39.1818 32.2187 38.7045 33.0426C38.233 33.8608 37.5369 34.4943 36.6165 34.9432C35.696 35.3864 34.5653 35.608 33.2244 35.608H28.5625V32.983H32.7983C33.5824 32.983 34.2244 32.875 34.7244 32.6591C35.2244 32.4375 35.5938 32.1165 35.8324 31.696C36.0767 31.2699 36.1989 30.7472 36.1989 30.1278C36.1989 29.5085 36.0767 28.9801 35.8324 28.5426C35.5881 28.0994 35.2159 27.7642 34.7159 27.5369C34.2159 27.304 33.571 27.1875 32.7812 27.1875H29.8835V42H26.7216ZM35.7386 34.0909L40.0597 42H36.5312L32.2869 34.0909H35.7386ZM47.8026 42.2557C46.4901 42.2557 45.3565 41.983 44.402 41.4375C43.4531 40.8864 42.723 40.108 42.2116 39.1023C41.7003 38.0909 41.4446 36.9006 41.4446 35.5312C41.4446 34.1847 41.7003 33.0028 42.2116 31.9858C42.7287 30.9631 43.4503 30.1676 44.3764 29.5994C45.3026 29.0256 46.3906 28.7386 47.6406 28.7386C48.4474 28.7386 49.2088 28.8693 49.9247 29.1307C50.6463 29.3864 51.2827 29.7841 51.8338 30.3239C52.3906 30.8636 52.8281 31.5511 53.1463 32.3864C53.4645 33.2159 53.6236 34.2045 53.6236 35.3523V36.2983H42.8935V34.2188H50.6662C50.6605 33.6278 50.5327 33.1023 50.2827 32.642C50.0327 32.1761 49.6832 31.8097 49.2344 31.5426C48.7912 31.2756 48.2741 31.142 47.6832 31.142C47.0526 31.142 46.4986 31.2955 46.0213 31.6023C45.544 31.9034 45.1719 32.3011 44.9048 32.7955C44.6435 33.2841 44.5099 33.821 44.5043 34.4062V36.2216C44.5043 36.983 44.6435 37.6364 44.9219 38.1818C45.2003 38.7216 45.5895 39.1364 46.0895 39.4261C46.5895 39.7102 47.1747 39.8523 47.8452 39.8523C48.294 39.8523 48.7003 39.7898 49.0639 39.6648C49.4276 39.5341 49.7429 39.3438 50.0099 39.0938C50.277 38.8438 50.4787 38.5341 50.6151 38.1648L53.4957 38.4886C53.3139 39.25 52.9673 39.9148 52.456 40.483C51.9503 41.0455 51.3026 41.483 50.5128 41.7955C49.723 42.1023 48.8196 42.2557 47.8026 42.2557ZM61.9439 42.2557C60.6371 42.2557 59.5149 41.9688 58.5774 41.3949C57.6456 40.821 56.9268 40.0284 56.4212 39.017C55.9212 38 55.6712 36.8295 55.6712 35.5057C55.6712 34.1761 55.9268 33.0028 56.4382 31.9858C56.9496 30.9631 57.6712 30.1676 58.603 29.5994C59.5405 29.0256 60.6484 28.7386 61.9268 28.7386C62.9893 28.7386 63.9297 28.9347 64.7479 29.3267C65.5717 29.7131 66.228 30.2614 66.7166 30.9716C67.2053 31.6761 67.4837 32.5 67.5518 33.4432H64.603C64.4837 32.8125 64.1996 32.2869 63.7507 31.8665C63.3075 31.4403 62.7138 31.2273 61.9695 31.2273C61.3388 31.2273 60.7848 31.3977 60.3075 31.7386C59.8303 32.0739 59.4581 32.5568 59.1911 33.1875C58.9297 33.8182 58.799 34.5739 58.799 35.4545C58.799 36.3466 58.9297 37.1136 59.1911 37.7557C59.4524 38.392 59.8189 38.8835 60.2905 39.2301C60.7678 39.571 61.3274 39.7415 61.9695 39.7415C62.424 39.7415 62.8303 39.6562 63.1882 39.4858C63.5518 39.3097 63.8558 39.0568 64.1001 38.7273C64.3445 38.3977 64.5121 37.9972 64.603 37.5256H67.5518C67.478 38.4517 67.2053 39.2727 66.7337 39.9886C66.2621 40.6989 65.62 41.2557 64.8075 41.6591C63.995 42.0568 63.0405 42.2557 61.9439 42.2557ZM78.429 36.4943V28.9091H81.5142V42H78.5227V39.6733H78.3864C78.0909 40.4062 77.6051 41.0057 76.929 41.4716C76.2585 41.9375 75.4318 42.1705 74.4489 42.1705C73.5909 42.1705 72.8324 41.9801 72.1733 41.5994C71.5199 41.2131 71.0085 40.6534 70.6392 39.9205C70.2699 39.1818 70.0852 38.2898 70.0852 37.2443V28.9091H73.1705V36.767C73.1705 37.5966 73.3977 38.2557 73.8523 38.7443C74.3068 39.233 74.9034 39.4773 75.642 39.4773C76.0966 39.4773 76.5369 39.3665 76.9631 39.1449C77.3892 38.9233 77.7386 38.5938 78.0114 38.1562C78.2898 37.7131 78.429 37.1591 78.429 36.4943ZM84.6868 46.9091V28.9091H87.7209V31.0739H87.8999C88.0589 30.7557 88.2834 30.4176 88.5732 30.0597C88.8629 29.696 89.255 29.3864 89.7493 29.1307C90.2436 28.8693 90.8743 28.7386 91.6413 28.7386C92.6527 28.7386 93.5646 28.9972 94.3771 29.5142C95.1953 30.0256 95.843 30.7841 96.3203 31.7898C96.8033 32.7898 97.0447 34.017 97.0447 35.4716C97.0447 36.9091 96.8089 38.1307 96.3374 39.1364C95.8658 40.142 95.2237 40.9091 94.4112 41.4375C93.5987 41.9659 92.6783 42.2301 91.6499 42.2301C90.8999 42.2301 90.2777 42.1051 89.7834 41.8551C89.2891 41.6051 88.8913 41.304 88.5902 40.9517C88.2947 40.5937 88.0646 40.2557 87.8999 39.9375H87.772V46.9091H84.6868ZM87.7124 35.4545C87.7124 36.3011 87.8317 37.0426 88.0703 37.679C88.3146 38.3153 88.6641 38.8125 89.1186 39.1705C89.5788 39.5227 90.1357 39.6989 90.7891 39.6989C91.4709 39.6989 92.0419 39.517 92.5021 39.1534C92.9624 38.7841 93.3089 38.2812 93.5419 37.6449C93.7805 37.0028 93.8999 36.2727 93.8999 35.4545C93.8999 34.642 93.7834 33.9205 93.5504 33.2898C93.3175 32.6591 92.9709 32.1648 92.5107 31.8068C92.0504 31.4489 91.4766 31.2699 90.7891 31.2699C90.13 31.2699 89.5703 31.4432 89.1101 31.7898C88.6499 32.1364 88.3004 32.6222 88.0618 33.2472C87.8288 33.8722 87.7124 34.608 87.7124 35.4545ZM105.482 42.2557C104.17 42.2557 103.036 41.983 102.082 41.4375C101.133 40.8864 100.403 40.108 99.8913 39.1023C99.38 38.0909 99.1243 36.9006 99.1243 35.5312C99.1243 34.1847 99.38 33.0028 99.8913 31.9858C100.408 30.9631 101.13 30.1676 102.056 29.5994C102.982 29.0256 104.07 28.7386 105.32 28.7386C106.127 28.7386 106.888 28.8693 107.604 29.1307C108.326 29.3864 108.962 29.7841 109.513 30.3239C110.07 30.8636 110.508 31.5511 110.826 32.3864C111.144 33.2159 111.303 34.2045 111.303 35.3523V36.2983H100.573V34.2188H108.346C108.34 33.6278 108.212 33.1023 107.962 32.642C107.712 32.1761 107.363 31.8097 106.914 31.5426C106.471 31.2756 105.954 31.142 105.363 31.142C104.732 31.142 104.178 31.2955 103.701 31.6023C103.224 31.9034 102.852 32.3011 102.585 32.7955C102.323 33.2841 102.19 33.821 102.184 34.4062V36.2216C102.184 36.983 102.323 37.6364 102.602 38.1818C102.88 38.7216 103.269 39.1364 103.769 39.4261C104.269 39.7102 104.854 39.8523 105.525 39.8523C105.974 39.8523 106.38 39.7898 106.744 39.6648C107.107 39.5341 107.423 39.3438 107.69 39.0938C107.957 38.8438 108.158 38.5341 108.295 38.1648L111.175 38.4886C110.994 39.25 110.647 39.9148 110.136 40.483C109.63 41.0455 108.982 41.483 108.192 41.7955C107.403 42.1023 106.499 42.2557 105.482 42.2557ZM113.913 42V28.9091H116.905V31.0909H117.041C117.28 30.3352 117.689 29.7528 118.268 29.3438C118.854 28.929 119.521 28.7216 120.271 28.7216C120.442 28.7216 120.632 28.7301 120.842 28.7472C121.058 28.7585 121.237 28.7784 121.379 28.8068V31.6449C121.249 31.5994 121.041 31.5597 120.757 31.5256C120.479 31.4858 120.209 31.4659 119.947 31.4659C119.385 31.4659 118.879 31.5881 118.43 31.8324C117.987 32.071 117.638 32.4034 117.382 32.8295C117.126 33.2557 116.999 33.7472 116.999 34.304V42H113.913ZM126.962 42.2642C126.132 42.2642 125.385 42.1165 124.72 41.821C124.061 41.5199 123.538 41.0767 123.152 40.4915C122.771 39.9062 122.581 39.1847 122.581 38.3267C122.581 37.5881 122.717 36.9773 122.99 36.4943C123.263 36.0114 123.635 35.625 124.107 35.3352C124.578 35.0455 125.109 34.8267 125.7 34.679C126.297 34.5256 126.913 34.4148 127.55 34.3466C128.317 34.267 128.939 34.196 129.416 34.1335C129.893 34.0653 130.24 33.9631 130.456 33.8267C130.678 33.6847 130.788 33.4659 130.788 33.1705V33.1193C130.788 32.4773 130.598 31.9801 130.217 31.6278C129.837 31.2756 129.288 31.0994 128.572 31.0994C127.817 31.0994 127.217 31.2642 126.774 31.5938C126.337 31.9233 126.041 32.3125 125.888 32.7614L123.007 32.3523C123.234 31.5568 123.609 30.892 124.132 30.358C124.655 29.8182 125.294 29.4148 126.05 29.1477C126.805 28.875 127.641 28.7386 128.555 28.7386C129.186 28.7386 129.814 28.8125 130.439 28.9602C131.064 29.108 131.635 29.3523 132.152 29.6932C132.669 30.0284 133.084 30.4858 133.396 31.0653C133.714 31.6449 133.874 32.3693 133.874 33.2386V42H130.908V40.2017H130.805C130.618 40.5653 130.354 40.9062 130.013 41.2244C129.678 41.5369 129.254 41.7898 128.743 41.983C128.237 42.1705 127.643 42.2642 126.962 42.2642ZM127.763 39.9972C128.382 39.9972 128.919 39.875 129.374 39.6307C129.828 39.3807 130.178 39.0511 130.422 38.642C130.672 38.233 130.797 37.7869 130.797 37.304V35.7614C130.7 35.8409 130.536 35.9148 130.303 35.983C130.075 36.0511 129.82 36.1108 129.536 36.1619C129.251 36.2131 128.97 36.2585 128.692 36.2983C128.413 36.3381 128.172 36.3722 127.967 36.4006C127.507 36.4631 127.095 36.5653 126.732 36.7074C126.368 36.8494 126.081 37.0483 125.871 37.304C125.661 37.554 125.555 37.8778 125.555 38.2756C125.555 38.8438 125.763 39.2727 126.178 39.5625C126.592 39.8523 127.121 39.9972 127.763 39.9972ZM141.834 42.2301C140.805 42.2301 139.885 41.9659 139.072 41.4375C138.26 40.9091 137.618 40.142 137.146 39.1364C136.675 38.1307 136.439 36.9091 136.439 35.4716C136.439 34.017 136.678 32.7898 137.155 31.7898C137.638 30.7841 138.288 30.0256 139.107 29.5142C139.925 28.9972 140.837 28.7386 141.842 28.7386C142.609 28.7386 143.24 28.8693 143.734 29.1307C144.229 29.3864 144.621 29.696 144.911 30.0597C145.2 30.4176 145.425 30.7557 145.584 31.0739H145.712V24.5455H148.805V42H145.771V39.9375H145.584C145.425 40.2557 145.195 40.5937 144.893 40.9517C144.592 41.304 144.195 41.6051 143.7 41.8551C143.206 42.1051 142.584 42.2301 141.834 42.2301ZM142.695 39.6989C143.348 39.6989 143.905 39.5227 144.365 39.1705C144.825 38.8125 145.175 38.3153 145.413 37.679C145.652 37.0426 145.771 36.3011 145.771 35.4545C145.771 34.608 145.652 33.8722 145.413 33.2472C145.18 32.6222 144.834 32.1364 144.374 31.7898C143.919 31.4432 143.359 31.2699 142.695 31.2699C142.007 31.2699 141.433 31.4489 140.973 31.8068C140.513 32.1648 140.166 32.6591 139.933 33.2898C139.7 33.9205 139.584 34.642 139.584 35.4545C139.584 36.2727 139.7 37.0028 139.933 37.6449C140.172 38.2812 140.521 38.7841 140.982 39.1534C141.447 39.517 142.018 39.6989 142.695 39.6989ZM157.803 42.2557C156.525 42.2557 155.417 41.9744 154.479 41.4119C153.542 40.8494 152.815 40.0625 152.298 39.0511C151.786 38.0398 151.531 36.858 151.531 35.5057C151.531 34.1534 151.786 32.9687 152.298 31.9517C152.815 30.9347 153.542 30.1449 154.479 29.5824C155.417 29.0199 156.525 28.7386 157.803 28.7386C159.082 28.7386 160.19 29.0199 161.127 29.5824C162.065 30.1449 162.789 30.9347 163.3 31.9517C163.817 32.9687 164.076 34.1534 164.076 35.5057C164.076 36.858 163.817 38.0398 163.3 39.0511C162.789 40.0625 162.065 40.8494 161.127 41.4119C160.19 41.9744 159.082 42.2557 157.803 42.2557ZM157.82 39.7841C158.513 39.7841 159.093 39.5937 159.559 39.2131C160.025 38.8267 160.371 38.3097 160.599 37.6619C160.832 37.0142 160.948 36.2926 160.948 35.4972C160.948 34.696 160.832 33.9716 160.599 33.3239C160.371 32.6705 160.025 32.1506 159.559 31.7642C159.093 31.3778 158.513 31.1847 157.82 31.1847C157.11 31.1847 156.519 31.3778 156.048 31.7642C155.582 32.1506 155.232 32.6705 154.999 33.3239C154.772 33.9716 154.658 34.696 154.658 35.4972C154.658 36.2926 154.772 37.0142 154.999 37.6619C155.232 38.3097 155.582 38.8267 156.048 39.2131C156.519 39.5937 157.11 39.7841 157.82 39.7841Z" fill="#535353"/>
<path d="M39.7496 91.4474C37.3633 91.4474 35.2379 91.0373 33.3736 90.217C31.5199 89.386 30.055 88.2461 28.979 86.7972C27.9137 85.3377 27.3651 83.6545 27.3331 81.7475H34.3004C34.343 82.5465 34.604 83.2496 35.0835 83.8569C35.5735 84.4535 36.2234 84.9169 37.033 85.2472C37.8427 85.5774 38.7536 85.7425 39.7656 85.7425C40.8203 85.7425 41.7525 85.5561 42.5621 85.1832C43.3718 84.8104 44.0057 84.2937 44.4638 83.6332C44.9219 82.9727 45.1509 82.2109 45.1509 81.348C45.1509 80.4744 44.9059 79.7021 44.4158 79.0309C43.9364 78.3491 43.244 77.8164 42.3384 77.4329C41.4435 77.0494 40.3782 76.8576 39.1424 76.8576H36.0902V71.7759H39.1424C40.1864 71.7759 41.108 71.5948 41.907 71.2326C42.7166 70.8704 43.3452 70.3697 43.7926 69.7305C44.2401 69.0806 44.4638 68.3242 44.4638 67.4613C44.4638 66.641 44.2667 65.9219 43.8725 65.304C43.489 64.6754 42.9457 64.1854 42.2425 63.8338C41.5501 63.4822 40.7404 63.3065 39.8136 63.3065C38.8761 63.3065 38.0185 63.4769 37.2408 63.8178C36.4631 64.1481 35.8398 64.6222 35.3711 65.2401C34.9023 65.858 34.652 66.5824 34.62 67.4134H27.9883C28.0202 65.5277 28.5582 63.8658 29.6023 62.4276C30.6463 60.9893 32.0526 59.8654 33.821 59.0558C35.6001 58.2354 37.6083 57.8253 39.8455 57.8253C42.104 57.8253 44.0803 58.2354 45.7741 59.0558C47.468 59.8761 48.7837 60.984 49.7212 62.3796C50.6694 63.7646 51.1381 65.32 51.1275 67.0458C51.1381 68.8782 50.5682 70.407 49.4176 71.6321C48.2777 72.8572 46.7915 73.6349 44.9592 73.9652V74.2209C47.3668 74.5298 49.1992 75.3661 50.4563 76.7298C51.7241 78.0827 52.3526 79.7766 52.342 81.8114C52.3526 83.6758 51.8146 85.3324 50.728 86.7812C49.652 88.2301 48.1658 89.37 46.2695 90.201C44.3732 91.032 42.1999 91.4474 39.7496 91.4474ZM60.4359 91.4155C59.3812 91.4155 58.4757 91.0426 57.7193 90.2969C56.9735 89.5405 56.6007 88.6349 56.6007 87.5803C56.6007 86.5362 56.9735 85.6413 57.7193 84.8956C58.4757 84.1499 59.3812 83.777 60.4359 83.777C61.4586 83.777 62.3535 84.1499 63.1206 84.8956C63.8876 85.6413 64.2711 86.5362 64.2711 87.5803C64.2711 88.2834 64.09 88.9279 63.7278 89.5138C63.3762 90.0891 62.9128 90.5526 62.3375 90.9041C61.7623 91.245 61.1284 91.4155 60.4359 91.4155ZM69.8602 91L83.4273 64.1534V63.9297H67.623V58.2727H90.5864V64.0096L77.0033 91H69.8602ZM92.1964 85.2472V79.7979L105.859 58.2727H110.558V65.8153H107.777L99.1637 79.4464V79.7021H118.58V85.2472H92.1964ZM107.905 91V83.5852L108.033 81.1722V58.2727H114.521V91H107.905ZM135.399 91.4474C132.938 91.4474 130.748 91.0479 128.831 90.2489C126.924 89.4393 125.427 88.3366 124.34 86.9411C123.254 85.5455 122.71 83.9634 122.71 82.195C122.71 80.8313 123.019 79.5795 123.637 78.4396C124.266 77.2891 125.118 76.3356 126.194 75.5792C127.27 74.8121 128.474 74.3221 129.806 74.109V73.8853C128.058 73.5337 126.642 72.6868 125.555 71.3445C124.468 69.9915 123.925 68.4201 123.925 66.6303C123.925 64.9364 124.42 63.429 125.411 62.108C126.402 60.7763 127.76 59.7322 129.486 58.9759C131.222 58.2088 133.193 57.8253 135.399 57.8253C137.604 57.8253 139.569 58.2088 141.295 58.9759C143.032 59.7429 144.395 60.7923 145.386 62.1239C146.377 63.445 146.878 64.9471 146.888 66.6303C146.878 68.4308 146.324 70.0021 145.226 71.3445C144.129 72.6868 142.723 73.5337 141.008 73.8853V74.109C142.318 74.3221 143.506 74.8121 144.571 75.5792C145.647 76.3356 146.499 77.2891 147.128 78.4396C147.767 79.5795 148.092 80.8313 148.103 82.195C148.092 83.9634 147.544 85.5455 146.457 86.9411C145.37 88.3366 143.868 89.4393 141.95 90.2489C140.044 91.0479 137.86 91.4474 135.399 91.4474ZM135.399 86.3658C136.496 86.3658 137.455 86.1687 138.275 85.7745C139.095 85.3697 139.735 84.8157 140.193 84.1126C140.661 83.3988 140.896 82.5785 140.896 81.6516C140.896 80.7035 140.656 79.8672 140.177 79.1428C139.697 78.4077 139.047 77.8324 138.227 77.4169C137.407 76.9908 136.464 76.7777 135.399 76.7777C134.344 76.7777 133.401 76.9908 132.57 77.4169C131.739 77.8324 131.084 78.4077 130.605 79.1428C130.136 79.8672 129.901 80.7035 129.901 81.6516C129.901 82.5785 130.131 83.3988 130.589 84.1126C131.047 84.8157 131.691 85.3697 132.522 85.7745C133.353 86.1687 134.312 86.3658 135.399 86.3658ZM135.399 71.744C136.315 71.744 137.13 71.5575 137.844 71.1847C138.557 70.8118 139.117 70.2951 139.521 69.6346C139.926 68.9741 140.129 68.2124 140.129 67.3494C140.129 66.4972 139.926 65.7514 139.521 65.1122C139.117 64.4624 138.563 63.9563 137.86 63.5941C137.156 63.2212 136.336 63.0348 135.399 63.0348C134.472 63.0348 133.651 63.2212 132.938 63.5941C132.224 63.9563 131.665 64.4624 131.26 65.1122C130.866 65.7514 130.669 66.4972 130.669 67.3494C130.669 68.2124 130.871 68.9741 131.276 69.6346C131.681 70.2951 132.24 70.8118 132.954 71.1847C133.667 71.5575 134.482 71.744 135.399 71.744ZM153.133 58.2727H161.666L170.679 80.2614H171.062L180.075 58.2727H188.608V91H181.897V69.6985H181.625L173.156 90.8402H168.585L160.116 69.6186H159.844V91H153.133V58.2727Z" fill="#535353"/>
<rect x="291" y="54" width="97" height="45" rx="10" fill="#DEF5E5"/>
<path d="M310.46 83.0085V69.4318H313.892V83.0085H310.46ZM305.387 77.9364V74.5039H318.964V77.9364H305.387ZM322.389 86V83.0085L329.379 76.5366C329.974 75.9613 330.472 75.4435 330.875 74.9833C331.284 74.5231 331.594 74.0724 331.805 73.6314C332.016 73.1839 332.121 72.7013 332.121 72.1836C332.121 71.6083 331.99 71.1129 331.728 70.6974C331.466 70.2756 331.108 69.9528 330.654 69.729C330.201 69.4989 329.686 69.3839 329.111 69.3839C328.51 69.3839 327.986 69.5053 327.538 69.7482C327.091 69.9911 326.746 70.3395 326.503 70.7933C326.26 71.2472 326.138 71.7873 326.138 72.4137H322.198C322.198 71.1289 322.489 70.0135 323.07 69.0675C323.652 68.1214 324.467 67.3896 325.515 66.8718C326.563 66.354 327.772 66.0952 329.139 66.0952C330.546 66.0952 331.77 66.3445 332.812 66.843C333.86 67.3352 334.675 68.0192 335.257 68.8949C335.838 69.7706 336.129 70.7741 336.129 71.9055C336.129 72.647 335.982 73.3789 335.688 74.1012C335.4 74.8235 334.886 75.6257 334.144 76.5078C333.403 77.3835 332.358 78.435 331.009 79.6623L328.142 82.4716V82.6058H336.388V86H322.389ZM338.677 82.5483V79.2788L346.875 66.3636H349.694V70.8892H348.026L342.858 79.0678V79.2212H354.507V82.5483H338.677ZM348.102 86V81.5511L348.179 80.1033V66.3636H352.072V86H348.102ZM368.021 82.3182V81.2827C368.021 80.4964 368.188 79.7741 368.52 79.1158C368.859 78.451 369.348 77.9205 369.987 77.5241C370.633 77.1214 371.419 76.9201 372.346 76.9201C373.285 76.9201 374.075 77.1183 374.714 77.5146C375.36 77.9109 375.845 78.4414 376.171 79.1062C376.504 79.7646 376.67 80.4901 376.67 81.2827V82.3182C376.67 83.1044 376.504 83.8299 376.171 84.4947C375.839 85.1531 375.35 85.6804 374.704 86.0767C374.059 86.4794 373.273 86.6808 372.346 86.6808C371.406 86.6808 370.617 86.4794 369.977 86.0767C369.338 85.6804 368.852 85.1531 368.52 84.4947C368.188 83.8299 368.021 83.1044 368.021 82.3182ZM370.812 81.2827V82.3182C370.812 82.772 370.92 83.2003 371.138 83.603C371.361 84.0057 371.764 84.207 372.346 84.207C372.927 84.207 373.324 84.0089 373.535 83.6126C373.752 83.2163 373.861 82.7848 373.861 82.3182V81.2827C373.861 80.8161 373.758 80.3814 373.554 79.9787C373.349 79.576 372.947 79.3746 372.346 79.3746C371.77 79.3746 371.371 79.576 371.147 79.9787C370.923 80.3814 370.812 80.8161 370.812 81.2827ZM357.944 71.081V70.0455C357.944 69.2528 358.114 68.5273 358.453 67.869C358.791 67.2042 359.28 66.6736 359.92 66.2773C360.565 65.881 361.345 65.6829 362.259 65.6829C363.205 65.6829 363.998 65.881 364.637 66.2773C365.276 66.6736 365.762 67.2042 366.094 67.869C366.427 68.5273 366.593 69.2528 366.593 70.0455V71.081C366.593 71.8736 366.423 72.5991 366.085 73.2575C365.752 73.9158 365.263 74.4432 364.618 74.8395C363.979 75.2294 363.192 75.4244 362.259 75.4244C361.326 75.4244 360.536 75.2262 359.891 74.8299C359.252 74.4272 358.766 73.8999 358.433 73.2479C358.107 72.5895 357.944 71.8672 357.944 71.081ZM360.754 70.0455V71.081C360.754 71.5476 360.862 71.979 361.08 72.3754C361.303 72.7717 361.697 72.9698 362.259 72.9698C362.847 72.9698 363.247 72.7717 363.458 72.3754C363.675 71.979 363.784 71.5476 363.784 71.081V70.0455C363.784 69.5788 363.681 69.1442 363.477 68.7415C363.272 68.3388 362.866 68.1374 362.259 68.1374C361.69 68.1374 361.297 68.342 361.08 68.7511C360.862 69.1602 360.754 69.5916 360.754 70.0455ZM359.21 86L372.71 66.3636H375.222L361.722 86H359.21Z" fill="#30C778"/>
<defs>
<filter id="filter0_d_1092_406" x="0" y="0" width="415" height="123" filterUnits="userSpaceOnUse" color-interpolation-filters="sRGB">
<feFlood flood-opacity="0" result="BackgroundImageFix"/>
<feColorMatrix in="SourceAlpha" type="matrix" values="0 0 0 0 0 0 0 0 0 0 0 0 0 0 0 0 0 0 127 0" result="hardAlpha"/>
<feOffset dx="1" dy="1"/>
<feGaussianBlur stdDeviation="2"/>
<feComposite in2="hardAlpha" operator="out"/>
<feColorMatrix type="matrix" values="0 0 0 0 0 0 0 0 0 0 0 0 0 0 0 0 0 0 0.25 0"/>
<feBlend mode="normal" in2="BackgroundImageFix" result="effect1_dropShadow_1092_406"/>
<feBlend mode="normal" in="SourceGraphic" in2="effect1_dropShadow_1092_406" result="shape"/>
</filter>
</defs>
</svg>
