<svg width="560" height="608" viewBox="0 0 560 608" fill="none" xmlns="http://www.w3.org/2000/svg">
<g filter="url(#filter0_d_1092_451)">
<rect x="77" y="8" width="407" height="472" rx="4" fill="#E5FDFF"/>
</g>
<path d="M165.429 67V52.4545H170.883C172.001 52.4545 172.938 52.6487 173.696 53.0369C174.458 53.4252 175.033 53.9697 175.422 54.6705C175.815 55.3665 176.011 56.1785 176.011 57.1065C176.011 58.0393 175.812 58.849 175.415 59.5355C175.022 60.2173 174.442 60.7453 173.675 61.1193C172.907 61.4886 171.965 61.6733 170.848 61.6733H166.963V59.4858H170.493C171.146 59.4858 171.681 59.3958 172.098 59.2159C172.515 59.0312 172.822 58.7637 173.021 58.4134C173.225 58.0582 173.327 57.6226 173.327 57.1065C173.327 56.5904 173.225 56.1501 173.021 55.7855C172.818 55.4162 172.507 55.1368 172.091 54.9474C171.674 54.7533 171.137 54.6562 170.479 54.6562H168.064V67H165.429ZM172.943 60.4091L176.544 67H173.604L170.067 60.4091H172.943ZM182.996 67.2131C181.903 67.2131 180.958 66.9858 180.162 66.5312C179.372 66.072 178.763 65.4233 178.337 64.5852C177.911 63.7424 177.698 62.7505 177.698 61.6094C177.698 60.4872 177.911 59.5024 178.337 58.6548C178.768 57.8026 179.369 57.1397 180.141 56.6662C180.913 56.188 181.82 55.9489 182.861 55.9489C183.534 55.9489 184.168 56.0578 184.765 56.2756C185.366 56.4886 185.896 56.8201 186.356 57.2699C186.82 57.7197 187.184 58.2926 187.449 58.9886C187.715 59.6799 187.847 60.5038 187.847 61.4602V62.2486H178.905V60.5156H185.383C185.378 60.0232 185.271 59.5852 185.063 59.2017C184.855 58.8134 184.564 58.508 184.189 58.2855C183.82 58.063 183.389 57.9517 182.897 57.9517C182.371 57.9517 181.91 58.0795 181.512 58.3352C181.114 58.5862 180.804 58.9176 180.581 59.3295C180.364 59.7367 180.252 60.1842 180.248 60.6719V62.1847C180.248 62.8191 180.364 63.3636 180.596 63.8182C180.828 64.268 181.152 64.6136 181.569 64.8551C181.985 65.0919 182.473 65.2102 183.032 65.2102C183.406 65.2102 183.744 65.1581 184.047 65.054C184.35 64.9451 184.613 64.7865 184.836 64.5781C185.058 64.3698 185.226 64.1117 185.34 63.804L187.741 64.0739C187.589 64.7083 187.3 65.2623 186.874 65.7358C186.453 66.2045 185.913 66.5691 185.255 66.8295C184.597 67.0852 183.844 67.2131 182.996 67.2131ZM199.454 56.0909L195.569 67H192.728L188.843 56.0909H191.585L194.092 64.1946H194.205L196.72 56.0909H199.454ZM201.233 67V56.0909H203.804V67H201.233ZM202.526 54.5426C202.119 54.5426 201.768 54.4077 201.475 54.1378C201.181 53.8632 201.034 53.5341 201.034 53.1506C201.034 52.7623 201.181 52.4332 201.475 52.1634C201.768 51.8887 202.119 51.7514 202.526 51.7514C202.938 51.7514 203.288 51.8887 203.577 52.1634C203.87 52.4332 204.017 52.7623 204.017 53.1506C204.017 53.5341 203.87 53.8632 203.577 54.1378C203.288 54.4077 202.938 54.5426 202.526 54.5426ZM215.07 58.9744L212.726 59.2301C212.66 58.9934 212.544 58.7708 212.378 58.5625C212.217 58.3542 212 58.1861 211.725 58.0582C211.45 57.9304 211.114 57.8665 210.716 57.8665C210.181 57.8665 209.732 57.9825 209.367 58.2145C209.007 58.4465 208.83 58.7472 208.834 59.1165C208.83 59.4337 208.946 59.6918 209.182 59.8906C209.424 60.0895 209.822 60.2528 210.376 60.3807L212.236 60.7784C213.269 61.0009 214.036 61.3537 214.537 61.8366C215.044 62.3196 215.3 62.9517 215.305 63.733C215.3 64.4195 215.099 65.0256 214.701 65.5511C214.308 66.072 213.761 66.4792 213.06 66.7727C212.359 67.0663 211.555 67.2131 210.645 67.2131C209.31 67.2131 208.235 66.9337 207.421 66.375C206.607 65.8116 206.121 65.0279 205.965 64.0241L208.472 63.7827C208.586 64.2751 208.827 64.6468 209.197 64.8977C209.566 65.1487 210.046 65.2741 210.638 65.2741C211.249 65.2741 211.739 65.1487 212.108 64.8977C212.483 64.6468 212.67 64.3366 212.67 63.9673C212.67 63.6548 212.549 63.3968 212.307 63.1932C212.071 62.9896 211.701 62.8333 211.199 62.7244L209.339 62.3338C208.292 62.116 207.518 61.7491 207.016 61.233C206.514 60.7121 206.266 60.054 206.27 59.2585C206.266 58.5862 206.448 58.0038 206.817 57.5114C207.191 57.0142 207.71 56.6307 208.373 56.3608C209.04 56.0862 209.81 55.9489 210.681 55.9489C211.959 55.9489 212.965 56.2211 213.699 56.7656C214.438 57.3101 214.895 58.0464 215.07 58.9744ZM220.564 67.2202C219.872 67.2202 219.25 67.0971 218.696 66.8509C218.147 66.5999 217.711 66.2306 217.389 65.7429C217.072 65.2552 216.913 64.6539 216.913 63.9389C216.913 63.3234 217.027 62.8144 217.254 62.4119C217.481 62.0095 217.791 61.6875 218.184 61.446C218.577 61.2045 219.02 61.0223 219.513 60.8991C220.01 60.7713 220.523 60.679 221.054 60.6222C221.693 60.5559 222.211 60.4967 222.609 60.4446C223.007 60.3878 223.296 60.3026 223.476 60.1889C223.66 60.0705 223.753 59.8883 223.753 59.642V59.5994C223.753 59.0644 223.594 58.6501 223.277 58.3565C222.96 58.063 222.503 57.9162 221.906 57.9162C221.276 57.9162 220.777 58.0535 220.407 58.3281C220.043 58.6027 219.797 58.9271 219.669 59.3011L217.268 58.9602C217.458 58.2973 217.77 57.7434 218.206 57.2983C218.641 56.8485 219.174 56.5123 219.804 56.2898C220.434 56.0625 221.13 55.9489 221.892 55.9489C222.417 55.9489 222.941 56.0104 223.461 56.1335C223.982 56.2566 224.458 56.4602 224.889 56.7443C225.32 57.0237 225.666 57.4048 225.926 57.8878C226.191 58.3707 226.324 58.9744 226.324 59.6989V67H223.852V65.5014H223.767C223.611 65.8045 223.39 66.0885 223.106 66.3537C222.827 66.6141 222.474 66.8248 222.048 66.9858C221.627 67.142 221.132 67.2202 220.564 67.2202ZM221.231 65.331C221.747 65.331 222.195 65.2292 222.574 65.0256C222.952 64.8172 223.244 64.5426 223.447 64.2017C223.656 63.8608 223.76 63.4891 223.76 63.0866V61.8011C223.679 61.8674 223.542 61.929 223.348 61.9858C223.158 62.0426 222.945 62.0923 222.709 62.1349C222.472 62.1776 222.238 62.2154 222.006 62.2486C221.773 62.2817 221.572 62.3101 221.402 62.3338C221.018 62.3859 220.675 62.4711 220.372 62.5895C220.069 62.7079 219.83 62.8736 219.655 63.0866C219.479 63.295 219.392 63.5649 219.392 63.8963C219.392 64.3698 219.565 64.7273 219.91 64.9688C220.256 65.2102 220.696 65.331 221.231 65.331ZM238.699 67.2131C237.606 67.2131 236.661 66.9858 235.866 66.5312C235.075 66.072 234.466 65.4233 234.04 64.5852C233.614 63.7424 233.401 62.7505 233.401 61.6094C233.401 60.4872 233.614 59.5024 234.04 58.6548C234.471 57.8026 235.073 57.1397 235.844 56.6662C236.616 56.188 237.523 55.9489 238.564 55.9489C239.237 55.9489 239.871 56.0578 240.468 56.2756C241.069 56.4886 241.599 56.8201 242.059 57.2699C242.523 57.7197 242.887 58.2926 243.153 58.9886C243.418 59.6799 243.55 60.5038 243.55 61.4602V62.2486H234.608V60.5156H241.086C241.081 60.0232 240.974 59.5852 240.766 59.2017C240.558 58.8134 240.267 58.508 239.893 58.2855C239.523 58.063 239.092 57.9517 238.6 57.9517C238.074 57.9517 237.613 58.0795 237.215 58.3352C236.817 58.5862 236.507 58.9176 236.285 59.3295C236.067 59.7367 235.956 60.1842 235.951 60.6719V62.1847C235.951 62.8191 236.067 63.3636 236.299 63.8182C236.531 64.268 236.855 64.6136 237.272 64.8551C237.689 65.0919 238.176 65.2102 238.735 65.2102C239.109 65.2102 239.448 65.1581 239.751 65.054C240.054 64.9451 240.316 64.7865 240.539 64.5781C240.761 64.3698 240.93 64.1117 241.043 63.804L243.444 64.0739C243.292 64.7083 243.003 65.2623 242.577 65.7358C242.156 66.2045 241.616 66.5691 240.958 66.8295C240.3 67.0852 239.547 67.2131 238.699 67.2131ZM248.296 60.608V67H245.725V56.0909H248.183V57.9446H248.311C248.561 57.3338 248.962 56.8485 249.511 56.4886C250.065 56.1288 250.749 55.9489 251.563 55.9489C252.316 55.9489 252.972 56.1098 253.531 56.4318C254.094 56.7538 254.53 57.2202 254.838 57.831C255.15 58.4418 255.304 59.1828 255.299 60.054V67H252.728V60.4517C252.728 59.7225 252.539 59.152 252.16 58.7401C251.786 58.3281 251.267 58.1222 250.605 58.1222C250.155 58.1222 249.755 58.2216 249.404 58.4205C249.059 58.6146 248.786 58.8963 248.588 59.2656C248.393 59.6349 248.296 60.0824 248.296 60.608ZM265.445 52.4545V67H262.874V52.4545H265.445ZM268.089 67V56.0909H270.66V67H268.089ZM268.394 54.6562L269.985 51.4105H272.499L270.319 54.6562H268.394ZM275.874 60.608V67H273.303V56.0909H275.761V57.9446H275.889C276.14 57.3338 276.54 56.8485 277.089 56.4886C277.643 56.1288 278.327 55.9489 279.142 55.9489C279.894 55.9489 280.55 56.1098 281.109 56.4318C281.672 56.7538 282.108 57.2202 282.416 57.831C282.728 58.4418 282.882 59.1828 282.877 60.054V67H280.306V60.4517C280.306 59.7225 280.117 59.152 279.738 58.7401C279.364 58.3281 278.846 58.1222 278.183 58.1222C277.733 58.1222 277.333 58.2216 276.982 58.4205C276.637 58.6146 276.365 58.8963 276.166 59.2656C275.972 59.6349 275.874 60.0824 275.874 60.608ZM290.32 67.2131C289.227 67.2131 288.282 66.9858 287.487 66.5312C286.696 66.072 286.088 65.4233 285.661 64.5852C285.235 63.7424 285.022 62.7505 285.022 61.6094C285.022 60.4872 285.235 59.5024 285.661 58.6548C286.092 57.8026 286.694 57.1397 287.465 56.6662C288.237 56.188 289.144 55.9489 290.186 55.9489C290.858 55.9489 291.492 56.0578 292.089 56.2756C292.69 56.4886 293.221 56.8201 293.68 57.2699C294.144 57.7197 294.508 58.2926 294.774 58.9886C295.039 59.6799 295.171 60.5038 295.171 61.4602V62.2486H286.23V60.5156H292.707C292.702 60.0232 292.596 59.5852 292.387 59.2017C292.179 58.8134 291.888 58.508 291.514 58.2855C291.144 58.063 290.713 57.9517 290.221 57.9517C289.695 57.9517 289.234 58.0795 288.836 58.3352C288.438 58.5862 288.128 58.9176 287.906 59.3295C287.688 59.7367 287.577 60.1842 287.572 60.6719V62.1847C287.572 62.8191 287.688 63.3636 287.92 63.8182C288.152 64.268 288.476 64.6136 288.893 64.8551C289.31 65.0919 289.797 65.2102 290.356 65.2102C290.73 65.2102 291.069 65.1581 291.372 65.054C291.675 64.9451 291.937 64.7865 292.16 64.5781C292.383 64.3698 292.551 64.1117 292.664 63.804L295.065 64.0739C294.913 64.7083 294.624 65.2623 294.198 65.7358C293.777 66.2045 293.237 66.5691 292.579 66.8295C291.921 67.0852 291.168 67.2131 290.32 67.2131ZM300.486 67.2202C299.794 67.2202 299.172 67.0971 298.618 66.8509C298.068 66.5999 297.633 66.2306 297.311 65.7429C296.994 65.2552 296.835 64.6539 296.835 63.9389C296.835 63.3234 296.949 62.8144 297.176 62.4119C297.403 62.0095 297.713 61.6875 298.106 61.446C298.499 61.2045 298.942 61.0223 299.434 60.8991C299.932 60.7713 300.445 60.679 300.976 60.6222C301.615 60.5559 302.133 60.4967 302.531 60.4446C302.929 60.3878 303.218 60.3026 303.398 60.1889C303.582 60.0705 303.675 59.8883 303.675 59.642V59.5994C303.675 59.0644 303.516 58.6501 303.199 58.3565C302.881 58.063 302.425 57.9162 301.828 57.9162C301.198 57.9162 300.699 58.0535 300.329 58.3281C299.965 58.6027 299.719 58.9271 299.591 59.3011L297.19 58.9602C297.38 58.2973 297.692 57.7434 298.128 57.2983C298.563 56.8485 299.096 56.5123 299.726 56.2898C300.355 56.0625 301.051 55.9489 301.814 55.9489C302.339 55.9489 302.863 56.0104 303.383 56.1335C303.904 56.2566 304.38 56.4602 304.811 56.7443C305.242 57.0237 305.587 57.4048 305.848 57.8878C306.113 58.3707 306.246 58.9744 306.246 59.6989V67H303.774V65.5014H303.689C303.532 65.8045 303.312 66.0885 303.028 66.3537C302.749 66.6141 302.396 66.8248 301.97 66.9858C301.549 67.142 301.054 67.2202 300.486 67.2202ZM301.153 65.331C301.669 65.331 302.117 65.2292 302.496 65.0256C302.874 64.8172 303.166 64.5426 303.369 64.2017C303.577 63.8608 303.682 63.4891 303.682 63.0866V61.8011C303.601 61.8674 303.464 61.929 303.27 61.9858C303.08 62.0426 302.867 62.0923 302.631 62.1349C302.394 62.1776 302.159 62.2154 301.927 62.2486C301.695 62.2817 301.494 62.3101 301.324 62.3338C300.94 62.3859 300.597 62.4711 300.294 62.5895C299.991 62.7079 299.752 62.8736 299.577 63.0866C299.401 63.295 299.314 63.5649 299.314 63.8963C299.314 64.3698 299.487 64.7273 299.832 64.9688C300.178 65.2102 300.618 65.331 301.153 65.331ZM318.621 67.2131C317.528 67.2131 316.583 66.9858 315.787 66.5312C314.997 66.072 314.388 65.4233 313.962 64.5852C313.536 63.7424 313.323 62.7505 313.323 61.6094C313.323 60.4872 313.536 59.5024 313.962 58.6548C314.393 57.8026 314.994 57.1397 315.766 56.6662C316.538 56.188 317.445 55.9489 318.486 55.9489C319.159 55.9489 319.793 56.0578 320.39 56.2756C320.991 56.4886 321.521 56.8201 321.981 57.2699C322.445 57.7197 322.809 58.2926 323.074 58.9886C323.34 59.6799 323.472 60.5038 323.472 61.4602V62.2486H314.53V60.5156H321.008C321.003 60.0232 320.896 59.5852 320.688 59.2017C320.48 58.8134 320.189 58.508 319.814 58.2855C319.445 58.063 319.014 57.9517 318.522 57.9517C317.996 57.9517 317.535 58.0795 317.137 58.3352C316.739 58.5862 316.429 58.9176 316.206 59.3295C315.989 59.7367 315.877 60.1842 315.873 60.6719V62.1847C315.873 62.8191 315.989 63.3636 316.221 63.8182C316.453 64.268 316.777 64.6136 317.194 64.8551C317.61 65.0919 318.098 65.2102 318.657 65.2102C319.031 65.2102 319.369 65.1581 319.672 65.054C319.975 64.9451 320.238 64.7865 320.461 64.5781C320.683 64.3698 320.851 64.1117 320.965 63.804L323.366 64.0739C323.214 64.7083 322.925 65.2623 322.499 65.7358C322.078 66.2045 321.538 66.5691 320.88 66.8295C320.222 67.0852 319.469 67.2131 318.621 67.2131ZM328.218 52.4545V67H325.647V52.4545H328.218ZM339.871 67.1918C339.014 67.1918 338.247 66.9716 337.57 66.5312C336.893 66.0909 336.358 65.4517 335.965 64.6136C335.572 63.7756 335.376 62.7576 335.376 61.5597C335.376 60.3475 335.574 59.3248 335.972 58.4915C336.375 57.6534 336.917 57.0213 337.599 56.5952C338.28 56.1643 339.04 55.9489 339.878 55.9489C340.518 55.9489 341.043 56.0578 341.455 56.2756C341.867 56.4886 342.194 56.7467 342.435 57.0497C342.677 57.348 342.864 57.6297 342.996 57.8949H343.103V52.4545H345.681V67H343.153V65.2812H342.996C342.864 65.5464 342.672 65.8281 342.421 66.1264C342.17 66.42 341.839 66.6709 341.427 66.8793C341.015 67.0876 340.496 67.1918 339.871 67.1918ZM340.589 65.0824C341.133 65.0824 341.597 64.9356 341.981 64.642C342.364 64.3437 342.655 63.9295 342.854 63.3991C343.053 62.8688 343.153 62.2509 343.153 61.5455C343.153 60.84 343.053 60.2268 342.854 59.706C342.66 59.1851 342.371 58.7803 341.988 58.4915C341.609 58.2027 341.143 58.0582 340.589 58.0582C340.016 58.0582 339.537 58.2074 339.154 58.5057C338.77 58.804 338.482 59.2159 338.287 59.7415C338.093 60.267 337.996 60.8684 337.996 61.5455C337.996 62.2273 338.093 62.8357 338.287 63.3707C338.486 63.901 338.778 64.3201 339.161 64.6278C339.549 64.9309 340.025 65.0824 340.589 65.0824ZM348.421 67V56.0909H350.992V67H348.421ZM349.713 54.5426C349.306 54.5426 348.956 54.4077 348.662 54.1378C348.369 53.8632 348.222 53.5341 348.222 53.1506C348.222 52.7623 348.369 52.4332 348.662 52.1634C348.956 51.8887 349.306 51.7514 349.713 51.7514C350.125 51.7514 350.476 51.8887 350.764 52.1634C351.058 52.4332 351.205 52.7623 351.205 53.1506C351.205 53.5341 351.058 53.8632 350.764 54.1378C350.476 54.4077 350.125 54.5426 349.713 54.5426ZM356.206 60.608V67H353.635V56.0909H356.093V57.9446H356.221C356.472 57.3338 356.872 56.8485 357.421 56.4886C357.975 56.1288 358.659 55.9489 359.474 55.9489C360.226 55.9489 360.882 56.1098 361.441 56.4318C362.004 56.7538 362.44 57.2202 362.748 57.831C363.06 58.4418 363.214 59.1828 363.209 60.054V67H360.638V60.4517C360.638 59.7225 360.449 59.152 360.07 58.7401C359.696 58.3281 359.178 58.1222 358.515 58.1222C358.065 58.1222 357.665 58.2216 357.314 58.4205C356.969 58.6146 356.697 58.8963 356.498 59.2656C356.304 59.6349 356.206 60.0824 356.206 60.608ZM370.653 67.2131C369.559 67.2131 368.614 66.9858 367.819 66.5312C367.028 66.072 366.42 65.4233 365.993 64.5852C365.567 63.7424 365.354 62.7505 365.354 61.6094C365.354 60.4872 365.567 59.5024 365.993 58.6548C366.424 57.8026 367.026 57.1397 367.797 56.6662C368.569 56.188 369.476 55.9489 370.518 55.9489C371.19 55.9489 371.824 56.0578 372.421 56.2756C373.022 56.4886 373.553 56.8201 374.012 57.2699C374.476 57.7197 374.84 58.2926 375.106 58.9886C375.371 59.6799 375.503 60.5038 375.503 61.4602V62.2486H366.562V60.5156H373.039C373.034 60.0232 372.928 59.5852 372.719 59.2017C372.511 58.8134 372.22 58.508 371.846 58.2855C371.476 58.063 371.046 57.9517 370.553 57.9517C370.028 57.9517 369.566 58.0795 369.168 58.3352C368.77 58.5862 368.46 58.9176 368.238 59.3295C368.02 59.7367 367.909 60.1842 367.904 60.6719V62.1847C367.904 62.8191 368.02 63.3636 368.252 63.8182C368.484 64.268 368.808 64.6136 369.225 64.8551C369.642 65.0919 370.129 65.2102 370.688 65.2102C371.062 65.2102 371.401 65.1581 371.704 65.054C372.007 64.9451 372.269 64.7865 372.492 64.5781C372.715 64.3698 372.883 64.1117 372.996 63.804L375.397 64.0739C375.245 64.7083 374.956 65.2623 374.53 65.7358C374.109 66.2045 373.569 66.5691 372.911 66.8295C372.253 67.0852 371.5 67.2131 370.653 67.2131ZM377.678 67V56.0909H380.171V57.9091H380.285C380.484 57.2794 380.825 56.794 381.308 56.4531C381.795 56.1075 382.352 55.9347 382.977 55.9347C383.119 55.9347 383.277 55.9418 383.453 55.956C383.633 55.9654 383.782 55.982 383.9 56.0057V58.3707C383.791 58.3329 383.618 58.2997 383.382 58.2713C383.15 58.2382 382.925 58.2216 382.707 58.2216C382.238 58.2216 381.817 58.3234 381.443 58.527C381.073 58.7259 380.782 59.0028 380.569 59.358C380.356 59.7131 380.249 60.1226 380.249 60.5866V67H377.678ZM389.917 67.2131C388.852 67.2131 387.929 66.9787 387.148 66.5099C386.366 66.0412 385.76 65.3854 385.329 64.5426C384.903 63.6998 384.69 62.715 384.69 61.5881C384.69 60.4612 384.903 59.474 385.329 58.6264C385.76 57.7789 386.366 57.1207 387.148 56.652C387.929 56.1832 388.852 55.9489 389.917 55.9489C390.983 55.9489 391.906 56.1832 392.687 56.652C393.469 57.1207 394.072 57.7789 394.498 58.6264C394.929 59.474 395.145 60.4612 395.145 61.5881C395.145 62.715 394.929 63.6998 394.498 64.5426C394.072 65.3854 393.469 66.0412 392.687 66.5099C391.906 66.9787 390.983 67.2131 389.917 67.2131ZM389.932 65.1534C390.509 65.1534 390.992 64.9948 391.381 64.6776C391.769 64.3556 392.058 63.9247 392.247 63.3849C392.441 62.8452 392.538 62.2438 392.538 61.581C392.538 60.9134 392.441 60.3097 392.247 59.7699C392.058 59.2254 391.769 58.7921 391.381 58.4702C390.992 58.1482 390.509 57.9872 389.932 57.9872C389.34 57.9872 388.847 58.1482 388.454 58.4702C388.066 58.7921 387.775 59.2254 387.581 59.7699C387.391 60.3097 387.297 60.9134 387.297 61.581C387.297 62.2438 387.391 62.8452 387.581 63.3849C387.775 63.9247 388.066 64.3556 388.454 64.6776C388.847 64.9948 389.34 65.1534 389.932 65.1534ZM225.628 91V80.0909H228.121V81.9091H228.234C228.433 81.2794 228.774 80.794 229.257 80.4531C229.745 80.1075 230.301 79.9347 230.926 79.9347C231.068 79.9347 231.227 79.9418 231.402 79.956C231.582 79.9654 231.731 79.982 231.849 80.0057V82.3707C231.74 82.3329 231.568 82.2997 231.331 82.2713C231.099 82.2382 230.874 82.2216 230.656 82.2216C230.187 82.2216 229.766 82.3234 229.392 82.527C229.023 82.7259 228.731 83.0028 228.518 83.358C228.305 83.7131 228.199 84.1226 228.199 84.5866V91H225.628ZM237.938 91.2131C236.844 91.2131 235.899 90.9858 235.104 90.5312C234.313 90.072 233.705 89.4233 233.279 88.5852C232.852 87.7424 232.639 86.7505 232.639 85.6094C232.639 84.4872 232.852 83.5024 233.279 82.6548C233.709 81.8026 234.311 81.1397 235.083 80.6662C235.854 80.188 236.761 79.9489 237.803 79.9489C238.475 79.9489 239.11 80.0578 239.706 80.2756C240.307 80.4886 240.838 80.8201 241.297 81.2699C241.761 81.7197 242.126 82.2926 242.391 82.9886C242.656 83.6799 242.789 84.5038 242.789 85.4602V86.2486H233.847V84.5156H240.324C240.319 84.0232 240.213 83.5852 240.004 83.2017C239.796 82.8134 239.505 82.508 239.131 82.2855C238.762 82.063 238.331 81.9517 237.838 81.9517C237.313 81.9517 236.851 82.0795 236.453 82.3352C236.056 82.5862 235.745 82.9176 235.523 83.3295C235.305 83.7367 235.194 84.1842 235.189 84.6719V86.1847C235.189 86.8191 235.305 87.3636 235.537 87.8182C235.769 88.268 236.093 88.6136 236.51 88.8551C236.927 89.0919 237.414 89.2102 237.973 89.2102C238.347 89.2102 238.686 89.1581 238.989 89.054C239.292 88.9451 239.555 88.7865 239.777 88.5781C240 88.3698 240.168 88.1117 240.281 87.804L242.682 88.0739C242.53 88.7083 242.242 89.2623 241.816 89.7358C241.394 90.2045 240.854 90.5691 240.196 90.8295C239.538 91.0852 238.785 91.2131 237.938 91.2131ZM249.722 91.2131C248.633 91.2131 247.698 90.974 246.917 90.4957C246.14 90.0175 245.541 89.357 245.12 88.5142C244.703 87.6667 244.495 86.6913 244.495 85.5881C244.495 84.4801 244.708 83.5024 245.134 82.6548C245.56 81.8026 246.162 81.1397 246.938 80.6662C247.719 80.188 248.643 79.9489 249.708 79.9489C250.593 79.9489 251.377 80.1122 252.059 80.4389C252.745 80.7609 253.292 81.2178 253.699 81.8097C254.107 82.3968 254.339 83.0833 254.395 83.8693H251.938C251.839 83.3437 251.602 82.9058 251.228 82.5554C250.858 82.2003 250.364 82.0227 249.743 82.0227C249.218 82.0227 248.756 82.1648 248.358 82.4489C247.961 82.7282 247.651 83.1307 247.428 83.6562C247.21 84.1818 247.101 84.8116 247.101 85.5455C247.101 86.2888 247.21 86.928 247.428 87.4631C247.646 87.9934 247.951 88.4029 248.344 88.6918C248.742 88.9759 249.208 89.1179 249.743 89.1179C250.122 89.1179 250.461 89.0469 250.759 88.9048C251.062 88.758 251.315 88.5473 251.519 88.2727C251.723 87.9981 251.862 87.6643 251.938 87.2713H254.395C254.334 88.0431 254.107 88.7273 253.714 89.3239C253.321 89.9157 252.786 90.3797 252.108 90.7159C251.431 91.0473 250.636 91.2131 249.722 91.2131ZM263.46 86.4119V80.0909H266.031V91H263.538V89.0611H263.424C263.178 89.6719 262.773 90.1714 262.21 90.5597C261.651 90.9479 260.962 91.142 260.143 91.142C259.428 91.142 258.796 90.9834 258.247 90.6662C257.702 90.3442 257.276 89.8778 256.968 89.267C256.66 88.6515 256.507 87.9081 256.507 87.0369V80.0909H259.078V86.6392C259.078 87.3305 259.267 87.8797 259.646 88.2869C260.025 88.6941 260.522 88.8977 261.137 88.8977C261.516 88.8977 261.883 88.8054 262.238 88.6207C262.593 88.4361 262.884 88.1615 263.112 87.7969C263.344 87.4276 263.46 86.9659 263.46 86.4119ZM268.675 95.0909V80.0909H271.203V81.8949H271.352C271.485 81.6297 271.672 81.348 271.913 81.0497C272.155 80.7467 272.481 80.4886 272.893 80.2756C273.305 80.0578 273.831 79.9489 274.47 79.9489C275.313 79.9489 276.073 80.1643 276.75 80.5952C277.432 81.0213 277.971 81.6534 278.369 82.4915C278.772 83.3248 278.973 84.3475 278.973 85.5597C278.973 86.7576 278.776 87.7756 278.383 88.6136C277.99 89.4517 277.455 90.0909 276.778 90.5312C276.101 90.9716 275.334 91.1918 274.477 91.1918C273.852 91.1918 273.334 91.0876 272.922 90.8793C272.51 90.6709 272.178 90.42 271.927 90.1264C271.681 89.8281 271.489 89.5464 271.352 89.2812H271.246V95.0909H268.675ZM271.196 85.5455C271.196 86.2509 271.295 86.8688 271.494 87.3991C271.698 87.9295 271.989 88.3437 272.368 88.642C272.751 88.9356 273.215 89.0824 273.76 89.0824C274.328 89.0824 274.804 88.9309 275.187 88.6278C275.571 88.3201 275.86 87.901 276.054 87.3707C276.253 86.8357 276.352 86.2273 276.352 85.5455C276.352 84.8684 276.255 84.267 276.061 83.7415C275.867 83.2159 275.578 82.804 275.194 82.5057C274.811 82.2074 274.333 82.0582 273.76 82.0582C273.211 82.0582 272.744 82.2027 272.361 82.4915C271.977 82.7803 271.686 83.1851 271.487 83.706C271.293 84.2268 271.196 84.84 271.196 85.5455ZM286.004 91.2131C284.91 91.2131 283.966 90.9858 283.17 90.5312C282.38 90.072 281.771 89.4233 281.345 88.5852C280.919 87.7424 280.706 86.7505 280.706 85.6094C280.706 84.4872 280.919 83.5024 281.345 82.6548C281.776 81.8026 282.377 81.1397 283.149 80.6662C283.921 80.188 284.827 79.9489 285.869 79.9489C286.541 79.9489 287.176 80.0578 287.773 80.2756C288.374 80.4886 288.904 80.8201 289.363 81.2699C289.827 81.7197 290.192 82.2926 290.457 82.9886C290.722 83.6799 290.855 84.5038 290.855 85.4602V86.2486H281.913V84.5156H288.39C288.386 84.0232 288.279 83.5852 288.071 83.2017C287.863 82.8134 287.571 82.508 287.197 82.2855C286.828 82.063 286.397 81.9517 285.905 81.9517C285.379 81.9517 284.917 82.0795 284.52 82.3352C284.122 82.5862 283.812 82.9176 283.589 83.3295C283.372 83.7367 283.26 84.1842 283.256 84.6719V86.1847C283.256 86.8191 283.372 87.3636 283.604 87.8182C283.836 88.268 284.16 88.6136 284.577 88.8551C284.993 89.0919 285.481 89.2102 286.04 89.2102C286.414 89.2102 286.752 89.1581 287.055 89.054C287.358 88.9451 287.621 88.7865 287.844 88.5781C288.066 88.3698 288.234 88.1117 288.348 87.804L290.748 88.0739C290.597 88.7083 290.308 89.2623 289.882 89.7358C289.461 90.2045 288.921 90.5691 288.263 90.8295C287.604 91.0852 286.852 91.2131 286.004 91.2131ZM293.03 91V80.0909H295.523V81.9091H295.637C295.835 81.2794 296.176 80.794 296.659 80.4531C297.147 80.1075 297.703 79.9347 298.328 79.9347C298.47 79.9347 298.629 79.9418 298.804 79.956C298.984 79.9654 299.133 79.982 299.252 80.0057V82.3707C299.143 82.3329 298.97 82.2997 298.733 82.2713C298.501 82.2382 298.276 82.2216 298.058 82.2216C297.59 82.2216 297.168 82.3234 296.794 82.527C296.425 82.7259 296.134 83.0028 295.921 83.358C295.708 83.7131 295.601 84.1226 295.601 84.5866V91H293.03ZM303.904 91.2202C303.212 91.2202 302.59 91.0971 302.036 90.8509C301.486 90.5999 301.051 90.2306 300.729 89.7429C300.412 89.2552 300.253 88.6539 300.253 87.9389C300.253 87.3234 300.367 86.8144 300.594 86.4119C300.821 86.0095 301.131 85.6875 301.524 85.446C301.917 85.2045 302.36 85.0223 302.852 84.8991C303.35 84.7713 303.863 84.679 304.394 84.6222C305.033 84.5559 305.551 84.4967 305.949 84.4446C306.347 84.3878 306.636 84.3026 306.816 84.1889C307 84.0705 307.093 83.8883 307.093 83.642V83.5994C307.093 83.0644 306.934 82.6501 306.617 82.3565C306.299 82.063 305.843 81.9162 305.246 81.9162C304.616 81.9162 304.117 82.0535 303.747 82.3281C303.383 82.6027 303.137 82.9271 303.009 83.3011L300.608 82.9602C300.798 82.2973 301.11 81.7434 301.546 81.2983C301.981 80.8485 302.514 80.5123 303.144 80.2898C303.773 80.0625 304.469 79.9489 305.232 79.9489C305.757 79.9489 306.28 80.0104 306.801 80.1335C307.322 80.2566 307.798 80.4602 308.229 80.7443C308.66 81.0237 309.005 81.4048 309.266 81.8878C309.531 82.3707 309.664 82.9744 309.664 83.6989V91H307.192V89.5014H307.107C306.95 89.8045 306.73 90.0885 306.446 90.3537C306.167 90.6141 305.814 90.8248 305.388 90.9858C304.967 91.142 304.472 91.2202 303.904 91.2202ZM304.571 89.331C305.087 89.331 305.535 89.2292 305.914 89.0256C306.292 88.8172 306.584 88.5426 306.787 88.2017C306.995 87.8608 307.1 87.4891 307.1 87.0866V85.8011C307.019 85.8674 306.882 85.929 306.688 85.9858C306.498 86.0426 306.285 86.0923 306.048 86.1349C305.812 86.1776 305.577 86.2154 305.345 86.2486C305.113 86.2817 304.912 86.3101 304.742 86.3338C304.358 86.3859 304.015 86.4711 303.712 86.5895C303.409 86.7079 303.17 86.8736 302.994 87.0866C302.819 87.295 302.732 87.5649 302.732 87.8963C302.732 88.3698 302.905 88.7273 303.25 88.9688C303.596 89.2102 304.036 89.331 304.571 89.331ZM316.297 91.1918C315.44 91.1918 314.673 90.9716 313.996 90.5312C313.319 90.0909 312.784 89.4517 312.391 88.6136C311.998 87.7756 311.801 86.7576 311.801 85.5597C311.801 84.3475 312 83.3248 312.398 82.4915C312.8 81.6534 313.343 81.0213 314.024 80.5952C314.706 80.1643 315.466 79.9489 316.304 79.9489C316.943 79.9489 317.469 80.0578 317.881 80.2756C318.293 80.4886 318.619 80.7467 318.861 81.0497C319.102 81.348 319.289 81.6297 319.422 81.8949H319.529V76.4545H322.107V91H319.578V89.2812H319.422C319.289 89.5464 319.098 89.8281 318.847 90.1264C318.596 90.42 318.264 90.6709 317.852 90.8793C317.441 91.0876 316.922 91.1918 316.297 91.1918ZM317.014 89.0824C317.559 89.0824 318.023 88.9356 318.406 88.642C318.79 88.3437 319.081 87.9295 319.28 87.3991C319.479 86.8688 319.578 86.2509 319.578 85.5455C319.578 84.84 319.479 84.2268 319.28 83.706C319.086 83.1851 318.797 82.7803 318.414 82.4915C318.035 82.2027 317.568 82.0582 317.014 82.0582C316.441 82.0582 315.963 82.2074 315.58 82.5057C315.196 82.804 314.907 83.2159 314.713 83.7415C314.519 84.267 314.422 84.8684 314.422 85.5455C314.422 86.2273 314.519 86.8357 314.713 87.3707C314.912 87.901 315.203 88.3201 315.587 88.6278C315.975 88.9309 316.451 89.0824 317.014 89.0824ZM329.605 91.2131C328.54 91.2131 327.616 90.9787 326.835 90.5099C326.054 90.0412 325.448 89.3854 325.017 88.5426C324.591 87.6998 324.378 86.715 324.378 85.5881C324.378 84.4612 324.591 83.474 325.017 82.6264C325.448 81.7789 326.054 81.1207 326.835 80.652C327.616 80.1832 328.54 79.9489 329.605 79.9489C330.67 79.9489 331.594 80.1832 332.375 80.652C333.156 81.1207 333.76 81.7789 334.186 82.6264C334.617 83.474 334.832 84.4612 334.832 85.5881C334.832 86.715 334.617 87.6998 334.186 88.5426C333.76 89.3854 333.156 90.0412 332.375 90.5099C331.594 90.9787 330.67 91.2131 329.605 91.2131ZM329.619 89.1534C330.197 89.1534 330.68 88.9948 331.068 88.6776C331.456 88.3556 331.745 87.9247 331.934 87.3849C332.129 86.8452 332.226 86.2438 332.226 85.581C332.226 84.9134 332.129 84.3097 331.934 83.7699C331.745 83.2254 331.456 82.7921 331.068 82.4702C330.68 82.1482 330.197 81.9872 329.619 81.9872C329.027 81.9872 328.535 82.1482 328.142 82.4702C327.754 82.7921 327.462 83.2254 327.268 83.7699C327.079 84.3097 326.984 84.9134 326.984 85.581C326.984 86.2438 327.079 86.8452 327.268 87.3849C327.462 87.9247 327.754 88.3556 328.142 88.6776C328.535 88.9948 329.027 89.1534 329.619 89.1534Z" fill="black" fill-opacity="0.75"/>
<g opacity="0.4" filter="url(#filter1_d_1092_451)">
<path d="M128 168C128 145.909 145.909 128 168 128H392C414.091 128 432 145.909 432 168V480H128V168Z" fill="white"/>
</g>
<path d="M128 168C128 145.909 145.909 128 168 128H392C414.091 128 432 145.909 432 168V480H128V168Z" fill="white"/>
<path d="M236.08 350.391L247.095 365.899L248.546 367.941L249.661 365.698L258.254 348.418H286.916H288.075L288.367 347.296L302.227 294.081H329.907L356.475 329.703L358.683 332.663L359.164 329.001L371.072 238.477L383.251 282.118L384.23 285.627L386.005 282.446L411.5 236.765V478.5H282H149.5V417.245H153.112H180.771L190.62 427.644L192.053 429.157L193.033 427.318L204.189 406.377H220.014H221.166L221.463 405.263L236.08 350.391Z" fill="#0070F3" fill-opacity="0.08" stroke="#0070F3" stroke-width="3"/>
<rect x="148" y="134" width="265" height="106" rx="10" fill="white"/>
<path d="M155.148 158V146.364H159.511C160.405 146.364 161.155 146.519 161.761 146.83C162.371 147.14 162.831 147.576 163.142 148.136C163.456 148.693 163.614 149.343 163.614 150.085C163.614 150.831 163.455 151.479 163.136 152.028C162.822 152.574 162.358 152.996 161.744 153.295C161.131 153.591 160.377 153.739 159.483 153.739H156.375V151.989H159.199C159.722 151.989 160.15 151.917 160.483 151.773C160.816 151.625 161.063 151.411 161.222 151.131C161.384 150.847 161.466 150.498 161.466 150.085C161.466 149.672 161.384 149.32 161.222 149.028C161.059 148.733 160.811 148.509 160.477 148.358C160.144 148.203 159.714 148.125 159.188 148.125H157.256V158H155.148ZM161.159 152.727L164.04 158H161.688L158.858 152.727H161.159ZM169.202 158.17C168.327 158.17 167.571 157.989 166.935 157.625C166.302 157.258 165.815 156.739 165.474 156.068C165.134 155.394 164.963 154.6 164.963 153.688C164.963 152.79 165.134 152.002 165.474 151.324C165.819 150.642 166.3 150.112 166.918 149.733C167.535 149.35 168.26 149.159 169.094 149.159C169.632 149.159 170.139 149.246 170.616 149.42C171.098 149.591 171.522 149.856 171.889 150.216C172.26 150.576 172.552 151.034 172.764 151.591C172.976 152.144 173.082 152.803 173.082 153.568V154.199H165.929V152.812H171.111C171.107 152.419 171.022 152.068 170.855 151.761C170.688 151.451 170.455 151.206 170.156 151.028C169.861 150.85 169.516 150.761 169.122 150.761C168.702 150.761 168.332 150.864 168.014 151.068C167.696 151.269 167.448 151.534 167.27 151.864C167.096 152.189 167.007 152.547 167.003 152.938V154.148C167.003 154.655 167.096 155.091 167.281 155.455C167.467 155.814 167.726 156.091 168.06 156.284C168.393 156.473 168.783 156.568 169.23 156.568C169.529 156.568 169.8 156.527 170.043 156.443C170.285 156.356 170.495 156.229 170.673 156.062C170.851 155.896 170.986 155.689 171.077 155.443L172.997 155.659C172.876 156.167 172.645 156.61 172.304 156.989C171.967 157.364 171.535 157.655 171.009 157.864C170.482 158.068 169.88 158.17 169.202 158.17ZM178.629 158.17C177.758 158.17 177.01 157.979 176.385 157.597C175.764 157.214 175.285 156.686 174.947 156.011C174.614 155.333 174.447 154.553 174.447 153.67C174.447 152.784 174.618 152.002 174.959 151.324C175.3 150.642 175.781 150.112 176.402 149.733C177.027 149.35 177.766 149.159 178.618 149.159C179.326 149.159 179.953 149.29 180.499 149.551C181.048 149.809 181.485 150.174 181.811 150.648C182.137 151.117 182.322 151.667 182.368 152.295H180.402C180.322 151.875 180.133 151.525 179.834 151.244C179.538 150.96 179.143 150.818 178.646 150.818C178.226 150.818 177.857 150.932 177.538 151.159C177.22 151.383 176.972 151.705 176.794 152.125C176.62 152.545 176.533 153.049 176.533 153.636C176.533 154.231 176.62 154.742 176.794 155.17C176.968 155.595 177.213 155.922 177.527 156.153C177.845 156.381 178.218 156.494 178.646 156.494C178.949 156.494 179.22 156.437 179.459 156.324C179.701 156.206 179.904 156.038 180.067 155.818C180.23 155.598 180.341 155.331 180.402 155.017H182.368C182.319 155.634 182.137 156.182 181.822 156.659C181.508 157.133 181.08 157.504 180.538 157.773C179.997 158.038 179.36 158.17 178.629 158.17ZM189.619 154.33V149.273H191.676V158H189.682V156.449H189.591C189.394 156.937 189.07 157.337 188.619 157.648C188.172 157.958 187.621 158.114 186.966 158.114C186.394 158.114 185.888 157.987 185.449 157.733C185.013 157.475 184.672 157.102 184.426 156.614C184.18 156.121 184.057 155.527 184.057 154.83V149.273H186.114V154.511C186.114 155.064 186.265 155.504 186.568 155.83C186.871 156.155 187.269 156.318 187.761 156.318C188.064 156.318 188.358 156.244 188.642 156.097C188.926 155.949 189.159 155.729 189.341 155.438C189.527 155.142 189.619 154.773 189.619 154.33ZM193.791 161.273V149.273H195.814V150.716H195.933C196.039 150.504 196.189 150.278 196.382 150.04C196.575 149.797 196.837 149.591 197.166 149.42C197.496 149.246 197.916 149.159 198.428 149.159C199.102 149.159 199.71 149.331 200.251 149.676C200.797 150.017 201.229 150.523 201.547 151.193C201.869 151.86 202.03 152.678 202.03 153.648C202.03 154.606 201.873 155.42 201.558 156.091C201.244 156.761 200.816 157.273 200.274 157.625C199.732 157.977 199.119 158.153 198.433 158.153C197.933 158.153 197.518 158.07 197.189 157.903C196.859 157.737 196.594 157.536 196.393 157.301C196.196 157.062 196.043 156.837 195.933 156.625H195.848V161.273H193.791ZM195.808 153.636C195.808 154.201 195.888 154.695 196.047 155.119C196.21 155.544 196.443 155.875 196.746 156.114C197.053 156.348 197.424 156.466 197.859 156.466C198.314 156.466 198.695 156.345 199.001 156.102C199.308 155.856 199.539 155.521 199.695 155.097C199.854 154.669 199.933 154.182 199.933 153.636C199.933 153.095 199.856 152.614 199.7 152.193C199.545 151.773 199.314 151.443 199.007 151.205C198.7 150.966 198.318 150.847 197.859 150.847C197.42 150.847 197.047 150.962 196.74 151.193C196.433 151.424 196.2 151.748 196.041 152.165C195.886 152.581 195.808 153.072 195.808 153.636ZM207.655 158.17C206.78 158.17 206.024 157.989 205.388 157.625C204.755 157.258 204.268 156.739 203.928 156.068C203.587 155.394 203.416 154.6 203.416 153.688C203.416 152.79 203.587 152.002 203.928 151.324C204.272 150.642 204.753 150.112 205.371 149.733C205.988 149.35 206.714 149.159 207.547 149.159C208.085 149.159 208.592 149.246 209.07 149.42C209.551 149.591 209.975 149.856 210.342 150.216C210.714 150.576 211.005 151.034 211.217 151.591C211.429 152.144 211.536 152.803 211.536 153.568V154.199H204.382V152.812H209.564C209.56 152.419 209.475 152.068 209.308 151.761C209.142 151.451 208.909 151.206 208.609 151.028C208.314 150.85 207.969 150.761 207.575 150.761C207.155 150.761 206.786 150.864 206.467 151.068C206.149 151.269 205.901 151.534 205.723 151.864C205.549 152.189 205.46 152.547 205.456 152.938V154.148C205.456 154.655 205.549 155.091 205.734 155.455C205.92 155.814 206.179 156.091 206.513 156.284C206.846 156.473 207.236 156.568 207.683 156.568C207.982 156.568 208.253 156.527 208.496 156.443C208.738 156.356 208.948 156.229 209.126 156.062C209.304 155.896 209.439 155.689 209.53 155.443L211.45 155.659C211.329 156.167 211.098 156.61 210.757 156.989C210.42 157.364 209.988 157.655 209.462 157.864C208.935 158.068 208.333 158.17 207.655 158.17ZM213.276 158V149.273H215.27V150.727H215.361C215.52 150.223 215.793 149.835 216.179 149.562C216.569 149.286 217.014 149.148 217.514 149.148C217.628 149.148 217.755 149.153 217.895 149.165C218.039 149.172 218.158 149.186 218.253 149.205V151.097C218.166 151.066 218.027 151.04 217.838 151.017C217.652 150.991 217.473 150.977 217.298 150.977C216.923 150.977 216.586 151.059 216.287 151.222C215.991 151.381 215.759 151.602 215.588 151.886C215.418 152.17 215.332 152.498 215.332 152.869V158H213.276ZM221.974 158.176C221.421 158.176 220.923 158.078 220.48 157.881C220.041 157.68 219.692 157.384 219.435 156.994C219.181 156.604 219.054 156.123 219.054 155.551C219.054 155.059 219.145 154.652 219.327 154.33C219.509 154.008 219.757 153.75 220.071 153.557C220.385 153.364 220.74 153.218 221.134 153.119C221.531 153.017 221.942 152.943 222.366 152.898C222.878 152.845 223.293 152.797 223.611 152.756C223.929 152.71 224.16 152.642 224.304 152.551C224.452 152.456 224.526 152.311 224.526 152.114V152.08C224.526 151.652 224.399 151.32 224.145 151.085C223.891 150.85 223.526 150.733 223.048 150.733C222.545 150.733 222.145 150.843 221.849 151.062C221.558 151.282 221.361 151.542 221.259 151.841L219.338 151.568C219.49 151.038 219.74 150.595 220.088 150.239C220.437 149.879 220.863 149.61 221.366 149.432C221.87 149.25 222.427 149.159 223.037 149.159C223.457 149.159 223.876 149.208 224.293 149.307C224.709 149.405 225.09 149.568 225.435 149.795C225.779 150.019 226.056 150.324 226.264 150.71C226.476 151.097 226.582 151.58 226.582 152.159V158H224.605V156.801H224.537C224.412 157.044 224.236 157.271 224.009 157.483C223.785 157.691 223.503 157.86 223.162 157.989C222.825 158.114 222.429 158.176 221.974 158.176ZM222.509 156.665C222.921 156.665 223.279 156.583 223.582 156.42C223.885 156.254 224.118 156.034 224.281 155.761C224.448 155.489 224.531 155.191 224.531 154.869V153.841C224.467 153.894 224.357 153.943 224.202 153.989C224.05 154.034 223.88 154.074 223.69 154.108C223.501 154.142 223.313 154.172 223.128 154.199C222.942 154.225 222.781 154.248 222.645 154.267C222.338 154.309 222.063 154.377 221.821 154.472C221.579 154.566 221.387 154.699 221.247 154.869C221.107 155.036 221.037 155.252 221.037 155.517C221.037 155.896 221.175 156.182 221.452 156.375C221.728 156.568 222.08 156.665 222.509 156.665ZM231.889 158.153C231.204 158.153 230.59 157.977 230.048 157.625C229.507 157.273 229.079 156.761 228.764 156.091C228.45 155.42 228.293 154.606 228.293 153.648C228.293 152.678 228.452 151.86 228.77 151.193C229.092 150.523 229.526 150.017 230.071 149.676C230.616 149.331 231.224 149.159 231.895 149.159C232.406 149.159 232.827 149.246 233.156 149.42C233.486 149.591 233.747 149.797 233.94 150.04C234.134 150.278 234.283 150.504 234.389 150.716H234.474V146.364H236.537V158H234.514V156.625H234.389C234.283 156.837 234.13 157.062 233.929 157.301C233.728 157.536 233.463 157.737 233.134 157.903C232.804 158.07 232.389 158.153 231.889 158.153ZM232.463 156.466C232.899 156.466 233.27 156.348 233.577 156.114C233.884 155.875 234.116 155.544 234.276 155.119C234.435 154.695 234.514 154.201 234.514 153.636C234.514 153.072 234.435 152.581 234.276 152.165C234.12 151.748 233.889 151.424 233.582 151.193C233.279 150.962 232.906 150.847 232.463 150.847C232.005 150.847 231.622 150.966 231.315 151.205C231.009 151.443 230.777 151.773 230.622 152.193C230.467 152.614 230.389 153.095 230.389 153.636C230.389 154.182 230.467 154.669 230.622 155.097C230.781 155.521 231.014 155.856 231.321 156.102C231.632 156.345 232.012 156.466 232.463 156.466ZM242.536 158.17C241.683 158.17 240.945 157.983 240.32 157.608C239.695 157.233 239.21 156.708 238.865 156.034C238.524 155.36 238.354 154.572 238.354 153.67C238.354 152.769 238.524 151.979 238.865 151.301C239.21 150.623 239.695 150.097 240.32 149.722C240.945 149.347 241.683 149.159 242.536 149.159C243.388 149.159 244.126 149.347 244.751 149.722C245.376 150.097 245.859 150.623 246.2 151.301C246.545 151.979 246.717 152.769 246.717 153.67C246.717 154.572 246.545 155.36 246.2 156.034C245.859 156.708 245.376 157.233 244.751 157.608C244.126 157.983 243.388 158.17 242.536 158.17ZM242.547 156.523C243.009 156.523 243.395 156.396 243.706 156.142C244.017 155.884 244.248 155.54 244.399 155.108C244.554 154.676 244.632 154.195 244.632 153.665C244.632 153.131 244.554 152.648 244.399 152.216C244.248 151.78 244.017 151.434 243.706 151.176C243.395 150.919 243.009 150.79 242.547 150.79C242.073 150.79 241.679 150.919 241.365 151.176C241.054 151.434 240.821 151.78 240.666 152.216C240.515 152.648 240.439 153.131 240.439 153.665C240.439 154.195 240.515 154.676 240.666 155.108C240.821 155.54 241.054 155.884 241.365 156.142C241.679 156.396 242.073 156.523 242.547 156.523Z" fill="#535353"/>
<path d="M161.866 190.239C160.594 190.239 159.46 190.02 158.466 189.582C157.477 189.139 156.696 188.531 156.122 187.759C155.554 186.98 155.261 186.082 155.244 185.065H158.96C158.983 185.491 159.122 185.866 159.378 186.19C159.639 186.509 159.986 186.756 160.418 186.932C160.849 187.108 161.335 187.196 161.875 187.196C162.438 187.196 162.935 187.097 163.366 186.898C163.798 186.699 164.136 186.423 164.381 186.071C164.625 185.719 164.747 185.312 164.747 184.852C164.747 184.386 164.616 183.974 164.355 183.616C164.099 183.253 163.73 182.969 163.247 182.764C162.77 182.56 162.202 182.457 161.543 182.457H159.915V179.747H161.543C162.099 179.747 162.591 179.651 163.017 179.457C163.449 179.264 163.784 178.997 164.023 178.656C164.261 178.31 164.381 177.906 164.381 177.446C164.381 177.009 164.276 176.625 164.065 176.295C163.861 175.96 163.571 175.699 163.196 175.511C162.827 175.324 162.395 175.23 161.901 175.23C161.401 175.23 160.943 175.321 160.528 175.503C160.114 175.679 159.781 175.932 159.531 176.261C159.281 176.591 159.148 176.977 159.131 177.42H155.594C155.611 176.415 155.898 175.528 156.455 174.761C157.011 173.994 157.761 173.395 158.705 172.963C159.653 172.526 160.724 172.307 161.918 172.307C163.122 172.307 164.176 172.526 165.08 172.963C165.983 173.401 166.685 173.991 167.185 174.736C167.69 175.474 167.94 176.304 167.935 177.224C167.94 178.202 167.636 179.017 167.023 179.67C166.415 180.324 165.622 180.739 164.645 180.915V181.051C165.929 181.216 166.906 181.662 167.577 182.389C168.253 183.111 168.588 184.014 168.582 185.099C168.588 186.094 168.301 186.977 167.722 187.75C167.148 188.523 166.355 189.131 165.344 189.574C164.332 190.017 163.173 190.239 161.866 190.239ZM172.899 190.222C172.337 190.222 171.854 190.023 171.45 189.625C171.053 189.222 170.854 188.739 170.854 188.176C170.854 187.619 171.053 187.142 171.45 186.744C171.854 186.347 172.337 186.148 172.899 186.148C173.445 186.148 173.922 186.347 174.331 186.744C174.74 187.142 174.945 187.619 174.945 188.176C174.945 188.551 174.848 188.895 174.655 189.207C174.467 189.514 174.22 189.761 173.913 189.949C173.607 190.131 173.268 190.222 172.899 190.222ZM177.925 190L185.161 175.682V175.562H176.732V172.545H188.979V175.605L181.735 190H177.925ZM189.838 186.932V184.026L197.125 172.545H199.631V176.568H198.148L193.554 183.838V183.974H203.909V186.932H189.838ZM198.216 190V186.045L198.284 184.759V172.545H201.744V190H198.216ZM212.879 190.239C211.567 190.239 210.399 190.026 209.376 189.599C208.359 189.168 207.561 188.58 206.982 187.835C206.402 187.091 206.112 186.247 206.112 185.304C206.112 184.577 206.277 183.909 206.607 183.301C206.942 182.688 207.396 182.179 207.97 181.776C208.544 181.366 209.186 181.105 209.896 180.991V180.872C208.964 180.685 208.209 180.233 207.629 179.517C207.05 178.795 206.76 177.957 206.76 177.003C206.76 176.099 207.024 175.295 207.553 174.591C208.081 173.881 208.805 173.324 209.726 172.92C210.652 172.511 211.703 172.307 212.879 172.307C214.055 172.307 215.104 172.511 216.024 172.92C216.95 173.33 217.678 173.889 218.206 174.599C218.734 175.304 219.001 176.105 219.007 177.003C219.001 177.963 218.706 178.801 218.121 179.517C217.536 180.233 216.786 180.685 215.871 180.872V180.991C216.57 181.105 217.203 181.366 217.771 181.776C218.345 182.179 218.8 182.688 219.135 183.301C219.476 183.909 219.649 184.577 219.655 185.304C219.649 186.247 219.357 187.091 218.777 187.835C218.197 188.58 217.396 189.168 216.374 189.599C215.357 190.026 214.192 190.239 212.879 190.239ZM212.879 187.528C213.464 187.528 213.976 187.423 214.413 187.213C214.851 186.997 215.192 186.702 215.436 186.327C215.686 185.946 215.811 185.509 215.811 185.014C215.811 184.509 215.683 184.062 215.428 183.676C215.172 183.284 214.825 182.977 214.388 182.756C213.95 182.528 213.447 182.415 212.879 182.415C212.317 182.415 211.814 182.528 211.371 182.756C210.928 182.977 210.578 183.284 210.322 183.676C210.072 184.062 209.947 184.509 209.947 185.014C209.947 185.509 210.07 185.946 210.314 186.327C210.558 186.702 210.902 186.997 211.345 187.213C211.788 187.423 212.3 187.528 212.879 187.528ZM212.879 179.73C213.368 179.73 213.803 179.631 214.183 179.432C214.564 179.233 214.862 178.957 215.078 178.605C215.294 178.253 215.402 177.847 215.402 177.386C215.402 176.932 215.294 176.534 215.078 176.193C214.862 175.847 214.567 175.577 214.192 175.384C213.817 175.185 213.379 175.085 212.879 175.085C212.385 175.085 211.947 175.185 211.567 175.384C211.186 175.577 210.888 175.847 210.672 176.193C210.462 176.534 210.357 176.932 210.357 177.386C210.357 177.847 210.464 178.253 210.68 178.605C210.896 178.957 211.195 179.233 211.575 179.432C211.956 179.631 212.391 179.73 212.879 179.73ZM222.337 172.545H226.888L231.695 184.273H231.9L236.707 172.545H241.258V190H237.678V178.639H237.533L233.016 189.915H230.579L226.062 178.597H225.917V190H222.337V172.545Z" fill="#535353"/>
<rect x="346" y="167" width="63" height="29" rx="10" fill="#DEF5E5"/>
<path d="M360.42 185.227V177.182H362.455V185.227H360.42ZM357.415 182.222V180.188H365.46V182.222H357.415ZM367.49 187V185.227L371.632 181.392C371.984 181.051 372.28 180.744 372.518 180.472C372.761 180.199 372.945 179.932 373.07 179.67C373.195 179.405 373.257 179.119 373.257 178.812C373.257 178.472 373.179 178.178 373.024 177.932C372.869 177.682 372.657 177.491 372.388 177.358C372.119 177.222 371.814 177.153 371.473 177.153C371.117 177.153 370.806 177.225 370.541 177.369C370.276 177.513 370.071 177.72 369.928 177.989C369.784 178.258 369.712 178.578 369.712 178.949H367.376C367.376 178.187 367.549 177.527 367.893 176.966C368.238 176.405 368.721 175.972 369.342 175.665C369.964 175.358 370.679 175.205 371.49 175.205C372.323 175.205 373.049 175.352 373.666 175.648C374.287 175.939 374.77 176.345 375.115 176.864C375.46 177.383 375.632 177.977 375.632 178.648C375.632 179.087 375.545 179.521 375.371 179.949C375.2 180.377 374.895 180.852 374.456 181.375C374.017 181.894 373.397 182.517 372.598 183.244L370.899 184.909V184.989H375.786V187H367.49ZM377.142 184.955V183.017L382 175.364H383.67V178.045H382.682L379.619 182.892V182.983H386.523V184.955H377.142ZM382.727 187V184.364L382.773 183.506V175.364H385.08V187H382.727ZM394.531 184.818V184.205C394.531 183.739 394.63 183.311 394.827 182.92C395.027 182.527 395.317 182.212 395.696 181.977C396.079 181.739 396.545 181.619 397.094 181.619C397.651 181.619 398.118 181.737 398.497 181.972C398.88 182.206 399.168 182.521 399.361 182.915C399.558 183.305 399.656 183.735 399.656 184.205V184.818C399.656 185.284 399.558 185.714 399.361 186.108C399.164 186.498 398.874 186.811 398.491 187.045C398.109 187.284 397.643 187.403 397.094 187.403C396.537 187.403 396.069 187.284 395.69 187.045C395.312 186.811 395.024 186.498 394.827 186.108C394.63 185.714 394.531 185.284 394.531 184.818ZM396.185 184.205V184.818C396.185 185.087 396.249 185.341 396.378 185.58C396.51 185.818 396.749 185.938 397.094 185.938C397.438 185.938 397.673 185.82 397.798 185.585C397.927 185.35 397.991 185.095 397.991 184.818V184.205C397.991 183.928 397.931 183.67 397.81 183.432C397.688 183.193 397.45 183.074 397.094 183.074C396.753 183.074 396.516 183.193 396.384 183.432C396.251 183.67 396.185 183.928 396.185 184.205ZM388.56 178.159V177.545C388.56 177.076 388.66 176.646 388.861 176.256C389.062 175.862 389.351 175.547 389.73 175.312C390.113 175.078 390.575 174.96 391.116 174.96C391.677 174.96 392.147 175.078 392.526 175.312C392.904 175.547 393.192 175.862 393.389 176.256C393.586 176.646 393.685 177.076 393.685 177.545V178.159C393.685 178.629 393.584 179.059 393.384 179.449C393.187 179.839 392.897 180.152 392.514 180.386C392.135 180.617 391.67 180.733 391.116 180.733C390.563 180.733 390.096 180.616 389.713 180.381C389.334 180.142 389.046 179.83 388.849 179.443C388.656 179.053 388.56 178.625 388.56 178.159ZM390.224 177.545V178.159C390.224 178.436 390.289 178.691 390.418 178.926C390.55 179.161 390.783 179.278 391.116 179.278C391.465 179.278 391.702 179.161 391.827 178.926C391.955 178.691 392.02 178.436 392.02 178.159V177.545C392.02 177.269 391.959 177.011 391.838 176.773C391.717 176.534 391.476 176.415 391.116 176.415C390.779 176.415 390.546 176.536 390.418 176.778C390.289 177.021 390.224 177.277 390.224 177.545ZM389.31 187L397.31 175.364H398.798L390.798 187H389.31Z" fill="#30C778"/>
<line x1="128" y1="210.5" x2="432" y2="210.5" stroke="#827E7E"/>
<rect x="151" y="471" width="259" height="9" fill="#EBF4FE"/>
<defs>
<filter id="filter0_d_1092_451" x="74" y="5" width="415" height="480" filterUnits="userSpaceOnUse" color-interpolation-filters="sRGB">
<feFlood flood-opacity="0" result="BackgroundImageFix"/>
<feColorMatrix in="SourceAlpha" type="matrix" values="0 0 0 0 0 0 0 0 0 0 0 0 0 0 0 0 0 0 127 0" result="hardAlpha"/>
<feOffset dx="1" dy="1"/>
<feGaussianBlur stdDeviation="2"/>
<feComposite in2="hardAlpha" operator="out"/>
<feColorMatrix type="matrix" values="0 0 0 0 0 0 0 0 0 0 0 0 0 0 0 0 0 0 0.25 0"/>
<feBlend mode="normal" in2="BackgroundImageFix" result="effect1_dropShadow_1092_451"/>
<feBlend mode="normal" in="SourceGraphic" in2="effect1_dropShadow_1092_451" result="shape"/>
</filter>
<filter id="filter1_d_1092_451" x="0" y="0" width="560" height="608" filterUnits="userSpaceOnUse" color-interpolation-filters="sRGB">
<feFlood flood-opacity="0" result="BackgroundImageFix"/>
<feColorMatrix in="SourceAlpha" type="matrix" values="0 0 0 0 0 0 0 0 0 0 0 0 0 0 0 0 0 0 127 0" result="hardAlpha"/>
<feOffset/>
<feGaussianBlur stdDeviation="64"/>
<feComposite in2="hardAlpha" operator="out"/>
<feColorMatrix type="matrix" values="0 0 0 0 0.5 0 0 0 0 0.5 0 0 0 0 0.5 0 0 0 0.2 0"/>
<feBlend mode="normal" in2="BackgroundImageFix" result="effect1_dropShadow_1092_451"/>
<feBlend mode="normal" in="SourceGraphic" in2="effect1_dropShadow_1092_451" result="shape"/>
</filter>
</defs>
</svg>
