<svg width="655" height="510" viewBox="0 0 655 510" fill="none" xmlns="http://www.w3.org/2000/svg">
<rect width="655" height="510" rx="8" fill="white"/>
<rect x="48.528" y="131.98" width="557.151" height="327.719" rx="8.5" fill="#F2F2F2" fill-opacity="0.4" stroke="#E1E1E3"/>
<rect x="82.1275" y="170.332" width="109.989" height="59.7656" rx="8" fill="#80ACFF" fill-opacity="0.2"/>
<rect x="81.1275" y="281.891" width="495.952" height="61.7656" rx="9" fill="#80ACFF" fill-opacity="0.45" stroke="#E1E1E3" stroke-width="2" stroke-dasharray="4 4"/>
<rect x="210.115" y="170.332" width="109.989" height="59.7656" rx="8" fill="#80ACFF" fill-opacity="0.2"/>
<rect x="338.102" y="170.332" width="109.989" height="59.7656" rx="8" fill="#80ACFF" fill-opacity="0.2"/>
<rect x="466.09" y="170.332" width="109.989" height="59.7656" rx="8" fill="#80ACFF" fill-opacity="0.2"/>
<rect x="161.017" y="88.6523" width="79.9922" height="7.96875" rx="3.98438" fill="#80ACFF" fill-opacity="0.55"/>
<rect x="287.005" y="88.6523" width="79.9922" height="7.96875" rx="3.98438" fill="#C4C4C4" fill-opacity="0.35"/>
<rect x="82.1275" y="259.98" width="251.975" height="7.96875" rx="3.98438" fill="#C4C4C4" fill-opacity="0.35"/>
<rect x="82.1275" y="372.539" width="195.981" height="7.96875" rx="3.98438" fill="#C4C4C4" fill-opacity="0.35"/>
<rect x="83.1275" y="396.449" width="491.952" height="25.8906" rx="7" fill="#C4C4C4" fill-opacity="0.15" stroke="#E1E1E3" stroke-width="2"/>
<rect x="412.992" y="88.6523" width="79.9922" height="7.96875" rx="3.98438" fill="#C4C4C4" fill-opacity="0.35"/>
<circle cx="202" cy="54" r="25" fill="#80ACFF"/>
<circle cx="454" cy="54" r="25" fill="#C4C4C4" fill-opacity="0.3"/>
<circle cx="328" cy="54" r="25" fill="#C4C4C4" fill-opacity="0.3"/>
<path d="M203.972 47.9091H202.048L198.782 50.044V51.9361L201.914 49.8906H201.99V61H203.972V47.9091Z" fill="white"/>
<path d="M454.016 61.179C453.138 61.179 452.354 61.0277 451.664 60.7251C450.978 60.4226 450.434 60.0028 450.034 59.4659C449.637 58.9247 449.424 58.2983 449.395 57.5866H451.402C451.427 57.9744 451.557 58.3111 451.792 58.5966C452.03 58.8778 452.341 59.0952 452.725 59.2486C453.108 59.402 453.534 59.4787 454.003 59.4787C454.519 59.4787 454.975 59.3892 455.371 59.2102C455.772 59.0312 456.085 58.782 456.311 58.4624C456.537 58.1385 456.65 57.7656 456.65 57.3438C456.65 56.9048 456.537 56.5192 456.311 56.1868C456.089 55.8501 455.763 55.5859 455.333 55.3942C454.907 55.2024 454.391 55.1065 453.786 55.1065H452.68V53.4957H453.786C454.272 53.4957 454.698 53.4084 455.064 53.2337C455.435 53.0589 455.725 52.8161 455.934 52.505C456.142 52.1896 456.247 51.821 456.247 51.3991C456.247 50.9943 456.155 50.6428 455.972 50.3445C455.793 50.0419 455.537 49.8054 455.205 49.6349C454.877 49.4645 454.489 49.3793 454.042 49.3793C453.615 49.3793 453.217 49.4581 452.846 49.6158C452.48 49.7692 452.181 49.9908 451.951 50.2805C451.721 50.5661 451.598 50.9091 451.581 51.3097H449.669C449.691 50.6023 449.9 49.9801 450.296 49.4432C450.696 48.9062 451.225 48.4865 451.881 48.1839C452.537 47.8814 453.266 47.7301 454.067 47.7301C454.907 47.7301 455.631 47.8942 456.24 48.2223C456.854 48.5462 457.327 48.9787 457.659 49.5199C457.996 50.0611 458.162 50.6534 458.158 51.2969C458.162 52.0298 457.958 52.652 457.544 53.1634C457.135 53.6747 456.59 54.0178 455.908 54.1925V54.2947C456.777 54.4268 457.451 54.772 457.928 55.3303C458.409 55.8885 458.648 56.581 458.644 57.4077C458.648 58.1278 458.448 58.7734 458.043 59.3445C457.642 59.9155 457.095 60.3651 456.4 60.6932C455.706 61.017 454.911 61.179 454.016 61.179Z" fill="black" fill-opacity="0.6"/>
<path d="M323.74 61V59.5682L328.169 54.9787C328.642 54.4801 329.032 54.0433 329.339 53.6683C329.65 53.2891 329.882 52.929 330.036 52.5881C330.189 52.2472 330.266 51.8849 330.266 51.5014C330.266 51.0668 330.164 50.6918 329.959 50.3764C329.755 50.0568 329.475 49.8118 329.122 49.6413C328.768 49.4666 328.37 49.3793 327.926 49.3793C327.458 49.3793 327.049 49.4751 326.699 49.6669C326.35 49.8587 326.081 50.1293 325.894 50.4787C325.706 50.8281 325.613 51.2372 325.613 51.706H323.727C323.727 50.9091 323.91 50.2124 324.277 49.6158C324.643 49.0192 325.146 48.5568 325.785 48.2287C326.424 47.8963 327.151 47.7301 327.965 47.7301C328.787 47.7301 329.512 47.8942 330.138 48.2223C330.769 48.5462 331.261 48.9893 331.615 49.5518C331.968 50.1101 332.145 50.7408 332.145 51.4439C332.145 51.9297 332.054 52.4048 331.87 52.8693C331.691 53.3338 331.378 53.8516 330.931 54.4226C330.483 54.9893 329.861 55.6776 329.064 56.4872L326.463 59.2102V59.3061H332.356V61H323.74Z" fill="black" fill-opacity="0.6"/>
</svg>
