<svg width="906" height="582" viewBox="0 0 906 582" fill="none" xmlns="http://www.w3.org/2000/svg">
<path d="M0 8.00001C0 3.58173 3.58172 0 8 0H898C902.418 0 906 3.58172 906 8V574C906 578.418 902.418 582 898 582H7.99999C3.58171 582 0 578.418 0 574V8.00001Z" fill="white"/>
<rect x="115" y="148" width="682" height="385" rx="7" fill="white" fill-opacity="0.4" stroke="#F2F2F2" stroke-width="2"/>
<path d="M664 484C664 479.582 667.582 476 672 476H760C764.418 476 768 479.582 768 484V506C768 510.418 764.418 514 760 514H672C667.582 514 664 510.418 664 506V484Z" fill="#80ACFF" fill-opacity="0.8"/>
<circle cx="54.5" cy="23.5" r="5.5" fill="#61C453"/>
<circle cx="36.5" cy="23.5" r="5.5" fill="#F6BE4B"/>
<circle cx="18.5" cy="23.5" r="5.5" fill="#EF6A5F"/>
<path d="M830.178 28.5078H832.46C832.415 26.2962 830.53 24.7301 827.743 24.7301C824.994 24.7301 822.929 26.277 822.936 28.5909C822.936 30.4702 824.272 31.5504 826.426 32.1065L827.915 32.4901C829.328 32.848 830.261 33.2891 830.267 34.3054C830.261 35.424 829.2 36.1719 827.653 36.1719C826.17 36.1719 825.02 35.5071 824.924 34.1328H822.591C822.687 36.7344 824.623 38.1982 827.672 38.1982C830.811 38.1982 832.633 36.6321 832.639 34.3246C832.633 32.0554 830.76 31.0199 828.791 30.5533L827.564 30.2464C826.49 29.9908 825.326 29.5369 825.339 28.4439C825.346 27.4595 826.228 26.7372 827.711 26.7372C829.123 26.7372 830.057 27.3956 830.178 28.5078ZM838.934 38.1918C841.81 38.1918 843.638 36.1655 843.638 33.1293C843.638 30.0866 841.81 28.054 838.934 28.054C836.057 28.054 834.229 30.0866 834.229 33.1293C834.229 36.1655 836.057 38.1918 838.934 38.1918ZM838.946 36.3381C837.355 36.3381 836.575 34.919 836.575 33.1229C836.575 31.3267 837.355 29.8885 838.946 29.8885C840.512 29.8885 841.292 31.3267 841.292 33.1229C841.292 34.919 840.512 36.3381 838.946 36.3381ZM850.575 28.1818H848.536V27.4084C848.536 26.6413 848.856 26.2131 849.718 26.2131C850.083 26.2131 850.39 26.2962 850.581 26.3537L851.048 24.5639C850.748 24.4616 850.089 24.2955 849.29 24.2955C847.584 24.2955 846.222 25.2734 846.222 27.255V28.1818H844.771V29.9716H846.222V38H848.536V29.9716H850.575V28.1818ZM852.387 38H854.701V28.1818H852.387V38ZM852.662 26.8906H854.394L856.357 23.9695H854.094L852.662 26.8906ZM859.906 38.1982C861.446 38.1982 862.367 37.4759 862.789 36.6513H862.865V38H865.09V31.429C865.09 28.8338 862.974 28.054 861.101 28.054C859.036 28.054 857.451 28.9744 856.94 30.7642L859.1 31.071C859.331 30.3999 859.983 29.8246 861.114 29.8246C862.188 29.8246 862.776 30.3743 862.776 31.3395V31.3778C862.776 32.0426 862.079 32.0746 860.347 32.2599C858.442 32.4645 856.62 33.0334 856.62 35.245C856.62 37.1754 858.033 38.1982 859.906 38.1982ZM860.507 36.4979C859.541 36.4979 858.851 36.0568 858.851 35.2067C858.851 34.3182 859.625 33.9474 860.66 33.8004C861.267 33.7173 862.482 33.5639 862.782 33.321V34.478C862.782 35.571 861.9 36.4979 860.507 36.4979Z" fill="#7E8C9A"/>
<path d="M801 31C802.193 31 803.338 30.5259 804.182 29.682C805.026 28.8381 805.5 27.6935 805.5 26.5C805.5 25.3065 805.026 24.1619 804.182 23.318C803.338 22.4741 802.193 22 801 22C799.807 22 798.662 22.4741 797.818 23.318C796.974 24.1619 796.5 25.3065 796.5 26.5C796.5 27.6935 796.974 28.8381 797.818 29.682C798.662 30.5259 799.807 31 801 31V31ZM804 26.5C804 27.2956 803.684 28.0587 803.121 28.6213C802.559 29.1839 801.796 29.5 801 29.5C800.204 29.5 799.441 29.1839 798.879 28.6213C798.316 28.0587 798 27.2956 798 26.5C798 25.7044 798.316 24.9413 798.879 24.3787C799.441 23.8161 800.204 23.5 801 23.5C801.796 23.5 802.559 23.8161 803.121 24.3787C803.684 24.9413 804 25.7044 804 26.5V26.5ZM810 38.5C810 40 808.5 40 808.5 40H793.5C793.5 40 792 40 792 38.5C792 37 793.5 32.5 801 32.5C808.5 32.5 810 37 810 38.5ZM808.5 38.494C808.498 38.125 808.269 37.015 807.252 35.998C806.274 35.02 804.434 34 801 34C797.565 34 795.726 35.02 794.748 35.998C793.731 37.015 793.503 38.125 793.5 38.494H808.5Z" fill="#7E8C9A"/>
<ellipse cx="313.567" cy="79.5045" rx="26.2892" ry="25.5045" fill="#80ACFF" fill-opacity="0.7"/>
<rect x="281" y="111.287" width="65.9193" height="10.2018" rx="5.1009" fill="#80ACFF" fill-opacity="0.7"/>
<path d="M316.96 70.7472H313.048L308.744 73.4234V77.0711L312.648 74.6847H312.75V88.2018H316.96V70.7472Z" fill="black"/>
<ellipse cx="597.648" cy="79.5045" rx="26.2892" ry="25.5045" fill="#F2F2F2" fill-opacity="0.5"/>
<rect x="565.081" y="111.287" width="65.9193" height="10.2018" rx="5.1009" fill="#F2F2F2" fill-opacity="0.5"/>
<path d="M597.57 88.4404C601.661 88.4404 604.568 86.2756 604.559 83.2416C604.568 81.0938 603.161 79.5597 600.468 79.2444V79.108C602.488 78.8183 603.92 77.4631 603.911 75.5029C603.92 72.6563 601.346 70.5086 597.604 70.5086C593.837 70.5086 591.093 72.6904 591.059 75.7927H595.09C595.124 74.5995 596.198 73.7984 597.604 73.7984C598.943 73.7984 599.854 74.608 599.846 75.7756C599.854 76.9859 598.781 77.8211 597.229 77.8211H595.533V80.8211H597.229C598.994 80.8211 600.144 81.6904 600.127 82.9177C600.144 84.1535 599.087 85.0143 597.587 85.0143C596.096 85.0143 594.997 84.2217 594.954 83.0711H590.71C590.744 86.2245 593.582 88.4404 597.57 88.4404Z" fill="black" fill-opacity="0.6"/>
<circle cx="455.5" cy="79.5" r="25.5" fill="#F2F2F2" fill-opacity="0.7"/>
<rect x="422" y="111" width="67" height="10" rx="5" fill="#F2F2F2" fill-opacity="0.7"/>
<path d="M449.635 89H462.555V85.5994H455.481V85.4886L457.569 83.5625C461.353 80.2642 462.342 78.5852 462.342 76.5824C462.342 73.4375 459.777 71.3068 455.814 71.3068C451.953 71.3068 449.37 73.5312 449.379 77.0852H453.376C453.376 75.5085 454.348 74.5966 455.797 74.5966C457.22 74.5966 458.251 75.4744 458.251 76.9148C458.251 78.2188 457.433 79.1051 456.001 80.392L449.635 85.9659V89Z" fill="black" fill-opacity="0.65"/>
<g style="mix-blend-mode:darken" filter="url(#filter0_b_12_520)">
<rect x="136" y="181" width="135" height="96" rx="8" fill="#F2F2F2" fill-opacity="0.4"/>
<rect x="149" y="229" width="110" height="30" rx="8" fill="#80ACFF" fill-opacity="0.5"/>
<path d="M152 207.5C152 203.358 155.358 200 159.5 200H214.5C218.642 200 222 203.358 222 207.5V207.5C222 211.642 218.642 215 214.5 215H159.5C155.358 215 152 211.642 152 207.5V207.5Z" fill="#CCDEFF" fill-opacity="0.7"/>
</g>
<g style="mix-blend-mode:darken" filter="url(#filter1_b_12_520)">
<rect x="303" y="180" width="135" height="96" rx="8" fill="#F2F2F2" fill-opacity="0.4"/>
<rect x="316" y="228" width="110" height="30" rx="8" fill="#80ACFF" fill-opacity="0.4"/>
<path d="M319 206.5C319 202.358 322.358 199 326.5 199H381.5C385.642 199 389 202.358 389 206.5V206.5C389 210.642 385.642 214 381.5 214H326.5C322.358 214 319 210.642 319 206.5V206.5Z" fill="#CCDEFF" fill-opacity="0.45"/>
</g>
<g style="mix-blend-mode:darken" filter="url(#filter2_b_12_520)">
<rect x="471" y="180" width="135" height="96" rx="8" fill="#F2F2F2" fill-opacity="0.4"/>
<rect x="484" y="228" width="110" height="30" rx="8" fill="#80ACFF" fill-opacity="0.3"/>
<path d="M487 206.5C487 202.358 490.358 199 494.5 199H549.5C553.642 199 557 202.358 557 206.5V206.5C557 210.642 553.642 214 549.5 214H494.5C490.358 214 487 210.642 487 206.5V206.5Z" fill="#CCDEFF" fill-opacity="0.3"/>
</g>
<g style="mix-blend-mode:darken" filter="url(#filter3_b_12_520)">
<rect x="633" y="180" width="135" height="96" rx="8" fill="#F2F2F2" fill-opacity="0.4"/>
<rect x="646" y="229" width="110" height="30" rx="8" fill="#80ACFF" fill-opacity="0.15"/>
<path d="M647 208.5C647 204.358 650.358 201 654.5 201H709.5C713.642 201 717 204.358 717 208.5V208.5C717 212.642 713.642 216 709.5 216H654.5C650.358 216 647 212.642 647 208.5V208.5Z" fill="#CCDEFF" fill-opacity="0.35"/>
</g>
<rect x="142.5" y="309.5" width="304" height="144" rx="9.5" fill="white" fill-opacity="0.4" stroke="#F2F2F2" stroke-width="3" stroke-dasharray="6 6"/>
<path d="M299.258 401.85C299.258 397.431 303.61 393.362 308.022 393.362C308.695 393.362 309.35 393.191 309.98 393.345C309.989 393.149 309.997 392.023 309.997 391.827V347H271.835L264 355.061V407.224H300.025C299.25 405.995 299.258 403.411 299.258 401.85Z" fill="#E7EAF3"/>
<path d="M298.577 402.703C298.577 397.192 303.04 392.722 308.541 392.722C308.839 392.722 309.137 392.739 309.435 392.765V369.622H264.724V406.2H299.207C298.79 405.083 298.577 403.897 298.577 402.703Z" fill="white"/>
<path d="M309.401 369.963H264.588V355.061L271.835 347.469H309.401V369.963Z" fill="white"/>
<path d="M306.608 351.999H294.455V352.929H306.608V351.999Z" fill="#377DFF"/>
<path d="M306.608 355.411H294.455V356.341H306.608V355.411Z" fill="#377DFF"/>
<path d="M306.608 358.823H294.455V359.753H306.608V358.823Z" fill="#377DFF"/>
<path opacity="0.5" d="M306.608 362.235H294.455V363.165H306.608V362.235Z" fill="#377DFF"/>
<path d="M306.608 365.647H294.455V366.577H306.608V365.647Z" fill="#377DFF"/>
<path d="M306.608 369.059H294.455V369.989H306.608V369.059Z" fill="#377DFF"/>
<path opacity="0.5" d="M283.367 376.31H271.214V377.24H283.367V376.31Z" fill="#377DFF"/>
<path d="M283.367 380.021H271.214V380.95H283.367V380.021Z" fill="#377DFF"/>
<path opacity="0.5" d="M302.946 378.17H271.214V379.099H302.946V378.17Z" fill="#00C9A7"/>
<path opacity="0.5" d="M283.367 385.284H271.214V386.214H283.367V385.284Z" fill="#377DFF"/>
<path d="M283.367 389.003H271.214V389.933H283.367V389.003Z" fill="#377DFF"/>
<path d="M302.946 387.143H271.214V388.073H302.946V387.143Z" fill="#00C9A7"/>
<path opacity="0.5" d="M283.367 394.266H271.214V395.196H283.367V394.266Z" fill="#377DFF"/>
<path d="M283.367 397.977H271.214V398.907H283.367V397.977Z" fill="#377DFF"/>
<path d="M297.223 396.117H271.214V397.047H297.223V396.117Z" fill="#E7EAF3"/>
<path d="M290.401 370.97H268.258V351.606L269.025 350.668H270.796H290.401V370.97Z" fill="#377DFF"/>
<path d="M264.417 355.232H272.006V347.299L264.417 355.232Z" fill="url(#paint0_linear_12_520)"/>
<path d="M264.588 355.061H271.835V347.469L264.588 355.061Z" fill="#E7EAF3"/>
<path d="M317.475 414.935C322.183 414.935 326 411.112 326 406.396C326 401.68 322.183 397.857 317.475 397.857C312.767 397.857 308.95 401.68 308.95 406.396C308.95 411.112 312.767 414.935 317.475 414.935Z" fill="#E7EAF3"/>
<path d="M317.475 414.389C321.882 414.389 325.455 410.811 325.455 406.396C325.455 401.982 321.882 398.403 317.475 398.403C313.068 398.403 309.495 401.982 309.495 406.396C309.495 410.811 313.068 414.389 317.475 414.389Z" fill="#00C9A7"/>
<g opacity="0.5">
<path opacity="0.5" d="M321.776 405.432H318.437V402.08H316.513V405.432H313.166V407.352H316.513V410.704H318.437V407.352H321.776V405.432Z" fill="url(#paint1_linear_12_520)"/>
</g>
<path d="M318.293 402.728H316.657V410.064H318.293V402.728Z" fill="white"/>
<path d="M321.137 405.578H313.813V407.215H321.137V405.578Z" fill="white"/>
<path d="M308.201 405.688C308.201 401.27 312.552 397.201 316.964 397.201C317.637 397.201 318.293 397.03 318.923 397.184C318.931 396.987 318.94 395.861 318.94 395.665V350.839H280.777L272.942 358.9V411.062H308.967C308.192 409.834 308.201 407.249 308.201 405.688Z" fill="#E7EAF3"/>
<path d="M307.519 406.541C307.519 401.031 311.982 396.561 317.484 396.561C317.782 396.561 318.08 396.578 318.378 396.604V373.461H273.666V410.039H308.149C307.732 408.921 307.519 407.736 307.519 406.541Z" fill="white"/>
<path d="M318.344 373.802H273.53V358.9L280.777 351.308H318.344V373.802Z" fill="white"/>
<path d="M315.55 355.837H303.397V356.767H315.55V355.837Z" fill="#377DFF"/>
<path d="M315.55 359.25H303.397V360.179H315.55V359.25Z" fill="#377DFF"/>
<path d="M315.55 362.662H303.397V363.591H315.55V362.662Z" fill="#377DFF"/>
<path opacity="0.5" d="M315.55 366.074H303.397V367.004H315.55V366.074Z" fill="#377DFF"/>
<path d="M315.55 369.486H303.397V370.416H315.55V369.486Z" fill="#377DFF"/>
<path d="M315.55 372.898H303.397V373.828H315.55V372.898Z" fill="#377DFF"/>
<path opacity="0.5" d="M292.309 380.149H280.156V381.078H292.309V380.149Z" fill="#377DFF"/>
<path d="M292.309 383.859H280.156V384.789H292.309V383.859Z" fill="#377DFF"/>
<path opacity="0.5" d="M311.888 382.008H280.156V382.938H311.888V382.008Z" fill="#00C9A7"/>
<path opacity="0.5" d="M292.309 389.123H280.156V390.052H292.309V389.123Z" fill="#377DFF"/>
<path d="M292.309 392.842H280.156V393.772H292.309V392.842Z" fill="#377DFF"/>
<path d="M311.888 390.982H280.156V391.912H311.888V390.982Z" fill="#00C9A7"/>
<path opacity="0.5" d="M292.309 398.105H280.156V399.035H292.309V398.105Z" fill="#377DFF"/>
<path d="M292.309 401.816H280.156V402.745H292.309V401.816Z" fill="#377DFF"/>
<path d="M306.165 399.956H280.156V400.886H306.165V399.956Z" fill="#E7EAF3"/>
<path d="M299.343 374.809H277.201V355.445L277.967 354.507H279.738H299.343V374.809Z" fill="#377DFF"/>
<path d="M273.36 359.07H280.948V351.137L273.36 359.07Z" fill="url(#paint2_linear_12_520)"/>
<path d="M273.53 358.9H280.777V351.308L273.53 358.9Z" fill="#E7EAF3"/>
<rect x="465.5" y="308.5" width="304" height="144" rx="9.5" fill="white" fill-opacity="0.4" stroke="#F2F2F2" stroke-width="3" stroke-dasharray="6 6"/>
<path d="M622.258 400.85C622.258 396.431 626.61 392.362 631.022 392.362C631.695 392.362 632.35 392.191 632.98 392.345C632.989 392.149 632.997 391.023 632.997 390.827V346H594.835L587 354.061V406.224H623.025C622.25 404.995 622.258 402.411 622.258 400.85Z" fill="#E7EAF3"/>
<path d="M621.577 401.703C621.577 396.192 626.04 391.722 631.541 391.722C631.839 391.722 632.137 391.739 632.435 391.765V368.622H587.724V405.2H622.207C621.79 404.083 621.577 402.897 621.577 401.703Z" fill="white"/>
<path d="M632.401 368.963H587.588V354.061L594.835 346.469H632.401V368.963Z" fill="white"/>
<path d="M629.608 350.999H617.455V351.929H629.608V350.999Z" fill="#377DFF"/>
<path d="M629.608 354.411H617.455V355.341H629.608V354.411Z" fill="#377DFF"/>
<path d="M629.608 357.823H617.455V358.753H629.608V357.823Z" fill="#377DFF"/>
<path opacity="0.5" d="M629.608 361.235H617.455V362.165H629.608V361.235Z" fill="#377DFF"/>
<path d="M629.608 364.647H617.455V365.577H629.608V364.647Z" fill="#377DFF"/>
<path d="M629.608 368.059H617.455V368.989H629.608V368.059Z" fill="#377DFF"/>
<path opacity="0.5" d="M606.366 375.31H594.213V376.24H606.366V375.31Z" fill="#377DFF"/>
<path d="M606.366 379.021H594.213V379.95H606.366V379.021Z" fill="#377DFF"/>
<path opacity="0.5" d="M625.946 377.17H594.213V378.099H625.946V377.17Z" fill="#00C9A7"/>
<path opacity="0.5" d="M606.366 384.284H594.213V385.214H606.366V384.284Z" fill="#377DFF"/>
<path d="M606.366 388.003H594.213V388.933H606.366V388.003Z" fill="#377DFF"/>
<path d="M625.946 386.143H594.213V387.073H625.946V386.143Z" fill="#00C9A7"/>
<path opacity="0.5" d="M606.366 393.266H594.213V394.196H606.366V393.266Z" fill="#377DFF"/>
<path d="M606.366 396.977H594.213V397.907H606.366V396.977Z" fill="#377DFF"/>
<path d="M620.223 395.117H594.213V396.047H620.223V395.117Z" fill="#E7EAF3"/>
<path d="M613.401 369.97H591.258V350.606L592.025 349.668H593.796H613.401V369.97Z" fill="#377DFF"/>
<path d="M587.417 354.232H595.005V346.299L587.417 354.232Z" fill="url(#paint3_linear_12_520)"/>
<path d="M587.588 354.061H594.835V346.469L587.588 354.061Z" fill="#E7EAF3"/>
<path d="M640.475 413.935C645.183 413.935 649 410.112 649 405.396C649 400.68 645.183 396.857 640.475 396.857C635.767 396.857 631.95 400.68 631.95 405.396C631.95 410.112 635.767 413.935 640.475 413.935Z" fill="#E7EAF3"/>
<path d="M640.475 413.389C644.882 413.389 648.455 409.811 648.455 405.396C648.455 400.982 644.882 397.403 640.475 397.403C636.068 397.403 632.495 400.982 632.495 405.396C632.495 409.811 636.068 413.389 640.475 413.389Z" fill="#00C9A7"/>
<g opacity="0.5">
<path opacity="0.5" d="M644.776 404.432H641.437V401.08H639.513V404.432H636.166V406.352H639.513V409.704H641.437V406.352H644.776V404.432Z" fill="url(#paint4_linear_12_520)"/>
</g>
<path d="M641.293 401.728H639.657V409.064H641.293V401.728Z" fill="white"/>
<path d="M644.137 404.578H636.813V406.215H644.137V404.578Z" fill="white"/>
<path d="M631.201 404.688C631.201 400.27 635.553 396.201 639.964 396.201C640.637 396.201 641.293 396.03 641.923 396.184C641.931 395.987 641.94 394.861 641.94 394.665V349.839H603.778L595.942 357.9V410.062H631.967C631.192 408.834 631.201 406.249 631.201 404.688Z" fill="#E7EAF3"/>
<path d="M630.519 405.541C630.519 400.031 634.982 395.561 640.484 395.561C640.782 395.561 641.08 395.578 641.378 395.604V372.461H596.666V409.039H631.149C630.732 407.921 630.519 406.736 630.519 405.541Z" fill="white"/>
<path d="M641.344 372.802H596.53V357.9L603.778 350.308H641.344V372.802Z" fill="white"/>
<path d="M638.55 354.837H626.397V355.767H638.55V354.837Z" fill="#377DFF"/>
<path d="M638.55 358.25H626.397V359.179H638.55V358.25Z" fill="#377DFF"/>
<path d="M638.55 361.662H626.397V362.591H638.55V361.662Z" fill="#377DFF"/>
<path opacity="0.5" d="M638.55 365.074H626.397V366.004H638.55V365.074Z" fill="#377DFF"/>
<path d="M638.55 368.486H626.397V369.416H638.55V368.486Z" fill="#377DFF"/>
<path d="M638.55 371.898H626.397V372.828H638.55V371.898Z" fill="#377DFF"/>
<path opacity="0.5" d="M615.309 379.149H603.156V380.078H615.309V379.149Z" fill="#377DFF"/>
<path d="M615.309 382.859H603.156V383.789H615.309V382.859Z" fill="#377DFF"/>
<path opacity="0.5" d="M634.888 381.008H603.156V381.938H634.888V381.008Z" fill="#00C9A7"/>
<path opacity="0.5" d="M615.309 388.123H603.156V389.052H615.309V388.123Z" fill="#377DFF"/>
<path d="M615.309 391.842H603.156V392.772H615.309V391.842Z" fill="#377DFF"/>
<path d="M634.888 389.982H603.156V390.912H634.888V389.982Z" fill="#00C9A7"/>
<path opacity="0.5" d="M615.309 397.105H603.156V398.035H615.309V397.105Z" fill="#377DFF"/>
<path d="M615.309 400.816H603.156V401.745H615.309V400.816Z" fill="#377DFF"/>
<path d="M629.165 398.956H603.156V399.886H629.165V398.956Z" fill="#E7EAF3"/>
<path d="M622.343 373.809H600.2V354.445L600.967 353.507H602.738H622.343V373.809Z" fill="#377DFF"/>
<path d="M596.36 358.07H603.948V350.137L596.36 358.07Z" fill="url(#paint5_linear_12_520)"/>
<path d="M596.53 357.9H603.778V350.308L596.53 357.9Z" fill="#E7EAF3"/>
<defs>
<filter id="filter0_b_12_520" x="132" y="177" width="143" height="104" filterUnits="userSpaceOnUse" color-interpolation-filters="sRGB">
<feFlood flood-opacity="0" result="BackgroundImageFix"/>
<feGaussianBlur in="BackgroundImage" stdDeviation="2"/>
<feComposite in2="SourceAlpha" operator="in" result="effect1_backgroundBlur_12_520"/>
<feBlend mode="normal" in="SourceGraphic" in2="effect1_backgroundBlur_12_520" result="shape"/>
</filter>
<filter id="filter1_b_12_520" x="299" y="176" width="143" height="104" filterUnits="userSpaceOnUse" color-interpolation-filters="sRGB">
<feFlood flood-opacity="0" result="BackgroundImageFix"/>
<feGaussianBlur in="BackgroundImage" stdDeviation="2"/>
<feComposite in2="SourceAlpha" operator="in" result="effect1_backgroundBlur_12_520"/>
<feBlend mode="normal" in="SourceGraphic" in2="effect1_backgroundBlur_12_520" result="shape"/>
</filter>
<filter id="filter2_b_12_520" x="467" y="176" width="143" height="104" filterUnits="userSpaceOnUse" color-interpolation-filters="sRGB">
<feFlood flood-opacity="0" result="BackgroundImageFix"/>
<feGaussianBlur in="BackgroundImage" stdDeviation="2"/>
<feComposite in2="SourceAlpha" operator="in" result="effect1_backgroundBlur_12_520"/>
<feBlend mode="normal" in="SourceGraphic" in2="effect1_backgroundBlur_12_520" result="shape"/>
</filter>
<filter id="filter3_b_12_520" x="629" y="176" width="143" height="104" filterUnits="userSpaceOnUse" color-interpolation-filters="sRGB">
<feFlood flood-opacity="0" result="BackgroundImageFix"/>
<feGaussianBlur in="BackgroundImage" stdDeviation="2"/>
<feComposite in2="SourceAlpha" operator="in" result="effect1_backgroundBlur_12_520"/>
<feBlend mode="normal" in="SourceGraphic" in2="effect1_backgroundBlur_12_520" result="shape"/>
</filter>
<linearGradient id="paint0_linear_12_520" x1="268.212" y1="355.232" x2="268.212" y2="347.299" gradientUnits="userSpaceOnUse">
<stop stop-color="#B3B3B3" stop-opacity="0.25"/>
<stop offset="0.54" stop-color="#B3B3B3" stop-opacity="0.1"/>
<stop offset="1" stop-color="#B3B3B3" stop-opacity="0.05"/>
</linearGradient>
<linearGradient id="paint1_linear_12_520" x1="317.472" y1="410.706" x2="317.472" y2="402.078" gradientUnits="userSpaceOnUse">
<stop stop-color="#808080" stop-opacity="0.25"/>
<stop offset="0.54" stop-color="#808080" stop-opacity="0.12"/>
<stop offset="1" stop-color="#808080" stop-opacity="0.1"/>
</linearGradient>
<linearGradient id="paint2_linear_12_520" x1="277.154" y1="359.07" x2="277.154" y2="351.137" gradientUnits="userSpaceOnUse">
<stop stop-color="#B3B3B3" stop-opacity="0.25"/>
<stop offset="0.54" stop-color="#B3B3B3" stop-opacity="0.1"/>
<stop offset="1" stop-color="#B3B3B3" stop-opacity="0.05"/>
</linearGradient>
<linearGradient id="paint3_linear_12_520" x1="591.212" y1="354.232" x2="591.212" y2="346.299" gradientUnits="userSpaceOnUse">
<stop stop-color="#B3B3B3" stop-opacity="0.25"/>
<stop offset="0.54" stop-color="#B3B3B3" stop-opacity="0.1"/>
<stop offset="1" stop-color="#B3B3B3" stop-opacity="0.05"/>
</linearGradient>
<linearGradient id="paint4_linear_12_520" x1="640.473" y1="409.706" x2="640.473" y2="401.078" gradientUnits="userSpaceOnUse">
<stop stop-color="#808080" stop-opacity="0.25"/>
<stop offset="0.54" stop-color="#808080" stop-opacity="0.12"/>
<stop offset="1" stop-color="#808080" stop-opacity="0.1"/>
</linearGradient>
<linearGradient id="paint5_linear_12_520" x1="600.154" y1="358.07" x2="600.154" y2="350.137" gradientUnits="userSpaceOnUse">
<stop stop-color="#B3B3B3" stop-opacity="0.25"/>
<stop offset="0.54" stop-color="#B3B3B3" stop-opacity="0.1"/>
<stop offset="1" stop-color="#B3B3B3" stop-opacity="0.05"/>
</linearGradient>
</defs>
</svg>
