<svg width="906" height="582" viewBox="0 0 906 582" fill="none" xmlns="http://www.w3.org/2000/svg">
<path d="M369.076 354H371.052V350.314H373.14C375.66 350.314 377.013 348.801 377.013 346.702C377.013 344.62 375.676 343.091 373.167 343.091H369.076V354ZM371.052 348.689V344.742H372.863C374.344 344.742 374.999 345.541 374.999 346.702C374.999 347.864 374.344 348.689 372.874 348.689H371.052ZM382.096 354.16C384.493 354.16 386.016 352.471 386.016 349.941C386.016 347.406 384.493 345.712 382.096 345.712C379.699 345.712 378.175 347.406 378.175 349.941C378.175 352.471 379.699 354.16 382.096 354.16ZM382.106 352.615C380.78 352.615 380.13 351.433 380.13 349.936C380.13 348.439 380.78 347.24 382.106 347.24C383.411 347.24 384.061 348.439 384.061 349.936C384.061 351.433 383.411 352.615 382.106 352.615ZM387.653 354H389.581V349.19C389.581 348.151 390.364 347.416 391.424 347.416C391.749 347.416 392.154 347.475 392.319 347.528V345.754C392.143 345.722 391.84 345.701 391.627 345.701C390.689 345.701 389.906 346.234 389.608 347.182H389.523V345.818H387.653V354ZM400.89 354.16C402.946 354.16 404.256 352.94 404.395 351.203H402.552C402.387 352.082 401.753 352.588 400.906 352.588C399.702 352.588 398.924 351.582 398.924 349.909C398.924 348.258 399.718 347.267 400.906 347.267C401.833 347.267 402.403 347.864 402.552 348.652H404.395C404.262 346.878 402.877 345.712 400.879 345.712C398.482 345.712 396.969 347.443 396.969 349.941C396.969 352.418 398.445 354.16 400.89 354.16ZM409.547 354.16C411.944 354.16 413.467 352.471 413.467 349.941C413.467 347.406 411.944 345.712 409.547 345.712C407.15 345.712 405.627 347.406 405.627 349.941C405.627 352.471 407.15 354.16 409.547 354.16ZM409.558 352.615C408.231 352.615 407.581 351.433 407.581 349.936C407.581 348.439 408.231 347.24 409.558 347.24C410.863 347.24 411.513 348.439 411.513 349.936C411.513 351.433 410.863 352.615 409.558 352.615ZM415.189 354H417.086V352.711H417.197C417.501 353.308 418.135 354.144 419.541 354.144C421.469 354.144 422.913 352.615 422.913 349.92C422.913 347.192 421.427 345.712 419.536 345.712C418.092 345.712 417.49 346.58 417.197 347.171H417.118V343.091H415.189V354ZM417.08 349.909C417.08 348.322 417.762 347.294 419.003 347.294C420.287 347.294 420.947 348.386 420.947 349.909C420.947 351.443 420.276 352.562 419.003 352.562C417.773 352.562 417.08 351.496 417.08 349.909ZM424.552 354H426.481V349.19C426.481 348.151 427.264 347.416 428.324 347.416C428.649 347.416 429.053 347.475 429.218 347.528V345.754C429.043 345.722 428.739 345.701 428.526 345.701C427.589 345.701 426.805 346.234 426.507 347.182H426.422V345.818H424.552V354ZM432.693 354.165C433.977 354.165 434.744 353.563 435.095 352.876H435.159V354H437.013V348.524C437.013 346.362 435.25 345.712 433.689 345.712C431.968 345.712 430.647 346.479 430.221 347.97L432.022 348.226C432.213 347.667 432.757 347.187 433.7 347.187C434.594 347.187 435.085 347.645 435.085 348.45V348.482C435.085 349.036 434.504 349.062 433.06 349.217C431.473 349.387 429.955 349.861 429.955 351.704C429.955 353.313 431.132 354.165 432.693 354.165ZM433.194 352.748C432.389 352.748 431.814 352.381 431.814 351.672C431.814 350.932 432.458 350.623 433.321 350.5C433.827 350.431 434.839 350.303 435.09 350.101V351.065C435.09 351.976 434.355 352.748 433.194 352.748ZM438.952 354H440.88V349.19C440.88 348.151 441.663 347.416 442.723 347.416C443.048 347.416 443.453 347.475 443.618 347.528V345.754C443.442 345.722 443.138 345.701 442.925 345.701C441.988 345.701 441.205 346.234 440.907 347.182H440.821V345.818H438.952V354Z" fill="#7E8C9A"/>
<path d="M0 8.00001C0 3.58173 3.58172 0 8 0H898C902.418 0 906 3.58172 906 8V574C906 578.418 902.418 582 898 582H7.99999C3.58171 582 0 578.418 0 574V8.00001Z" fill="white"/>
<rect x="112" y="148" width="682" height="385" rx="7" fill="white" fill-opacity="0.4" stroke="#F2F2F2" stroke-width="2"/>
<path d="M664 487C664 482.582 667.582 479 672 479H760C764.418 479 768 482.582 768 487V509C768 513.418 764.418 517 760 517H672C667.582 517 664 513.418 664 509V487Z" fill="#80ACFF" fill-opacity="0.8"/>
<circle cx="54.5" cy="23.5" r="5.5" fill="#61C453"/>
<circle cx="36.5" cy="23.5" r="5.5" fill="#F6BE4B"/>
<circle cx="18.5" cy="23.5" r="5.5" fill="#EF6A5F"/>
<path d="M830.178 28.5078H832.46C832.415 26.2962 830.53 24.7301 827.743 24.7301C824.994 24.7301 822.929 26.277 822.936 28.5909C822.936 30.4702 824.272 31.5504 826.426 32.1065L827.915 32.4901C829.328 32.848 830.261 33.2891 830.267 34.3054C830.261 35.424 829.2 36.1719 827.653 36.1719C826.17 36.1719 825.02 35.5071 824.924 34.1328H822.591C822.687 36.7344 824.623 38.1982 827.672 38.1982C830.811 38.1982 832.633 36.6321 832.639 34.3246C832.633 32.0554 830.76 31.0199 828.791 30.5533L827.564 30.2464C826.49 29.9908 825.326 29.5369 825.339 28.4439C825.346 27.4595 826.228 26.7372 827.711 26.7372C829.123 26.7372 830.057 27.3956 830.178 28.5078ZM838.934 38.1918C841.81 38.1918 843.638 36.1655 843.638 33.1293C843.638 30.0866 841.81 28.054 838.934 28.054C836.057 28.054 834.229 30.0866 834.229 33.1293C834.229 36.1655 836.057 38.1918 838.934 38.1918ZM838.946 36.3381C837.355 36.3381 836.575 34.919 836.575 33.1229C836.575 31.3267 837.355 29.8885 838.946 29.8885C840.512 29.8885 841.292 31.3267 841.292 33.1229C841.292 34.919 840.512 36.3381 838.946 36.3381ZM850.575 28.1818H848.536V27.4084C848.536 26.6413 848.856 26.2131 849.718 26.2131C850.083 26.2131 850.39 26.2962 850.581 26.3537L851.048 24.5639C850.748 24.4616 850.089 24.2955 849.29 24.2955C847.584 24.2955 846.222 25.2734 846.222 27.255V28.1818H844.771V29.9716H846.222V38H848.536V29.9716H850.575V28.1818ZM852.387 38H854.701V28.1818H852.387V38ZM852.662 26.8906H854.394L856.357 23.9695H854.094L852.662 26.8906ZM859.906 38.1982C861.446 38.1982 862.367 37.4759 862.789 36.6513H862.865V38H865.09V31.429C865.09 28.8338 862.974 28.054 861.101 28.054C859.036 28.054 857.451 28.9744 856.94 30.7642L859.1 31.071C859.331 30.3999 859.983 29.8246 861.114 29.8246C862.188 29.8246 862.776 30.3743 862.776 31.3395V31.3778C862.776 32.0426 862.079 32.0746 860.347 32.2599C858.442 32.4645 856.62 33.0334 856.62 35.245C856.62 37.1754 858.033 38.1982 859.906 38.1982ZM860.507 36.4979C859.541 36.4979 858.851 36.0568 858.851 35.2067C858.851 34.3182 859.625 33.9474 860.66 33.8004C861.267 33.7173 862.482 33.5639 862.782 33.321V34.478C862.782 35.571 861.9 36.4979 860.507 36.4979Z" fill="#7E8C9A"/>
<path d="M801 31C802.193 31 803.338 30.5259 804.182 29.682C805.026 28.8381 805.5 27.6935 805.5 26.5C805.5 25.3065 805.026 24.1619 804.182 23.318C803.338 22.4741 802.193 22 801 22C799.807 22 798.662 22.4741 797.818 23.318C796.974 24.1619 796.5 25.3065 796.5 26.5C796.5 27.6935 796.974 28.8381 797.818 29.682C798.662 30.5259 799.807 31 801 31V31ZM804 26.5C804 27.2956 803.684 28.0587 803.121 28.6213C802.559 29.1839 801.796 29.5 801 29.5C800.204 29.5 799.441 29.1839 798.879 28.6213C798.316 28.0587 798 27.2956 798 26.5C798 25.7044 798.316 24.9413 798.879 24.3787C799.441 23.8161 800.204 23.5 801 23.5C801.796 23.5 802.559 23.8161 803.121 24.3787C803.684 24.9413 804 25.7044 804 26.5V26.5ZM810 38.5C810 40 808.5 40 808.5 40H793.5C793.5 40 792 40 792 38.5C792 37 793.5 32.5 801 32.5C808.5 32.5 810 37 810 38.5ZM808.5 38.494C808.498 38.125 808.269 37.015 807.252 35.998C806.274 35.02 804.434 34 801 34C797.565 34 795.726 35.02 794.748 35.998C793.731 37.015 793.503 38.125 793.5 38.494H808.5Z" fill="#7E8C9A"/>
<ellipse cx="313.567" cy="79.5045" rx="26.2892" ry="25.5045" fill="#F2F2F2" fill-opacity="0.7"/>
<rect x="281" y="111.287" width="65.9193" height="10.2018" rx="5.1009" fill="#F2F2F2" fill-opacity="0.7"/>
<path d="M316.96 70.7472H313.048L308.744 73.4234V77.0711L312.648 74.6847H312.75V88.2018H316.96V70.7472Z" fill="black"/>
<ellipse cx="597.648" cy="79.5045" rx="26.2892" ry="25.5045" fill="#F2F2F2" fill-opacity="0.5"/>
<rect x="565.081" y="111.287" width="65.9193" height="10.2018" rx="5.1009" fill="#F2F2F2" fill-opacity="0.5"/>
<path d="M597.57 88.4404C601.661 88.4404 604.568 86.2756 604.559 83.2416C604.568 81.0938 603.161 79.5597 600.468 79.2444V79.108C602.488 78.8183 603.92 77.4631 603.911 75.5029C603.92 72.6563 601.346 70.5086 597.604 70.5086C593.837 70.5086 591.093 72.6904 591.059 75.7927H595.09C595.124 74.5995 596.198 73.7984 597.604 73.7984C598.943 73.7984 599.854 74.608 599.846 75.7756C599.854 76.9859 598.781 77.8211 597.229 77.8211H595.533V80.8211H597.229C598.994 80.8211 600.144 81.6904 600.127 82.9177C600.144 84.1535 599.087 85.0143 597.587 85.0143C596.096 85.0143 594.997 84.2217 594.954 83.0711H590.71C590.744 86.2245 593.582 88.4404 597.57 88.4404Z" fill="black" fill-opacity="0.6"/>
<circle cx="455.5" cy="79.5" r="25.5" fill="#80ACFF" fill-opacity="0.7"/>
<rect x="422" y="111" width="67" height="10" rx="5" fill="#80ACFF" fill-opacity="0.7"/>
<path d="M449.635 89H462.555V85.5994H455.481V85.4886L457.569 83.5625C461.353 80.2642 462.342 78.5852 462.342 76.5824C462.342 73.4375 459.777 71.3068 455.814 71.3068C451.953 71.3068 449.37 73.5312 449.379 77.0852H453.376C453.376 75.5085 454.348 74.5966 455.797 74.5966C457.22 74.5966 458.251 75.4744 458.251 76.9148C458.251 78.2188 457.433 79.1051 456.001 80.392L449.635 85.9659V89Z" fill="black" fill-opacity="0.65"/>
<rect x="158" y="170" width="284.305" height="67.299" rx="8" fill="#F2F2F2" fill-opacity="0.4"/>
<rect x="146" y="288" width="135" height="18" rx="8" fill="#80ACFF" fill-opacity="0.65"/>
<path d="M146 277.5C146 275.015 148.015 273 150.5 273H227.5C229.985 273 232 275.015 232 277.5V277.5C232 279.985 229.985 282 227.5 282H150.5C148.015 282 146 279.985 146 277.5V277.5Z" fill="#CCDEFF" fill-opacity="0.8"/>
<rect x="146" y="376" width="135" height="18" rx="8" fill="#80ACFF" fill-opacity="0.5"/>
<path d="M146 365.5C146 363.015 148.015 361 150.5 361H227.5C229.985 361 232 363.015 232 365.5V365.5C232 367.985 229.985 370 227.5 370H150.5C148.015 370 146 367.985 146 365.5V365.5Z" fill="#CCDEFF" fill-opacity="0.7"/>
<g style="mix-blend-mode:darken" filter="url(#filter0_b_13_744)">
<rect x="463" y="170" width="284.305" height="67.299" rx="8" fill="#F2F2F2" fill-opacity="0.4"/>
</g>
<rect x="329.5" y="271.5" width="440" height="43" rx="9.5" fill="white" fill-opacity="0.4" stroke="#F2F2F2" stroke-width="3"/>
<rect x="329.5" y="359.5" width="440" height="43" rx="9.5" fill="white" fill-opacity="0.4" stroke="#F2F2F2" stroke-width="3"/>
<rect x="329.5" y="413.5" width="440" height="43" rx="9.5" fill="white" fill-opacity="0.4" stroke="#F2F2F2" stroke-width="3"/>
<path d="M203.58 213H207.27V207.341H210.372C214.386 207.341 216.722 204.946 216.722 201.46C216.722 197.991 214.429 195.545 210.466 195.545H203.58V213ZM207.27 204.384V198.562H209.759C211.889 198.562 212.92 199.722 212.92 201.46C212.92 203.19 211.889 204.384 209.776 204.384H207.27ZM224.805 213.256C228.044 213.256 230.226 211.679 230.737 209.25L227.379 209.028C227.013 210.026 226.075 210.545 224.865 210.545C223.05 210.545 221.899 209.344 221.899 207.392V207.384H230.814V206.386C230.814 201.938 228.121 199.739 224.661 199.739C220.808 199.739 218.311 202.474 218.311 206.514C218.311 210.665 220.774 213.256 224.805 213.256ZM221.899 205.134C221.976 203.642 223.109 202.449 224.72 202.449C226.297 202.449 227.388 203.574 227.396 205.134H221.899ZM233.183 213H236.814V205.594C236.814 203.983 237.99 202.875 239.592 202.875C240.095 202.875 240.786 202.96 241.126 203.071V199.849C240.803 199.773 240.351 199.722 239.984 199.722C238.518 199.722 237.317 200.574 236.839 202.193H236.703V199.909H233.183V213ZM253.896 203.642C253.572 201.23 251.629 199.739 248.322 199.739C244.972 199.739 242.765 201.29 242.773 203.812C242.765 205.773 244.001 207.043 246.558 207.554L248.825 208.006C249.967 208.236 250.487 208.653 250.504 209.31C250.487 210.085 249.643 210.639 248.373 210.639C247.077 210.639 246.217 210.085 245.995 209.02L242.424 209.207C242.765 211.713 244.896 213.256 248.364 213.256C251.756 213.256 254.185 211.526 254.194 208.943C254.185 207.051 252.95 205.918 250.41 205.398L248.04 204.92C246.822 204.656 246.37 204.239 246.379 203.608C246.37 202.824 247.256 202.312 248.381 202.312C249.643 202.312 250.393 203.003 250.572 203.847L253.896 203.642ZM262.395 213.256C266.366 213.256 268.838 210.537 268.838 206.506C268.838 202.449 266.366 199.739 262.395 199.739C258.423 199.739 255.952 202.449 255.952 206.506C255.952 210.537 258.423 213.256 262.395 213.256ZM262.412 210.443C260.58 210.443 259.642 208.764 259.642 206.48C259.642 204.196 260.58 202.509 262.412 202.509C264.21 202.509 265.148 204.196 265.148 206.48C265.148 208.764 264.21 210.443 262.412 210.443ZM274.83 205.432C274.838 203.744 275.844 202.756 277.31 202.756C278.767 202.756 279.645 203.71 279.636 205.312V213H283.267V204.665C283.267 201.614 281.477 199.739 278.75 199.739C276.807 199.739 275.401 200.693 274.812 202.219H274.659V199.909H271.199V213H274.83V205.432ZM289.862 213.247C291.796 213.247 293.049 212.403 293.688 211.185H293.79V213H297.234V204.17C297.234 201.051 294.592 199.739 291.677 199.739C288.54 199.739 286.478 201.239 285.975 203.625L289.333 203.898C289.58 203.028 290.356 202.389 291.66 202.389C292.896 202.389 293.603 203.011 293.603 204.085V204.136C293.603 204.98 292.708 205.091 290.433 205.312C287.842 205.551 285.515 206.42 285.515 209.344C285.515 211.935 287.364 213.247 289.862 213.247ZM290.901 210.741C289.785 210.741 288.984 210.222 288.984 209.224C288.984 208.202 289.827 207.699 291.106 207.52C291.898 207.409 293.194 207.222 293.629 206.932V208.321C293.629 209.693 292.495 210.741 290.901 210.741ZM312.662 195.545V207.716C312.653 209.395 311.903 210.281 310.54 210.281C309.253 210.281 308.418 209.48 308.392 208.091H304.719C304.702 211.577 307.19 213.239 310.352 213.239C313.889 213.239 316.301 211.099 316.31 207.716V195.545H312.662ZM327.688 207.426C327.696 209.182 326.494 210.102 325.19 210.102C323.818 210.102 322.932 209.139 322.923 207.597V199.909H319.293V208.244C319.301 211.304 321.091 213.17 323.724 213.17C325.693 213.17 327.108 212.156 327.696 210.622H327.832V213H331.318V199.909H327.688V207.426ZM334.222 213H337.853V205.594C337.853 203.983 339.029 202.875 340.631 202.875C341.134 202.875 341.825 202.96 342.165 203.071V199.849C341.842 199.773 341.39 199.722 341.023 199.722C339.558 199.722 338.356 200.574 337.879 202.193H337.742V199.909H334.222V213ZM344.043 213H347.673V199.909H344.043V213ZM344.562 198.222H347.128L349.727 194.344H346.369L344.562 198.222ZM355.406 213.213C357.519 213.213 358.619 211.994 359.121 210.903H359.275V213H362.854V195.545H359.232V202.108H359.121C358.636 201.043 357.587 199.739 355.397 199.739C352.525 199.739 350.096 201.972 350.096 206.472C350.096 210.852 352.423 213.213 355.406 213.213ZM356.556 210.324C354.775 210.324 353.803 208.739 353.803 206.455C353.803 204.188 354.758 202.628 356.556 202.628C358.32 202.628 359.309 204.119 359.309 206.455C359.309 208.79 358.303 210.324 356.556 210.324ZM365.839 213H369.47V199.909H365.839V213ZM367.663 198.222C368.746 198.222 369.632 197.395 369.632 196.381C369.632 195.375 368.746 194.548 367.663 194.548C366.589 194.548 365.703 195.375 365.703 196.381C365.703 197.395 366.589 198.222 367.663 198.222ZM378.293 213.256C381.779 213.256 383.969 211.21 384.14 208.202H380.714C380.501 209.599 379.58 210.384 378.336 210.384C376.64 210.384 375.54 208.96 375.54 206.455C375.54 203.983 376.648 202.568 378.336 202.568C379.665 202.568 380.518 203.446 380.714 204.75H384.14C383.987 201.724 381.694 199.739 378.276 199.739C374.305 199.739 371.85 202.491 371.85 206.506C371.85 210.486 374.262 213.256 378.293 213.256ZM390.197 213.247C392.132 213.247 393.385 212.403 394.024 211.185H394.126V213H397.57V204.17C397.57 201.051 394.928 199.739 392.013 199.739C388.876 199.739 386.814 201.239 386.311 203.625L389.669 203.898C389.916 203.028 390.692 202.389 391.996 202.389C393.232 202.389 393.939 203.011 393.939 204.085V204.136C393.939 204.98 393.044 205.091 390.768 205.312C388.178 205.551 385.851 206.42 385.851 209.344C385.851 211.935 387.7 213.247 390.197 213.247ZM391.237 210.741C390.121 210.741 389.32 210.222 389.32 209.224C389.32 208.202 390.163 207.699 391.442 207.52C392.234 207.409 393.53 207.222 393.964 206.932V208.321C393.964 209.693 392.831 210.741 391.237 210.741Z" fill="black" fill-opacity="0.8"/>
<path d="M513.103 213H516.793V207.341H519.896C523.91 207.341 526.245 204.946 526.245 201.46C526.245 197.991 523.952 195.545 519.989 195.545H513.103V213ZM516.793 204.384V198.562H519.282C521.413 198.562 522.444 199.722 522.444 201.46C522.444 203.19 521.413 204.384 519.299 204.384H516.793ZM534.329 213.256C537.567 213.256 539.749 211.679 540.261 209.25L536.903 209.028C536.536 210.026 535.599 210.545 534.388 210.545C532.573 210.545 531.423 209.344 531.423 207.392V207.384H540.337V206.386C540.337 201.938 537.644 199.739 534.184 199.739C530.332 199.739 527.835 202.474 527.835 206.514C527.835 210.665 530.298 213.256 534.329 213.256ZM531.423 205.134C531.499 203.642 532.633 202.449 534.244 202.449C535.82 202.449 536.911 203.574 536.92 205.134H531.423ZM542.707 213H546.337V205.594C546.337 203.983 547.513 202.875 549.116 202.875C549.619 202.875 550.309 202.96 550.65 203.071V199.849C550.326 199.773 549.874 199.722 549.508 199.722C548.042 199.722 546.84 200.574 546.363 202.193H546.227V199.909H542.707V213ZM563.419 203.642C563.095 201.23 561.152 199.739 557.845 199.739C554.496 199.739 552.288 201.29 552.297 203.812C552.288 205.773 553.524 207.043 556.081 207.554L558.348 208.006C559.49 208.236 560.01 208.653 560.027 209.31C560.01 210.085 559.166 210.639 557.896 210.639C556.601 210.639 555.74 210.085 555.518 209.02L551.947 209.207C552.288 211.713 554.419 213.256 557.888 213.256C561.28 213.256 563.709 211.526 563.717 208.943C563.709 207.051 562.473 205.918 559.933 205.398L557.564 204.92C556.345 204.656 555.893 204.239 555.902 203.608C555.893 202.824 556.78 202.312 557.905 202.312C559.166 202.312 559.916 203.003 560.095 203.847L563.419 203.642ZM571.918 213.256C575.89 213.256 578.362 210.537 578.362 206.506C578.362 202.449 575.89 199.739 571.918 199.739C567.947 199.739 565.475 202.449 565.475 206.506C565.475 210.537 567.947 213.256 571.918 213.256ZM571.935 210.443C570.103 210.443 569.165 208.764 569.165 206.48C569.165 204.196 570.103 202.509 571.935 202.509C573.734 202.509 574.671 204.196 574.671 206.48C574.671 208.764 573.734 210.443 571.935 210.443ZM584.353 205.432C584.362 203.744 585.367 202.756 586.833 202.756C588.29 202.756 589.168 203.71 589.16 205.312V213H592.79V204.665C592.79 201.614 591.001 199.739 588.273 199.739C586.33 199.739 584.924 200.693 584.336 202.219H584.183V199.909H580.722V213H584.353V205.432ZM599.385 213.247C601.32 213.247 602.572 212.403 603.212 211.185H603.314V213H606.757V204.17C606.757 201.051 604.115 199.739 601.2 199.739C598.064 199.739 596.001 201.239 595.499 203.625L598.857 203.898C599.104 203.028 599.879 202.389 601.183 202.389C602.419 202.389 603.126 203.011 603.126 204.085V204.136C603.126 204.98 602.232 205.091 599.956 205.312C597.365 205.551 595.038 206.42 595.038 209.344C595.038 211.935 596.888 213.247 599.385 213.247ZM600.425 210.741C599.308 210.741 598.507 210.222 598.507 209.224C598.507 208.202 599.351 207.699 600.629 207.52C601.422 207.409 602.717 207.222 603.152 206.932V208.321C603.152 209.693 602.018 210.741 600.425 210.741ZM629.796 195.545H626.123V206.523H625.969L618.435 195.545H615.197V213H618.887V202.014H619.015L626.609 213H629.796V195.545ZM636.51 213.247C638.445 213.247 639.697 212.403 640.337 211.185H640.439V213H643.882V204.17C643.882 201.051 641.24 199.739 638.325 199.739C635.189 199.739 633.126 201.239 632.624 203.625L635.982 203.898C636.229 203.028 637.004 202.389 638.308 202.389C639.544 202.389 640.251 203.011 640.251 204.085V204.136C640.251 204.98 639.357 205.091 637.081 205.312C634.49 205.551 632.163 206.42 632.163 209.344C632.163 211.935 634.013 213.247 636.51 213.247ZM637.55 210.741C636.433 210.741 635.632 210.222 635.632 209.224C635.632 208.202 636.476 207.699 637.754 207.52C638.547 207.409 639.842 207.222 640.277 206.932V208.321C640.277 209.693 639.143 210.741 637.55 210.741ZM653.662 199.909H651.199V196.773H647.568V199.909H645.778V202.636H647.568V209.455C647.551 212.02 649.298 213.29 651.932 213.179C652.869 213.145 653.534 212.957 653.901 212.838L653.33 210.136C653.151 210.17 652.767 210.256 652.426 210.256C651.702 210.256 651.199 209.983 651.199 208.977V202.636H653.662V199.909ZM664.422 207.426C664.43 209.182 663.229 210.102 661.925 210.102C660.553 210.102 659.666 209.139 659.658 207.597V199.909H656.027V208.244C656.036 211.304 657.825 213.17 660.459 213.17C662.428 213.17 663.842 212.156 664.43 210.622H664.567V213H668.053V199.909H664.422V207.426ZM670.957 213H674.587V205.594C674.587 203.983 675.763 202.875 677.366 202.875C677.869 202.875 678.559 202.96 678.9 203.071V199.849C678.576 199.773 678.124 199.722 677.758 199.722C676.292 199.722 675.09 200.574 674.613 202.193H674.477V199.909H670.957V213ZM684.135 213.247C686.07 213.247 687.322 212.403 687.962 211.185H688.064V213H691.507V204.17C691.507 201.051 688.865 199.739 685.95 199.739C682.814 199.739 680.751 201.239 680.249 203.625L683.607 203.898C683.854 203.028 684.629 202.389 685.933 202.389C687.169 202.389 687.876 203.011 687.876 204.085V204.136C687.876 204.98 686.982 205.091 684.706 205.312C682.115 205.551 679.788 206.42 679.788 209.344C679.788 211.935 681.638 213.247 684.135 213.247ZM685.175 210.741C684.058 210.741 683.257 210.222 683.257 209.224C683.257 208.202 684.101 207.699 685.379 207.52C686.172 207.409 687.467 207.222 687.902 206.932V208.321C687.902 209.693 686.768 210.741 685.175 210.741ZM697.955 195.545H694.324V213H697.955V195.545Z" fill="black" fill-opacity="0.8"/>
<defs>
<filter id="filter0_b_13_744" x="459" y="166" width="292.305" height="75.299" filterUnits="userSpaceOnUse" color-interpolation-filters="sRGB">
<feFlood flood-opacity="0" result="BackgroundImageFix"/>
<feGaussianBlur in="BackgroundImage" stdDeviation="2"/>
<feComposite in2="SourceAlpha" operator="in" result="effect1_backgroundBlur_13_744"/>
<feBlend mode="normal" in="SourceGraphic" in2="effect1_backgroundBlur_13_744" result="shape"/>
</filter>
</defs>
</svg>
