<svg width="668" height="509" viewBox="0 0 668 509" fill="none" xmlns="http://www.w3.org/2000/svg">
<path d="M607.496 21.144C606.596 21.144 605.732 21.012 604.904 20.748C604.088 20.472 603.434 20.106 602.942 19.65C602.762 19.482 602.672 19.272 602.672 19.02C602.672 18.852 602.72 18.708 602.816 18.588C602.912 18.456 603.026 18.39 603.158 18.39C603.314 18.39 603.482 18.456 603.662 18.588C604.778 19.452 606.05 19.884 607.478 19.884C608.51 19.884 609.302 19.686 609.854 19.29C610.406 18.894 610.682 18.33 610.682 17.598C610.682 17.178 610.55 16.842 610.286 16.59C610.022 16.326 609.674 16.116 609.242 15.96C608.81 15.804 608.228 15.642 607.496 15.474C606.512 15.246 605.702 15.006 605.066 14.754C604.442 14.502 603.932 14.142 603.536 13.674C603.152 13.206 602.96 12.594 602.96 11.838C602.96 11.118 603.152 10.482 603.536 9.93C603.932 9.366 604.478 8.934 605.174 8.634C605.882 8.322 606.686 8.166 607.586 8.166C608.426 8.166 609.206 8.298 609.926 8.562C610.658 8.814 611.27 9.18 611.762 9.66C611.954 9.852 612.05 10.062 612.05 10.29C612.05 10.458 612.002 10.608 611.906 10.74C611.81 10.86 611.696 10.92 611.564 10.92C611.432 10.92 611.258 10.854 611.042 10.722C610.454 10.242 609.908 9.906 609.404 9.714C608.9 9.522 608.294 9.426 607.586 9.426C606.59 9.426 605.816 9.636 605.264 10.056C604.712 10.464 604.436 11.04 604.436 11.784C604.436 12.42 604.676 12.9 605.156 13.224C605.648 13.536 606.398 13.812 607.406 14.052C608.498 14.316 609.356 14.562 609.98 14.79C610.604 15.006 611.12 15.336 611.528 15.78C611.948 16.224 612.158 16.818 612.158 17.562C612.158 18.27 611.96 18.894 611.564 19.434C611.18 19.974 610.634 20.394 609.926 20.694C609.218 20.994 608.408 21.144 607.496 21.144ZM617.975 21.126C617.147 21.126 616.415 20.94 615.779 20.568C615.155 20.196 614.669 19.668 614.321 18.984C613.985 18.288 613.817 17.484 613.817 16.572C613.817 15.66 613.985 14.862 614.321 14.178C614.669 13.482 615.155 12.948 615.779 12.576C616.415 12.204 617.147 12.018 617.975 12.018C618.803 12.018 619.535 12.204 620.171 12.576C620.807 12.948 621.293 13.482 621.629 14.178C621.977 14.862 622.151 15.66 622.151 16.572C622.151 17.484 621.977 18.288 621.629 18.984C621.293 19.668 620.807 20.196 620.171 20.568C619.535 20.94 618.803 21.126 617.975 21.126ZM617.975 19.92C618.839 19.92 619.499 19.638 619.955 19.074C620.423 18.498 620.657 17.664 620.657 16.572C620.657 15.504 620.423 14.682 619.955 14.106C619.487 13.518 618.827 13.224 617.975 13.224C617.123 13.224 616.463 13.518 615.995 14.106C615.527 14.682 615.293 15.504 615.293 16.572C615.293 17.652 615.521 18.48 615.977 19.056C616.445 19.632 617.111 19.92 617.975 19.92ZM628.176 9.462C627.54 9.51 627.06 9.714 626.736 10.074C626.412 10.422 626.25 10.95 626.25 11.658V12.234H628.248C628.452 12.234 628.608 12.288 628.716 12.396C628.824 12.504 628.878 12.648 628.878 12.828C628.878 13.008 628.824 13.146 628.716 13.242C628.608 13.338 628.452 13.386 628.248 13.386H626.25V20.37C626.25 20.598 626.178 20.778 626.034 20.91C625.902 21.03 625.734 21.09 625.53 21.09C625.314 21.09 625.134 21.03 624.99 20.91C624.858 20.778 624.792 20.598 624.792 20.37V13.386H623.586C623.382 13.386 623.22 13.338 623.1 13.242C622.992 13.134 622.938 12.996 622.938 12.828C622.938 12.648 622.992 12.504 623.1 12.396C623.22 12.288 623.382 12.234 623.586 12.234H624.792V11.91C624.792 10.83 625.062 9.984 625.602 9.372C626.142 8.748 626.916 8.4 627.924 8.328L628.392 8.292C628.704 8.268 628.926 8.298 629.058 8.382C629.202 8.466 629.274 8.616 629.274 8.832C629.274 9.18 629.064 9.378 628.644 9.426L628.176 9.462ZM632.48 21.09C632.264 21.09 632.084 21.03 631.94 20.91C631.808 20.778 631.742 20.598 631.742 20.37V12.774C631.742 12.546 631.808 12.372 631.94 12.252C632.084 12.12 632.264 12.054 632.48 12.054C632.696 12.054 632.87 12.12 633.002 12.252C633.134 12.372 633.2 12.546 633.2 12.774V20.37C633.2 20.61 633.134 20.79 633.002 20.91C632.87 21.03 632.696 21.09 632.48 21.09ZM632.804 11.064C632.708 11.136 632.612 11.172 632.516 11.172C632.396 11.172 632.294 11.136 632.21 11.064C632.126 10.98 632.084 10.884 632.084 10.776C632.084 10.68 632.12 10.59 632.192 10.506L634.28 7.77C634.496 7.494 634.742 7.356 635.018 7.356C635.21 7.356 635.372 7.422 635.504 7.554C635.636 7.674 635.702 7.83 635.702 8.022C635.702 8.274 635.582 8.502 635.342 8.706L632.804 11.064ZM639.507 12.018C641.703 12.018 642.801 13.17 642.801 15.474V20.37C642.801 20.586 642.735 20.76 642.603 20.892C642.483 21.024 642.315 21.09 642.099 21.09C641.883 21.09 641.709 21.024 641.577 20.892C641.445 20.76 641.379 20.586 641.379 20.37V19.506C641.151 20.022 640.803 20.424 640.335 20.712C639.867 20.988 639.327 21.126 638.715 21.126C638.151 21.126 637.629 21.012 637.149 20.784C636.681 20.556 636.309 20.238 636.033 19.83C635.757 19.422 635.619 18.972 635.619 18.48C635.619 17.82 635.787 17.31 636.123 16.95C636.459 16.578 637.011 16.314 637.779 16.158C638.547 15.99 639.615 15.906 640.983 15.906H641.379V15.312C641.379 14.592 641.229 14.064 640.929 13.728C640.641 13.392 640.167 13.224 639.507 13.224C638.691 13.224 637.863 13.446 637.023 13.89C636.699 14.094 636.471 14.196 636.339 14.196C636.195 14.196 636.075 14.142 635.979 14.034C635.883 13.926 635.835 13.788 635.835 13.62C635.835 13.452 635.883 13.308 635.979 13.188C636.087 13.056 636.255 12.924 636.483 12.792C636.903 12.552 637.377 12.366 637.905 12.234C638.445 12.09 638.979 12.018 639.507 12.018ZM638.913 19.974C639.633 19.974 640.221 19.734 640.677 19.254C641.145 18.762 641.379 18.132 641.379 17.364V16.842H641.055C639.999 16.842 639.195 16.89 638.643 16.986C638.091 17.07 637.695 17.22 637.455 17.436C637.227 17.64 637.113 17.946 637.113 18.354C637.113 18.822 637.281 19.212 637.617 19.524C637.965 19.824 638.397 19.974 638.913 19.974Z" fill="#7E8C9A"/>
<path d="M587.5 22.744H587.751L587.75 22.493C587.748 22.0602 587.494 20.8863 586.429 19.8212C585.395 18.7876 583.486 17.75 580 17.75C576.512 17.75 574.605 18.7876 573.571 19.8212C572.506 20.8867 572.254 22.0604 572.25 22.492L572.248 22.744H572.5H587.5ZM583.005 13.5052C582.208 14.3022 581.127 14.75 580 14.75C578.873 14.75 577.792 14.3022 576.995 13.5052C576.198 12.7082 575.75 11.6272 575.75 10.5C575.75 9.37283 576.198 8.29183 576.995 7.4948C577.792 6.69777 578.873 6.25 580 6.25C581.127 6.25 582.208 6.69777 583.005 7.4948C583.802 8.29183 584.25 9.37283 584.25 10.5C584.25 11.6272 583.802 12.7082 583.005 13.5052ZM582.298 12.7981C582.908 12.1886 583.25 11.362 583.25 10.5C583.25 9.63805 582.908 8.8114 582.298 8.2019C581.689 7.59241 580.862 7.25 580 7.25C579.138 7.25 578.311 7.59241 577.702 8.2019C577.092 8.8114 576.75 9.63805 576.75 10.5C576.75 11.362 577.092 12.1886 577.702 12.7981C578.311 13.4076 579.138 13.75 580 13.75C580.862 13.75 581.689 13.4076 582.298 12.7981ZM588.75 22.5C588.75 22.8313 588.668 23.0631 588.558 23.2285C588.446 23.3955 588.296 23.51 588.138 23.5889C587.979 23.6683 587.818 23.7093 587.693 23.73C587.632 23.7402 587.581 23.7453 587.547 23.7477C587.529 23.7489 587.517 23.7495 587.509 23.7498L587.5 23.75L587.5 23.75H587.5H587.5L587.499 23.75H587.499H572.501H572.501L572.5 23.75H572.5H572.5L572.5 23.75L572.491 23.7498C572.483 23.7495 572.471 23.7489 572.453 23.7477C572.419 23.7453 572.368 23.7402 572.307 23.73C572.182 23.7093 572.021 23.6683 571.862 23.5889C571.704 23.51 571.554 23.3955 571.442 23.2285C571.332 23.0631 571.25 22.8313 571.25 22.5C571.25 21.8142 571.6 20.3784 572.864 19.1143C574.121 17.8575 576.303 16.75 580 16.75C583.697 16.75 585.879 17.8575 587.136 19.1143C588.4 20.3784 588.75 21.8142 588.75 22.5Z" fill="#7E8C9A" stroke="#7E8C9A" stroke-width="0.5"/>
<rect x="89" y="494" width="85" height="10" rx="5" fill="#80ACFF" fill-opacity="0.3"/>
<rect x="196" y="494" width="100" height="10" rx="5" fill="#CCDEFF" fill-opacity="0.3"/>
<rect x="270" y="100" width="100" height="13" rx="6.5" fill="#CCDEFF" fill-opacity="0.2"/>
<rect x="89" y="469" width="380" height="15" rx="7.5" fill="#80ACFF" fill-opacity="0.4"/>
<circle cx="57.5" cy="491.5" r="17.5" fill="#C4C4C4" fill-opacity="0.2"/>
<rect x="89" y="399" width="85" height="10" rx="5" fill="#80ACFF" fill-opacity="0.55"/>
<rect x="196" y="399" width="100" height="10" rx="5" fill="#CCDEFF"/>
<rect x="89" y="238" width="241" height="8" rx="4" fill="#CCDEFF"/>
<rect x="89" y="374" width="330" height="15" rx="7.5" fill="#80ACFF" fill-opacity="0.6"/>
<circle cx="57.5" cy="395.5" r="17.5" fill="#C4C4C4" fill-opacity="0.6"/>
<rect x="234" y="329" width="85" height="10" rx="5" fill="#80ACFF" fill-opacity="0.4"/>
<rect x="36" y="100" width="85" height="13" rx="6.5" fill="#80ACFF" fill-opacity="0.2"/>
<rect x="144" y="100" width="100" height="13" rx="6.5" fill="#CCDEFF" fill-opacity="0.3"/>
<rect x="36" y="70" width="445" height="20" rx="8" fill="#80ACFF" fill-opacity="0.3"/>
<circle cx="57.5" cy="237.5" r="17.5" fill="#C4C4C4"/>
<line x1="57.5" y1="269" x2="57.5" y2="361" stroke="#C4C4C4" stroke-opacity="0.8"/>
<line x1="57.5" y1="424" x2="57.5" y2="469" stroke="#C4C4C4" stroke-opacity="0.8"/>
<line x1="142.999" y1="171.386" x2="622.998" y2="170.5" stroke="#C4C4C4" stroke-opacity="0.8"/>
<line x1="22.9991" y1="171.685" x2="142.999" y2="171.463" stroke="#377DFF"/>
<path d="M50.783 147.64C50.9857 147.64 51.1403 147.704 51.247 147.832C51.3643 147.949 51.423 148.109 51.423 148.312V158.44C51.423 158.632 51.3697 158.787 51.263 158.904C51.1563 159.021 51.007 159.08 50.815 159.08C50.623 159.08 50.479 159.021 50.383 158.904C50.287 158.787 50.239 158.632 50.239 158.44V150.264L46.767 156.92C46.6177 157.229 46.399 157.384 46.111 157.384C45.8337 157.384 45.615 157.229 45.455 156.92L41.967 150.344V158.44C41.967 158.632 41.9137 158.787 41.807 158.904C41.711 159.021 41.567 159.08 41.375 159.08C41.183 159.08 41.0337 159.021 40.927 158.904C40.8203 158.787 40.767 158.632 40.767 158.44V148.312C40.767 148.109 40.8257 147.949 40.943 147.832C41.0603 147.704 41.2203 147.64 41.423 147.64C41.6897 147.64 41.903 147.795 42.063 148.104L46.127 155.896L50.143 148.104C50.2283 147.933 50.319 147.816 50.415 147.752C50.5217 147.677 50.6443 147.64 50.783 147.64ZM57.2601 159.112C56.5241 159.112 55.8735 158.947 55.3081 158.616C54.7535 158.285 54.3215 157.816 54.0121 157.208C53.7135 156.589 53.5641 155.875 53.5641 155.064C53.5641 154.253 53.7135 153.544 54.0121 152.936C54.3215 152.317 54.7535 151.843 55.3081 151.512C55.8735 151.181 56.5241 151.016 57.2601 151.016C57.9961 151.016 58.6468 151.181 59.2121 151.512C59.7775 151.843 60.2095 152.317 60.5081 152.936C60.8175 153.544 60.9721 154.253 60.9721 155.064C60.9721 155.875 60.8175 156.589 60.5081 157.208C60.2095 157.816 59.7775 158.285 59.2121 158.616C58.6468 158.947 57.9961 159.112 57.2601 159.112ZM57.2601 158.04C58.0281 158.04 58.6148 157.789 59.0201 157.288C59.4361 156.776 59.6441 156.035 59.6441 155.064C59.6441 154.115 59.4361 153.384 59.0201 152.872C58.6041 152.349 58.0175 152.088 57.2601 152.088C56.5028 152.088 55.9161 152.349 55.5001 152.872C55.0841 153.384 54.8761 154.115 54.8761 155.064C54.8761 156.024 55.0788 156.76 55.4841 157.272C55.9001 157.784 56.4921 158.04 57.2601 158.04ZM68.4254 151.448C68.5427 151.192 68.7294 151.064 68.9854 151.064C69.1454 151.064 69.2894 151.117 69.4174 151.224C69.5454 151.331 69.6094 151.464 69.6094 151.624C69.6094 151.72 69.588 151.805 69.5454 151.88L66.4254 158.6C66.3614 158.739 66.2654 158.851 66.1374 158.936C66.0094 159.011 65.8707 159.048 65.7214 159.048C65.5827 159.048 65.4494 159.011 65.3214 158.936C65.1934 158.851 65.092 158.739 65.0174 158.6L61.9134 151.88C61.8707 151.805 61.8494 151.725 61.8494 151.64C61.8494 151.48 61.9187 151.341 62.0574 151.224C62.2067 151.107 62.3667 151.048 62.5374 151.048C62.644 151.048 62.7454 151.08 62.8414 151.144C62.948 151.208 63.028 151.299 63.0814 151.416L65.7534 157.416L68.4254 151.448ZM71.8873 159.08C71.6953 159.08 71.5353 159.027 71.4073 158.92C71.2899 158.803 71.2313 158.643 71.2313 158.44V151.688C71.2313 151.485 71.2899 151.331 71.4073 151.224C71.5353 151.107 71.6953 151.048 71.8873 151.048C72.0793 151.048 72.2339 151.107 72.3513 151.224C72.4686 151.331 72.5273 151.485 72.5273 151.688V158.44C72.5273 158.653 72.4686 158.813 72.3513 158.92C72.2339 159.027 72.0793 159.08 71.8873 159.08ZM71.8873 149.368C71.6313 149.368 71.4233 149.293 71.2633 149.144C71.1033 148.995 71.0233 148.797 71.0233 148.552C71.0233 148.317 71.1033 148.125 71.2633 147.976C71.4233 147.827 71.6313 147.752 71.8873 147.752C72.1433 147.752 72.3513 147.827 72.5113 147.976C72.6713 148.125 72.7513 148.317 72.7513 148.552C72.7513 148.797 72.6713 148.995 72.5113 149.144C72.3513 149.293 72.1433 149.368 71.8873 149.368ZM83.622 151.016C85.35 151.016 86.214 152.045 86.214 154.104V158.44C86.214 158.643 86.1553 158.803 86.038 158.92C85.9207 159.027 85.766 159.08 85.574 159.08C85.382 159.08 85.222 159.027 85.094 158.92C84.9767 158.803 84.918 158.643 84.918 158.44V154.136C84.918 153.421 84.79 152.904 84.534 152.584C84.278 152.264 83.878 152.104 83.334 152.104C82.6833 152.104 82.1713 152.323 81.798 152.76C81.4247 153.197 81.238 153.789 81.238 154.536V158.44C81.238 158.643 81.174 158.803 81.046 158.92C80.9287 159.027 80.774 159.08 80.582 159.08C80.39 159.08 80.2353 159.027 80.118 158.92C80.0007 158.803 79.942 158.643 79.942 158.44V154.136C79.942 153.421 79.814 152.904 79.558 152.584C79.302 152.264 78.8967 152.104 78.342 152.104C77.702 152.104 77.19 152.323 76.806 152.76C76.4327 153.197 76.246 153.789 76.246 154.536V158.44C76.246 158.643 76.1873 158.803 76.07 158.92C75.9527 159.027 75.798 159.08 75.606 159.08C75.414 159.08 75.254 159.027 75.126 158.92C75.0087 158.803 74.95 158.643 74.95 158.44V151.688C74.95 151.496 75.0087 151.341 75.126 151.224C75.254 151.107 75.414 151.048 75.606 151.048C75.7873 151.048 75.9367 151.107 76.054 151.224C76.1713 151.331 76.23 151.48 76.23 151.672V152.44C76.4647 151.981 76.79 151.629 77.206 151.384C77.622 151.139 78.102 151.016 78.646 151.016C79.862 151.016 80.6567 151.528 81.03 152.552C81.254 152.083 81.5953 151.709 82.054 151.432C82.5127 151.155 83.0353 151.016 83.622 151.016ZM89.231 159.08C89.039 159.08 88.879 159.027 88.751 158.92C88.6337 158.803 88.575 158.643 88.575 158.44V151.688C88.575 151.485 88.6337 151.331 88.751 151.224C88.879 151.107 89.039 151.048 89.231 151.048C89.423 151.048 89.5777 151.107 89.695 151.224C89.8123 151.331 89.871 151.485 89.871 151.688V158.44C89.871 158.653 89.8123 158.813 89.695 158.92C89.5777 159.027 89.423 159.08 89.231 159.08ZM89.231 149.368C88.975 149.368 88.767 149.293 88.607 149.144C88.447 148.995 88.367 148.797 88.367 148.552C88.367 148.317 88.447 148.125 88.607 147.976C88.767 147.827 88.975 147.752 89.231 147.752C89.487 147.752 89.695 147.827 89.855 147.976C90.015 148.125 90.095 148.317 90.095 148.552C90.095 148.797 90.015 148.995 89.855 149.144C89.695 149.293 89.487 149.368 89.231 149.368ZM98.3258 157.192C98.4431 157.192 98.5444 157.24 98.6298 157.336C98.7151 157.432 98.7578 157.555 98.7578 157.704C98.7578 157.971 98.5711 158.216 98.1978 158.44C97.8138 158.664 97.4084 158.835 96.9818 158.952C96.5551 159.059 96.1391 159.112 95.7338 159.112C94.5284 159.112 93.5738 158.755 92.8698 158.04C92.1764 157.325 91.8298 156.339 91.8298 155.08C91.8298 154.28 91.9844 153.576 92.2938 152.968C92.6031 152.349 93.0351 151.869 93.5898 151.528C94.1551 151.187 94.7951 151.016 95.5098 151.016C96.5231 151.016 97.3284 151.347 97.9258 152.008C98.5231 152.669 98.8218 153.565 98.8218 154.696C98.8218 154.909 98.7791 155.064 98.6938 155.16C98.6084 155.256 98.4698 155.304 98.2778 155.304H93.1258C93.2218 157.139 94.0911 158.056 95.7338 158.056C96.1498 158.056 96.5071 158.003 96.8058 157.896C97.1044 157.779 97.4244 157.624 97.7658 157.432C98.0431 157.272 98.2298 157.192 98.3258 157.192ZM95.5258 152.024C94.8431 152.024 94.2938 152.237 93.8778 152.664C93.4724 153.091 93.2324 153.693 93.1578 154.472H97.6858C97.6644 153.683 97.4671 153.08 97.0938 152.664C96.7204 152.237 96.1978 152.024 95.5258 152.024ZM104.651 151.016C106.518 151.016 107.451 152.045 107.451 154.104V158.44C107.451 158.643 107.393 158.803 107.275 158.92C107.169 159.027 107.014 159.08 106.811 159.08C106.609 159.08 106.449 159.027 106.331 158.92C106.214 158.803 106.155 158.643 106.155 158.44V154.184C106.155 153.459 106.011 152.931 105.723 152.6C105.446 152.269 104.998 152.104 104.379 152.104C103.665 152.104 103.094 152.323 102.667 152.76C102.241 153.197 102.027 153.789 102.027 154.536V158.44C102.027 158.643 101.969 158.803 101.851 158.92C101.745 159.027 101.59 159.08 101.387 159.08C101.185 159.08 101.025 159.027 100.907 158.92C100.79 158.803 100.731 158.643 100.731 158.44V151.688C100.731 151.496 100.79 151.341 100.907 151.224C101.025 151.107 101.185 151.048 101.387 151.048C101.579 151.048 101.729 151.107 101.835 151.224C101.953 151.341 102.011 151.491 102.011 151.672V152.488C102.267 152.008 102.625 151.645 103.083 151.4C103.542 151.144 104.065 151.016 104.651 151.016ZM113.425 158.056C113.798 158.088 113.985 158.259 113.985 158.568C113.985 158.749 113.916 158.888 113.777 158.984C113.649 159.069 113.452 159.101 113.185 159.08L112.753 159.048C111.9 158.984 111.27 158.728 110.865 158.28C110.46 157.832 110.257 157.155 110.257 156.248V152.232H109.185C109.004 152.232 108.86 152.189 108.753 152.104C108.657 152.008 108.609 151.885 108.609 151.736C108.609 151.576 108.657 151.448 108.753 151.352C108.86 151.256 109.004 151.208 109.185 151.208H110.257V149.4C110.257 149.197 110.316 149.043 110.433 148.936C110.55 148.819 110.71 148.76 110.913 148.76C111.105 148.76 111.26 148.819 111.377 148.936C111.494 149.043 111.553 149.197 111.553 149.4V151.208H113.329C113.5 151.208 113.633 151.256 113.729 151.352C113.836 151.448 113.889 151.576 113.889 151.736C113.889 151.885 113.836 152.008 113.729 152.104C113.633 152.189 113.5 152.232 113.329 152.232H111.553V156.312C111.553 156.899 111.67 157.325 111.905 157.592C112.15 157.848 112.513 157.992 112.993 158.024L113.425 158.056ZM118.495 159.112C117.759 159.112 117.108 158.947 116.543 158.616C115.988 158.285 115.556 157.816 115.247 157.208C114.948 156.589 114.799 155.875 114.799 155.064C114.799 154.253 114.948 153.544 115.247 152.936C115.556 152.317 115.988 151.843 116.543 151.512C117.108 151.181 117.759 151.016 118.495 151.016C119.231 151.016 119.881 151.181 120.447 151.512C121.012 151.843 121.444 152.317 121.743 152.936C122.052 153.544 122.207 154.253 122.207 155.064C122.207 155.875 122.052 156.589 121.743 157.208C121.444 157.816 121.012 158.285 120.447 158.616C119.881 158.947 119.231 159.112 118.495 159.112ZM118.495 158.04C119.263 158.04 119.849 157.789 120.255 157.288C120.671 156.776 120.879 156.035 120.879 155.064C120.879 154.115 120.671 153.384 120.255 152.872C119.839 152.349 119.252 152.088 118.495 152.088C117.737 152.088 117.151 152.349 116.735 152.872C116.319 153.384 116.111 154.115 116.111 155.064C116.111 156.024 116.313 156.76 116.719 157.272C117.135 157.784 117.727 158.04 118.495 158.04ZM126.762 159.112C126.271 159.112 125.802 159.053 125.354 158.936C124.916 158.819 124.527 158.653 124.186 158.44C123.994 158.312 123.855 158.195 123.77 158.088C123.695 157.971 123.658 157.832 123.658 157.672C123.658 157.533 123.695 157.421 123.77 157.336C123.855 157.24 123.962 157.192 124.09 157.192C124.218 157.192 124.404 157.272 124.65 157.432C124.97 157.624 125.284 157.779 125.594 157.896C125.914 158.003 126.308 158.056 126.778 158.056C127.354 158.056 127.802 157.955 128.122 157.752C128.442 157.549 128.602 157.256 128.602 156.872C128.602 156.637 128.543 156.451 128.426 156.312C128.308 156.163 128.106 156.035 127.818 155.928C127.53 155.811 127.108 155.693 126.554 155.576C125.615 155.373 124.943 155.101 124.538 154.76C124.132 154.419 123.93 153.955 123.93 153.368C123.93 152.909 124.058 152.504 124.314 152.152C124.57 151.8 124.922 151.523 125.37 151.32C125.828 151.117 126.346 151.016 126.922 151.016C127.338 151.016 127.738 151.075 128.122 151.192C128.516 151.299 128.863 151.453 129.162 151.656C129.524 151.912 129.706 152.179 129.706 152.456C129.706 152.595 129.663 152.712 129.578 152.808C129.492 152.904 129.391 152.952 129.274 152.952C129.146 152.952 128.954 152.861 128.698 152.68C128.399 152.488 128.116 152.339 127.85 152.232C127.583 152.125 127.252 152.072 126.858 152.072C126.356 152.072 125.951 152.184 125.642 152.408C125.343 152.632 125.194 152.931 125.194 153.304C125.194 153.539 125.247 153.731 125.354 153.88C125.471 154.019 125.658 154.147 125.914 154.264C126.18 154.371 126.559 154.477 127.049 154.584C127.775 154.744 128.335 154.92 128.73 155.112C129.135 155.304 129.423 155.539 129.594 155.816C129.764 156.093 129.85 156.445 129.85 156.872C129.85 157.544 129.567 158.088 129.002 158.504C128.436 158.909 127.69 159.112 126.762 159.112Z" fill="#377DFF"/>
<path d="M331.767 159.08C331.564 159.08 331.404 159.021 331.287 158.904C331.169 158.776 331.111 158.611 331.111 158.408V148.36C331.111 148.168 331.169 148.013 331.287 147.896C331.415 147.779 331.58 147.72 331.783 147.72H335.575C336.759 147.72 337.676 148.008 338.327 148.584C338.988 149.16 339.319 149.976 339.319 151.032C339.319 152.088 338.988 152.909 338.327 153.496C337.665 154.083 336.748 154.376 335.575 154.376H332.423V158.408C332.423 158.611 332.364 158.776 332.247 158.904C332.129 159.021 331.969 159.08 331.767 159.08ZM335.447 153.288C337.164 153.288 338.023 152.536 338.023 151.032C338.023 149.549 337.164 148.808 335.447 148.808H332.423V153.288H335.447ZM344.243 151.016C346.195 151.016 347.171 152.04 347.171 154.088V158.44C347.171 158.632 347.113 158.787 346.995 158.904C346.889 159.021 346.739 159.08 346.547 159.08C346.355 159.08 346.201 159.021 346.083 158.904C345.966 158.787 345.907 158.632 345.907 158.44V157.672C345.705 158.131 345.395 158.488 344.979 158.744C344.563 158.989 344.083 159.112 343.539 159.112C343.038 159.112 342.574 159.011 342.147 158.808C341.731 158.605 341.401 158.323 341.155 157.96C340.91 157.597 340.787 157.197 340.787 156.76C340.787 156.173 340.937 155.72 341.235 155.4C341.534 155.069 342.025 154.835 342.707 154.696C343.39 154.547 344.339 154.472 345.555 154.472H345.907V153.944C345.907 153.304 345.774 152.835 345.507 152.536C345.251 152.237 344.83 152.088 344.243 152.088C343.518 152.088 342.782 152.285 342.035 152.68C341.747 152.861 341.545 152.952 341.427 152.952C341.299 152.952 341.193 152.904 341.107 152.808C341.022 152.712 340.979 152.589 340.979 152.44C340.979 152.291 341.022 152.163 341.107 152.056C341.203 151.939 341.353 151.821 341.555 151.704C341.929 151.491 342.35 151.325 342.819 151.208C343.299 151.08 343.774 151.016 344.243 151.016ZM343.715 158.088C344.355 158.088 344.878 157.875 345.283 157.448C345.699 157.011 345.907 156.451 345.907 155.768V155.304H345.619C344.681 155.304 343.966 155.347 343.475 155.432C342.985 155.507 342.633 155.64 342.419 155.832C342.217 156.013 342.115 156.285 342.115 156.648C342.115 157.064 342.265 157.411 342.563 157.688C342.873 157.955 343.257 158.088 343.715 158.088ZM355.864 151.048C356.066 151.048 356.226 151.107 356.344 151.224C356.461 151.341 356.52 151.496 356.52 151.688V158.472C356.52 159.635 356.221 160.509 355.624 161.096C355.026 161.693 354.141 161.992 352.968 161.992C351.826 161.992 350.877 161.768 350.12 161.32C349.736 161.107 349.544 160.861 349.544 160.584C349.544 160.435 349.581 160.312 349.656 160.216C349.741 160.12 349.848 160.072 349.976 160.072C350.082 160.072 350.274 160.147 350.552 160.296C350.925 160.488 351.293 160.643 351.656 160.76C352.018 160.877 352.45 160.936 352.952 160.936C353.709 160.936 354.28 160.733 354.664 160.328C355.048 159.933 355.24 159.352 355.24 158.584V157.208C355.016 157.709 354.669 158.093 354.2 158.36C353.741 158.627 353.197 158.76 352.568 158.76C351.885 158.76 351.277 158.6 350.744 158.28C350.221 157.96 349.81 157.507 349.512 156.92C349.224 156.333 349.08 155.656 349.08 154.888C349.08 154.12 349.224 153.443 349.512 152.856C349.81 152.269 350.221 151.816 350.744 151.496C351.277 151.176 351.885 151.016 352.568 151.016C353.186 151.016 353.725 151.149 354.184 151.416C354.642 151.683 354.989 152.061 355.224 152.552V151.688C355.224 151.496 355.277 151.341 355.384 151.224C355.501 151.107 355.661 151.048 355.864 151.048ZM352.824 157.688C353.57 157.688 354.157 157.443 354.584 156.952C355.01 156.451 355.224 155.763 355.224 154.888C355.224 154.024 355.01 153.347 354.584 152.856C354.168 152.355 353.581 152.104 352.824 152.104C352.066 152.104 351.469 152.355 351.032 152.856C350.605 153.347 350.392 154.024 350.392 154.888C350.392 155.763 350.605 156.451 351.032 156.952C351.469 157.443 352.066 157.688 352.824 157.688ZM362.151 159.112C361.415 159.112 360.764 158.947 360.199 158.616C359.644 158.285 359.212 157.816 358.903 157.208C358.604 156.589 358.455 155.875 358.455 155.064C358.455 154.253 358.604 153.544 358.903 152.936C359.212 152.317 359.644 151.843 360.199 151.512C360.764 151.181 361.415 151.016 362.151 151.016C362.887 151.016 363.537 151.181 364.103 151.512C364.668 151.843 365.1 152.317 365.399 152.936C365.708 153.544 365.863 154.253 365.863 155.064C365.863 155.875 365.708 156.589 365.399 157.208C365.1 157.816 364.668 158.285 364.103 158.616C363.537 158.947 362.887 159.112 362.151 159.112ZM362.151 158.04C362.919 158.04 363.505 157.789 363.911 157.288C364.327 156.776 364.535 156.035 364.535 155.064C364.535 154.115 364.327 153.384 363.911 152.872C363.495 152.349 362.908 152.088 362.151 152.088C361.393 152.088 360.807 152.349 360.391 152.872C359.975 153.384 359.767 154.115 359.767 155.064C359.767 156.024 359.969 156.76 360.375 157.272C360.791 157.784 361.383 158.04 362.151 158.04ZM370.418 159.112C369.927 159.112 369.458 159.053 369.01 158.936C368.572 158.819 368.183 158.653 367.842 158.44C367.65 158.312 367.511 158.195 367.426 158.088C367.351 157.971 367.314 157.832 367.314 157.672C367.314 157.533 367.351 157.421 367.426 157.336C367.511 157.24 367.618 157.192 367.746 157.192C367.874 157.192 368.06 157.272 368.306 157.432C368.626 157.624 368.94 157.779 369.25 157.896C369.57 158.003 369.964 158.056 370.434 158.056C371.01 158.056 371.458 157.955 371.778 157.752C372.098 157.549 372.258 157.256 372.258 156.872C372.258 156.637 372.199 156.451 372.082 156.312C371.964 156.163 371.762 156.035 371.474 155.928C371.186 155.811 370.764 155.693 370.21 155.576C369.271 155.373 368.599 155.101 368.194 154.76C367.788 154.419 367.586 153.955 367.586 153.368C367.586 152.909 367.714 152.504 367.97 152.152C368.226 151.8 368.578 151.523 369.026 151.32C369.484 151.117 370.002 151.016 370.578 151.016C370.994 151.016 371.394 151.075 371.778 151.192C372.172 151.299 372.519 151.453 372.818 151.656C373.18 151.912 373.362 152.179 373.362 152.456C373.362 152.595 373.319 152.712 373.234 152.808C373.148 152.904 373.047 152.952 372.93 152.952C372.802 152.952 372.61 152.861 372.354 152.68C372.055 152.488 371.772 152.339 371.506 152.232C371.239 152.125 370.908 152.072 370.514 152.072C370.012 152.072 369.607 152.184 369.298 152.408C368.999 152.632 368.85 152.931 368.85 153.304C368.85 153.539 368.903 153.731 369.01 153.88C369.127 154.019 369.314 154.147 369.57 154.264C369.836 154.371 370.215 154.477 370.706 154.584C371.431 154.744 371.991 154.92 372.386 155.112C372.791 155.304 373.079 155.539 373.25 155.816C373.42 156.093 373.506 156.445 373.506 156.872C373.506 157.544 373.223 158.088 372.658 158.504C372.092 158.909 371.346 159.112 370.418 159.112Z" fill="#132144"/>
<path d="M193.629 147.64C193.821 147.64 193.97 147.704 194.077 147.832C194.183 147.949 194.237 148.109 194.237 148.312V158.408C194.237 158.611 194.178 158.776 194.061 158.904C193.954 159.021 193.799 159.08 193.597 159.08C193.394 159.08 193.218 158.989 193.069 158.808L186.429 149.928V158.408C186.429 158.611 186.37 158.776 186.253 158.904C186.146 159.021 185.997 159.08 185.805 159.08C185.613 159.08 185.463 159.021 185.357 158.904C185.25 158.776 185.197 158.611 185.197 158.408V148.312C185.197 148.109 185.25 147.949 185.357 147.832C185.474 147.704 185.634 147.64 185.837 147.64C186.05 147.64 186.231 147.731 186.381 147.912L193.005 156.792V148.312C193.005 148.109 193.058 147.949 193.165 147.832C193.282 147.704 193.437 147.64 193.629 147.64ZM200.065 159.112C199.329 159.112 198.678 158.947 198.113 158.616C197.558 158.285 197.126 157.816 196.817 157.208C196.518 156.589 196.369 155.875 196.369 155.064C196.369 154.253 196.518 153.544 196.817 152.936C197.126 152.317 197.558 151.843 198.113 151.512C198.678 151.181 199.329 151.016 200.065 151.016C200.801 151.016 201.451 151.181 202.017 151.512C202.582 151.843 203.014 152.317 203.313 152.936C203.622 153.544 203.777 154.253 203.777 155.064C203.777 155.875 203.622 156.589 203.313 157.208C203.014 157.816 202.582 158.285 202.017 158.616C201.451 158.947 200.801 159.112 200.065 159.112ZM200.065 158.04C200.833 158.04 201.419 157.789 201.825 157.288C202.241 156.776 202.449 156.035 202.449 155.064C202.449 154.115 202.241 153.384 201.825 152.872C201.409 152.349 200.822 152.088 200.065 152.088C199.307 152.088 198.721 152.349 198.305 152.872C197.889 153.384 197.681 154.115 197.681 155.064C197.681 156.024 197.883 156.76 198.289 157.272C198.705 157.784 199.297 158.04 200.065 158.04ZM209.292 158.056C209.666 158.088 209.852 158.259 209.852 158.568C209.852 158.749 209.783 158.888 209.644 158.984C209.516 159.069 209.319 159.101 209.052 159.08L208.62 159.048C207.767 158.984 207.138 158.728 206.732 158.28C206.327 157.832 206.124 157.155 206.124 156.248V152.232H205.052C204.871 152.232 204.727 152.189 204.62 152.104C204.524 152.008 204.476 151.885 204.476 151.736C204.476 151.576 204.524 151.448 204.62 151.352C204.727 151.256 204.871 151.208 205.052 151.208H206.124V149.4C206.124 149.197 206.183 149.043 206.3 148.936C206.418 148.819 206.578 148.76 206.78 148.76C206.972 148.76 207.127 148.819 207.244 148.936C207.362 149.043 207.42 149.197 207.42 149.4V151.208H209.196C209.367 151.208 209.5 151.256 209.596 151.352C209.703 151.448 209.756 151.576 209.756 151.736C209.756 151.885 209.703 152.008 209.596 152.104C209.5 152.189 209.367 152.232 209.196 152.232H207.42V156.312C207.42 156.899 207.538 157.325 207.772 157.592C208.018 157.848 208.38 157.992 208.86 158.024L209.292 158.056ZM211.786 159.08C211.594 159.08 211.434 159.027 211.306 158.92C211.188 158.803 211.13 158.643 211.13 158.44V151.688C211.13 151.485 211.188 151.331 211.306 151.224C211.434 151.107 211.594 151.048 211.786 151.048C211.978 151.048 212.132 151.107 212.25 151.224C212.367 151.331 212.426 151.485 212.426 151.688V158.44C212.426 158.653 212.367 158.813 212.25 158.92C212.132 159.027 211.978 159.08 211.786 159.08ZM211.786 149.368C211.53 149.368 211.322 149.293 211.162 149.144C211.002 148.995 210.922 148.797 210.922 148.552C210.922 148.317 211.002 148.125 211.162 147.976C211.322 147.827 211.53 147.752 211.786 147.752C212.042 147.752 212.25 147.827 212.41 147.976C212.57 148.125 212.65 148.317 212.65 148.552C212.65 148.797 212.57 148.995 212.41 149.144C212.25 149.293 212.042 149.368 211.786 149.368ZM220.816 151.208C220.998 151.208 221.136 151.256 221.232 151.352C221.328 151.448 221.376 151.576 221.376 151.736V158.44C221.376 158.643 221.312 158.803 221.184 158.92C221.067 159.027 220.918 159.08 220.736 159.08C220.544 159.08 220.384 159.027 220.256 158.92C220.139 158.803 220.08 158.643 220.08 158.44V152.232H216.576V158.44C216.576 158.643 216.512 158.803 216.384 158.92C216.267 159.027 216.118 159.08 215.936 159.08C215.744 159.08 215.584 159.027 215.456 158.92C215.339 158.803 215.28 158.643 215.28 158.44V152.232H214.208C214.027 152.232 213.883 152.189 213.776 152.104C213.68 152.008 213.632 151.885 213.632 151.736C213.632 151.576 213.68 151.448 213.776 151.352C213.883 151.256 214.027 151.208 214.208 151.208H215.28V150.936C215.28 149.976 215.52 149.224 216 148.68C216.48 148.125 217.168 147.811 218.064 147.736L218.448 147.704C218.96 147.661 219.216 147.821 219.216 148.184C219.216 148.493 219.035 148.669 218.672 148.712L218.288 148.744C217.723 148.787 217.296 148.968 217.008 149.288C216.72 149.597 216.576 150.067 216.576 150.696V151.208H220.816ZM220.736 147.752C220.982 147.752 221.184 147.827 221.344 147.976C221.515 148.125 221.6 148.317 221.6 148.552C221.6 148.797 221.52 148.995 221.36 149.144C221.2 149.293 220.992 149.368 220.736 149.368C220.48 149.368 220.272 149.293 220.112 149.144C219.952 148.995 219.872 148.797 219.872 148.552C219.872 148.317 219.952 148.125 220.112 147.976C220.272 147.827 220.48 147.752 220.736 147.752ZM227.002 159.112C226.277 159.112 225.631 158.947 225.066 158.616C224.511 158.285 224.079 157.816 223.77 157.208C223.471 156.6 223.322 155.896 223.322 155.096C223.322 154.296 223.477 153.587 223.786 152.968C224.106 152.349 224.549 151.869 225.114 151.528C225.679 151.187 226.33 151.016 227.066 151.016C227.471 151.016 227.871 151.075 228.266 151.192C228.671 151.299 229.023 151.459 229.322 151.672C229.514 151.8 229.647 151.928 229.722 152.056C229.807 152.173 229.85 152.307 229.85 152.456C229.85 152.605 229.807 152.728 229.722 152.824C229.647 152.92 229.546 152.968 229.418 152.968C229.343 152.968 229.263 152.947 229.178 152.904C229.093 152.861 229.018 152.819 228.954 152.776C228.901 152.733 228.863 152.707 228.842 152.696C228.565 152.515 228.298 152.371 228.042 152.264C227.797 152.157 227.493 152.104 227.13 152.104C226.351 152.104 225.743 152.371 225.306 152.904C224.879 153.427 224.666 154.157 224.666 155.096C224.666 156.035 224.879 156.76 225.306 157.272C225.743 157.784 226.351 158.04 227.13 158.04C227.493 158.04 227.802 157.987 228.058 157.88C228.325 157.773 228.591 157.629 228.858 157.448C228.975 157.373 229.087 157.309 229.194 157.256C229.301 157.203 229.391 157.176 229.466 157.176C229.583 157.176 229.679 157.224 229.754 157.32C229.839 157.416 229.882 157.539 229.882 157.688C229.882 157.827 229.845 157.955 229.77 158.072C229.695 158.179 229.557 158.301 229.354 158.44C229.055 158.643 228.693 158.808 228.266 158.936C227.85 159.053 227.429 159.112 227.002 159.112ZM234.626 151.016C236.578 151.016 237.554 152.04 237.554 154.088V158.44C237.554 158.632 237.496 158.787 237.378 158.904C237.272 159.021 237.122 159.08 236.93 159.08C236.738 159.08 236.584 159.021 236.466 158.904C236.349 158.787 236.29 158.632 236.29 158.44V157.672C236.088 158.131 235.778 158.488 235.362 158.744C234.946 158.989 234.466 159.112 233.922 159.112C233.421 159.112 232.957 159.011 232.53 158.808C232.114 158.605 231.784 158.323 231.538 157.96C231.293 157.597 231.17 157.197 231.17 156.76C231.17 156.173 231.32 155.72 231.618 155.4C231.917 155.069 232.408 154.835 233.09 154.696C233.773 154.547 234.722 154.472 235.938 154.472H236.29V153.944C236.29 153.304 236.157 152.835 235.89 152.536C235.634 152.237 235.213 152.088 234.626 152.088C233.901 152.088 233.165 152.285 232.418 152.68C232.13 152.861 231.928 152.952 231.81 152.952C231.682 152.952 231.576 152.904 231.49 152.808C231.405 152.712 231.362 152.589 231.362 152.44C231.362 152.291 231.405 152.163 231.49 152.056C231.586 151.939 231.736 151.821 231.938 151.704C232.312 151.491 232.733 151.325 233.202 151.208C233.682 151.08 234.157 151.016 234.626 151.016ZM234.098 158.088C234.738 158.088 235.261 157.875 235.666 157.448C236.082 157.011 236.29 156.451 236.29 155.768V155.304H236.002C235.064 155.304 234.349 155.347 233.858 155.432C233.368 155.507 233.016 155.64 232.802 155.832C232.6 156.013 232.498 156.285 232.498 156.648C232.498 157.064 232.648 157.411 232.946 157.688C233.256 157.955 233.64 158.088 234.098 158.088ZM243.143 159.112C242.417 159.112 241.772 158.947 241.207 158.616C240.652 158.285 240.22 157.816 239.911 157.208C239.612 156.6 239.463 155.896 239.463 155.096C239.463 154.296 239.617 153.587 239.927 152.968C240.247 152.349 240.689 151.869 241.255 151.528C241.82 151.187 242.471 151.016 243.207 151.016C243.612 151.016 244.012 151.075 244.407 151.192C244.812 151.299 245.164 151.459 245.463 151.672C245.655 151.8 245.788 151.928 245.863 152.056C245.948 152.173 245.991 152.307 245.991 152.456C245.991 152.605 245.948 152.728 245.863 152.824C245.788 152.92 245.687 152.968 245.559 152.968C245.484 152.968 245.404 152.947 245.319 152.904C245.233 152.861 245.159 152.819 245.095 152.776C245.041 152.733 245.004 152.707 244.983 152.696C244.705 152.515 244.439 152.371 244.183 152.264C243.937 152.157 243.633 152.104 243.271 152.104C242.492 152.104 241.884 152.371 241.447 152.904C241.02 153.427 240.807 154.157 240.807 155.096C240.807 156.035 241.02 156.76 241.447 157.272C241.884 157.784 242.492 158.04 243.271 158.04C243.633 158.04 243.943 157.987 244.199 157.88C244.465 157.773 244.732 157.629 244.999 157.448C245.116 157.373 245.228 157.309 245.335 157.256C245.441 157.203 245.532 157.176 245.607 157.176C245.724 157.176 245.82 157.224 245.895 157.32C245.98 157.416 246.023 157.539 246.023 157.688C246.023 157.827 245.985 157.955 245.911 158.072C245.836 158.179 245.697 158.301 245.495 158.44C245.196 158.643 244.833 158.808 244.407 158.936C243.991 159.053 243.569 159.112 243.143 159.112ZM248.239 159.08C248.047 159.08 247.887 159.027 247.759 158.92C247.641 158.803 247.583 158.643 247.583 158.44V151.688C247.583 151.485 247.641 151.331 247.759 151.224C247.887 151.107 248.047 151.048 248.239 151.048C248.431 151.048 248.585 151.107 248.703 151.224C248.82 151.331 248.879 151.485 248.879 151.688V158.44C248.879 158.653 248.82 158.813 248.703 158.92C248.585 159.027 248.431 159.08 248.239 159.08ZM248.239 149.368C247.983 149.368 247.775 149.293 247.615 149.144C247.455 148.995 247.375 148.797 247.375 148.552C247.375 148.317 247.455 148.125 247.615 147.976C247.775 147.827 247.983 147.752 248.239 147.752C248.495 147.752 248.703 147.827 248.863 147.976C249.023 148.125 249.103 148.317 249.103 148.552C249.103 148.797 249.023 148.995 248.863 149.144C248.703 149.293 248.495 149.368 248.239 149.368ZM254.534 159.112C253.798 159.112 253.147 158.947 252.582 158.616C252.027 158.285 251.595 157.816 251.286 157.208C250.987 156.589 250.838 155.875 250.838 155.064C250.838 154.253 250.987 153.544 251.286 152.936C251.595 152.317 252.027 151.843 252.582 151.512C253.147 151.181 253.798 151.016 254.534 151.016C255.27 151.016 255.92 151.181 256.486 151.512C257.051 151.843 257.483 152.317 257.782 152.936C258.091 153.544 258.246 154.253 258.246 155.064C258.246 155.875 258.091 156.589 257.782 157.208C257.483 157.816 257.051 158.285 256.486 158.616C255.92 158.947 255.27 159.112 254.534 159.112ZM254.534 158.04C255.302 158.04 255.888 157.789 256.294 157.288C256.71 156.776 256.918 156.035 256.918 155.064C256.918 154.115 256.71 153.384 256.294 152.872C255.878 152.349 255.291 152.088 254.534 152.088C253.776 152.088 253.19 152.349 252.774 152.872C252.358 153.384 252.15 154.115 252.15 155.064C252.15 156.024 252.352 156.76 252.758 157.272C253.174 157.784 253.766 158.04 254.534 158.04ZM264.097 151.016C265.963 151.016 266.897 152.045 266.897 154.104V158.44C266.897 158.643 266.838 158.803 266.721 158.92C266.614 159.027 266.459 159.08 266.257 159.08C266.054 159.08 265.894 159.027 265.777 158.92C265.659 158.803 265.601 158.643 265.601 158.44V154.184C265.601 153.459 265.457 152.931 265.169 152.6C264.891 152.269 264.443 152.104 263.825 152.104C263.11 152.104 262.539 152.323 262.113 152.76C261.686 153.197 261.473 153.789 261.473 154.536V158.44C261.473 158.643 261.414 158.803 261.297 158.92C261.19 159.027 261.035 159.08 260.833 159.08C260.63 159.08 260.47 159.027 260.353 158.92C260.235 158.803 260.177 158.643 260.177 158.44V151.688C260.177 151.496 260.235 151.341 260.353 151.224C260.47 151.107 260.63 151.048 260.833 151.048C261.025 151.048 261.174 151.107 261.281 151.224C261.398 151.341 261.457 151.491 261.457 151.672V152.488C261.713 152.008 262.07 151.645 262.529 151.4C262.987 151.144 263.51 151.016 264.097 151.016ZM275.302 157.192C275.42 157.192 275.521 157.24 275.606 157.336C275.692 157.432 275.734 157.555 275.734 157.704C275.734 157.971 275.548 158.216 275.174 158.44C274.79 158.664 274.385 158.835 273.958 158.952C273.532 159.059 273.116 159.112 272.71 159.112C271.505 159.112 270.55 158.755 269.846 158.04C269.153 157.325 268.806 156.339 268.806 155.08C268.806 154.28 268.961 153.576 269.27 152.968C269.58 152.349 270.012 151.869 270.566 151.528C271.132 151.187 271.772 151.016 272.486 151.016C273.5 151.016 274.305 151.347 274.902 152.008C275.5 152.669 275.798 153.565 275.798 154.696C275.798 154.909 275.756 155.064 275.67 155.16C275.585 155.256 275.446 155.304 275.254 155.304H270.102C270.198 157.139 271.068 158.056 272.71 158.056C273.126 158.056 273.484 158.003 273.782 157.896C274.081 157.779 274.401 157.624 274.742 157.432C275.02 157.272 275.206 157.192 275.302 157.192ZM272.502 152.024C271.82 152.024 271.27 152.237 270.854 152.664C270.449 153.091 270.209 153.693 270.134 154.472H274.662C274.641 153.683 274.444 153.08 274.07 152.664C273.697 152.237 273.174 152.024 272.502 152.024ZM280.332 159.112C279.841 159.112 279.372 159.053 278.924 158.936C278.486 158.819 278.097 158.653 277.756 158.44C277.564 158.312 277.425 158.195 277.34 158.088C277.265 157.971 277.228 157.832 277.228 157.672C277.228 157.533 277.265 157.421 277.34 157.336C277.425 157.24 277.532 157.192 277.66 157.192C277.788 157.192 277.974 157.272 278.22 157.432C278.54 157.624 278.854 157.779 279.164 157.896C279.484 158.003 279.878 158.056 280.348 158.056C280.924 158.056 281.372 157.955 281.692 157.752C282.012 157.549 282.172 157.256 282.172 156.872C282.172 156.637 282.113 156.451 281.996 156.312C281.878 156.163 281.676 156.035 281.388 155.928C281.1 155.811 280.678 155.693 280.124 155.576C279.185 155.373 278.513 155.101 278.108 154.76C277.702 154.419 277.5 153.955 277.5 153.368C277.5 152.909 277.628 152.504 277.884 152.152C278.14 151.8 278.492 151.523 278.94 151.32C279.398 151.117 279.916 151.016 280.492 151.016C280.908 151.016 281.308 151.075 281.692 151.192C282.086 151.299 282.433 151.453 282.732 151.656C283.094 151.912 283.276 152.179 283.276 152.456C283.276 152.595 283.233 152.712 283.148 152.808C283.062 152.904 282.961 152.952 282.844 152.952C282.716 152.952 282.524 152.861 282.268 152.68C281.969 152.488 281.686 152.339 281.42 152.232C281.153 152.125 280.822 152.072 280.428 152.072C279.926 152.072 279.521 152.184 279.212 152.408C278.913 152.632 278.764 152.931 278.764 153.304C278.764 153.539 278.817 153.731 278.924 153.88C279.041 154.019 279.228 154.147 279.484 154.264C279.75 154.371 280.129 154.477 280.62 154.584C281.345 154.744 281.905 154.92 282.3 155.112C282.705 155.304 282.993 155.539 283.164 155.816C283.334 156.093 283.42 156.445 283.42 156.872C283.42 157.544 283.137 158.088 282.572 158.504C282.006 158.909 281.26 159.112 280.332 159.112Z" fill="#132144"/>
<path d="M101.24 213.8C101.533 213.8 101.767 213.9 101.94 214.1C102.127 214.287 102.22 214.533 102.22 214.84V227.06C102.22 227.367 102.127 227.62 101.94 227.82C101.753 228.007 101.513 228.1 101.22 228.1C100.873 228.1 100.607 227.967 100.42 227.7L92.58 217.36V227.06C92.58 227.367 92.4867 227.62 92.3 227.82C92.1267 228.007 91.8933 228.1 91.6 228.1C91.3067 228.1 91.0733 228.007 90.9 227.82C90.7267 227.633 90.64 227.38 90.64 227.06V214.84C90.64 214.533 90.7333 214.287 90.92 214.1C91.1067 213.9 91.3467 213.8 91.64 213.8C91.9867 213.8 92.2533 213.933 92.44 214.2L100.28 224.56V214.84C100.28 214.533 100.367 214.287 100.54 214.1C100.713 213.9 100.947 213.8 101.24 213.8ZM109.503 228.14C108.543 228.14 107.697 227.933 106.963 227.52C106.243 227.107 105.683 226.52 105.283 225.76C104.897 224.987 104.703 224.093 104.703 223.08C104.703 222.053 104.897 221.16 105.283 220.4C105.683 219.627 106.243 219.033 106.963 218.62C107.697 218.207 108.543 218 109.503 218C110.463 218 111.303 218.207 112.023 218.62C112.757 219.033 113.317 219.627 113.703 220.4C114.103 221.16 114.303 222.053 114.303 223.08C114.303 224.093 114.103 224.987 113.703 225.76C113.317 226.52 112.757 227.107 112.023 227.52C111.303 227.933 110.463 228.14 109.503 228.14ZM109.503 226.54C110.397 226.54 111.077 226.247 111.543 225.66C112.023 225.073 112.263 224.213 112.263 223.08C112.263 221.96 112.023 221.107 111.543 220.52C111.063 219.92 110.383 219.62 109.503 219.62C108.623 219.62 107.943 219.92 107.463 220.52C106.983 221.107 106.743 221.96 106.743 223.08C106.743 224.213 106.977 225.073 107.443 225.66C107.923 226.247 108.61 226.54 109.503 226.54ZM127.752 218C129.939 218 131.032 219.313 131.032 221.94V227.14C131.032 227.447 130.939 227.687 130.752 227.86C130.566 228.02 130.319 228.1 130.012 228.1C129.719 228.1 129.479 228.02 129.292 227.86C129.106 227.687 129.012 227.447 129.012 227.14V221.96C129.012 221.147 128.866 220.56 128.572 220.2C128.279 219.827 127.819 219.64 127.192 219.64C126.459 219.64 125.879 219.893 125.452 220.4C125.026 220.893 124.812 221.573 124.812 222.44V227.14C124.812 227.447 124.719 227.687 124.532 227.86C124.346 228.02 124.099 228.1 123.792 228.1C123.499 228.1 123.259 228.02 123.072 227.86C122.886 227.687 122.792 227.447 122.792 227.14V221.96C122.792 221.147 122.646 220.56 122.352 220.2C122.059 219.827 121.599 219.64 120.972 219.64C120.239 219.64 119.652 219.893 119.212 220.4C118.786 220.893 118.572 221.573 118.572 222.44V227.14C118.572 227.447 118.479 227.687 118.292 227.86C118.106 228.02 117.866 228.1 117.572 228.1C117.279 228.1 117.032 228.02 116.832 227.86C116.646 227.687 116.552 227.447 116.552 227.14V219C116.552 218.707 116.652 218.473 116.852 218.3C117.052 218.127 117.292 218.04 117.572 218.04C117.852 218.04 118.079 218.127 118.252 218.3C118.439 218.46 118.532 218.687 118.532 218.98V219.72C118.826 219.16 119.232 218.733 119.752 218.44C120.272 218.147 120.872 218 121.552 218C122.299 218 122.912 218.153 123.392 218.46C123.886 218.767 124.252 219.24 124.492 219.88C124.786 219.307 125.219 218.853 125.792 218.52C126.366 218.173 127.019 218 127.752 218ZM139.038 218C139.892 218 140.645 218.207 141.298 218.62C141.952 219.033 142.458 219.62 142.818 220.38C143.192 221.14 143.378 222.027 143.378 223.04C143.378 224.04 143.192 224.927 142.818 225.7C142.458 226.473 141.945 227.073 141.278 227.5C140.625 227.927 139.878 228.14 139.038 228.14C138.305 228.14 137.658 227.987 137.098 227.68C136.538 227.36 136.112 226.907 135.818 226.32V227.12C135.818 227.413 135.725 227.653 135.538 227.84C135.365 228.013 135.125 228.1 134.818 228.1C134.512 228.1 134.265 228.013 134.078 227.84C133.892 227.653 133.798 227.413 133.798 227.12V214.76C133.798 214.467 133.892 214.233 134.078 214.06C134.278 213.887 134.532 213.8 134.838 213.8C135.132 213.8 135.365 213.887 135.538 214.06C135.725 214.22 135.818 214.44 135.818 214.72V219.84C136.112 219.253 136.538 218.8 137.098 218.48C137.658 218.16 138.305 218 139.038 218ZM138.558 226.54C139.425 226.54 140.098 226.233 140.578 225.62C141.072 225.007 141.318 224.147 141.318 223.04C141.318 221.947 141.078 221.107 140.598 220.52C140.118 219.92 139.438 219.62 138.558 219.62C137.678 219.62 136.998 219.92 136.518 220.52C136.052 221.12 135.818 221.973 135.818 223.08C135.818 224.187 136.052 225.04 136.518 225.64C136.998 226.24 137.678 226.54 138.558 226.54ZM150.735 218.04C151.375 218 151.695 218.273 151.695 218.86C151.695 219.153 151.622 219.373 151.475 219.52C151.328 219.667 151.075 219.753 150.715 219.78L150.115 219.84C149.275 219.92 148.648 220.213 148.235 220.72C147.835 221.227 147.635 221.84 147.635 222.56V227.14C147.635 227.46 147.542 227.7 147.355 227.86C147.168 228.02 146.928 228.1 146.635 228.1C146.342 228.1 146.095 228.02 145.895 227.86C145.708 227.7 145.615 227.46 145.615 227.14V219C145.615 218.693 145.708 218.46 145.895 218.3C146.095 218.127 146.342 218.04 146.635 218.04C146.902 218.04 147.122 218.127 147.295 218.3C147.482 218.46 147.575 218.687 147.575 218.98V219.94C147.842 219.353 148.228 218.907 148.735 218.6C149.242 218.293 149.815 218.113 150.455 218.06L150.735 218.04ZM160.384 225.54C160.57 225.54 160.724 225.613 160.844 225.76C160.964 225.907 161.024 226.093 161.024 226.32C161.024 226.707 160.784 227.033 160.304 227.3C159.837 227.567 159.324 227.773 158.764 227.92C158.217 228.067 157.69 228.14 157.184 228.14C155.637 228.14 154.417 227.693 153.524 226.8C152.63 225.893 152.184 224.66 152.184 223.1C152.184 222.1 152.377 221.213 152.764 220.44C153.164 219.667 153.717 219.067 154.424 218.64C155.144 218.213 155.957 218 156.864 218C158.17 218 159.204 218.42 159.964 219.26C160.724 220.1 161.104 221.233 161.104 222.66C161.104 223.193 160.864 223.46 160.384 223.46H154.204C154.337 225.527 155.33 226.56 157.184 226.56C157.677 226.56 158.104 226.493 158.464 226.36C158.824 226.227 159.204 226.053 159.604 225.84C159.644 225.813 159.75 225.76 159.924 225.68C160.11 225.587 160.264 225.54 160.384 225.54ZM156.904 219.48C156.13 219.48 155.51 219.727 155.044 220.22C154.577 220.713 154.297 221.407 154.204 222.3H159.364C159.324 221.393 159.09 220.7 158.664 220.22C158.25 219.727 157.664 219.48 156.904 219.48ZM179.803 218C181.99 218 183.083 219.313 183.083 221.94V227.14C183.083 227.447 182.99 227.687 182.803 227.86C182.616 228.02 182.37 228.1 182.063 228.1C181.77 228.1 181.53 228.02 181.343 227.86C181.156 227.687 181.063 227.447 181.063 227.14V221.96C181.063 221.147 180.916 220.56 180.623 220.2C180.33 219.827 179.87 219.64 179.243 219.64C178.51 219.64 177.93 219.893 177.503 220.4C177.076 220.893 176.863 221.573 176.863 222.44V227.14C176.863 227.447 176.77 227.687 176.583 227.86C176.396 228.02 176.15 228.1 175.843 228.1C175.55 228.1 175.31 228.02 175.123 227.86C174.936 227.687 174.843 227.447 174.843 227.14V221.96C174.843 221.147 174.696 220.56 174.403 220.2C174.11 219.827 173.65 219.64 173.023 219.64C172.29 219.64 171.703 219.893 171.263 220.4C170.836 220.893 170.623 221.573 170.623 222.44V227.14C170.623 227.447 170.53 227.687 170.343 227.86C170.156 228.02 169.916 228.1 169.623 228.1C169.33 228.1 169.083 228.02 168.883 227.86C168.696 227.687 168.603 227.447 168.603 227.14V219C168.603 218.707 168.703 218.473 168.903 218.3C169.103 218.127 169.343 218.04 169.623 218.04C169.903 218.04 170.13 218.127 170.303 218.3C170.49 218.46 170.583 218.687 170.583 218.98V219.72C170.876 219.16 171.283 218.733 171.803 218.44C172.323 218.147 172.923 218 173.603 218C174.35 218 174.963 218.153 175.443 218.46C175.936 218.767 176.303 219.24 176.543 219.88C176.836 219.307 177.27 218.853 177.843 218.52C178.416 218.173 179.07 218 179.803 218ZM190.089 228.14C189.129 228.14 188.283 227.933 187.549 227.52C186.829 227.107 186.269 226.52 185.869 225.76C185.483 224.987 185.289 224.093 185.289 223.08C185.289 222.053 185.483 221.16 185.869 220.4C186.269 219.627 186.829 219.033 187.549 218.62C188.283 218.207 189.129 218 190.089 218C191.049 218 191.889 218.207 192.609 218.62C193.343 219.033 193.903 219.627 194.289 220.4C194.689 221.16 194.889 222.053 194.889 223.08C194.889 224.093 194.689 224.987 194.289 225.76C193.903 226.52 193.343 227.107 192.609 227.52C191.889 227.933 191.049 228.14 190.089 228.14ZM190.089 226.54C190.983 226.54 191.663 226.247 192.129 225.66C192.609 225.073 192.849 224.213 192.849 223.08C192.849 221.96 192.609 221.107 192.129 220.52C191.649 219.92 190.969 219.62 190.089 219.62C189.209 219.62 188.529 219.92 188.049 220.52C187.569 221.107 187.329 221.96 187.329 223.08C187.329 224.213 187.563 225.073 188.029 225.66C188.509 226.247 189.196 226.54 190.089 226.54ZM203.942 218.64C204.022 218.44 204.135 218.293 204.282 218.2C204.442 218.107 204.608 218.06 204.782 218.06C205.035 218.06 205.255 218.147 205.442 218.32C205.642 218.493 205.742 218.7 205.742 218.94C205.742 219.073 205.715 219.2 205.662 219.32L201.842 227.42C201.748 227.633 201.602 227.8 201.402 227.92C201.215 228.027 201.015 228.08 200.802 228.08C200.588 228.08 200.382 228.027 200.182 227.92C199.995 227.8 199.855 227.633 199.762 227.42L195.942 219.32C195.888 219.213 195.862 219.087 195.862 218.94C195.862 218.7 195.968 218.493 196.182 218.32C196.395 218.147 196.635 218.06 196.902 218.06C197.288 218.06 197.575 218.247 197.762 218.62L200.862 225.5L203.942 218.64ZM208.705 228.1C208.412 228.1 208.165 228.02 207.965 227.86C207.778 227.7 207.685 227.46 207.685 227.14V219.02C207.685 218.7 207.778 218.46 207.965 218.3C208.165 218.127 208.412 218.04 208.705 218.04C208.998 218.04 209.238 218.127 209.425 218.3C209.612 218.46 209.705 218.7 209.705 219.02V227.14C209.705 227.46 209.612 227.7 209.425 227.86C209.238 228.02 208.998 228.1 208.705 228.1ZM208.705 216.08C208.318 216.08 208.012 215.973 207.785 215.76C207.558 215.547 207.445 215.267 207.445 214.92C207.445 214.573 207.558 214.3 207.785 214.1C208.012 213.887 208.318 213.78 208.705 213.78C209.078 213.78 209.378 213.887 209.605 214.1C209.845 214.3 209.965 214.573 209.965 214.92C209.965 215.267 209.852 215.547 209.625 215.76C209.398 215.973 209.092 216.08 208.705 216.08ZM223.729 218C225.916 218 227.009 219.313 227.009 221.94V227.14C227.009 227.447 226.916 227.687 226.729 227.86C226.542 228.02 226.296 228.1 225.989 228.1C225.696 228.1 225.456 228.02 225.269 227.86C225.082 227.687 224.989 227.447 224.989 227.14V221.96C224.989 221.147 224.842 220.56 224.549 220.2C224.256 219.827 223.796 219.64 223.169 219.64C222.436 219.64 221.856 219.893 221.429 220.4C221.002 220.893 220.789 221.573 220.789 222.44V227.14C220.789 227.447 220.696 227.687 220.509 227.86C220.322 228.02 220.076 228.1 219.769 228.1C219.476 228.1 219.236 228.02 219.049 227.86C218.862 227.687 218.769 227.447 218.769 227.14V221.96C218.769 221.147 218.622 220.56 218.329 220.2C218.036 219.827 217.576 219.64 216.949 219.64C216.216 219.64 215.629 219.893 215.189 220.4C214.762 220.893 214.549 221.573 214.549 222.44V227.14C214.549 227.447 214.456 227.687 214.269 227.86C214.082 228.02 213.842 228.1 213.549 228.1C213.256 228.1 213.009 228.02 212.809 227.86C212.622 227.687 212.529 227.447 212.529 227.14V219C212.529 218.707 212.629 218.473 212.829 218.3C213.029 218.127 213.269 218.04 213.549 218.04C213.829 218.04 214.056 218.127 214.229 218.3C214.416 218.46 214.509 218.687 214.509 218.98V219.72C214.802 219.16 215.209 218.733 215.729 218.44C216.249 218.147 216.849 218 217.529 218C218.276 218 218.889 218.153 219.369 218.46C219.862 218.767 220.229 219.24 220.469 219.88C220.762 219.307 221.196 218.853 221.769 218.52C222.342 218.173 222.996 218 223.729 218ZM230.795 228.1C230.502 228.1 230.255 228.02 230.055 227.86C229.868 227.7 229.775 227.46 229.775 227.14V219.02C229.775 218.7 229.868 218.46 230.055 218.3C230.255 218.127 230.502 218.04 230.795 218.04C231.088 218.04 231.328 218.127 231.515 218.3C231.702 218.46 231.795 218.7 231.795 219.02V227.14C231.795 227.46 231.702 227.7 231.515 227.86C231.328 228.02 231.088 228.1 230.795 228.1ZM230.795 216.08C230.408 216.08 230.102 215.973 229.875 215.76C229.648 215.547 229.535 215.267 229.535 214.92C229.535 214.573 229.648 214.3 229.875 214.1C230.102 213.887 230.408 213.78 230.795 213.78C231.168 213.78 231.468 213.887 231.695 214.1C231.935 214.3 232.055 214.573 232.055 214.92C232.055 215.267 231.942 215.547 231.715 215.76C231.488 215.973 231.182 216.08 230.795 216.08ZM242.259 225.54C242.445 225.54 242.599 225.613 242.719 225.76C242.839 225.907 242.899 226.093 242.899 226.32C242.899 226.707 242.659 227.033 242.179 227.3C241.712 227.567 241.199 227.773 240.639 227.92C240.092 228.067 239.565 228.14 239.059 228.14C237.512 228.14 236.292 227.693 235.399 226.8C234.505 225.893 234.059 224.66 234.059 223.1C234.059 222.1 234.252 221.213 234.639 220.44C235.039 219.667 235.592 219.067 236.299 218.64C237.019 218.213 237.832 218 238.739 218C240.045 218 241.079 218.42 241.839 219.26C242.599 220.1 242.979 221.233 242.979 222.66C242.979 223.193 242.739 223.46 242.259 223.46H236.079C236.212 225.527 237.205 226.56 239.059 226.56C239.552 226.56 239.979 226.493 240.339 226.36C240.699 226.227 241.079 226.053 241.479 225.84C241.519 225.813 241.625 225.76 241.799 225.68C241.985 225.587 242.139 225.54 242.259 225.54ZM238.779 219.48C238.005 219.48 237.385 219.727 236.919 220.22C236.452 220.713 236.172 221.407 236.079 222.3H241.239C241.199 221.393 240.965 220.7 240.539 220.22C240.125 219.727 239.539 219.48 238.779 219.48ZM250.465 218C252.798 218 253.965 219.313 253.965 221.94V227.14C253.965 227.447 253.871 227.687 253.685 227.86C253.511 228.02 253.265 228.1 252.945 228.1C252.638 228.1 252.391 228.013 252.205 227.84C252.031 227.667 251.945 227.433 251.945 227.14V222.04C251.945 221.213 251.778 220.607 251.445 220.22C251.125 219.833 250.618 219.64 249.925 219.64C249.111 219.64 248.458 219.893 247.965 220.4C247.471 220.907 247.225 221.587 247.225 222.44V227.14C247.225 227.433 247.131 227.667 246.945 227.84C246.771 228.013 246.531 228.1 246.225 228.1C245.918 228.1 245.671 228.013 245.485 227.84C245.298 227.667 245.205 227.433 245.205 227.14V219C245.205 218.72 245.298 218.493 245.485 218.32C245.685 218.133 245.931 218.04 246.225 218.04C246.518 218.04 246.751 218.127 246.925 218.3C247.098 218.473 247.185 218.7 247.185 218.98V219.8C247.505 219.213 247.951 218.767 248.525 218.46C249.098 218.153 249.745 218 250.465 218ZM261.508 226.56C261.801 226.587 262.008 226.667 262.128 226.8C262.261 226.92 262.328 227.093 262.328 227.32C262.328 227.587 262.221 227.793 262.008 227.94C261.808 228.073 261.508 228.127 261.108 228.1L260.568 228.06C259.488 227.98 258.681 227.653 258.148 227.08C257.615 226.493 257.348 225.633 257.348 224.5V219.8H256.148C255.561 219.8 255.268 219.54 255.268 219.02C255.268 218.78 255.341 218.593 255.488 218.46C255.648 218.313 255.868 218.24 256.148 218.24H257.348V216.18C257.348 215.873 257.435 215.633 257.608 215.46C257.795 215.287 258.041 215.2 258.348 215.2C258.655 215.2 258.901 215.287 259.088 215.46C259.275 215.633 259.368 215.873 259.368 216.18V218.24H261.348C261.628 218.24 261.841 218.313 261.988 218.46C262.148 218.593 262.228 218.78 262.228 219.02C262.228 219.273 262.148 219.467 261.988 219.6C261.841 219.733 261.628 219.8 261.348 219.8H259.368V224.64C259.368 225.267 259.495 225.727 259.748 226.02C260.015 226.313 260.415 226.48 260.948 226.52L261.508 226.56ZM268.019 228.14C267.059 228.14 266.212 227.933 265.479 227.52C264.759 227.107 264.199 226.52 263.799 225.76C263.412 224.987 263.219 224.093 263.219 223.08C263.219 222.053 263.412 221.16 263.799 220.4C264.199 219.627 264.759 219.033 265.479 218.62C266.212 218.207 267.059 218 268.019 218C268.979 218 269.819 218.207 270.539 218.62C271.272 219.033 271.832 219.627 272.219 220.4C272.619 221.16 272.819 222.053 272.819 223.08C272.819 224.093 272.619 224.987 272.219 225.76C271.832 226.52 271.272 227.107 270.539 227.52C269.819 227.933 268.979 228.14 268.019 228.14ZM268.019 226.54C268.912 226.54 269.592 226.247 270.059 225.66C270.539 225.073 270.779 224.213 270.779 223.08C270.779 221.96 270.539 221.107 270.059 220.52C269.579 219.92 268.899 219.62 268.019 219.62C267.139 219.62 266.459 219.92 265.979 220.52C265.499 221.107 265.259 221.96 265.259 223.08C265.259 224.213 265.492 225.073 265.959 225.66C266.439 226.247 267.126 226.54 268.019 226.54Z" fill="black"/>
<path d="M97.042 337.81C97.266 337.81 97.434 337.861 97.546 337.964C97.6673 338.067 97.728 338.211 97.728 338.398C97.728 338.799 97.4993 339 97.042 339H91.638C91.4327 339 91.2693 338.944 91.148 338.832C91.036 338.711 90.98 338.561 90.98 338.384C90.98 338.169 91.064 337.973 91.232 337.796L94.522 334.198C94.9607 333.722 95.278 333.288 95.474 332.896C95.67 332.504 95.768 332.117 95.768 331.734C95.768 331.239 95.6233 330.861 95.334 330.6C95.054 330.329 94.6527 330.194 94.13 330.194C93.3367 330.194 92.548 330.497 91.764 331.104C91.6613 331.169 91.5727 331.221 91.498 331.258C91.4327 331.286 91.3627 331.3 91.288 331.3C91.1573 331.3 91.0453 331.239 90.952 331.118C90.8587 330.997 90.812 330.852 90.812 330.684C90.812 330.451 90.9053 330.264 91.092 330.124C91.484 329.788 91.9553 329.522 92.506 329.326C93.0567 329.121 93.612 329.018 94.172 329.018C95.096 329.018 95.8287 329.256 96.37 329.732C96.9207 330.199 97.196 330.833 97.196 331.636C97.196 332.205 97.07 332.747 96.818 333.26C96.5753 333.773 96.1647 334.347 95.586 334.982L92.94 337.81H97.042ZM102.595 339.112C101.447 339.112 100.569 338.683 99.9625 337.824C99.3652 336.965 99.0665 335.715 99.0665 334.072C99.0665 332.42 99.3652 331.165 99.9625 330.306C100.569 329.447 101.447 329.018 102.595 329.018C103.743 329.018 104.615 329.447 105.213 330.306C105.819 331.155 106.123 332.406 106.123 334.058C106.123 335.71 105.819 336.965 105.213 337.824C104.615 338.683 103.743 339.112 102.595 339.112ZM102.595 337.95C103.313 337.95 103.841 337.637 104.177 337.012C104.513 336.387 104.681 335.402 104.681 334.058C104.681 332.714 104.513 331.734 104.177 331.118C103.841 330.493 103.313 330.18 102.595 330.18C101.876 330.18 101.349 330.493 101.013 331.118C100.677 331.734 100.509 332.714 100.509 334.058C100.509 335.393 100.677 336.377 101.013 337.012C101.349 337.637 101.876 337.95 102.595 337.95ZM112.342 339C112.118 339 111.941 338.939 111.81 338.818C111.689 338.687 111.628 338.515 111.628 338.3V329.83C111.628 329.615 111.689 329.447 111.81 329.326C111.941 329.195 112.118 329.13 112.342 329.13H115.086C116.682 329.13 117.919 329.559 118.796 330.418C119.674 331.277 120.112 332.49 120.112 334.058C120.112 335.626 119.674 336.844 118.796 337.712C117.919 338.571 116.682 339 115.086 339H112.342ZM115.002 337.796C117.429 337.796 118.642 336.55 118.642 334.058C118.642 331.575 117.429 330.334 115.002 330.334H113.07V337.796H115.002ZM122.62 339.07C122.414 339.07 122.242 339.014 122.102 338.902C121.971 338.79 121.906 338.622 121.906 338.398V332.714C121.906 332.49 121.971 332.322 122.102 332.21C122.242 332.089 122.414 332.028 122.62 332.028C122.825 332.028 122.993 332.089 123.124 332.21C123.254 332.322 123.32 332.49 123.32 332.714V338.398C123.32 338.622 123.254 338.79 123.124 338.902C122.993 339.014 122.825 339.07 122.62 339.07ZM122.62 330.656C122.349 330.656 122.134 330.581 121.976 330.432C121.817 330.283 121.738 330.087 121.738 329.844C121.738 329.601 121.817 329.41 121.976 329.27C122.134 329.121 122.349 329.046 122.62 329.046C122.881 329.046 123.091 329.121 123.25 329.27C123.418 329.41 123.502 329.601 123.502 329.844C123.502 330.087 123.422 330.283 123.264 330.432C123.105 330.581 122.89 330.656 122.62 330.656ZM128.222 339.098C127.56 339.098 126.976 338.953 126.472 338.664C125.978 338.375 125.59 337.964 125.31 337.432C125.04 336.9 124.904 336.284 124.904 335.584C124.904 334.875 125.044 334.249 125.324 333.708C125.614 333.167 126.015 332.747 126.528 332.448C127.042 332.149 127.63 332 128.292 332C128.647 332 129.002 332.051 129.356 332.154C129.72 332.257 130.042 332.397 130.322 332.574C130.621 332.779 130.77 333.017 130.77 333.288C130.77 333.447 130.728 333.582 130.644 333.694C130.56 333.797 130.453 333.848 130.322 333.848C130.238 333.848 130.154 333.829 130.07 333.792C129.986 333.745 129.879 333.68 129.748 333.596C129.515 333.447 129.296 333.335 129.09 333.26C128.894 333.176 128.656 333.134 128.376 333.134C127.742 333.134 127.247 333.349 126.892 333.778C126.547 334.207 126.374 334.805 126.374 335.57C126.374 336.335 126.547 336.928 126.892 337.348C127.238 337.759 127.728 337.964 128.362 337.964C128.642 337.964 128.89 337.922 129.104 337.838C129.319 337.754 129.538 337.642 129.762 337.502C129.865 337.437 129.968 337.381 130.07 337.334C130.173 337.287 130.266 337.264 130.35 337.264C130.481 337.264 130.588 337.32 130.672 337.432C130.756 337.535 130.798 337.665 130.798 337.824C130.798 337.955 130.761 338.076 130.686 338.188C130.621 338.291 130.504 338.398 130.336 338.51C130.056 338.697 129.73 338.841 129.356 338.944C128.983 339.047 128.605 339.098 128.222 339.098ZM132.778 339.07C132.573 339.07 132.4 339.014 132.26 338.902C132.129 338.79 132.064 338.622 132.064 338.398V332.714C132.064 332.49 132.129 332.322 132.26 332.21C132.4 332.089 132.573 332.028 132.778 332.028C132.983 332.028 133.151 332.089 133.282 332.21C133.413 332.322 133.478 332.49 133.478 332.714V338.398C133.478 338.622 133.413 338.79 133.282 338.902C133.151 339.014 132.983 339.07 132.778 339.07ZM132.778 330.656C132.507 330.656 132.293 330.581 132.134 330.432C131.975 330.283 131.896 330.087 131.896 329.844C131.896 329.601 131.975 329.41 132.134 329.27C132.293 329.121 132.507 329.046 132.778 329.046C133.039 329.046 133.249 329.121 133.408 329.27C133.576 329.41 133.66 329.601 133.66 329.844C133.66 330.087 133.581 330.283 133.422 330.432C133.263 330.581 133.049 330.656 132.778 330.656ZM140.803 337.278C140.933 337.278 141.041 337.329 141.125 337.432C141.209 337.535 141.251 337.665 141.251 337.824C141.251 338.095 141.083 338.323 140.747 338.51C140.42 338.697 140.061 338.841 139.669 338.944C139.286 339.047 138.917 339.098 138.563 339.098C137.48 339.098 136.626 338.785 136.001 338.16C135.375 337.525 135.063 336.662 135.063 335.57C135.063 334.87 135.198 334.249 135.469 333.708C135.749 333.167 136.136 332.747 136.631 332.448C137.135 332.149 137.704 332 138.339 332C139.253 332 139.977 332.294 140.509 332.882C141.041 333.47 141.307 334.263 141.307 335.262C141.307 335.635 141.139 335.822 140.803 335.822H136.477C136.57 337.269 137.265 337.992 138.563 337.992C138.908 337.992 139.207 337.945 139.459 337.852C139.711 337.759 139.977 337.637 140.257 337.488C140.285 337.469 140.359 337.432 140.481 337.376C140.611 337.311 140.719 337.278 140.803 337.278ZM138.367 333.036C137.825 333.036 137.391 333.209 137.065 333.554C136.738 333.899 136.542 334.385 136.477 335.01H140.089C140.061 334.375 139.897 333.89 139.599 333.554C139.309 333.209 138.899 333.036 138.367 333.036ZM150.705 332C152.235 332 153.001 332.919 153.001 334.758V338.398C153.001 338.613 152.935 338.781 152.805 338.902C152.674 339.014 152.501 339.07 152.287 339.07C152.081 339.07 151.913 339.014 151.783 338.902C151.652 338.781 151.587 338.613 151.587 338.398V334.772C151.587 334.203 151.484 333.792 151.279 333.54C151.073 333.279 150.751 333.148 150.313 333.148C149.799 333.148 149.393 333.325 149.095 333.68C148.796 334.025 148.647 334.501 148.647 335.108V338.398C148.647 338.613 148.581 338.781 148.451 338.902C148.32 339.014 148.147 339.07 147.933 339.07C147.727 339.07 147.559 339.014 147.429 338.902C147.298 338.781 147.233 338.613 147.233 338.398V334.772C147.233 334.203 147.13 333.792 146.925 333.54C146.719 333.279 146.397 333.148 145.959 333.148C145.445 333.148 145.035 333.325 144.727 333.68C144.428 334.025 144.279 334.501 144.279 335.108V338.398C144.279 338.613 144.213 338.781 144.083 338.902C143.952 339.014 143.784 339.07 143.579 339.07C143.373 339.07 143.201 339.014 143.061 338.902C142.93 338.781 142.865 338.613 142.865 338.398V332.7C142.865 332.495 142.935 332.331 143.075 332.21C143.215 332.089 143.383 332.028 143.579 332.028C143.775 332.028 143.933 332.089 144.055 332.21C144.185 332.322 144.251 332.481 144.251 332.686V333.204C144.456 332.812 144.741 332.513 145.105 332.308C145.469 332.103 145.889 332 146.365 332C146.887 332 147.317 332.107 147.653 332.322C147.998 332.537 148.255 332.868 148.423 333.316C148.628 332.915 148.931 332.597 149.333 332.364C149.734 332.121 150.191 332 150.705 332ZM158.605 332C159.202 332 159.73 332.145 160.187 332.434C160.644 332.723 160.999 333.134 161.251 333.666C161.512 334.198 161.643 334.819 161.643 335.528C161.643 336.228 161.512 336.849 161.251 337.39C160.999 337.931 160.64 338.351 160.173 338.65C159.716 338.949 159.193 339.098 158.605 339.098C158.092 339.098 157.639 338.991 157.247 338.776C156.855 338.552 156.556 338.235 156.351 337.824V338.384C156.351 338.589 156.286 338.757 156.155 338.888C156.034 339.009 155.866 339.07 155.651 339.07C155.436 339.07 155.264 339.009 155.133 338.888C155.002 338.757 154.937 338.589 154.937 338.384V329.732C154.937 329.527 155.002 329.363 155.133 329.242C155.273 329.121 155.45 329.06 155.665 329.06C155.87 329.06 156.034 329.121 156.155 329.242C156.286 329.354 156.351 329.508 156.351 329.704V333.288C156.556 332.877 156.855 332.56 157.247 332.336C157.639 332.112 158.092 332 158.605 332ZM158.269 337.978C158.876 337.978 159.347 337.763 159.683 337.334C160.028 336.905 160.201 336.303 160.201 335.528C160.201 334.763 160.033 334.175 159.697 333.764C159.361 333.344 158.885 333.134 158.269 333.134C157.653 333.134 157.177 333.344 156.841 333.764C156.514 334.184 156.351 334.781 156.351 335.556C156.351 336.331 156.514 336.928 156.841 337.348C157.177 337.768 157.653 337.978 158.269 337.978ZM166.793 332.028C167.241 332 167.465 332.191 167.465 332.602C167.465 332.807 167.413 332.961 167.311 333.064C167.208 333.167 167.031 333.227 166.779 333.246L166.359 333.288C165.771 333.344 165.332 333.549 165.043 333.904C164.763 334.259 164.623 334.688 164.623 335.192V338.398C164.623 338.622 164.557 338.79 164.427 338.902C164.296 339.014 164.128 339.07 163.923 339.07C163.717 339.07 163.545 339.014 163.405 338.902C163.274 338.79 163.209 338.622 163.209 338.398V332.7C163.209 332.485 163.274 332.322 163.405 332.21C163.545 332.089 163.717 332.028 163.923 332.028C164.109 332.028 164.263 332.089 164.385 332.21C164.515 332.322 164.581 332.481 164.581 332.686V333.358C164.767 332.947 165.038 332.635 165.393 332.42C165.747 332.205 166.149 332.079 166.597 332.042L166.793 332.028ZM173.547 337.278C173.677 337.278 173.785 337.329 173.869 337.432C173.953 337.535 173.995 337.665 173.995 337.824C173.995 338.095 173.827 338.323 173.491 338.51C173.164 338.697 172.805 338.841 172.413 338.944C172.03 339.047 171.661 339.098 171.307 339.098C170.224 339.098 169.37 338.785 168.745 338.16C168.119 337.525 167.807 336.662 167.807 335.57C167.807 334.87 167.942 334.249 168.213 333.708C168.493 333.167 168.88 332.747 169.375 332.448C169.879 332.149 170.448 332 171.083 332C171.997 332 172.721 332.294 173.253 332.882C173.785 333.47 174.051 334.263 174.051 335.262C174.051 335.635 173.883 335.822 173.547 335.822H169.221C169.314 337.269 170.009 337.992 171.307 337.992C171.652 337.992 171.951 337.945 172.203 337.852C172.455 337.759 172.721 337.637 173.001 337.488C173.029 337.469 173.103 337.432 173.225 337.376C173.355 337.311 173.463 337.278 173.547 337.278ZM171.111 333.036C170.569 333.036 170.135 333.209 169.809 333.554C169.482 333.899 169.286 334.385 169.221 335.01H172.833C172.805 334.375 172.641 333.89 172.343 333.554C172.053 333.209 171.643 333.036 171.111 333.036ZM185.362 337.81C185.586 337.81 185.754 337.861 185.866 337.964C185.988 338.067 186.048 338.211 186.048 338.398C186.048 338.799 185.82 339 185.362 339H179.958C179.753 339 179.59 338.944 179.468 338.832C179.356 338.711 179.3 338.561 179.3 338.384C179.3 338.169 179.384 337.973 179.552 337.796L182.842 334.198C183.281 333.722 183.598 333.288 183.794 332.896C183.99 332.504 184.088 332.117 184.088 331.734C184.088 331.239 183.944 330.861 183.654 330.6C183.374 330.329 182.973 330.194 182.45 330.194C181.657 330.194 180.868 330.497 180.084 331.104C179.982 331.169 179.893 331.221 179.818 331.258C179.753 331.286 179.683 331.3 179.608 331.3C179.478 331.3 179.366 331.239 179.272 331.118C179.179 330.997 179.132 330.852 179.132 330.684C179.132 330.451 179.226 330.264 179.412 330.124C179.804 329.788 180.276 329.522 180.826 329.326C181.377 329.121 181.932 329.018 182.492 329.018C183.416 329.018 184.149 329.256 184.69 329.732C185.241 330.199 185.516 330.833 185.516 331.636C185.516 332.205 185.39 332.747 185.138 333.26C184.896 333.773 184.485 334.347 183.906 334.982L181.26 337.81H185.362ZM190.915 339.112C189.767 339.112 188.89 338.683 188.283 337.824C187.686 336.965 187.387 335.715 187.387 334.072C187.387 332.42 187.686 331.165 188.283 330.306C188.89 329.447 189.767 329.018 190.915 329.018C192.063 329.018 192.936 329.447 193.533 330.306C194.14 331.155 194.443 332.406 194.443 334.058C194.443 335.71 194.14 336.965 193.533 337.824C192.936 338.683 192.063 339.112 190.915 339.112ZM190.915 337.95C191.634 337.95 192.161 337.637 192.497 337.012C192.833 336.387 193.001 335.402 193.001 334.058C193.001 332.714 192.833 331.734 192.497 331.118C192.161 330.493 191.634 330.18 190.915 330.18C190.196 330.18 189.669 330.493 189.333 331.118C188.997 331.734 188.829 332.714 188.829 334.058C188.829 335.393 188.997 336.377 189.333 337.012C189.669 337.637 190.196 337.95 190.915 337.95ZM202.151 337.81C202.375 337.81 202.543 337.861 202.655 337.964C202.777 338.067 202.837 338.211 202.837 338.398C202.837 338.799 202.609 339 202.151 339H196.747C196.542 339 196.379 338.944 196.257 338.832C196.145 338.711 196.089 338.561 196.089 338.384C196.089 338.169 196.173 337.973 196.341 337.796L199.631 334.198C200.07 333.722 200.387 333.288 200.583 332.896C200.779 332.504 200.877 332.117 200.877 331.734C200.877 331.239 200.733 330.861 200.443 330.6C200.163 330.329 199.762 330.194 199.239 330.194C198.446 330.194 197.657 330.497 196.873 331.104C196.771 331.169 196.682 331.221 196.607 331.258C196.542 331.286 196.472 331.3 196.397 331.3C196.267 331.3 196.155 331.239 196.061 331.118C195.968 330.997 195.921 330.852 195.921 330.684C195.921 330.451 196.015 330.264 196.201 330.124C196.593 329.788 197.065 329.522 197.615 329.326C198.166 329.121 198.721 329.018 199.281 329.018C200.205 329.018 200.938 329.256 201.479 329.732C202.03 330.199 202.305 330.833 202.305 331.636C202.305 332.205 202.179 332.747 201.927 333.26C201.685 333.773 201.274 334.347 200.695 334.982L198.049 337.81H202.151ZM210.546 337.81C210.77 337.81 210.938 337.861 211.05 337.964C211.171 338.067 211.232 338.211 211.232 338.398C211.232 338.799 211.003 339 210.546 339H205.142C204.937 339 204.773 338.944 204.652 338.832C204.54 338.711 204.484 338.561 204.484 338.384C204.484 338.169 204.568 337.973 204.736 337.796L208.026 334.198C208.465 333.722 208.782 333.288 208.978 332.896C209.174 332.504 209.272 332.117 209.272 331.734C209.272 331.239 209.127 330.861 208.838 330.6C208.558 330.329 208.157 330.194 207.634 330.194C206.841 330.194 206.052 330.497 205.268 331.104C205.165 331.169 205.077 331.221 205.002 331.258C204.937 331.286 204.867 331.3 204.792 331.3C204.661 331.3 204.549 331.239 204.456 331.118C204.363 330.997 204.316 330.852 204.316 330.684C204.316 330.451 204.409 330.264 204.596 330.124C204.988 329.788 205.459 329.522 206.01 329.326C206.561 329.121 207.116 329.018 207.676 329.018C208.6 329.018 209.333 329.256 209.874 329.732C210.425 330.199 210.7 330.833 210.7 331.636C210.7 332.205 210.574 332.747 210.322 333.26C210.079 333.773 209.669 334.347 209.09 334.982L206.444 337.81H210.546Z" fill="black" fill-opacity="0.5"/>
<path d="M108.067 267.003C105.841 267.003 104 268.752 104 270.932V301.069C104 303.22 105.811 304.997 108.067 304.997H131.935C134.161 304.997 136.002 303.248 136.002 301.069V276.265C136.002 276.265 136.061 275.548 135.734 274.831C135.438 274.172 134.933 273.713 134.933 273.713L129.025 268.093C129.025 268.093 128.521 267.634 127.779 267.319C126.888 266.946 125.997 267.003 125.997 267.003H108.067Z" fill="#FF2116"/>
<path d="M108.067 268.294H125.968C125.968 268.294 126.68 268.294 127.215 268.523C127.719 268.724 128.075 269.039 128.075 269.039L133.983 274.631C133.983 274.631 134.339 275.003 134.517 275.376C134.666 275.692 134.666 276.237 134.666 276.237V276.265V301.098C134.666 302.56 133.449 303.736 131.935 303.736H108.067C106.553 303.736 105.336 302.56 105.336 301.098V270.932C105.336 269.469 106.553 268.294 108.067 268.294Z" fill="#F5F5F5"/>
<path d="M111.986 289.656C111.065 288.767 112.075 287.563 114.746 286.244L116.438 285.441L117.092 284.036C117.448 283.262 118.012 282 118.309 281.255L118.843 279.878L118.457 278.846C117.982 277.584 117.834 275.692 118.131 275.003C118.517 274.086 119.823 274.172 120.327 275.176C120.743 275.95 120.684 277.355 120.209 279.133L119.823 280.595L120.179 281.169C120.357 281.484 120.921 282.23 121.396 282.803L122.316 283.893L123.444 283.749C127.066 283.291 128.283 284.065 128.283 285.183C128.283 286.588 125.433 286.703 123.058 285.097C122.524 284.724 122.168 284.38 122.168 284.38C122.168 284.38 120.684 284.667 119.941 284.868C119.17 285.068 118.813 285.183 117.685 285.556C117.685 285.556 117.299 286.101 117.032 286.502C116.082 287.993 114.984 289.198 114.182 289.656C113.381 290.058 112.461 290.086 111.986 289.656ZM113.44 289.14C113.945 288.825 115.014 287.649 115.726 286.531L116.023 286.072L114.687 286.732C112.639 287.735 111.689 288.681 112.164 289.255C112.431 289.57 112.787 289.542 113.44 289.14ZM126.829 285.527C127.333 285.183 127.274 284.495 126.68 284.208C126.235 283.979 125.879 283.95 124.721 283.95C124.008 284.007 122.88 284.122 122.673 284.179C122.673 284.179 123.296 284.61 123.563 284.753C123.919 284.954 124.84 285.326 125.493 285.527C126.146 285.728 126.532 285.728 126.829 285.527ZM121.426 283.348C121.129 283.032 120.595 282.402 120.268 281.914C119.823 281.369 119.615 280.997 119.615 280.997C119.615 280.997 119.288 281.971 119.051 282.574L118.249 284.495L118.012 284.925C118.012 284.925 119.259 284.524 119.882 284.38C120.565 284.208 121.901 283.95 121.901 283.95L121.426 283.348ZM119.704 276.638C119.793 276.007 119.823 275.376 119.615 275.061C119.021 274.459 118.338 274.946 118.457 276.409C118.487 276.896 118.635 277.756 118.784 278.272L119.081 279.219L119.288 278.502C119.407 278.129 119.585 277.269 119.704 276.638Z" fill="#FF2116"/>
<path d="M113.559 293.757H115.043C115.518 293.757 115.904 293.814 116.201 293.9C116.498 293.986 116.735 294.187 116.943 294.474C117.151 294.761 117.24 295.133 117.24 295.535C117.24 295.908 117.151 296.252 117.003 296.51C116.824 296.796 116.617 296.997 116.349 297.112C116.082 297.227 115.637 297.284 115.073 297.284H114.568V299.549H113.559V293.757ZM114.568 294.502V296.538H115.073C115.518 296.538 115.815 296.452 115.993 296.309C116.171 296.137 116.26 295.879 116.26 295.535C116.26 295.277 116.201 295.047 116.082 294.875C115.964 294.703 115.845 294.617 115.726 294.56C115.607 294.531 115.37 294.502 115.103 294.502H114.568Z" fill="#2C2C2C"/>
<path d="M118.042 293.757H119.407C120.06 293.757 120.595 293.872 120.98 294.101C121.366 294.33 121.663 294.646 121.871 295.105C122.079 295.535 122.168 296.051 122.168 296.567C122.168 297.141 122.079 297.657 121.901 298.087C121.723 298.517 121.455 298.89 121.07 299.148C120.713 299.435 120.179 299.549 119.466 299.549H118.042V293.757ZM119.021 294.531V298.804H119.437C120.031 298.804 120.446 298.603 120.713 298.23C120.98 297.829 121.099 297.313 121.099 296.682C121.099 295.248 120.535 294.531 119.437 294.531H119.021Z" fill="#2C2C2C"/>
<path d="M123.118 293.757H126.472V294.531H124.127V296.28H125.997V297.055H124.127V299.578H123.118V293.757Z" fill="#2C2C2C"/>
<path d="M160.067 267.003C157.841 267.003 156 268.752 156 270.932V301.069C156 303.22 157.811 304.997 160.067 304.997H183.935C186.161 304.997 188.002 303.248 188.002 301.069V276.265C188.002 276.265 188.061 275.548 187.734 274.831C187.438 274.172 186.933 273.713 186.933 273.713L181.025 268.093C181.025 268.093 180.521 267.634 179.779 267.319C178.888 266.946 177.997 267.003 177.997 267.003H160.067Z" fill="#FF2116"/>
<path d="M160.067 268.294H177.968C177.968 268.294 178.68 268.294 179.215 268.523C179.719 268.724 180.075 269.039 180.075 269.039L185.983 274.631C185.983 274.631 186.339 275.003 186.517 275.376C186.666 275.692 186.666 276.237 186.666 276.237V276.265V301.098C186.666 302.56 185.449 303.736 183.935 303.736H160.067C158.553 303.736 157.336 302.56 157.336 301.098V270.932C157.336 269.469 158.553 268.294 160.067 268.294Z" fill="#F5F5F5"/>
<path d="M163.986 289.656C163.065 288.767 164.075 287.563 166.746 286.244L168.438 285.441L169.092 284.036C169.448 283.262 170.012 282 170.309 281.255L170.843 279.878L170.457 278.846C169.982 277.584 169.834 275.692 170.131 275.003C170.517 274.086 171.823 274.172 172.327 275.176C172.743 275.95 172.684 277.355 172.209 279.133L171.823 280.595L172.179 281.169C172.357 281.484 172.921 282.23 173.396 282.803L174.316 283.893L175.444 283.749C179.066 283.291 180.283 284.065 180.283 285.183C180.283 286.588 177.433 286.703 175.058 285.097C174.524 284.724 174.168 284.38 174.168 284.38C174.168 284.38 172.684 284.667 171.941 284.868C171.17 285.068 170.813 285.183 169.685 285.556C169.685 285.556 169.299 286.101 169.032 286.502C168.082 287.993 166.984 289.198 166.182 289.656C165.381 290.058 164.461 290.086 163.986 289.656ZM165.44 289.14C165.945 288.825 167.014 287.649 167.726 286.531L168.023 286.072L166.687 286.732C164.639 287.735 163.689 288.681 164.164 289.255C164.431 289.57 164.787 289.542 165.44 289.14ZM178.829 285.527C179.333 285.183 179.274 284.495 178.68 284.208C178.235 283.979 177.879 283.95 176.721 283.95C176.008 284.007 174.88 284.122 174.673 284.179C174.673 284.179 175.296 284.61 175.563 284.753C175.919 284.954 176.84 285.326 177.493 285.527C178.146 285.728 178.532 285.728 178.829 285.527ZM173.426 283.348C173.129 283.032 172.595 282.402 172.268 281.914C171.823 281.369 171.615 280.997 171.615 280.997C171.615 280.997 171.288 281.971 171.051 282.574L170.249 284.495L170.012 284.925C170.012 284.925 171.259 284.524 171.882 284.38C172.565 284.208 173.901 283.95 173.901 283.95L173.426 283.348ZM171.704 276.638C171.793 276.007 171.823 275.376 171.615 275.061C171.021 274.459 170.338 274.946 170.457 276.409C170.487 276.896 170.635 277.756 170.784 278.272L171.081 279.219L171.288 278.502C171.407 278.129 171.585 277.269 171.704 276.638Z" fill="#FF2116"/>
<path d="M165.559 293.757H167.043C167.518 293.757 167.904 293.814 168.201 293.9C168.498 293.986 168.735 294.187 168.943 294.474C169.151 294.761 169.24 295.133 169.24 295.535C169.24 295.908 169.151 296.252 169.003 296.51C168.824 296.796 168.617 296.997 168.349 297.112C168.082 297.227 167.637 297.284 167.073 297.284H166.568V299.549H165.559V293.757ZM166.568 294.502V296.538H167.073C167.518 296.538 167.815 296.452 167.993 296.309C168.171 296.137 168.26 295.879 168.26 295.535C168.26 295.277 168.201 295.047 168.082 294.875C167.964 294.703 167.845 294.617 167.726 294.56C167.607 294.531 167.37 294.502 167.103 294.502H166.568Z" fill="#2C2C2C"/>
<path d="M170.042 293.757H171.407C172.06 293.757 172.595 293.872 172.98 294.101C173.366 294.33 173.663 294.646 173.871 295.105C174.079 295.535 174.168 296.051 174.168 296.567C174.168 297.141 174.079 297.657 173.901 298.087C173.723 298.517 173.455 298.89 173.07 299.148C172.713 299.435 172.179 299.549 171.466 299.549H170.042V293.757ZM171.021 294.531V298.804H171.437C172.031 298.804 172.446 298.603 172.713 298.23C172.98 297.829 173.099 297.313 173.099 296.682C173.099 295.248 172.535 294.531 171.437 294.531H171.021Z" fill="#2C2C2C"/>
<path d="M175.118 293.757H178.472V294.531H176.127V296.28H177.997V297.055H176.127V299.578H175.118V293.757Z" fill="#2C2C2C"/>
<circle cx="41.5" cy="8.5" r="5.5" fill="#61C453"/>
<circle cx="23.5" cy="8.5" r="5.5" fill="#F6BE4B"/>
<circle cx="5.5" cy="8.5" r="5.5" fill="#EF6A5F"/>
</svg>
