<svg width="512" height="512" viewBox="0 0 512 512" fill="none" xmlns="http://www.w3.org/2000/svg">
<path d="M307.735 76.625H410.324C424.511 76.625 435.972 88.0762 435.972 102.25C435.972 116.424 424.511 127.875 410.324 127.875H319.277C315.109 148.535 300.923 165.592 282.088 173.76V409.75H410.324C424.511 409.75 435.972 421.201 435.972 435.375C435.972 449.549 424.511 461 410.324 461H256.441H102.557C88.371 461 76.9099 449.549 76.9099 435.375C76.9099 421.201 88.371 409.75 102.557 409.75H230.794V173.76C211.959 165.512 197.773 148.455 193.605 127.875H102.557C88.371 127.875 76.9099 116.424 76.9099 102.25C76.9099 88.0762 88.371 76.625 102.557 76.625H205.146C216.848 61.0898 235.442 51 256.441 51C277.44 51 296.034 61.0898 307.735 76.625ZM352.298 307.25H468.351L410.324 207.793L352.298 307.25ZM410.324 384.125C359.912 384.125 317.994 356.898 309.338 320.943C307.254 312.135 310.14 303.086 314.708 295.238L391.009 164.551C395.016 157.664 402.39 153.5 410.324 153.5C418.259 153.5 425.633 157.744 429.64 164.551L505.941 295.238C510.509 303.086 513.394 312.135 511.311 320.943C502.655 356.898 460.737 384.125 410.324 384.125ZM101.595 207.793L43.5684 307.25H159.702L101.595 207.793ZM0.689367 320.943C-1.39447 312.135 1.49084 303.086 6.05927 295.238L82.3599 164.551C86.3673 157.664 93.7409 153.5 101.676 153.5C109.61 153.5 116.984 157.744 120.991 164.551L197.292 295.238C201.86 303.086 204.746 312.135 202.662 320.943C193.926 356.898 152.008 384.125 101.595 384.125C51.1824 384.125 9.34532 356.898 0.689367 320.943Z" fill="#377DFF"/>
</svg>
